<?xml version="1.0" encoding="UTF-8"?>
<svg id="EV" xmlns="http://www.w3.org/2000/svg" version="1.1" viewBox="0 0 841.89 595.28">
  <defs>
    <style>
      .st0{fill:#8F6645;}
      .st1{fill:#EEEEEE;}
      .st2{fill:#DDDDDD;}
      .st3{fill:#3D3A37;}
      .st4{fill:#C4C4C4;}
      .st5{fill:#3D3A37;}
      .st6{fill:#000000;}
      .st7{fill:#FFFFFF;}
      .st8{fill:#888888;}
      .st9{fill:#7884AF;}
    </style>
  </defs>
  <g>
    <polygon class="st4" points="621.2 506.21 817.26 495.12 817.26 262.21 817.26 252.03 708.85 201.78 616.4 255.09 621.2 263.55 621.2 506.21"/>
    <polygon class="st4" points="598.19 265.59 598.19 275.77 592.99 276.07 592.99 508.23 621.2 506.64 621.2 506.21 621.2 263.55 616.4 255.09 598.19 265.59"/>
    <polygon class="st4" points="543.29 277.71 543.29 510.62 590.02 507.98 590.02 276.24 551.47 278.42 543.29 277.71"/>
  </g>
  <g>
    <polygon class="st0" points="825.44 262.92 825.44 252.73 817.26 252.03 817.26 262.21 825.44 262.92"/>
    <polygon class="st0" points="353.29 261.34 263.31 266.43 263.31 486.49 543.29 510.62 543.29 277.71 353.29 261.34"/>
    <polygon class="st0" points="89.06 471.47 228.16 483.46 228.16 282.72 89.06 270.73 89.06 471.47"/>
    <polygon class="st4" points="590.02 507.98 592.99 508.23 592.99 276.07 590.02 276.24 590.02 507.98"/>
  </g>
  <g >
    <g>
      <polygon class="st8" points="253.51 475.9 298.51 479.78 298.51 315.21 253.51 311.33 253.51 475.9"/>
      <polygon class="st8" points="199.93 306.72 199.93 471.28 244.01 475.08 244.01 310.52 199.93 306.72"/>
      <path class="st7" d="M199.93,471.28v-164.56l44.08,3.8v164.57l-44.08-3.8ZM298.51,479.78l-44.99-3.88v-164.57l44.99,3.88v164.56ZM304.88,305.67l-111.31-9.6v184.75l111.31,9.59v-184.75Z"/>
    </g>
  </g>
  <polygon  class="st0" points="10.57 480.1 24.38 481.29 24.38 265.16 42.23 266.69 89.06 270.73 228.16 282.72 228.16 483.46 228.16 498.85 245.46 500.34 245.46 248.81 10.57 228.56 10.57 480.1"/>
  <g>
    <polygon class="st4" points="245.46 500.34 263.31 499.33 263.31 486.49 263.31 266.43 353.29 261.34 353.29 242.7 245.46 248.81 245.46 500.34"/>
    <polygon class="st4" points="42.23 480.28 42.23 266.69 24.38 265.16 24.38 481.29 42.23 480.28"/>
  </g>
  <g id="roof">
    <polygon class="st3" points="825.44 252.73 711.81 200.07 708.85 201.78 817.26 252.03 825.44 252.73"/>
    <polygon class="st3" points="592.31 257.48 711.81 188.56 241.23 148 121.73 216.91 592.31 257.48"/>
    <polygon class="st3" points="592.31 257.48 121.73 216.91 80.88 219.22 118.4 222.46 80.88 224.58 10.57 228.56 245.46 248.81 353.29 242.7 551.47 259.79 592.31 257.48"/>
  </g>
  <g>
    <polygon class="st2" points="118.4 222.46 80.88 219.22 80.88 224.58 118.4 222.46"/>
    <polygon class="st2" points="831.32 255.84 831.32 243.95 711.81 188.56 592.31 257.48 551.47 259.79 551.47 278.42 590.02 276.24 592.99 276.07 598.19 275.77 598.19 265.59 616.4 255.09 708.85 201.78 711.81 200.07 825.44 252.73 831.32 255.84"/>
    <polygon class="st2" points="825.44 262.92 831.32 262.58 831.32 255.84 825.44 252.73 825.44 262.92"/>
    <polygon class="st2" points="353.29 242.7 353.29 261.34 543.29 277.71 551.47 278.42 551.47 259.79 353.29 242.7"/>
  </g>
  <g id="chimney">
    <g>
      <polygon class="st5" points="467.59 217.79 501.22 220.69 501.22 76.06 499.42 76.16 467.59 73.42 467.59 217.79"/>
      <polygon class="st6" points="501.22 76.06 501.22 220.69 534.91 218.78 534.91 74.15 501.22 76.06"/>
      <polygon class="st5" points="467.59 62.53 447.94 63.65 499.42 68.08 552.76 65.07 534.91 63.53 534.91 64.78 501.22 66.68 467.59 63.79 467.59 62.53"/>
      <polygon class="st6" points="552.76 65.07 499.42 68.08 499.42 76.16 501.22 76.06 534.91 74.15 552.76 73.14 552.76 65.07"/>
      <polygon class="st5" points="499.42 68.08 447.94 63.65 447.94 71.72 467.59 73.42 499.42 76.16 499.42 68.08"/>
      <polygon class="st5" points="467.59 63.79 501.22 66.68 501.22 49.07 467.59 46.18 467.59 62.53 467.59 63.79"/>
      <polygon class="st5" points="467.59 46.18 501.22 49.07 534.91 47.17 501.28 44.27 467.59 46.18"/>
      <polygon class="st6" points="501.22 49.07 501.22 66.68 534.91 64.78 534.91 63.53 534.91 47.17 501.22 49.07"/>
    </g>
  </g>
  <g>
    <g>
      <path class="st7" d="M460.52,337.85v23.71l-30.45-2.62v-23.71l30.45,2.63ZM493.24,340.67v23.71l-28.99-2.5v-23.71l28.99,2.5ZM525.21,420.77l-129.37-11.15v-45.39l129.37,11.15v45.39ZM496.52,364.66v-23.71l28.69,2.47v23.71l-28.69-2.47ZM426.2,358.6l-30.36-2.62v-23.71l30.36,2.62v23.71ZM391.37,324.81v91.51l138.3,11.92v-91.51l-138.3-11.92Z"/>
      <path class="st7" d="M151.72,327.38l-31.43-2.71v-28.03l31.43,2.71v28.03ZM120.29,332.61l68.93,5.94v53.45l-68.93-5.94v-53.45ZM158.01,299.89l31.2,2.69v28.03l-31.2-2.69v-28.03ZM193.56,296.07l-77.62-6.69v103.19l77.62,6.69v-103.19Z"/>
    </g>
    <g>
      <polygon class="st9" points="189.22 302.58 158.01 299.89 158.01 327.92 189.22 330.61 189.22 302.58"/>
      <polygon class="st9" points="189.22 338.56 120.29 332.61 120.29 386.07 189.22 392.01 189.22 338.56"/>
      <polygon class="st9" points="120.29 324.67 151.72 327.38 151.72 299.35 120.29 296.64 120.29 324.67"/>
      <polygon class="st9" points="395.84 355.98 426.2 358.6 426.2 334.89 395.84 332.28 395.84 355.98"/>
      <polygon class="st9" points="496.52 340.95 496.52 364.66 525.21 367.13 525.21 343.43 496.52 340.95"/>
      <polygon class="st9" points="395.84 409.62 525.21 420.77 525.21 375.38 395.84 364.23 395.84 409.62"/>
      <polygon class="st9" points="493.24 364.38 493.24 340.67 464.24 338.17 464.24 361.88 493.24 364.38"/>
      <polygon class="st9" points="460.52 361.56 460.52 337.85 430.07 335.23 430.07 358.93 460.52 361.56"/>
    </g>
    <g>
      <g>
        <polygon class="st7" points="800.38 309.02 797.4 308.76 626.81 318.41 629.79 318.67 800.38 309.02"/>
        <polygon class="st7" points="529.68 336.73 532.13 336.59 393.83 324.67 391.37 324.81 529.68 336.73"/>
      </g>
    </g>
  </g>
  <g id="right-window">
    <g>
      <path class="st7" d="M718.98,404.73v-36.46l32.97-1.87v36.46l-32.97,1.87ZM710.95,359.1l-33.15,1.88v-36.47l33.15-1.88v36.47ZM793.72,317.94v36.47l-32.63,1.85v-36.47l32.63-1.85ZM669.86,371.05v36.46l-33.42,1.89v-36.46l33.42-1.89ZM669.86,361.42l-33.42,1.89v-36.47l33.42-1.89v36.47ZM751.95,320.3v36.47l-32.97,1.87v-36.47l32.97-1.87ZM677.8,407.06v-36.46l33.15-1.88v36.46l-33.15,1.88ZM793.72,400.5l-32.63,1.85v-36.46l32.63-1.85v36.46ZM800.38,408.66v-99.65l-170.59,9.65v99.65l170.59-9.65Z"/>
      <polygon class="st7" points="529.68 428.24 532.13 428.1 532.13 336.59 529.68 336.73 529.68 428.24"/>
    </g>
    <polygon class="st9" points="761.09 402.34 793.72 400.5 793.72 364.04 761.09 365.89 761.09 402.34"/>
    <polygon class="st9" points="677.8 370.6 677.8 407.06 710.95 405.18 710.95 368.72 677.8 370.6"/>
    <polygon class="st9" points="751.95 356.77 751.95 320.3 718.98 322.17 718.98 358.64 751.95 356.77"/>
    <polygon class="st9" points="636.44 363.31 669.86 361.42 669.86 324.95 636.44 326.84 636.44 363.31"/>
    <polygon class="st9" points="669.86 407.51 669.86 371.05 636.44 372.94 636.44 409.4 669.86 407.51"/>
    <polygon class="st9" points="793.72 354.41 793.72 317.94 761.09 319.79 761.09 356.26 793.72 354.41"/>
    <polygon class="st9" points="677.8 360.97 710.95 359.1 710.95 322.62 677.8 324.5 677.8 360.97"/>
    <polygon class="st9" points="718.98 368.27 718.98 404.73 751.95 402.86 751.95 366.4 718.98 368.27"/>
    <polygon class="st8" points="626.81 418.06 629.79 418.32 629.79 318.67 626.81 318.41 626.81 418.06"/>
  </g>
</svg>