<?xml version="1.0" encoding="UTF-8"?>
<svg id="EV" xmlns="http://www.w3.org/2000/svg" version="1.1" viewBox="0 0 841.89 595.28">
  <defs>
    <style>
      .st0{fill:#8F6645;}
      .st1{fill:#EEEEEE;}
      .st2{fill:#DDDDDD;}
      .st3{fill:#3D3A37;}
      .st4{fill:#C4C4C4;}
      .st5{fill:#3D3A37;}
      .st6{fill:#000000;}
      .st7{fill:#FFFFFF;}
      .st8{fill:#888888;}
      .st9{fill:#7884AF;}
    </style>
  </defs>
  <g>
    <polygon class="st4" points="131.14 202.72 100.57 219.39 100.57 221.32 100.57 519.9 100.57 520.05 168 521.34 168 224.23 131.14 202.72"/>
    <polygon class="st4" points="239.16 276.54 239.16 265.76 171.67 226.37 171.67 521.26 294.25 523.61 294.25 277.22 284.7 277.41 239.16 276.54"/>
    <polygon class="st4" points="27.2 272.1 27.2 518.49 100.57 519.9 100.57 221.32 27.2 261.32 27.2 272.1"/>
  </g>
  <g>
    <polygon class="st4" points="168 224.23 168 521.34 171.67 521.26 171.67 226.37 168 224.23"/>
    <polygon class="st0" points="27.2 261.32 17.65 261.52 17.65 272.29 27.2 272.1 27.2 261.32"/>
    <polygon class="st0" points="416.22 278.2 328.52 276.52 294.25 277.22 294.25 523.61 416.22 521.13 416.22 278.2"/>
    <polygon class="st0" points="707.96 515.2 824.78 512.82 824.78 266.42 707.96 268.8 707.96 515.2"/>
    <polygon class="st0" points="449.75 520.45 670.35 515.96 670.35 291.46 449.75 295.95 449.75 520.45"/>
  </g>
  <g>
    <g>
      <g>
        <path class="st7" d="M163.41,458.09l-26.67-.51v-52.26l26.67.51v52.26ZM163.41,397.18l-26.67-.51v-50.9l26.67.51v50.9ZM131.16,405.21v52.26l-26.01-.5v-52.26l26.01.5ZM131.16,345.66v50.9l-26.01-.5v-50.9l26.01.5ZM168,339.98l-67.43-1.29v124.58l67.43,1.29v-124.58Z"/>
      </g>
      <polygon class="st7" points="814.14 330.04 811.74 329.99 650.21 333.28 652.61 333.33 814.14 330.04"/>
      <g>
        <path class="st7" d="M372.7,363.59l-36.71.75v-29.65l36.71-.75v29.65ZM335.99,372.74l80.51-1.64v56.55l-80.51,1.64v-56.55ZM380.05,333.79l36.44-.74v29.65l-36.44.74v-29.65ZM421.57,325.66l-90.66,1.84v109.17l90.66-1.84v-109.17Z"/>
      </g>
    </g>
    <g>
      <polygon class="st9" points="131.16 396.57 131.16 345.66 105.15 345.16 105.15 396.07 131.16 396.57"/>
      <polygon class="st9" points="131.16 457.47 131.16 405.21 105.15 404.71 105.15 456.97 131.16 457.47"/>
      <polygon class="st9" points="136.75 396.67 163.41 397.18 163.41 346.28 136.75 345.77 136.75 396.67"/>
      <polygon class="st9" points="136.75 457.57 163.41 458.09 163.41 405.83 136.75 405.31 136.75 457.57"/>
      <polygon class="st9" points="416.5 333.05 380.05 333.79 380.05 363.44 416.5 362.7 416.5 333.05"/>
      <polygon class="st9" points="416.5 371.11 335.99 372.74 335.99 429.29 416.5 427.66 416.5 371.11"/>
      <polygon class="st9" points="335.99 364.34 372.7 363.59 372.7 333.94 335.99 334.69 335.99 364.34"/>
    </g>
  </g>
  <g id="left-window">
    <polygon class="st9" points="657.82 365.79 693.29 365.07 693.29 339.99 657.82 340.71 657.82 365.79"/>
    <polygon class="st9" points="775.41 338.32 775.41 363.4 808.92 362.72 808.92 337.64 775.41 338.32"/>
    <polygon class="st9" points="657.82 422.54 808.92 419.46 808.92 371.44 657.82 374.52 657.82 422.54"/>
    <polygon class="st9" points="771.58 363.48 771.58 338.4 737.72 339.09 737.72 364.17 771.58 363.48"/>
    <polygon class="st9" points="733.37 364.26 733.37 339.17 697.8 339.9 697.8 364.98 733.37 364.26"/>
    <path class="st7" d="M733.37,339.17v25.08l-35.57.72v-25.08l35.57-.72ZM771.58,338.4v25.08l-33.86.69v-25.08l33.86-.69ZM808.92,419.46l-151.1,3.07v-48.02l151.1-3.07v48.02ZM775.41,363.4v-25.08l33.51-.68v25.08l-33.51.68ZM693.29,365.07l-35.46.72v-25.08l35.46-.72v25.08ZM652.61,333.33v96.81l161.53-3.29v-96.81l-161.53,3.29Z"/>
    <polygon class="st8" points="650.21 430.09 652.61 430.14 652.61 333.33 650.21 333.28 650.21 430.09"/>
  </g>
  <g>
    <g>
      <polygon class="st8" points="491.59 509.02 544.14 507.95 544.14 333.85 491.59 334.92 491.59 509.02"/>
      <polygon class="st8" points="429.01 336.19 429.01 510.29 480.49 509.24 480.49 335.14 429.01 336.19"/>
      <path class="st7" d="M429.01,510.29v-174.1l51.48-1.05v174.1l-51.48,1.05ZM544.14,507.95l-52.55,1.07v-174.1l52.55-1.07v174.1ZM551.58,323.02l-130.01,2.64v195.46l130.01-2.65v-195.45Z"/>
    </g>
  </g>
  <g>
    <polygon class="st4" points="670.35 519.43 687.75 519.76 687.75 291.11 670.35 291.46 670.35 515.96 670.35 519.43"/>
    <polygon class="st4" points="433.62 524.93 433.62 258.82 328.52 256.81 328.52 276.52 416.22 278.2 416.22 521.13 416.22 524.6 433.62 524.93"/>
  </g>
  <polygon class="st0" points="433.62 524.93 449.75 524.6 449.75 520.45 449.75 295.95 670.35 291.46 687.75 291.11 687.75 519.76 707.96 519.35 707.96 515.2 707.96 268.8 707.96 253.24 433.62 258.82 433.62 524.93"/>
  <g id="roof">
    <g>
      <polygon class="st3" points="794.52 245.75 678.03 177.77 128.41 188.95 244.89 256.94 794.52 245.75"/>
      <polygon class="st3" points="794.52 245.75 244.89 256.94 284.7 257.7 328.52 256.81 433.62 258.82 707.96 253.24 602.86 251.23 834.33 246.52 794.52 245.75"/>
      <polygon class="st3" points="128.41 201.13 17.65 261.52 27.2 261.32 100.57 221.32 100.57 219.39 131.14 202.72 128.41 201.13"/>
    </g>
    <polygon class="st2" points="11.92 272.18 17.65 272.29 17.65 261.52 128.41 201.13 131.14 202.72 168 224.23 171.67 226.37 239.16 265.76 239.16 276.54 284.7 277.41 284.7 257.7 244.89 256.94 128.41 188.95 11.92 252.47 11.92 272.18"/>
    <polygon class="st2" points="294.25 277.22 328.52 276.52 328.52 256.81 284.7 257.7 284.7 277.41 294.25 277.22"/>
    <polygon class="st2" points="834.33 246.52 602.86 251.23 707.96 253.24 707.96 268.8 824.78 266.42 834.33 266.23 834.33 246.52"/>
  </g>
  <g id="chimney">
    <polygon class="st6" points="408.18 232.59 441.01 233.22 441.01 79.24 408.18 78.61 408.18 232.59"/>
    <polygon class="st5" points="441.01 233.22 480.29 232.42 480.29 78.46 441.39 79.25 441.01 79.24 441.01 233.22"/>
    <polygon class="st5" points="501.52 69.48 480.29 69.07 480.29 69.49 441.01 70.29 408.18 69.66 408.18 69.33 389.4 69.71 441.39 70.7 501.52 69.48"/>
    <polygon class="st6" points="441.39 70.7 389.4 69.71 389.4 78.25 408.18 78.61 441.01 79.24 441.39 79.25 441.39 70.7"/>
    <polygon class="st5" points="501.52 69.48 441.39 70.7 441.39 79.25 480.29 78.46 501.52 78.02 501.52 69.48"/>
    <polygon class="st5" points="441.01 70.29 480.29 69.49 480.29 69.07 480.29 50.86 441.01 51.66 441.01 70.29"/>
    <polygon class="st6" points="441.01 70.29 441.01 51.66 408.18 51.03 408.18 69.33 408.18 69.66 441.01 70.29"/>
    <polygon class="st5" points="441.01 51.66 480.29 50.86 447.46 50.23 408.18 51.03 441.01 51.66"/>
  </g>
</svg>