<?xml version="1.0" encoding="UTF-8"?>
<svg id="Layer_1" data-name="Layer 1" xmlns="http://www.w3.org/2000/svg" version="1.1" viewBox="0 0 841.89 595.28">
  <defs>
    <style>
      .st0{fill:#8F6645;}
      .st1{fill:#EEEEEE;}
      .st2{fill:#DDDDDD;}
      .st3{fill:#3D3A37;}
      .st4{fill:#C4C4C4;}
      .st5{fill:#3D3A37;}
      .st6{fill:#000000;}
      .st7{fill:#FFFFFF;}
      .st8{fill:#888888;}
      .st9{fill:#7884AF;}
    </style>
  </defs>
  <g id="body">
    <polygon class="st0" points="22.72 300.29 22.72 533.46 80.77 537.24 80.77 339.06 101.79 338.11 153.08 308.79 22.72 300.29"/>
    <polygon class="st4" points="636.03 271.91 604.83 256.89 567.42 278.28 567.42 560.31 636.03 557.21 636.03 556.85 636.03 273.24 636.03 271.91"/>
    <polygon class="st4" points="567.42 560.31 567.42 278.28 564.21 280.11 564.21 560.1 567.42 560.31"/>
    <polygon class="st4" points="494.16 330.37 488.33 330.64 485.82 330.48 485.82 563.64 564.21 560.1 564.21 280.11 494.16 320.15 494.16 330.37"/>
    <polygon class="st4" points="719.55 320.19 711.22 319.64 711.22 309.42 636.03 273.24 636.03 556.85 757.56 551.36 757.56 324.54 757.56 318.47 719.55 320.19"/>
    <polygon class="st0" points="485.82 563.64 485.82 330.48 343.68 321.21 312.45 341.13 276.56 361.64 264.09 362.21 264.09 549.19 485.82 563.64"/>
    <polygon class="st0" points="104.76 538.81 236.82 547.41 236.82 361.81 104.76 353.2 104.76 538.81"/>
  </g>
  <g id="door">
    <polygon class="st8" points="342.64 367.9 337.92 368.12 337.92 554.52 342.64 554.31 342.64 367.9"/>
    <polygon class="st8" points="337.92 368.12 342.64 367.9 215.81 359.64 211.09 359.85 337.92 368.12"/>
    <polygon class="st8" points="280.28 550.77 332.21 554.15 332.21 376.65 280.28 373.27 280.28 461.25 285.57 461.01 291.74 461.41 291.74 477.01 286.02 477.26 280.28 476.89 280.28 550.77"/>
    <polygon class="st7" points="280.28 373.27 332.21 376.65 332.21 554.15 337.92 554.52 337.92 368.12 211.09 359.85 211.09 546.26 216.8 546.63 216.8 369.13 268.91 372.53 280.28 373.27"/>
    <polygon class="st7" points="280.28 550.77 280.28 476.89 279.85 476.86 279.85 461.27 280.28 461.25 280.28 373.27 268.91 372.53 268.91 550.03 280.28 550.77"/>
    <path class="st8" d="M236.42,476.74l-11.52-.75v-81.89l32.65,2.13v24.71l-21.14-1.38v57.19ZM251.83,459.44l5.72-.26,6.18.4v15.59l-5.72.26-6.18-.4v-15.59ZM268.91,550.03v-177.5l-52.11-3.4v177.5l52.11,3.4Z"/>
    <polygon class="st7" points="279.85 461.27 279.85 476.86 280.28 476.89 286.02 477.26 286.02 461.67 279.85 461.27"/>
    <polygon class="st7" points="286.02 477.26 291.74 477.01 291.74 461.41 286.02 461.67 286.02 477.26"/>
    <polygon class="st7" points="286.02 461.67 291.74 461.41 285.57 461.01 280.28 461.25 279.85 461.27 286.02 461.67"/>
    <polygon class="st7" points="257.55 459.18 251.83 459.44 258.01 459.85 263.73 459.59 257.55 459.18"/>
    <polygon class="st7" points="263.73 459.59 258.01 459.85 258.01 475.44 263.73 475.18 263.73 459.59"/>
    <polygon class="st7" points="258.01 459.85 251.83 459.44 251.83 475.04 258.01 475.44 258.01 459.85"/>
    <polygon class="st9" points="224.9 475.99 236.42 476.74 236.42 419.56 257.55 420.94 257.55 396.23 224.9 394.1 224.9 475.99"/>
  </g>
  <g>
    <g>
      <polygon class="st7" points="206.96 462.77 206.96 357.46 202.24 357.68 202.24 462.99 206.96 462.77"/>
      <polygon class="st7" points="441.95 351.83 441.95 457.14 446.68 456.92 446.68 351.61 441.95 351.83"/>
    </g>
    <g>
      <polygon class="st7" points="47.29 347.06 42.57 347.27 105.72 351.39 110.45 351.17 47.29 347.06"/>
      <polygon class="st7" points="206.96 357.46 143.81 353.35 139.09 353.56 202.24 357.68 206.96 357.46"/>
      <polygon class="st7" points="378.8 347.71 441.95 351.83 446.68 351.61 383.53 347.5 378.8 347.71"/>
    </g>
    <g>
      <path class="st7" d="M102.24,447.64l-56.19-3.66v-91.05l56.19,3.66v91.05ZM105.72,351.39l-63.15-4.12v105.31l63.15,4.12v-105.31Z"/>
      <path class="st7" d="M198.76,362.88v91.05l-56.19-3.66v-91.05l56.19,3.66ZM202.24,357.68l-63.15-4.12v105.31l63.15,4.12v-105.31Z"/>
      <path class="st7" d="M438.47,448.08l-56.19-3.66v-91.05l56.19,3.66v91.05ZM378.8,347.71v105.31l63.15,4.12v-105.31l-63.15-4.12Z"/>
    </g>
    <g>
      <polygon class="st9" points="46.05 443.98 102.24 447.64 102.24 356.59 46.05 352.93 46.05 443.98"/>
      <polygon class="st9" points="198.76 453.93 198.76 362.88 142.57 359.22 142.57 450.27 198.76 453.93"/>
      <polygon class="st9" points="382.28 444.42 438.47 448.08 438.47 357.03 382.28 353.37 382.28 444.42"/>
    </g>
  </g>
  <g>
    <polygon class="st4" points="272.64 349.24 251.62 350.19 251.62 560.25 264.09 559.68 264.09 549.19 264.09 362.21 276.56 361.64 312.45 341.13 343.68 321.21 353.31 315.07 353.31 303.13 272.64 349.24"/>
    <polygon class="st4" points="834.59 544.57 834.59 292.06 727.64 296.89 765.9 299.39 765.9 313.87 816.89 311.56 816.89 545.37 834.59 544.57"/>
    <polygon class="st4" points="92.3 352.39 92.3 549.86 104.76 549.3 104.76 538.81 104.76 353.2 92.3 352.39"/>
  </g>
  <g>
    <polygon class="st0" points="757.56 324.54 802.81 327.48 802.81 544.46 816.89 545.37 816.89 311.56 765.9 313.87 765.9 318.09 757.56 318.47 757.56 324.54"/>
    <polygon class="st0" points="251.62 560.25 251.62 350.19 80.77 339.06 80.77 537.24 80.77 549.11 92.3 549.86 92.3 352.39 104.76 353.2 236.82 361.81 236.82 547.41 236.82 559.28 251.62 560.25"/>
  </g>
  <g id="chimney">
    <polygon class="st6" points="342.03 275.34 375.44 273.83 375.44 128.32 342.28 129.82 342.03 129.81 342.03 275.34"/>
    <polygon class="st5" points="342.03 275.34 342.03 129.81 307.74 127.57 307.74 273.11 342.03 275.34"/>
    <polygon class="st5" points="307.74 117.49 289.79 118.3 342.28 121.72 395.18 119.33 375.44 118.04 375.44 119.23 342.03 120.74 307.74 118.51 307.74 117.49"/>
    <polygon class="st6" points="395.18 119.33 342.28 121.72 342.28 129.82 375.44 128.32 395.18 127.43 395.18 119.33"/>
    <polygon class="st5" points="342.28 129.82 342.28 121.72 289.79 118.3 289.79 126.4 307.74 127.57 342.03 129.81 342.28 129.82"/>
    <polygon class="st5" points="375.44 101.55 341.16 99.32 307.74 100.83 342.03 103.07 375.44 101.55"/>
    <polygon class="st6" points="342.03 120.74 375.44 119.23 375.44 118.04 375.44 101.55 342.03 103.07 342.03 120.74"/>
    <polygon class="st5" points="342.03 120.74 342.03 103.07 307.74 100.83 307.74 117.49 307.74 118.51 342.03 120.74"/>
  </g>
  <g id="roof">
    <g>
      <polygon class="st2" points="719.55 309.96 606.86 255.74 604.83 256.89 636.03 271.91 636.03 273.24 711.22 309.42 719.55 309.96"/>
      <polygon class="st2" points="719.55 309.96 711.22 309.42 711.22 319.64 719.55 320.19 719.55 309.96"/>
      <g>
        <polygon class="st2" points="8.55 280.67 8.55 292.6 163.71 302.71 182.46 292 8.55 280.67"/>
        <polygon class="st2" points="488.33 311.93 353.31 303.13 353.31 315.07 343.68 321.21 485.82 330.48 488.33 330.64 488.33 311.93"/>
        <polygon class="st2" points="488.33 311.93 488.33 330.64 494.16 330.37 494.16 320.15 564.21 280.11 567.42 278.28 604.83 256.89 606.86 255.74 719.55 309.96 719.55 320.19 757.56 318.47 765.9 318.09 765.9 313.87 765.9 299.39 725.38 301.22 686.26 282.39 606.86 244.19 488.33 311.93"/>
        <polygon class="st2" points="8.55 292.6 8.55 299.37 22.72 300.29 153.08 308.79 163.71 302.71 8.55 292.6"/>
      </g>
      <polygon class="st2" points="272.64 349.24 101.79 338.11 80.77 339.06 251.62 350.19 272.64 349.24"/>
    </g>
    <g>
      <polyline class="st3" points="307.74 224.69 127.08 212.92 8.55 280.67 182.46 292 163.71 302.71 153.08 308.79 101.79 338.11 272.64 349.24 353.31 303.13 488.33 311.93 606.86 244.19 375.44 229.1 352.92 227.64"/>
      <path class="st3" d="M307.74,224.69"/>
      <path class="st3" d="M352.92,227.64"/>
      <polygon class="st3" points="834.59 292.06 686.26 282.39 725.38 301.22 765.9 299.39 727.64 296.89 834.59 292.06"/>
    </g>
  </g>
  <g id="left-window">
    <polygon class="st9" points="598.55 441.17 598.55 392.87 572.08 394.07 572.08 442.37 598.55 441.17"/>
    <polygon class="st9" points="598.55 498.96 598.55 449.37 572.08 450.57 572.08 500.16 598.55 498.96"/>
    <polygon class="st9" points="604.24 440.91 631.37 439.69 631.37 391.39 604.24 392.61 604.24 440.91"/>
    <polygon class="st9" points="604.24 498.7 631.37 497.48 631.37 447.89 604.24 449.11 604.24 498.7"/>
    <path class="st7" d="M631.37,497.48l-27.14,1.23v-49.59l27.14-1.23v49.59ZM631.37,439.69l-27.14,1.23v-48.3l27.14-1.23v48.3ZM598.55,449.37v49.59l-26.46,1.2v-49.59l26.46-1.2ZM598.55,392.87v48.3l-26.46,1.2v-48.3l26.46-1.2ZM636.03,385.12l-68.61,3.1v118.21l68.61-3.1v-118.21Z"/>
  </g>
</svg>