<?xml version="1.0" encoding="UTF-8"?>
<svg id="Layer_1" data-name="Layer 1" xmlns="http://www.w3.org/2000/svg" version="1.1" viewBox="0 0 841.89 595.28">
  <defs>
    <style>
      .st0{fill:#8F6645;}
      .st1{fill:#EEEEEE;}
      .st2{fill:#DDDDDD;}
      .st3{fill:#3D3A37;}
      .st4{fill:#C4C4C4;}
      .st5{fill:#3D3A37;}
      .st6{fill:#000000;}
      .st7{fill:#FFFFFF;}
      .st8{fill:#888888;}
      .st9{fill:#7884AF;}
    </style>
  </defs>
  <polygon class="st1" points="235.76 190.39 97.77 252.98 102.36 252.76 129 240.67 131.63 240.55 238.88 191.91 235.76 190.39"/>
  <g>
    <polygon class="st4" points="136.61 520.08 139.24 519.96 139.24 253.2 136.61 253.32 136.61 520.08"/>
    <polygon class="st4" points="139.24 253.2 131.63 240.55 129 240.67 136.61 253.32 139.24 253.2"/>
  </g>
  <g id="body">
    <g>
      <g>
        <polygon class="st0" points="380.96 268.78 380.96 523.92 640.73 511.66 640.73 303.19 625.46 302.94 581.52 281.57 543.97 261.09 380.96 268.78"/>
        <polygon class="st0" points="782.03 282.35 782.03 249.86 717.78 252.89 778.23 282.29 782.03 282.35"/>
        <polygon class="st0" points="380.88 261.39 380.88 268.79 380.96 268.78 543.97 261.09 531.49 254.28 380.88 261.39"/>
      </g>
      <g>
        <polygon class="st4" points="139.24 519.96 380.96 523.92 380.96 268.78 380.88 268.79 373.74 268.67 373.74 257.49 238.88 191.91 131.63 240.55 139.24 253.2 139.24 519.96"/>
        <polygon class="st4" points="373.74 268.67 380.88 268.79 380.88 261.39 373.74 257.49 373.74 268.67"/>
        <polygon class="st4" points="48.25 263.34 48.25 518.47 102.36 519.35 102.36 263.93 97.77 264.15 48.25 263.34"/>
        <polygon class="st4" points="102.36 519.52 136.61 520.08 136.61 253.32 129 240.67 102.36 252.76 102.36 263.93 102.36 519.35 102.36 519.52"/>
      </g>
    </g>
    <polygon class="st0" points="665.98 510.47 775.87 505.29 775.87 297.78 665.98 302.97 665.98 510.47"/>
  </g>
  <g>
    <g>
      <path class="st7" d="M460.11,419.83l-48.66,2.3v-99.53l48.66-2.3v99.53ZM463.12,314.23l-54.69,2.58v115.12l54.69-2.58h0v-115.12Z"/>
      <polygon class="st7" points="408.43 316.81 463.12 314.23 457.34 314.13 402.65 316.71 408.43 316.81"/>
      <polygon class="st7" points="408.43 316.81 402.65 316.71 402.65 431.83 408.43 431.93 408.43 316.81"/>
      <polygon class="st7" points="540.93 310.19 486.24 312.77 492.02 312.86 546.71 310.28 540.93 310.19"/>
      <path class="st7" d="M543.69,316.36v99.53l-48.66,2.3v-99.53l48.66-2.3ZM546.71,310.28l-54.69,2.58v115.12l54.69-2.58v-115.12Z"/>
      <polygon class="st7" points="463.16 428.98 463.12 428.98 463.12 429.34 463.16 429.34 463.16 428.98"/>
      <polygon class="st7" points="354.62 317.22 357.25 317.1 150.08 313.71 147.45 313.83 354.62 317.22"/>
      <path class="st7" d="M751.3,382.62l-48.66,2.3v-99.53l48.66-2.3v99.53ZM699.62,279.6v115.12l54.69-2.58v-115.12l-54.69,2.58Z"/>
      <polygon class="st7" points="699.62 394.71 699.62 279.6 693.84 279.5 693.84 394.62 699.62 394.71"/>
      <polygon class="st7" points="699.62 279.6 754.31 277.02 748.53 276.92 693.84 279.5 699.62 279.6"/>
    </g>
    <g>
      <polygon class="st9" points="411.44 422.13 460.11 419.83 460.11 320.3 411.44 322.6 411.44 422.13"/>
      <polygon class="st9" points="543.69 415.89 543.69 316.36 495.03 318.66 495.03 418.19 543.69 415.89"/>
      <polygon class="st9" points="702.64 384.92 751.3 382.62 751.3 283.09 702.64 285.39 702.64 384.92"/>
    </g>
  </g>
  <g id="chimney">
    <polygon class="st6" points="444.67 220.37 444.67 60.9 417.59 62.18 414.98 62.14 414.98 221.77 444.67 220.37"/>
    <polygon class="st5" points="374.07 61.47 374.07 221.1 414.98 221.77 414.98 62.14 374.07 61.47"/>
    <polygon class="st5" points="463.05 51.18 444.67 50.88 444.67 51.37 414.98 52.77 374.07 52.1 374.07 51.26 352.81 52.26 417.59 53.32 463.05 51.18"/>
    <polygon class="st5" points="417.59 53.32 352.81 52.26 352.81 61.12 374.07 61.47 414.98 62.14 417.59 62.18 417.59 53.32"/>
    <polygon class="st6" points="463.05 60.04 463.05 51.18 417.59 53.32 417.59 62.18 444.67 60.9 463.05 60.04"/>
    <polygon class="st5" points="403.76 31.37 374.07 32.77 414.98 33.44 444.67 32.04 403.76 31.37"/>
    <polygon class="st6" points="414.98 52.77 444.67 51.37 444.67 50.88 444.67 32.04 414.98 33.44 414.98 52.77"/>
    <polygon class="st5" points="414.98 52.77 414.98 33.44 374.07 32.77 374.07 51.26 374.07 52.1 414.98 52.77"/>
  </g>
  <g id="door">
    <g>
      <polygon class="st4" points="663.81 307.17 658.03 307.08 548.19 312.26 553.97 312.35 663.81 307.17"/>
      <polygon class="st4" points="594.21 415.73 601.21 415.84 606.56 415.59 604.04 415.55 599.56 415.48 594.21 415.73"/>
      <polygon class="st4" points="630.83 414.45 623.82 414.33 618.47 414.59 625.48 414.7 630.83 414.45"/>
    </g>
    <polygon class="st4" points="553.97 312.35 548.19 312.26 548.19 516.03 553.97 516.12 553.97 312.35"/>
    <polygon class="st4" points="594.21 415.73 594.21 432.77 601.21 432.89 601.21 415.84 594.21 415.73"/>
    <polygon class="st4" points="625.48 431.74 625.48 414.7 618.47 414.59 618.47 431.63 625.48 431.74"/>
    <g>
      <path class="st8" d="M618.47,431.63v-17.04l5.35-.25,7.01.11v17.04l-5.35.25-7.01-.11ZM613.89,513.3l44.97-2.12v-194.03l-44.97,2.12v194.03Z"/>
      <polygon class="st7" points="613.89 319.26 658.86 317.14 658.86 511.17 663.81 510.94 663.81 307.17 553.97 312.35 553.97 516.12 558.92 515.89 558.92 321.86 604.04 319.73 613.89 319.26"/>
      <polygon class="st7" points="613.89 513.3 613.89 319.26 604.04 319.73 604.04 415.55 606.56 415.59 606.56 432.64 604.04 432.76 604.04 513.76 613.89 513.3"/>
      <path class="st8" d="M575.9,437.29l-9.98.47v-89.52l28.28-1.33v27.01l-18.3.86v62.51ZM604.04,415.55v-95.82l-45.13,2.13v194.03l45.13-2.13v-81l-2.83.13-7.01-.11v-17.04l5.35-.25,4.49.07Z"/>
      <polygon class="st7" points="606.56 415.59 601.21 415.84 601.21 432.89 604.04 432.76 606.56 432.64 606.56 415.59"/>
      <polygon class="st9" points="565.93 437.76 575.9 437.29 575.9 374.78 594.21 373.92 594.21 346.91 565.93 348.24 565.93 437.76"/>
      <polygon class="st7" points="625.48 414.7 625.48 431.74 630.83 431.49 630.83 414.45 625.48 414.7"/>
    </g>
  </g>
  <g>
    <polygon class="st2" points="796.39 228.74 679.46 234.25 717.78 252.89 782.03 249.86 796.39 249.18 796.39 228.74"/>
    <polygon class="st2" points="97.77 252.98 97.77 264.15 102.36 263.93 102.36 252.76 97.77 252.98"/>
    <polygon class="st2" points="380.88 248.34 380.88 261.39 531.49 254.28 531.49 241.23 380.88 248.34"/>
    <polygon class="st0" points="803.96 512.33 803.96 282.71 655.99 289.69 655.99 519.31 665.98 518.84 665.98 510.47 665.98 302.97 775.87 297.78 791.14 297.06 791.14 512.93 803.96 512.33"/>
  </g>
  <g>
    <polygon class="st2" points="380.88 248.34 235.76 177.76 118.86 230.78 114.29 232.86 98.38 240.07 90.63 243.59 41.03 242.77 41.03 263.22 48.25 263.34 97.77 264.15 97.77 252.98 235.76 190.39 238.88 191.91 373.74 257.49 380.88 261.39 380.88 248.34"/>
    <polygon class="st4" points="655.99 519.31 655.99 289.69 630.26 289.27 531.49 241.23 531.49 254.28 543.97 261.09 581.52 281.57 625.46 302.94 640.73 303.19 640.73 511.66 640.73 519.06 655.99 519.31"/>
    <polygon class="st2" points="85.06 232.38 85.06 240.7 98.38 240.07 114.29 232.86 85.06 232.38"/>
    <polygon class="st4" points="791.14 512.93 791.14 297.06 775.87 297.78 775.87 505.29 775.87 512.68 791.14 512.93"/>
  </g>
  <g id="roof">
    <polygon class="st3" points="651.26 158.16 235.76 177.76 380.88 248.34 531.49 241.23 630.26 289.27 778.23 282.29 717.78 252.89 679.46 234.25 796.39 228.74 651.26 158.16"/>
    <polygon class="st3" points="778.23 282.29 630.26 289.27 655.99 289.69 803.96 282.71 782.03 282.35 778.23 282.29"/>
    <polygon class="st3" points="118.86 230.78 85.06 232.38 114.29 232.86 118.86 230.78"/>
    <polygon class="st3" points="41.03 242.77 90.63 243.59 98.38 240.07 85.06 240.7 41.03 242.77"/>
  </g>
  <g id="right-window">
    <polygon class="st9" points="306.9 416.41 346.54 417.06 346.54 377.06 306.9 376.41 306.9 416.41"/>
    <polygon class="st9" points="205.75 374.75 205.75 414.76 246.01 415.42 246.01 375.41 205.75 374.75"/>
    <polygon class="st9" points="295.81 365.66 295.81 325.64 255.77 324.98 255.77 365 295.81 365.66"/>
    <polygon class="st9" points="155.53 363.36 196.11 364.03 196.11 324 155.53 323.34 155.53 363.36"/>
    <polygon class="st9" points="196.11 414.6 196.11 374.59 155.53 373.93 155.53 413.94 196.11 414.6"/>
    <polygon class="st9" points="346.54 366.49 346.54 326.47 306.9 325.82 306.9 365.84 346.54 366.49"/>
    <polygon class="st9" points="205.75 364.19 246.01 364.84 246.01 324.82 205.75 324.16 205.75 364.19"/>
    <polygon class="st9" points="255.77 375.57 255.77 415.58 295.81 416.23 295.81 376.23 255.77 375.57"/>
    <path class="st7" d="M255.77,415.58v-40.01l40.04.66v40.01l-40.04-.66ZM246.01,364.84l-40.26-.66v-40.02l40.26.66v40.02ZM346.54,326.47v40.02l-39.63-.65v-40.02l39.63.65ZM196.11,374.59v40.01l-40.58-.66v-40.01l40.58.66ZM196.11,364.03l-40.58-.66v-40.02l40.58.66v40.02ZM295.81,325.64v40.02l-40.04-.66v-40.02l40.04.66ZM205.75,414.76v-40.01l40.26.66v40.01l-40.26-.66ZM346.54,417.06l-39.63-.65v-40.01l39.63.65v40.01ZM354.62,426.57v-109.35l-207.17-3.39v109.35l207.17,3.39Z"/>
    <polygon class="st7" points="354.62 317.22 354.62 426.57 357.25 426.45 357.25 317.1 354.62 317.22"/>
  </g>
</svg>