<?xml version="1.0" encoding="utf-8"?>
<!-- Generator: Adobe Illustrator 25.0.1, SVG Export Plug-In . SVG Version: 6.00 Build 0)  -->
<svg version="1.1" id="katman_1" xmlns="http://www.w3.org/2000/svg" x="0px" y="0px"
     viewBox="0 0 841.9 595.3" style="enable-background:new 0 0 841.9 595.3;" xml:space="preserve">
<style type="text/css">
	.st0{fill:#8F6645;}
	.st1{fill:#EEEEEE;}
	.st2{fill:#DDDDDD;}
	.st3{fill:#3D3A37;}
	.st4{fill:#C4C4C4;}
	.st5{fill:#3D3A37;}
	.st6{fill:#000000;}
	.st7{fill:#FFFFFF;}
	.st8{fill:#888888;}
	.st9{fill:#7884AF;}
</style>

    <g id="chimney">
	<polygon class="st5" points="576.1,56.8 576,50.2 595.9,56.6 596,63 		"/>
        <polygon class="st6" points="570.7,177.9 549.8,181.7 549,81.1 549,77.8 543.2,79.4 543.1,71.2 546.8,70.2 546.8,67.3 546.7,65.2
		543.1,66.2 543.1,59.8 576,50.2 576.1,56.8 571.6,58 571.7,63.2 576.2,61.9 576.2,70.3 569.6,72.2 		"/>
        <polygon class="st5" points="549.8,181.7 570.7,177.9 590.7,181.9 569.9,185.6 		"/>
        <polygon class="st5" points="570.7,177.9 569.6,72.2 589.5,78.1 590.7,181.9 		"/>
        <polygon class="st5" points="543.2,79.4 549,77.8 549,81.1 		"/>
        <polygon class="st5" points="576.2,70.3 576.2,61.9 591.5,66.7 596,68.1 596.1,76.3 		"/>
        <polygon class="st5" points="576.2,61.9 571.7,63.2 571.6,58 591.5,64.2 591.5,66.7 		"/>
        <polygon class="st6" points="569.6,72.2 576.2,70.3 596.1,76.3 589.5,78.1 		"/>
        <polygon class="st6" points="571.6,58 576.1,56.8 596,63 591.5,64.2 		"/>
        <polygon class="st5" points="546.8,67.3 543.1,66.2 546.7,65.2 		"/>
</g>


    <g id="body">
	<g>
		<polygon class="st0" points="123,502.2 124.7,441.1 434.5,457.3 434.4,544.4 			"/>
        <polygon class="st0" points="738.9,443.5 740.5,508.3 525.5,533.7 504.9,536.1 434.4,544.4 434.5,457.3 454.3,456.4 			"/>
	</g>
        <g>
		<polygon class="st4" points="435.1,457.5 125.3,441.3 131.1,234.8 131.1,233.3 435.5,164.9 			"/>
            <polygon class="st4" points="435.5,164.9 734.1,223.3 734.1,225 739.5,443.5 736.8,443.6 454.8,456.6 435.1,457.5 			"/>
	</g>
</g>


    <g id="roof">
	<g>
		<polygon class="st3" points="124.4,218.3 307.8,70.6 352.5,54.6 358,50.2 431.9,142.2 			"/>
        <polygon class="st3" points="525.7,96 737.7,206.8 434,141.6 431.9,142.2 358,50.2 			"/>
	</g>
        <g>
		<polygon class="st2" points="131.1,235.2 118.5,233.9 434.7,161.6 747.6,223.7 734.1,225.4 734.1,223.7 435.5,165.4 131.1,233.8 
						"/>
            <polygon class="st2" points="758,213.9 434.2,146.3 434.1,145.4 			"/>
            <polygon class="st2" points="434.1,145.4 434.2,146.3 109.2,225.3 			"/>
            <polygon class="st2" points="109.2,225.3 434.2,146.3 434.2,147.2 109.3,225.9 			"/>
            <polygon class="st2" points="434.1,145.4 108.9,224.8 434.1,144.6 			"/>
            <polygon class="st2" points="434.1,144.6 108.4,224.3 434.1,143.9 			"/>
            <polygon class="st2" points="434.1,144.6 434.1,143.9 759.3,213.1 758.6,213.4 			"/>
            <polygon class="st2" points="434.1,145.4 434.1,144.6 758.6,213.4 			"/>
            <polygon class="st2" points="434.2,147.2 434.2,146.3 757.7,214.5 			"/>
            <polygon class="st2" points="109.3,225.9 434.2,147.2 757.6,215.1 754.4,215.6 755.6,215.1 434.3,147.8 111.2,225.9 112.2,226.2
						"/>
            <polygon class="st2" points="111.2,225.9 434.3,147.8 434.3,148.7 112.3,226.2 			"/>
            <polygon class="st2" points="434.3,148.7 434.3,147.8 755.6,215.1 754.4,215.5 			"/>
            <polygon class="st2" points="112.3,226.2 434.3,148.7 434.4,149.6 113.3,226.7 			"/>
            <polygon class="st2" points="113.3,226.7 434.4,149.6 434.5,150.7 114.2,227.2 			"/>
            <polygon class="st2" points="114.2,227.2 434.5,150.7 434.5,151.8 115.1,227.8 			"/>
            <polygon class="st2" points="434.5,151.8 434.5,150.7 752.3,216.6 751.4,217.2 			"/>
            <polygon class="st2" points="434.4,149.6 434.3,148.7 754.4,215.5 753.3,216 			"/>
            <polygon class="st2" points="434.5,150.7 434.4,149.6 753.3,216 752.3,216.6 			"/>
            <polygon class="st2" points="115.1,227.8 434.5,151.8 434.6,152.9 115.9,228.4 			"/>
            <polygon class="st2" points="434.6,152.9 434.5,151.8 751.4,217.2 750.5,217.8 			"/>
            <polygon class="st2" points="115.9,228.4 434.6,152.9 434.6,154.1 116.5,229.1 			"/>
            <polygon class="st2" points="116.5,229.1 434.6,154.1 434.7,155.4 117.1,229.8 			"/>
            <polygon class="st2" points="117.1,229.8 434.7,155.4 434.7,156.6 117.6,230.6 			"/>
            <polygon class="st2" points="434.7,156.6 434.7,155.4 749.2,219.3 748.6,220.1 			"/>
            <polygon class="st2" points="117.6,230.6 434.7,156.6 434.7,157.9 118,231.3 			"/>
            <polygon class="st2" points="118,231.3 434.7,157.9 434.7,159.1 118.3,232.2 			"/>
            <polygon class="st2" points="118.3,232.2 434.7,159.1 434.7,160.4 118.5,233 			"/>
            <polygon class="st2" points="118.5,233 434.7,160.4 434.7,161.6 118.5,233.9 			"/>
            <polygon class="st2" points="747.9,221.9 747.7,222.8 434.7,160.4 434.7,159.1 			"/>
            <path class="st30" d="M760.9,212.7l-1.1,0.1L760.9,212.7z"/>
            <polygon class="st2" points="748.6,220.1 748.2,221 434.7,157.9 434.7,156.6 			"/>
            <polygon class="st2" points="748.2,221 747.9,221.9 434.7,159.1 434.7,157.9 			"/>
            <polygon class="st2" points="747.7,222.8 747.6,223.7 434.7,161.6 434.7,160.4 			"/>
            <polygon class="st2" points="749.8,218.6 749.2,219.3 434.7,155.4 434.6,154.1 			"/>
            <polygon class="st2" points="760.9,212.7 760.1,212.8 434,143.3 			"/>
            <polygon class="st2" points="434,142.9 107,223.7 106.2,223.7 			"/>
            <polygon class="st2" points="434,142.9 106.2,223.7 106.3,222.8 124.3,218.3 431.8,142.2 434,141.6 			"/>
            <polygon class="st2" points="434,142.9 434,141.6 737.7,206.8 760.9,211.8 760.9,212.7 			"/>
            <polygon class="st2" points="107,223.7 434,143.3 107.8,224 			"/>
            <polygon class="st2" points="434.1,143.9 760.1,212.8 759.3,213.1 			"/>
            <polygon class="st2" points="750.5,217.8 749.8,218.6 434.6,154.1 434.6,152.9 			"/>
            <path class="st2" d="M434.1,144.6l0-0.7 M434.6,152.9l0-1.2 M734.1,223.7l-298.6-58.3"/>
            <path class="st2" d="M434.1,145.4l0-0.8 M434.2,146.3l0-0.9 M434.7,156.6l0-1.3 M434.2,147.2v-0.9 M111.2,225.9l323.1-78.1
			 M434.5,151.8l0-1.1 M106.2,223.7L434,142.9 M434,142.9v-1.3 M434.4,149.6l-0.1-1 M109.3,225.9l324.8-78.7 M434.3,148.7l-0.1-0.9
			 M434.5,150.7l-0.1-1"/>
            <path class="st2" d="M118.5,233.9l12.6,1.4 M757.6,215.1l-3.2,0.4 M751.4,217.2l0.9-0.6 M754.4,215.5l1.2-0.4 M758.6,213.4
			l0.7-0.4 M752.3,216.6l1-0.5 M747.7,222.8l0.2-0.9 M760.9,212.7l-1.1,0.1 M748.6,220.1l0.5-0.8 M748.2,221l0.4-0.8 M747.9,221.9
			l0.3-0.9 M747.6,223.7l0.1-0.9 M749.2,219.3l0.6-0.8 M750.5,217.8l0.8-0.7"/>
            <line class="st2" x1="760.1" y1="212.8" x2="760.9" y2="212.7"/>
            <line class="st2" x1="107" y1="223.7" x2="106.2" y2="223.7"/>
            <line class="st2" x1="434.7" y1="161.6" x2="434.7" y2="160.4"/>
            <line class="st2" x1="106.2" y1="223.7" x2="106.3" y2="222.8"/>
            <path class="st2" d="M115.1,227.8l-0.9-0.6 M118.5,233l-0.2-0.8 M117.1,229.8l-0.6-0.7"/>
            <path class="st2" d="M434.6,154.1l0-1.2 M434.7,155.4l0-1.2 M434.7,157.9l0-1.3"/>
            <line class="st2" x1="747.6" y1="223.7" x2="734.1" y2="225.4"/>
            <line class="st2" x1="434.7" y1="161.6" x2="118.5" y2="233.9"/>
            <line class="st2" x1="434.2" y1="147.2" x2="757.6" y2="215.1"/>
            <line class="st2" x1="434" y1="141.6" x2="737.7" y2="206.8"/>
            <path class="st2" d="M434,142.9l327,69.8 M434.3,147.8l321.3,67.4 M434.7,161.6l312.9,62.1 M131.1,233.8l304.4-68.4"/>
            <path class="st2" d="M257.9,204.2l3,0.4 M297.7,195.2l3.1,0.5"/>
	</g>
</g>


    <g id="right-window">
	<g>
		<polygon class="st7" points="212.1,350.9 210.4,435 208.6,435 210.3,350.8 				"/>
        <path class="st7" d="M210.3,350.8l-1.7,84.2l-70.7-2.6l2-77L210.3,350.8z M167.2,377l0.4-17.7l-11.6,0.7l-0.4,17.5L167.2,377z
			 M142,360.8l-0.4,17.2l12.4-0.4l0.4-17.4L142,360.8z M196.7,376l9.3-0.3l0.4-18.6l-9.3,0.5L196.7,376z M171.3,427.6l1.1-46
			l-30.9,0.9l-1.1,44.2L171.3,427.6z M181.5,376.5l0.4-18l-12.6,0.7l-0.4,17.8L181.5,376.5z M194.6,376.1l0.4-18.4l-11.1,0.6
			l-0.4,18.1L194.6,376.1z M173.6,427.7l31.3,0.9l1-48l-31.3,0.9L173.6,427.7z"/>
	</g>
        <g>
		<polygon class="st9" points="167.7,359.3 167.2,377 155.6,377.4 156.1,360 				"/>
            <polygon class="st9" points="141.6,377.9 142,360.8 154.4,360.1 154,377.5 				"/>
            <polygon class="st9" points="206,375.7 196.7,376 197.1,357.6 206.4,357.1 				"/>
            <polygon class="st9" points="172.4,381.6 171.3,427.6 140.3,426.7 141.5,382.5 				"/>
            <polygon class="st9" points="181.9,358.5 181.5,376.5 168.9,377 169.3,359.2 				"/>
            <polygon class="st9" points="195,357.7 194.6,376.1 183.5,376.5 183.9,358.4 				"/>
            <polygon class="st9" points="205,428.6 173.6,427.7 174.7,381.5 205.9,380.6 				"/>
	</g>
        <path class="st8" d="M210.4,435l1.6-84.1 M212.1,350.9l-1.8-0.1"/>
        <path class="st8" d="M210.4,435l-1.8,0 M210.3,350.8l-70.4,4.5 M137.9,432.4l70.7,2.6 M139.9,355.4l-2,77"/>
</g>


    <g>
	<g>
		<g>
			<g>
				<polygon class="st7" points="553.9,237 555.8,237.3 557.6,407.9 555.7,407.9 				"/>
                <polygon class="st7" points="474.1,418.1 473.5,218.9 478,218.2 478.7,418.2 				"/>
                <path class="st7" d="M571.7,417.1l-93.1,1.1l-0.7-200l91.6,14.9L571.7,417.1z M553.9,237l-9.8-1.5l1.6,172.4l9.9,0l1.9,0l7.8,0
					l-1.9-169.3l-7.7-1.2L553.9,237z M538.9,234.7l-53.6-8.4l0.8,181.9l54.4-0.2L538.9,234.7z"/>
			</g>
            <g>
				<polygon class="st9" points="544.2,235.5 553.9,237 555.7,407.9 545.8,407.9 				"/>
                <polygon class="st9" points="565.4,407.9 557.6,407.9 555.8,237.3 563.6,238.5 				"/>
                <polygon class="st9" points="485.3,226.3 538.9,234.7 540.4,407.9 486.1,408.1 				"/>
			</g>
		</g>
        <g>
			<g>
				<polygon class="st9" points="644.5,376.7 665.9,377.3 668.5,508.3 646.9,510.7 				"/>
                <path class="st9" d="M693.5,378.1l2.8,127.2l-21.2,2.3l-2.7-130.1L693.5,378.1z M678.1,450l-2.3,0.1l0.2,8.4l1.7,0.1l2.3-0.1
					l-0.2-8.4L678.1,450z"/>
			</g>
            <polygon class="st7" points="675.7,450.2 678.1,450 679.8,450.1 677.5,450.2 			"/>
            <g>
				<polygon class="st7" points="634.2,520.5 631.6,366.9 639.8,366.7 642.5,521.3 				"/>
                <path class="st8" d="M639.8,366.7l57.6,2.2l3.3,145.4l-58.1,7L639.8,366.7z M665.9,377.3l-21.4-0.6l2.4,134l21.6-2.4
					L665.9,377.3z M696.3,505.3l-2.8-127.2l-21-0.6l2.7,130.1L696.3,505.3z"/>
                <polygon class="st7" points="675.9,458.6 675.7,450.2 677.5,450.2 677.6,458.6 				"/>
                <polygon class="st7" points="677.5,450.2 679.8,450.1 680,458.5 677.6,458.6 				"/>
			</g>
		</g>
        <g>
			<polygon class="st2" points="214.6,313.5 144.2,321.2 142.5,321.1 212.8,313.4 			"/>
            <g>
				<polygon class="st7" points="216.2,231.3 214.6,313.5 212.8,313.4 214.4,231.1 				"/>
                <path class="st7" d="M214.4,231.1l-1.6,82.3l-70.3,7.7l2-75.5L214.4,231.1z M171.6,262.8l0.4-17.4l-11.5,2.3l-0.4,17.1
					L171.6,262.8z M146.6,250.6l-0.4,16.8l12.3-2.2l0.4-17.1L146.6,250.6z M200.9,257.6l9.3-1.7l0.4-18.2l-9.2,1.9L200.9,257.6z
					 M175.7,311.6l1-45.1l-30.8,5.3l-1.1,43.3L175.7,311.6z M185.8,260.3l0.4-17.7l-12.5,2.5l-0.4,17.4L185.8,260.3z M198.9,258
					l0.4-17.9l-11,2.2l-0.4,17.7L198.9,258z M178,311.3l31.2-3.6l0.9-46.9l-31.1,5.4L178,311.3z"/>
			</g>
            <g>
				<polygon class="st9" points="172.1,245.5 171.6,262.8 160.1,264.9 160.5,247.8 				"/>
                <polygon class="st9" points="146.1,267.4 146.6,250.6 158.9,248.1 158.4,265.2 				"/>
                <polygon class="st9" points="210.2,255.9 200.9,257.6 201.3,239.6 210.6,237.7 				"/>
                <polygon class="st9" points="176.8,266.5 175.7,311.6 144.9,315.2 146,271.9 				"/>
                <polygon class="st9" points="186.2,242.6 185.8,260.3 173.2,262.5 173.7,245.1 				"/>
                <polygon class="st9" points="199.3,240 198.9,258 187.8,259.9 188.2,242.2 				"/>
                <polygon class="st9" points="209.2,307.7 178,311.3 179,266.2 210.1,260.8 				"/>
			</g>
            <line class="st8" x1="214.4" y1="231.1" x2="144.4" y2="245.6"/>
            <path class="st8" d="M144.2,321.2l-1.7-0.1 M144.4,245.6l-2,75.5"/>
		</g>

        <g>
			<g>
				<polygon class="st7" points="357.1,341.4 356.4,440.4 354.5,440.5 355.3,341.3 				"/>
                <path class="st7" d="M355.3,341.3l-0.7,99.2l-96.6-3.6l1.4-89.5L355.3,341.3z M296.6,372.4l0.3-20.7l-15.7,0.9l-0.3,20.3
					L296.6,372.4z M262.2,353.7l-0.3,19.9l16.7-0.6l0.3-20.3L262.2,353.7z M337,371l12.9-0.4l0.2-21.9l-12.8,0.7L337,371z
					 M303.1,431.6l0.6-53.8l-41.9,1.2l-0.8,51.4L303.1,431.6z M316,371.7l0.2-21.1l-17.2,1l-0.3,20.7L316,371.7z M334.1,371.1
					l0.2-21.5l-15.2,0.9l-0.2,21.2L334.1,371.1z M306.2,431.7l43.1,1.3l0.4-56.5l-42.9,1.2L306.2,431.7z"/>
			</g>
            <g>
				<polygon class="st9" points="296.9,351.7 296.6,372.4 280.9,373 281.2,352.6 				"/>
                <polygon class="st9" points="261.9,373.6 262.2,353.7 278.9,352.8 278.6,373 				"/>
                <polygon class="st9" points="349.8,370.6 337,371 337.1,349.4 350,348.7 				"/>
                <polygon class="st9" points="303.7,377.7 303.1,431.6 261.1,430.3 261.9,378.9 				"/>
                <polygon class="st9" points="316.2,350.6 316,371.7 298.8,372.3 299.1,351.6 				"/>
                <polygon class="st9" points="334.3,349.6 334.1,371.1 318.9,371.6 319.1,350.4 				"/>
                <polygon class="st9" points="349.3,432.9 306.2,431.7 306.8,377.6 349.8,376.4 				"/>
			</g>
            <path class="st8" d="M356.4,440.4l0.7-99.1 M357.1,341.4l-1.9-0.1"/>
            <path class="st8" d="M356.4,440.4l-1.9,0 M355.3,341.3l-96,6.2 M257.9,436.9l96.6,3.6 M259.3,347.5l-1.4,89.5"/>
		</g>
        <g>
			<polygon class="st2" points="359.3,297.4 263.5,307.9 261.7,307.8 357.4,297.3 			"/>
            <g>
				<polygon class="st7" points="360,200.9 359.3,297.4 357.4,297.3 358.1,200.6 				"/>
                <path class="st7" d="M358.1,200.6l-0.7,96.6l-95.7,10.5l1.3-87.3L358.1,200.6z M300.1,239.3l0.2-20.2l-15.6,3.1l-0.3,19.9
					L300.1,239.3z M266,226l-0.3,19.5l16.5-3l0.3-19.8L266,226z M340,232.2l12.7-2.3l0.2-21.3l-12.7,2.6L340,232.2z M306.5,296
					l0.6-52.5l-41.5,7.2l-0.8,50.2L306.5,296z M319.3,235.9l0.2-20.6l-17,3.4l-0.2,20.2L319.3,235.9z M337.2,232.7l0.2-21l-15,3
					l-0.2,20.7L337.2,232.7z M309.6,295.6l42.7-5l0.4-55.1l-42.5,7.4L309.6,295.6z"/>
			</g>
            <g>
				<polygon class="st9" points="300.3,219.1 300.1,239.3 284.5,242.1 284.8,222.3 				"/>
                <polygon class="st9" points="265.7,245.5 266,226 282.5,222.7 282.2,242.5 				"/>
                <polygon class="st9" points="352.7,229.9 340,232.2 340.2,211.1 352.9,208.6 				"/>
                <polygon class="st9" points="307.1,243.5 306.5,296 264.9,300.9 265.6,250.7 				"/>
                <polygon class="st9" points="319.5,215.3 319.3,235.9 302.3,239 302.5,218.7 				"/>
                <polygon class="st9" points="337.4,211.7 337.2,232.7 322.1,235.4 322.3,214.7 				"/>
                <polygon class="st9" points="352.3,290.7 309.6,295.6 310.2,243 352.7,235.6 				"/>
			</g>
            <line class="st8" x1="358.1" y1="200.6" x2="263.1" y2="220.4"/>
            <path class="st8" d="M263.5,307.9l-1.8-0.1 M263.1,220.4l-1.3,87.3"/>
		</g>
	</g>
</g>
</svg>
