<?xml version="1.0" encoding="utf-8"?>
<!-- Generator: Adobe Illustrator 25.0.1, SVG Export Plug-In . SVG Version: 6.00 Build 0)  -->
<svg version="1.1" id="katman_1" xmlns="http://www.w3.org/2000/svg" x="0px" y="0px"
     viewBox="0 0 841.9 595.3" style="enable-background:new 0 0 841.9 595.3;" xml:space="preserve">
<style type="text/css">
	.st0{fill:#8F6645;}
	.st1{fill:#EEEEEE;}
	.st2{fill:#DDDDDD;}
	.st3{fill:#3D3A37;}
	.st4{fill:#C4C4C4;}
	.st5{fill:#3D3A37;}
	.st6{fill:#000000;}
	.st7{fill:#FFFFFF;}
	.st8{fill:#888888;}
	.st9{fill:#7884AF;}
</style>

    <g id="body">
	<g>
		<polygon class="st0" points="701.2,534.6 405.2,590.7 405.2,501.9 700.2,469.1 700.8,509.9 701,519.6 			"/>
        <polygon class="st0" points="405.2,501.9 405.2,590.7 105.8,534.6 106.8,468.9 403.3,501.7 			"/>
	</g>
        <g>
		<polygon class="st4" points="698.9,380.6 700.2,468.8 405.2,501.6 405.1,198.1 696.8,243.6 696.8,244.9 698.5,351.5 698.6,361.2 
			698.7,368.3 			"/>
            <polygon class="st4" points="405.1,198.1 405.2,501.3 106.8,468.6 110,244.9 110.1,243.6 			"/>
	</g>

</g>


    <g id="chimney">
	<polygon class="st5" points="498.1,40.2 498,29.7 502.7,28.4 528.2,21 528.3,31.7 		"/>
        <polygon class="st5" points="498,23.2 498,15 528.1,5.9 528.1,14.3 		"/>
        <polygon class="st5" points="505.5,127.3 505.1,42.6 535.2,34.2 536.1,169.4 		"/>
        <polygon class="st5" points="502.7,28.4 502.7,24.9 532.8,16 532.9,22.7 528.2,21 		"/>
        <polygon class="st6" points="505.1,42.6 498.1,40.2 528.3,31.7 535.2,34.2 		"/>
        <polygon class="st6" points="502.7,24.9 498,23.2 528.1,14.3 532.8,16 		"/>
        <polygon class="st6" points="562.7,33.5 562.8,43.9 556.7,41.7 556.8,45.5 557.8,174.1 536.1,169.4 535.2,34.2 528.3,31.7
		528.2,21 532.9,22.7 532.8,16 528.1,14.3 528.1,5.9 562.6,18.9 562.6,27 558.9,25.6 558.9,28.1 558.9,32.1 		"/>
        <polygon class="st5" points="556.7,41.7 562.8,43.9 556.8,45.5 		"/>
        <polygon class="st5" points="558.9,25.6 562.6,27 558.9,28.1 		"/>
</g>


    <g id="roof">
	<g>
		<polygon class="st3" points="103.4,227.9 325.4,106.7 494.8,64.1 407.9,175.7 405.8,175.3 			"/>
        <polygon class="st3" points="407.9,175.7 494.8,64.1 706.8,228.3 			"/>
	</g>
        <g>
		<polygon class="st3" points="697.8,303.5 697.7,296.4 706.7,303.4 			"/>
            <polygon class="st3" points="747.9,303.8 748.1,315.5 731.5,315.6 729.1,315.7 724.8,315.7 722.7,315.7 718.4,315.7 706.9,315.8
				706.7,303.4 			"/>
            <polygon class="st3" points="747.9,303.8 706.7,303.4 697.7,296.4 697.6,286.7 			"/>
            <polygon class="st3" points="698,315.8 697.8,303.5 706.7,303.4 706.9,315.8 			"/>
	</g>
        <g>
		<polygon class="st2" points="85.2,233.1 84.5,232.8 405.4,177.5 405.4,178.2 			"/>
            <polygon class="st2" points="93.4,237.6 92.5,236.9 405.4,185.2 405.4,186.3 			"/>
            <polygon class="st2" points="85.7,233.6 405.4,178.2 405.4,179.1 			"/>
            <polygon class="st2" points="86.1,234.2 405.4,179.1 405.4,179.9 			"/>
            <polygon class="st2" points="95.4,240 94.8,239.2 405.4,188.8 405.4,190 			"/>
            <polygon class="st2" points="86.2,234.9 405.4,179.9 405.4,180.8 			"/>
            <polygon class="st2" points="92.5,236.9 91.6,236.3 405.4,184.1 405.4,185.2 			"/>
            <polygon class="st2" points="83.7,232.5 82.8,232.4 405.5,176.7 			"/>
            <polygon class="st2" points="82.8,232.4 82.8,231.5 103,227.9 405.5,175.3 405.5,176.7 			"/>
            <polygon class="st2" points="90.5,235.8 89.4,235.3 405.4,182.2 405.4,183.1 			"/>
            <polygon class="st2" points="89,235.1 86.2,234.9 405.4,180.8 721,234.9 718.1,235.1 718.9,234.9 405.4,181.3 88.3,234.9 			"/>
            <polygon class="st2" points="91.6,236.3 90.5,235.8 405.4,183.1 405.4,184.1 			"/>
            <polygon class="st2" points="405.2,198.1 110.2,243.6 110.2,244.9 96.4,243.6 405.4,195.2 710.8,243.6 697,244.8 697,243.6
				"/>
            <polygon class="st2" points="405.4,179.9 405.4,179.1 721.4,233.6 			"/>
            <polygon class="st2" points="721,234.9 405.4,180.8 405.4,179.9 721.1,234.2 			"/>
            <polygon class="st2" points="711.4,240.9 711.1,241.8 405.4,192.6 405.4,191.3 			"/>
            <polygon class="st2" points="405.4,179.1 405.4,178.2 722,233.1 			"/>
            <polygon class="st2" points="405.4,185.2 405.4,184.1 715.6,236.3 714.7,236.9 			"/>
            <polygon class="st2" points="405.4,178.2 405.4,177.5 722.7,232.7 722,233.1 			"/>
            <polygon class="st2" points="722.7,232.7 405.4,177.5 723.5,232.5 			"/>
            <polygon class="st2" points="405.4,184.1 405.4,183.1 716.7,235.8 715.6,236.3 			"/>
            <polygon class="st2" points="405.4,183.1 405.4,182.2 717.8,235.3 716.7,235.8 			"/>
            <polygon class="st2" points="405.5,177 84.5,232.8 83.7,232.5 			"/>
            <polygon class="st2" points="717.8,235.3 405.4,182.2 405.4,181.3 718.9,234.9 718.1,235.1 			"/>
            <polygon class="st2" points="405.4,181.3 405.4,182.2 89.4,235.3 88.3,234.9 			"/>
            <polygon class="st2" points="405.4,192.6 711.1,241.8 710.9,242.7 405.4,193.9 			"/>
            <polygon class="st2" points="710.9,242.7 710.8,243.6 405.4,195.2 405.4,193.9 			"/>
            <polygon class="st2" points="714.7,236.9 713.8,237.6 405.4,186.3 405.4,185.2 			"/>
            <polygon class="st2" points="405.4,186.3 713.8,237.6 713,238.4 405.4,187.5 			"/>
            <polygon class="st2" points="405.4,192.6 405.4,193.9 96.3,242.7 96.1,241.8 			"/>
            <polygon class="st2" points="711.4,240.9 405.4,191.3 405.4,190 711.8,240 			"/>
            <polygon class="st2" points="712.4,239.2 711.8,240 405.4,190 405.4,188.8 			"/>
            <polygon class="st2" points="723.5,232.5 405.5,177 724.4,232.4 			"/>
            <polygon class="st2" points="724.4,232.4 405.5,176.7 405.5,175.3 407.6,175.7 706.5,228.3 724.4,231.5 			"/>
            <polygon class="st2" points="405.4,190 405.4,191.3 95.8,240.9 95.4,240 			"/>
            <polygon class="st2" points="405.4,187.5 713,238.4 712.4,239.2 405.4,188.8 			"/>
            <polygon class="st2" points="405.4,191.3 405.4,192.6 96.1,241.8 95.8,240.9 			"/>
            <polygon class="st2" points="405.4,193.9 405.4,195.2 96.4,243.6 96.3,242.7 			"/>
            <polygon class="st2" points="405.4,187.5 405.4,188.8 94.8,239.2 94.2,238.4 			"/>
            <polygon class="st2" points="405.4,186.3 405.4,187.5 94.2,238.4 93.4,237.6 			"/>
            <path class="st2" d="M85.2,233.1l-0.7-0.4 M93.4,237.6l-0.9-0.7"/>
            <path class="st2" d="M405.4,179.9v-0.9 M405.4,180.8l315.6,54"/>
            <line class="st2" x1="711.1" y1="241.8" x2="711.4" y2="240.9"/>
            <line class="st2" x1="697" y1="244.8" x2="710.8" y2="243.6"/>
            <path class="st2" d="M405.4,184.1l0-1 M405.4,180.8v-0.9 M405.4,183.1l0-0.9"/>
            <path class="st2" d="M710.8,243.6l0.1-0.9 M716.7,235.8l1.1-0.5 M713.8,237.6l0.9-0.7"/>
            <line class="st2" x1="405.4" y1="193.9" x2="405.4" y2="192.6"/>
            <path class="st2" d="M713,238.4l0.8-0.7 M711.8,240l0.6-0.8 M710.9,242.7l0.2-0.9"/>
            <path class="st2" d="M405.5,176.7l319,55.8 M723.5,232.5l0.9-0.1 M405.4,181.3l313.5,53.5 M405.4,190l0-1.3 M405.4,191.3V190"/>
            <line class="st2" x1="712.4" y1="239.2" x2="713" y2="238.4"/>
            <path class="st2" d="M405.4,192.6v-1.3 M405.4,195.2v-1.3"/>
            <line class="st2" x1="715.6" y1="236.3" x2="716.7" y2="235.8"/>
            <line class="st2" x1="405.4" y1="188.8" x2="405.4" y2="187.5"/>
            <path class="st2" d="M711.4,240.9l0.4-0.9 M724.4,232.4l0-1 M714.7,236.9l0.9-0.6"/>
            <line class="st2" x1="405.4" y1="186.3" x2="405.4" y2="185.2"/>
            <line class="st2" x1="722" y1="233.1" x2="722.7" y2="232.7"/>
            <path class="st2" d="M405.5,176.7v-1.3 M405.4,187.5l0-1.2"/>
            <path class="st2" d="M724.4,232.4l-0.9,0.1 M721,234.9l-2.8,0.3"/>
            <line class="st2" x1="96.4" y1="243.6" x2="110.2" y2="244.9"/>
            <path class="st2" d="M82.8,232.4l322.7-55.8 M88.3,234.9l317.1-53.5 M96.4,243.6l308.9-48.4"/>
	</g>
</g>


    <g id="left-window">
	<g>
		<g>
			<polygon class="st7" points="586.8,459 585.9,369.4 586.9,369.4 587.9,459.1 				"/>
            <path class="st7" d="M628.7,455.4l-40.8,3.6l-0.9-89.6l40.7,0.3L628.7,455.4z M624.8,372.7l-8.8,0l0.9,79.5l8.8-0.7
				L624.8,372.7z M590.5,413.4l23.6-0.9l-0.5-39.8l-23.5-0.1L590.5,413.4z M590.6,416.3l0.4,38.1l23.6-2l-0.4-37.1L590.6,416.3z"/>
		</g>
        <g>
			<polygon class="st9" points="616,372.7 624.8,372.7 625.8,451.4 616.9,452.2 				"/>
            <polygon class="st9" points="614.1,412.5 590.5,413.4 590.1,372.6 613.6,372.7 				"/>
            <polygon class="st9" points="591,454.4 590.6,416.3 614.1,415.3 614.6,452.4 				"/>
		</g>
        <path class="8" d="M585.9,369.4h1.1 M627.6,369.7l-40.7-0.3"/>
	</g>

        <g>
		<polygon class="st33" points="626.2,343.2 585.6,341.7 586.7,341.7 627.3,343.2 			"/>
            <g>
				<polygon class="st7" points="585.6,341.7 584.7,253.2 585.8,253.1 586.7,341.7 				"/>
                <path class="st7" d="M627.3,343.2l-40.6-1.5l-0.9-88.6l40.5,5.4L627.3,343.2z M623.5,261.1l-8.8-1.1l0.9,78.6l8.8,0.4
					L623.5,261.1z M589.3,296.9l23.5,2l-0.5-39.3l-23.4-3L589.3,296.9z M589.4,299.8l0.4,37.6l23.5,1l-0.4-36.7L589.4,299.8z"/>
			</g>
            <g>
			<polygon class="st9" points="614.7,260 623.5,261.1 624.4,338.9 615.6,338.5 				"/>
                <polygon class="st9" points="612.8,299 589.3,296.9 588.9,256.6 612.3,259.7 				"/>
                <polygon class="st9" points="589.8,337.4 589.4,299.8 612.8,301.7 613.2,338.4 				"/>
			</g>
            <line class="8" x1="627.3" y1="343.2" x2="626.2" y2="258.5"/>
            <path class="8" d="M584.7,253.2l1.1-0.1 M626.2,258.5l-40.5-5.4"/>
	</g>
</g>


    <g>
	<g>
		<g>
			<polygon class="st4" points="737.2,461.9 700.3,468.9 700.1,453.9 737,447.5 			"/>
            <polygon class="st4" points="737,447.5 700.1,453.9 699.9,444.1 720.5,446 720.5,446.9 724.8,447.3 726.9,447 731.3,447.9
				733.6,447.5 			"/>
		</g>
        <g>
			<polygon class="st4" points="727.1,446.8 725,447.2 722.8,314.8 725,314.8 			"/>
            <polygon class="st4" points="725,447.2 720.7,446.8 720.7,445.9 718.6,314.9 722.8,314.8 			"/>
            <polygon class="st4" points="733.8,447.4 731.5,447.8 729.2,314.8 731.6,314.8 733.8,447.1 			"/>
            <polygon class="st4" points="731.5,447.8 727.1,447.4 725,314.8 729.2,314.8 			"/>
		</g>
	</g>


        <g>
		<g>
			<g>
				<polygon class="st7" points="456.7,470.5 456.3,368.4 457.4,368.4 457.8,470.6 				"/>
                <path class="st7" d="M510.5,465.9l-52.7,4.7l-0.4-102.2l52.5,0.4L510.5,465.9z M506.3,372.2l-11.3-0.1l0.5,90.2l11.4-1
					L506.3,372.2z M461.7,418.5l30.5-1.2l-0.2-45.2l-30.4-0.1L461.7,418.5z M461.7,421.8l0.2,43.4l30.5-2.6l-0.2-42.2L461.7,421.8z"
                />
			</g>
            <g>
				<polygon class="st9" points="495,372.1 506.3,372.2 506.9,461.4 495.5,462.4 				"/>
                <polygon class="st9" points="492.2,417.3 461.7,418.5 461.5,372 491.9,372.1 				"/>
                <polygon class="st9" points="461.9,465.2 461.7,421.8 492.2,420.5 492.4,462.6 				"/>
			</g>
            <path class="8" d="M456.3,368.4l1.1,0 M509.9,368.8l-52.5-0.4"/>
		</g>


            <g>
			<g>
				<polygon class="st7" points="183.7,273.9 185.2,273.7 183.6,435.8 182,435.7 				"/>
                <polygon class="st7" points="200.3,445.3 195.6,445.5 197.3,266.1 202,266.5 				"/>
                <path class="st7" d="M195.6,445.5l-69.9-5.1l2.2-166.1l69.5-8.2L195.6,445.5z M183.7,273.9l-8.1,0.9l-1.7,160.4l8.1,0.5
					l1.6,0.1l6.7,0.4l1.6-163.3l-6.6,0.7L183.7,273.9z M171.4,275.3l-38.8,4.3l-2,152.9l39,2.5L171.4,275.3z"/>
			</g>
                <g>
				<polygon class="st9" points="175.6,274.8 183.7,273.9 182,435.7 173.9,435.2 				"/>
                    <polygon class="st9" points="190.3,436.3 183.6,435.8 185.2,273.7 191.9,273 				"/>
                    <polygon class="st9" points="132.6,279.6 171.4,275.3 169.6,434.9 130.6,432.5 				"/>
			</g>
                <path class="8" d="M175.6,274.8l8.1-0.9 M190.3,436.3l-6.7-0.4"/>
                <path class="8" d="M200.3,445.3l-4.7,0.2 M125.7,440.4l69.9,5.1 M200.3,445.3l1.7-178.8 M202,266.5l-4.7-0.4"/>
                <line class="8" x1="195.6" y1="445.5" x2="197.3" y2="266.1"/>
		</g>
            <g>
			<polygon class="st33" points="508.6,338.8 456.2,336.8 457.3,336.8 509.7,338.8 			"/>
                <g>
				<polygon class="st7" points="456.2,336.8 455.9,236 456.9,235.9 457.3,336.8 				"/>
                    <path class="st7" d="M509.7,338.8l-52.4-2l-0.4-100.9l52.2,7L509.7,338.8z M505.6,245.8l-11.3-1.5l0.5,89.1l11.3,0.5
					L505.6,245.8z M461.2,285.8l30.3,2.6l-0.2-44.6L461,240L461.2,285.8z M461.2,289.1l0.2,42.8l30.4,1.3l-0.2-41.6L461.2,289.1z"/>
			</g>
                <g>
				<polygon class="st9" points="494.3,244.3 505.6,245.8 506.1,333.8 494.8,333.4 				"/>
                    <polygon class="st9" points="491.5,288.5 461.2,285.8 461,240 491.3,243.9 				"/>
                    <polygon class="st9" points="461.4,331.9 461.2,289.1 491.5,291.6 491.7,333.2 				"/>
			</g>
                <line class="8" x1="509.7" y1="338.8" x2="509.1" y2="242.9"/>
                <path class="8" d="M455.9,236l1.1-0.1 M509.1,242.9l-52.2-7"/>
		</g>

            <g>
			<g>
				<polygon class="st9" points="263,407.1 289.4,407.9 288.7,561.2 262.1,556.5 				"/>
                <path class="st9" d="M327.6,409l-0.5,159.1l-29.7-5.3l0.7-154.7L327.6,409z M303.2,495.4l-3.1-0.4l-1.9,0.2l0,10l3.1,0.4
					l1.9-0.2L303.2,495.4z"/>
			</g>
                <polygon class="st7" points="300.1,495 303.2,495.4 301.3,495.6 298.2,495.2 			"/>
                <g>
				<g>
					<polygon class="st7" points="342.5,397.3 342,579.6 333.2,581.2 333.6,397.4 					"/>
                    <path class="st8" d="M257.8,396l75.8,1.4l-0.5,183.8l-76.5-14.5L257.8,396z M289.4,407.9l-26.4-0.8l-0.9,149.4l26.6,4.8
						L289.4,407.9z M327.1,568.1l0.5-159.1l-29.5-0.9l-0.7,154.7L327.1,568.1z"/>
				</g>
                    <polygon class="st7" points="303.2,495.4 303.1,505.4 301.3,505.6 301.3,495.6 				"/>
                    <polygon class="st7" points="298.2,495.2 301.3,495.6 301.3,505.6 298.2,505.2 				"/>
			</g>
                <line class="8" x1="333.2" y1="581.2" x2="333.6" y2="397.4"/>
                <line class="8" x1="257.8" y1="396" x2="256.7" y2="566.7"/>
                <path class="8" d="M300.1,495l3.1,0.4 M303.2,495.4l0,10 M298.2,495.2l3.1,0.4"/>
                <path class="8" d="M298.2,505.2l0-10 M301.3,505.6l-3.1-0.4"/>
                <line class="8" x1="301.3" y1="495.6" x2="301.3" y2="505.6"/>
                <line class="8" x1="300.1" y1="495" x2="298.2" y2="495.2"/>
                <line class="8" x1="303.2" y1="495.4" x2="301.3" y2="495.6"/>
		</g>
	</g>
</g>
</svg>
