<?xml version="1.0" encoding="utf-8"?>
<!-- Generator: Adobe Illustrator 25.0.1, SVG Export Plug-In . SVG Version: 6.00 Build 0)  -->
<svg version="1.1" id="katman_1" xmlns="http://www.w3.org/2000/svg" x="0px" y="0px"
     viewBox="0 0 841.9 595.3" style="enable-background:new 0 0 841.9 595.3;" xml:space="preserve">
<style type="text/css">
	.st0{fill:#8F6645;}
	.st1{fill:#EEEEEE;}
	.st2{fill:#DDDDDD;}
	.st3{fill:#3D3A37;}
	.st4{fill:#C4C4C4;}
	.st5{fill:#3D3A37;}
	.st6{fill:#000000;}
	.st7{fill:#FFFFFF;}
	.st8{fill:#888888;}
	.st9{fill:#7884AF;}
</style>

    <g id="chimney">
	<polygon class="st4" points="317.5,187.7 299.8,182.8 301.2,62.2 296.1,60.1 296.2,50.5 299.4,51.9 299.5,46 296.2,44.6
		296.3,37.1 324.2,49.6 324.1,56.8 320.5,55.3 320.5,57.4 320.5,61 324,62.6 324,71.8 318.6,69.6 318.6,72.6 		"/>
        <polygon class="st1" points="299.8,182.8 317.5,187.7 288.8,190.6 270.8,185.8 		"/>
        <polygon class="st2" points="299.5,46 299.4,51.9 296.2,50.5 270.6,54.5 270.6,50.6 		"/>
        <polygon class="st1" points="296.1,60.1 301.2,62.2 272.4,66.6 267.1,64.5 		"/>
        <polygon class="st2" points="296.2,50.5 296.1,60.1 267.1,64.5 267.3,55.1 270.6,54.5 		"/>
        <polygon class="st2" points="301.2,62.2 299.8,182.8 270.8,185.8 272.4,66.6 		"/>
        <polygon class="st1" points="318.6,69.6 324,71.8 318.6,72.6 		"/>
        <polygon class="st1" points="320.5,55.3 324.1,56.8 320.5,57.4 		"/>
        <polygon class="st2" points="296.3,37.1 296.2,44.6 267.3,49.2 267.5,41.8 		"/>
        <polygon class="st1" points="270.6,50.6 267.3,49.2 296.2,44.6 299.5,46 		"/>
</g>


    <g id="roof">
	<g>
		<polygon class="st3" points="298.2,166.1 298.7,167.3 298.9,168.5 299,169.7 305.6,171.5 127.2,190 347.5,74.6 474.2,56.4
			309.4,154.3 285.4,157 280.9,154 283.6,154.7 284.9,155.8 285.3,156.6 285.5,157.4 291.8,159.2 292.6,159.7 293.9,160.6
			295,161.6 296.1,162.6 296.9,163.7 297.7,164.9 			"/>
        <polygon class="st3" points="562.6,48.9 725.5,217.7 535.1,129.2 523.2,130.6 524.8,26.9 560,49.2 562.7,50.9 			"/>
        <polygon class="st3" points="524.8,26.9 523.2,131.7 300.2,158.2 468.1,60 			"/>
	</g>
        <path class="st2" d="M524.4,115.1l0.4-1.3 M525.7,111.4l0.5-1.1 M523.6,119.3l0.2-1.4"/>
        <g>
		<polygon class="st2" points="744.5,225 742,225.2 533.6,130.4 288.3,157.6 289.9,158.2 291.4,158.9 285.6,157.4 534.7,129.8"/>
            <polygon class="st2" points="739,226.8 530.9,136 531.4,134.8 			"/>
            <polygon class="st2" points="737.1,228.8 736.6,229.6 529.9,140.1 530.2,138.7 			"/>
            <polygon class="st2" points="533.6,130.4 742.7,224.9 741.7,225.3 533,131.4 			"/>
            <polygon class="st2" points="739.9,226.2 739,226.8 531.4,134.8 531.9,133.6 			"/>
            <polygon class="st2" points="739.9,226.2 531.9,133.6 532.4,132.4 740.7,225.7 			"/>
            <polygon class="st2" points="740.7,225.7 532.4,132.4 533,131.4 741.7,225.3 			"/>
            <polygon class="st2" points="737.1,228.8 530.2,138.7 530.6,137.3 737.6,228.1 			"/>
            <polygon class="st2" points="530.9,136 738.3,227.4 530.6,137.3 			"/>
            <polygon class="st2" points="529.9,140.1 736.6,229.6 736.2,230.4 529.7,141.5 			"/>
            <polygon class="st2" points="529.7,141.5 736.2,230.4 736,231.3 529.6,142.9 			"/>
            <polygon class="st2" points="529.6,142.9 736,231.3 735.8,232.1 529.5,144.2 			"/>
            <polygon class="st2" points="529.5,144.2 735.8,232.1 735.7,233 529.4,145.6 			"/>
            <polygon class="st2" points="522.5,149.5 317.3,170.7 317.2,174.7 316.3,174.5 314.2,173.9 312.3,173.4 310.8,172.9
				309.6,172.6 305.7,171.5 299.1,169.7 529.4,145.6 735.7,233 723.8,233.8 723.8,232.5 			"/>
            <polygon class="st2" points="529.4,145.6 299.1,169.7 299,168.5 529.5,144.2 			"/>
            <polygon class="st2" points="529.5,144.2 299,168.5 298.8,167.3 529.6,142.9 			"/>
            <polygon class="st2" points="529.6,142.9 298.8,167.3 298.3,166.1 529.7,141.5 			"/>
            <polygon class="st2" points="113.8,197.1 109.6,196.2 317.2,175.2 111.9,196.3 113.3,196.8 			"/>
            <polygon class="st2" points="121,204.4 120.6,203.4 317.1,184.3 317.1,185.5 			"/>
            <polygon class="st2" points="317.1,184.3 120.6,203.4 120.1,202.4 317.1,183.2 			"/>
            <polygon class="st2" points="317.1,183.2 120.1,202.4 119.5,201.5 317.1,182.1 			"/>
            <polygon class="st2" points="317.1,182.1 119.5,201.5 118.7,200.6 317.2,181 			"/>
            <polygon class="st2" points="317.2,181 118.7,200.6 117.9,199.7 317.2,179.9 			"/>
            <polygon class="st2" points="121,204.4 317.1,185.5 317.1,186.6 121.2,205.5 			"/>
            <polygon class="st2" points="109.6,196.2 316.3,174.5 317.2,174.7 			"/>
            <polygon class="st2" points="113.3,196.8 111.9,196.3 317.2,175.6 			"/>
            <polygon class="st2" points="113.3,196.8 317.2,176.3 317.2,177.1 114.6,197.5 113.8,197.1 			"/>
            <polygon class="st2" points="121.3,206.5 121.2,205.5 317.1,186.6 317.1,187.7 			"/>
            <polygon class="st2" points="121.3,206.5 317.1,187.7 317,190.1 137.2,207.2 137.1,209.6 			"/>
            <polygon class="st2" points="117.9,199.7 116.9,198.9 317.2,178.9 317.2,179.9 			"/>
            <polygon class="st2" points="317.2,178.9 116.9,198.9 115.8,198.1 317.2,178 			"/>
            <polygon class="st2" points="317.2,178 115.8,198.1 114.6,197.5 317.2,177.1 			"/>
            <polygon class="st2" points="109.1,194.8 312.3,173.4 314.2,173.9 			"/>
            <polygon class="st2" points="107.2,193.7 105.6,193.3 106.6,193.5 			"/>
            <polygon class="st2" points="106.6,193.5 105.6,193.3 308.8,172.4 			"/>
            <polygon class="st2" points="106.6,193.5 309.6,172.6 310.8,172.9 107.6,193.8 			"/>
            <polygon class="st2" points="107.6,193.8 310.8,172.9 312.3,173.4 108.4,194.3 			"/>
            <polygon class="st2" points="109.1,194.8 314.2,173.9 316.3,174.5 109.4,195.5 			"/>
            <polygon class="st2" points="105.6,193.3 105.7,192.2 127.3,190 305.7,171.5 308.8,172.4 			"/>
            <polygon class="st2" points="289.9,158.2 288.3,157.6 533.6,130.4 533,131.4 			"/>
            <polygon class="st2" points="297,163.7 296.2,162.6 530.6,137.3 530.2,138.7 			"/>
            <polygon class="st2" points="294,160.6 292.7,159.7 531.9,133.6 531.4,134.8 			"/>
            <polygon class="st2" points="283.7,154.7 281,153.9 282.2,154.1 283.3,154.5 			"/>
            <polygon class="st2" points="295.1,161.6 294,160.6 531.4,134.8 530.9,136 			"/>
            <polygon class="st2" points="296.2,162.6 295.1,161.6 530.9,136 530.6,137.3 			"/>
            <polygon class="st2" points="298.3,166.1 297.8,164.9 529.9,140.1 529.7,141.5 			"/>
            <polygon class="st2" points="529.9,140.1 297.8,164.9 297,163.7 530.2,138.7 			"/>
            <polygon class="st2" points="291.4,158.9 289.9,158.2 533,131.4 532.4,132.4 			"/>
            <polygon class="st2" points="291.4,158.9 532.4,132.4 531.9,133.6 292.7,159.7 291.9,159.2 			"/>
            <line class="st2" x1="744.5" y1="225" x2="742" y2="225.2"/>
            <line class="st2" x1="533.6" y1="130.4" x2="742.7" y2="224.9"/>
            <line class="st2" x1="739" y1="226.8" x2="739.9" y2="226.2"/>
            <path class="st2" d="M740.7,225.7l0.9-0.4"/>
            <path class="st2" d="M739.9,226.2l0.9-0.5"/>
            <line class="st2" x1="522.5" y1="149.5" x2="317.3" y2="170.7"/>
            <line class="st2" x1="529.4" y1="145.6" x2="299.1" y2="169.7"/>
            <path class="st2" d="M113.8,197.1l-4.2-0.9 M121,204.4l-0.4-1"/>
            <line class="st2" x1="735.7" y1="233" x2="723.8" y2="233.8"/>
            <line class="st2" x1="113.3" y1="196.8" x2="111.9" y2="196.3"/>
            <path class="st2" d="M121.3,206.5l-0.1-1 M117.9,199.7l-1-0.8 M118.7,200.6l-0.9-0.9 M120.1,202.4l-0.6-1 M121.2,205.5l-0.2-1
				 M107.2,193.7l-1.6-0.3"/>
            <line class="st2" x1="106.6" y1="193.5" x2="105.6" y2="193.3"/>
            <path class="st2" d="M119.5,201.5l-0.8-0.9 M115.8,198.1l-1.2-0.7 M120.6,203.4l-0.5-1 M105.6,193.3l0-1.1 M116.9,198.9
				l-1.1-0.7 M108.4,194.3l-0.8-0.5 M298.8,167.3l-0.4-1.2 M289.9,158.2l-1.5-0.6 M297,163.7l-0.9-1.1 M294,160.6l-1.3-0.9
				 M283.7,154.7l-2.6-0.8 M295.1,161.6l-1.1-1 M296.2,162.6l-1-1"/>
            <line class="st2" x1="111.9" y1="196.3" x2="317.2" y2="175.6"/>
            <path class="st2" d="M291.9,159.2l-6.3-1.8 M298.3,166.1l-0.6-1.2 M299.1,169.7l-0.1-1.2 M283.3,154.5l-1.1-0.4 M291.4,158.9
				l-1.5-0.7"/>
            <line class="st2" x1="282.2" y1="154.1" x2="281" y2="153.9"/>
            <path class="st2" d="M299,168.5l-0.3-1.2 M281,153.9l0-1.3"/>
            <line class="st2" x1="105.6" y1="193.3" x2="308.8" y2="172.4"/>
            <line class="st2" x1="285.6" y1="157.4" x2="285.4" y2="156.6"/>
            <line class="st2" x1="285.4" y1="156.6" x2="285" y2="155.8"/>
            <path class="st2" d="M735.7,233l0.1-0.9 M297.8,164.9l-0.7-1.1"/>
            <line class="st2" x1="736.2" y1="230.4" x2="736.6" y2="229.6"/>
            <line class="st2" x1="137.1" y1="209.6" x2="121.3" y2="206.5"/>
            <path class="st2" d="M648.7,199.7L645,200 M668.4,209.7 M671.9,209.4"/>
	</g>

</g>


    <g id="body">
	<g>
		<polygon class="st0" points="312.8,559 313.1,538.7 313.9,470.2 524.5,476.6 525,573.8 			"/>
        <polygon class="st0" points="525,573.8 524.5,476.6 728.8,451.6 730.3,516.3 			"/>
        <polygon class="st0" points="196.6,461.1 299.5,464 298.7,526.1 195.4,520.4 			"/>
        <polygon class="st0" points="130.5,459.3 180.4,460.7 179,519.5 129,516.7 			"/>
	</g>
        <g>
		<polygon class="st4" points="524.4,477.1 313.8,470.7 315.1,352.5 315.4,332 315.6,311.6 317,190.5 317,188.1 317,186.9
			317.1,185.8 317.1,184.6 317.1,183.5 317.1,182.4 317.1,181.3 317.1,180.2 317.1,179.2 317.1,178.3 317.1,177.4 317.2,176.6
			317.2,175.5 317.2,171 522.5,149.8 			"/>
            <polygon class="st4" points="728.7,452.2 524.4,477.1 522.5,149.8 723.7,232.8 723.8,234.1 			"/>
            <polygon class="st4" points="130.4,459.9 133.1,360.4 182.6,359.3 180.3,461.2 			"/>
            <polygon class="st4" points="198.7,359 300.7,356.9 299.4,464.5 196.5,461.7 			"/>
            <polygon class="st4" points="137.1,207.5 317,190.5 315.6,311.6 155.4,318.2 134,323.4 137.1,209.9 			"/>
	</g>
</g>


    <g>
	<g>
		<g>
			<polygon class="st4" points="306.9,537.8 312.4,538.2 313.2,538 67.1,523.7 71.5,523.2 75.9,523.9 78.1,523.6 82.5,524.3
				86.8,523.8 86.9,521.5 129.1,516.7 179.2,519.5 179,530.1 183.9,530.4 186.3,530.1 191.2,530.8 195.3,530.3 195.5,520.4
				298.8,526.1 298.7,537.3 304.1,537.7 306.9,537.2 			"/>
            <polygon class="st0" points="66.5,541.8 67.1,523.7 313.2,538.7 313,559 294.5,557.7 294.6,547.6 190.8,540.8 178.3,542.7
				178.1,549.6 			"/>
            <polygon class="st4" points="294.6,547.6 294.5,557.7 282.7,559.9 282.9,549.6 			"/>
            <polygon class="st4" points="294.6,547.6 282.9,549.6 178.3,542.7 190.8,540.8 			"/>
            <polygon class="st0" points="282.9,549.6 282.7,559.9 178.1,552.4 178.1,549.6 178.3,542.7 			"/>
		</g>
        <g>
			<polygon class="st4" points="80.7,357.8 76.4,357.9 54.7,357.7 307.5,351.9 315,352.3 314.2,352.5 308.7,352.7 306,352.7
				300.7,352.8 300.6,357 198.6,359.1 198.7,355.4 194.7,355.2 189.8,355.3 187.4,355.4 182.6,355.5 182.5,359.4 132.9,360.4
				124.6,360.6 91.5,359.2 91.5,357.8 87.3,357.6 82.9,357.7 			"/>
            <polygon class="st3" points="315.3,332.1 315,352.3 307.5,351.9 307.7,335.3 			"/>
            <polygon class="st3" points="307.7,335.3 307.5,351.9 54.7,357.7 55.2,343 			"/>
            <polygon class="st3" points="307.7,335.3 55.2,343 133.9,323.5 155.2,318.3 315.5,311.7 315.3,332.1 			"/>
		</g>


	</g>
        <g>
		<g>
			<g>
				<path class="st7" d="M716.6,359.9l1.9,86.7l-47.9,4.3l-1.7-96.1L716.6,359.9z M690.5,384.1l-0.4-20.4l-8.4-0.8l0.4,20.8
					L690.5,384.1z M670.8,361.9l0.4,21.2l9.7,0.5l-0.4-20.8L670.8,361.9z M709.6,385l5.4,0.3l-0.4-19.3l-5.4-0.5L709.6,385z
					 M695.3,441.9l-1-52.2l-22.9-0.9l1,54.8L695.3,441.9z M700.1,384.6l-0.4-20l-8.4-0.8l0.4,20.4L700.1,384.6z M708.3,385
					l-0.4-19.6l-6.9-0.6l0.4,19.9L708.3,385z M696.8,441.8l19.4-1.5l-1.1-49.9l-19.3-0.7L696.8,441.8z"/>
                <polygon class="st8" points="666.6,354.9 668.9,354.9 670.6,450.9 668.3,450.9 				"/>
			</g>
            <g>
				<polygon class="st9" points="690.1,363.7 690.5,384.1 682.1,383.7 681.7,362.9 				"/>
                <polygon class="st9" points="671.2,383.2 670.8,361.9 680.5,362.8 680.9,383.6 				"/>
                <polygon class="st9" points="715,385.3 709.6,385 709.1,365.5 714.6,366 				"/>
                <polygon class="st9" points="694.2,389.7 695.3,441.9 672.3,443.6 671.3,388.8 				"/>
                <polygon class="st9" points="699.7,364.6 700.1,384.6 691.6,384.2 691.2,363.8 				"/>
                <polygon class="st9" points="707.9,365.3 708.3,385 701.4,384.6 701,364.7 				"/>
                <polygon class="st9" points="716.2,440.3 696.8,441.8 695.8,389.7 715.1,390.5 				"/>
			</g>
		</g>
            <g>
			<g>
				<polygon class="st9" points="383,372 382.8,420.5 363,420.4 363.3,372.3 				"/>
                <polygon class="st9" points="357.6,372.3 357,451.5 336.5,451.1 337.2,372.6 				"/>
                <polygon class="st9" points="362.9,428 382.7,428.2 382.6,452 362.7,451.6 				"/>
			</g>
                <g>
				<polygon class="st8" points="387.4,366.8 390.5,367 390.1,457.1 387,457.3 				"/>
                    <path class="st7" d="M333,367.7l54.4-0.9l-0.5,90.4l-54.8-1.1L333,367.7z M382.8,420.5L383,372l-19.7,0.3l-0.3,48.1
					L382.8,420.5z M357,451.5l0.6-79.2l-20.4,0.3l-0.7,78.5L357,451.5z M382.7,428.2l-19.8-0.2l-0.2,23.6l19.9,0.4L382.7,428.2z"/>
			</g>
		</g>
            <g>
			<g>
				<polygon class="st7" points="476.5,365.3 479.3,365.5 479.5,458.9 476.7,459.1 				"/>
                <path class="st7" d="M476.5,365.3l0.2,93.8l-58.9-1.2l0.2-91.2l1.8-0.5l1.5,0L476.5,365.3z M471.9,421l-0.1-50.3l-21.2,0.3
					v49.9L471.9,421z M444.4,453.2l0-82.1l-21.9,0.3l-0.2,81.3L444.4,453.2z M471.9,429l-21.3-0.2l0,24.5l21.4,0.4L471.9,429z"/>
			</g>
                <g>
				<polygon class="st9" points="471.8,370.7 471.9,421 450.6,420.9 450.6,371 				"/>
                    <polygon class="st9" points="444.5,371.1 444.4,453.2 422.4,452.7 422.5,371.4 				"/>
                    <polygon class="st9" points="450.6,429 471.9,429.1 471.9,453.7 450.6,453.3 				"/>
			</g>
		</g>
            <g>
			<g>
				<polygon class="st9" points="384,192.3 383.7,239.4 364.2,240.8 364.5,194 				"/>
                <polygon class="st9" points="358.9,194.5 358.3,271.5 338.1,272.6 338.8,196.3 				"/>
                <polygon class="st9" points="364.1,248.2 383.7,246.9 383.6,270 364,271.1 				"/>
			</g>
                <polygon class="st8" points="387.9,274.8 390.9,275.3 337.1,278.2 333.9,277.8 			"/>
                <g>
				<polygon class="st7" points="388.3,186.9 391.3,187.8 390.9,275.3 387.9,274.8 				"/>
                    <path class="st7" d="M334.7,191.8l53.6-4.9l-0.4,87.9l-54,3L334.7,191.8z M383.7,239.4l0.2-47.1l-19.5,1.7l-0.3,46.7
					L383.7,239.4z M358.3,271.5l0.6-76.9l-20.1,1.8l-0.7,76.3L358.3,271.5z M383.7,246.9l-19.6,1.3l-0.2,23l19.6-1.1L383.7,246.9z"
                    />
			</g>
		</g>
            <g>
			<polygon class="st7" points="625.9,305.5 556.6,292.3 559.2,292.2 628.2,305.4 			"/>
                <g>
				<path class="st7" d="M626.8,205l1.5,100.4l-69-13.2l-1-113.3L626.8,205z M589.2,222.1l-0.3-23.9l-12.1-4.4l0.3,24.3
					L589.2,222.1z M561,188l0.2,25l14.1,4.6l-0.2-24.4L561,188z M616.5,231l7.7,2.5l-0.3-22.4l-7.7-2.8L616.5,231z M595.2,291.1
					l-0.7-61l-33.2-10.4l0.6,64.6L595.2,291.1z M603,226.6l-0.3-23.3l-12.1-4.4l0.3,23.8L603,226.6z M614.7,230.4l-0.3-22.8
					l-9.8-3.6l0.3,23.2L614.7,230.4z M597.5,291.6l27.6,5.7l-0.8-57.8l-27.5-8.6L597.5,291.6z"/>
                    <polygon class="st8" points="555.7,179.1 558.2,178.9 559.2,292.2 556.6,292.3 				"/>
			</g>
                <g>
				<polygon class="st9" points="589,198.3 589.2,222.1 577.1,218.2 576.9,193.8 				"/>
                    <polygon class="st9" points="561.2,213 561,188 575.1,193.2 575.3,217.6 				"/>
                    <polygon class="st9" points="624.2,233.5 616.5,231 616.2,208.2 623.9,211.1 				"/>
                    <polygon class="st9" points="594.5,230.1 595.2,291.1 561.9,284.3 561.3,219.7 				"/>
                    <polygon class="st9" points="602.7,203.3 603,226.6 590.8,222.6 590.6,198.9 				"/>
                    <polygon class="st9" points="614.4,207.6 614.7,230.4 604.9,227.2 604.6,204 				"/>
                    <polygon class="st9" points="625.1,297.3 597.5,291.6 596.7,230.8 624.3,239.4 				"/>
			</g>
                <path class="st8" d="M556.6,292.3l69.2,13.2 M628.2,305.4L626.8,205 M625.9,305.5l2.4-0.1 M555.7,179.1l2.6-0.2 M626.8,205
				l-68.6-26.1"/>
                <path class="st8" d="M559.2,292.2l69,13.2 M556.6,292.3l2.6-0.1"/>
                <line class="st8" x1="555.7" y1="179.1" x2="556.6" y2="292.3"/>
		</g>


            <g>
			<polygon class="st9" points="307.3,227 306.6,284.7 281.4,286 282.1,228.9 			"/>
                <polygon class="st7" points="280.4,293.6 276.8,293.1 311.2,291.4 314.7,291.9 			"/>
                <g>
				<path class="st7" d="M279.9,225.7l29.7-2.3l-0.7,64.7l-29.8,1.5L279.9,225.7z M306.6,284.7l0.7-57.7l-25.1,1.9l-0.8,57.1
					L306.6,284.7z"/>
                    <polygon class="st8" points="312,219.7 315.5,220.5 314.7,291.9 311.2,291.4 				"/>
                    <path class="st8" d="M276.8,293.1l1-70.6l34.2-2.7l-0.8,71.7L276.8,293.1z M309.6,223.3l-29.7,2.3l-0.9,63.9l29.8-1.5
					L309.6,223.3z"/>
			</g>
		</g>
            <g>
			<g>
				<polygon class="st9" points="471.4,184.5 471.5,233.3 450.5,234.7 450.5,186.3 				"/>
                <polygon class="st9" points="444.5,186.9 444.5,266.6 422.7,267.8 422.9,188.8 				"/>
                <polygon class="st9" points="450.5,242.4 471.5,241 471.6,265 450.6,266.2 				"/>
			</g>
                <polygon class="st7" points="476.3,270 479.1,270.5 438,272.8 437.2,272.8 432.7,273 421.2,273.7 418.3,273.1 			"/>
                <g>
				<polygon class="st7" points="476.1,178.9 478.8,179.9 479.1,270.5 476.3,270 				"/>
                    <path class="st7" d="M418.5,184.2l57.6-5.2l0.2,91l-58,3.2L418.5,184.2z M471.5,233.3l-0.1-48.8l-20.9,1.9v48.4L471.5,233.3z
					 M444.5,266.6l0-79.7l-21.6,1.9l-0.2,79L444.5,266.6z M471.5,241l-21,1.4l0,23.8l21-1.2L471.5,241z"/>
			</g>
                <line class="st8" x1="421.2" y1="273.7" x2="418.3" y2="273.1"/>
		</g>
            <g>
			<polygon class="st8" points="711.7,321.4 663.7,312.2 665.9,312.1 713.7,321.3 			"/>
                <g>
				<path class="st7" d="M711.9,236.4l1.8,84.9l-47.8-9.2l-1.6-93.9L711.9,236.4z M685.8,252.7l-0.4-20l-8.4-3.1l0.4,20.3
					L685.8,252.7z M666.2,225.6l0.4,20.8l9.6,3.2l-0.4-20.4L666.2,225.6z M704.9,258.9l5.4,1.8l-0.4-19l-5.4-2L704.9,258.9z
					 M690.5,310.2l-1-51.1l-22.9-7.2l0.9,53.6L690.5,310.2z M695.3,255.8l-0.3-19.6l-8.4-3.1l0.3,19.9L695.3,255.8z M703.6,258.5
					l-0.4-19.2l-6.9-2.5l0.4,19.5L703.6,258.5z M692.1,310.6l19.3,4l-1-48.8l-19.3-6.1L692.1,310.6z"/>
                    <polygon class="st7" points="662,218.4 664.3,218.2 665.9,312.1 663.7,312.2 				"/>
			</g>
                <g>
				<polygon class="st9" points="685.5,232.7 685.8,252.7 677.5,250 677.1,229.6 				"/>
                    <polygon class="st9" points="666.6,246.4 666.2,225.6 675.8,229.2 676.2,249.6 				"/>
                    <polygon class="st9" points="710.3,260.7 704.9,258.9 704.5,239.7 709.9,241.7 				"/>
                    <polygon class="st9" points="689.6,259.2 690.5,310.2 667.6,305.5 666.7,251.9 				"/>
                    <polygon class="st9" points="695,236.2 695.4,255.8 687,253.1 686.6,233.1 				"/>
                    <polygon class="st9" points="703.2,239.3 703.6,258.5 696.7,256.2 696.3,236.7 				"/>
                    <polygon class="st9" points="711.4,314.6 692.1,310.6 691.1,259.6 710.4,265.7 				"/>
			</g>
                <path class="st7" d="M665.9,312.1l47.8,9.2 M663.7,312.2l2.2-0.1"/>
                <line class="st7" x1="662" y1="218.4" x2="663.7" y2="312.2"/>
		</g>
            <g>
			<polygon class="st9" points="205.8,226.3 205,266.4 189.6,267.4 190.4,227.6 			"/>
                <polygon class="st9" points="186,227.9 184.6,293.4 168.7,294.3 170.1,229.2 			"/>
                <polygon class="st9" points="189.5,273.7 204.8,272.8 204.5,292.4 189.1,293.2 			"/>
                <polygon class="st9" points="207.8,296.5 211,296.9 168.6,299 165.3,298.6 			"/>
                <g>
				<polygon class="st7" points="209.2,221.8 212.4,222.5 211,296.9 207.8,296.5 				"/>
                    <path class="st7" d="M167,225.4l42.3-3.5l-1.5,74.7l-42.5,2.1L167,225.4z M205,266.4l0.8-40.1l-15.3,1.2l-0.8,39.8L205,266.4z
					 M184.6,293.4l1.4-65.5l-15.9,1.3l-1.5,65L184.6,293.4z M204.8,272.8l-15.4,0.9l-0.4,19.5l15.4-0.8L204.8,272.8z"/>
			</g>
		</g>
	</g>
        <g>
		<g>
			<polygon class="st9" points="208.1,373.7 207.3,414.8 191.7,414.7 192.6,373.9 			"/>
            <polygon class="st9" points="188.1,374 186.7,441.1 170.6,440.8 172.1,374.2 			"/>
            <polygon class="st9" points="191.6,421.2 207.1,421.3 206.7,441.4 191.2,441.2 			"/>
		</g>
            <g>
			<polygon class="st8" points="211.6,369.4 214.8,369.5 213.3,445.7 210.1,445.8 			"/>
                <path class="st7" d="M168.9,370l42.7-0.7l-1.5,76.5l-42.9-0.8L168.9,370z M207.3,414.8l0.8-41l-15.5,0.2l-0.9,40.8L207.3,414.8z
				 M186.7,441.1l1.4-67.1l-16.1,0.2l-1.5,66.6L186.7,441.1z M207.1,421.3l-15.5-0.1l-0.4,20l15.5,0.3L207.1,421.3z"/>
		</g>
	</g>
        <g>
		<polygon class="st7" points="272.9,461.7 272,461.8 270.9,461.9 271.8,461.8 		"/>
            <polygon class="st7" points="273.8,461.3 272.9,461.7 271.8,461.8 272.6,461.4 		"/>
            <path class="st7" d="M274.5,460.7l-1.9,0.7L274.5,460.7z"/>
            <polygon class="st7" points="275.1,459.8 274.5,460.7 273.3,460.8 273.9,459.9 		"/>
            <polygon class="st7" points="275.4,458.8 275.1,459.8 273.9,459.9 274.2,458.9 		"/>
            <polygon class="st7" points="275.5,457.7 275.4,458.8 274.2,458.9 274.4,457.8 		"/>
            <polygon class="st7" points="275.4,456.6 275.5,457.7 274.4,457.8 274.3,456.7 		"/>
            <polygon class="st7" points="275.1,455.6 275.4,456.6 274.3,456.7 273.9,455.7 		"/>
            <polygon class="st7" points="274.6,454.7 275.1,455.6 273.9,455.7 273.4,454.8 		"/>
            <path class="st7" d="M273.9,454l-1.2,0.1L273.9,454z"/>
            <polygon class="st7" points="273,453.5 273.9,454 272.7,454.1 271.9,453.6 		"/>
            <polygon class="st7" points="272.2,453.4 273,453.5 271.9,453.6 271,453.5 		"/>
            <polygon class="st7" points="274.2,458.9 273.9,459.9 273.3,460.8 271.8,461.8 270.3,461.2 269.1,459.6 268.8,458.6 268.7,457.5
			268.8,456.4 269.2,455.4 269.7,454.6 271.3,453.5 272.7,454.1 273.9,455.7 274.3,456.7 274.4,457.8 		"/>
            <path class="st7" d="M271.2,461.7l-1.2,0.1L271.2,461.7z"/>
            <polygon class="st7" points="270.3,461.2 271.2,461.7 270,461.8 269.2,461.3 		"/>
            <path class="st7" d="M269.6,460.5l-1.2,0.1L269.6,460.5z"/>
            <polygon class="st8" points="269.1,459.6 269.6,460.5 268.5,460.6 267.9,459.7 		"/>
            <polygon class="st8" points="268.8,458.6 269.1,459.6 267.9,459.7 267.6,458.7 		"/>
            <polygon class="st8" points="268.7,457.5 268.8,458.6 267.6,458.7 267.5,457.6 		"/>
            <polygon class="st8" points="268.8,456.4 268.7,457.5 267.5,457.6 267.6,456.5 		"/>
            <polygon class="st8" points="269.2,455.4 268.8,456.4 267.6,456.5 268,455.5 		"/>
            <polygon class="st8" points="269.7,454.6 269.2,455.4 268,455.5 268.5,454.6 		"/>
            <path class="st8" d="M270.4,453.9l-1.9,0.7L270.4,453.9z"/>
            <polygon class="st8" points="271.3,453.5 270.4,453.9 269.3,454 270.1,453.6 271.2,453.5 		"/>
            <polygon class="st8" points="271.2,453.5 270.1,453.6 271,453.5 		"/>
            <g>
			<polygon class="st9" points="307.9,369.7 307.5,412.7 290.4,412.6 291,369.9 			"/>
                <polygon class="st9" points="286.1,369.9 285.1,440.2 267.4,439.9 268.4,370.1 			"/>
                <polygon class="st9" points="290.3,419.4 307.4,419.5 307.1,440.7 290.1,440.3 			"/>
		</g>
            <g>
			<polygon class="st8" points="311.7,365.1 314.7,365.2 313,526.1 310,526.6 			"/>
                <path class="st8" d="M264.9,365.7l46.8-0.6L310,526.6l-47.4-2.7L264.9,365.7z M272,461.8l0.9-0.1l0.8-0.4l1.3-1.5l0.4-1l0.1-1.1
				l-0.1-1.1l-0.3-1l-0.5-0.9l-1.5-1.1l-0.9-0.2l-1.2,0.1l-0.9,0.1l-0.8,0.4l-1.3,1.5l-0.3,1l-0.1,1.1l0.1,1.1l0.3,1l0.5,0.9
				l1.5,1.1l0.9,0.2L272,461.8z M307.5,412.7l0.5-43l-17,0.2l-0.5,42.7L307.5,412.7z M285.1,440.2l0.9-70.3l-17.6,0.2l-1,69.8
				L285.1,440.2z M307.4,419.5l-17-0.2l-0.3,21l17.1,0.3L307.4,419.5z"/>
		</g>
            <path class="st8" d="M272,461.8l0.9-0.1 M272.9,461.7l0.8-0.4 M270.3,461.2l0.8,0.5 M274.5,460.7l0.6-0.9 M269.6,460.5l-0.5-0.9
			 M275.1,459.8l0.4-1 M269.1,459.6l-0.3-1 M275.4,458.8l0.1-1.1 M268.8,458.6l-0.1-1.1 M275.5,457.7l-0.1-1.1 M268.7,457.5l0.1-1.1
			 M275.4,456.6l-0.3-1 M268.8,456.4l0.4-1 M275.1,455.6l-0.5-0.9 M269.2,455.4l0.6-0.9 M273,453.5l0.8,0.4 M270.4,453.9l0.8-0.4
			 M272.2,453.4l0.9,0.2 M272.2,453.4l-1.2,0.1 M272,461.8l-1.2,0.1"/>
            <line class="st8" x1="314.7" y1="365.2" x2="311.7" y2="365.1"/>
            <path class="st8" d="M262.6,523.9l47.4,2.7 M274.2,458.9l-0.4,1 M271.9,453.6l0.8,0.4 M271.8,461.8l-0.9,0.1 M270.1,453.6
			l0.9-0.1 M268,455.5l0.6-0.9 M267.6,458.7l-0.1-1.1 M270.9,461.9l-0.9-0.2 M273.9,459.9l-0.6,0.9 M274.4,457.8l-0.1,1.1
			 M267.5,457.6l0.1-1.1 M269.3,454l0.8-0.4 M268.5,460.6l-0.5-0.9 M270,461.8l-0.8-0.4 M267.6,456.5l0.3-1 M273.4,454.8l0.5,0.9
			 M274.3,456.7l0.1,1.1 M267.9,459.7l-0.3-1 M273.9,455.7l0.3,1"/>
	</g>
        <g>
		<polygon class="st4" points="312.3,538.8 306.8,538.5 309,352.9 314.4,352.5 		"/>
            <polygon class="st4" points="306.8,537.8 304,538.3 306.3,352.7 309,352.9 		"/>
            <polygon class="st4" points="75.8,524.5 71.4,524.2 76.6,358.6 81,357.8 		"/>
            <polygon class="st4" points="304,538.3 298.6,538 298.7,526.7 299.5,464.6 300.9,357 300.9,352.8 306.3,352.7 		"/>
            <polygon class="st4" points="313.1,538.6 312.3,538.8 314.4,352.5 315.3,352.6 313.9,470.8 		"/>
            <polygon class="st4" points="81,357.8 83.1,357.9 78,524.2 75.8,524.5 		"/>
            <polygon class="st4" points="86.7,524.4 82.4,524.9 87.5,357.6 91.8,357.8 91.7,359.2 86.8,522.1 		"/>
            <polygon class="st4" points="183.8,531 178.9,530.7 179.1,520.1 180.4,461.3 182.7,359.4 182.8,355.5 187.7,355.4 		"/>
            <polygon class="st4" points="191.1,531.5 186.2,531.2 190.1,355.5 194.9,355.2 		"/>
            <polygon class="st4" points="186.2,530.7 183.8,531 187.7,355.4 190.1,355.5 		"/>
            <polygon class="st4" points="195.2,530.9 191.1,531.5 194.9,355.2 198.9,355.4 198.9,359.1 196.7,461.8 195.4,521 		"/>
            <polygon class="st4" points="82.4,524.9 78,524.6 83.1,357.9 87.5,357.6 		"/>
            <line class="st4" x1="186.2" y1="531.2" x2="191.1" y2="531.5"/>
            <path class="st4" d="M300.9,352.8l5.4-0.1 M307.8,351.9l7.5,0.5"/>
            <line class="st4" x1="304" y1="538.3" x2="306.3" y2="352.7"/>
            <line class="st4" x1="183.8" y1="531" x2="187.7" y2="355.4"/>
            <path class="st4" d="M87.5,357.6l4.2,0.2 M83.1,357.7l4.4-0.1 M82.4,524.9l5.1-167.2 M309,352.7l5.4-0.1 M75.8,524.5L81,357.8"/>
	</g>
</g>

    <g id="right-window">
	<g>
		<g>
			<path class="st7" d="M631.2,351.2l1.5,102.9l-69.4,6.2l-1.1-116.5L631.2,351.2z M593.5,379.5l-0.3-24.5l-12.2-1.1l0.3,25
				L593.5,379.5z M565.1,352.4l0.2,25.7l14.2,0.7l-0.3-25.1L565.1,352.4z M620.9,380.8l7.7,0.4l-0.3-23l-7.7-0.7L620.9,380.8z
				 M599.6,448.9l-0.8-62.6l-33.5-1.3l0.6,66.4L599.6,448.9z M607.3,380.2l-0.3-23.9l-12.2-1.1l0.3,24.4L607.3,380.2z M619.1,380.8
				l-0.3-23.4l-9.9-0.9l0.3,23.8L619.1,380.8z M601.8,448.7l27.8-2.1l-0.8-59.3l-27.7-1L601.8,448.7z"/>
            <polygon class="st8" points="559.7,343.9 562.3,343.8 563.3,460.3 560.7,460.3 				"/>
		</g>
        <g>
			<polygon class="st9" points="593.2,355 593.5,379.5 581.3,378.9 581.1,353.9 				"/>
            <polygon class="st9" points="565.3,378.1 565.1,352.4 579.2,353.7 579.5,378.8 				"/>
            <polygon class="st9" points="628.6,381.2 620.9,380.8 620.6,357.5 628.3,358.2 				"/>
            <polygon class="st9" points="598.8,386.2 599.6,448.9 566,451.4 565.4,385 				"/>
            <polygon class="st9" points="607,356.3 607.3,380.2 595.1,379.6 594.9,355.2 				"/>
            <polygon class="st9" points="618.8,357.4 619.1,380.8 609.2,380.3 608.9,356.5 				"/>
            <polygon class="st9" points="629.6,446.6 601.8,448.7 601.1,386.3 628.7,387.3 				"/>
		</g>
        <path class="st8" d="M632.7,454.1l-1.5-102.9 M559.7,343.9l2.6-0.1 M631.2,351.2l-69-7.3 M563.3,460.3l69.4-6.2 M560.7,460.3
			l2.6,0.1 M559.7,343.9l1,116.4"/>
	</g>
</g>

</svg>
