<?xml version="1.0" encoding="utf-8"?>
<!-- Generator: Adobe Illustrator 25.0.1, SVG Export Plug-In . SVG Version: 6.00 Build 0)  -->
<svg version="1.1" id="katman_1" xmlns="http://www.w3.org/2000/svg" x="0px" y="0px"
     viewBox="0 0 841.9 595.3" style="enable-background:new 0 0 841.9 595.3;" xml:space="preserve">
<style type="text/css">
	.st0{fill:#8F6645;}
	.st1{fill:#EEEEEE;}
	.st2{fill:#DDDDDD;}
	.st3{fill:#3D3A37;}
	.st4{fill:#C4C4C4;}
	.st5{fill:#3D3A37;}
	.st6{fill:#000000;}
	.st7{fill:#FFFFFF;}
	.st8{fill:#888888;}
	.st9{fill:#7884AF;}
</style>


    <g id="chimney">
	<polygon class="st6" points="298.2,37.9 298.1,41 273.4,32.9 270,34.4 270.1,28.6 			"/>
        <polygon class="st6" points="301.4,51.3 295.8,53.7 267.7,44.8 273.2,42.3 			"/>
        <polygon class="st5" points="301.5,42.1 301.4,51.3 273.2,42.3 273.4,32.9 298.1,41 			"/>
        <polygon class="st5" points="295.8,53.7 294.5,133.2 265.3,164.7 267.7,44.8 			"/>
        <polygon class="st5" points="301.7,29.2 301.6,36.4 273.5,27 273.7,19.7 			"/>
        <polygon class="st6" points="273.4,32.9 273.2,42.3 267.7,44.8 265.3,164.7 246.5,170.5 249.1,57.2 249.2,53 243.5,55.5
		243.7,46.3 247.6,44.6 247.6,41.9 247.7,38.9 243.9,40.7 244.1,33.5 273.7,19.7 273.5,27 270.1,28.6 270,34.4 			"/>
        <polygon class="st5" points="243.9,40.7 247.7,38.9 247.6,41.9 			"/>
        <polygon class="st5" points="270.1,28.6 273.5,27 301.6,36.4 298.2,37.9 			"/>
        <polygon class="st5" points="243.5,55.5 249.2,53 249.1,57.2 			"/>
</g>


    <g id="roof">
	<g>
		<polygon class="st2" points="564.1,229.6 377.9,187.3 116.6,252.9 116.5,254.6 103.9,252.9 377.2,183.2 566.1,226.7
			631.8,214.9 737.3,242.5 723.8,244.5 723.8,242.6 628.8,218.2 				"/>
        <polygon class="st20" points="377.2,183.2 103.9,252.9 103.8,252.1 377.2,182 				"/>
        <polygon class="st2" points="97.8,245.4 94.6,244.9 376.8,168.9 567.5,215.3 633.8,202.8 747.1,234.1 743.7,234.6 745.1,234.1
					633.4,203.3 567.2,215.8 376.9,169.6 96.5,244.9 97.6,245.3 				"/>
        <polygon class="st2" points="94.6,244.9 376.8,168.1 376.8,168.9 				"/>
        <polygon class="st2" points="97.6,245.3 96.5,244.9 376.9,169.6 376.9,170.5 				"/>
        <polygon class="st2" points="631.8,214.9 566.1,226.7 566.1,225.7 631.8,213.9 				"/>
        <polygon class="st2" points="99.6,246.3 98.6,245.7 377,171.5 377,172.5 				"/>
        <polygon class="st2" points="100.4,246.8 99.6,246.3 377,172.5 377.1,173.6 				"/>
        <polygon class="st2" points="94.2,243.8 376.7,166.5 376.8,167.3 				"/>
        <polygon class="st2" points="94.5,244.4 376.8,167.3 376.8,168.1 				"/>
        <polygon class="st2" points="566.1,226.7 377.2,183.2 377.2,182 566.1,225.7 				"/>
        <polygon class="st2" points="93.8,243.4 376.7,165.7 376.7,166.5 				"/>
        <polygon class="st2" points="376.7,165.7 93.1,243 92.4,242.8 376.7,165.2 				"/>
        <polygon class="st2" points="376.8,168.9 376.8,168.1 567.5,214.6 567.5,215.3 				"/>
        <polygon class="st2" points="97.6,245.3 376.9,170.5 377,171.5 98.6,245.7 97.8,245.4 				"/>
        <polygon class="st2" points="376.9,170.5 376.9,169.6 567.2,215.8 567,216.4 				"/>
        <polygon class="st2" points="377,171.5 376.9,170.5 567,216.4 566.8,217.2 				"/>
        <polygon class="st2" points="100.4,246.8 377.1,173.6 377.1,174.8 101.2,247.5 				"/>
        <polygon class="st2" points="101.2,247.5 377.1,174.8 377.2,175.9 101.9,248.1 				"/>
        <polygon class="st2" points="377.1,174.8 377.1,173.6 566.6,218.9 566.5,219.8 				"/>
        <polygon class="st2" points="377.2,175.9 377.1,174.8 566.5,219.8 566.4,220.8 				"/>
        <polygon class="st2" points="103.8,252.1 103.6,251.2 377.2,180.8 377.2,182 				"/>
        <polygon class="st2" points="377.2,180.8 103.6,251.2 103.4,250.4 377.2,179.6 				"/>
        <polygon class="st2" points="377.2,180.8 377.2,179.6 566.2,223.7 566.1,224.7 				"/>
        <polygon class="st2" points="377.2,179.6 103.4,250.4 103,249.6 377.2,178.3 				"/>
        <polygon class="st2" points="376.8,167.3 376.7,166.5 567.6,213.3 567.5,213.9 				"/>
        <polygon class="st2" points="377.2,182 377.2,180.8 566.1,224.7 566.1,225.7 				"/>
        <polygon class="st2" points="103,249.6 102.5,248.9 377.2,177.1 377.2,178.3 				"/>
        <polygon class="st2" points="377.2,178.3 377.2,177.1 566.3,221.7 566.2,222.7 				"/>
        <path class="st2" d="M376.7,165.7l191.1,46.5L376.7,165.7z"/>
        <path class="st2" d="M567.7,212.7l66.7-13.1L567.7,212.7z"/>
        <polygon class="st2" points="567.8,212.2 376.7,165.2 567.9,212 				"/>
        <polygon class="st2" points="376.6,164.7 92.4,242.8 91.5,242.7 				"/>
        <polygon class="st2" points="376.6,164.7 91.5,242.7 91.6,241.8 111,236.5 373.9,164.3 376.6,163.5 				"/>
        <polygon class="st2" points="376.7,165.7 567.7,212.7 376.7,166.5 				"/>
        <polygon class="st2" points="101.9,248.1 377.2,175.9 377.2,177.1 102.5,248.9 				"/>
        <polygon class="st2" points="377.2,179.6 377.2,178.3 566.2,222.7 566.2,223.7 				"/>
        <polygon class="st2" points="376.8,167.3 567.5,213.9 567.5,214.6 376.8,168.1 				"/>
        <polygon class="st2" points="377.2,177.1 377.2,175.9 566.4,220.8 566.3,221.7 				"/>
        <polygon class="st2" points="377,172.5 377,171.5 566.8,217.2 566.7,218 				"/>
        <path class="st2" d="M567.6,213.3l66.6-13.2L567.6,213.3z"/>
        <polygon class="st2" points="376.6,164.7 376.6,163.5 559.4,208.8 567.9,210.9 567.9,212 				"/>
        <polygon class="st2" points="567.5,213.9 567.6,213.3 634,200.6 633.9,201.3 				"/>
        <polygon class="st2" points="377.1,173.6 377,172.5 566.7,218 566.6,218.9 				"/>
        <polygon class="st2" points="92.6,242.9 91.5,242.7 92.4,242.8 				"/>
        <polygon class="st2" points="566.8,217.2 567,216.4 633.1,204.1 632.9,204.9 				"/>
        <polygon class="st2" points="566.1,224.7 566.2,223.7 631.8,211.8 631.8,212.9 				"/>
        <polygon class="st2" points="631.8,211.8 566.2,223.7 566.2,222.7 631.9,210.7 				"/>
        <polygon class="st2" points="631.8,212.9 631.8,211.8 737.8,239.9 737.5,240.8 				"/>
        <polygon class="st2" points="633.8,202.8 567.5,215.3 567.5,214.6 633.8,202.1 				"/>
        <polygon class="st2" points="566.2,222.7 566.3,221.7 632,209.7 631.9,210.7 				"/>
        <polygon class="st2" points="632,209.7 566.3,221.7 566.4,220.8 632.1,208.7 				"/>
        <polygon class="st2" points="632,209.7 632.1,208.7 739.4,237.5 738.7,238.2 				"/>
        <polygon class="st2" points="566.1,224.7 631.8,212.9 631.8,213.9 566.1,225.7 				"/>
        <polygon class="st2" points="632.9,204.9 633.1,204.1 743.9,234.5 742.8,234.9 				"/>
        <polygon class="st2" points="631.8,213.9 631.8,212.9 737.5,240.8 737.3,241.6 				"/>
        <polygon class="st2" points="633.8,202.1 567.5,214.6 567.5,213.9 633.9,201.3 				"/>
        <polygon class="st2" points="633.9,201.3 634,200.6 748,232.4 				"/>
        <polygon class="st2" points="631.8,211.8 631.9,210.7 738.2,239 737.8,239.9 				"/>
        <polygon class="st2" points="567,216.4 567.2,215.8 633.4,203.3 633.1,204.1 				"/>
        <polygon class="st2" points="633.1,204.1 633.4,203.3 745.1,234.1 743.9,234.5 				"/>
        <polygon class="st2" points="634.2,200 749.5,231.8 748.7,232 				"/>
        <polygon class="st2" points="631.8,214.9 631.8,213.9 737.3,241.6 737.3,242.5 				"/>
        <polygon class="st2" points="567.9,212 567.9,210.9 628.1,199.4 634.5,198.2 634.5,199.2 				"/>
        <polygon class="st2" points="567.9,212 634.5,199.2 567.8,212.2 				"/>
        <polygon class="st2" points="634.5,199.2 634.5,198.2 718.9,221.9 750.3,230.8 750.4,231.7 				"/>
        <polygon class="st2" points="634.3,199.6 750.4,231.7 749.5,231.8 				"/>
        <polygon class="st2" points="566.4,220.8 566.5,219.8 632.3,207.7 632.1,208.7 				"/>
        <polygon class="st2" points="632.3,207.7 566.5,219.8 566.6,218.9 632.5,206.7 				"/>
        <polygon class="st2" points="632.3,207.7 632.5,206.7 740.9,236.1 740.1,236.8 				"/>
        <polygon class="st2" points="632.1,208.7 632.3,207.7 740.1,236.8 739.4,237.5 				"/>
        <polygon class="st2" points="632.5,206.7 566.6,218.9 566.7,218 632.7,205.8 				"/>
        <polygon class="st2" points="632.7,205.8 566.7,218 566.8,217.2 632.9,204.9 				"/>
        <polygon class="st2" points="632.5,206.7 632.7,205.8 741.8,235.5 740.9,236.1 				"/>
        <polygon class="st2" points="632.7,205.8 632.9,204.9 742.8,234.9 741.8,235.5 				"/>
        <polygon class="st2" points="631.9,210.7 632,209.7 738.7,238.2 738.2,239 				"/>
        <polygon class="st2" points="634,200.6 748.7,232 748,232.4 				"/>
        <polygon class="st2" points="633.8,202.8 633.8,202.1 747.2,233.5 				"/>
        <polygon class="st2" points="633.8,202.1 633.9,201.3 747.5,232.9 				"/>
        <polygon class="st2" points="749.5,231.8 750.4,231.7 749.1,231.9 				"/>
        <line class="st2" x1="97.8" y1="245.4" x2="94.6" y2="244.9"/>
        <line class="st2" x1="97.6" y1="245.3" x2="96.5" y2="244.9"/>
        <line class="st2" x1="631.8" y1="214.9" x2="566.1" y2="226.7"/>
        <path class="st2" d="M99.6,246.3l-0.9-0.5 M100.4,246.8l-0.9-0.6"/>
        <line class="st2" x1="564.1" y1="229.6" x2="377.9" y2="187.3"/>
        <line class="st2" x1="116.5" y1="254.6" x2="103.9" y2="252.9"/>
        <line class="st2" x1="103.8" y1="252.1" x2="103.6" y2="251.2"/>
        <path class="st2" d="M376.8,167.3l0-0.8 M377.2,178.3l0-1.2 M377.2,182v-1.2 M91.5,242.7l285.1-78"/>
        <line class="st2" x1="103" y1="249.6" x2="102.5" y2="248.9"/>
        <line class="st2" x1="96.5" y1="244.9" x2="376.9" y2="169.6"/>
        <line class="st2" x1="103.4" y1="250.4" x2="103" y2="249.6"/>
        <path class="st2" d="M377.2,179.6l0-1.2 M377.2,177.1l0-1.2"/>
        <path class="st2" d="M102.5,248.9l-0.6-0.7 M103.6,251.2l-0.3-0.8 M103.9,252.9l0-0.8"/>
        <path class="st2" d="M377,172.5l0-1 M376.6,164.7v-1.2 M567.5,213.9l0.1-0.7 M377.1,173.6l0-1.1 M376.7,166.5l0-0.7
					 M376.8,168.1l0-0.8"/>
        <path class="st2" d="M92.6,242.9l-1.1-0.2 M101.2,247.5l-0.8-0.6"/>
        <line class="st2" x1="92.4" y1="242.8" x2="91.5" y2="242.7"/>
        <path class="st2" d="M91.5,242.7l0-0.9 M101.9,248.1l-0.7-0.7"/>
        <path class="st2" d="M632.5,206.7l0.2-0.9 M632,209.7l0.1-1 M631.8,212.9l0-1.1 M567.9,212l66.6-12.7 M566.8,217.2l0.2-0.8
					 M633.1,204.1l0.2-0.8 M566.1,224.7l0-1 M566.1,226.7l0-1 M567.5,215.3l66.4-12.5 M376.9,169.6l190.3,46.1 M632.3,207.7l0.2-1
					 M632.1,208.7l0.2-1 M566.2,222.7l0.1-1 M632.9,204.9l0.2-0.8 M631.8,213.9l0-1.1 M633.9,201.3l0.1-0.7 M634.5,199.2l0-1.1
					 M632.7,205.8l0.2-0.9 M376.6,164.7L567.9,212 M631.8,211.8l0.1-1.1 M567,216.4l0.2-0.7 M631.8,214.9l0-1 M567.9,212l0-1
					 M566.4,220.8l0.1-0.9 M567.5,215.3l0-0.7 M631.9,210.7l0.1-1 M376.8,168.9l190.7,46.3 M566.2,223.7l0.1-1 M566.7,218l0.1-0.8
					 M566.1,225.7l0-1 M567.5,214.6l0-0.7 M566.6,218.9l0.1-0.9 M566.5,219.8l0.1-0.9 M633.8,202.8l0-0.7 M633.8,202.1l0.1-0.7
					 M566.3,221.7l0.1-1 M567.2,215.8l66.2-12.4 M749.5,231.8l0.9-0.1"/>
        <path class="st2" d="M741.8,235.5l1-0.5 M737.8,239.9l0.4-0.8"/>
        <path class="st2" d="M750.4,231.7l-1.2,0.2 M747.1,234.1l-3.4,0.5"/>
	</g>


        <g>
		<polygon class="st3" points="110.9,236.3 303.1,84.1 373.9,164.1 				"/>
            <polygon class="st3" points="462.4,131.7 467.2,134.2 559.3,208.6 376.6,163.3 373.9,164.1 303.1,84.1 				"/>
            <polygon class="st3" points="559.3,208.6 467.2,134.2 515.5,120.7 628.1,199.2 567.8,210.7 				"/>
            <polygon class="st3" points="515.5,120.7 718.9,221.7 634.4,198 628.1,199.2 				"/>
	</g>
</g>


    <g id="body">
	<g>
		<polygon class="st0" points="377.4,471 441.1,469.4 441.4,531.1 377.1,536.5 				"/>
        <polygon class="st0" points="736.1,529.5 642.3,540.3 642.1,534.4 638.4,534.1 638.1,523.7 636.4,466.5 733.3,463.7 				"/>
        <polygon class="st0" points="636.4,466.5 638.1,523.7 634.1,523.4 632.5,466.4 				"/>
        <polygon class="st0" points="377.1,556 106.9,525.8 109.2,463.5 377.4,471 377.1,536.5 				"/>
        <polygon class="st0" points="621.4,522.6 570.6,519.3 569.5,465.2 619.9,466.2 				"/>
        <polygon class="st0" points="552.9,466.6 569.5,466.1 570.6,520.3 554,521.7 				"/>
        <polygon class="st0" points="539.7,522.9 457.8,529.7 457.4,469 538.7,466.9 				"/>
	</g>


        <g>
		<polygon class="st4" points="368,357.2 377.2,357.8 376.9,470.4 108.7,462.8 116.5,254.9 116.5,253.2 377.8,187.6 377.3,333.5
			368.1,341.5 				"/>
            <polygon class="st4" points="377.3,333.5 377.8,187.6 564.1,229.8 566.2,333.5 399.7,314.1 				"/>
            <polygon class="st4" points="633.1,368.2 642.4,367.7 642,354 632.6,351.4 628.7,218.4 723.7,242.8 723.8,244.7 732.8,464
					635.9,466.8 				"/>
            <polygon class="st4" points="566.2,333.5 564.1,229.8 628.7,218.4 632.6,351.4 				"/>
            <polygon class="st4" points="376.9,470.4 377.2,357.8 440.1,362.6 440.6,468.7 				"/>
            <polygon class="st4" points="635.9,466.8 632,466.7 629.2,368.5 633.1,368.2 				"/>
            <polygon class="st4" points="619.4,465.5 569,464.5 567,371.1 616.8,368.2 				"/>
            <polygon class="st4" points="567,372.1 569,465.5 552.4,465.9 550.7,370.8 				"/>
            <polygon class="st4" points="538.2,466.3 456.9,468.3 456.2,363.8 536.6,369.8 				"/>
	</g>
</g>


    <g id="left-window">
	<g>
		<g>
			<path class="st7" d="M301.7 446L256.2 445.8L258 357.2L303 352.8L301.7 446ZM299.6 356.3L289.2 357.3L287.9 441.3H298.4L299.6 356.3ZM260.3 400.5L285.8 399.3L286.5 357.6L261.1 360L260.3 400.5ZM260.3 403.3L259.6 441.3H285.2L285.8 402.1L260.3 403.3Z"/>
		</g>
        <g>
			<polygon class="st9" points="289.2,357.3 299.6,356.3 298.3,441.3 287.9,441.3 				"/>
            <polygon class="st9" points="285.8,399.2 260.3,400.5 261.1,360 286.5,357.6 				"/>
            <polygon class="st9" points="259.5,441.4 260.3,403.3 285.7,402.2 285.1,441.3 				"/>
		</g>
        <path class="st7" d="M302.8,446l-1.1,0 M256.2,445.8l45.5,0.2 M302.8,446l1.3-93.1 M304,352.8l-1-0.1"/>
        <path class="st7" d="M258,357.2l-1.8,88.6 M303,352.7l-45,4.4"/>
	</g>

        <g>
		<polygon class="st7" points="304.4,324.3 259.5,330.1 258.5,330 303.4,324.2 			"/>
            <g>
			<polygon class="st7" points="304.4,324.3 303.4,324.2 304.7,233.8 305.7,234 				"/>
                <path class="st7" d="M303.4,324.2l-44.9,5.8l1.7-86l44.5-10.1L303.4,324.2z M301.3,237.7L291,240l-1.3,81.5l10.3-1.4
				L301.3,237.7z M262.5,285.6l25.2-4.5l0.6-40.4l-25,5.6L262.5,285.6z M262.5,288.4l-0.7,36.9l25.3-3.4l0.6-38L262.5,288.4z"/>
		</g>
            <g>
			<polygon class="st9" points="291,240 301.3,237.7 300.1,320.1 289.7,321.5 				"/>
                <polygon class="st9" points="287.7,281.1 262.5,285.6 263.3,246.3 288.3,240.7 				"/>
                <polygon class="st9" points="261.8,325.3 262.5,288.4 287.7,283.9 287,321.9 				"/>
		</g>
            <line class="st7" x1="259.5" y1="330.1" x2="304.4" y2="324.3"/>
            <path class="st7" d="M304.4,324.3l-1-0.1 M258.5,330l44.9-5.8"/>
            <path class="st7" d="M259.5,330.1l-1-0.1 M304.4,324.3l1.2-90.3 M305.7,234l-1-0.2"/>
            <path class="st7" d="M260.2,244l-1.7,86 M304.7,233.8L260.2,244"/>
	</g>
</g>


    <g>
	<g>
		<g>
			<g>
				<polygon class="st2" points="377.4,357.4 368.1,356.7 445.6,350.1 642.5,367.2 633.2,367.8 629.3,368 626.2,367.5 624.6,367.6
					621.5,367.1 616.9,367.4 616.9,368.7 567.1,371.6 550.8,370.4 550.6,361.1 546.9,360.8 545,360.9 541.3,360.3 536.6,360.6
					536.7,369.3 456.3,363.3 456.2,353.1 451.8,352.7 449.5,352.9 445,352.1 440.2,352.5 440.2,362.1 				"/>
                <polygon class="st3" points="368.1,356.7 368.2,341 445.5,333.3 445.6,350.1 				"/>
                <g>
					<polygon class="st3" points="368.2,341 377.4,333 399.8,313.6 445.5,333.3 					"/>
                    <polygon class="st3" points="632.7,350.9 642.1,353.5 445.5,333.3 399.8,313.6 566.3,333 					"/>
				</g>
                <polygon class="st3" points="642.1,353.5 642.5,367.2 445.6,350.1 445.5,333.3 				"/>
			</g>


            <g>
				<polygon class="st0" points="637.9,523.5 638.2,533.9 627.4,533.1 558,540.4 558.1,549.8 446.3,562.6 446.2,541.7 				"/>
                <polygon class="st4" points="630.8,523.8 634,523.5 637.9,523.5 446.2,541.7 376.9,535.3 441.2,529.9 441.2,540.8 446.1,541.3
					450.8,540.8 453.1,540.6 457.6,540.2 457.6,528.6 539.5,521.7 539.6,531.6 544.5,532 548.3,531.6 550.2,531.4 554,531.1
					553.8,520.5 570.4,519.1 621.2,522.4 621.3,523.9 626,524.2 629.2,523.9 				"/>
                <polygon class="st4" points="446.3,562.6 376.9,554.9 376.9,535.3 446.2,541.7 				"/>
                <polygon class="st0" points="642.2,542.9 573,551.1 572.8,541.7 641.9,534.2 642.1,540.1 				"/>
                <polygon class="st4" points="641.9,534.2 572.8,541.7 558,540.4 627.4,533.1 638.2,533.9 				"/>
                <polygon class="st4" points="572.8,541.7 573,551.1 558.1,549.8 558,540.4 				"/>
			</g>

            <line class="st45" x1="106.5" y1="524.8" x2="108.8" y2="462.6"/>
		</g>
	</g>


        <g>
		<g>
			<g>
				<polygon class="st9" points="714.5,267.4 715.8,299.6 707.7,298.1 706.5,265.6 				"/>
                <polygon class="st9" points="704.1,265 706.1,318.8 697.3,317.4 695.3,263 				"/>
                <polygon class="st9" points="707.9,303.2 716,304.7 716.7,320.5 708.5,319.2 				"/>
			</g>
            <g>
				<polygon class="st7" points="718.6,324.2 714.9,324.5 691.9,321 695.6,320.6 				"/>
                <path class="st7" d="M693.3,259.1l22.9,5.3l2.4,59.8l-23-3.6L693.3,259.1z M715.8,299.6l-1.3-32.2l-8.1-1.9l1.3,32.5
					L715.8,299.6z M706.1,318.8l-2.1-53.8l-8.8-2l2.1,54.4L706.1,318.8z M716,304.7l-8.1-1.5l0.6,16l8.1,1.3L716,304.7z"/>
                <polygon class="st7" points="693.3,259.1 695.6,320.6 691.9,321 689.6,259.6 				"/>
			</g>
		</g>
            <g>
			<g>
				<polygon class="st9" points="475.2,241.2 475.5,278.3 463.1,276.3 462.8,238.7 				"/>
                <polygon class="st9" points="459.2,238 459.6,300.3 446.1,298.4 445.8,235.3 				"/>
                <polygon class="st9" points="463.1,282.3 475.5,284.2 475.7,302.5 463.3,300.8 				"/>
			</g>
                <g>
				<polygon class="st7" points="478.4,306.8 474.9,307.3 439.7,302.5 443.2,302.1 				"/>
                    <path class="st7" d="M442.9,230.7l34.9,7.1l0.6,69l-35.2-4.8L442.9,230.7z M475.5,278.3l-0.3-37.1l-12.3-2.5l0.3,37.6
					L475.5,278.3z M459.6,300.3l-0.4-62.3l-13.4-2.7l0.3,63.1L459.6,300.3z M475.5,284.2l-12.4-1.9l0.1,18.5l12.4,1.7L475.5,284.2z"
                    />
                    <polygon class="st7" points="442.9,230.7 443.2,302.1 439.7,302.5 439.4,231.4 				"/>
			</g>
		</g>
            <g>
			<g>
				<polygon class="st9" points="678.5,259.2 679.7,292.8 670.8,291.2 669.6,257.2 				"/>
                <polygon class="st9" points="667,256.6 668.9,312.9 659.2,311.3 657.3,254.4 				"/>
                <polygon class="st9" points="671,296.6 679.9,298.2 680.5,314.7 671.5,313.3 				"/>
			</g>
                <g>
				<polygon class="st7" points="682.5,318.6 678.7,319 653.5,315.1 657.3,314.7 				"/>
                    <path class="st7" d="M655.2,250.3l25.1,5.8l2.2,62.5l-25.2-3.9L655.2,250.3z M679.7,292.8l-1.2-33.6l-8.9-2l1.2,34L679.7,292.8
					z M668.9,312.9l-1.9-56.3l-9.7-2.2l1.9,57L668.9,312.9z M679.9,298.2l-8.9-1.6l0.6,16.7l8.9,1.4L679.9,298.2z"/>
                    <polygon class="st7" points="655.2,250.3 657.3,314.7 653.5,315.1 651.4,250.8 				"/>
			</g>
		</g>
            <g>
			<g>
				<polygon class="st7" points="190.5,445.5 189.5,445.5 191.8,363.7 192.8,363.7 				"/>
                <path class="st7" d="M189.5,445.5l-35.2-0.1l2.6-78.3l34.9-3.4L189.5,445.5z M189.1,366.8l-8,0.8l-2.2,73.9l8.1,0L189.1,366.8z
					 M158.1,405.4l19.8-1l1.1-36.7l-19.7,1.9L158.1,405.4z M158,407.9l-1.1,33.6l19.8,0l1-34.4L158,407.9z"/>
			</g>
                <g>
				<polygon class="st9" points="181.1,367.5 189.1,366.8 187,441.5 178.9,441.5 				"/>
                    <polygon class="st9" points="177.9,404.4 158.1,405.4 159.3,369.6 179,367.7 				"/>
                    <polygon class="st9" points="156.9,441.5 158,407.9 177.8,407 176.8,441.5 				"/>
			</g>
                <path class="st7" d="M190.5,445.5h-1 M154.3,445.4l35.2,0.1 M190.5,445.5l2.3-81.8 M192.8,363.7l-1-0.1"/>
                <path class="st7" d="M156.9,367.1l-2.6,78.3 M191.8,363.7l-34.9,3.4"/>
		</g>

            <g>
			<g>
				<polygon class="st9" points="683,387.7 684.3,422.5 675.3,422.3 674.1,387.1 				"/>
                <polygon class="st9" points="671.4,386.9 673.4,445.2 663.6,445.2 661.6,386.3 				"/>
                <polygon class="st9" points="675.5,427.9 684.5,428.1 685.1,445.2 676.1,445.2 				"/>
			</g>
                <g>
				<path class="st7" d="M659.5,382.4l25.4,1.9l2.3,64.6l-25.5,0.2L659.5,382.4z M684.3,422.5l-1.2-34.8l-9-0.6l1.2,35.2
					L684.3,422.5z M673.4,445.2l-2-58.3l-9.8-0.7l1.9,59L673.4,445.2z M684.5,428.1l-9-0.2l0.6,17.3l9,0L684.5,428.1z"/>
                    <polygon class="st7" points="659.5,382.4 661.6,449.1 657.7,449 655.6,382.5 				"/>
			</g>
                <line class="st7" x1="657.7" y1="449" x2="661.6" y2="449.1"/>
		</g>
            <g>
			<polygon class="st9" points="546.5,262.7 547.4,310.4 531.2,308.1 530.4,259.6 			"/>
                <g>
				<path class="st7" d="M528.9,256.4l19,3.7l1,53.4l-19.2-2.6L528.9,256.4z M547.4,310.4l-0.9-47.7l-16.1-3.1l0.8,48.5
					L547.4,310.4z"/>
                    <polygon class="st8" points="524.1,314 523.2,254 527.4,253.3 528.3,313.6 				"/>
                    <polygon class="st8" points="524.1,314 528.3,313.6 550.4,316.6 546.2,317 				"/>
                    <path class="st8" d="M528.3,313.6l-0.9-60.3l21.9,4.3l1.1,58.9L528.3,313.6z M547.9,260.2l-19-3.7l0.9,54.4l19.2,2.6
					L547.9,260.2z"/>
			</g>
                <line class="st7" x1="523.2" y1="254" x2="524.1" y2="314"/>
                <line class="st7" x1="523.2" y1="254" x2="527.4" y2="253.3"/>
                <path class="st7" d="M549.3,257.6l-21.9-4.3 M546.2,317l4.2-0.5 M550.4,316.6l-1.1-58.9"/>
                <line class="st7" x1="524.1" y1="314" x2="546.2" y2="317"/>
		</g>
            <g>
			<g>
				<polygon class="st9" points="719.5,390.2 720.8,423.4 712.6,423.2 711.3,389.7 				"/>
                <polygon class="st9" points="708.9,389.5 711.1,445.1 702.1,445.1 700,388.9 				"/>
                <polygon class="st9" points="712.8,428.6 721,428.7 721.7,445 713.5,445.1 				"/>
			</g>
                <g>
				<path class="st7" d="M698,385.2l23.1,1.7l2.5,61.7l-23.2,0.2L698,385.2z M720.8,423.4l-1.3-33.2l-8.2-0.6l1.3,33.6L720.8,423.4
					z M711.1,445.1l-2.2-55.6l-8.9-0.6l2.1,56.2L711.1,445.1z M721,428.7l-8.2-0.2l0.6,16.5l8.2,0L721,428.7z"/>
                    <polygon class="st7" points="698,385.2 700.4,448.7 696.6,448.7 694.2,385.3 				"/>
			</g>
                <line class="st7" x1="694.2" y1="385.3" x2="698" y2="385.2"/>
                <line class="st7" x1="696.6" y1="448.7" x2="700.4" y2="448.7"/>
		</g>
            <g>
			<polygon class="st7" points="193.5,338.6 158.7,343.1 157.7,343 192.5,338.5 			"/>
                <g>
				<polygon class="st7" points="193.5,338.6 192.5,338.5 194.8,258.9 195.8,259 				"/>
                    <path class="st7" d="M192.5,338.5l-34.9,4.5l2.5-76.3l34.6-7.9L192.5,338.5z M192.1,262.3l-7.9,1.8L182,336l8-1.1L192.1,262.3z
					 M161.4,303.8l19.6-3.5l1.1-35.7l-19.5,4.4L161.4,303.8z M161.3,306.2l-1.1,32.7l19.7-2.6l1-33.5L161.3,306.2z"/>
			</g>
                <g>
				<polygon class="st9" points="184.2,264.1 192.1,262.3 190,334.9 182,336 				"/>
                    <polygon class="st9" points="181,300.2 161.4,303.8 162.6,268.9 182.1,264.5 				"/>
                    <polygon class="st9" points="160.3,338.9 161.3,306.2 180.9,302.8 179.9,336.3 				"/>
			</g>
                <line class="st7" x1="158.7" y1="343.1" x2="193.5" y2="338.6"/>
                <path class="st7" d="M193.5,338.6l-1-0.1 M157.7,343l34.9-4.5"/>
                <path class="st7" d="M158.7,343.1l-1-0.1 M193.5,338.6l2.2-79.6 M195.8,259l-1-0.1"/>
                <path class="st7" d="M160.2,266.8l-2.5,76.3 M194.8,258.9l-34.6,7.9"/>
		</g>
            <g>
			<g>
				<polygon class="st9" points="476.4,380.8 476.7,419.4 464.1,419.1 463.8,380.1 				"/>
                <polygon class="st9" points="460.1,379.8 460.6,444.5 446.7,444.5 446.4,379 				"/>
                <polygon class="st9" points="464.1,425.3 476.8,425.5 476.9,444.4 464.3,444.5 				"/>
			</g>
                <g>
				<path class="st7" d="M443.5,374.6L479,377l0.6,71.6l-35.8,0.2L443.5,374.6z M476.7,419.4l-0.3-38.5l-12.5-0.8l0.3,39
					L476.7,419.4z M460.6,444.5l-0.4-64.7l-13.7-0.8l0.3,65.5L460.6,444.5z M476.8,425.5l-12.6-0.2l0.1,19.2l12.6,0L476.8,425.5z"/>
                    <polygon class="st7" points="443.5,374.6 443.9,448.8 440.3,448.7 440,374.9 				"/>
			</g>
                <line class="st7" x1="440.3" y1="448.7" x2="443.9" y2="448.8"/>
		</g>
	</g>


        <g>
		<g>
			<polygon class="st9" points="548.6,392.5 549.3,428.3 538.5,428.1 537.9,391.9 			"/>
            <polygon class="st9" points="534.7,391.8 535.7,451.6 523.9,451.7 523,391.1 			"/>
            <polygon class="st9" points="538.6,433.8 549.4,433.9 549.7,451.5 538.9,451.6 			"/>
		</g>
            <g>
			<path class="st7" d="M527.5,470.6l0.7-0.1L527.5,470.6z"/>
                <path class="st7" d="M526.9,470.5l0.8-0.3L526.9,470.5z"/>
                <path class="st7" d="M526.3,470.2l0.9-0.5L526.3,470.2z"/>
                <polygon class="st7" points="525.9,469.6 525.5,468.8 526.8,468.9 527.2,469.6 			"/>
                <polygon class="st7" points="525.5,468.8 525.2,468 526.6,468 526.8,468.9 			"/>
                <polygon class="st7" points="525.2,468 525.1,467 526.5,467 526.6,468 			"/>
                <polygon class="st7" points="525.1,467 525.2,466.1 526.6,466.1 526.5,467 			"/>
                <polygon class="st7" points="525.2,466.1 525.4,465.2 526.8,465.2 526.6,466.1 			"/>
                <polygon class="st7" points="525.4,465.2 525.8,464.4 527.1,464.4 526.8,465.2 			"/>
                <path class="st7" d="M525.8,464.4l1.8-0.6L525.8,464.4z"/>
                <path class="st7" d="M526.2,463.8l1.9-0.4L526.2,463.8z"/>
                <path class="st7" d="M526.8,463.4l1.9-0.1L526.8,463.4z"/>
                <polygon class="st7" points="531,467.9 530.8,468.8 529.5,468.7 529.7,467.9 			"/>
                <polygon class="st7" points="529.7,467.9 529.5,468.7 529.1,469.5 528.1,470.5 527.2,469.6 526.8,468.9 526.6,468 526.5,467
				526.6,466.1 526.8,465.2 527.1,464.4 528.1,463.5 529,464.3 529.4,465.1 529.7,466 529.7,466.9 			"/>
                <polygon class="st7" points="528.1,470.5 530,470.1 528.2,470.5 			"/>
                <path class="st7" d="M528.6,470.1l1.8-0.6L528.6,470.1z"/>
                <polygon class="st8" points="529.1,469.5 529.5,468.7 530.8,468.8 530.5,469.5 			"/>
                <polygon class="st8" points="529.7,467.9 529.7,466.9 531.1,466.9 531,467.9 			"/>
                <polygon class="st8" points="529.7,466.9 529.7,466 531,466 531.1,466.9 			"/>
                <polygon class="st8" points="529.7,466 529.4,465.1 530.8,465.1 531,466 			"/>
                <polygon class="st8" points="529.4,465.1 529,464.3 530.4,464.4 530.8,465.1 			"/>
                <path class="st8" d="M529,464.3l0.9-0.5L529,464.3z"/>
                <path class="st8" d="M528.6,463.8l0.8-0.3L528.6,463.8z"/>
                <polygon class="st8" points="528.2,470.5 529.4,470.5 528.3,470.6 			"/>
                <path class="st8" d="M529.3,463.4l-1,0L529.3,463.4z"/>
                <path class="st8" d="M520.5,387.1l30.4,1.8l2.5,133.9l-30.9,2.6L520.5,387.1z M526.9,470.5l1.9,0.1l1.1-0.5l0.8-1.4l0.2-0.9
				l0.1-1L531,466l-0.2-0.9l-0.4-0.8l-1-0.9l-1.9-0.1l-1.2,0.5l-0.8,1.4l-0.2,0.9l-0.1,1l0.1,0.9l0.2,0.9l0.4,0.8L526.9,470.5z
				 M549.3,428.3l-0.7-35.7l-10.7-0.6l0.6,36.2L549.3,428.3z M535.7,451.6l-1-59.9l-11.7-0.7l0.9,60.6L535.7,451.6z M549.4,433.9
				l-10.8-0.1l0.3,17.8l10.8-0.1L549.4,433.9z"/>
                <polygon class="st7" points="520.5,387.1 522.5,525.5 518.9,525.2 516.9,387.3 			"/>
		</g>
            <line class="st8" x1="550.9" y1="388.9" x2="520.5" y2="387.1"/>
            <line class="st8" x1="516.9" y1="387.3" x2="520.5" y2="387.1"/>
	</g>
        <g>
		<polygon class="st4" points="449.4,352.8 451.7,352.7 452.8,540.6 450.5,540.4 		"/>
            <polygon class="st4" points="451.7,352.7 456.2,353 456.2,363.2 456.9,467.8 457.3,528.6 457.4,540.2 452.8,540.6 		"/>
            <polygon class="st4" points="536.5,360.6 541.2,360.3 544.2,532 539.4,531.6 539.2,521.7 538.3,465.7 536.6,369.3 		"/>
            <polygon class="st4" points="544.2,532 541.2,360.3 545,360.6 548,531.3 		"/>
            <polygon class="st4" points="626.1,367.4 629.3,367.7 632.1,466.2 633.7,523.2 630.5,523.8 		"/>
            <polygon class="st4" points="616.8,367.3 621.4,367.1 625.8,524.2 621,523.9 621,522.4 619.5,466 616.8,368.7 		"/>
            <polygon class="st4" points="625.8,524.2 621.4,367.1 624.6,367.3 629,523.7 		"/>
            <polygon class="st4" points="624.6,367.5 626.1,367.4 630.5,523.8 629,523.7 		"/>
            <polygon class="st4" points="546.8,360.7 550.5,361 550.7,370.3 552.5,465.4 553.5,520.5 553.7,531.1 549.9,531.4 		"/>
            <polygon class="st4" points="545,360.9 546.8,360.7 549.9,531.4 548,531.3 		"/>
            <polygon class="st4" points="450.5,540.8 445.9,541.3 444.9,352.1 449.4,352.5 450.5,540.4 		"/>
            <polygon class="st4" points="444.9,352.1 445.9,541.3 441,540.8 440.9,529.9 440.6,468.2 440.2,362 440.1,352.5 		"/>
            <path class="st4" d="M624.6,367.5l1.6-0.1 M546.8,360.7l3.7,0.3"/>
            <line class="st4" x1="621.4" y1="367.1" x2="624.6" y2="367.3"/>
	</g>
</g>
</svg>
