<?xml version="1.0" encoding="utf-8"?>
<!-- Generator: Adobe Illustrator 25.0.1, SVG Export Plug-In . SVG Version: 6.00 Build 0)  -->
<svg version="1.1" id="katman_1" xmlns="http://www.w3.org/2000/svg" x="0px" y="0px"
     viewBox="0 0 841.9 595.3" style="enable-background:new 0 0 841.9 595.3;" xml:space="preserve">
<style type="text/css">
	.st0{fill:#8F6645;}
	.st1{fill:#EEEEEE;}
	.st2{fill:#DDDDDD;}
	.st3{fill:#3D3A37;}
	.st4{fill:#C4C4C4;}
	.st5{fill:#3D3A37;}
	.st6{fill:#000000;}
	.st7{fill:#FFFFFF;}
	.st8{fill:#888888;}
	.st9{fill:#7884AF;}
</style>


    <g id="body">
	<polygon class="st4" points="244.3,283.9 175.7,280.2 171.4,477.1 241.3,469.5 			"/>
        <polygon class="st0" points="261.5,282.4 244.3,283.9 241.3,469.5 327.6,484.3 329.5,276.6 			"/>
        <polygon class="st0" points="175.7,280.2 98.3,287.9 98.3,289.3 98.1,293.9 98.1,296.3 93.4,461.4 171.4,477.1 			"/>
        <polygon class="st4" points="497.5,486.7 774.4,442.6 770.5,298.5 770.5,297.1 496.5,275.5 			"/>
        <polygon class="st0" points="497.5,486.7 496.5,275.5 408.5,281.8 408,473.8 			"/>
        <polygon class="st4" points="408.5,281.8 405,281.6 329.5,276.6 327.6,484.3 408,473.8 			"/>
</g>


    <g id="roof">
	<g>
		<polygon class="st2" points="175.7,279.9 244.3,283.7 261.4,282.2 139,275.3 39.7,286.5 96.1,289 98.2,289.1 98.2,287.7 			"/>
        <polygon class="st2" points="408.5,281.6 496.5,275.3 770.4,296.9 770.5,298.3 805.7,296.9 520.2,273 404.9,281.3 			"/>
        <polygon class="st2" points="79,295.4 98,296.1 98.1,293.7 			"/>
        <polygon class="st2" points="79,295.4 98.1,293.7 98.2,289.1 96.1,289 			"/>
        <polygon class="st3" points="189.4,226.2 39.7,286.5 139,275.3 			"/>
        <polygon class="st3" points="189.4,226.2 139,275.3 261.4,282.2 289.2,236.2 263.1,233.5 248.4,232.1 			"/>
        <polygon class="st3" points="261.4,282.2 329.4,276.4 373.3,185.4 289.2,236.2 			"/>
        <polygon class="st3" points="329.4,276.4 404.9,281.3 425.8,193.7 400,189.6 373.3,185.4 			"/>
        <polygon class="st3" points="404.9,281.3 520.2,273 495.3,172.2 402,188.8 425.8,193.7 			"/>
        <polygon class="st3" points="495.3,172.2 520.2,273 805.7,296.9 			"/>
        <polygon class="st3" points="373.3,185.4 248.4,232.1 263.1,233.5 			"/>
        <polygon class="st3" points="289.2,236.2 373.3,185.4 263.1,233.5 			"/>
	</g>
</g>


    <g id="left-window">
	<polygon class="st9" points="725.9,332.8 705.3,332.4 706.1,370.3 726.8,369.5 			"/>
        <polygon class="st9" points="731.1,381 732,415.7 750.2,413.7 749.3,380 			"/>
        <polygon class="st9" points="707.2,418.3 727.9,416.1 727.1,381.2 706.4,382.3 			"/>
        <path class="st7" d="M754.2,421.5l-51.2,6.2l-2.2-104l51,1.7L754.2,421.5z M706.1,370.3l20.6-0.7l-0.8-36.7l-20.6-0.4
			L706.1,370.3z M750.2,413.7l-0.8-33.8l-18.2,1l0.8,34.7L750.2,413.7z M727.1,381.2l-20.7,1.1l0.8,36l20.7-2.2L727.1,381.2z
			 M730.9,369.4l18.2-0.7l-0.9-35.5l-18.1-0.4L730.9,369.4z"/>
        <polygon class="st8" points="691.7,323.8 693.8,427 703,427.6 700.8,323.6 			"/>
        <polygon class="st9" points="748.1,333.2 730,332.9 730.9,369.4 749,368.7 			"/>
</g>


    <g id="chimney">
	<polygon class="st5" points="427.3,108.8 424,108.2 425.9,109.8 429.1,110.4 			"/>
        <polygon class="st5" points="424,119.7 427.3,120.2 429.1,118 425.9,117.5 			"/>
        <polygon class="st8" points="393.7,119 400.2,121.4 399.2,120.1 406.7,118.7 406.7,119.9 406.4,191.3 411.3,190.7 411.6,117.8
			420.4,116.2 421.4,117.2 424,119.7 425.9,117.5 422.2,114.1 425.9,109.8 424,108.2 420.4,112.7 403.5,115.9 399.2,116.7
			400.7,114.8 			"/>
        <polygon class="st5" points="406.7,118.7 399.2,120.1 402.4,120.7 406.7,119.9 			"/>
        <polygon class="st5" points="399.2,120.1 400.2,121.4 403.5,121.9 402.4,120.7 			"/>
        <polygon class="st5" points="400.7,114.8 399.2,116.7 403.5,115.9 403.9,115.4 			"/>
        <polygon class="st5" points="425.9,109.8 422.2,114.1 425.5,114.7 429.1,110.4 			"/>
        <polygon class="st5" points="422.2,114.1 425.9,117.5 429.1,118 425.5,114.7 			"/>
        <polygon class="st5" points="420.4,116.2 411.6,117.8 414.8,118.4 421.4,117.2 			"/>
        <polygon class="st5" points="411.6,117.8 411.3,190.7 414.6,191.1 414.8,118.4 			"/>
</g>


    <g>
	<g>
		<g>
			<path class="st7" d="M641.8,435l-72.2,8.7l-1.3-124.4l71.7,2.3L641.8,435z M575.1,375l29.2-1.1l-0.6-43.6l-29.2-0.6L575.1,375z
				 M636.3,425.9l-0.6-39.8l-25.4,1.4l0.6,41.2L636.3,425.9z M604.5,387.8l-29.3,1.6l0.5,43.1l29.4-3.1L604.5,387.8z M610.1,373.7
				l25.4-0.9l-0.7-41.8l-25.3-0.5L610.1,373.7z"/>
            <polygon class="st9" points="603.8,330.4 574.6,329.8 575.1,375 604.4,374 			"/>
            <polygon class="st9" points="610.3,387.5 610.9,428.7 636.3,425.9 635.7,386.1 			"/>
            <polygon class="st9" points="575.7,432.4 605.1,429.3 604.5,387.8 575.3,389.4 			"/>
            <polygon class="st8" points="558.7,319.5 559.8,442.8 569.6,443.7 568.3,319.3 			"/>
            <polygon class="st9" points="634.8,331 609.5,330.5 610.1,373.7 635.5,372.8 			"/>
		</g>
        <g>
			<polygon class="st9" points="112.4,359.7 131.5,360.2 131.9,350 131.3,344 129.9,338.8 127.8,334.8 125.3,332.2 122.5,331.4
				119.7,332.3 117.1,334.9 115,338.9 113.4,344.1 112.5,349.8 			"/>
            <polygon class="st9" points="118,458 120.2,372 109.6,371.5 107.3,456 			"/>
            <polygon class="st9" points="132.3,461.1 134.5,372.1 123.8,371.6 121.6,459 			"/>
            <g>
				<path class="st8" d="M109.3,312.5l28.8-1.5l-3.9,160.2l-29-5.9L109.3,312.5z M131.9,350l-0.6-6l-1.4-5.2l-2-4.1l-2.5-2.5
					l-2.8-0.8l-2.8,0.9l-2.6,2.6l-2.2,4l-1.6,5.1l-0.9,5.8l-0.1,9.9l19.1,0.5L131.9,350z M109.6,371.5l-2.2,84.4l10.7,2l2.2-86
					L109.6,371.5z M123.8,371.6l-2.2,87.4l10.8,2l2.2-89L123.8,371.6z M132.4,360.9l-2.4,0l-0.2,8.3l2.4,0.1l2.5,0l0.2-8.4
					L132.4,360.9z"/>
                <polygon class="st7" points="138.1,311 134.2,471.2 139.9,470.6 143.7,311.1 				"/>
                <polygon class="st7" points="134.6,369.3 134.8,360.9 132.3,361 132.1,369.4 				"/>
                <polygon class="st7" points="132.1,369.4 132.3,361 129.9,360.9 129.7,369.3 				"/>
			</g>
		</g>
        <g>
			<g>
				<polygon class="st8" points="478.2,298 473.5,297.7 473.9,443.1 478.6,442.6 				"/>
                <path class="st7" d="M473.9,443.1l-53.3-5.4l0.2-137.3l52.6-2.7L473.9,443.1z M468.2,306.1l-42.5,1.8l-0.2,122.4l43,4
					L468.2,306.1z"/>
			</g>
            <polygon class="st9" points="425.5,430.2 468.5,434.2 468.2,306.1 425.7,307.9 			"/>
		</g>
	</g>
</g>
</svg>
