<?xml version="1.0" encoding="utf-8"?>
<!-- Generator: Adobe Illustrator 25.0.1, SVG Export Plug-In . SVG Version: 6.00 Build 0)  -->
<svg version="1.1" id="katman_1" xmlns="http://www.w3.org/2000/svg" x="0px" y="0px"
     viewBox="0 0 841.9 595.3" style="enable-background:new 0 0 841.9 595.3;" xml:space="preserve">
<style type="text/css">
	.st0{fill:#8F6645;}
	.st1{fill:#EEEEEE;}
	.st2{fill:#DDDDDD;}
	.st3{fill:#3D3A37;}
	.st4{fill:#C4C4C4;}
	.st5{fill:#3D3A37;}
	.st6{fill:#000000;}
	.st7{fill:#FFFFFF;}
	.st8{fill:#888888;}
	.st9{fill:#7884AF;}
</style>


    <g id="body">
	<polygon class="st0" points="441.5,253.2 344.9,247 344.2,460.9 441.8,448.3 			"/>
        <polygon class="st4" points="344.9,247 58.7,267.3 58.7,268.7 56,419.4 344.2,460.9 			"/>
        <polygon class="st4" points="521.3,248.5 441.5,253.2 441.8,448.3 522.4,457.9 			"/>
        <polygon class="st0" points="610.2,255.1 521.3,248.5 522.4,457.9 612,444.4 			"/>
        <polygon class="st0" points="762.2,258.8 678.8,251.7 681.5,451.4 765.3,436.8 762.2,260.5 			"/>
        <polygon class="st4" points="678.8,251.7 610.2,255.1 612,444.4 681.5,451.4 			"/>
</g>


    <g id="roof">
	<g>
		<polygon class="st2" points="344.6,246.9 441.3,253.1 521,248.4 609.9,255 678.5,251.6 761.9,258.7 761.9,260.4 823.8,257.9
			716.7,247.7 616.6,252.8 522.4,245.5 448.9,250 348.4,243.2 24.3,267.3 58.4,268.5 58.4,267.2 			"/>
        <polygon class="st3" points="349.4,136.1 24.3,267.3 348.4,243.2 			"/>
        <polygon class="st3" points="349.4,136.1 348.4,243.2 448.9,250 			"/>
        <polygon class="st3" points="448.9,250 522.4,245.5 476.8,150.2 452,153.9 422,158.3 			"/>
        <polygon class="st3" points="522.4,245.5 616.6,252.8 476.8,150.2 			"/>
        <polygon class="st3" points="616.6,252.8 716.7,247.7 670.8,195.8 602.3,202.1 569.4,205.2 			"/>
        <polygon class="st3" points="670.8,195.8 716.7,247.7 823.8,257.9 			"/>
        <polygon class="st3" points="452,153.9 448.3,152.4 349.4,136.1 422,158.3 			"/>
        <polygon class="st3" points="448.9,250 422,158.3 349.4,136.1 			"/>
        <polygon class="st3" points="616.6,252.8 569.4,205.2 476.8,150.2 			"/>
        <polygon class="st3" points="602.3,202.1 476.8,150.2 569.4,205.2 			"/>
	</g>
</g>


    <g id="right-window">
	<polygon class="st9" points="143.1,352.7 110.1,351.4 109.4,394.9 142.4,398.3 			"/>
        <polygon class="st9" points="110.3,338.3 143.2,339.1 143.9,294 111,295.2 			"/>
        <polygon class="st9" points="233.4,356.4 232.9,407.5 275.2,411.7 275.6,358.2 			"/>
        <g>
			<path class="st7" d="M285.6,430.1L102.3,408l2-126.2l182.3-10.1L285.6,430.1z M109.4,394.9l33,3.4l0.6-45.6l-33-1.4
				L109.4,394.9z M143.9,294l-32.9,1.2l-0.7,43.2l33,0.8L143.9,294z M275.2,411.7l0.4-53.6l-42.2-1.7l-0.5,51L275.2,411.7z
				 M147.6,398.8l78.8,8l0.5-50.6l-78.6-3.2L147.6,398.8z M275.7,342.2l0.4-53l-42.1,1.5l-0.5,50.5L275.7,342.2z M148.4,339.2
				L227,341l0.5-50.1l-78.5,2.9L148.4,339.2z"/>
            <polygon class="st8" points="286.7,271.7 285.6,430.1 289.5,429.8 290.5,271.9 				"/>
		</g>

        <polygon class="st9" points="226.9,356.2 148.3,352.9 147.6,398.8 226.4,406.8 			"/>
        <polygon class="st9" points="234,290.7 233.5,341.2 275.7,342.2 276.1,289.1 			"/>
        <polygon class="st9" points="227.5,290.9 149.1,293.8 148.4,339.2 227,341 			"/>
</g>


    <g id="chimney">
	<polygon class="st8" points="402.2,157.6 402.2,52.2 398.9,52.9 398.8,154.7 		"/>
        <polygon class="st8" points="402.2,52.2 402.2,157.6 407.6,158.3 407.6,55 407.6,53.4 417.1,55.6 421,62.3 422.9,60.2
		419.1,53.6 422.9,49.4 420.9,46.2 417.1,50.7 414.9,50.1 393.7,45.1 395.3,43.1 387.2,45.4 394.8,52.6 394.5,51.9 393.7,50.2
		"/>
        <polygon class="st5" points="398.9,52.9 402.2,52.2 393.7,50.2 394.5,51.9 		"/>
        <polygon class="st5" points="420.9,46.2 417.6,47 414.9,50.1 417.1,50.7 		"/>
        <polygon class="st5" points="421,62.3 417.1,55.6 413.8,56.4 417.6,63.1 		"/>
        <polygon class="st5" points="413.8,56.4 417.1,55.6 407.6,53.4 407.6,55 		"/>
        <polygon class="st5" points="394.8,52.6 387.2,45.4 383.9,46.2 391.5,53.4 		"/>
        <polygon class="st5" points="387.2,45.4 395.3,43.1 392,43.9 383.9,46.2 		"/>
</g>


    <g>
	<g>
		<g>
			<polygon class="st8" points="737.9,338 735.6,338 737.9,338.1 740.2,338 			"/>
            <g>
				<path class="st8" d="M709.2,289.3l29.9,1.4l0.8,47.3l-2,0l-2.4,0.1l0.1,8l2.3,0l2-0.1l1.6,95.5l-30.1,5.3L709.2,289.3z
					 M734.6,327.7l-0.8-5.7l-1.6-5.1l-2.2-4l-2.7-2.6l-2.9-0.9l-2.9,0.8l-2.6,2.5l-2.2,4l-1.5,5.2l-0.7,5.9l0.3,10l19.9-0.5
					L734.6,327.7z M712.2,350.1l1.3,86.4l11.6-1.9l-1.3-85L712.2,350.1z M727.4,349l1.4,85.5l10.7-1.7l-1.4-84.1L727.4,349z"/>
                <polygon class="st8" points="711.6,446.8 709.2,289.3 703.8,289.5 706.1,446.3 				"/>
                <polygon class="st7" points="735.6,338 735.7,346 738,346 737.9,338.1 				"/>
                <polygon class="st7" points="740.4,346 740.2,338 737.9,338.1 738,346 740,346 				"/>
			</g>
            <g>
				<polygon class="st9" points="714.8,337.9 734.7,337.4 734.6,327.7 733.8,321.9 732.2,316.9 730,312.9 727.3,310.3 724.4,309.4
					721.5,310.2 718.9,312.8 716.7,316.8 715.2,321.9 714.5,327.8 				"/>
                <polygon class="st9" points="725,434.7 723.7,349.7 712.2,350.1 713.5,436.6 				"/>
                <polygon class="st9" points="739.5,432.7 738.1,348.6 727.4,349 728.8,434.5 				"/>
			</g>
		</g>
        <g>
			<g>
				<polygon class="st7" points="376.5,278.6 371.9,278.8 371.6,421 376.2,421.5 				"/>
                <path class="st7" d="M429.1,416.4l-52.8,5l0.3-142.8l52.4,2.1L429.1,416.4z M424.2,288.3l-42.4-1.4l-0.2,126l42.7-3.79					L424.2,288.3z"/>
			</g>
            <polygon class="st9" points="381.6,412.8 424.2,409.1 424.2,288.3 381.8,286.8 			"/>
		</g>
	</g>
</g>
</svg>
