<?xml version="1.0" encoding="utf-8"?>
<!-- Generator: Adobe Illustrator 25.0.1, SVG Export Plug-In . SVG Version: 6.00 Build 0)  -->
<svg version="1.1" id="katman_1" xmlns="http://www.w3.org/2000/svg" x="0px" y="0px"
     viewBox="0 0 841.9 595.3" style="enable-background:new 0 0 841.9 595.3;" xml:space="preserve">
<style type="text/css">
	.st0{fill:#8F6645;}
	.st1{fill:#EEEEEE;}
	.st2{fill:#DDDDDD;}
	.st3{fill:#3D3A37;}
	.st4{fill:#C4C4C4;}
	.st5{fill:#3D3A37;}
	.st6{fill:#000000;}
	.st7{fill:#FFFFFF;}
	.st8{fill:#888888;}
	.st9{fill:#7884AF;}
</style>

    <g id="chimney">
	<polygon class="st8" points="368.9,74.4 365.8,75.1 363.9,77.4 366.9,76.7 			"/>
        <polygon class="st8" points="365.8,90.8 368.9,90.2 366.9,87.3 363.9,87.9 			"/>
        <polygon class="st8" points="372.7,80.4 368.9,74.4 366.9,76.7 370.8,82.5 366.9,87.3 368.9,90.2 371.9,86.3 372.7,85.2
			381.9,86.9 381.9,142.3 387,143 387,89.1 387,87.9 394.8,89.3 393.8,91.1 400.6,87.4 393.3,82.1 394.8,84.6 390.9,83.9 			"/>
        <polygon class="st5" points="387,89.1 391.7,89.9 394.8,89.3 387,87.9 			"/>
        <polygon class="st5" points="391.7,89.9 390.7,91.7 393.8,91.1 394.8,89.3 			"/>
        <polygon class="st5" points="390.2,82.7 390.9,83.9 394.8,84.6 393.3,82.1 			"/>
        <polygon class="st5" points="363.9,77.4 367.7,83.1 370.8,82.5 366.9,76.7 			"/>
        <polygon class="st5" points="367.7,83.1 363.9,87.9 366.9,87.3 370.8,82.5 			"/>
        <polygon class="st5" points="371.9,86.3 378.8,87.5 381.9,86.9 372.7,85.2 			"/>
        <polygon class="st5" points="378.8,87.5 378.8,141.9 381.9,142.3 381.9,86.9 			"/>
</g>


    <g id="roof">
	<polygon class="st3" points="721.4,264 443.4,151.2 464.1,261.6 			"/>
        <polygon class="st3" points="437.7,151.9 429.2,148.4 387,143 381.9,142.3 378.8,141.9 332.4,135.9 303.4,261.2 404.3,262.1
			401,156.3 			"/>
        <polygon class="st3" points="332.4,135.9 19.9,264.2 303.4,261.2 			"/>
        <polygon class="st3" points="404.3,262.1 464.1,261.6 443.4,151.2 437.7,151.9 401,156.3 			"/>
        <polygon class="st2" points="307.3,261.7 397.3,262.4 457.2,261.9 692.7,264.1 714,264.1 721.4,264 464.1,261.6 404.3,262.1
			303.4,261.2 19.9,264.2 45.4,264.3 		"/>
</g>


    <g id="body">
	<g>
		<polygon class="st4" points="824.1,411.9 820.6,412.7 814,412 814,410.9 776.6,407 776.6,416.1 779.1,416.4 779.1,423.4
			775,424.5 768.2,423.7 768.2,416.6 770.8,416 770.8,406.4 697.6,398.9 694.1,399.6 689.2,399.1 669.2,402.9 669.2,409.6
			666.1,410.2 666.1,443.1 669.2,443.6 669.2,451.9 663.4,453.4 655.9,452.3 655.9,443.9 659.1,443.2 659.1,410.3 655.9,409.9
			655.9,405.4 613.1,413.5 613.1,421 609.8,421.7 609.8,457.1 613.1,457.6 613.1,466.6 			"/>
        <polygon class="st0" points="397.3,262.4 307.3,261.6 307.3,466.9 397.3,450.3 			"/>
        <polygon class="st4" points="457.2,261.9 397.3,262.4 397.3,450.3 457.2,461.6 457.2,443 457.2,434.9 457.2,402.7 457.2,395.3
			457.2,392.1 			"/>
        <polygon class="st0" points="692.7,264.1 457.2,261.9 457.2,392.1 466.9,390.8 606.4,407.2 660.1,397.6 669.2,398.5 669.2,401.7
			669.2,402.9 689.2,399.1 688.8,393.1 691,392.7 691,369.3 688.7,369.1 688.7,363.9 687.2,363.8 687.2,361.4 692.7,360.7
			692.7,264.8 692.7,264.2 			"/>
        <polygon class="st0" points="457.2,443 457.2,461.6 606.4,489.7 606.3,468.4 598.7,467.1 			"/>
        <polygon class="st0" points="606.3,468.4 606.4,489.7 824.1,427.1 824.1,411.9 613.1,466.6 			"/>
        <polygon class="st4" points="307.3,466.9 307.3,261.6 45.4,264.3 45.4,407.3 			"/>
        <polygon class="st4" points="598.7,458.1 602.2,457.2 602.2,421.8 598.7,421.3 598.7,416.2 470.2,440.5 470.2,442.4 463.1,443.8
			457.7,442.9 598.7,467.1 			"/>
        <polygon class="st0" points="470.2,440.5 598.7,416.2 598.7,412.7 470.2,396.9 470.2,402.4 467.1,402.8 467.1,434 470.2,434.5
						"/>
        <polygon class="st0" points="457.1,434.9 460.3,434.3 460.3,403.1 457.1,402.7 			"/>
	</g>
</g>


    <g id="left-window">
	<polygon class="st9" points="202.1,303.9 175.1,302.5 175.1,345.4 202.1,348.3 			"/>
        <polygon class="st9" points="207.8,363 207.8,405.2 235.5,410.1 235.5,366.5 			"/>
        <polygon class="st9" points="175.1,399.4 202.1,404.2 202.1,362.3 175.1,358.9 			"/>
        <g>
			<polygon class="st8" points="169.8,292.5 241.8,295.2 251.8,295 179.5,292.2 				"/>
            <path class="st7" d="M241.8,421.9l-72-13.7l0-115.7l72,2.8L241.8,421.9z M175.1,345.4l27,2.9l0-44.4l-27-1.4V345.4z
				 M235.5,410.1l0-43.7l-27.7-3.5v42.2L235.5,410.1z M202.1,362.3l-27-3.4l0,40.5l27,4.8V362.3z M207.8,348.9l27.7,3v-46.3
				l-27.7-1.4V348.9z"/>
            <polygon class="st8" points="241.8,295.2 241.8,421.9 251.8,420.5 251.8,295 				"/>
		</g>

        <polygon class="st9" points="235.5,305.6 207.8,304.2 207.8,348.9 235.5,351.8 			"/>
</g>


    <g>
	<polygon class="st9" points="83.3,298.1 63.9,297.1 63.9,333.6 83.3,335.7 			"/>
        <polygon class="st9" points="87.5,348 87.5,383.7 107.1,387.2 107.1,350.5 			"/>
        <polygon class="st9" points="63.9,379.5 83.3,383 83.3,347.5 63.9,345.1 			"/>
        <g>
			<polygon class="st7" points="60.1,288.6 111.6,290.6 121,290.4 69.2,288.4 				"/>
            <path class="st7" d="M111.5,397l-51.5-9.8l0-98.5l51.5,2L111.5,397z M63.9,333.6l19.4,2.1l0-37.6l-19.4-1L63.9,333.6z
				 M107.1,387.2v-36.7L87.5,348v35.7L107.1,387.2z M83.3,347.5l-19.4-2.4v34.4l19.4,3.5L83.3,347.5z M87.5,336.1l19.7,2.1l0-38.9
				l-19.7-1V336.1z"/>
            <polygon class="st8" points="111.6,290.6 111.5,397 121,396 121,290.4 				"/>
		</g>
        <polygon class="st9" points="107.1,299.3 87.5,298.3 87.5,336.1 107.1,338.2 			"/>
</g>


    <g>
	<g>
		<g>
			<g>
				<polygon class="st8" points="491.5,384.3 491.5,287.7 488.4,287.6 488.4,383.9 				"/>
                <path class="st7" d="M535,286.5l0,91.9l-43.4,5.8l0-96.6L535,286.5z M515.7,376l16.3-2.1v-82.5l-16.3,0.5L515.7,376z
					 M494.8,378.7l17.7-2.3l0-32.8l-17.7,1.6V378.7z M494.8,292.7v45.7l17.7-1.5v-44.8L494.8,292.7z"/>
			</g>
            <polygon class="st9" points="532,291.5 515.7,292 515.7,376 532,373.9 			"/>
            <polygon class="st9" points="512.4,343.6 494.8,345.2 494.8,378.7 512.4,376.5 			"/>
            <polygon class="st9" points="512.4,336.9 512.4,292.1 494.8,292.7 494.8,338.4 			"/>
		</g>
        <g>
			<polygon class="st8" points="608.4,368.3 611.3,368.6 611.3,359.8 608.4,359.5 			"/>
            <polygon class="st7" points="611.3,368.6 614.2,368.2 614.2,359.4 611.3,359.8 			"/>
            <polygon class="st7" points="614.2,359.4 611.2,359.2 608.4,359.5 611.3,359.8 			"/>
            <polygon class="st7" points="597.8,308.2 561.6,310.2 565.7,310.4 601.9,308.4 			"/>
            <polygon class="st7" points="561.6,310.2 561.6,422.2 565.8,422.8 565.7,310.4 			"/>
            <path class="st8" d="M601.9,308.4l33.1-1.9l0,103.1l-33.1,6.3L601.9,308.4z M605.1,337.3l11.8-1.1v-24.1l-11.8,0.7V337.3z
				 M616.9,408.5v-24.1l-11.8,1.8v24.5L616.9,408.5z M632,358.4l0-47.3l-13.2,0.8l0,24l3.7-0.3v23.9L632,358.4z M621.1,339.5
				l-16,1.6l0,42.3l16-2.4V339.5z M622.5,364.4v19.1l-3.7,0.6l0,24l13.2-2.4l0-42.5L622.5,364.4z"/>
            <path class="st8" d="M601.9,308.4l0,107.6l-36.1,6.9l0-112.4L601.9,308.4z M584.2,389.4l-4.1,0.6l0-25.2l-10.8,1.3v51.1l14.9-2.7
				V389.4z M569.3,361l10.8-1.3v-20.2l4.1-0.4v-25.1l-14.9,0.9L569.3,361z M598.6,387.2l-12.3,1.9v25l12.3-2.3V387.2z M598.6,337.9
				v-24.7l-12.3,0.8v25L598.6,337.9z M598.6,361.2l0-20.5l-16.9,1.6v43.6l16.9-2.5l0.4-13.2v-8.9L598.6,361.2z"/>
            <polygon class="st7" points="597.8,308.2 601.9,308.4 635,306.5 631,306.4 			"/>
            <polygon class="st7" points="577.5,280.6 571.5,288 575.6,288.1 581.6,280.7 			"/>
            <polygon class="st7" points="584.1,275.2 577.5,280.6 581.6,280.7 588.2,275.3 			"/>
            <path class="st8" d="M588.2,275.3l6.9-3.3l6.9-1.1l6.8,1l6.5,3.1l6,5l5.4,6.7l4.6,8.2l3.7,9.5L566,308l4.3-10.7l5.3-9.2l6-7.4
				L588.2,275.3z M571.8,299.3l-2.1,5.3l30.8-1.5l-17.3-20.2l-0.6,0.5l-5.7,7.1L571.8,299.3z M602.8,300.1l15.4-19.5l-3.5-2.9
				l-6.2-2.9l-5.7-0.8V300.1z M619.9,282l-16.4,20.9l28.4-1.4l-1.8-4.8l-4.4-7.9L619.9,282z M585.1,281.3l16,18.8l0-26.1l-5.8,1
				l-6.5,3.2L585.1,281.3z"/>
            <polygon class="st7" points="595,272 602,270.8 597.9,270.8 591,271.9 			"/>
            <polygon class="st7" points="566,308 570.4,297.3 566.3,297.2 561.9,307.9 			"/>
            <polygon class="st7" points="566.3,297.2 570.4,297.3 575.6,288.1 571.5,288 			"/>
            <polygon class="st7" points="591,271.9 584.1,275.2 588.2,275.3 595,272 			"/>
            <path class="st7" d="M605.1,341l16-1.6V381l-16,2.4L605.1,341z M614.2,368.2v-8.8l-3-0.2l-2.9,0.3v8.8l3,0.3L614.2,368.2z"/>
            <polygon class="st7" points="599,370.2 599,361.3 595.8,361.7 595.8,370.6 598.6,370.3 			"/>
            <polygon class="st7" points="598.6,340.7 581.7,342.3 581.7,385.9 598.6,383.4 598.6,370.3 595.8,370.6 592.8,370.4 592.8,361.4
				596,361 598.6,361.2 			"/>
            <polygon class="st8" points="592.8,370.4 595.8,370.6 595.8,361.7 592.8,361.4 			"/>
            <polygon class="st8" points="596,361 592.8,361.4 595.8,361.7 599,361.3 			"/>
            <g>
				<polygon class="st9" points="569.3,417.3 584.2,414.5 584.2,389.4 580.1,390.1 580.1,364.8 569.3,366.2 				"/>
                <polygon class="st9" points="584.2,314.1 569.3,315.1 569.3,361 580.1,359.8 580.1,339.6 584.2,339.2 				"/>
                <polygon class="st9" points="616.9,312.1 605.1,312.8 605.1,337.3 616.9,336.2 				"/>
                <polygon class="st9" points="605.2,386.2 605.2,410.6 616.9,408.5 616.9,384.4 				"/>
                <polygon class="st9" points="622.5,335.7 622.5,359.6 632,358.4 632,311.2 618.8,312 618.8,336 				"/>
                <polygon class="st9" points="586.2,414.1 598.6,411.8 598.6,387.2 586.2,389.1 				"/>
                <polygon class="st9" points="586.2,314 586.2,339 598.6,337.9 598.6,313.2 				"/>
                <polygon class="st9" points="582.5,283.4 576.8,290.5 571.8,299.3 569.6,304.6 600.5,303.1 583.2,282.9 				"/>
                <polygon class="st9" points="608.5,274.8 602.8,274 602.8,300.1 618.2,280.6 614.7,277.7 				"/>
                <polygon class="st9" points="630,296.8 625.6,288.9 620.5,282.5 603.5,302.9 631.9,301.5 				"/>
                <polygon class="st9" points="632,405.7 632,363.2 622.5,364.4 622.5,383.5 618.8,384.1 618.8,408.1 				"/>
                <polygon class="st9" points="595.3,275 588.8,278.2 585.1,281.3 601.1,300.1 601.1,274 				"/>
			</g>
		</g>
        <g>
			<g>
				<polygon class="st4" points="654.4,365.3 654.4,285 651.4,284.9 651.4,365 				"/>
                <path class="st7" d="M684.4,284.1l0,77.1l-30.1,4.1l0-80.3L684.4,284.1z M671.1,358.8l11.3-1.5l0-69.1l-11.3,0.4L671.1,358.8z
					 M656.6,360.7l12.2-1.6v-27.4l-12.2,1.1V360.7z M656.6,289.1l0,38l12.2-1l0-37.4L656.6,289.1z"/>
			</g>
            <polygon class="st9" points="682.4,288.3 671,288.7 671.1,358.8 682.4,357.4 			"/>
            <polygon class="st9" points="668.8,331.7 656.6,332.9 656.6,360.7 668.8,359.1 			"/>
            <polygon class="st9" points="668.8,326.1 668.8,288.7 656.6,289.1 656.6,327.1 			"/>
		</g>
	</g>

        <g>
		<polygon class="st8" points="466.8,390.9 457.1,392.1 606.2,410.1 669.1,398.6 660,397.6 606.2,407.3 		"/>
            <polygon class="st8" points="457.1,434.9 457.1,442.8 463,443.8 463,435.9 		"/>
            <polygon class="st8" points="692.6,360.7 687.1,361.5 811.1,370.5 800.8,372.4 766.5,378.5 774.9,379.2 824,370.2 		"/>
            <polygon class="st8" points="687.1,361.5 687.1,363.8 688.6,364 694,364.4 698,364.7 800.8,372.4 811.1,370.5 		"/>
            <polygon class="st8" points="688.7,393.2 688.7,399.1 694,399.7 694,393.7 		"/>
            <polygon class="st8" points="690.9,392.8 688.7,393.2 694,393.7 698,393 695.8,392.8 693.9,393.4 690.9,393.1 		"/>
            <polygon class="st8" points="688.6,364 688.6,369.2 690.9,369.3 693.9,369.6 694,364.4 		"/>
            <polygon class="st8" points="613,413.5 655.8,405.4 655.8,404.4 613,412.4 		"/>
            <polygon class="st8" points="824,411.8 824,405.3 820.5,406.2 820.5,412.7 823.6,411.9 		"/>
            <polygon class="st8" points="816.3,405 813.9,405.6 820.5,406.2 824,405.3 821.7,405.1 820,405.8 816.3,405.5 		"/>
            <polygon class="st8" points="820,405.8 821.7,405.4 821.7,379.4 820.5,379.6 		"/>
            <polygon class="st8" points="816.3,405.5 820,405.8 820,379.6 816.3,379.3 816.3,405 		"/>
            <polygon class="st8" points="820.5,406.2 813.9,405.6 813.9,410.9 813.9,412.1 820.5,412.7 		"/>
            <polygon class="st8" points="813.9,374.7 813.9,379.1 816.3,379.3 820,379.6 820.5,373.5 		"/>
            <polygon class="st8" points="698,398.9 698,393 694,393.7 694,399.7 697.5,399 		"/>
            <polygon class="st8" points="693.9,393.4 695.8,393.1 695.8,369.3 694,369.6 		"/>
            <polygon class="st8" points="690.9,393.1 693.9,393.4 693.9,369.6 690.9,369.3 690.9,392.8 		"/>
            <polygon class="st8" points="694,364.4 694,369.6 695.8,369.3 698,369 698,364.7 		"/>
            <polygon class="st8" points="779,423.5 779,416.4 774.9,417.5 774.9,424.5 		"/>
            <polygon class="st8" points="770.7,416.1 768.1,416.7 774.9,417.5 779,416.4 776.5,416.2 774.5,417 770.7,416.6 		"/>
            <polygon class="st8" points="774.5,417 776.5,416.5 776.5,407.1 776.5,388.4 774.9,388.7 		"/>
            <polygon class="st8" points="770.7,416.6 774.5,417 774.5,388.6 770.6,388.3 770.6,406.5 770.7,416.1 		"/>
            <polygon class="st8" points="774.9,417.5 768.1,416.7 768.1,423.7 774.9,424.5 		"/>
            <polygon class="st8" points="606.2,410.1 457.1,392.1 457.1,395.2 463,395.9 470.1,396.9 598.6,412.8 606.2,413.7 		"/>
            <path class="st8" d="M463,396.1l-5.9-0.9L463,396.1z"/>
            <polygon class="st8" points="669.1,398.6 606.2,410.1 606.2,413.7 613,412.4 655.8,404.4 663.2,403 669.1,401.7 		"/>
            <polygon class="st8" points="669.1,401.7 663.2,402.8 669.1,401.9 		"/>
            <polygon class="st8" points="824,370.2 774.9,379.2 774.9,381.9 779,381.1 813.9,374.7 820.5,373.5 824,372.7 		"/>
            <polygon class="st8" points="824,372.7 820.5,373.4 824,372.9 		"/>
            <polygon class="st8" points="779,381.1 774.9,381.9 779,381.3 		"/>
            <polygon class="st8" points="774.9,379.2 766.5,378.5 766.5,381.4 768.1,381.5 774.9,381.9 		"/>
            <path class="st8" d="M768.1,381.3l6.8,0.7L768.1,381.3z"/>
            <polygon class="st8" points="669.1,451.9 669.1,443.6 663.3,445.1 663.3,453.5 		"/>
            <polygon class="st8" points="659,443.2 655.8,444 663.3,445.1 669.1,443.6 666,443.2 663.2,444.4 659,443.8 		"/>
            <polygon class="st8" points="663.2,444.4 666,443.7 666,410.3 663.2,410.9 		"/>
            <polygon class="st8" points="659,443.8 663.2,444.4 663.2,410.9 659,410.4 659,443.2 		"/>
            <polygon class="st8" points="663.3,445.1 655.8,444 655.8,452.3 663.3,453.5 		"/>
            <polygon class="st8" points="613,466.7 613,457.7 606.2,459.4 606.2,468.4 		"/>
            <polygon class="st8" points="613,457.7 609.7,457.1 609.7,457.8 606.4,458.6 602.1,457.9 602.1,457.3 598.6,458.1 606.2,459.4
			"/>
            <polygon class="st8" points="606.4,458.6 609.7,457.8 609.7,457.1 609.7,421.7 606.4,422.4 		"/>
            <polygon class="st8" points="602.1,457.9 606.4,458.6 606.4,422.4 602.1,421.9 602.1,457.3 		"/>
            <polygon class="st8" points="606.2,459.4 598.6,458.1 598.6,467.1 606.2,468.4 		"/>
            <polygon class="st8" points="613,412.4 606.2,413.7 606.2,422.4 609.7,421.7 613,421.1 613,413.5 		"/>
            <polygon class="st8" points="606.2,422.4 606.2,413.7 598.6,412.8 598.6,416.3 598.6,421.4 602.1,421.9 		"/>
            <polygon class="st8" points="457.1,434.9 463,435.9 470.1,434.6 467,434.1 463.6,435.3 460.3,434.8 		"/>
            <polygon class="st8" points="463.6,435.3 467,434.7 467,402.9 463.6,403.4 		"/>
            <polygon class="st8" points="460.3,434.8 463.6,435.3 463.6,403.4 463,403.5 460.3,403.1 460.3,434.4 		"/>
            <polygon class="st8" points="470.1,434.6 463,435.9 463,443.8 470.1,442.5 470.1,440.6 		"/>
            <polygon class="st8" points="470.1,402.5 470.1,396.9 463,396.1 463,403.5 463.6,403.4 467,402.9 		"/>
            <polygon class="st8" points="457.1,395.3 457.1,402.7 460.3,403.1 463,403.5 463,396.1 		"/>
            <polygon class="st8" points="820.5,379.6 821.7,379.4 824,378.9 824,372.9 820.5,373.5 		"/>
            <polygon class="st8" points="774.5,388.6 774.9,382.1 768.1,381.5 768.1,388.1 770.6,388.3 		"/>
            <polygon class="st8" points="774.9,388.7 776.5,388.4 779,387.8 779,381.3 774.9,382.1 		"/>
            <polygon class="st8" points="669.1,401.9 663.2,403 663.2,410.9 666,410.3 669.1,409.7 669.1,402.9 		"/>
            <polygon class="st8" points="655.8,410 659,410.4 663.2,410.9 663.2,403 655.8,404.4 655.8,405.4 		"/>
	</g>
</g>
</svg>
