<?xml version="1.0" encoding="utf-8"?>
<!-- Generator: Adobe Illustrator 25.0.1, SVG Export Plug-In . SVG Version: 6.00 Build 0)  -->
<svg version="1.1" id="katman_1" xmlns="http://www.w3.org/2000/svg" x="0px" y="0px"
     viewBox="0 0 841.9 595.3" style="enable-background:new 0 0 841.9 595.3;" xml:space="preserve">
<style type="text/css">
	.st0{fill:#8F6645;}
	.st1{fill:#EEEEEE;}
	.st2{fill:#DDDDDD;}
	.st3{fill:#3D3A37;}
	.st4{fill:#C4C4C4;}
	.st5{fill:#3D3A37;}
	.st6{fill:#000000;}
	.st7{fill:#FFFFFF;}
	.st8{fill:#888888;}
	.st9{fill:#7884AF;}
</style>


    <g id="chimney">
	<polygon class="st8" points="494.4,142 494.3,89.9 497.3,90.6 497.4,141.5 			"/>
        <polygon class="st8" points="489.4,142.8 489.3,92.4 489.3,91 480.5,93 477,99 475.2,97 478.7,91.1 475.2,87.3 477,84.4
			480.5,88.5 482.5,88 502.2,83.6 500.7,81.8 508.2,83.9 501.1,90.4 501.5,89.7 502.2,88.2 494.3,89.9 494.4,142 			"/>
        <polygon class="st5" points="502.2,88.2 501.5,89.7 497.3,90.6 494.3,89.9 			"/>
        <polygon class="st5" points="482.5,88 480.5,88.5 477,84.4 479.9,85.1 			"/>
        <polygon class="st5" points="477,99 480.5,93 483.5,93.6 479.9,99.6 			"/>
        <polygon class="st5" points="489.3,91 489.3,92.4 483.5,93.6 480.5,93 			"/>
        <polygon class="st5" points="501.1,90.4 508.2,83.9 511.1,84.6 504.1,91 			"/>
        <polygon class="st5" points="508.2,83.9 500.7,81.8 503.6,82.5 511.1,84.6 			"/>
</g>


    <g id="roof">
	<polygon class="st2" points="166.4,260 166.4,260.7 156.2,260.4 137.8,259.8 367.3,245.1 424.6,248 522.8,242.4 814,260.7
		782.1,261.6 782.1,260.5 523.7,245.1 436.1,249.8 378.7,247 			"/>
        <polygon class="st3" points="396.5,154.9 411,157 436.9,160.7 424.6,248 367.3,245.1 			"/>
        <polygon class="st3" points="137.8,259.8 396.5,154.9 367.3,245.1 			"/>
        <polygon class="st3" points="436.9,160.7 411,157 416.8,154.7 489.3,142.7 494.4,141.9 497.3,141.4 505.6,140 522.8,242.4
			424.6,248 			"/>
        <polygon class="st3" points="814,260.7 522.8,242.4 505.6,140 			"/>
        <polygon class="st2" points="166.4,262.7 166.3,264.2 148,263.7 			"/>
        <polygon class="st2" points="166.4,260.7 166.4,262.7 148,263.7 156.2,260.4 			"/>
</g>


    <g id="body">
	<g>
		<polygon class="st4" points="48.6,395 71.7,393.3 71.7,394.7 69.3,394.9 69.1,401.4 72.7,402.1 79.1,401.6 79.3,395.1 77,394.7
			77.1,392.9 159.1,387.1 162.1,387.5 166.8,387.2 166.3,412.2 163.4,412.5 163.3,420.2 168.2,421.2 175.2,420.5 175.4,412.7
			172.6,412.2 173.2,388.1 231.6,396.6 231.1,424.1 227.9,424.5 227.7,433 233.8,434.2 241.1,433.3 241.3,424.8 238.2,424.2
			238.6,397.6 365.4,415.9 365.4,417.2 371.8,418.1 376.9,417.6 377.5,417.7 233.8,434.4 42.4,396.3 48.6,395.8 			"/>
        <polygon class="st0" points="377.4,435.4 233.5,454.7 233.8,434.4 377.5,417.7 			"/>
        <polygon class="st0" points="42.4,396.3 233.8,434.4 233.5,454.7 38.8,410.1 39.3,395.6 			"/>
        <polygon class="st4" points="377.5,417.5 377.6,409.9 377.8,379.3 377.8,372.2 377.8,369.3 378.6,247.1 436.1,250 435.7,427.6
			377.4,435.4 377.5,417.7 			"/>
        <polygon class="st0" points="524.6,440.6 435.7,427.6 436.1,250 523.7,245.2 			"/>
        <polygon class="st0" points="377.8,369.3 369,368.5 235.3,377.7 172.8,370.4 165.5,370.8 165.8,358.8 167.8,358.7 167.9,353.7
			169.3,353.6 169.3,351.3 164.4,350.9 166.3,264.4 166.3,262.8 166.3,260.9 166.4,260.1 378.6,247.1 			"/>
        <polygon class="st4" points="782,261.8 785.3,398.4 524.6,440.6 523.7,245.2 782,260.7 			"/>
        <polygon class="st0" points="173.3,381.5 176,381.3 176.2,375.5 228.6,381.9 228.5,389.9 231.7,390.3 231.6,396.6 173.2,388.1
						"/>
        <polygon class="st0" points="238.7,390.3 241.8,390.1 242,382.2 365.7,373.2 365.7,379.1 368.6,379.4 368.4,409.4 365.5,409.7
			365.4,415.9 238.6,397.6 			"/>
        <polygon class="st0" points="374.9,379.5 377.8,379.3 377.6,409.9 374.7,409.6 			"/>
	</g>
</g>


    <g id="right-window">
	<polygon class="st9" points="637.7,389 595.1,394 594.6,343.2 637.1,340.9 			"/>
        <polygon class="st9" points="594,277.9 636.3,278.9 636.9,326.5 594.4,328 			"/>
        <polygon class="st9" points="749.7,334.6 750.6,375.6 722,379 721.2,336.2 			"/>
        <g>
			<path class="st7" d="M757.2,387.8l-172,23.7l-1.3-150l170.8,7.5L757.2,387.8z M595.1,393.9l42.6-5l-0.6-48.1l-42.5,2.4
				L595.1,393.9z M636.2,279l-42.3-1l0.5,50.1l42.5-1.6L636.2,279z M750.7,375.6l-0.9-41.1l-28.6,1.6L722,379L750.7,375.6z
				 M643.7,388.3l73.4-8.7l-0.8-43.2l-73.2,4.1L643.7,388.3z M749.4,322.3l-0.8-40.6l-28.5-0.7l0.8,42.4L749.4,322.3z M642.9,326.3
				l73.2-2.7l-0.8-42.7l-73-1.8L642.9,326.3z"/>
            <polygon class="st8" points="581.6,411.2 580.3,261.7 583.9,261.6 585.3,411.6 				"/>
		</g>
        <polygon class="st9" points="717.1,379.6 643.7,388.2 643.1,340.5 716.3,336.4 			"/>
        <polygon class="st9" points="748.6,281.7 749.5,322.3 720.9,323.4 720.1,281 			"/>
        <polygon class="st9" points="716.1,323.5 642.9,326.2 642.3,279.1 715.3,280.9 			"/>
</g>


    <g>
	<g>
		<g>
			<path class="st7" d="M205.7,280.9l-1.4,73.5l-26.6-2.3l1.5-70.6L205.7,280.9z M192.1,349.5l10.4,0.8l1.2-65.5l-10.4,0.2
				L192.1,349.5z M179.6,348.5l10.4,0.8l0.5-25.1l-10.4-0.4L179.6,348.5z M180.9,285.2l-0.7,33.5l10.4,0.4l0.7-34.1L180.9,285.2z"/>
            <polygon class="st8" points="207.1,354.3 204.4,354.4 205.8,280.9 208.5,280.9 			"/>
            <polygon class="st9" points="202.5,350.4 192.1,349.5 193.3,285 203.7,284.8 			"/>
            <polygon class="st9" points="190,349.3 179.6,348.5 180.1,323.8 190.5,324.3 			"/>
            <polygon class="st9" points="180.3,318.7 180.9,285.2 191.3,285 190.6,319.1 			"/>
		</g>
        <g>
			<polygon class="st8" points="249.6,300.8 220.4,300.6 224.1,300.6 253.3,300.8 			"/>
            <path class="st8" d="M249.5,300.8l31.8,0.2l-1.4,103.5l-31.9-4.7L249.5,300.8z M252,327.6l10.9,0.5l0.3-22.9l-10.8-0.1
				L252,327.6z M262,397.5l0.3-23.2l-10.9-1.2l-0.4,22.8L262,397.5z M277.5,352.3l0.6-46.9l-13.1-0.2l-0.3,23l3.6,0.2l-0.3,23.2
				L277.5,352.3z M266.9,331.8l-14.9-0.7l-0.6,39.3l14.9,1.6L266.9,331.8z M267.8,356.3l-0.3,18.6l-3.6-0.4l-0.3,23.2l13.2,1.8
				l0.6-42.5L267.8,356.3z"/>
            <polygon class="st7" points="281.3,301 285.1,301 283.8,404.1 280,404.5 			"/>
            <path class="st8" d="M249.5,300.8l-1.5,99l-29.3-4.3l1.7-94.9L249.5,300.8z M233.5,371.3l-3.3-0.4l0.4-22.1l-8.3-0.6l-0.8,43.6
				l11.6,1.6L233.5,371.3z M222.3,343.8l8.3,0.6l0.3-17.6l3.3,0.1l0.4-22l-11.6-0.1L222.3,343.8z M245.6,372.4l-10.4-1.1l-0.4,22.3
				l10.4,1.5L245.6,372.4z M246.3,327.4l0.4-22.4l-10.4-0.1l-0.4,22.1L246.3,327.4z M231.5,367.6l14.1,1.4l0.6-39l-14.1-0.7
				L231.5,367.6z"/>
            <polygon class="st7" points="285.1,301 281.3,301 249.6,300.8 253.3,300.8 			"/>
            <polygon class="st7" points="277.6,289.2 273.1,281.1 276.9,281.1 281.4,289.3 			"/>
            <polygon class="st7" points="281.3,298.8 277.6,289.2 281.4,289.3 285.1,298.8 			"/>
            <path class="st8" d="M238.2,270.9l5.8-3.1l6-1.2l6.1,0.7l6,2.7l5.7,4.6l5.2,6.5l4.5,8.2l3.7,9.6l-60.6-0.2l3.4-8.9l4.2-7.7
				l4.8-6.4L238.2,270.9z M225.1,291.5l-1.7,4.4h25L233.7,278l-4.6,6.1L225.1,291.5z M250.5,293.3l14.4-17.9l-3.2-2.7l-5.7-2.6
				l-5.1-0.6L250.5,293.3z M266.5,276.7L251,295.9h27.1l-1.8-4.8l-4.3-7.8L266.5,276.7z M235.7,276.1l13.2,17.1l0.4-23.7l-5,1
				l-5.5,2.9L235.7,276.1z"/>
            <polygon class="st7" points="253.9,266.7 260,267.4 256.2,267.3 250.2,266.6 			"/>
            <polygon class="st7" points="260,267.4 266,270.1 262.2,270 256.2,267.3 			"/>
            <polygon class="st7" points="271.7,274.7 276.9,281.1 273.1,281.1 267.9,274.6 			"/>
            <polygon class="st7" points="266,270.1 271.7,274.7 267.9,274.6 262.2,270 			"/>
            <path class="st7" d="M252,331.3l14.9,0.7l-0.6,40.1l-14.9-1.6L252,331.3z M257.1,357.4l0.1-8.3l-2.6-0.2l-2.8,0.1l-0.1,8.3
				l2.6,0.2L257.1,357.4z"/>
            <polygon class="st8" points="240.8,356.3 240.9,348.2 243.7,348.1 243.6,356.2 			"/>
            <polygon class="st7" points="238.1,356.1 238.3,348 240.9,348.2 240.8,356.3 			"/>
            <polygon class="st8" points="238.3,348 241,347.9 243.7,348.1 240.9,348.2 			"/>
            <polygon class="st7" points="251.8,349 254.5,349.2 254.3,357.5 251.7,357.3 			"/>
            <polygon class="st8" points="254.5,349.2 257.2,349.1 257.1,357.3 254.3,357.5 			"/>
            <polygon class="st8" points="251.8,349 254.6,348.9 257.2,349.1 254.5,349.2 			"/>
            <path class="st7" d="M245.6,368.9l-14.1-1.4l0.6-38.2l14.1,0.7L245.6,368.9z M241.1,347.9l-2.8,0.1l-0.1,8.1l2.6,0.2l2.8-0.1
				l0.1-8.1L241.1,347.9z"/>
            <g>
				<polygon class="st9" points="222.2,348.1 230.6,348.8 230.2,370.8 233.5,371.2 233.1,393.4 221.5,391.8 				"/>
                <polygon class="st9" points="234.2,326.9 230.9,326.8 230.6,344.3 222.3,343.8 223,304.8 234.6,304.9 				"/>
                <polygon class="st9" points="262.9,328.2 252,327.7 252.4,305.1 263.2,305.2 				"/>
                <polygon class="st9" points="262.2,374.3 261.9,397.4 251,395.9 251.3,373.1 				"/>
                <polygon class="st9" points="264.7,328.2 265,305.2 278.1,305.4 277.5,352.3 268,351.6 268.3,328.4 				"/>
                <polygon class="st9" points="235.2,371.4 245.5,372.5 245.2,395.1 234.8,393.6 				"/>

                <polygon class="st9" points="246.6,305 246.2,327.4 235.9,327 236.2,304.9 				"/>
                <polygon class="st9" points="234.2,277.6 248.4,295.9 223.4,296 225.1,291.5 229.1,284.1 233.7,278 				"/>
                <polygon class="st9" points="261.6,272.7 264.9,275.3 250.5,293.3 250.9,269.5 255.9,270.1 				"/>
                <polygon class="st9" points="278.1,295.9 251,295.9 267.1,277.1 272,283.3 276.3,291.1 				"/>
                <polygon class="st9" points="263.7,397.7 264,374.5 267.7,374.8 267.9,356.3 277.4,357 276.8,399.5 				"/>

                <polygon class="st9" points="249.4,269.5 249,293.3 235.8,276.2 238.8,273.4 244.4,270.5 				"/>
			</g>
		</g>
        <g>
			<path class="st7" d="M349,273.4l-0.8,88.8l-38.3-3.4l1-84.6L349,273.4z M330.3,355.9l15.1,1.2l0.7-79.1l-15,0.3L330.3,355.9z
				 M312.6,354.4l14.9,1.2l0.3-30.2l-14.9-0.6L312.6,354.4z M313.5,278.5l-0.5,40.2l14.9,0.5l0.4-40.9L313.5,278.5z"/>
            <polygon class="st8" points="351.1,361.9 348.2,362.1 349,273.3 351.9,273.3 			"/>

            <polygon class="st9" points="345.4,357.1 330.3,355.9 331.1,278.3 346.1,278 			"/>
            <polygon class="st9" points="327.4,355.6 312.5,354.4 312.9,324.8 327.8,325.4 			"/>
            <polygon class="st9" points="313,318.7 313.4,278.6 328.3,278.3 327.8,319.2 			"/>
		</g>
	</g>
        <g>
		<polygon class="st8" points="42.6,390.1 48.8,389.7 48.6,395 48.6,395.8 42.4,396.3 		"/>
            <polygon class="st8" points="234.7,379.3 164.4,370.9 165.5,370.8 172.8,370.4 235.3,377.7 369,368.6 377.8,369.3 		"/>
            <polygon class="st8" points="376.9,417.6 371.8,418.2 371.9,410.6 377.6,410 377.5,417.5 		"/>
            <polygon class="st8" points="52.4,356.4 67.7,358.2 81.7,359.8 73.9,360.2 40.5,356.2 164.4,350.9 169.3,351.4 		"/>
            <polygon class="st8" points="167.9,353.7 162.8,353.9 159.2,354.1 67.7,358.2 52.4,356.4 169.3,351.4 169.3,353.6 		"/>
            <polygon class="st8" points="165.8,358.8 162.7,359 162.8,353.9 167.9,353.7 167.8,358.7 		"/>
            <path class="st8" d="M377.6,417.7l-0.7-0.1L377.6,417.7z"/>
            <polygon class="st8" points="231.1,424.6 234.1,425.2 238.2,424.3 241.3,424.8 234,425.6 227.9,424.5 231.1,424.1 		"/>
            <polygon class="st8" points="231.1,424.1 231.6,396.6 231.7,390.3 234.6,390.7 234.1,425.2 231.1,424.6 		"/>
            <polygon class="st8" points="238.7,390.4 238.6,397.6 238.2,424.7 234.1,425.2 234.6,390.7 		"/>
            <polygon class="st8" points="234,425.6 241.3,424.8 241.1,433.4 233.8,434.2 		"/>
            <polygon class="st8" points="227.8,433 227.9,424.5 234,425.6 233.8,434.2 		"/>
            <polygon class="st8" points="365.4,417.2 365.4,415.9 365.5,409.7 371.9,410.6 371.8,418.2 		"/>
            <polygon class="st8" points="368.4,409.8 371.5,410.2 374.8,409.6 377.6,410 371.9,410.6 365.5,409.7 368.4,409.4 		"/>
            <polygon class="st8" points="368.4,409.4 368.7,379.4 371.8,379.7 371.5,410.2 368.4,409.8 		"/>
            <polygon class="st8" points="372.1,379.8 375,379.6 374.8,409.9 371.5,410.2 371.8,379.7 		"/>
            <polygon class="st8" points="372.2,372.8 371.8,379.7 368.7,379.4 365.7,379.1 365.7,373.2 		"/>
            <polygon class="st8" points="166.3,412.6 168.7,413 172.7,412.2 175.4,412.7 168.4,413.4 163.4,412.5 166.3,412.2 		"/>
            <polygon class="st8" points="166.3,412.2 166.9,387.2 167,381.5 169.4,381.8 168.7,413 166.3,412.6 		"/>
            <polygon class="st8" points="173.3,381.5 173.2,388.1 172.6,412.7 168.7,413 169.4,381.8 		"/>
            <polygon class="st8" points="168.4,413.4 175.4,412.7 175.2,420.5 168.2,421.2 		"/>
            <polygon class="st8" points="163.3,420.2 163.4,412.5 168.4,413.4 168.2,421.2 		"/>
            <polygon class="st8" points="173.3,381.5 169.1,381.8 169.2,374.6 176.2,375.5 176.1,381.4 		"/>
            <polygon class="st8" points="81.6,362.4 80.2,362.4 73.8,362.7 73.9,360.2 81.7,359.8 		"/>
            <path class="st8" d="M73.9,362.7l6.3-0.2L73.9,362.7z"/>
            <polygon class="st8" points="73.8,362.7 70.3,362.4 49.7,359.8 43.6,359.1 40.4,358.7 40.5,356.2 73.9,360.2 		"/>
            <polygon class="st8" points="73.8,362.8 70.3,362.2 73.8,362.7 		"/>
            <polygon class="st8" points="377.8,372.2 372.2,372.8 365.7,373.2 242,382 234.7,382.5 234.7,379.3 377.8,369.3 		"/>
            <path class="st8" d="M234.7,382.5l7.3-0.3L234.7,382.5z"/>
            <path class="st8" d="M377.9,372.4l-5.7,0.2L377.9,372.4z"/>
            <polygon class="st8" points="234.7,382.5 228.6,382 176.2,375.5 169.3,374.4 164.3,373.8 164.4,370.9 234.7,379.3 		"/>
            <polygon class="st8" points="234.7,382.7 228.6,381.8 234.7,382.5 		"/>
            <polygon class="st8" points="169.2,374.6 164.3,373.8 169.3,374.4 		"/>
            <polygon class="st8" points="71.7,395 73.4,395.3 77,394.7 79.3,395.1 72.9,395.6 69.3,394.9 71.7,394.8 		"/>
            <polygon class="st8" points="71.7,394.8 71.7,393.3 72.5,368.8 74.2,368.9 73.4,395.3 71.7,395 		"/>
            <polygon class="st8" points="77.8,368.7 77.1,392.9 77,395.1 73.4,395.3 74.2,368.9 		"/>
            <polygon class="st8" points="72.9,395.6 79.3,395.1 79.1,401.7 72.7,402.2 		"/>
            <polygon class="st8" points="69.2,401.4 69.3,394.9 72.9,395.6 72.7,402.2 		"/>
            <polygon class="st8" points="39.3,395.6 39.5,389.5 42.6,390.1 42.4,396.3 		"/>
            <polygon class="st8" points="41.7,389.6 43.2,389.9 46.7,389.3 48.8,389.7 42.6,390.1 39.5,389.5 41.7,389.4 		"/>
            <polygon class="st8" points="41.7,389.4 42.4,364.8 43.9,364.9 43.2,389.9 41.7,389.6 		"/>
            <polygon class="st8" points="47.4,364.8 46.6,389.6 43.2,389.9 43.9,364.9 		"/>
            <polygon class="st8" points="47.4,364.8 43.4,365 43.6,359.1 49.7,359.8 49.5,364.7 		"/>
            <polygon class="st8" points="43.4,365 42.4,364.8 40.2,364.5 40.4,358.7 43.6,359.1 		"/>
            <polygon class="st8" points="164.4,370.9 164.3,374 164.1,381.2 165.3,381.5 162.4,381.7 162.9,359 165.8,358.8 165.5,370.8
			"/>
            <polygon class="st8" points="167,381.5 162.2,381.9 158.6,381.4 160.7,381.4 162.4,381.7 165.3,381.3 		"/>
            <polygon class="st8" points="160.7,381.2 161.2,358.8 162.9,359 162.4,381.7 160.7,381.4 		"/>
            <polygon class="st8" points="166.6,387.2 162.1,387.5 162.2,381.9 167,381.5 		"/>
            <polygon class="st8" points="159.1,387.1 158.5,387 158.6,381.4 162.2,381.9 162.1,387.5 		"/>
            <polygon class="st8" points="162.8,353.9 162.7,359 161.2,358.8 159.1,358.6 159.2,354.1 		"/>
            <polygon class="st8" points="375,379.6 372.1,379.8 372.2,372.8 377.8,372.3 377.8,379.3 		"/>
            <polygon class="st8" points="228.6,382 234.7,382.7 234.5,390.7 231.7,390.3 228.5,389.9 		"/>
            <polygon class="st8" points="234.5,390.7 234.7,382.7 242,382.2 241.8,390.1 238.7,390.4 		"/>
            <polygon class="st8" points="165.3,381.3 164.1,381.2 164.3,374 169.2,374.6 169.1,381.8 167,381.5 		"/>
            <polygon class="st8" points="80,368.6 77.8,368.7 73.7,368.9 73.8,362.8 80.2,362.5 		"/>
            <polygon class="st8" points="73.7,368.9 72.5,368.8 70.1,368.4 70.3,362.4 73.8,362.8 		"/>
	</g>
</g>
</svg>
