<?xml version="1.0" encoding="utf-8"?>
<!-- Generator: Adobe Illustrator 25.0.1, SVG Export Plug-In . SVG Version: 6.00 Build 0)  -->
<svg version="1.1" id="katman_1" xmlns="http://www.w3.org/2000/svg" x="0px" y="0px"
     viewBox="0 0 841.9 595.3" style="enable-background:new 0 0 841.9 595.3;" xml:space="preserve">
<style type="text/css">
	.st0{fill:#8F6645;}
	.st1{fill:#EEEEEE;}
	.st2{fill:#DDDDDD;}
	.st3{fill:#3D3A37;}
	.st4{fill:#C4C4C4;}
	.st5{fill:#3D3A37;}
	.st6{fill:#000000;}
	.st7{fill:#FFFFFF;}
	.st8{fill:#888888;}
	.st9{fill:#7884AF;}
</style>

    <g id="chimney">
	<polygon class="st6" points="504.6,24.7 471.9,13.4 472.2,75.7 504.9,84.9 			"/>
        <polygon class="st5" points="472.2,75.7 471.9,13.4 436.7,25.4 436.8,65.7 			"/>
</g>


    <g id="roof">
	<polygon class="st3" points="365.2,133.6 401.5,154.2 416.6,162.9 421.1,150 401.5,139.2 352.5,41.9 226.7,86.5 185.1,190.9
		174.6,203 177.5,209.1 185,200.6 216,165 221.1,159.1 241,136.4 245.5,131.2 250.6,129.7 319.4,109.9 322.2,109.1 331.3,114.2
		357.4,129.1 			"/>
        <polygon class="st2" points="621.6,189.5 602.2,180 401.5,139.2 421.1,150 			"/>
        <polygon class="st3" points="602.2,180 552.5,98.4 504.9,84.9 472.2,75.7 436.8,65.7 352.5,41.9 401.5,139.2 			"/>
        <polygon class="st1" points="617.3,199.7 621.6,189.5 421.1,150 416.6,162.9 602.4,197 			"/>
        <polygon class="st1" points="185,200.6 177.5,209.1 184.9,210 			"/>
</g>


    <g id="body">
	<g>
		<polygon class="st4" points="602.9,238.8 602.8,227.7 401.5,198 401.5,211.8 			"/>
        <path class="st4" d="M331.3,114.2l-0.4,95.7l26.5-80.8l7.8,4.5l-24.9,74.7l61.1-10.2l0.1,13.7l-70.6,10.8l-0.6,169.6l71.3,3.2
			v19.2l-218.9-14.3l0.2-14.6l55.9,2.5l1.3-151.6l-55.6,8.5l0.1-10.5l47.8-8L216,165l5.2-5.9l19,66l0.8-88.7l4.6-5.3l5.1-1.5
			l-0.8,93.8l69-11.6l0.5-102l2.8-0.8L331.3,114.2z M248.5,388.5l69.6,3.1l0.7-167.2L249.8,235L248.5,388.5z"/>
        <polygon class="st4" points="604.7,402.8 604.5,387.4 401.5,395.3 401.5,414.5 			"/>
	</g>
        <g>
		<polygon class="st4" points="401.5,211.8 401.5,198 401.5,154.2 365.2,133.6 340.3,208.3 401.4,198 			"/>
            <polygon class="st4" points="401.5,198 602.8,227.7 602.4,197 416.6,162.9 401.5,154.2 			"/>
            <polygon class="st4" points="602.9,238.8 401.5,211.8 401.5,395.3 604.5,387.4 			"/>
            <polygon class="st4" points="240.1,236.5 184.5,245 182.8,385.6 238.8,388.1 			"/>
            <polygon class="st4" points="319.4,109.9 250.6,129.7 249.9,223.5 318.9,211.9 			"/>
            <polygon class="st4" points="357.4,129.1 331.3,114.2 330.9,209.9 			"/>
            <polygon class="st4" points="241,136.4 221.1,159.1 240.2,225.1 			"/>
            <polygon class="st4" points="216,165 185,200.6 184.9,210 184.6,234.4 232.3,226.4 			"/>
            <polygon class="st4" points="330.8,222.6 330.2,392.1 401.5,395.3 401.5,211.8 			"/>
            <polygon class="st4" points="401.5,414.5 182.6,400.2 181.2,527.7 401.5,581.9 			"/>
            <polygon class="st4" points="604.7,402.8 401.5,414.5 401.5,581.9 606.2,537.7 			"/>
            <polygon class="st4" points="318.9,224.4 249.8,235 248.5,388.5 318.1,391.6 			"/>
	</g>
</g>


    <g id="right-window">
	<g>
		<g>
			<polygon class="st8" points="530.7,421.3 531.5,533 534.5,533.5 533.7,421.5 				"/>
            <path class="st7" d="M594,417.2l1.1,104.5l-60.6,11.9l-0.8-112L594,417.2z M561.9,427.9l0.8,91.5l27.4-5.1l-0.9-88.6
				L561.9,427.9z M547.8,440.5l-3.5,8l-2.6,8.9l-1.6,9.5l-0.5,9.7l0.6,9.6l1.7,9.1l2.7,8.2l3.7,7.1l4.4,5.7l5,4.1l-0.8-92l-4.9,5.4
				L547.8,440.5z"/>
		</g>
        <polygon class="st9" points="590.1,514.3 589.2,425.7 561.9,427.9 562.7,519.4 			"/>
        <polygon class="st9" points="557.1,428.3 552.1,433.7 547.8,440.5 544.3,448.5 541.7,457.4 540.1,466.9 539.6,476.6 540.2,486.2
			541.9,495.2 544.7,503.4 548.4,510.5 552.8,516.2 557.9,520.3 			"/>
	</g>
        <polygon class="st8" points="505.6,423.1 432.1,428.4 435.1,428.7 508.7,423.3 		"/>
        <g>
		<g>
			<polygon class="st8" points="432.1,428.4 432.3,552.3 435.3,552.9 435.1,428.7 				"/>
            <path class="st7" d="M508.7,423.3l0.7,115.1l-74,14.5l-0.2-124.3L508.7,423.3z M469.6,435.5l0.4,101.2l33.4-6.2l-0.5-97.7
				L469.6,435.5z M452.3,449.6l-4.4,8.9l-3.3,9.9l-2,10.5l-0.7,10.8l0.7,10.6l2.1,10l3.3,9.1l4.5,7.8l5.4,6.2l6.1,4.5L463.7,436
				l-6.1,6L452.3,449.6z"/>
		</g>
            <polygon class="st9" points="503.4,530.5 502.9,432.8 469.6,435.5 470,536.7 			"/>
            <polygon class="st9" points="463.7,436 457.6,442 452.3,449.6 447.9,458.5 444.6,468.4 442.6,478.9 442,489.7 442.7,500.3
			444.7,510.3 448.1,519.4 452.5,527.1 457.9,533.3 464.1,537.8 			"/>
	</g>
</g>

    <g>
	<g>
		<g>
			<g>
				<polygon class="st8" points="529.5,252.7 530.3,362.3 533.3,362.3 532.5,252.4 				"/>
                <path class="st7" d="M592.3,259.3l1.1,102.7l-60.1,0.4l-0.8-109.9L592.3,259.3z M560.5,263.9l0.8,89.9l27.2,0.1l-0.9-87.1
					L560.5,263.9z M546.5,273.7l-3.5,7.2l-2.6,8.2l-1.6,9l-0.5,9.4l0.6,9.5l1.7,9.2l2.7,8.6l3.6,7.6l4.4,6.4l5,5l-0.8-90.4l-4.9,4.4
					L546.5,273.7z"/>
			</g>
            <polygon class="st9" points="588.5,353.9 587.6,266.7 560.5,263.9 561.2,353.8 			"/>
            <polygon class="st9" points="555.7,263.4 550.8,267.8 546.5,273.7 543,280.9 540.4,289.1 538.8,298.1 538.3,307.5 538.9,317
				540.7,326.2 543.4,334.8 547,342.4 551.4,348.8 556.4,353.8 			"/>
		</g>
        <g>
			<g>
				<polygon class="st8" points="431.8,241.7 432,363 435,363 434.8,241.3 				"/>
                <path class="st7" d="M507.6,249.6l0.7,112.9L435,363l-0.2-121.7L507.6,249.6z M468.9,254.3l0.4,99.2l33.1,0.1l-0.5-95.9
					L468.9,254.3z M451.8,265l-4.3,7.9l-3.2,9.1l-2,9.9l-0.7,10.4l0.7,10.5l2,10.2l3.3,9.5l4.4,8.4l5.4,7.1l6.1,5.5l-0.3-99.8
					l-6,4.8L451.8,265z"/>
			</g>
            <polygon class="st9" points="502.4,353.6 501.9,257.8 468.9,254.3 469.3,353.6 			"/>
            <polygon class="st9" points="463.1,253.7 457.1,258.5 451.8,265 447.4,272.9 444.2,282 442.2,291.9 441.6,302.3 442.3,312.8
				444.3,323 447.6,332.5 452,341 457.4,348 463.4,353.5 			"/>
		</g>
        <polygon class="st8" points="591,417 530.7,421.3 533.7,421.5 594,417.2 		"/>

        <g>
			<path class="st8" d="M202,437.1l2-4.1l2.4-3.4l2.7-2.5l3-1.4l3.1-0.3l3.1,0.9l3,2l2.8,3.1l2.5,4l2.1,4.7l0.9,2.9l-0.8,85.3
				l-28.7-6.7l0.9-82L202,437.1z M221.3,475.9l-5,0.5l-0.1,10.1l5.5,1l5-0.5l0.1-10.1L221.3,475.9z"/>
            <g>
				<path class="st7" d="M199.7,429.7l2.5-5.1l2.9-4.1l3.2-2.9l3.5-1.7l3.6-0.4l3.6,1l3.5,2.3l3.3,3.6l3,4.8l2.6,5.8l2.1,6.7
					l-0.9,100l-36-8.9l1.1-95.1L199.7,429.7z M228.8,528.4l0.8-85.3l-0.9-2.9l-2.1-4.7l-2.5-4l-2.8-3.1l-3-2l-3.1-0.9l-3.1,0.3
					l-3,1.4l-2.7,2.5L204,433l-2,4.1l-0.9,2.6l-0.9,82L228.8,528.4z"/>
                <polygon class="st7" points="215.3,415.5 218.9,416.5 222.6,416.3 219,415.4 				"/>
                <polygon class="st7" points="218.9,416.5 222.5,418.8 226.1,418.6 222.6,416.3 				"/>
                <polygon class="st7" points="222.5,418.8 225.8,422.4 229.4,422.2 226.1,418.6 				"/>
                <polygon class="st7" points="225.8,422.4 228.8,427.2 232.4,426.9 229.4,422.2 				"/>
                <polygon class="st7" points="228.8,427.2 231.4,433 235,432.7 232.4,426.9 				"/>
                <polygon class="st7" points="231.4,433 233.5,439.7 237.1,439.4 235,432.7 				"/>
                <polygon class="st7" points="233.5,439.7 232.6,539.6 236.2,539.1 237.1,439.4 				"/>
                <polygon class="st7" points="226.7,486.9 226.8,476.8 221.8,477.3 221.7,487.5 				"/>
                <polygon class="st7" points="226.8,476.8 221.3,475.9 216.3,476.4 221.8,477.3 				"/>
                <polygon class="st7" points="221.7,487.5 221.8,477.3 216.3,476.4 216.2,486.5 				"/>
			</g>
		</g>
        <g>
			<g>
				<path class="st7" d="M198.7,276.8l2.3-4.5l2.7-3.8l3-2.9l3.2-2l3.3-1l3.3,0.1l3.2,1.2l3,2.2l2.8,3.2l2.4,4.1l1.9,4.9l-0.8,79.4
					l-33-0.1l0.9-75.9L198.7,276.8z M201.2,280.6l-1.1,2.9l-0.2,17.5l9.9-0.8l-6.7-23.4L201.2,280.6z M199.9,308.7l-0.5,42.6
					l25.9-0.2l0.4-44.2L199.9,308.7z M215.6,299.9l10.2-0.8l0.2-18.2l-1.1-2.8l-1.9-3.4L215.6,299.9z M212.7,300.1l8.1-28l-2.5-1.8
					l-2.6-1l-2.7-0.1l-2.7,0.7l-2.6,1.6l-2.4,2.4L212.7,300.1z"/>
                <polygon class="st8" points="216.4,262.8 219.6,263.9 223.2,264.2 220,263 				"/>
                <polygon class="st8" points="219.6,263.9 222.6,266.2 226.2,266.4 223.2,264.2 				"/>
                <polygon class="st8" points="222.6,266.2 225.4,269.4 229,269.7 226.2,266.4 				"/>
                <polygon class="st8" points="225.4,269.4 227.8,273.5 231.4,273.8 229,269.7 				"/>
                <polygon class="st8" points="227.8,273.5 229.7,278.5 233.3,278.7 231.4,273.8 				"/>
                <polygon class="st8" points="229.7,278.5 228.9,357.9 232.6,357.9 233.3,278.7 				"/>
			</g>
            <g>
				<polygon class="st9" points="209.9,300.3 203.1,277 201.2,280.6 200.2,283.6 200,301.1 				"/>
                <polygon class="st9" points="225.3,351.2 225.7,307 199.9,308.7 199.4,351.3 				"/>
                <polygon class="st9" points="224.9,278.1 223,274.8 215.6,299.9 225.8,299.1 226,280.9 				"/>
                <polygon class="st9" points="207.7,271.5 205.3,273.9 212.7,300.1 220.7,272.1 218.3,270.3 215.7,269.3 213,269.2 210.3,270
									"/>
			</g>
		</g>
        <g>
			<g>
				<path class="st7" d="M266.5,146.6l2.7-4.3l3.2-3.7l3.5-3.1l3.8-2.4l3.9-1.6l4-0.7l3.9,0.2l3.7,1.2l3.3,2.1l2.9,2.9l2.3,3.6
					l-0.4,66.2l-39.5,7.2l0.5-63L266.5,146.6z M299.1,200.9l0.3-56.4l-1-1.6l-2.3-2.3l-2.8-1.7l-3.1-1l-3.3-0.2l-3.4,0.6l-3.4,1.3
					l-3.3,2l-3,2.6l-2.6,3.1l-2.2,3.4l-1,2.1l-0.4,54.3L299.1,200.9z"/>
                <polygon class="st8" points="291.4,131.1 295.1,132.2 298.7,132.9 295.1,131.8 				"/>
                <polygon class="st8" points="295.1,132.2 298.4,134.3 302.1,135 298.7,132.9 				"/>
                <polygon class="st8" points="298.4,134.3 301.3,137.2 305,137.9 302.1,135 				"/>
                <polygon class="st8" points="301.3,137.2 303.6,140.8 307.3,141.5 305,137.9 				"/>
                <polygon class="st8" points="303.6,140.8 303.3,207 307,207.5 307.3,141.5 				"/>
                <polygon class="st8" points="303.3,207 263.8,214.2 267.5,214.7 307,207.5 				"/>
			</g>
            <polygon class="st9" points="268.1,152.7 267.7,207 299.1,200.9 299.4,144.5 298.4,142.9 296.1,140.5 293.3,138.8 290.2,137.8
				286.9,137.6 283.5,138.1 280.1,139.5 276.9,141.5 273.9,144.1 271.2,147.2 269,150.6 			"/>
		</g>
        <g>
			<g>
				<path class="st7" d="M265.9,269.3l2.7-5l3.2-4.2l3.5-3.2l3.8-2.2l4-1.1l4,0.1l3.9,1.3l3.7,2.4l3.3,3.5l2.9,4.5l2.4,5.4
					l-0.5,87.3l-39.8-0.1l0.6-83.1L265.9,269.3z M269,273.4l-1.3,3.2l-0.1,19.2l11.9-0.9l-8.2-25.5L269,273.4z M267.5,304.2
					l-0.3,46.7l31.2-0.2l0.3-48.5L267.5,304.2z M286.4,294.4l12.3-0.9l0.1-20l-1.3-3.1l-2.3-3.7L286.4,294.4z M282.9,294.7l9.6-30.8
					l-3-2l-3.2-1l-3.2-0.1l-3.2,0.9l-3.1,1.8l-2.9,2.6L282.9,294.7z"/>
                <polygon class="st8" points="287.1,253.7 291,254.9 294.7,255.3 290.8,254 				"/>
                <polygon class="st8" points="291,254.9 294.7,257.3 298.4,257.7 294.7,255.3 				"/>
                <polygon class="st8" points="294.7,257.3 298,260.9 301.8,261.2 298.4,257.7 				"/>
                <polygon class="st8" points="298,260.9 301,265.4 304.7,265.7 301.8,261.2 				"/>
                <polygon class="st8" points="301,265.4 303.3,270.7 307.1,271 304.7,265.7 				"/>
                <polygon class="st8" points="303.3,270.7 302.8,358.1 306.6,358.1 307.1,271 				"/>
			</g>
            <g>
				<polygon class="st9" points="279.5,294.9 271.3,269.4 269,273.4 267.8,276.7 267.6,295.9 				"/>
                <polygon class="st9" points="298.4,350.7 298.7,302.2 267.5,304.2 267.2,350.9 				"/>
                <polygon class="st9" points="297.5,270.4 295.2,266.8 286.4,294.4 298.7,293.5 298.8,273.5 				"/>
                <polygon class="st9" points="276.8,263.4 273.9,266 282.9,294.7 292.5,263.9 289.5,261.9 286.3,260.9 283.1,260.8 279.9,261.6
									"/>
			</g>
		</g>
        <g>
			<g>
				<path class="st7" d="M342.2,260.8l3.3-5.5l3.8-4.6l4.3-3.6l4.6-2.5l4.8-1.3l4.8,0l4.7,1.3l4.5,2.6l4.1,3.8l3.6,4.9l2.9,5.9
					l-0.1,96.4l-48.3-0.1l0.3-91.2L342.2,260.8z M346,265.3l-1.5,3.5l-0.1,21.1l14.4-1.1l-10.1-28L346,265.3z M344.4,299.1
					l-0.2,51.3l37.8-0.2l0.1-53.5L344.4,299.1z M367.2,288.2l14.9-1.2l0-22l-1.6-3.4l-2.9-4L367.2,288.2z M362.9,288.5l11.5-34
					l-3.6-2.1l-3.8-1.1l-3.9-0.1l-3.9,1l-3.7,2l-3.5,2.9L362.9,288.5z"/>
                <polygon class="st8" points="367.8,243.3 372.6,244.7 376.4,245.1 371.6,243.7 				"/>
                <polygon class="st8" points="372.6,244.7 377,247.3 380.9,247.6 376.4,245.1 				"/>
                <polygon class="st8" points="377,247.3 381.1,251.1 385,251.5 380.9,247.6 				"/>
                <polygon class="st8" points="381.1,251.1 384.7,256 388.5,256.4 385,251.5 				"/>
                <polygon class="st8" points="384.7,256 387.6,261.9 391.4,262.3 388.5,256.4 				"/>
                <polygon class="st8" points="387.6,261.9 387.5,358.3 391.4,358.3 391.4,262.3 				"/>
			</g>
            <g>
				<polygon class="st9" points="358.8,288.8 348.7,260.8 346,265.3 344.5,268.8 344.4,289.9 				"/>
                <polygon class="st9" points="382.1,350.2 382.1,296.6 344.4,299.1 344.2,350.4 				"/>
                <polygon class="st9" points="380.5,261.6 377.7,257.6 367.2,288.2 382.1,287 382.2,265 				"/>
                <polygon class="st9" points="355.3,254.2 351.8,257.1 362.9,288.5 374.3,254.5 370.7,252.4 366.9,251.3 363,251.2 359.1,252.2
									"/>
			</g>
		</g>
        <g>
			<g>
				<path class="st7" d="M259.8,461.3l7.6-13.4l7.9-10l8.9-7.9l9.8-5.7l10.5-3.2l11-0.5l11.3,2.3l11.4,5.1l11.1,8l10.6,10.7
					l9.7,13.3l9.7,17.6l-0.1,73.5l-119.9-26.3L259.8,461.3z M373.9,541.8l0.1-53.6l-22.1-3.3l-0.1,52.2L373.9,541.8z M277.6,444.1
					l-7.4,9.4l-6.4,11.1l17.8,2.5l0.2-26.7L277.6,444.1z M305.1,428.5l-9.9,2.9l-9.2,5.2l-0.2,31L310,471l0.2-42.7L305.1,428.5z
					 M336.7,435.3l-10.6-4.9l-10.6-2.2l-0.2,43.6l31.7,4.5l0.1-33.4L336.7,435.3z M351.9,476.9L374,480l-8-14.6l-9.1-12.5l-5-5.1
					L351.9,476.9z M346.8,536.1l0.2-51.9l-31.7-4.7l-0.2,50L346.8,536.1z M309.7,528.3l0.2-49.7l-24.2-3.6l-0.3,48.2L309.7,528.3z
					 M281.6,474.3l-17.8-2.7l-0.3,46.9l17.8,3.7L281.6,474.3z"/>
                <polygon class="st8" points="304.5,421.1 315.5,420.6 320.9,420.3 309.9,420.8 				"/>
                <polygon class="st8" points="315.5,420.6 326.8,422.9 332.2,422.6 320.9,420.3 				"/>
                <polygon class="st8" points="326.8,422.9 338.2,428 343.6,427.7 332.2,422.6 				"/>
                <polygon class="st8" points="338.2,428 349.3,436 354.8,435.6 343.6,427.7 				"/>
                <polygon class="st8" points="349.3,436 359.9,446.7 365.3,446.3 354.8,435.6 				"/>
                <polygon class="st8" points="359.9,446.7 369.6,460 375.1,459.5 365.3,446.3 				"/>
                <polygon class="st8" points="369.6,460 379.4,477.6 384.9,477 375.1,459.5 				"/>
                <polygon class="st8" points="379.4,477.6 379.3,551.1 384.8,550.1 384.9,477 				"/>
			</g>
            <g>
				<polygon class="st9" points="351.9,484.8 351.7,537.1 373.9,541.8 374,488.2 				"/>
                <polygon class="st9" points="281.6,467.1 281.8,440.4 277.6,444.1 270.2,453.4 263.8,464.6 				"/>
                <polygon class="st9" points="310,471 310.3,428.3 305.1,428.5 295.2,431.4 286,436.6 285.8,467.6 				"/>
                <polygon class="st9" points="347,476.2 347.1,442.8 336.7,435.3 326.1,430.4 315.5,428.1 315.3,471.8 				"/>
                <polygon class="st9" points="356.9,452.9 352,447.9 351.9,476.9 374,480 366,465.4 				"/>
                <polygon class="st9" points="315.2,479.4 315,529.4 346.8,536.1 346.9,484.1 				"/>
                <polygon class="st9" points="285.8,475 285.5,523.2 309.7,528.3 310,478.6 				"/>
                <polygon class="st9" points="263.4,518.5 281.3,522.3 281.6,474.3 263.8,471.7 				"/>
			</g>
		</g>
	</g>
</g>
</svg>
