<?xml version="1.0" encoding="utf-8"?>
<!-- Generator: Adobe Illustrator 25.0.1, SVG Export Plug-In . SVG Version: 6.00 Build 0)  -->
<svg version="1.1" id="katman_1" xmlns="http://www.w3.org/2000/svg" x="0px" y="0px"
     viewBox="0 0 841.9 595.3" style="enable-background:new 0 0 841.9 595.3;" xml:space="preserve">
<style type="text/css">
	.st0{fill:#8F6645;}
	.st1{fill:#EEEEEE;}
	.st2{fill:#DDDDDD;}
	.st3{fill:#3D3A37;}
	.st4{fill:#C4C4C4;}
	.st5{fill:#3D3A37;}
	.st6{fill:#000000;}
	.st7{fill:#FFFFFF;}
	.st8{fill:#888888;}
	.st9{fill:#7884AF;}
</style>

    <g id="chimney">
	<polygon class="st5" points="464.1,25.8 464.1,22.2 431.5,12.1 431.5,34.9 			"/>
        <polygon class="st6" points="431.5,34.9 431.5,12.1 398.1,22.1 398.1,44.2 			"/>
</g>


    <g id="roof">
	<polygon class="st3" points="615.2,64 480.2,21.3 413.3,124.6 393.3,134.6 399.2,145.2 413.3,137.9 465.3,111 473.1,107
		501,92.6 507,89.5 513.6,91.1 587.6,109.8 590.2,110.4 598.2,119.8 619.7,144.8 625.7,151.8 651.2,181.4 660.7,192.5
		663.4,183.6 651.1,169 			"/>
        <polygon class="st3" points="413.3,124.6 480.2,21.3 464.1,25.8 431.5,34.9 398.1,44.2 276.1,78.1 210.3,164.2 			"/>
        <polygon class="st2" points="413.3,124.6 210.3,164.2 191.1,172.8 393.3,134.6 			"/>
        <polygon class="st1" points="191.1,172.8 196.7,181.1 210.2,178.7 399.2,145.2 393.3,134.6 			"/>
        <polygon class="st1" points="651.3,193.5 660.7,192.5 651.2,181.4 			"/>
</g>


    <g id="body">
	<g>
		<polygon class="st4" points="208.8,379.2 208.7,395.3 413.2,413 413.2,392.9 			"/>
        <path class="st4" d="M598.2,119.8l0.5,90.1l21-65.1l6,7l-19,59.2l44.6,6.1l0.1,11.2l-52.7-6.4l0.9,158.6l52.9-3.5l0.1,15.4
			L413.2,413l0-20.1l88.5-5.9l-0.5-177l-88-10.7v-14.5l77.2,10.5L465.3,111l7.8-4l28.1,89.6l-0.3-104l6-3.1l6.6,1.7l0.3,107.2
			l74.3,10.1l-0.5-98.7l2.6,0.6L598.2,119.8z M514.5,386.1l74.7-5l-0.9-160.6l-74.3-9.1L514.5,386.1z"/>
        <polygon class="st4" points="210,212.4 209.9,224.1 413.3,199.2 413.3,184.6 			"/>
	</g>
        <g>
		<polygon class="st4" points="651.2,181.4 625.7,151.8 606.7,211 651.4,217.1 651.5,228.2 651.3,193.5 			"/>
            <polygon class="st4" points="501.3,209.9 413.3,199.2 413.2,392.9 501.7,387 			"/>
            <polygon class="st4" points="413.2,392.9 413.3,199.2 209.9,224.1 208.8,379.2 			"/>
            <polygon class="st4" points="587.6,109.8 513.6,91.1 513.9,198.3 588.1,208.4 			"/>
            <polygon class="st4" points="619.7,144.8 598.2,119.8 598.8,209.9 			"/>
            <polygon class="st4" points="413.2,413 208.7,395.3 207.8,535.3 413.2,588.2 			"/>
            <polygon class="st4" points="413.3,137.9 399.2,145.2 210.2,178.7 210,212.4 413.3,184.6 			"/>
            <polygon class="st4" points="501,92.6 473.1,107 501.2,196.6 			"/>
            <polygon class="st4" points="465.3,111 413.3,137.9 413.3,184.6 490.5,195.2 			"/>
            <polygon class="st4" points="598.8,221.8 599.8,380.4 652.6,376.9 651.5,228.2 			"/>
            <polygon class="st4" points="652.8,392.3 413.2,413 413.2,588.2 653.8,526.4 			"/>
            <polygon class="st4" points="588.2,220.5 513.9,211.5 514.5,386.1 589.1,381.1 			"/>
	</g>
</g>


    <g id="left-window">
	<polygon class="st9" points="268.5,469.2 275.6,470.3 275.8,427.3 268.7,426.5 		"/>
        <polygon class="st9" points="247.6,465.8 247.9,424.1 228.2,421.9 228,462.6 		"/>
        <g>
			<polygon class="st8" points="286.7,417.8 227.9,411.8 223,412.1 281.8,418.1 			"/>
            <polygon class="st8" points="286.2,536.7 286.7,417.8 281.8,418.1 281.2,537.6 			"/>
            <path class="st7" d="M281.8,418.1l-0.5,119.5l-58.9-14l0.7-111.5L281.8,418.1z M275.8,427.3l-7-0.8l-0.2,42.7l7.1,1.1
				L275.8,427.3z M228.2,421.9l-0.3,40.7l19.6,3.2l0.2-41.7L228.2,421.9z M275.3,526.4l0.2-42.6l-20.3-3.6l-0.2,41.6L275.3,526.4z
				 M247.6,478.9l-7.5-1.3l-0.2,40.8l7.5,1.7L247.6,478.9z M227.7,515.6l7,1.6l0.2-40.6l-7-1.2L227.7,515.6z M255.3,467l7.7,1.2
				l0.2-42.5l-7.7-0.9L255.3,467z"/>
		</g>
        <polygon class="st9" points="255.3,480.2 255,521.8 275.3,526.4 275.5,483.8 		"/>
        <polygon class="st9" points="239.8,518.4 247.3,520.1 247.6,478.9 240.1,477.5 		"/>
        <polygon class="st9" points="234.9,476.6 227.9,475.4 227.7,515.6 234.7,517.2 		"/>
        <polygon class="st9" points="263.3,425.8 255.6,425 255.3,467 263,468.3 		"/>
        <polygon class="st9" points="377.5,486.4 386.4,487.8 386.5,439.3 377.5,438.2 		"/>
        <polygon class="st9" points="351.1,482.1 351.2,435.3 326.5,432.5 326.4,478.1 		"/>
        <g>
			<polygon class="st8" points="399,428.6 324.9,421.1 320,421.5 394,429.1 			"/>
            <polygon class="st8" points="398.9,562.7 399,428.6 394,429.1 393.9,563.9 			"/>
            <path class="st7" d="M394,429.1l-0.1,134.8l-74.3-17.6l0.4-124.7L394,429.1z M386.5,439.3l-8.9-1l-0.1,48.1l8.9,1.5L386.5,439.3z
				 M326.5,432.5l-0.1,45.6l24.7,4l0.1-46.8L326.5,432.5z M386.3,551l0.1-48l-25.6-4.6l-0.1,46.8L386.3,551z M351,496.7l-9.4-1.7
				l-0.1,45.8l9.4,2.1L351,496.7z M326.2,537.4l8.8,2l0.1-45.5l-8.8-1.6L326.2,537.4z M360.8,483.6l9.7,1.6l0.1-47.8l-9.7-1.1
				L360.8,483.6z"/>
		</g>
        <polygon class="st9" points="360.7,498.5 360.7,545.2 386.3,551 386.4,503 		"/>
        <polygon class="st9" points="341.5,540.9 350.9,543 351,496.7 341.6,495.1 		"/>
        <polygon class="st9" points="335.1,493.9 326.3,492.4 326.2,537.4 335,539.4 		"/>
        <polygon class="st9" points="370.6,437.5 360.9,436.4 360.8,483.6 370.5,485.2 		"/>
</g>

    <g>
	<g>
		<polygon class="st8" points="447.2,461.8 447.3,568.8 491.6,558 491.5,510.8 485.3,512 479.8,511.1 479.8,498.8 487.8,497.3
			491.5,497.9 491.4,455.8 490,452.5 486.9,447.5 483.3,443.5 479.1,440.6 474.5,439 469.7,438.8 464.9,440.1 460.2,442.8 
			455.9,446.8 452,452 448.7,458 		"/>
        <g>
			<polygon class="st8" points="441.4,583.3 441.3,457.6 437.3,457.1 437.4,582.3 			"/>
            <path class="st7" d="M444.6,449.1l4.1-7.5l4.7-6.2l5.2-4.7l5.5-3.1l5.6-1.4l5.5,0.3l5.3,1.9l4.9,3.5l4.4,4.9l3.8,6.2l3,7.3
				l0.3,118.5l-55.6,14.4l-0.1-125.7L444.6,449.1z M491.6,558l-0.1-47.2l1.8-0.4l0-12.3l-1.8-0.3l-0.1-42.1l-1.4-3.2l-3.1-5
				l-3.7-4.1l-4.2-2.9l-4.6-1.6l-4.8-0.2l-4.8,1.3l-4.7,2.7l-4.4,4L452,452l-3.3,6l-1.5,3.8l0.1,107.1L491.6,558z"/>
            <polygon class="st8" points="441.3,457.6 444.6,449.1 440.7,448.6 437.3,457.1 			"/>
            <polygon class="st8" points="444.6,449.1 448.8,441.6 444.8,441.2 440.7,448.6 			"/>
            <polygon class="st8" points="448.8,441.6 453.5,435.5 449.5,435.1 444.8,441.2 			"/>
            <polygon class="st8" points="453.5,435.5 458.7,430.8 454.7,430.4 449.5,435.1 			"/>
            <polygon class="st8" points="458.7,430.8 464.1,427.7 460.2,427.3 454.7,430.4 			"/>
            <polygon class="st8" points="464.1,427.7 469.7,426.3 465.8,425.9 460.2,427.3 			"/>
            <polygon class="st8" points="469.7,426.3 475.3,426.5 471.3,426.2 465.8,425.9 			"/>
            <polygon class="st8" points="487.8,497.3 479.8,498.8 485.2,499.6 493.3,498.1 491.5,497.9 			"/>
            <polygon class="st7" points="479.8,498.8 479.8,511.1 485.3,512 485.2,499.6 			"/>
            <polygon class="st7" points="493.3,510.4 493.3,498.1 485.2,499.6 485.3,512 491.5,510.8 			"/>
		</g>
        <g>
			<polygon class="st8" points="436.7,354.8 436.7,253.3 432.8,253.6 432.8,354.7 			"/>
            <path class="st7" d="M439.8,247l3.9-5.3l4.4-4.1l4.9-2.9l5.1-1.5l5.3-0.2l5.2,1.2l5,2.5l4.6,3.7l4.1,4.8l3.6,5.7l2.9,6.5
				l0.2,96.1l-52.2,1.4l-0.1-101.4L439.8,247z M444.3,252.9l-1.8,3.6l0,23.2l16.4,0.8l-11.6-31.9L444.3,252.9z M442.6,289.8l0,56.3
				l41-0.8l-0.1-54L442.6,289.8z M468.1,280.9l15.4,0.8l0-22.2l-1.6-3.7l-2.9-4.6L468.1,280.9z M463.5,280.7l12-33.4l-3.8-3l-4.1-2
				l-4.2-0.9l-4.3,0.2l-4.2,1.3l-3.9,2.4L463.5,280.7z"/>
            <polygon class="st8" points="436.7,253.3 439.8,247 435.9,247.4 432.8,253.6 			"/>
            <polygon class="st8" points="439.8,247 443.7,241.7 439.8,242.1 435.9,247.4 			"/>
            <polygon class="st8" points="443.7,241.7 448.1,237.6 444.2,237.9 439.8,242.1 			"/>
            <polygon class="st8" points="448.1,237.6 453,234.7 449.1,235.1 444.2,237.9 			"/>
            <polygon class="st8" points="453,234.7 458.1,233.2 454.2,233.5 449.1,235.1 			"/>
		</g>
        <polygon class="st9" points="459,280.5 447.5,248.5 444.3,252.9 442.6,256.4 442.6,279.7 		"/>
        <polygon class="st9" points="483.6,345.3 483.5,291.4 442.6,289.8 442.6,346.1 		"/>
        <polygon class="st9" points="481.8,255.7 478.9,251.1 468.1,280.9 483.5,281.7 483.4,259.4 		"/>
        <polygon class="st9" points="455,242.8 451,245.2 463.5,280.7 475.5,247.2 471.7,244.3 467.6,242.3 463.4,241.3 459.1,241.5 		"/>
        <g>
			<polygon class="st8" points="532.2,123.6 534.7,119.7 530.8,120.4 528.3,124.3 			"/>
            <polygon class="st8" points="534.7,119.7 537.8,116.5 534,117.2 530.8,120.4 			"/>
            <polygon class="st8" points="537.8,116.5 541.4,114.3 537.6,115 534,117.2 			"/>
            <polygon class="st8" points="541.4,114.3 545.4,112.9 541.5,113.6 537.6,115 			"/>
            <polygon class="st8" points="532.4,193.4 532.2,123.6 528.3,124.3 528.5,193.9 			"/>
            <path class="st7" d="M534.7,119.7l3.1-3.1l3.6-2.3l4-1.3l4.2-0.4l4.3,0.6l4.3,1.5l4.1,2.4l3.8,3.2l3.4,3.9l2.9,4.4l2.4,4.9
				l0.3,66.5l-42.6-6.4l-0.3-69.8L534.7,119.7z M570.9,192.3l-0.3-57.3l-1.1-2.2l-2.4-3.6l-2.8-3.2l-3.2-2.7l-3.5-2l-3.7-1.3
				l-3.7-0.5l-3.6,0.4l-3.4,1.2l-3,1.9l-2.5,2.6l-1.1,1.7l0.2,59.6L570.9,192.3z"/>
            <polygon class="st8" points="575,199.9 532.4,193.4 528.5,193.9 571.2,200.3 			"/>
		</g>
        <polygon class="st9" points="536.7,127.4 536.9,187 570.9,192.3 570.6,135 569.5,132.9 567.1,129.3 564.3,126.1 561.1,123.4
			557.6,121.4 553.9,120.1 550.2,119.7 546.6,120 543.3,121.2 540.3,123.1 537.8,125.6 		"/>
        <g>
			<polygon class="st8" points="533.4,352.2 533.1,260.6 529.2,260.9 529.6,352.1 			"/>
            <path class="st7" d="M535.6,254.9l3.1-4.8l3.6-3.8l4-2.6l4.2-1.4l4.3-0.2l4.3,1l4.1,2.2l3.8,3.3l3.4,4.3l2.9,5.1l2.4,5.8
				l0.5,87.2l-42.8,1.2l-0.3-91.5L535.6,254.9z M539.3,260.1l-1.4,3.3l0.1,21l13.4,0.7l-9.5-28.8L539.3,260.1z M538,293.5l0.2,50.8
				l33.5-0.6l-0.2-48.9L538,293.5z M558.8,285.4l12.6,0.6l-0.1-20.2l-1.4-3.3l-2.4-4.2L558.8,285.4z M555,285.2l9.7-30.4l-3.1-2.7
				l-3.3-1.8l-3.5-0.8l-3.5,0.2L548,251l-3.2,2.2L555,285.2z"/>
            <polygon class="st8" points="533.1,260.6 535.6,254.9 531.8,255.2 529.2,260.9 			"/>
            <polygon class="st8" points="535.6,254.9 538.8,250.1 534.9,250.4 531.8,255.2 			"/>
            <polygon class="st8" points="538.8,250.1 542.4,246.3 538.5,246.6 534.9,250.4 			"/>
            <polygon class="st8" points="542.4,246.3 546.4,243.7 542.5,244 538.5,246.6 			"/>
            <polygon class="st8" points="546.4,243.7 550.6,242.2 546.7,242.5 542.5,244 			"/>
		</g>
        <polygon class="st9" points="551.4,285 541.9,256.2 539.3,260.1 537.9,263.4 538,284.4 		"/>
        <polygon class="st9" points="571.7,343.7 571.5,294.8 538,293.5 538.2,344.3 		"/>
        <polygon class="st9" points="570,262.5 567.6,258.3 558.8,285.4 571.5,286 571.4,265.8 		"/>
        <polygon class="st9" points="548,251 544.8,253.1 555,285.2 564.8,254.8 561.7,252.2 558.3,250.4 554.9,249.6 551.4,249.8 		"/>
        <g>
			<polygon class="st8" points="608.8,350.2 608.3,266.3 604.5,266.5 605,350.1 			"/>
            <path class="st7" d="M610.4,261.1l2.6-4.4l3-3.5l3.3-2.5l3.5-1.3l3.6-0.2l3.6,0.9l3.5,2l3.2,3l2.9,3.9l2.5,4.7l2,5.4l0.6,80.1
				l-36,1l-0.5-83.8L610.4,261.1z M613.5,265.8l-1.2,3l0.1,19.2l11.3,0.5l-8.1-26.4L613.5,265.8z M612.5,296.4l0.3,46.6l28.2-0.5
				l-0.3-45L612.5,296.4z M630,288.9l10.6,0.5l-0.1-18.5l-1.2-3.1l-2-3.8L630,288.9z M626.8,288.7l8.1-27.9l-2.6-2.4l-2.8-1.6
				l-2.9-0.7l-2.9,0.2l-2.9,1.1l-2.7,2L626.8,288.7z"/>
            <polygon class="st8" points="608.3,266.3 610.4,261.1 606.6,261.3 604.5,266.5 			"/>
            <polygon class="st8" points="610.4,261.1 613,256.6 609.3,256.8 606.6,261.3 			"/>
            <polygon class="st8" points="613,256.6 616.1,253.1 612.3,253.4 609.3,256.8 			"/>
            <polygon class="st8" points="616.1,253.1 619.4,250.7 615.6,250.9 612.3,253.4 			"/>
            <polygon class="st8" points="619.4,250.7 622.9,249.3 619.2,249.6 615.6,250.9 			"/>
		</g>
        <polygon class="st9" points="623.7,288.6 615.7,262.2 613.5,265.8 612.3,268.8 612.5,288 		"/>
        <polygon class="st9" points="641,342.5 640.7,297.5 612.5,296.4 612.8,343 		"/>
        <polygon class="st9" points="639.3,267.8 637.3,264 630,288.9 640.6,289.4 640.5,270.9 		"/>
        <polygon class="st9" points="620.8,257.4 618.1,259.4 626.8,288.7 634.9,260.8 632.3,258.4 629.5,256.8 626.6,256 623.6,256.2
			"/>
        <g>
			<path class="st7" d="M534.5,465.9l8.7-16.8l8.7-12.8l9.5-10.4l10-7.8l10.3-5.1l10.3-2.4l10,0.3l9.6,2.9l9,5.3l8.2,7.5l7.2,9.6
				l7,12.8l0.5,61.2l-108.5,25.3L534.5,465.9z M639.4,504.4l-0.3-45.1l-16.3,2.7l0.3,46.1L639.4,504.4z M554.5,442.2l-8.1,12
				l-7.1,14l19.8-3.1l-0.1-27.7L554.5,442.2z M582.3,420.3l-9.6,4.8l-9.3,7.3l0.2,31.9l23.8-3.8l-0.2-41.4L582.3,420.3z
				 M610.3,420.9l-9-2.6l-9.4-0.2l0.2,41.8l26.8-4.2l-0.2-29.8L610.3,420.9z M622.8,455l16.3-2.6l-5.8-10.7l-6.8-9l-3.8-3.5
				L622.8,455z M619.3,508.9l-0.3-46.3l-26.8,4.5l0.3,47.8L619.3,508.9z M587.7,516l-0.3-48.1l-23.9,4l0.2,49.5L587.7,516z
				 M559.1,472.6l-19.8,3.3l0.2,50.9l19.9-4.4L559.1,472.6z"/>
            <polygon class="st8" points="534.7,535.6 534.5,465.9 528.9,465.3 529.2,534.6 			"/>
            <polygon class="st8" points="534.5,465.9 543.1,449.1 537.6,448.5 528.9,465.3 			"/>
            <polygon class="st8" points="543.1,449.1 551.9,436.3 546.3,435.8 537.6,448.5 			"/>
            <polygon class="st8" points="551.9,436.3 561.3,426 555.8,425.5 546.3,435.8 			"/>
            <polygon class="st8" points="561.3,426 571.3,418.2 565.9,417.8 555.8,425.5 			"/>
            <polygon class="st8" points="571.3,418.2 581.6,413.1 576.1,412.7 565.9,417.8 			"/>
            <polygon class="st8" points="581.6,413.1 591.9,410.8 586.4,410.4 576.1,412.7 			"/>
            <polygon class="st8" points="591.9,410.8 601.9,411.1 596.4,410.7 586.4,410.4 			"/>
		</g>
        <polygon class="st9" points="622.8,462 623.1,508 639.4,504.4 639.1,459.3 		"/>
        <polygon class="st9" points="559.1,465 559,437.3 554.5,442.2 546.4,454.2 539.3,468.2 		"/>
        <polygon class="st9" points="587.4,460.6 587.1,419.1 582.3,420.3 572.7,425.1 563.4,432.5 563.5,464.3 		"/>
        <polygon class="st9" points="618.9,455.6 618.7,425.8 610.3,420.9 601.3,418.2 591.9,418 592.1,459.8 		"/>
        <polygon class="st9" points="626.4,432.8 622.6,429.3 622.8,455 639.1,452.4 633.2,441.8 		"/>
        <polygon class="st9" points="592.2,467.1 592.4,514.9 619.3,508.9 619,462.6 		"/>
        <polygon class="st9" points="563.5,471.9 563.8,521.3 587.7,516 587.4,467.9 		"/>
        <polygon class="st9" points="539.5,526.8 559.4,522.3 559.1,472.6 539.3,475.9 		"/>
        <polygon class="st9" points="377.7,288.8 386.6,288.5 386.7,240.6 377.8,241.3 		"/>
        <polygon class="st9" points="351.5,289.9 351.6,243.7 327.1,245.8 326.9,290.9 		"/>
        <g>
			<polygon class="st8" points="399,361.9 399.1,229.5 394.2,229 394.1,362.1 			"/>
            <path class="st7" d="M394.2,229l-0.1,133.1l-73.9-2.5l0.4-123.2L394.2,229z M386.7,240.6l-8.9,0.8l-0.1,47.5l8.9-0.4L386.7,240.6
				z M327.1,245.8l-0.1,45l24.5-1l0.1-46.2L327.1,245.8z M386.5,350.9l0.1-47.4l-25.5,0.6l-0.1,46.2L386.5,350.9z M351.5,304.4
				l-9.4,0.2l-0.1,45.2l9.4,0.2L351.5,304.4z M326.8,349.5l8.7,0.2l0.1-44.9l-8.7,0.2L326.8,349.5z M361.1,289.5l9.7-0.4l0.1-47.2
				l-9.7,0.9L361.1,289.5z"/>
		</g>
        <polygon class="st9" points="361.1,304.1 361,350.3 386.5,350.9 386.6,303.5 		"/>
        <polygon class="st9" points="342,349.9 351.3,350.1 351.5,304.4 342.1,304.6 		"/>
        <polygon class="st9" points="335.6,304.8 326.9,305 326.8,349.5 335.5,349.7 		"/>
        <polygon class="st9" points="370.9,242 361.2,242.8 361.1,289.5 370.8,289.1 		"/>
        <polygon class="st9" points="269.4,293.2 276.4,292.9 276.6,250.3 269.6,251 		"/>
        <polygon class="st9" points="248.6,294 248.8,252.8 229.2,254.5 229,294.8 		"/>
        <g>
			<polygon class="st8" points="286.9,358.1 287.4,240.5 282.5,240.1 282,358.2 			"/>
            <path class="st7" d="M282.5,240.1L282,358.2l-58.6-2l0.7-110.3L282.5,240.1z M276.6,250.3l-7,0.6l-0.2,42.2l7-0.3L276.6,250.3z
				 M229.2,254.5l-0.3,40.3l19.6-0.8l0.2-41.2L229.2,254.5z M276.1,348.3l0.2-42.1l-20.1,0.5l-0.2,41.1L276.1,348.3z M248.5,307
				l-7.5,0.2l-0.2,40.4l7.5,0.2L248.5,307z M228.7,347.2l7,0.2l0.2-40.1l-7,0.2L228.7,347.2z M256.2,293.7l7.7-0.3l0.2-42l-7.6,0.7
				L256.2,293.7z"/>
		</g>
        <polygon class="st9" points="256.2,306.8 255.9,347.9 276.1,348.3 276.3,306.3 		"/>
        <polygon class="st9" points="240.8,347.5 248.3,347.7 248.5,307 241,307.1 		"/>
        <polygon class="st9" points="235.9,307.3 228.9,307.4 228.7,347.2 235.6,347.4 		"/>
        <polygon class="st9" points="264.1,251.4 256.5,252.1 256.2,293.7 263.9,293.4 		"/>
	</g>
</g>
</svg>
