<?xml version="1.0" encoding="utf-8"?>
<!-- Generator: Adobe Illustrator 25.0.1, SVG Export Plug-In . SVG Version: 6.00 Build 0)  -->
<svg version="1.1" id="katman_1" xmlns="http://www.w3.org/2000/svg" x="0px" y="0px"
     viewBox="0 0 841.9 595.3" style="enable-background:new 0 0 841.9 595.3;" xml:space="preserve">
<style type="text/css">
	.st0{fill:#8F6645;}
	.st1{fill:#EEEEEE;}
	.st2{fill:#DDDDDD;}
	.st3{fill:#3D3A37;}
	.st4{fill:#C4C4C4;}
	.st5{fill:#3D3A37;}
	.st6{fill:#000000;}
	.st7{fill:#FFFFFF;}
	.st8{fill:#888888;}
	.st9{fill:#7884AF;}
</style>

    <g id="roof">
	<polygon class="st3" points="613.3,206.5 569,107.9 452.8,76.3 437.9,72.2 387.8,166.1 367.9,177.1 372.4,188.9 387.7,180.2
		468.9,134.1 549,151.6 613.5,215.8 621.5,223.8 624.6,217.8 			"/>
        <polygon class="st3" points="387.8,166.1 437.9,72.2 417,77.9 382.4,87.5 261,120.9 212,199.8 			"/>
        <polygon class="st2" points="387.8,166.1 212,199.8 193,209.3 367.9,177.1 			"/>
        <polygon class="st1" points="621.5,223.8 613.5,215.8 613.6,224.7 			"/>
        <polygon class="st1" points="372.4,188.9 367.9,177.1 193,209.3 197.2,218.9 211.7,216.4 			"/>
</g>


    <g id="body">
	<g>
		<polygon class="st4" points="387.2,424.7 387.2,406.7 209.3,396.4 209.1,411.1 			"/>
        <polygon class="st4" points="387.2,406.7 387.2,424.7 615.8,409 615.6,394.8 			"/>
        <polygon class="st4" points="211.3,245 211.2,255.6 387.6,234.2 387.6,221.3 			"/>
        <polygon class="st4" points="387.6,221.3 387.6,234.2 614,258.8 613.8,248.6 			"/>
	</g>
        <g>
		<polygon class="st4" points="387.2,406.7 615.6,394.8 614,258.8 387.6,234.2 			"/>
            <polygon class="st4" points="615.8,409 387.2,424.7 386.8,582.4 480.2,562.3 480.1,547.7 556.3,532.4 590.2,537.9 590.3,538.6
				617.3,532.7 			"/>
            <polygon class="st4" points="211.3,245 387.6,221.3 387.7,180.2 372.4,188.9 211.7,216.4 			"/>
            <polygon class="st4" points="387.6,234.2 211.2,255.6 209.3,396.4 387.2,406.7 			"/>
            <polygon class="st4" points="387.6,221.3 613.8,248.6 613.6,224.7 613.5,215.8 549,151.6 468.9,134.1 387.7,180.2 			"/>
            <polygon class="st4" points="387.2,424.7 209.1,411.1 207.4,539.2 386.8,582.4 			"/>
	</g>
</g>

    <g id="chimney">
	<polygon class="st6" points="417.1,12.9 382.6,24.7 382.4,87.5 417,77.9 			"/>
        <polygon class="st5" points="452.7,24.5 417.1,12.9 417,77.9 437.9,72.2 452.8,76.3 			"/>
</g>


    <g id="right-window">
	<g>
		<g>
			<polygon class="st8" points="374.4,557.8 374.7,438.3 371.7,438.6 371.3,558.4 				"/>
            <polygon class="st8" points="374.7,438.3 308.3,432.2 305.2,432.5 371.7,438.6 				"/>
            <path class="st7" d="M371.7,438.6l-0.4,119.8l-66.9-14.7l0.8-111.2L371.7,438.6z M333.9,444l-0.6,97l31.9,6.7l0.4-100.5
				L333.9,444z M318.9,454.2l-3.7,7.4l-2.7,8.4l-1.7,9.1l-0.6,9.6l0.5,9.8l1.6,9.7l2.6,9.3l3.6,8.6l4.5,7.6l5.2,6.3l0.6-96.4
				l-5.3,4.6L318.9,454.2z"/>
		</g>
        <polygon class="st9" points="365.2,547.7 365.6,447.3 333.9,444 333.3,541 			"/>
        <polygon class="st9" points="328.7,443.5 323.4,448.1 318.9,454.2 315.2,461.6 312.5,470 310.8,479.1 310.1,488.7 310.6,498.5
			312.2,508.2 314.8,517.4 318.4,526 322.9,533.6 328.1,539.9 			"/>
	</g>
        <g>
		<g>
			<polygon class="st8" points="284.6,538.2 285.6,430.2 282.6,430.4 281.6,538.7 				"/>
            <polygon class="st8" points="285.6,430.2 230.8,425.1 227.8,425.3 282.6,430.4 				"/>
            <path class="st7" d="M282.6,430.4l-1,108.3l-55.1-12.1l1.3-101.2L282.6,430.4z M251.4,435.6l-1,88l26.2,5.5l0.9-90.8
				L251.4,435.6z M239,445l-3.1,6.7l-2.3,7.7l-1.5,8.3l-0.6,8.7l0.3,8.9l1.3,8.8l2.1,8.4l2.9,7.7l3.7,6.8l4.3,5.7l1-87.5l-4.4,4.3
				L239,445z"/>
		</g>
            <polygon class="st9" points="276.7,529.1 277.5,438.3 251.4,435.6 250.5,523.6 			"/>
            <polygon class="st9" points="247.2,435.2 242.8,439.4 239,445 235.9,451.7 233.6,459.4 232.1,467.7 231.6,476.5 231.9,485.4
			233.2,494.1 235.3,502.5 238.2,510.2 241.9,517 246.2,522.7 			"/>
	</g>
</g>


    <g>
	<g>
		<g>
			<polygon class="st0" points="590.2,537.9 556.3,532.4 480.1,547.7 514.6,554.1 			"/>
            <polygon class="st4" points="590.2,537.9 514.6,554.1 514.7,569.2 590.4,551.7 590.3,538.6 			"/>
            <polygon class="st4" points="514.6,554.1 480.1,547.7 480.2,562.3 514.7,569.2 			"/>
		</g>
	</g>
        <g>
		<g>
			<g>
				<path class="st7" d="M559.7,192.6l5.6,15.1l6.3,29.1L466,223.1l7.3-30.2l6.6-14.4l8.6-11.3l10.2-7.6l11.1-3.6l11.4,0.4l11.2,4.3
					l10.4,7.8l9.2,10.8L559.7,192.6z M521.4,167.2L510,217.9l27,3.8L521.4,167.2z M562.6,225.4l-3.1-14.1l-4.9-13.1l-6.6-11.5
					l-8-9.3l-9-6.6l-4.8-1.8l16.1,53.5L562.6,225.4z M516.5,167.1l-4.9-0.1l-9.5,3.2l-8.7,6.6l-7.4,9.7l-5.6,12.4l-3.5,14.4
					l27.4,3.9L516.5,167.1z"/>
                <polygon class="st8" points="475.3,179.3 468.7,193.6 473.4,192.9 480,178.5 				"/>
                <polygon class="st8" points="475.3,179.3 480,178.5 488.6,167.2 483.9,168.1 				"/>
                <polygon class="st8" points="473.4,192.9 468.7,193.6 461.3,223.7 466,223.1 				"/>
                <polygon class="st8" points="566.9,237.3 571.6,236.8 466,223.1 461.3,223.7 				"/>
                <polygon class="st8" points="509.9,156.1 505.2,156.9 494.1,160.5 498.8,159.7 				"/>
                <polygon class="st8" points="488.6,167.2 498.8,159.7 494.1,160.5 483.9,168.1 				"/>
			</g>
            <g>
				<polygon class="st9" points="510,217.9 537,221.8 521.4,167.2 				"/>
                <polygon class="st9" points="526.2,169 542.3,222.5 562.6,225.4 559.5,211.3 554.6,198.2 548,186.7 540.1,177.4 531,170.8
					"/>
                <polygon class="st9" points="476.9,213.3 504.4,217.1 516.5,167.1 511.5,167 502,170.2 493.3,176.8 486,186.5 480.4,198.9
					"/>
			</g>
		</g>
            <g>
			<g>
				<polygon class="st8" points="544.3,270.6 545.1,372.1 547.9,372.1 547.1,270.4 				"/>
                <path class="st7" d="M602,275.3l1.1,95.6l-55.2,1.2l-0.8-101.7L602,275.3z M552.1,278.7l0.7,85.4l45.8-0.6l-0.9-81.1
					L552.1,278.7z"/>
			</g>
                <polygon class="st9" points="598.6,363.5 597.7,282.4 552.1,278.7 552.8,364.1 			"/>
		</g>
            <g>
			<g>
				<polygon class="st8" points="428.6,260.3 428.6,374.6 431.4,374.7 431.4,260.1 				"/>
                <path class="st7" d="M500.6,266.3l0.5,106.9l-69.7,1.5l0-114.7L500.6,266.3z M437.7,269.5l0.1,96.2l57.8-0.8l-0.4-90.7
					L437.7,269.5z"/>
			</g>
                <polygon class="st9" points="495.5,364.8 495.1,274.1 437.7,269.5 437.7,365.6 			"/>
		</g>
            <g>
			<g>
				<polygon class="st8" points="572.4,423.9 573.3,524.3 576.1,524.7 575.2,424.1 				"/>
                <polygon class="st8" points="600.9,421.6 572.4,423.9 575.2,424.1 603.7,421.7 				"/>
                <path class="st7" d="M603.7,421.7l1.1,97.4l-28.6,5.6l-1-100.7L603.7,421.7z M577.8,431.7l0.8,84.7l23.7-4.4l-0.9-82.4
					L577.8,431.7z"/>
			</g>
                <polygon class="st9" points="602.3,511.9 601.4,429.5 577.8,431.7 578.6,516.4 			"/>
		</g>
            <g>
			<g>
				<polygon class="st8" points="375,375.3 375.3,258.6 372.3,258.3 371.9,375.4 				"/>
                <path class="st7" d="M372.3,258.3l-0.4,117.1l-66.2-1.6l0.8-108.9L372.3,258.3z M334.9,270.8l-0.5,94.9l31.6,0.5l0.4-98.2
					L334.9,270.8z M320,283.6l-3.7,7.9l-2.7,8.7l-1.7,9.2l-0.6,9.5l0.5,9.5l1.5,9.2l2.6,8.6l3.6,7.7l4.4,6.6l5.2,5.2l0.6-94.3
					l-5.2,5.5L320,283.6z"/>
			</g>
                <polygon class="st9" points="365.9,366.1 366.3,267.9 334.9,270.8 334.3,365.6 			"/>
                <polygon class="st9" points="329.8,271.2 324.5,276.7 320,283.6 316.4,291.5 313.7,300.2 312,309.4 311.4,318.9 311.9,328.4
				313.4,337.5 316,346.1 319.6,353.8 324,360.3 329.2,365.5 			"/>
		</g>
            <g>
			<g>
				<polygon class="st8" points="286.1,373.1 287,267.3 284.1,267.1 283.1,373.2 				"/>
                <path class="st7" d="M284.1,267.1l-1,106.1l-54.6-1.4l1.2-99.3L284.1,267.1z M253.2,278.1l-1,86.2l26,0.4l0.8-89L253.2,278.1z
					 M240.8,289.7l-3.1,7.2l-2.3,7.9l-1.5,8.4l-0.6,8.7l0.3,8.6l1.2,8.3l2.1,7.8l2.9,7l3.6,6l4.3,4.7l1-85.8l-4.3,5L240.8,289.7z"/>
			</g>
                <polygon class="st9" points="278.2,364.8 279.1,275.8 253.2,278.1 252.2,364.4 			"/>
                <polygon class="st9" points="248.9,278.5 244.6,283.5 240.8,289.7 237.8,296.9 235.5,304.8 234,313.2 233.5,321.9 233.8,330.5
				235.1,338.8 237.2,346.6 240.1,353.6 243.7,359.6 248,364.3 			"/>
		</g>

            <g>
			<g>
				<polygon class="st8" points="426.1,435.8 426.2,553 429,553.6 429,436 				"/>
                <polygon class="st8" points="464.6,432.6 426.1,435.8 429,436 467.5,432.8 				"/>
                <path class="st7" d="M467.5,432.8l0.3,113.1l-38.8,7.6l0-117.6L467.5,432.8z M432.4,444.8l0,98.9l32.1-6l-0.2-95.8L432.4,444.8z
					"/>
			</g>
                <polygon class="st9" points="464.6,537.7 464.3,441.9 432.4,444.8 432.4,543.7 			"/>
		</g>
            <polygon class="st8" points="526.7,532.3 550.9,527.6 550.1,423 526,424.9 526.3,476.7 531.1,477.3 531.1,485.7 526.4,486.4 		"/>
            <g>
			<polygon class="st7" points="487.9,546.4 491.4,547.1 490.9,419.8 487.4,419.5 			"/>
                <path class="st7" d="M490.9,419.8l63.7-4.5l1,118.9l-64.1,12.9L490.9,419.8z M550.1,423l-24.1,1.9l0.3,51.8l-12,1.6l0.1,8.5
				l4.7,0.6l7.3-1l0.3,45.9l24.2-4.7L550.1,423z M512.3,474.5l8.9-1.1l-0.3-48.1l-24.8,1.9l0.5,110.9l25-4.8l-0.2-41.9l-9,1.3
				L512.3,474.5z"/>
                <polygon class="st7" points="551.1,415.1 487.4,419.5 490.9,419.8 554.6,415.3 			"/>
                <polygon class="st7" points="531.1,485.7 531.1,477.3 519.1,478.9 519.1,487.4 526.4,486.4 			"/>
                <polygon class="st7" points="519.1,478.9 531.1,477.3 526.3,476.7 514.3,478.3 			"/>
                <polygon class="st7" points="519.1,478.9 514.3,478.3 514.4,486.8 519.1,487.4 			"/>
		</g>
            <polygon class="st8" points="521.3,491.3 512.4,492.7 512.3,474.5 521.2,473.4 520.9,425.3 496.1,427.2 496.6,538.1 521.6,533.3
					"/>
            <path class="st8" d="M519.1,478.9l12-1.6 M490.9,419.8l-3.5-0.2 M514.3,478.3l4.7,0.6 M514.3,478.3l12-1.6 M526.3,476.7l4.7,0.5
			 M554.6,415.3l-3.5-0.2 M555.6,534.2l-1-118.9 M490.9,419.8l0.5,127.3 M554.6,415.3l-63.7,4.5 M514.4,486.8l-0.1-8.5 M496.6,538.1
			l25-4.8 M521.6,533.3l-0.2-41.9 M512.4,492.7l-0.1-18.1 M512.3,474.5l8.9-1.1 M521.2,473.4l-0.3-48.1 M520.9,425.3l-24.8,1.9
			 M496.1,427.2l0.5,110.9 M519.1,487.4l0-8.6 M514.4,486.8l4.7,0.6 M526.4,486.4l-7.3,1 M531.1,485.7l-4.7,0.7"/>
	</g>
</g>
</svg>
