<?xml version="1.0" encoding="utf-8"?>
<!-- Generator: Adobe Illustrator 25.0.1, SVG Export Plug-In . SVG Version: 6.00 Build 0)  -->
<svg version="1.1" id="katman_1" xmlns="http://www.w3.org/2000/svg" x="0px" y="0px"
     viewBox="0 0 841.9 595.3" style="enable-background:new 0 0 841.9 595.3;" xml:space="preserve">
<style type="text/css">
	.st0{fill:#8F6645;}
	.st1{fill:#EEEEEE;}
	.st2{fill:#DDDDDD;}
	.st3{fill:#3D3A37;}
	.st4{fill:#C4C4C4;}
	.st5{fill:#3D3A37;}
	.st6{fill:#000000;}
	.st7{fill:#FFFFFF;}
	.st8{fill:#888888;}
	.st9{fill:#7884AF;}
</style>

    <g id="chimney">
	<polygon class="st5" points="322.1,10.9 290.7,23.5 290.3,68.3 321.8,57.2 			"/>
        <polygon class="st6" points="358.8,44.3 358.9,23.5 322.1,10.9 321.8,57.2 			"/>
</g>

    <g id="roof">
	<polygon class="st3" points="236.9,87 201,188.1 188.7,202.5 191.3,210.8 200.8,199.8 261.4,129.7 343.6,105.9 436.7,147.5
		450.8,153.8 456.6,143.4 436.7,134.8 370.2,40.3 358.8,44.3 321.8,57.2 290.3,68.3 			"/>
        <polygon class="st1" points="637.3,197.8 642.7,189.7 456.6,143.4 450.8,153.8 623.9,194.6 			"/>
        <polygon class="st2" points="456.6,143.4 642.7,189.7 623.7,182.1 436.7,134.8 			"/>
        <polygon class="st3" points="623.7,182.1 558.5,102.6 370.2,40.3 436.7,134.8 			"/>
        <polygon class="st1" points="191.3,210.8 200.6,212.1 200.8,199.8 			"/>
</g>

    <g id="body">
	<g>
		<polygon class="st4" points="624.5,228 436.8,192.1 436.9,206 624.7,239.1 			"/>
        <polygon class="st4" points="436.9,206 436.8,192.1 200.3,233.8 200.1,244.5 			"/>
        <polygon class="st4" points="197.9,387.3 197.7,402.2 437.5,412.5 437.4,392.9 			"/>
        <polygon class="st4" points="437.4,392.9 437.5,412.5 627.6,403.7 627.3,388.1 			"/>
	</g>

        <g>
		<polygon class="st4" points="450.8,153.8 436.7,147.5 436.8,192.1 624.5,228 623.9,194.6 			"/>
            <polygon class="st4" points="624.7,239.1 436.9,206 437.4,392.9 627.3,388.1 			"/>
            <polygon class="st4" points="200.3,233.8 436.8,192.1 436.7,147.5 343.6,105.9 261.4,129.7 200.8,199.8 200.6,212.1 			"/>
            <polygon class="st4" points="197.9,387.3 437.4,392.9 436.9,206 200.1,244.5 			"/>
            <polygon class="st4" points="437.5,412.5 197.7,402.2 195.7,532.7 228.7,539.7 228.8,538.7 265.9,533.2 347,549.1 346.9,565
				438,584.4 			"/>
            <polygon class="st4" points="627.6,403.7 437.5,412.5 438,584.4 630,539.9 			"/>
	</g>
</g>

    <g id="left-window">
	<polygon class="st9" points="523,476.8 530.5,475.9 530,431.1 522.6,431.6 		"/>
        <polygon class="st9" points="499.4,479.9 499,433.4 474.5,435.2 474.7,483 		"/>
        <g>
		<polygon class="st8" points="462.3,424.6 462.9,557 468.1,558 467.4,424.9 			"/>
            <polygon class="st8" points="531,420.4 462.3,424.6 467.4,424.9 536,420.6 			"/>
            <path class="st7" d="M536,420.6l1.3,122.8L468.1,558l-0.7-133.1L536,420.6z M530,431.1l-7.4,0.6l0.4,45.2l7.4-1L530,431.1z
			 M474.5,435.2l0.3,47.8l24.7-3.2l-0.4-46.5L474.5,435.2z M531.1,534.5l-0.4-44.5l-22.1,3.2l0.4,45.7L531.1,534.5z M499.5,494.5
			l-9.1,1.3l0.3,46.7l9.1-1.8L499.5,494.5z M475.1,545.5l9.1-1.8l-0.3-47l-9.1,1.3L475.1,545.5z M508.4,478.7l8.7-1.1l-0.4-45.5
			l-8.6,0.6L508.4,478.7z"/>
	</g>
        <polygon class="st9" points="508.5,493.2 508.9,538.9 531.1,534.5 530.6,490 		"/>
        <polygon class="st9" points="490.7,542.4 499.8,540.6 499.5,494.5 490.4,495.8 		"/>
        <polygon class="st9" points="483.9,496.7 474.8,498 475.1,545.5 484.2,543.7 		"/>
        <polygon class="st9" points="516.6,432.1 508,432.7 508.4,478.7 517.1,477.6 		"/>
        <g>
		<polygon class="st9" points="615.6,464.5 621.5,463.8 620.9,423.8 615,424.3 			"/>
            <polygon class="st9" points="596.9,466.9 596.3,425.7 577,427.1 577.5,469.4 			"/>
            <g>
			<polygon class="st8" points="566.4,417.7 567.8,534.7 572.9,535.5 571.3,417.9 				"/>
                <polygon class="st8" points="620.7,414.4 566.4,417.7 571.3,417.9 625.6,414.5 				"/>
                <path class="st7" d="M625.6,414.5l1.9,109.5l-54.6,11.4l-1.5-117.6L625.6,414.5z M620.9,423.8l-5.9,0.4l0.7,40.2l5.9-0.8
					L620.9,423.8z M577,427.1l0.6,42.3l19.4-2.5l-0.6-41.2L577,427.1z M622.4,515.9l-0.7-39.6l-17.5,2.5l0.6,40.6L622.4,515.9z
					 M597.1,479.9l-7.2,1l0.6,41.3l7.2-1.4L597.1,479.9z M578.3,524.6l7.1-1.4l-0.6-41.6l-7.1,1L578.3,524.6z M604,466l6.8-0.9
					l-0.6-40.5l-6.8,0.5L604,466z"/>
		</g>
            <polygon class="st9" points="604.2,478.8 604.9,519.4 622.4,515.9 621.8,476.3 			"/>
            <polygon class="st9" points="590.5,522.2 597.7,520.8 597.1,479.9 589.9,480.9 			"/>
            <polygon class="st9" points="584.8,481.6 577.7,482.7 578.3,524.6 585.4,523.2 			"/>
            <polygon class="st9" points="610.2,424.6 603.4,425.1 604,466 610.9,465.1 			"/>
	</g>
</g>


    <g>
	<g>
		<g>
			<polygon class="st0" points="347,549.1 265.9,533.2 228.8,538.7 309.1,555.8 			"/>
            <polygon class="st4" points="347,549.1 309.1,555.8 309,572.2 346.9,565 			"/>
            <polygon class="st4" points="309.1,555.8 228.8,538.7 228.7,539.7 228.6,553.7 309,572.2 			"/>
		</g>
	</g>
        <g>
		<g>
			<polygon class="st9" points="612.9,300 618.8,300.6 618.2,261.6 612.3,260.8 			"/>
            <polygon class="st9" points="594.4,298.4 593.8,258.2 574.7,255.5 575.2,296.7 			"/>
            <g>
				<polygon class="st8" points="564.2,245.9 565.6,359.9 570.6,359.9 569.1,245.3 				"/>
                <polygon class="st8" points="565.6,359.9 619.8,360.5 624.6,360.4 570.6,359.9 				"/>
                <path class="st7" d="M622.8,253.6l1.8,106.9l-54.1-0.6l-1.5-114.5L622.8,253.6z M618.2,261.6l-5.9-0.8l0.6,39.3l5.9,0.5
					L618.2,261.6z M574.7,255.5l0.6,41.2l19.2,1.7l-0.6-40.2L574.7,255.5z M619.7,351.5l-0.6-38.7l-17.4-1.3l0.6,39.6L619.7,351.5z
					 M594.6,311l-7.1-0.5l0.6,40.3l7.1,0.2L594.6,311z M575.9,350.5l7.1,0.2l-0.6-40.5l-7.1-0.5L575.9,350.5z M601.5,299l6.8,0.6
					l-0.6-39.5l-6.8-1L601.5,299z"/>
			</g>
            <polygon class="st9" points="601.6,311.5 602.3,351.1 619.7,351.5 619,312.8 			"/>
            <polygon class="st9" points="588.1,350.8 595.2,350.9 594.6,311 587.5,310.5 			"/>
            <polygon class="st9" points="582.4,310.1 575.4,309.6 575.9,350.5 583,350.7 			"/>
            <polygon class="st9" points="607.6,260.1 600.8,259.2 601.5,299 608.2,299.6 			"/>
		</g>
            <g>
			<polygon class="st9" points="521.3,291.8 528.6,292.5 528.2,248.9 520.8,247.9 			"/>
                <polygon class="st9" points="497.9,289.7 497.5,244.6 473.3,241.1 473.6,287.5 			"/>
                <g>
				<polygon class="st8" points="461.3,230.3 461.9,358.9 467,358.8 466.3,229.6 				"/>
                    <polygon class="st8" points="461.9,358.9 530.3,359.6 535.3,359.5 467,358.8 				"/>
                    <path class="st7" d="M534.1,240l1.2,119.5l-68.3-0.7l-0.7-129.2L534.1,240z M528.2,248.9l-7.3-1l0.4,44l7.4,0.7L528.2,248.9z
					 M473.3,241.1l0.3,46.4l24.3,2.2l-0.3-45.2L473.3,241.1z M529.2,349.5l-0.4-43.3l-21.8-1.6l0.4,44.4L529.2,349.5z M498,303.9
					l-9-0.7l0.3,45.3l9,0.2L498,303.9z M473.9,348.2l9,0.2l-0.3-45.7l-9-0.7L473.9,348.2z M506.8,290.5l8.5,0.8L515,247l-8.5-1.2
					L506.8,290.5z"/>
			</g>
                <polygon class="st9" points="506.9,304.6 507.3,349 529.2,349.5 528.7,306.2 			"/>
                <polygon class="st9" points="489.3,348.6 498.3,348.8 498,303.9 489,303.2 			"/>
                <polygon class="st9" points="482.6,302.8 473.6,302.1 473.9,348.2 482.9,348.4 			"/>
                <polygon class="st9" points="515,247 506.4,245.8 506.8,290.5 515.3,291.3 			"/>
		</g>

            <g>
			<g>
				<polygon class="st8" points="222.3,359 281.4,358.3 278.4,358.2 219.3,358.9 				"/>
                <polygon class="st8" points="281.4,358.3 282.4,247.7 279.3,247.4 278.4,358.2 				"/>
                <path class="st7" d="M279.3,247.4l-1,110.9l-59,0.7l1.4-103.3L279.3,247.4z M225.3,263l-1.1,87.7l48.9-1.1l0.9-93L225.3,263z"/>
			</g>
                <polygon class="st9" points="273.1,349.6 273.9,256.7 225.3,263 224.2,350.7 			"/>
		</g>
            <g>
			<polygon class="st8" points="300.9,533.4 328.8,538.7 329.4,416.7 301.7,415.2 301.3,472.2 301.3,481.5 			"/>
                <polygon class="st8" points="295.8,486.7 286.4,485.5 286.5,480.8 283.3,480.4 283.4,471.2 286.6,470.9 286.6,466.1 295.9,467.2
				296.3,414.9 271.3,413.6 270.3,527.7 295.4,532.4 			"/>
                <g>
				<polygon class="st8" points="334.5,548.5 338.4,547.8 339,408.2 335.1,408.4 				"/>
                    <path class="st7" d="M266.5,405.4l68.6,3l-0.7,140.1l-69.2-13.7L266.5,405.4z M329.4,416.7l-27.7-1.5l-0.4,57l-12.7-1.5l-2,0.2
					l0-4.7l9.3,1.1l0.4-52.3l-25-1.3l-1.1,114.1l25.1,4.7l0.3-45.7l-9.3-1.3l0-4.7l9.5,1.2l5.2-0.6l-0.4,52l27.9,5.3L329.4,416.7z"
                    />
                    <polygon class="st7" points="339,408.2 270.4,405.2 266.5,405.4 335.1,408.4 				"/>
                    <polygon class="st7" points="301.3,481.5 301.3,472.2 296.1,472.7 296,482 				"/>
                    <polygon class="st7" points="296,482 296.1,472.7 283.4,471.2 283.3,480.4 286.5,480.8 				"/>
                    <polygon class="st7" points="283.4,471.2 296.1,472.7 301.3,472.2 288.6,470.7 286.6,470.9 				"/>
			</g>
		</g>
            <g>
			<g>
				<polygon class="st8" points="248.9,524.8 250.1,415.5 247,415.6 245.8,525.3 				"/>
                <polygon class="st8" points="250.1,415.5 219.8,413.8 216.8,413.9 247,415.6 				"/>
                <path class="st7" d="M247,415.6l-1.2,109.6l-30.4-5.8l1.4-105.6L247,415.6z M219.2,422.2l-1.2,89.4l25.2,4.5l1.1-92.2
					L219.2,422.2z"/>
			</g>
                <polygon class="st9" points="243.2,516.1 244.2,423.9 219.2,422.2 218,511.6 			"/>
		</g>
            <g>
			<g>
				<polygon class="st8" points="409.7,555.3 409.6,424.6 406.4,424.8 406.5,555.9 				"/>
                <polygon class="st8" points="409.6,424.6 366.8,422.2 363.7,422.3 406.4,424.8 				"/>
                <path class="st7" d="M406.4,424.8l0.1,131.1l-43.1-8.2l0.3-125.3L406.4,424.8z M367.2,432.3L367,538.5l35.7,6.4l0-110.2
					L367.2,432.3z"/>
			</g>
                <polygon class="st9" points="402.7,544.9 402.6,434.7 367.2,432.3 367,538.5 			"/>
		</g>
            <g>
			<g>
				<polygon class="st8" points="332.3,357.7 409.5,356.8 406.4,356.8 329.1,357.7 				"/>
                <polygon class="st8" points="409.5,356.8 409.4,229.9 406.3,229.5 406.4,356.8 				"/>
                <path class="st7" d="M406.3,229.5l0.1,127.3l-77.2,0.9l0.6-117.4L406.3,229.5z M335.8,248.6l-0.5,99.7l64-1.4l0-106.6
					L335.8,248.6z"/>
			</g>
                <polygon class="st9" points="399.3,346.9 399.2,240.2 335.8,248.6 335.3,348.3 			"/>
		</g>
            <g>
			<g>
				<polygon class="st8" points="338,134.6 327.1,127.2 322,126 332.8,133.4 				"/>
                <polygon class="st8" points="338,134.6 332.8,133.4 342.1,145 347.3,146.1 				"/>
                <path class="st7" d="M342.1,145l7.1,15.2l7.9,32.4l-112.2,21.1l6.7-31.6l6-16.6l8-14.7l9.7-12.2l11-9.1l11.9-5.4l12.2-1.3
					L322,126l10.9,7.5L342.1,145z M297.9,135.7l-12.5,58.9l29-5.8L297.9,135.7z M345.3,182.6l-3.7-15.4l-6-13l-7.9-10l-9.3-6.5
					l-10.1-2.8l-5.3,0.5l17.3,52.3L345.3,182.6z M292.7,138l-5.1,2.2l-9.5,7.7l-8.4,10.5l-6.9,12.7l-5.2,14.3l-3.2,15.3l25.4-5.1
					L292.7,138z"/>
                <polygon class="st8" points="322,126 327.1,127.2 315.3,124.1 310.1,122.9 				"/>
                <polygon class="st8" points="362.3,193.5 354.4,161.3 349.2,160.2 357.1,192.6 				"/>
                <polygon class="st8" points="362.3,193.5 357.1,192.6 244.8,213.7 249.9,214.4 				"/>
                <polygon class="st8" points="349.2,160.2 354.4,161.3 347.3,146.1 342.1,145 				"/>
			</g>
                <g>
				<polygon class="st9" points="285.3,194.6 314.3,188.8 297.9,135.7 				"/>
                    <polygon class="st9" points="303.1,135.2 320.4,187.6 345.3,182.6 341.6,167.2 335.6,154.1 327.8,144.1 318.5,137.6
					308.3,134.8 				"/>
                    <polygon class="st9" points="254.3,200.9 279.7,195.7 292.7,138 287.6,140.2 278.1,148 269.7,158.5 262.7,171.2 257.5,185.5
									"/>
			</g>
		</g>
	</g>
</g>
</svg>
