<?xml version="1.0" encoding="utf-8"?>
<!-- Generator: Adobe Illustrator 25.0.1, SVG Export Plug-In . SVG Version: 6.00 Build 0)  -->
<svg version="1.1" id="katman_1" xmlns="http://www.w3.org/2000/svg" x="0px" y="0px"
     viewBox="0 0 841.9 595.3" style="enable-background:new 0 0 841.9 595.3;" xml:space="preserve">
<style type="text/css">
	.st0{fill:#8F6645;}
	.st1{fill:#EEEEEE;}
	.st2{fill:#DDDDDD;}
	.st3{fill:#3D3A37;}
	.st4{fill:#C4C4C4;}
	.st5{fill:#3D3A37;}
	.st6{fill:#000000;}
	.st7{fill:#FFFFFF;}
	.st8{fill:#888888;}
	.st9{fill:#7884AF;}
</style>


    <g id="roof">
	<polygon class="st2" points="252.9,243.2 253.1,234.8 210,230.4 209.8,239.2 			"/>
        <polygon class="st2" points="144.4,258 181.1,214.7 154.4,191.9 104,255 			"/>
        <polygon class="st3" points="253.1,234.8 196.1,189.5 154.6,184 210,230.4 			"/>
        <polygon class="st1" points="104.2,247.5 104,255 154.4,191.9 181.1,214.7 209.8,239.2 210,230.4 154.6,184 			"/>
        <polygon class="st1" points="367.8,215.6 367.8,206.8 186.7,116.2 60.9,256.7 61.7,261.5 186.6,123.1 195.1,127.4 			"/>
        <polygon class="st1" points="367.8,206.8 367.8,215.6 369.6,215.9 768.3,267.7 781,269.3 780.8,264 			"/>
        <polygon class="st3" points="186.7,116.2 367.8,206.8 780.8,264 635,208.3 576.4,197.5 544,184.8 			"/>
        <polygon class="st1" points="61.7,261.5 75.9,262.4 76.1,257.2 195.1,127.4 186.6,123.1 			"/>
</g>


    <g id="chimney">
	<polygon class="st5" points="358.1,45.8 382.5,42.3 382.6,26.9 358.2,30.7 		"/>
        <polygon class="st6" points="382.5,42.3 358.1,45.8 350.7,54 364,57.8 364.1,51.2 364.6,50.2 365.9,49.3 367.8,48.4 370.2,47.7
		372.9,47.2 375.8,46.9 378.6,46.9 381.1,47.1 383.3,47.6 384.8,48.2 385.7,49.1 385.8,50 385.8,55.9 390.3,55.2 398.7,47.2 		"/>
        <polygon class="st5" points="372.9,47.2 370.2,47.7 370,73.4 372.7,74.2 		"/>
        <polygon class="st5" points="367.8,48.4 365.9,49.3 365.7,73.9 367.6,73.2 		"/>
        <polygon class="st5" points="384.8,48.2 383.3,47.6 383.1,77 384.7,77.4 		"/>
        <polygon class="st5" points="383.1,77 383.3,47.6 381.1,47.1 381,76.4 		"/>
        <polygon class="st5" points="384.8,48.2 384.7,77.4 385.5,77.7 385.7,49.1 		"/>
        <polygon class="st5" points="381,76.4 381.1,47.1 378.6,46.9 378.4,75.7 		"/>
        <polygon class="st5" points="378.4,75.7 378.6,46.9 375.8,46.9 375.6,74.9 		"/>
        <polygon class="st5" points="375.6,74.9 375.8,46.9 372.9,47.2 372.7,74.2 		"/>
        <polygon class="st5" points="365.9,49.3 364.6,50.2 364.4,74.3 365.7,73.9 		"/>
        <polygon class="st5" points="385.8,50 385.7,49.1 385.5,77.7 385.8,55.9 		"/>
        <polygon class="st5" points="364.6,50.2 364.1,51.2 364,57.8 363.9,74.5 		"/>
        <polygon class="st5" points="370.2,47.7 367.8,48.4 367.6,73.2 368.4,73 370,73.4 		"/>
        <polygon class="st6" points="401,185.3 401.5,82.1 385.7,77.7 384.7,77.4 383.1,77 381,76.4 378.4,75.7 375.6,74.9 372.7,74.2
		370,73.4 368.4,73 367.6,179.5 		"/>
        <polygon class="st5" points="347.5,80 346.6,166.9 367.6,179.5 368.4,73 367.6,73.2 365.7,73.9 364.4,74.3 		"/>
        <polygon class="st5" points="350.9,39.2 350.7,54 358.1,45.8 358.2,30.7 		"/>
        <polygon class="st6" points="382.5,42.3 398.7,47.2 398.7,32 382.6,26.9 		"/>
        <path class="st5" d="M382.5,42.3l-24.4,3.6 M372.9,47.2l-2.7,0.5"/>
        <path class="st5" d="M367.8,48.4l-1.9,0.8 M384.8,48.2l-1.6-0.7 M383.3,47.6l-2.1-0.5 M381.1,47.1l-2.6-0.2 M365.9,49.3l-1.3,0.9
		 M385.8,50l-0.1-0.9 M375.8,46.9l-2.9,0.3 M378.6,46.9l-2.8,0 M385.7,49.1l-0.9-0.8 M364.6,50.2l-0.6,1 M370.2,47.7l-2.4,0.7"/>
        <line class="st5" x1="350.7" y1="54" x2="358.1" y2="45.8"/>
        <line class="st5" x1="350.9" y1="39.2" x2="358.2" y2="30.7"/>
        <path class="st5" d="M358.2,30.7l-0.1,15.2"/>
        <line class="st5" x1="390.3" y1="55.2" x2="385.8" y2="55.9"/>
        <line class="st5" x1="382.5" y1="42.3" x2="398.7" y2="47.2"/>
        <path class="st5" d="M390.3,55.2l8.4-8.1 M398.7,32l-0.1,15.1"/>
        <line class="st5" x1="382.5" y1="42.3" x2="382.6" y2="26.9"/>
        <path class="st5" d="M398.7,32l-16.1-5.1 M382.6,26.9l-24.4,3.7"/>
</g>


    <g id="body">
	<path class="st4" d="M130.4,436.2l-27.3,1.8l-0.4,12.5l-33.6-5.2l6.6-183.2l0.2-5.2l119-129.8l172.7,88.2l1.9,0.2l-1.3,276.2
		l-113.1-17.6l-33.3-5.2l1.1-54.5l-63.1-5.2l-28.7,1.3L130.4,436.2z M196,189.2l-41.5-5.5L104,247.3l-0.2,7.5l40.5,3l36.7-43.3
		l28.7,24.4l43.1,4l0.1-8.4L196,189.2z"/>
        <polygon class="st4" points="753.5,298.7 753.6,302.9 757.4,406.8 762.9,407.4 759,302.2 757.1,293.1 754.3,284.7 750.7,277.6
		746.6,272.1 742,268.3 737.6,266.8 736.9,266.9 732.4,269.6 730,272.4 732.1,272.7 735.8,273.9 739.2,275.6 742.5,277.8
		745.4,280.4 747.9,283.5 750.1,286.9 751.7,290.7 752.9,294.6 				"/>
        <polygon class="st4" points="763.4,302.1 759,302.2 762.9,407.4 767.4,408.1 				"/>
        <polygon class="st4" points="761.5,292.9 763.4,302.1 767.4,408.1 773.5,407.5 768.2,267.5 369.4,215.6 368.2,491.8
		725.8,443.5 724.7,411.9 724.5,405.4 721,298.9 722.5,289.4 725,281.1 728.4,274.4 730,272.4 732.4,269.6 736.9,266.9
		737.6,266.8 741.7,266.4 746.4,268.1 751,271.8 755.1,277.4 758.7,284.5 				"/>
</g>


    <g id="left-window">
	<polygon class="st9" points="651.7,291.2 648,287.9 643.8,285.6 639.5,284.6 635.1,284.8 630.9,286.4 627.1,289.2 624,293.2
		621.8,298 620.6,303.1 623.1,410.8 661.2,407.9 658.4,305.5 657.1,300.5 654.8,295.5 			"/>
        <g>
		<polygon class="st8" points="616,280.3 611.3,286 616.4,285.7 621,280 				"/>
            <polygon class="st8" points="616,280.3 621,280 626.5,275.9 621.5,276.2 				"/>
            <path class="st7" d="M626.5,275.9l6.2-2.2l6.5-0.3l6.4,1.6l6,3.4l5.3,5l4.4,6.3l3.3,7.2l2.1,7.9l3.2,114.5l-56.2,5.2L611,301.1
				l2-8.2l3.4-7.2l4.6-5.8L626.5,275.9z M643.8,286.1l-4.4-1l-4.4,0.3l-4.2,1.6l-3.7,2.8l-3.1,3.9l-2.3,4.9l-1.2,5l2.5,107.8
				l38.1-2.9L658.4,306l-1.3-5l-2.3-5l-3.1-4.3l-3.7-3.4L643.8,286.1z"/>
            <polygon class="st8" points="616.4,285.7 611.3,286 607.9,293.2 613,292.9 				"/>
            <polygon class="st8" points="621.5,276.2 626.5,275.9 632.7,273.7 627.7,274 				"/>
            <polygon class="st8" points="607.9,293.2 606,301.3 611,301.1 613,292.9 				"/>
            <polygon class="st8" points="611,301.1 606,301.3 608.6,424.2 613.7,424.5 				"/>
            <path class="st8" d="M651.7,291.8l-3.7-3.4 M654.8,296l-3.1-4.3 M657.1,301l-2.3-5 M658.4,306l-1.3-5 M661.2,408.4L658.4,306
				 M623.1,411.3l38.1-2.9 M620.6,303.6l2.5,107.8 M621.8,298.5l-1.2,5 M624,293.7l-2.3,4.9 M627.1,289.7l-3.1,3.9 M630.9,286.9
				l-3.7,2.8 M635.1,285.3l-4.2,1.6 M639.5,285.1l-4.4,0.3 M643.8,286.1l-4.4-1 M648,288.4l-4.1-2.3"/>
            <line class="st8" x1="611.3" y1="286" x2="616" y2="280.3"/>
            <line class="st8" x1="616.4" y1="285.7" x2="621" y2="280"/>
            <line class="st8" x1="607.9" y1="293.2" x2="611.3" y2="286"/>
            <line class="st8" x1="621" y1="280" x2="626.5" y2="275.9"/>
            <path class="st8" d="M621.5,276.2l-5.6,4.1 M632.7,273.7l-5,0.3 M639.2,273.4l-6.5,0.3"/>
            <line class="st8" x1="613" y1="292.9" x2="616.4" y2="285.7"/>
            <line class="st8" x1="606" y1="301.3" x2="607.9" y2="293.2"/>
            <path class="st8" d="M613,292.9l-2,8.2 M611,301.1l-5.1,0.2"/>
            <path class="st8" d="M664.7,296.9l-3.3-7.2 M666.8,304.7l3.2,114.5"/>
            <path class="st8" d="M613.7,424.5L611,301.1 M632.7,273.7l-6.2,2.2"/>
            <path class="st8" d="M645.6,275l-6.4-1.6 M651.6,278.4l-6-3.4 M656.9,283.4l-5.3-5 M661.4,289.6l-4.4-6.3 M666.8,304.7
				l-2.1-7.9 M670,419.3l-56.2,5.2 M608.6,424.2L606,301.3 M627.7,274l-6.2,2.2 M613.7,424.5l-5.1-0.3"/>
		</g>
</g>


    <g>
	<g>
		<polygon class="st0" points="163.6,475 222.1,469.2 223.1,414.6 193.4,416.2 192.7,444.1 164.3,446.3 				"/>
        <polygon class="st0" points="163.6,475 164.3,446.3 104,438.1 103.6,450.6 103.1,464.3 				"/>
        <polygon class="st4" points="223.1,414.6 160.7,409.4 132,410.7 193.4,416.2 				"/>
        <polygon class="st0" points="132,410.7 131.2,436.3 192.7,444.1 193.4,416.2 				"/>
        <polygon class="st4" points="726.7,443.6 775.5,437 774.4,407.6 768.3,408.1 725.6,411.9 				"/>
        <polygon class="st4" points="725.6,411.9 768.3,408.1 763.8,407.9 758.3,407.1 725.4,405.4 				"/>
        <polygon class="st4" points="131.2,436.3 104,438.1 164.3,446.3 192.7,444.1 				"/>
	</g>

        <g>

		<g>
			<path class="st7" d="M293.2,385.5l-8.4-6.4l-7-9.8l-5.2-12.5l-3.1-14.3l-0.9-15.2l1.4-15.3l3.6-14.4l5.5-12.6l7.2-10.1l8.5-6.8
				l9.2-3l9.4,1.1l8.9,5.3l7.8,9.2l6,12.6l3.8,15.1l1.2,16.5l-1.5,16.7l-4.1,15.5l-6.3,13.2l-8,9.9l-9.1,6l-9.5,1.7L293.2,385.5z
				 M276.4,353l4.6,10.9l6.1,8.6l7.4,5.6l8.1,2.1l8.3-1.6l7.9-5.3l7-8.7l5.5-11.5l3.5-13.5l1.3-14.5l-1-14.4l-3.3-13.2l-5.2-11
				l-6.7-8.1l-7.7-4.7l-8.2-1l-8.1,2.6l-7.4,5.9l-6.4,8.8l-4.9,11l-3.1,12.6l-1.2,13.4l0.8,13.4L276.4,353z"/>
            <polygon class="st9" points="272.8,327 273.6,340.4 276.4,353 281,363.9 287.1,372.4 294.5,378 302.6,380.1 310.9,378.6
				318.8,373.3 325.8,364.6 331.3,353.1 334.8,339.6 336.1,325.1 335.1,310.7 331.8,297.6 326.6,286.5 319.9,278.5 312.1,273.8
				303.9,272.7 295.9,275.3 288.4,281.2 282.1,290 277.2,301 274.1,313.6 			"/>
		</g>


            <g>
			<polygon class="st9" points="513.3,280.4 508.1,276.3 502.3,273.6 496.1,272.2 489.9,272.5 483.9,274.3 478.5,277.5
				473.9,282.2 470.5,288 468.7,294 469.6,423.2 523.9,419 522.4,297.4 520.7,291.5 517.5,285.5 			"/>
                <g>
				<polygon class="st8" points="464.7,266.2 457.9,273 463.1,272.6 469.9,265.8 				"/>
                    <polygon class="st8" points="464.7,266.2 469.9,265.8 478,261 472.7,261.5 				"/>
                    <path class="st7" d="M478,261l8.9-2.5l9.2-0.2l9,2.1l8.4,4.2l7.4,6l6.1,7.5l4.5,8.6l2.7,9.3l1.9,135.7l-80.3,7.5L455,290.8
					l3-9.7l5.1-8.5l6.8-6.8L478,261z M502.3,273.6l-6.2-1.3l-6.3,0.2l-6,1.8l-5.4,3.3l-4.5,4.7l-3.4,5.8l-1.8,6l0.9,129.2l54.4-4.2
					l-1.5-121.6l-1.7-5.9l-3.1-5.9l-4.2-5.1l-5.1-4.1L502.3,273.6z"/>
                    <polygon class="st8" points="463.1,272.6 457.9,273 452.8,281.4 458,281.1 				"/>
                    <polygon class="st8" points="472.7,261.5 478,261 486.8,258.5 481.6,259 				"/>
                    <polygon class="st8" points="452.8,281.4 449.8,291.1 455,290.8 458,281.1 				"/>
                    <polygon class="st8" points="455,290.8 449.8,291.1 450.4,438.7 455.7,439.2 				"/>
                    <path class="st12" d="M513.3,280.4l-5.1-4.1 M517.5,285.5l-4.2-5.1 M520.7,291.5l-3.1-5.9 M522.4,297.4l-1.7-5.9 M523.9,419
					l-1.5-121.6 M469.6,423.2l54.4-4.2 M468.7,294l0.9,129.2 M470.5,288l-1.8,6 M473.9,282.2l-3.4,5.8 M478.5,277.5l-4.5,4.7
					 M483.9,274.3l-5.4,3.3 M489.9,272.5l-6,1.8 M496.1,272.2l-6.3,0.2 M502.3,273.6l-6.2-1.3 M508.1,276.3l-5.8-2.8"/>
                    <line class="st8" x1="457.9" y1="273" x2="464.7" y2="266.2"/>
                    <line class="st8" x1="463.1" y1="272.6" x2="469.9" y2="265.8"/>
                    <line class="st8" x1="452.8" y1="281.4" x2="457.9" y2="273"/>
                    <line class="st8" x1="469.9" y1="265.8" x2="478" y2="261"/>
                    <path class="st8" d="M472.7,261.5l-8.1,4.7 M486.8,258.5l-5.2,0.5 M496,258.4l-9.2,0.2"/>
                    <line class="st8" x1="458" y1="281.1" x2="463.1" y2="272.6"/>
                    <line class="st8" x1="449.8" y1="291.1" x2="452.8" y2="281.4"/>
                    <path class="st8" d="M458,281.1l-3,9.7 M455,290.8l-5.2,0.3"/>
                    <path class="st8" d="M531.5,286.7l-4.5-8.6 M534.2,296l1.9,135.7"/>
                    <path class="st8" d="M455.7,439.2L455,290.8 M486.8,258.5L478,261"/>
                    <path class="st8" d="M505,260.4l-9-2.1 M513.4,264.6l-8.4-4.2 M520.9,270.6l-7.4-6 M527,278.1l-6.1-7.5 M534.2,296l-2.7-9.3
					 M536,431.7l-80.3,7.5 M450.4,438.7l-0.7-147.6 M481.6,259l-8.9,2.5 M455.7,439.2l-5.3-0.5"/>
			</g>
		</g>


            <g>
			<g>
				<g class="st7">
					<polygon class="st7" points="207.2,350.5 207.4,340.8 203.2,340.9 203,350.5 					"/>
                    <polygon class="st7" points="207.4,340.8 207.2,350.5 211.8,350.5 212,340.8 					"/>
				</g>
                <polygon class="st7" points="211.8,350.5 207.2,350.5 203,350.5 207.6,350.5 				"/>
                <path class="st8" d="M160.2,263.3l60.5-7.9l-3.3,159.5l-61.2-5.2L160.2,263.3z M207.4,340.8l-4.2,0.1l-0.2,9.6l4.6,0l4.2,0
					l0.2-9.6L207.4,340.8z"/>
                <polygon class="st7" points="220.7,255.4 217.4,414.9 222.1,414.7 225.3,255.8 				"/>
                <path class="st7" d="M207.4,340.8l-0.2,9.7 M212,340.8l-0.2,9.6 M207.2,350.5l4.6,0"/>
                <line class="st7" x1="212" y1="340.8" x2="207.4" y2="340.8"/>
                <line class="st7" x1="207.6" y1="350.5" x2="211.8" y2="350.5"/>
                <line class="st7" x1="207.6" y1="350.5" x2="203" y2="350.5"/>
                <line class="st7" x1="203" y1="350.5" x2="207.2" y2="350.5"/>
                <path class="st7" d="M203.2,340.9l4.2-0.1 M203,350.5l0.2-9.6 M156.2,409.8l61.2,5.2"/>
                <line class="st7" x1="217.4" y1="414.9" x2="220.7" y2="255.4"/>
                <path class="st7" d="M160.2,263.3l-4,146.5 M160.2,263.3l60.5-7.9 M225.3,255.8l-3.2,158.9 M222.1,414.7l-4.7,0.3 M225.3,255.8
					l-4.6-0.4"/>
			</g>
                <g>
				<path class="st7" d="M183.5,308.3l26.2-40.3 M209.7,268l5.2,8 M214.9,276l-20.8,50.6 M179.4,405.1l2.6-77.9 M165.9,281l3.4-8.5
					"/>
                    <line class="st7" x1="165.9" y1="281" x2="181.9" y2="329.3"/>
                    <line class="st7" x1="194.1" y1="326.5" x2="192.3" y2="405.1"/>
                    <line class="st7" x1="179.4" y1="405.1" x2="191.3" y2="405.1"/>
                    <line class="st7" x1="169.4" y1="272.5" x2="183.5" y2="308.3"/>
			</g>
		</g>
	</g>

</g>
</svg>
