<?xml version="1.0" encoding="utf-8"?>
<!-- Generator: Adobe Illustrator 25.0.1, SVG Export Plug-In . SVG Version: 6.00 Build 0)  -->
<svg version="1.1" id="katman_1" xmlns="http://www.w3.org/2000/svg" x="0px" y="0px"
     viewBox="0 0 841.9 595.3" style="enable-background:new 0 0 841.9 595.3;" xml:space="preserve">
<style type="text/css">
	.st0{fill:#8F6645;}
	.st1{fill:#EEEEEE;}
	.st2{fill:#DDDDDD;}
	.st3{fill:#3D3A37;}
	.st4{fill:#C4C4C4;}
	.st5{fill:#3D3A37;}
	.st6{fill:#000000;}
	.st7{fill:#FFFFFF;}
	.st8{fill:#888888;}
	.st9{fill:#7884AF;}
</style>


    <g id="roof">
	<polygon class="st1" points="574.1,227.4 574.3,236.2 618.9,231.5 618.6,222.3 		"/>
        <polygon class="st3" points="636.9,179.4 574.1,227.4 618.6,222.3 680.2,173.2 		"/>
        <polygon class="st2" points="652.3,204.4 696,252.8 738.7,249.2 680.5,181.6 		"/>
        <polygon class="st1" points="618.6,222.3 618.9,231.5 652.3,204.4 680.5,181.6 738.7,249.2 738.4,241.1 680.2,173.2 		"/>
        <polygon class="st2" points="177.4,257.7 177.5,250.7 120.3,275.4 120.1,282.6 123.3,281.2 170.8,260.5 		"/>
        <polygon class="st3" points="177.5,250.7 107.1,260.3 84.8,269.6 51.7,283.4 120.3,275.4 		"/>
        <polygon class="st3" points="264.1,176.9 68.7,255.3 446.6,198.8 645.1,101.2 		"/>
        <polygon class="st1" points="68.7,255.3 70.6,260.7 85.2,258.7 447.5,207 449,206.8 446.6,198.8 		"/>
        <polygon class="st1" points="446.6,198.8 449,206.8 636.5,112.9 645.4,108.5 790.5,257.1 790.2,250.6 645.1,101.2 		"/>
        <polygon class="st2" points="774.7,258.3 790.5,257.1 645.4,108.5 636.5,112.9 774.5,252.5 		"/>
        <polygon class="st2" points="120.3,275.4 51.7,283.4 51.4,290.1 66.1,288.5 120.1,282.6 		"/>
</g>


    <g id="chimney">
	<polygon class="st6" points="521.5,45.8 523.2,45.1 525.5,44.7 528.2,44.4 531.2,44.4 534.2,44.7 537,45.1 539.4,45.8 541.3,46.5
		542.5,47.4 543,48.3 543.1,54 556.3,50.5 549,42.9 523.6,40 506.4,44.8 514.6,52.3 520.3,53 520.2,47.4 520.5,46.5 		"/>
        <polygon class="st6" points="523.2,45.1 521.5,45.8 522.1,76 523.8,75.5 		"/>
        <polygon class="st6" points="525.5,44.7 523.2,45.1 523.8,75.5 526.1,75 		"/>
        <polygon class="st6" points="522.1,76 521.5,45.8 520.5,46.5 521,76.2 		"/>
        <polygon class="st6" points="549,42.9 556.3,50.5 555.9,35 548.6,27.1 		"/>
        <polygon class="st5" points="542.5,47.4 541.3,46.5 541.9,72.6 543.1,73 		"/>
        <polygon class="st5" points="539.4,45.8 537,45.1 537.5,72.1 539,71.8 540,72 		"/>
        <polygon class="st5" points="525.5,44.7 526.1,75 528.8,74.3 528.2,44.4 		"/>
        <polygon class="st5" points="528.2,44.4 528.8,74.3 531.8,73.5 531.2,44.4 		"/>
        <polygon class="st5" points="537,45.1 534.2,44.7 534.7,72.8 537.5,72.1 		"/>
        <polygon class="st5" points="543,48.3 542.5,47.4 543.1,73 543.1,54 		"/>
        <polygon class="st5" points="520.5,46.5 520.2,47.4 520.3,53 520.8,76.3 		"/>
        <polygon class="st5" points="534.2,44.7 531.2,44.4 531.8,73.5 534.7,72.8 		"/>
        <polygon class="st5" points="541.3,46.5 539.4,45.8 540,72 541.9,72.6 		"/>
        <polygon class="st5" points="506.4,44.8 523.6,40 523.3,24 506.1,29 		"/>
        <polygon class="st5" points="504.8,189 526.3,193 562.7,187.3 541.3,183 		"/>
        <polygon class="st5" points="503,80.7 504.8,189 541.3,183 539,71.8 537.5,72.1 534.7,72.8 531.8,73.5 528.8,74.3 526.1,75
		523.8,75.5 522.1,76 521,76.2 		"/>
        <polygon class="st6" points="539,71.8 541.3,183 562.7,187.3 560.2,78.1 543.5,73.1 541.9,72.6 540,72 		"/>
        <polygon class="st5" points="523.3,24 523.6,40 549,42.9 548.6,27.1 		"/>
</g>


    <g id="body">
	<polygon class="st0" points="178.6,250.1 178.5,257.1 171.9,259.9 167.1,464.7 451.2,493 448.6,206.4 86.3,258.1 85.9,269
		108.2,259.7 		"/>
        <path class="st4" d="M448.6,206.4l1.6-0.2l187.5-93.9l138,139.5l0.3,5.8l9.6,200.9l-44.9,4.6l-0.8-18.1l-28.8-1.4l-1.1-27.6
		l-31-0.9l-70.4,3.1l1.6,58.3l-159,16.4L448.6,206.4z M620,230.9l33.5-27.1l43.6,48.4l42.7-3.7l-0.4-8.1l-58.1-67.9l-43.3,6.2
		l-62.8,48l0.2,8.9L620,230.9z"/>
        <polygon class="st0" points="60.9,461.4 118.9,467.7 124.4,280.6 121.2,282 67.2,287.9 		"/>
        <polygon class="st4" points="124.4,280.6 118.9,467.7 167.1,464.7 171.9,259.9 		"/>
</g>


    <g id="right-window">
	<g>
		<path class="st7" d="M269.9,292.4l-1.3,99.2l-50.9-0.5l1.7-94.4L269.9,292.4z M241.8,337.8l0.5-31.7l-14.7,1.1l-0.5,31.3
			L241.8,337.8z M261.4,342.4l-14.1,0.5l-0.6,37.7l14.2,0L261.4,342.4z M247.4,337.5l14.1-0.6l0.4-32.3l-14.1,1.1L247.4,337.5z
			 M241.1,380.6l0.6-37.4l-14.7,0.6l-0.7,36.9L241.1,380.6z"/>
        <polygon class="st8" points="269.9,292.4 268.6,391.7 275.1,391.6 276.3,292.8 			"/>
	</g>
        <g>
		<polygon class="st9" points="227.7,307.2 227.1,338.5 241.8,337.8 242.3,306.1 			"/>
            <polygon class="st9" points="246.8,380.6 260.9,380.6 261.4,342.4 247.3,343 			"/>
            <polygon class="st9" points="262,304.6 247.9,305.7 247.4,337.5 261.5,336.9 			"/>
            <polygon class="st9" points="227,343.8 226.4,380.7 241.1,380.6 241.7,343.2 			"/>
	</g>
</g>


    <g>
	<g>
		<polygon class="st4" points="709.3,415.6 679,414.8 608.6,417.9 639.7,418.9 		"/>
        <polygon class="st0" points="710.4,443.2 709.3,415.6 639.7,418.9 640.6,448.6 		"/>
        <polygon class="st0" points="640.6,448.6 639.7,418.9 608.6,417.9 610.2,476.2 671.2,480.8 670.2,450.2 		"/>
        <polygon class="st4" points="640.6,448.6 670.2,450.2 739.2,444.6 710.4,443.2 		"/>
        <polygon class="st0" points="670.2,450.2 671.2,480.8 740.4,472.8 740,462.8 739.2,444.6 		"/>
	</g>


        <g>
		<g>
			<g class="st7">
				<polygon class="st7" points="685.6,347.6 685.3,337.5 680.8,337.3 681.2,347.5 				"/>
                <polygon class="st7" points="676.3,347.6 681.2,347.5 680.8,337.3 676,337.5 				"/>
			</g>
            <polygon class="st7" points="618.3,417.5 613.4,240.9 608.4,241.4 613.2,417.4 			"/>
            <path class="st8" d="M613.4,240.9l70.9,9.3l5.9,164.2l-71.9,3.2L613.4,240.9z M680.8,337.3l-4.9,0.1l0.4,10.1l4.4,0.1l4.9-0.1
				l-0.4-10.1L680.8,337.3z"/>
            <path class="st8" d="M631,261.7l26.2,40.3 M625.8,269.7l5.2-8 M646.6,320.3l-20.8-50.6 M658.7,320.9l2.6,77.9 M671.3,266.2
				l3.4,8.5"/>
            <line class="st7" x1="674.8" y1="274.8" x2="658.8" y2="323.1"/>
            <line class="st7" x1="646.6" y1="320.3" x2="648.4" y2="398.8"/>
            <line class="st7" x1="661.3" y1="398.8" x2="649.3" y2="398.8"/>
            <line class="st7" x1="671.3" y1="266.2" x2="657.2" y2="302"/>
		</g>
	</g>


        <g>
		<g>
			<path class="st7" d="M109.2,299.4l-2.8,91.2l-39.4-0.4l3.1-87L109.2,299.4z M86.6,341.1l1-29.2l-11.4,1l-1,28.8L86.6,341.1z
				 M101.7,345.4l-10.9,0.5l-1.1,34.6l11,0L101.7,345.4z M90.9,340.9l10.9-0.5l0.9-29.8l-10.9,0.9L90.9,340.9z M85.3,380.5l1.2-34.5
				L75,346.5l-1.2,34L85.3,380.5z"/>
            <polygon class="st8" points="109.2,299.4 106.3,390.6 113,390.6 115.8,299.8 			"/>
		</g>
            <g>
			<polygon class="st9" points="76.2,312.8 75.2,341.6 86.6,341.1 87.6,311.8 			"/>
                <polygon class="st9" points="89.6,380.5 100.6,380.5 101.7,345.4 90.8,345.9 			"/>
                <polygon class="st9" points="102.8,310.6 91.9,311.5 90.9,340.9 101.9,340.3 			"/>
                <polygon class="st9" points="75,346.5 73.8,380.5 85.3,380.5 86.4,346.1 			"/>
		</g>
	</g>


        <g>
		<g>
			<path class="st7" d="M389.5,281.9l0.1,110.9l-63.3-0.6l0.7-104.8L389.5,281.9z M337.1,339.5l-0.2,41l18.3,0l0.1-41.7
				L337.1,339.5z M355.3,332.7l0.1-35.3l-18.1,1.4l-0.2,34.7L355.3,332.7z M379.8,337.8l-17.6,0.7l-0.1,42l17.7,0V337.8z
				 M362.3,332.4l17.5-0.8v-36.1l-17.5,1.3L362.3,332.4z"/>
            <polygon class="st8" points="389.5,281.9 389.7,392.8 396.3,392.7 396.1,282.4 			"/>
		</g>
            <g>
			<polygon class="st9" points="355.3,338.9 337.1,339.5 336.9,380.5 355.2,380.5 			"/>
                <polygon class="st9" points="337.3,298.8 337.1,333.5 355.3,332.7 355.4,297.4 			"/>
                <polygon class="st9" points="362.2,380.5 379.8,380.4 379.8,337.8 362.3,338.5 			"/>
                <polygon class="st9" points="379.8,295.5 362.4,296.9 362.3,332.4 379.8,331.6 			"/>
		</g>
	</g>
        <g>
		<path class="st7" d="M732.1,381.7l-6.8-5.5l-6.1-8.9l-4.9-11.7l-3.4-13.6l-1.5-14.6l0.4-14.4l2.3-13.2l4-11.1l5.3-8.1l6.3-4.7
			l6.9-1.1l6.9,2.6l6.5,6l5.7,8.9l4.5,11.3l3.1,12.9l1.5,13.7l-0.2,13.6l-1.9,12.7l-3.6,11l-5,8.6l-6.1,5.5l-6.8,1.9L732.1,381.7z
			 M717.2,352.2l4.3,10.2l5.3,7.8l5.9,4.8l6.2,1.6l5.9-1.7l5.3-4.7l4.3-7.5l3.1-9.6l1.7-11.2l0.2-12l-1.3-12l-2.7-11.3l-4-9.9
			l-5-7.8l-5.7-5.2l-6-2.2l-6,1l-5.5,4.2l-4.7,7.1l-3.4,9.7l-2,11.5l-0.3,12.6l1.3,12.7L717.2,352.2z"/>
            <polygon class="st9" points="712.9,327.7 714.2,340.3 717.2,352.2 721.4,362.4 726.8,370.1 732.7,375 738.9,376.6 744.8,374.9
			750.1,370.2 754.5,362.7 757.6,353.1 759.3,341.9 759.5,330 758.2,318 755.5,306.7 751.5,296.8 746.5,289 740.8,283.8 
			734.8,281.6 728.8,282.6 723.3,286.8 718.7,294 715.2,303.6 713.2,315.1 		"/>
	</g>
</g>
</svg>
