<?xml version="1.0" encoding="utf-8"?>
<!-- Generator: Adobe Illustrator 25.0.1, SVG Export Plug-In . SVG Version: 6.00 Build 0)  -->
<svg version="1.1" id="katman_1" xmlns="http://www.w3.org/2000/svg" x="0px" y="0px"
     viewBox="0 0 841.9 595.3" style="enable-background:new 0 0 841.9 595.3;" xml:space="preserve">
<style type="text/css">
	.st0{fill:#8F6645;}
	.st1{fill:#EEEEEE;}
	.st2{fill:#DDDDDD;}
	.st3{fill:#3D3A37;}
	.st4{fill:#C4C4C4;}
	.st5{fill:#3D3A37;}
	.st6{fill:#000000;}
	.st7{fill:#FFFFFF;}
	.st8{fill:#888888;}
	.st9{fill:#7884AF;}
</style>


    <g id="chimney">
	<polygon class="st6" points="520.7,64.8 522.3,65.1 523.3,65.5 523.8,69.7 526.4,69.4 535.7,64.8 524.2,62 503.3,64 494.6,68.7
		505.4,71.2 505.4,67.6 506.3,66.6 507.6,66.1 509.4,65.6 511.6,65.2 514,64.9 516.4,64.7 518.7,64.7 		"/>
        <polygon class="st5" points="522.3,65.1 520.7,64.8 520.8,88.7 522.4,89.1 		"/>
        <polygon class="st5" points="523.3,65.5 522.3,65.1 522.4,89.1 523.5,89.3 		"/>
        <polygon class="st5" points="520.8,88.7 520.7,64.8 518.7,64.7 518.8,88.3 		"/>
        <polygon class="st5" points="523.3,65.5 523.5,89.3 523.8,69.7 523.8,65.9 		"/>
        <polygon class="st5" points="516.4,64.7 514,64.9 514.1,87.2 516.5,87.8 		"/>
        <polygon class="st5" points="514.1,87.2 514,64.9 511.6,65.2 511.7,87.2 512.7,86.9 		"/>
        <polygon class="st5" points="516.4,64.7 516.5,87.8 518.8,88.3 518.7,64.7 		"/>
        <polygon class="st5" points="511.7,87.2 511.6,65.2 509.4,65.6 509.5,87.6 		"/>
        <polygon class="st5" points="506.3,66.6 505.6,67.1 505.6,88.4 506.4,88.2 		"/>
        <polygon class="st5" points="507.6,66.1 506.3,66.6 506.4,88.2 507.7,88 		"/>
        <polygon class="st5" points="505.6,67.1 505.4,71.2 505.5,88.4 		"/>
        <polygon class="st5" points="509.4,65.6 507.6,66.1 507.7,88 509.5,87.6 		"/>
        <polygon class="st5" points="493.3,90.9 493.6,175.8 513.2,173.4 512.7,86.9 511.7,87.2 509.5,87.6 507.7,88 506.4,88.2
		505.6,88.4 		"/>
        <polygon class="st6" points="513.2,173.4 493.6,175.8 517.4,178.8 536.9,176.5 		"/>
        <polygon class="st6" points="512.7,86.9 513.2,173.4 536.9,176.5 536.3,92.1 523.9,89.4 522.4,89.1 520.8,88.7 518.8,88.3
		516.5,87.8 514.1,87.2 		"/>
        <polygon class="st5" points="524.2,62 535.7,64.8 535.6,52.4 524.1,49.5 		"/>
        <polygon class="st5" points="524.2,62 524.1,49.5 503.3,51.6 503.3,64 		"/>
        <polygon class="st5" points="503.3,64 503.3,51.6 494.5,56.5 494.6,68.7 		"/>
</g>


    <g id="body">
	<polygon class="st4" points="161.8,267.5 159.2,377 161.6,377.2 164.2,267.4 			"/>
        <polygon class="st4" points="73.9,264.3 68.9,264.1 65.2,383.1 70.2,382.9 70.2,382 			"/>
        <polygon class="st4" points="364.8,232.6 357.6,223.1 348.9,215.6 339,210.5 328.5,208.2 320.9,208.6 311.2,211.9 301.6,218.3
			293.3,227.4 286.8,238.7 282.5,251.7 280.6,386.6 372.8,395.4 373.7,256.2 370.2,243.8 			"/>
        <polygon class="st4" points="391.3,210.4 390.3,397.1 390.2,436.5 473.3,447.8 472.8,201.8 298.2,112.2 274.7,134.5 399.2,203.8
			399.2,211.1 			"/>
        <polygon class="st0" points="564.1,447.4 638.7,436.3 638.5,425.1 635.8,250.7 563.2,246.1 562.2,245.6 			"/>
        <polygon class="st4" points="564.1,447.4 562.2,245.6 516.7,222.3 518,441.7 			"/>
        <polygon class="st4" points="86.2,227.1 84.1,228.9 82.2,231.4 80.3,234.3 78.7,237.8 77.3,241.6 76.1,245.8 75.1,250.2
			74.4,254.8 74,259.5 73.9,264.3 70.2,382 74.7,381.8 78.3,264.9 82.2,255 88.1,246.3 95.6,239.3 104.3,234.2 113.4,231.4
			123.5,230.7 133.1,232.3 142,236.1 149.8,241.8 156.3,249.2 161.2,257.8 164.2,267.4 161.6,377.2 174.1,376.5 177.5,223.3
			130,220.3 90.5,225.2 88.4,225.8 			"/>
        <polygon class="st4" points="85.5,224.9 90.5,225.2 130,220.3 234.4,207.4 230.7,206.8 			"/>
        <polygon class="st4" points="251.3,229.1 249.6,224.2 247.6,219.8 245.2,216 177.5,223.3 174.1,376.5 252,383.9 254.2,251.8
			254.1,245.8 253.5,240 252.6,234.4 			"/>
        <polygon class="st0" points="472.8,201.8 473.3,447.8 518,441.7 516.7,222.3 508.4,218.1 508.4,210.5 597.8,219.1 651.7,244.5
			651.8,251.8 635.8,250.7 638.5,425.1 780.9,405.6 776.2,232.6 473,201.9 			"/>
        <polygon class="st2" points="239.9,210.2 236.9,208.4 234.4,207.4 130,220.3 177.5,223.3 245,215.8 242.6,212.8 			"/>
</g>


    <g id="roof">
	<polygon class="st1" points="399.2,211 399.2,203.8 263.7,191.2 263.6,199.4 267.2,199.7 391.3,210.4 			"/>
        <polygon class="st1" points="263.6,199.4 263.7,191.2 143,114.2 49.2,221 49,227.1 142.8,121 150.2,125.8 			"/>
        <polygon class="st3" points="263.7,191.2 399.2,203.8 274.7,134.4 266.1,133.2 262.1,131 143,114.2 			"/>
        <polygon class="st1" points="274.7,134.4 298.2,112.1 291.6,108.7 266.1,133.2 			"/>
        <polygon class="st1" points="266.1,133.2 291.6,108.7 298.2,112.1 472.8,201.8 475.2,195.1 291.7,102.3 262.1,131 			"/>
        <polygon class="st3" points="291.7,102.3 475.2,195.1 791.2,229.2 613.3,156.3 			"/>
        <polygon class="st1" points="791.2,229.2 475.2,195.1 473.1,201.9 776.2,232.6 789.5,233.9 			"/>
        <polygon class="st2" points="142.8,121 49,227.1 63,227.8 63.2,222.7 150.2,125.8 			"/>
        <polygon class="st1" points="651.9,251.7 651.7,244.5 563.2,238.1 563.2,246.1 635.9,250.7 			"/>
        <polygon class="st3" points="563.2,238.1 651.7,244.5 597.8,219.1 508.4,210.5 			"/>
        <polygon class="st1" points="563.2,246.1 563.2,238.1 508.4,210.5 508.4,218 516.8,222.3 562.3,245.6 			"/>
</g>

    <g id="right-window">
	<g>
		<path class="st7" d="M686.1,277.2l1.6,80.2l-40.3,2l-1.4-84.1L686.1,277.2z M665.9,312.9l-0.5-27.1l-12.1-0.4l0.5,27.4
			L665.9,312.9z M681.1,317.5l-10.7,0l0.6,31.7l10.8-0.4L681.1,317.5z M670.3,312.9l10.7,0l-0.5-26.6l-10.7-0.4L670.3,312.9z
			 M666.5,349.3l-0.6-31.8l-12.1,0l0.5,32.3L666.5,349.3z"/>
        <polygon class="st8" points="647.3,359.4 645.9,275.3 640.1,275.5 641.5,359.2 				"/>
	</g>
        <g>
			<polygon class="st9" points="653.3,285.4 653.8,312.8 665.9,312.9 665.4,285.8 				"/>
            <polygon class="st9" points="671,349.2 681.7,348.7 681.1,317.5 670.4,317.5 				"/>
            <polygon class="st9" points="680.5,286.4 669.8,286 670.3,312.9 681.1,313 				"/>
            <polygon class="st9" points="653.9,317.5 654.4,349.8 666.5,349.3 666,317.5 				"/>
	</g>
</g>

    <g>
	<g>
		<g>
			<polygon class="st0" points="131.9,434.2 186.9,444.2 187.3,423.3 132.4,414.8 132.1,428.3 			"/>
            <polygon class="st4" points="132.4,414.8 187.3,423.3 210.1,421.3 154.4,413 			"/>
            <polygon class="st4" points="187.3,423.3 186.9,444.2 209.7,441.9 210.1,421.3 			"/>
            <polygon class="st4" points="132.4,414.8 154.4,413 210.1,421.3 209.7,441.9 263.3,451.2 264,407.3 251.7,405.8 65.2,383.1
				58.1,382.2 57,415.1 132.1,428.3 			"/>
            <polygon class="st0" points="74.7,381.8 70.3,382 70.2,382.8 65.2,383.1 251.7,405.8 252.1,383.9 174.1,376.5 161.6,377.2
				159.2,376.9 74.7,381.4 			"/>
            <polygon class="st4" points="390.2,436.4 390.4,397.1 376.8,398.2 280.3,406 264,407.3 263.3,451.2 			"/>
            <polygon class="st0" points="372.8,395.4 280.6,386.6 280.3,406 376.8,398.2 372.8,397.8 			"/>
		</g>
	</g>

        <g>
		<g>
			<g>
				<path class="st7" d="M756.9,280.5l1.9,73.4l-33.6,1.6l-1.7-76.6L756.9,280.5z M740.3,313.2l-0.6-24.7l-10.1-0.4l0.6,25
					L740.3,313.2z M753.1,317.4l-9,0l0.7,28.9l9-0.3L753.1,317.4z M744,313.2l9,0l-0.6-24.3l-9-0.3L744,313.2z M741.1,346.5
					l-0.7-29.1l-10.1,0l0.7,29.4L741.1,346.5z"/>
                <polygon class="st8" points="725.2,355.6 723.4,278.9 717.8,279.1 719.5,355.4 				"/>
			</g>
            <g>
				<polygon class="st9" points="729.6,288.1 730.2,313.2 740.3,313.2 739.7,288.5 				"/>
                <polygon class="st9" points="744.8,346.3 753.8,346 753.1,317.4 744.1,317.4 				"/>
                <polygon class="st9" points="752.3,289 743.4,288.6 744,313.2 752.9,313.3 				"/>
                <polygon class="st9" points="730.3,317.4 731,346.9 741.1,346.5 740.4,317.4 				"/>
			</g>
		</g>

            <g>
			<path class="st7" d="M629.9,270.4l1.4,93.7l-50.7,2.7l-1.1-99L629.9,270.4z M610,317.4l0.5,37.1l13.5-0.6l-0.5-36.6L610,317.4z
				 M604.4,312l-0.4-31.7l-15.2-0.6l0.4,32.2L604.4,312z M609.9,312l13.4,0.1l-0.5-31.1l-13.4-0.5L609.9,312z M604.9,354.7
				l-0.5-37.3l-15.2,0l0.4,38L604.9,354.7z"/>
                <polygon class="st8" points="580.6,366.7 579.5,267.8 573,268 574.1,366.5 			"/>
                <g>
				<polygon class="st9" points="623.4,317.5 610,317.4 610.5,354.5 624,353.9 				"/>
                    <polygon class="st9" points="588.7,279.7 589.1,311.9 604.4,312 603.9,280.3 				"/>
                    <polygon class="st9" points="622.9,281 609.5,280.5 609.9,312 623.4,312.1 				"/>
                    <polygon class="st9" points="589.2,317.4 589.6,355.4 604.9,354.7 604.4,317.4 				"/>
			</g>
		</g>
	</g>
        <g>
		<g>
			<g>
				<polygon class="st9" points="219.4,312.6 259.1,313 260.2,239 220.7,242 220.5,252.4 223.9,252.6 229.1,254.6 233.7,258.1
					237.5,263 240.3,268.8 241.8,275.4 220.1,276.2 				"/>
                <polygon class="st9" points="215.9,242.4 180.6,245.1 179.1,312.2 214.6,312.5 215.3,276.3 195.5,277 197.1,270.7 199.8,264.9
					203.5,259.8 208,255.9 213,253.3 215.7,252.8 				"/>
			</g>
            <g>
				<polygon class="st9" points="259.1,313 263.5,312.9 264.6,239.2 260.2,239 				"/>
                <polygon class="st9" points="220.1,276.2 241.8,275.4 240.3,268.8 237.5,263 233.7,258.1 229.1,254.6 223.9,252.6 220.5,252.4
									"/>
                <polygon class="st9" points="213,253.3 208,255.9 203.5,259.8 199.8,264.9 197.1,270.7 195.5,277 215.3,276.3 215.7,252.8
					"/>
                <polygon class="st9" points="215.9,242.4 215.7,252.8 215.3,276.3 214.6,312.5 219.4,312.6 220.1,276.2 220.5,252.4 220.7,242
									"/>
			</g>
		</g>
            <g>
			<polygon class="st9" points="308,272.4 305.4,277.4 303,283.2 301.1,289.4 299.7,296 298.8,302.8 298.4,309.7 298.6,316.6
				299.3,323.5 300.6,330.1 302.4,336.4 304.6,342.3 307.1,347.3 309.8,342.6 312.2,336.8 314.2,330.5 315.6,323.8 316.6,316.9
				316.9,309.8 316.7,302.8 315.9,295.8 314.6,289.2 312.8,282.9 310.5,277.2 			"/>
                <polygon class="st7" points="305.4,277.4 308,272.4 305,277.3 			"/>
                <polygon class="st7" points="307.1,347.3 304.6,342.3 306.9,347.7 			"/>
                <polygon class="st7" points="304.6,342.3 302.4,336.4 304.2,342.3 			"/>
                <polygon class="st7" points="303,283.2 305.4,277.4 302.6,283.2 			"/>
                <polygon class="st7" points="302.4,336.4 300.6,330.1 302,336.4 			"/>
                <polygon class="st7" points="300.6,330.1 299.3,323.5 300.2,330.1 			"/>
                <polygon class="st7" points="299.3,323.5 298.6,316.6 298.9,323.5 			"/>
                <polygon class="st7" points="298.6,316.6 298.4,309.7 298.2,316.6 			"/>
                <polygon class="st7" points="298.4,309.7 298.8,302.8 298,309.7 			"/>
                <polygon class="st7" points="298.8,302.8 299.7,296 298.4,302.8 			"/>
                <polygon class="st7" points="299.7,296 301.1,289.4 299.3,296 			"/>
                <polygon class="st7" points="301.1,289.4 303,283.2 300.7,289.4 			"/>
                <polygon class="st7" points="333.3,318.6 329.3,318.5 326.4,318.6 330.5,318.6 			"/>
                <g>
				<g>
					<polygon class="st7" points="343.6,392.7 345,227.9 338.9,227.5 337.4,393.2 					"/>
                    <path class="st8" d="M279.6,232.4l59.3-4.9l-1.5,165.7l-59.9-5.8L279.6,232.4z M307.1,347.3l2.6-4.8l2.4-5.8l2-6.3l1.5-6.7
						l0.9-6.9l0.4-7.1l-0.2-7.1l-0.8-6.9l-1.3-6.6l-1.8-6.3l-2.3-5.8l-2.7-5.1l-2.8,5.3l-2.4,5.8l-1.9,6.2l-1.4,6.6l-0.9,6.8
						l-0.4,6.9l0.2,6.9l0.7,6.8l1.3,6.6l1.8,6.3l2.3,5.9l2.7,5.4L307.1,347.3z M333.3,318.6l-4.1-0.1l-2.8,0l-2.1,5.6l2,5.7l4.1,0.1
						l2.8-0.1l2.1-5.7L333.3,318.6z"/>
				</g>
                    <g>
					<polygon class="st7" points="333.2,330 335.3,324.3 332.4,324.4 330.3,330.1 					"/>
                        <polygon class="st7" points="335.3,324.3 333.3,318.6 330.5,318.6 332.4,324.4 					"/>
                        <polygon class="st7" points="324.3,324.2 326.3,329.9 330.3,330.1 332.4,324.4 330.5,318.6 326.4,318.6 					"/>
				</g>
			</g>
		</g>
	</g>
        <polygon class="st4" points="361.2,222.9 368.5,232.5 373.9,243.8 377.4,256.1 376.5,398.4 390.1,397.3 391,210.6 266.8,199.9
		263.7,407.5 280,406.2 280.3,386.8 282.2,251.9 286.5,238.9 293,227.6 301.3,218.5 310.9,212.1 320.6,208.8 321.4,208.5 
		332.2,207.9 342.7,210.3 352.5,215.4 	"/>
        <polygon class="st0" points="57.7,382.4 64.9,383.3 68.6,264.3 68.8,259.6 69.2,254.8 69.8,250.2 70.8,245.8 72,241.6 73.4,237.7
		75.1,234.3 76.9,231.3 78.8,228.9 80.9,227 83,225.7 85.2,225.1 230.4,207 233.5,207.4 236.6,208.6 239.6,210.4 242.4,213 
		244.7,216 247.3,220 249.3,224.4 251,229.3 252.3,234.6 253.3,240.2 253.8,246 253.9,252 251.7,384.1 251.4,406 263.7,407.5 
		266.8,199.9 263.3,199.6 149.8,126 62.9,222.9 62.7,228 	"/>
</g>
</svg>
