<?xml version="1.0" encoding="utf-8"?>
<!-- Generator: Adobe Illustrator 25.0.1, SVG Export Plug-In . SVG Version: 6.00 Build 0)  -->
<svg version="1.1" id="katman_1" xmlns="http://www.w3.org/2000/svg" x="0px" y="0px"
     viewBox="0 0 841.9 595.3" style="enable-background:new 0 0 841.9 595.3;" xml:space="preserve">
<style type="text/css">
	.st0{fill:#8F6645;}
	.st1{fill:#EEEEEE;}
	.st2{fill:#DDDDDD;}
	.st3{fill:#3D3A37;}
	.st4{fill:#C4C4C4;}
	.st5{fill:#3D3A37;}
	.st6{fill:#000000;}
	.st7{fill:#FFFFFF;}
	.st8{fill:#888888;}
	.st9{fill:#7884AF;}
</style>

    <g id="roof">
	<polygon class="st1" points="590.1,90.5 584.5,85.4 577.8,89 580.9,91.9 		"/>
        <g>
		<polygon class="st1" points="781.6,207 797.8,206.3 679.5,85.6 671.4,90.4 781.5,201.2 			"/>
            <polygon class="st1" points="797.8,206.3 797.6,199.3 679.4,77.6 517.7,171.2 517.7,180.9 671.4,90.4 679.5,85.6 			"/>
            <polygon class="st3" points="584.5,78.5 248.7,130.7 58.3,210.2 517.7,171.2 679.4,77.6 596.5,89.6 590.1,90.5 580.9,91.9
			569,93.6 549.9,96.4 			"/>
            <polygon class="st1" points="596.5,89.6 584.5,78.5 549.9,96.4 569,93.6 577.8,89 584.5,85.4 590.1,90.5 			"/>
            <polygon class="st1" points="517.7,180.9 517.7,171.2 58.3,210.2 58.2,216.1 72.2,215 515.9,181 			"/>
            <polygon class="st1" points="725.8,215.4 726.8,210.9 725.6,210.5 720,210.1 			"/>
            <polygon class="st1" points="725.8,215.4 720,210.1 717.9,209.9 711.8,210.9 712,215.9 			"/>
	</g>
</g>

    <g id="chimney">
	<polygon class="st6" points="266.9,35.7 279,40.7 279.6,36.7 280.9,35.8 282.6,35.5 284.7,35.4 287.2,35.4 289.9,35.6
		292.6,35.9 295.1,36.3 297.2,36.8 298.9,37.4 299.9,38 300.2,42.5 301.8,42.6 313,39.7 301.5,34.7 278,32.7 		"/>
        <polygon class="st5" points="282.6,35.5 280.9,35.8 280.7,62.3 282.3,62 		"/>
        <polygon class="st5" points="280.7,62.3 280.9,35.8 279.9,36.2 279.7,62.6 		"/>
        <polygon class="st5" points="282.6,35.5 282.3,62 284.5,61.5 284.7,35.4 		"/>
        <polygon class="st5" points="279.7,62.6 279.9,36.2 279.6,40.7 279.4,62.6 		"/>
        <polygon class="st5" points="299.9,38 298.9,37.4 298.7,61.4 299.7,61.6 		"/>
        <polygon class="st5" points="298.7,61.4 298.9,37.4 297.2,36.8 297,61.1 		"/>
        <polygon class="st5" points="299.9,38 299.7,61.6 300.2,42.5 300.2,38.5 		"/>
        <polygon class="st5" points="297,61.1 297.2,36.8 295.1,36.3 294.9,60.7 		"/>
        <polygon class="st5" points="289.9,35.6 287.2,35.4 287,60.9 289.7,60.2 		"/>
        <polygon class="st5" points="292.6,35.9 289.9,35.6 289.7,60.2 290.9,60 292.4,60.2 		"/>
        <polygon class="st5" points="287.2,35.4 284.7,35.4 284.5,61.5 287,60.9 		"/>
        <polygon class="st5" points="295.1,36.3 292.6,35.9 292.4,60.2 294.9,60.7 		"/>
        <polygon class="st5" points="313.1,143.9 313.7,64.1 300.1,61.6 298.7,61.4 297,61.1 294.9,60.7 292.4,60.2 290.9,60 290.2,151
				"/>
        <polygon class="st6" points="313.1,143.9 292.6,150.3 266.6,157.4 290.2,151 		"/>
        <polygon class="st6" points="290.2,151 290.9,60 289.7,60.2 287,60.9 284.5,61.5 282.3,62 280.7,62.3 279.7,62.6 267.4,65.5
		266.6,157.4 		"/>
        <polygon class="st5" points="313,39.7 313.1,26.4 301.6,21.1 301.5,34.7 		"/>
        <polygon class="st5" points="301.5,34.7 301.6,21.1 278.2,18.9 278,32.7 		"/>
        <polygon class="st6" points="266.9,35.7 278,32.7 278.2,18.9 267,22.1 		"/>
</g>


    <g>
	<g>
		<g>
			<polygon class="st4" points="397.6,410.2 397.6,456.5 517.1,477.7 516.9,426.1 499.4,423.8 			"/>
            <polygon class="st0" points="672,375.4 658.5,374.4 533.2,389.8 533.4,423.5 775.8,385.2 770.3,384.7 770.3,383.3 766.3,382.9
				714.3,378.2 674.9,375.1 			"/>
            <polygon class="st0" points="706.9,445.9 765.2,433 765.1,425.5 764.9,412.8 706.6,424 			"/>
            <polygon class="st4" points="706.9,445.9 706.6,424 682.9,421.3 683.1,442.8 			"/>
            <polygon class="st0" points="706.6,424 764.9,412.8 742,410.4 682.9,421.3 			"/>
            <polygon class="st4" points="533.4,423.5 516.9,426.1 517.1,477.7 683.1,442.8 682.9,421.3 742,410.4 764.9,412.8 765.1,425.5
				785.5,421.2 784.8,383.8 775.8,385.2 			"/>
            <polygon class="st0" points="499.4,394 402.9,405.9 402.9,409.5 397.6,410.2 499.4,423.8 			"/>
		</g>


        <g>
			<polygon class="st4" points="556.7,188.9 552.6,190.9 551.8,191.5 657.2,200.2 682.8,198.8 559.7,188.1 			"/>
            <polygon class="st4" points="689.9,221.8 682.8,230.1 677.5,239.8 674.1,250.6 675.6,374.7 715,377.8 712.7,215.6 712.6,210.7
				708.2,211.3 698.5,215.5 			"/>
            <polygon class="st4" points="679.9,229.9 687,221.7 695.6,215.3 705.3,211.1 715.7,209.3 718.6,209.5 720.7,209.7 726.3,210.2
				727.4,210.5 736.6,213.6 746,219.5 754.1,227.7 760.5,237.7 764.7,249.1 766.9,381.9 770.9,382.9 768.6,248.8 768.4,243.5
				767.8,238.3 767,233.2 765.8,228.3 764.3,223.7 762.6,219.4 760.7,215.6 758.5,212.2 756.2,209.4 753.6,207.2 751,205.5
				748.4,204.5 682.8,198.8 657.2,200.2 659.2,374 672.6,375.1 671.1,250.5 674.5,239.7 			"/>
            <polygon class="st4" points="533.1,234.5 533.2,241.7 533.9,389.5 659.2,374 657.2,200.2 551.8,191.5 548.6,193.9 545,197.7
				541.7,202.4 538.9,207.8 536.5,213.8 534.8,220.4 533.6,227.3 			"/>
            <polygon class="st4" points="499.5,241.7 495.1,226.2 488.3,212.7 479.5,201.8 469.3,194 458.2,189.5 451.9,189 440.8,191.6
				430.4,197.3 421.1,205.9 413.4,217 407.6,230 403.9,244.3 403.6,405.6 500,393.7 			"/>
            <polygon class="st4" points="398.7,244.1 398.3,409.8 403.6,409.2 403.6,405.6 403.9,244.3 			"/>
            <polygon class="st4" points="671.1,250.5 672.6,375.1 675.6,374.7 674.1,250.6 			"/>
            <polygon class="st4" points="581.6,91.5 578.4,88.7 569.7,93.3 			"/>
            <polygon class="st4" points="776.5,384.8 774.1,248.7 768.6,248.8 770.9,382.9 771,384.4 			"/>
		</g>
	</g>

        <g>
		<g>
			<polygon class="st9" points="500.1,309.9 554.3,307.7 553.8,225.4 499.9,222.8 499.9,235.6 505,236.4 512.7,239.5 519.4,244.2
				524.9,250.2 528.8,257.4 531,265.2 500,265 			"/>
            <polygon class="st9" points="492.6,222.5 431.7,219.6 431.6,312.6 492.8,310.2 492.7,265 460.2,264.8 462.8,256.5 467.2,249.1
				473.2,242.9 480.4,238.4 488.4,235.8 492.6,235.4 			"/>
            <g>
				<polygon class="st9" points="427,312.4 431.6,312.6 431.7,219.6 427.1,219.8 				"/>
                <polygon class="st9" points="500,265 531,265.2 528.8,257.4 524.9,250.2 519.4,244.2 512.7,239.5 505,236.4 499.9,235.6 				"/>
                <polygon class="st9" points="488.4,235.8 480.4,238.4 473.2,242.9 467.2,249.1 462.8,256.5 460.2,264.8 492.7,265 492.6,235.4
									"/>
                <polygon class="st9" points="492.6,222.5 492.6,235.4 492.7,265 492.8,310.2 500.1,309.9 500,265 499.9,235.6 499.9,222.8
					"/>
			</g>
		</g>


            <g>
			<polygon class="st7" points="612.4,269.8 614.7,275.5 612.8,269.8 			"/>
                <polygon class="st9" points="614.7,275.5 612.4,269.8 609.8,265 607.4,269.8 605.1,275.6 603.3,281.8 602,288.4 601.3,295.3
				601.1,302.3 601.4,309.2 602.3,316.1 603.7,322.6 605.6,328.8 607.9,334.4 610.5,339 612.9,334 615.1,328.1 616.9,321.8
				618.1,315.2 618.8,308.5 619,301.6 618.7,294.8 617.9,288.1 616.5,281.6 			"/>
                <polygon class="st7" points="614.7,275.5 616.5,281.6 615.1,275.5 			"/>
                <polygon class="st7" points="616.5,281.6 617.9,288.1 616.9,281.6 			"/>
                <polygon class="st7" points="617.9,288.1 618.7,294.8 618.3,288.1 			"/>
                <polygon class="st7" points="609.8,265 612.4,269.8 610,264.6 			"/>
                <polygon class="st7" points="618.7,294.8 619,301.6 619.1,294.8 			"/>
                <polygon class="st7" points="619,301.6 618.8,308.5 619.4,301.6 			"/>
                <polygon class="st7" points="618.8,308.5 618.1,315.2 619.3,308.5 			"/>
                <polygon class="st7" points="618.1,315.2 616.9,321.8 618.5,315.2 			"/>
                <polygon class="st7" points="616.9,321.8 615.1,328.1 617.3,321.8 			"/>
                <polygon class="st7" points="615.1,328.1 612.9,334 615.5,328.1 			"/>
                <polygon class="st7" points="612.9,334 610.5,339 613.3,334 			"/>
                <polygon class="st7" points="629.1,314.8 630.9,320.1 633.8,320.2 631.9,314.9 			"/>
                <polygon class="st7" points="634.4,309.2 630.8,309.4 633.6,309.4 637.2,309.3 			"/>
                <polygon class="st7" points="630.8,309.4 629.1,314.8 631.9,314.9 633.6,309.4 			"/>
                <g>
				<polygon class="st7" points="573.7,221.6 574.8,384.5 581,385 579.8,221.4 				"/>
                    <path class="st8" d="M579.8,221.4l57.8,3.1l0.9,88.7l-1.3-3.9l-2.8-0.1l-3.6,0.2l-1.7,5.4l1.8,5.3l2.8,0.1l3.6-0.2l1.3-4
					l0.6,61.8L581,385L579.8,221.4z M615.5,328.1l1.7-6.3l1.2-6.6l0.7-6.8l0.2-6.9l-0.3-6.8l-0.8-6.7l-1.4-6.5l-1.8-6.1l-2.3-5.7
					l-2.9-4.8l-2.5,4.8l-2.2,5.8l-1.8,6.2l-1.3,6.6l-0.8,6.9l-0.2,7l0.3,7l0.9,6.8l1.4,6.5l1.9,6.2l2.4,5.6l2.8,5l2.7-5.4
					L615.5,328.1z"/>
                    <polygon class="st8" points="631.9,314.9 633.8,320.2 637.3,320 638.6,315.9 639,314.5 638.5,313.2 637.2,309.3 633.6,309.4
									"/>
			</g>
		</g>
	</g>


        <line class="st4" x1="500.1" y1="423.5" x2="517.6" y2="425.8"/>
        <g>
		<polygon class="st0" points="763.5,211.6 765.7,215 767.6,218.8 769.3,223.1 770.8,227.7 771.9,232.6 772.8,237.7 773.4,243
			773.6,248.3 776,384.4 785,383 781.8,206.2 781.7,200.5 671.5,89.6 517.9,180.1 516.1,180.2 517.1,425.4 533.6,422.8 533.4,389.1
			532.7,241.3 532.6,234 533.1,226.9 534.3,220 536.1,213.4 538.4,207.4 541.2,202 544.5,197.3 548.1,193.4 551.3,191.1
			552.1,190.5 556.2,188.5 559.2,187.7 560.5,187.4 564.8,187.3 753.4,203.8 756.1,204.8 758.7,206.5 761.2,208.8 		"/>
            <polygon class="st4" points="517.1,425.4 516.1,180.2 72.4,214.2 68.9,397.1 397.7,455.7 397.8,409.4 398.2,243.7 401.9,229.3
			407.7,216.3 415.4,205.2 424.6,196.5 435.1,190.7 446.3,188.2 451.4,188.6 457.7,189.1 468.8,193.5 479,201.4 487.8,212.3
			494.6,225.8 499.1,241.2 499.5,393.2 499.6,423 		"/>
	</g>
        <g>
		<g>
			<polygon class="st9" points="157.4,244.6 153.9,241.6 150,239.8 145.9,239.3 141.8,240.1 137.9,242.2 134.5,245.3 131.7,249.5
				129.5,254.3 128.3,259.2 126.6,361.1 162,365.4 163.6,258.8 162.4,253.7 160.3,248.7 			"/>
            <g>
				<polygon class="st8" points="177.7,256.8 175.8,248.6 170.6,248.6 172.4,256.8 				"/>
                <polygon class="st8" points="168.2,235.4 163,231 157.8,230.8 163,235.2 				"/>
                <path class="st7" d="M134.5,232l5.6-3.1l6-1.3l6,0.6l5.8,2.6l5.2,4.4l4.3,6l3.2,7.3l1.9,8.2l-1.8,121.9l-52.1-7.2l2-114
					l1.9-7.8l3.1-7.1l4.1-6L134.5,232z M150,239.8l-4.1-0.5l-4.1,0.8l-3.9,2l-3.4,3.2l-2.8,4.1l-2.1,4.9l-1.2,4.9l-1.7,101.9
					l35.3,4.4l1.6-106.6l-1.1-5.1l-2.1-5l-2.9-4.1l-3.5-3L150,239.8z"/>
                <polygon class="st8" points="151.2,227.8 146.1,227.6 152.1,228.3 157.2,228.4 				"/>
                <polygon class="st8" points="157.2,228.4 152.1,228.3 157.8,230.8 163,231 				"/>
                <polygon class="st8" points="172.6,241.3 168.2,235.4 163,235.2 167.4,241.2 				"/>
                <polygon class="st8" points="175.8,248.6 172.6,241.3 167.4,241.2 170.6,248.6 				"/>
                <polygon class="st8" points="176,378.3 177.7,256.8 172.4,256.8 170.7,378.7 				"/>
			</g>
		</g>
	</g>
</g>

    <g id="left-window">
	<polygon class="st9" points="293.1,240.1 288.2,236.6 282.8,234.5 277.2,234 271.6,234.9 266.4,237.4 261.7,241.1 257.9,245.9
		255.1,251.6 253.5,257.3 252.3,376.2 300.8,382.2 301.8,256.7 300.1,250.8 297.1,244.9 			"/>
        <g>
		<polygon class="st8" points="319.5,254.8 316.8,245.2 311.3,245.1 314,254.7 				"/>
            <polygon class="st8" points="306.2,229.6 299,224.6 293.5,224.3 300.7,229.5 				"/>
            <path class="st7" d="M261.6,225.9l7.6-3.6l8.1-1.5l8.3,0.7l8,2.9l7.2,5.1l6,7l4.5,8.6l2.7,9.7l-1,143.7l-71.6-9.9l1.4-132.7
			l2.5-9.1l4.1-8.3l5.5-7.1L261.6,225.9z M282.8,234.9l-5.6-0.6l-5.6,1l-5.2,2.4l-4.7,3.7l-3.8,4.8l-2.8,5.7l-1.6,5.7l-1.2,118.9
			l48.5,6l1-125.4l-1.6-6l-3-5.8l-4-4.8l-4.9-3.5L282.8,234.9z"/>
            <polygon class="st8" points="282.7,220.9 277.3,220.7 285.6,221.4 291,221.6 				"/>
            <polygon class="st8" points="291,221.6 285.6,221.4 293.5,224.3 299,224.6 				"/>
            <polygon class="st8" points="312.3,236.6 306.2,229.6 300.7,229.5 306.8,236.5 				"/>
            <polygon class="st8" points="316.8,245.2 312.3,236.6 306.8,236.5 311.3,245.1 				"/>
            <polygon class="st8" points="318.5,397.8 319.5,254.8 314,254.7 313,398.4 				"/>
	</g>
</g>

</svg>
