<?xml version="1.0" encoding="utf-8"?>
<!-- Generator: Adobe Illustrator 25.0.1, SVG Export Plug-In . SVG Version: 6.00 Build 0)  -->
<svg version="1.1" id="katman_1" xmlns="http://www.w3.org/2000/svg" x="0px" y="0px"
     viewBox="0 0 841.9 595.3" style="enable-background:new 0 0 841.9 595.3;" xml:space="preserve">
<style type="text/css">
	.st0{fill:#8F6645;}
	.st1{fill:#EEEEEE;}
	.st2{fill:#DDDDDD;}
	.st3{fill:#3D3A37;}
	.st4{fill:#C4C4C4;}
	.st5{fill:#3D3A37;}
	.st6{fill:#000000;}
	.st7{fill:#FFFFFF;}
	.st8{fill:#888888;}
	.st9{fill:#7884AF;}
</style>
    <g id="roof">
	<g>
		<polygon class="st1" points="111.8,360.6 115.8,365.8 126.5,360.5 213.8,317.9 320.9,360 347.9,370.6 348,359.9 214,304.6 		"/>
        <polygon class="st3" points="214,304.6 348,359.9 526.3,360.4 391.1,313.1 301.4,308.8 		"/>
        <polygon class="st1" points="348,359.9 347.9,370.6 499.7,369.5 526.3,369.3 526.3,360.4 		"/>
        <polygon class="st2" points="126.5,360.5 115.8,365.8 126.4,365.7 		"/>
	</g>

        <g>
		<polygon class="st2" points="301.9,249.2 559.6,219 568,218 547.3,214.5 269.3,248.5 290.4,250.6 		"/>
            <polygon class="st1" points="547.3,214.5 568,218 567.7,193.3 664.3,104.7 669.8,99.6 753.6,228.7 754.1,249.6 767.8,251.9
			767,222.5 669.1,64.7 546.9,175.3 		"/>
            <polygon class="st2" points="754.1,249.6 753.6,228.7 746.1,229.4 746.6,250.2 		"/>
            <polygon class="st2" points="746.1,229.4 753.6,228.7 669.8,99.6 664.3,104.7 		"/>
            <polygon class="st2" points="754.1,249.6 746.6,250.2 746.7,253.6 767.8,251.9 		"/>
            <polygon class="st1" points="547.3,214.5 546.9,175.3 269.6,218.2 269.3,248.5 		"/>
            <polygon class="st3" points="546.9,175.3 669.1,64.7 401,124.6 269.6,218.2 		"/>
	</g>
</g>

    <g id="body">
	<polygon class="st0" points="319.2,581.2 500.7,545.2 499.7,369.5 347.9,370.6 320.9,360 		"/>
        <polygon class="st0" points="319.2,581.2 320.9,360 213.8,317.9 126.5,360.5 126.4,365.7 122.5,537.6 		"/>
        <polygon class="st0" points="499.7,369.5 500.7,545.2 563.3,555 559.6,219 301.9,249.2 301.4,308.8 391.1,313.1 526.3,360.4
		526.3,369.3 		"/>
        <polygon class="st4" points="746.1,229.4 664.3,104.7 567.7,193.3 568,218 559.6,219 563.3,555 753.3,512.5 746.7,253.6
		746.6,250.2 		"/>
</g>

    <g id="left-window">
	<g>
		<g>
			<polygon class="st8" points="527.7,333.5 526.9,234.1 522.4,233.4 523.2,333.4 				"/>
            <polygon class="st8" points="462.8,335.1 527.7,333.5 523.2,333.4 458.2,335 				"/>
            <path class="st7" d="M458.2,335l-0.3-94.4l64.4-7.2l0.8,100L458.2,335z M516.5,325.2l-0.6-82.9l-21.8,2.3l0.3,44.4l-30.4,2
				l0.1,35.9L516.5,325.2z M464,283.5l25.5-1.8l-0.2-36.6l-25.4,2.7L464,283.5z"/>
		</g>
        <polygon class="st9" points="464,291 464.1,326.9 516.5,325.2 515.9,242.3 494.1,244.6 494.4,289 			"/>
        <polygon class="st9" points="489.3,245.1 463.8,247.8 464,283.5 489.5,281.7 			"/>
	</g>
</g>


    <g id="chimney">
	<path class="st6" d="M463.7,4.1l0.5,172.5l-27.1,3.7V12.9L463.7,4.1z M441.7,80.9l18.3-4.6l0-17.2l0-9.4l-0.1-27.6l-14.3,4.5
		l-5.1,1.6l0,53L441.7,80.9z"/>
        <path class="st5" d="M500.6,65.7l0.5,85.4l-37,25.5L463.7,4.1L500.6,65.7z M494.6,67.2l-26.5-47.6l0.1,43.5l0,9.3l0,2.2l1,0.3
			l4.8,1.4l21.8,6.4l-0.1-13.3L494.6,67.2z"/>
        <polygon class="st6" points="474,76.2 474,72.4 468.2,63.1 468.2,72.4 469.2,74 469.2,74.9 			"/>
        <polygon class="st6" points="474,72.4 474,76.2 495.8,82.6 495.7,69.3 494.6,67.2 			"/>
        <polygon class="st5" points="468.2,63.1 474,72.4 494.6,67.2 468.1,19.6 			"/>
        <polygon class="st5" points="459.9,49.8 445.5,26.6 440.4,28.2 440.4,81.3 441.7,80.9 441.7,29.9 460,59.2 			"/>
        <polygon class="st5" points="445.5,26.6 459.9,49.8 459.9,22.2 			"/>
</g>


    <g>
	<g>
		<g>
			<g>
				<polygon class="st8" points="583,334.2 652.2,336.6 656.9,336.5 587.8,334.1 				"/>
                <polygon class="st8" points="581.6,228.1 583,334.2 587.8,334.1 586.4,227.6 				"/>
                <path class="st7" d="M656.9,336.5l-69.1-2.4l-1.4-106.6l68.7,11.5L656.9,336.5z M630.1,242.2l-39.1-6.2l1.2,90.3l39.3,1.8
					L630.1,242.2z M653,329.1l-1.6-83.5l-15.6-2.5l1.5,85.2L653,329.1z"/>
			</g>
            <polygon class="st9" points="592.3,326.4 631.6,328.1 630.1,242.2 591,236.1 			"/>
            <polygon class="st9" points="635.9,243.1 637.3,328.4 653,329.1 651.4,245.6 			"/>
		</g>
        <polygon class="st4" points="654.3,384.2 585.1,386.3 590,386.4 659,384.3 		"/>
        <g>
			<g>
				<polygon class="st8" points="585.1,386.3 586.5,495 591.4,495.5 590,386.4 				"/>
                <path class="st7" d="M660.9,483.9l-69.5,11.6L590,386.4l69.1-2.1L660.9,483.9z M633.9,392.6l-39.3,1.6l1.3,92.5l39.5-6.2
					L633.9,392.6z M656.9,477.1l-1.6-85.4l-15.6,0.6l1.5,87.2L656.9,477.1z"/>
			</g>
            <polygon class="st9" points="595.9,486.7 635.4,480.5 633.9,392.6 594.6,394.2 			"/>
            <polygon class="st9" points="639.7,392.4 641.2,479.6 656.9,477.1 655.3,391.7 			"/>
		</g>
        <polygon class="st4" points="669.7,337.2 725.4,339.1 729.8,339 674.3,337.1 		"/>
        <g>
			<g>
				<polygon class="st8" points="667.8,242.4 669.7,337.2 674.3,337.1 672.4,242 				"/>
                <path class="st7" d="M729.8,339l-55.5-1.9l-1.9-95.2l55.2,9.3L729.8,339z M707.5,254.5l-31.4-4.9l1.7,80.7l31.5,1.4L707.5,254.5
					z M726.6,332.4l-1.9-75.2l-12.6-2l1.8,76.6L726.6,332.4z"/>
			</g>
            <polygon class="st9" points="677.8,330.2 709.3,331.6 707.5,254.5 676.1,249.5 			"/>
            <polygon class="st9" points="712.1,255.2 713.9,331.8 726.6,332.4 724.7,257.2 			"/>
		</g>
        <g>
			<g>
				<polygon class="st8" points="650.8,132.8 587.8,195.2 593.2,194.5 656,131.8 				"/>
                <polygon class="st8" points="650.8,132.8 656,131.8 655.8,119.7 650.6,120.7 				"/>
                <path class="st7" d="M655.8,119.7l72,107.6L657.6,213l-0.1-5l-64.3-13.5l62.8-62.6L655.8,119.7z M711.8,214.4l-50.2-74.2
					l1.2,63.6L711.8,214.4z M604,190.9l53.3,11.6l-1.2-64.1L604,190.9z"/>
                <polygon class="st8" points="593.2,194.5 587.8,195.2 652.2,208.6 657.5,208 				"/>
                <polygon class="st8" points="657.6,213 657.5,208 652.2,208.6 652.3,213.6 				"/>
                <polygon class="st8" points="727.8,227.3 657.6,213 652.3,213.6 722.7,227.8 				"/>
			</g>
            <polygon class="st9" points="661.6,140.2 662.9,203.7 711.8,214.4 			"/>
            <polygon class="st9" points="657.3,202.5 656.1,138.5 604,190.9 			"/>
		</g>
        <polygon class="st4" points="727.4,382 671.8,383.7 676.4,383.8 731.8,382.1 		"/>
        <g>
			<g>
				<polygon class="st8" points="671.8,383.7 673.7,480.5 678.4,481 676.4,383.8 				"/>
                <path class="st7" d="M734.1,471.6l-55.7,9.3l-2-97.2l55.4-1.7L734.1,471.6z M711.6,389.5l-31.5,1.3l1.7,82.4l31.6-5L711.6,389.5
					z M730.8,465.5l-1.9-76.7l-12.6,0.5l1.9,78.2L730.8,465.5z"/>
			</g>
            <polygon class="st9" points="681.9,473.2 713.5,468.2 711.6,389.5 680.2,390.7 			"/>
            <polygon class="st9" points="716.3,389.3 718.1,467.5 730.8,465.5 728.9,388.7 			"/>
		</g>
	</g>
</g>
</svg>
