<?xml version="1.0" encoding="utf-8"?>
<!-- Generator: Adobe Illustrator 25.0.1, SVG Export Plug-In . SVG Version: 6.00 Build 0)  -->
<svg version="1.1" id="katman_1" xmlns="http://www.w3.org/2000/svg" x="0px" y="0px"
     viewBox="0 0 841.9 595.3" style="enable-background:new 0 0 841.9 595.3;" xml:space="preserve">
<style type="text/css">
	.st0{fill:#8F6645;}
	.st1{fill:#EEEEEE;}
	.st2{fill:#DDDDDD;}
	.st3{fill:#3D3A37;}
	.st4{fill:#C4C4C4;}
	.st5{fill:#3D3A37;}
	.st6{fill:#000000;}
	.st7{fill:#FFFFFF;}
	.st8{fill:#888888;}
	.st9{fill:#7884AF;}
</style>

    <g id="roof">
	<polygon class="st1" points="681.4,250.4 681.4,220.1 456.2,186.7 456.2,228.4 			"/>
        <polygon class="st3" points="456.2,186.7 681.4,220.1 528.9,121.6 378.1,84.1 349.1,76.9 336.4,73.7 327.6,71.5 323.1,70.4
			293.2,62.9 			"/>
        <polygon class="st2" points="681.4,250.4 456.2,228.4 425.7,230.9 433,231.5 645,250.9 654,251.7 			"/>
        <polygon class="st1" points="425.7,230.9 456.2,228.4 456.2,186.7 293.2,62.9 178,221.1 178,251.1 192.7,249.9 192.7,230.1
			293.2,99.8 298.4,103.8 425.7,202.8 			"/>
        <polygon class="st2" points="199.7,230.6 298.4,103.8 293.2,99.8 192.7,230.1 			"/>
        <polygon class="st2" points="199.7,230.6 192.7,230.1 192.7,249.9 199.6,250.2 			"/>
        <polygon class="st1" points="199.6,250.2 192.7,249.9 178,251.1 199.6,252.2 			"/>

        <g>
		<polygon class="st3" points="199.6,330.9 133,353.8 199.6,358.3 			"/>
            <polygon class="st1" points="133,353.8 133,359.9 154.2,361.5 199.6,365 199.6,358.3 			"/>
	</g>

</g>


    <g id="body">
	<polygon class="st0" points="645.2,500.7 645.1,354.1 645,250.9 433,231.5 433,575.8 645.2,509.1 			"/>
        <polygon class="st4" points="433,231.5 425.7,230.9 425.7,202.8 298.4,103.8 199.7,230.6 199.6,250.2 199.6,252.2 199.6,330.9
			199.6,358.3 199.6,365 199.5,489.2 199.4,511.3 433,575.8 			"/>
        <polygon class="st0" points="154.1,478 199.5,489.2 199.6,365 154.2,361.5 			"/>
</g>


    <g id="chimney">
	<polygon class="st6" points="378.1,84.1 352,57.1 323.1,49.2 349.1,76.9 			"/>
        <polygon class="st5" points="323.1,49.2 323.1,70.4 327.6,71.5 327.6,68.6 327.6,63 333.4,70 336.4,73.7 349.1,76.9 			"/>
        <polygon class="st5" points="327.6,63 327.6,68.6 333.4,70 			"/>
</g>


    <g id="right-window">
	<g>
		<polygon class="st8" points="471.4,251.7 471.4,362.8 475.7,363 475.7,251.4 				"/>
        <path class="st7" d="M475.7,251.4l150.4,13l0.1,90.7l-150.4,8L475.7,251.4z M564.1,266.6l0,33.8l25.9,0.7l0-32.5L564.1,266.6z
			 M552.5,351.2l0-33.1l-29.5-0.1l0,34.5L552.5,351.2z M590.1,349.6l0-31.4l-25.9-0.1l0,32.6L590.1,349.6z M599.4,269.3l0,32.1
			l23.1,0.6l0-31L599.4,269.3z M511.5,352.9l0-35l-30.3-0.1l0,36.4L511.5,352.9z M481.2,260.4l0,37.7l30.3,0.9l0-36.3L481.2,260.4
			z M523,263.5l0,35.7l29.5,0.8l0-34.3L523,263.5z M622.5,348.2l0-29.9l-23.1-0.1l0,31L622.5,348.2z"/>
	</g>
        <polygon class="st9" points="590.1,301.1 590,268.6 564.1,266.6 564.1,300.4 			"/>
        <polygon class="st9" points="523,317.9 523,352.4 552.5,351.2 552.5,318 			"/>
        <polygon class="st9" points="564.1,318.1 564.2,350.7 590.1,349.6 590.1,318.2 			"/>
        <polygon class="st9" points="622.5,302 622.5,271 599.4,269.3 599.4,301.4 			"/>
        <polygon class="st9" points="481.2,317.8 481.2,354.2 511.5,352.9 511.5,317.9 			"/>
        <polygon class="st9" points="511.5,298.9 511.5,262.6 481.2,260.4 481.2,298 			"/>
        <polygon class="st9" points="552.5,300.1 552.5,265.7 523,263.5 523,299.2 			"/>
        <polygon class="st9" points="599.4,318.2 599.4,349.2 622.5,348.2 622.5,318.3 			"/>
</g>


    <g>
	<g>
		<g>
			<polygon class="st4" points="699.5,484.4 708.9,481.5 699.5,480.2 			"/>
            <polygon class="st4" points="699.5,484.4 694.3,485.9 651.2,498.9 645.2,500.7 645.2,509.1 708.9,489 708.9,481.5 			"/>
            <polygon class="st0" points="694.3,485.9 677.7,483.5 677.7,477.2 651.2,473.5 651.2,498.9 			"/>
		</g>
        <g>
			<polygon class="st8" points="708.9,379.5 645.1,354.1 645.2,500.7 651.2,498.9 651.2,473.5 651.1,386.6 665.9,384.8 677.6,383.4
				694.2,381.3 694.3,485.9 699.5,484.4 699.5,480.2 699.4,386.9 708.9,385.6 			"/>
            <polygon class="st4" points="694.3,485.9 694.2,381.3 677.6,383.4 677.6,385.5 677.7,477.2 677.7,483.5 			"/>
            <polygon class="st8" points="665.9,384.8 677.6,385.5 677.6,383.4 			"/>
		</g>
	</g>
        <g>

		<g>
			<g>
				<polygon class="st8" points="471.4,414.8 471.4,526 475.8,526.9 475.8,415.2 				"/>
                <polygon class="st8" points="622.1,397.1 471.4,414.8 475.8,415.2 626.2,397.4 				"/>
                <path class="st7" d="M475.8,415.2l150.5-17.8l0.1,90.7l-150.5,38.8L475.8,415.2z M564.2,412.3l0,33.8l25.9-4.6l0-32.6
					L564.2,412.3z M552.6,499.3l0-33.2l-29.5,5.9l0,34.5L552.6,499.3z M590.2,490.1l0-31.4l-25.9,5.2l0,32.6L590.2,490.1z
					 M599.5,407.8l0,32.1l23.1-4.1l0-31L599.5,407.8z M511.6,509.5l0-35l-30.3,6.1l0,36.4L511.6,509.5z M481.2,423l0,37.7l30.3-5.4
					l0-36.3L481.2,423z M523,417.7l0,35.7l29.5-5.2l0-34.3L523,417.7z M622.6,482l0-30l-23.1,4.6l0,31L622.6,482z"/>
			</g>
            <polygon class="st9" points="590.1,441.6 590.1,409 564.2,412.3 564.2,446.1 			"/>
            <polygon class="st9" points="523,472.1 523.1,506.6 552.6,499.3 552.6,466.2 			"/>
            <polygon class="st9" points="564.2,463.8 564.2,496.5 590.2,490.1 590.2,458.6 			"/>
            <polygon class="st9" points="622.6,435.8 622.6,404.8 599.5,407.8 599.5,439.9 			"/>
            <polygon class="st9" points="481.2,480.5 481.2,517 511.6,509.5 511.6,474.4 			"/>
            <polygon class="st9" points="511.6,455.4 511.5,419.1 481.2,423 481.2,460.8 			"/>
            <polygon class="st9" points="552.6,448.2 552.5,413.8 523,417.7 523,453.4 			"/>
            <polygon class="st9" points="599.5,456.7 599.5,487.8 622.6,482 622.6,452.1 			"/>
		</g>


            <g>
			<g>
				<polygon class="st8" points="290.7,355.7 290.7,255.3 286.4,255 286.4,355.8 				"/>
                <path class="st7" d="M286.4,355.8l-70.7-3.1l0.1-92.1l70.7-5.7L286.4,355.8z M257.5,264.5l-38,2.7l-0.1,78.9l38,1.3L257.5,264.5
					z M281.7,348.2l0-85.5l-18,1.3l0,83.6L281.7,348.2z"/>
			</g>
                <polygon class="st9" points="219.5,346.1 257.5,347.4 257.5,264.5 219.6,267.2 			"/>
                <polygon class="st9" points="263.8,264 263.8,347.6 281.7,348.2 281.8,262.8 			"/>
		</g>
            <g>
			<g>
				<polygon class="st8" points="292.1,404.5 221,397.3 216.8,397.6 287.8,404.9 				"/>
                <polygon class="st8" points="292.1,505.2 292.1,404.5 287.8,404.9 287.7,506 				"/>
                <path class="st7" d="M287.7,506l-71-16.1l0.1-92.4l71,7.3L287.7,506z M258.8,409.1l-38.1-4.3l-0.1,79.1l38.1,8.3L258.8,409.1z
					 M283.1,497.6l0-85.7l-18-2l0,83.8L283.1,497.6z"/>
			</g>
                <polygon class="st9" points="220.7,484 258.8,492.3 258.8,409.1 220.7,404.8 			"/>
                <polygon class="st9" points="265.1,409.8 265.1,493.6 283.1,497.6 283.1,411.9 			"/>
		</g>
            <g>
			<g>
				<polygon class="st8" points="403.8,360.5 403.8,246.3 399.5,245.9 399.5,360.7 				"/>
                <path class="st7" d="M399.5,360.7l-90.6-3.9l0-103.6l90.6-7.3L399.5,360.7z M362.2,257l-48.4,3.4l0,88.8l48.4,1.7L362.2,257z
					 M393.5,352.1l0-97.2l-23.2,1.6l0,94.8L393.5,352.1z"/>
			</g>
                <polygon class="st9" points="313.8,349.3 362.2,351 362.2,257 313.8,260.5 			"/>
                <polygon class="st9" points="370.3,256.5 370.3,351.3 393.5,352.1 393.5,254.8 			"/>
		</g>
            <g>
			<g>
				<path class="st7" d="M288.8,127.8L399,214.3l-110.3,12.6v-4.1v-1.1l-67.9,8.2l67.9-89V127.8z M369.6,205.6l-73.9-59.1l0,68.5
					L369.6,205.6z M230.8,223.3l57.8-7.4l0-68L230.8,223.3z"/>
                <polygon class="st8" points="220.9,229.9 225.7,230.3 288.7,222.8 288.7,221.7 				"/>
                <polygon class="st8" points="288.8,127.8 399,214.3 404,214.9 293.7,128.8 				"/>
                <polygon class="st8" points="399,214.3 288.7,226.9 293.7,227.4 404,214.9 				"/>
			</g>
                <polygon class="st9" points="295.7,146.5 295.7,215 369.6,205.6 			"/>
                <polygon class="st9" points="288.6,215.9 288.7,148 230.8,223.3 			"/>
		</g>
            <g>
			<g>
				<polygon class="st8" points="405.7,416.2 314.7,406.9 310.4,407.2 401.3,416.6 				"/>
                <polygon class="st8" points="405.7,530.8 405.7,416.2 401.3,416.6 401.3,531.8 				"/>
                <path class="st7" d="M401.3,531.8l-91-20.6l0-103.9l91,9.4L401.3,531.8z M363.9,420.9l-48.6-5.5l0,89.1l48.6,10.6L363.9,420.9z
					 M395.3,522l0-97.5l-23.3-2.6l0,95.1L395.3,522z"/>
			</g>
                <polygon class="st9" points="315.3,504.6 363.9,515.2 363.9,420.9 315.3,415.5 			"/>
                <polygon class="st9" points="372,421.8 372,516.9 395.3,522 395.3,424.5 			"/>
		</g>
	</g>
</g>
</svg>
