<?xml version="1.0" encoding="utf-8"?>
<!-- Generator: Adobe Illustrator 25.0.1, SVG Export Plug-In . SVG Version: 6.00 Build 0)  -->
<svg version="1.1" id="katman_1" xmlns="http://www.w3.org/2000/svg" x="0px" y="0px"
     viewBox="0 0 841.9 595.3" style="enable-background:new 0 0 841.9 595.3;" xml:space="preserve">
<style type="text/css">
	.st0{fill:#8F6645;}
	.st1{fill:#EEEEEE;}
	.st2{fill:#DDDDDD;}
	.st3{fill:#3D3A37;}
	.st4{fill:#C4C4C4;}
	.st5{fill:#3D3A37;}
	.st6{fill:#000000;}
	.st7{fill:#FFFFFF;}
	.st8{fill:#888888;}
	.st9{fill:#7884AF;}
</style>

    <g id="body">
	<polygon class="st0" points="713.4,491.5 712.4,462.4 710.2,462.4 711,485.5 711.8,485.4 		"/>
        <polygon class="st0" points="712.2,457 710.2,398.6 708,398.6 708.5,411.1 710.6,420 708.8,420 709.6,443.3 		"/>
        <polygon class="st0" points="709.8,385.5 709.5,377.8 663.1,374.5 		"/>
        <polygon class="st4" points="602.2,239.4 495.6,107.3 368.7,178.4 368.2,204.8 353.9,208.5 351,340.2 604.4,360.7 604.1,342.9
		602.7,263.9 602.6,258.3 		"/>
        <polygon class="st0" points="351,340.2 353.9,208.5 162.6,257.9 148.9,520.9 346.5,548.4 346.8,536.8 		"/>
        <polygon class="st4" points="377.6,533.9 442.5,527.7 443.5,387.6 380.1,385 		"/>
        <polygon class="st4" points="475.9,524.5 599.5,512.6 597.4,394 476.1,389 		"/>
</g>


    <g id="roof">
	<polygon class="st2" points="495.6,107.3 602.2,239.4 616.5,236.9 508,100.4 		"/>
        <polygon class="st2" points="602.2,239.4 602.6,258.3 616.9,256 616.5,236.9 		"/>
        <polygon class="st1" points="616.9,256 602.6,258.3 602.7,263.9 632.8,259.3 		"/>
        <polygon class="st1" points="616.5,236.9 616.9,256 632.8,259.3 632.2,230.3 507.9,66.7 337.4,159.2 336.4,198.2 368.2,204.8
		368.7,178.4 495.6,107.3 508,100.4 		"/>
        <polygon class="st3" points="337.4,159.2 507.9,66.7 294.1,143.4 132,225.3 		"/>
        <polygon class="st1" points="337.4,159.2 132,225.3 130.3,255.1 336.4,198.2 		"/>
        <polygon class="st2" points="336.4,198.2 130.3,255.1 158.9,258.8 162.6,257.9 353.9,208.5 368.2,204.8 		"/>
</g>


    <g id="chimney">
	<polygon class="st5" points="388.2,109.6 413.9,100.4 427.3,74.9 401.7,82.4 	"/>
        <polygon class="st6" points="422.8,97.2 427.7,95.5 427.3,74.9 413.9,100.4 	"/>

</g>


    <g id="right-window">
	<g>
		<polygon class="st7" points="180.2,349 318.9,332 314.3,331.6 175.9,348.7 				"/>
        <polygon class="st8" points="318.9,332 321.8,224.9 317.3,224 314.3,331.6 				"/>
        <path class="st7" d="M180.3,259L317.3,224l-2.9,107.5l-138.4,17.2L180.3,259z M247.3,249.3l-1.3,33.2l26.3-5.3l1.2-34.4
			L247.3,249.3z M233.3,334.1l1.3-32.1l-24.4,4.3l-1.4,31.1L233.3,334.1z M270.5,329.1l1.2-33.7l-26.3,4.7l-1.3,32.6L270.5,329.1z
			 M283.8,240.3l-1.1,34.8l28.5-5.7l1-36L283.8,240.3z M200.3,338.5l1.4-30.7l-20.6,3.7l-1.5,29.8L200.3,338.5z M183.4,264.9
			l-1.5,30.4l20.5-4.1l1.4-31.3L183.4,264.9z M212.4,257.8l-1.4,31.7l24.3-4.9l1.3-32.8L212.4,257.8z M309.6,323.8l1-35.4
			l-28.5,5.1l-1.1,34.2L309.6,323.8z"/>
	</g>
        <polygon class="st9" points="272.2,277.2 273.4,242.9 247.3,249.3 246,282.5 			"/>
        <polygon class="st9" points="210.2,306.3 208.9,337.4 233.3,334.1 234.6,301.9 			"/>
        <polygon class="st9" points="245.3,300.1 244,332.6 270.5,329.1 271.6,295.4 			"/>
        <polygon class="st9" points="311.2,269.4 312.2,233.4 283.8,240.3 282.7,275.1 			"/>
        <polygon class="st9" points="181.1,311.5 179.7,341.3 200.3,338.5 201.7,307.8 			"/>
        <polygon class="st9" points="202.4,291.3 203.9,259.9 183.4,264.9 181.9,295.4 			"/>
        <polygon class="st9" points="235.3,284.6 236.6,251.9 212.4,257.8 211,289.5 			"/>
        <polygon class="st9" points="282.1,293.5 281,327.7 309.6,323.8 310.6,288.4 			"/>
</g>


    <g>
	<path class="st1" d="M597.4,394l-121.3-5.1L597.4,394z"/>
        <g>
		<polygon class="st4" points="346.8,536.8 346.5,548.4 478.8,566.8 478.8,553.4 454.8,550.4 442.4,548.8 356.7,538.1 		"/>
            <polygon class="st0" points="356.7,538.1 442.4,548.8 442.5,527.7 377.6,533.9 377.5,536.1 		"/>
            <polygon class="st0" points="734.7,521.3 712.2,519.6 704.8,520.5 693,519.6 692.9,518.2 677.8,517.1 625.5,513.2 617.2,512.6
			609.5,513.4 599.5,512.6 475.9,524.5 475.8,547.9 454.8,550.4 478.8,553.4 		"/>
            <polygon class="st4" points="478.8,553.4 478.8,566.8 735.1,531.1 734.7,521.3 		"/>
	</g>
        <g>
		<polygon class="st3" points="619,344.4 604.1,342.9 604.4,360.7 631.8,367.1 728.2,374.5 		"/>
            <polygon class="st1" points="722.9,378.7 728.2,374.5 631.8,367.1 663.1,374.5 709.5,377.8 		"/>
	</g>
        <polygon class="st3" points="690.5,440.8 616.9,441.8 618.3,442.1 690.5,441.1 	"/>
        <polygon class="st4" points="616.4,418.8 689.9,419.8 620.2,418.8 	"/>
        <polygon class="st4" points="708.8,420 710.6,420 708.8,420 	"/>
        <g>
		<polygon class="st6" points="614.8,394.7 617.2,512.6 625.5,513.2 620.6,492.2 617.9,492.4 617.4,465.8 622.4,466.2 618.3,442.1
			616.9,441.8 616.4,418.8 620.2,418.8 615.1,394.8 		"/>
            <polygon class="st8" points="616.4,418.8 616.9,441.8 690.5,440.8 689.9,419.8 		"/>
            <polygon class="st8" points="690.5,441.1 618.3,442.1 622.4,466.2 691.2,463.3 		"/>
            <polygon class="st8" points="620.2,418.8 689.9,419.7 689.2,397.8 615.1,394.8 		"/>
            <polygon class="st8" points="708.8,420 710.6,420 708.5,411.1 		"/>
            <polygon class="st8" points="711.8,485.4 711,485.5 712,513.3 719,512.5 713.4,491.5 		"/>
            <polygon class="st8" points="617.9,492.4 620.6,492.2 692,486.9 691.2,463.3 622.4,466.2 617.4,465.8 		"/>
            <polygon class="st8" points="692,486.9 620.6,492.2 625.5,513.2 677.8,517.1 692.9,515.4 		"/>
            <polygon class="st8" points="712.2,457 709.6,443.3 710.2,462.4 712.4,462.4 713.3,462.3 		"/>
	</g>
        <g>
		<g>
			<polygon class="st9" points="267,429.9 268.2,393.9 241.6,395.2 240.3,430 			"/>
            <polygon class="st9" points="204,447.7 202.6,480.2 227.4,481.8 228.7,448.2 			"/>
            <g>
				<polygon class="st8" points="314.6,496 317.6,383.3 312.9,383.1 309.8,496.3 				"/>
                <path class="st7" d="M173.8,391.6l139.1-8.5l-3.1,113.2l-140.6-11.1L173.8,391.6z M241.6,395.2l-1.3,34.8l26.7-0.1l1.2-36.1
					L241.6,395.2z M227.4,481.8l1.4-33.7l-24.7-0.5l-1.4,32.5L227.4,481.8z M265.1,484.4l1.2-35.4l-26.8-0.6l-1.3,34.2L265.1,484.4z
					 M278.8,393.3l-1.2,36.6l29-0.1l1.1-37.9L278.8,393.3z M193.9,479.6l1.5-32.1l-20.8-0.4l-1.5,31.1L193.9,479.6z M176.9,398.5
					l-1.5,31.8l20.8-0.1l1.5-32.7L176.9,398.5z M206.3,397l-1.5,33.2l24.7-0.1l1.4-34.3L206.3,397z M305,487.1l1-37.3l-29.1-0.6
					l-1.2,35.9L305,487.1z"/>
			</g>
            <polygon class="st9" points="239.6,448.4 238.3,482.6 265.1,484.4 266.3,449 			"/>
            <polygon class="st9" points="306.7,429.8 307.7,391.9 278.8,393.3 277.6,429.9 			"/>
            <polygon class="st9" points="174.5,447 173,478.2 193.9,479.6 195.3,447.5 			"/>
            <polygon class="st9" points="196.1,430.2 197.6,397.4 176.9,398.5 175.3,430.2 			"/>
            <polygon class="st9" points="229.5,430.1 230.8,395.8 206.3,397 204.8,430.2 			"/>
            <polygon class="st9" points="277,449.2 275.8,485.1 305,487.1 306.1,449.8 			"/>
		</g>
            <g>
			<polygon class="st9" points="425.7,229.5 396.9,223.8 396.2,267.4 425.3,272 			"/>
                <polygon class="st9" points="431.9,325.4 463.5,328.7 463.7,285.5 432.2,280.9 			"/>
                <polygon class="st9" points="396.1,275.5 395.5,321.6 424.8,324.6 425.2,279.8 			"/>
                <polygon class="st9" points="463.7,278 463.8,237 432.7,230.9 432.3,273 			"/>
                <g>
				<path class="st7" d="M469.6,337.9l-81.4-7.8l1.8-116.5l79.9,16.5L469.6,337.9z M396.2,267.4l29,4.5l0.4-42.5l-28.8-5.7
					L396.2,267.4z M463.7,285.5l-31.4-4.7l-0.4,44.5l31.7,3.3L463.7,285.5z M424.8,324.6l0.4-44.8l-29.1-4.3l-0.7,46.1L424.8,324.6z
					 M432.7,230.9l-0.4,42.2l31.4,4.9l0.1-40.9L432.7,230.9z"/>
                    <polygon class="st8" points="469.6,337.9 388.2,330 382.4,330.7 463.7,338.4 				"/>
                    <polygon class="st8" points="388.2,330 390,213.5 384.3,214.9 382.4,330.7 				"/>
			</g>
		</g>
            <g>
			<polygon class="st9" points="549,253.9 526.8,249.5 527,287.9 549.4,291.4 			"/>
                <polygon class="st9" points="555.3,338.4 579.9,340.9 579.3,302.7 554.9,299.1 			"/>
                <polygon class="st9" points="527.1,295 527.3,335.4 549.9,337.8 549.5,298.3 			"/>
                <polygon class="st9" points="579.2,296 578.7,259.8 554.4,255 554.8,292.2 			"/>
                <g>
				<path class="st7" d="M584.8,349l-62.9-6.1l-0.6-102.3l61.9,12.8L584.8,349z M527,287.9l22.4,3.5l-0.4-37.5l-22.2-4.4L527,287.9z
					 M579.3,302.7l-24.4-3.6l0.4,39.2l24.6,2.6L579.3,302.7z M549.9,337.8l-0.4-39.5l-22.4-3.3l0.3,40.4L549.9,337.8z M554.4,255
					l0.4,37.2l24.4,3.8l-0.5-36.3L554.4,255z"/>
                    <polygon class="st8" points="584.8,349 521.9,342.9 516,343.4 579,349.4 				"/>
                    <polygon class="st8" points="521.9,342.9 521.3,240.6 515.6,241.7 516,343.4 				"/>
			</g>
		</g>
            <g>
			<polygon class="st9" points="516.4,172.7 498.2,167.6 498.3,214 516.6,218.2 			"/>
                <g>
				<polygon class="st8" points="516.7,225.5 520.6,224.8 467.2,212.8 463.3,213.7 				"/>
                    <path class="st7" d="M467.2,212.8l0.2-65l27.1-18.8l25.7,34.1l0.4,61.6L467.2,212.8z M494.5,136L471.7,152l0,8.2l-0.1,47.6
					l21.4,4.9l5.4,1.2l18.3,4.2l-0.2-45.6l0-7.9L494.5,136z"/>
                    <polygon class="st7" points="467.2,212.8 467.4,147.8 463.5,149 463.3,213.7 				"/>
                    <polygon class="st7" points="467.4,147.8 494.5,129 490.6,130.2 463.5,149 				"/>
                    <polygon class="st7" points="516.4,172.7 516.4,164.8 471.7,152 471.7,160.2 492.9,166.1 498.2,167.6 				"/>
                    <polygon class="st7" points="498.2,167.6 492.9,166.1 492.9,212.8 498.3,214 				"/>
			</g>
                <polygon class="st9" points="492.9,166.1 471.7,160.2 471.5,207.9 492.9,212.8 			"/>
                <polygon class="st9" points="471.7,152 516.4,164.8 494.5,136 			"/>
		</g>
            <g>
			<polygon class="st9" points="503.6,455.9 523.9,455.4 523.7,409.3 503.5,408.8 			"/>
                <polygon class="st9" points="474,408 473.9,456.6 497,456.1 496.9,408.6 			"/>
                <polygon class="st9" points="524.3,518 524,467.4 473.9,469.2 473.8,522.7 			"/>
                <g>
				<path class="st8" d="M468.7,395.7l58.9,2.2l0.8,123.7l-60.1,5.8L468.7,395.7z M523.7,409.3l-20.1-0.5l0.1,47.1l20.3-0.5
					L523.7,409.3z M497,456.1l-0.1-47.5L474,408l-0.1,48.6L497,456.1z M473.9,469.2l-0.1,53.4l50.5-4.7l-0.3-50.7L473.9,469.2z
					 M516.1,464.5l2.9,0.1l4.7-0.2l0-4.6l-2.9-0.1l-4.7,0.1L516.1,464.5z"/>
                    <polygon class="st7" points="468.3,527.4 468.7,395.7 465.3,395.9 464.9,527.1 				"/>
                    <polygon class="st7" points="520.8,459.8 516.1,460 519,460 523.7,459.9 				"/>
                    <polygon class="st7" points="516.1,460 516.1,464.5 519,464.6 519,460 				"/>
                    <polygon class="st7" points="523.8,464.5 523.7,459.9 519,460 519,464.6 				"/>
			</g>
		</g>
	</g>
        <g>
		<polygon class="st8" points="597.4,394 599.5,512.6 609.5,513.4 607.2,394.4 597.9,394 		"/>
            <polygon class="st8" points="609.5,513.4 617.2,512.6 614.8,394.7 607.2,394.4 		"/>
            <polygon class="st8" points="604.4,360.7 351,340.2 479.5,376.7 730.2,390.3 709.8,385.5 663.1,374.5 631.8,367.1 		"/>
            <polygon class="st8" points="704.8,520.5 712.2,519.6 712,513.3 711,485.5 710.2,462.4 709.6,443.3 708.8,420 708.5,411.1
			708,398.6 700.7,398.3 		"/>
            <polygon class="st4" points="700.7,398.3 708,398.6 710.2,398.6 730.5,398.1 479.5,387 455.6,388.1 476.1,388.9 597.9,394
			607.2,394.4 614.8,394.7 689.2,397.8 		"/>
            <polygon class="st8" points="693,519.6 704.8,520.5 700.7,398.3 689.2,397.8 689.9,419.7 690.5,440.8 691.2,463.3 692,486.9
			692.9,515.4 692.9,518.2 		"/>
            <polygon class="st8" points="455.6,388.1 479.5,387 479.5,376.7 351,340.2 346.8,536.8 356.7,538.1 359.9,383.2 443.6,378.6
			443.5,387.6 442.5,527.7 442.4,548.8 454.8,550.4 		"/>
            <polygon class="st4" points="443.6,378.6 359.9,383.2 380.1,384 380.1,385 443.5,387.6 		"/>
            <polygon class="st8" points="380.1,384 359.9,383.2 356.7,538.1 377.5,536.1 377.6,533.9 380.1,385 		"/>
            <polygon class="st8" points="476.1,388.9 455.6,388.1 454.8,550.4 475.8,547.9 475.9,524.5 476.1,389 		"/>
            <polygon class="st4" points="479.5,376.7 479.5,387 730.5,398.1 730.2,390.3 		"/>
	</g>
        <g>
		<line class="st8" x1="427.7" y1="95.5" x2="427.3" y2="74.9"/>
            <line class="st8" x1="413.9" y1="100.4" x2="427.3" y2="74.9"/>
            <line class="st8" x1="413.9" y1="100.4" x2="427.7" y2="95.5"/>
            <line class="st8" x1="427.3" y1="74.9" x2="401.7" y2="82.4"/>
            <line class="st8" x1="388.2" y1="109.6" x2="401.7" y2="82.4"/>
            <line class="st8" x1="413.9" y1="100.4" x2="388.2" y2="109.6"/>
	</g>
</g>
</svg>
