<?xml version="1.0" encoding="utf-8"?>
<!-- Generator: Adobe Illustrator 25.0.1, SVG Export Plug-In . SVG Version: 6.00 Build 0)  -->
<svg version="1.1" id="katman_1" xmlns="http://www.w3.org/2000/svg" x="0px" y="0px"
     viewBox="0 0 841.9 595.3" style="enable-background:new 0 0 841.9 595.3;" xml:space="preserve">
<style type="text/css">
	.st0{fill:#8F6645;}
	.st1{fill:#EEEEEE;}
	.st2{fill:#DDDDDD;}
	.st3{fill:#3D3A37;}
	.st4{fill:#C4C4C4;}
	.st5{fill:#3D3A37;}
	.st6{fill:#000000;}
	.st7{fill:#FFFFFF;}
	.st8{fill:#888888;}
	.st9{fill:#7884AF;}
</style>

    <g id="body">
	<polygon class="st4" points="296,117.2 206.6,236.7 206.2,256 206,260.7 203.8,352.5 414.7,339.7 414.7,215.8 399.3,212.8
		399.3,189.5 		"/>
        <polygon class="st0" points="414.7,215.8 414.7,339.7 510.6,306.9 620.5,297.4 619.5,256.5 		"/>
        <polygon class="st0" points="621.7,562.2 782.1,524.5 775.3,360.3 774.9,350.9 704.2,303.3 616.5,337.7 		"/>
        <polygon class="st4" points="602.6,559.5 621.7,562.2 616.5,337.7 602.4,343.3 414.7,352.2 414.7,521.7 414.7,524.4 419.1,500.2
		422,500.4 422,468.9 416.6,468.5 420.4,438.6 421.9,438.2 421.9,410.1 417.9,410 425.4,365 598.3,359.2 		"/>
        <polygon class="st4" points="393.8,380.7 314.7,382.1 313.3,508.2 393.5,518.9 		"/>
        <polygon class="st4" points="210.8,494.6 289.8,505.1 291.5,387.9 213.3,388.7 		"/>
</g>


    <g id="left-window">
        <polygon class="st7" points="560.1,337.6 599.8,340.8 604.7,340.6 565.1,337.3 	"/>
        <g>
		<polygon class="st8" points="558.7,255.8 560.1,337.6 565.1,337.3 563.6,255.1 		"/>
            <path class="st7" d="M565.1,337.3l-1.5-82.2l39.3,7.6l1.8,77.9L565.1,337.3z M600.9,333.7l-1.4-65.3l-12.6-2.3l0.7,36.3l-19.2-2.6
			l0.6,30.9L600.9,333.7z M568.3,293.4l16.3,2.3l-0.6-30.1l-16.2-3L568.3,293.4z"/>
	</g>
        <g>
		<polygon class="st9" points="568.4,299.8 569,330.8 600.9,333.7 599.5,268.4 586.9,266.1 587.6,302.4 		"/>
            <polygon class="st9" points="584,265.6 567.7,262.6 568.3,293.4 584.6,295.7 		"/>
	</g>
</g>


    <g id="roof">
	<polygon class="st2" points="206.6,236.7 296,117.2 284.1,109 192,234.6 		"/>
        <polygon class="st2" points="414.7,215.8 619.5,256.5 623.5,257.2 645.3,254.6 422.6,208.2 399.3,212.8 		"/>
        <polygon class="st1" points="422.6,208.2 645.3,254.6 644.6,226.6 422.6,171.3 		"/>
        <polygon class="st3" points="422.6,171.3 644.6,226.6 508.3,145.2 284.6,76.5 		"/>
        <polygon class="st2" points="176.4,257.2 206,260.7 206.2,256 191.5,254.1 		"/>
        <polygon class="st2" points="206.2,256 206.6,236.7 192,234.6 191.5,254.1 		"/>
        <polygon class="st1" points="399.3,212.8 422.6,208.2 422.6,171.3 284.6,76.5 177.1,229.7 176.4,257.2 191.5,254.1 192,234.6
		284.1,109 296,117.2 399.3,189.5 		"/>

        <g>
		<polygon class="st1" points="704.2,303.3 774.9,350.9 788.3,359.9 788,352 703.8,290.1 596.4,336.1 602.4,343.3 616.5,337.7 		"/>
            <polygon class="st1" points="788.3,359.9 774.9,350.9 775.3,360.3 		"/>
            <polygon class="st1" points="602.4,343.3 596.4,336.1 393.6,347 399.7,352.9 414.7,352.2 		"/>
            <polygon class="st1" points="393.6,347 596.4,336.1 703.8,290.1 620.5,297.4 510.6,306.9 414.7,339.8 		"/>
	</g>
</g>


    <g id="chimney">
	<path class="st5" d="M509.3,29l2.2,160.3l-25.8-5l-1.7-165.5L509.3,29z M500,41l-12.4-4.7l0.2,20.3l0.1,9.2l0.2,22.3l16.6,5.2
		l2,0.6l-0.7-50.7L500,41z"/>
        <path class="st6" d="M438.4,161.5l-0.3-81.9l45.9-60.8l1.7,165.5L438.4,161.5z M444.1,81.5l0.1,17.4l19.6-5.1l6.2-1.6l8.9-2.3
		l-0.1-11.5l-0.1-10.1l-0.3-32.5l-34.2,45L444.1,81.5z"/>
        <polygon class="st5" points="478.6,68.4 463.8,87.5 463.8,93.8 470,92.3 470,90.6 478.7,78.5 		"/>
        <polygon class="st6" points="463.8,93.8 463.8,87.5 444.1,81.5 444.2,98.9 		"/>
        <polygon class="st6" points="500,41 487.9,56.6 488,65.8 504.1,43.5 504.8,93.3 506.8,93.9 506.1,43.3 		"/>
</g>


    <g>
	<polygon class="st0" points="75.1,389.8 98,389.9 107.7,389.8 119.5,389.7 193,388.9 203.3,388.8 213.3,388.7 291.5,387.9
		301.7,387.7 276.2,387.5 	"/>
        <g>
		<polygon class="st4" points="414.7,524.4 414.7,521.7 404.1,523.2 313,535.7 299.8,537.5 274.3,541 274.1,553.2 413.2,532.5 		"/>
            <polygon class="st4" points="70.8,513.4 274.1,553.2 274.3,541 71.1,504.3 		"/>
            <polygon class="st0" points="274.3,541 299.8,537.5 289.4,535.7 289.8,505.1 210.8,494.6 200.7,495.5 190.3,494.1 115.8,500.5
			115.7,502.9 103.7,504 93.9,502.3 71.1,504.3 		"/>
            <polygon class="st0" points="404.1,523.2 393.5,521.8 393.5,518.9 313.3,508.2 313,535.7 		"/>
	</g>
        <polygon class="st3" points="419.1,500.2 595.5,519.6 598.3,519.7 422,500.4 	"/>
        <g>
		<polygon class="st6" points="602.6,559.5 598.3,359.2 592.2,412.5 596.1,412.4 596.7,445.9 595.3,446.4 592.3,481.9 597.5,480.9
			598.3,519.7 595.5,519.6 589.8,564.9 		"/>
            <polygon class="st8" points="592.2,412.5 598.3,359.2 425.4,365 417.9,410 421.9,410.1 		"/>
            <polygon class="st8" points="596.1,412.4 592.2,412.5 421.9,410.1 421.9,438.2 596.7,445.9 		"/>
            <polygon class="st8" points="592.3,481.9 595.3,446.4 420.4,438.6 416.6,468.5 422,468.9 		"/>
            <polygon class="st8" points="597.5,480.9 592.3,481.9 422,468.9 422,500.4 598.3,519.7 		"/>
            <polygon class="st8" points="589.8,564.9 595.5,519.6 419.1,500.2 414.7,524.4 413.2,532.5 412.2,538.1 		"/>
            <polygon class="st8" points="420.4,438.6 595.3,446.4 596.7,445.9 421.9,438.2 		"/>
	</g>
        <g>
		<polygon class="st8" points="296.1,444.4 314.2,445.4 314.7,400 296.7,400 		"/>
            <polygon class="st9" points="272.9,400 272.3,443 290.5,444.1 291.1,400 		"/>
            <polygon class="st9" points="313.5,506.7 314,457.1 272.1,454.2 271.3,501.2 		"/>
            <g>
			<path class="st8" d="M269.1,389.3l49.5-0.6L317.3,511l-50.1-6.7L269.1,389.3z M314.7,400l-18,0l-0.6,44.4l18.1,1L314.7,400z
				 M290.5,444.1l0.6-44.1l-18.2,0l-0.7,43.1L290.5,444.1z M272.1,454.2l-0.8,47l42.2,5.5l0.5-49.5L272.1,454.2z M307,449.2l-3,0.2
				l-0.1,4.4l4.3,0.3l3-0.2l0-4.4L307,449.2z"/>
                <polygon class="st7" points="318.6,388.7 317.3,511 320.9,510.6 322.1,388.7 			"/>
                <polygon class="st8" points="311.2,453.9 311.2,449.5 308.2,449.6 308.2,454 			"/>
                <polygon class="st8" points="311.2,449.5 307,449.2 304,449.3 308.2,449.6 			"/>
                <polygon class="st8" points="308.2,454 308.2,449.6 304,449.3 303.9,453.8 			"/>
		</g>
	</g>
        <g>
		<polygon class="st9" points="237.2,255.8 219.8,259.1 219.1,293.1 236.4,290.7 		"/>
            <polygon class="st9" points="240,333.2 261.6,331.4 262.3,293.6 240.8,296.5 		"/>
            <polygon class="st9" points="218.9,299.4 218.1,335.1 235.6,333.6 236.3,297.1 		"/>
            <polygon class="st9" points="262.4,286.9 263,250.9 241.6,255 240.9,290 		"/>
	</g>
        <g>
		<path class="st7" d="M266,338.5l-52,4l2.1-89.6l51.6-10.3L266,338.5z M219.1,293.1l17.4-2.5l0.7-34.8l-17.3,3.3L219.1,293.1z
			 M262.3,293.6l-21.5,2.9l-0.7,36.7l21.6-1.9L262.3,293.6z M235.6,333.6l0.7-36.5l-17.4,2.3l-0.8,35.7L235.6,333.6z M241.6,255
			l-0.7,35l21.5-3.1l0.6-36L241.6,255z"/>
            <polygon class="st8" points="267.6,242.7 266,338.5 272.1,338.9 273.6,243.6 		"/>
            <polygon class="st8" points="266,338.5 214,342.5 220,342.8 272.1,338.9 		"/>
	</g>
        <g>
		<polygon class="st9" points="337.4,236.8 315.3,241 314.9,279.4 337.1,276.2 		"/>
            <polygon class="st9" points="342.5,324.3 370.4,321.9 370.6,278.9 342.8,282.7 		"/>
            <polygon class="st9" points="314.8,286.5 314.3,326.8 336.7,324.8 337,283.5 		"/>
            <polygon class="st9" points="370.6,271.4 370.8,230.4 343.2,235.7 342.8,275.4 		"/>
	</g>
        <g>
		<path class="st7" d="M376.2,330l-67,5.2l1.2-101l66.3-13.2L376.2,330z M314.9,279.4l22.2-3.2l0.3-39.4l-22.1,4.2L314.9,279.4z
			 M370.6,278.9l-27.8,3.8l-0.3,41.7l27.9-2.4L370.6,278.9z M336.7,324.8l0.4-41.4l-22.3,3l-0.5,40.3L336.7,324.8z M343.2,235.7
			l-0.3,39.7l27.8-4l0.2-40.9L343.2,235.7z"/>
            <polygon class="st8" points="376.6,221 376.2,330 382.4,330.4 382.7,222.1 		"/>
	</g>
        <polygon class="st8" points="376.2,330 309.2,335.2 315.3,335.6 382.4,330.4 	"/>

        <g>
		<polygon class="st8" points="317.7,218.6 313.6,217.9 269.1,227.6 273.2,228.3 		"/>
            <polygon class="st8" points="317.7,218.6 318.4,157.4 314.3,156.4 313.6,217.9 		"/>
            <path class="st7" d="M269.1,227.6l1-58.3l21.9-31.6l22.4,18.8l-0.7,61.5L269.1,227.6z M291.9,144.3L273.3,171l-0.1,7.5l-0.7,43.1
			l16.9-3.8l4.5-1l16.1-3.6l0.5-45.1l0.1-7.8L291.9,144.3z"/>
            <polygon class="st7" points="314.3,156.4 318.4,157.4 296,138.7 292,137.6 		"/>
            <polygon class="st7" points="310.6,168 310.7,160.2 273.3,171 273.2,178.5 290,173.8 294.5,172.5 		"/>
            <polygon class="st7" points="294.5,172.5 290,173.8 289.4,217.8 293.9,216.8 		"/>
	</g>
        <g>
		<polygon class="st9" points="310.6,168 294.5,172.5 293.9,216.8 310.1,213.1 		"/>
            <polygon class="st9" points="290,173.8 273.2,178.5 272.5,221.6 289.4,217.8 		"/>
            <polygon class="st9" points="273.3,171 310.7,160.2 291.9,144.3 		"/>
	</g>
        <g>
		<polygon class="st8" points="404.2,380.2 314.8,378.6 314.7,382.1 393.8,380.7 		"/>
            <polygon class="st8" points="414.7,339.7 203.8,352.5 75.4,382.6 276.4,377.9 		"/>
            <polygon class="st8" points="414.7,521.7 414.7,352.2 399.7,352.9 393.6,347 414.7,339.8 276.4,377.9 276.2,387.5 301.7,387.7
			299.8,537.5 313,535.7 313.3,508.2 314.7,382.1 314.8,378.6 404.2,380.2 404.1,523.2 		"/>
            <polygon class="st8" points="75.4,382.6 75.1,389.8 276.2,387.5 276.4,377.9 		"/>
            <polygon class="st8" points="107.7,389.8 98,389.9 93.9,502.3 103.7,504 		"/>
            <polygon class="st8" points="404.2,380.2 393.8,380.3 393.5,518.9 393.5,521.8 404.1,523.2 		"/>
            <polygon class="st8" points="200.7,495.5 210.8,494.6 213.3,388.7 203.3,388.8 		"/>
            <polygon class="st8" points="190.3,494.1 200.7,495.5 203.3,388.8 193,388.9 		"/>
            <polygon class="st8" points="301.7,387.7 291.5,387.9 289.8,505.1 289.4,535.7 299.8,537.5 		"/>
            <polygon class="st8" points="103.7,504 115.7,502.9 115.8,500.5 119.5,389.7 107.7,389.8 		"/>
	</g>
</g>
</svg>
