<?xml version="1.0" encoding="utf-8"?>
<!-- Generator: Adobe Illustrator 25.0.1, SVG Export Plug-In . SVG Version: 6.00 Build 0)  -->
<svg version="1.1" id="katman_1" xmlns="http://www.w3.org/2000/svg" x="0px" y="0px"
     viewBox="0 0 841.9 595.3" style="enable-background:new 0 0 841.9 595.3;" xml:space="preserve">
<style type="text/css">
	.st0{fill:#8F6645;}
	.st1{fill:#EEEEEE;}
	.st2{fill:#DDDDDD;}
	.st3{fill:#3D3A37;}
	.st4{fill:#C4C4C4;}
	.st5{fill:#3D3A37;}
	.st6{fill:#000000;}
	.st7{fill:#FFFFFF;}
	.st8{fill:#888888;}
	.st9{fill:#7884AF;}
</style>

    <g id="chimney">
	<polygon class="st5" points="446,119 445.9,149.1 461.1,158.1 461.2,116.1 			"/>
        <polygon class="st5" points="446,119 461.2,116.1 464.7,115.5 459.5,114.6 429.5,120.3 434.7,121.1 			"/>
        <path class="st5" d="M464.7,115.5l0-12.1l14-9.9l13.9,16.2v1.5l0,65.5l-31.4-18.6l0.1-42L464.7,115.5z M489.3,111.7l-11.5-13.3
			l0,15.4l0,7.9l11.5,1.9L489.3,111.7z M465.5,124.7l0,9.4l11.5,7.8l0-19.3l-11.5-1.9L465.5,124.7z"/>
        <polygon class="st6" points="478.7,93.5 492.6,109.6 496,109 481.2,91.7 			"/>
        <polygon class="st6" points="451.2,92.7 429.5,108.5 459.5,102.4 481.2,86.3 			"/>
        <polygon class="st6" points="481.2,91.7 496,109 500.3,109.7 481.2,86.3 459.5,102.4 459.5,114.6 464.7,115.5 464.7,103.4
			478.7,93.5 			"/>
        <polygon class="st6" points="500.3,109.7 496,109 492.6,109.6 492.6,111.2 			"/>
        <polygon class="st6" points="459.5,102.4 429.5,108.5 429.5,120.3 459.5,114.6 			"/>
        <polygon class="st6" points="477.8,121.7 489.3,123.6 489.3,111.7 477.8,113.8 			"/>
        <polygon class="st6" points="477.8,113.8 489.3,111.7 477.8,98.4 			"/>
        <polygon class="st6" points="477,122.7 465.5,120.8 465.5,124.7 			"/>
        <polygon class="st6" points="477,122.7 465.5,124.7 465.5,134.1 477,141.9 			"/>
</g>


    <g id="roof">
	<polygon class="st1" points="721,188.5 782.5,231.3 796,232.1 795.7,217.2 782.2,216.1 720.7,169.6 649.3,202.4 649.5,220.2
		"/>
        <polygon class="st1" points="796,232.1 782.5,231.3 782.6,232.8 			"/>
        <polygon class="st1" points="649.5,220.2 649.3,202.4 604.9,181.5 585.8,172.5 512.6,188.6 512.6,208.8 585.9,195.9 			"/>
        <polygon class="st1" points="512.6,208.8 512.6,188.6 501.6,182.1 492.5,176.7 461.1,158.1 445.9,149.1 396.5,119.9 249.5,161.4
			213.1,157.6 212.6,183.8 249.1,186.8 396.3,146.4 			"/>
        <polygon class="st3" points="649.3,202.4 720.7,169.6 604.9,181.5 			"/>
        <polygon class="st1" points="58.5,187.9 58,208.3 212.6,183.8 213.1,157.6 204.1,159.4 			"/>
        <polygon class="st2" points="212.6,183.8 58,208.3 89.9,210.1 96.6,209.2 249.1,186.8 			"/>
        <polygon class="st3" points="213.1,157.6 249.5,161.4 396.5,119.9 223.3,154.2 204.1,159.4 			"/>
        <polygon class="st2" points="512.6,188.6 585.8,172.5 501.6,182.1 			"/>
</g>

    <g id="body">
	<g>
		<polygon class="st4" points="530.5,407.3 530.5,424 597,432.6 597,414.8 			"/>
        <polygon class="st0" points="543.7,405.8 530.5,407.3 597,414.8 701.9,401.2 672,398.5 672,400.8 590.8,411 			"/>
        <polygon class="st4" points="543.7,391.9 543.7,405.8 590.8,411 590.7,396.4 			"/>
        <polygon class="st0" points="625.6,383.7 543.7,391.9 590.7,396.4 671.9,387.5 			"/>
        <polygon class="st0" points="530.5,424 530.5,407.3 543.7,405.8 543.7,391.9 625.6,383.7 671.9,387.5 672,398.5 701.9,401.2
			785.1,390.8 782.6,232.8 782.5,231.3 721,188.5 649.5,220.2 585.9,195.9 512.6,208.8 396.3,146.4 249.1,186.8 245,461.2 			"/>
        <polygon class="st4" points="249.1,186.8 96.6,209.2 91.5,425.8 245,461.2 			"/>
        <polygon class="st4" points="597,432.6 702.1,416.9 701.9,401.6 597,414.8 			"/>
        <polygon class="st4" points="590.8,411 672,400.8 672,398.5 671.9,387.5 590.7,396.4 			"/>
	</g>
</g>


    <g id="left-window">
	<g>
		<path class="st7" d="M179.3,217l9.8,8.2l8.5,14L204,258l3.8,22.4l0.9,24.2l-2.2,24.1l-5.1,22l-7.5,18.2l-9.3,13l-10.3,7.1
			l-10.5,1l-10-5l-8.9-10.3l-7.2-14.8l-5.2-18.2l-2.9-20.4l-0.5-21.5l1.8-80.2l38.2-4.8L179.3,217z M133.5,300l0,1.6l32.8,0.4
			l2.3-76.3l-33.6,3.6L133.5,300z M173.1,226.7l-1.6,83.7l-37.8-1l0.2,9.4l2.6,18l4.6,15.9l6.4,12.9l7.8,8.9l8.8,4.2l9.2-1l9-6.3
			l8.1-11.5l6.5-15.8l4.4-19.1l1.9-20.9l-0.7-21l-3.3-19.5l-5.5-16.4l-7.3-12.3l-8.5-7.3L173.1,226.7z"/>
        <polygon class="st8" points="169,214.8 179.3,217 186,217.4 175.6,215.2 				"/>
        <polygon class="st8" points="179.3,217 189.1,225.2 195.9,225.6 186,217.4 				"/>
        <polygon class="st8" points="189.1,225.2 197.5,239.2 204.4,239.5 195.9,225.6 				"/>
        <polygon class="st8" points="197.5,239.2 204,258 210.9,258.2 204.4,239.5 				"/>
        <polygon class="st8" points="204,258 207.8,280.4 214.7,280.5 210.9,258.2 				"/>
        <polygon class="st8" points="207.8,280.4 208.7,304.6 215.6,304.6 214.7,280.5 				"/>
        <polygon class="st8" points="208.7,304.6 206.4,328.7 213.4,328.5 215.6,304.6 				"/>
        <polygon class="st8" points="206.4,328.7 201.3,350.7 208.3,350.4 213.4,328.5 				"/>
        <polygon class="st8" points="201.3,350.7 193.8,368.8 200.7,368.4 208.3,350.4 				"/>
        <polygon class="st8" points="193.8,368.8 184.5,381.9 191.4,381.4 200.7,368.4 				"/>
        <polygon class="st8" points="184.5,381.9 174.2,389 181,388.5 191.4,381.4 				"/>
        <polygon class="st8" points="174.2,389 163.7,389.9 170.4,389.5 181,388.5 				"/>
	</g>
        <g>
		<polygon class="st9" points="168.6,225.7 135,229.3 133.5,300 133.5,301.6 166.3,302 				"/>
            <polygon class="st9" points="186.2,235.1 177.7,227.8 173.1,226.7 171.5,310.5 133.7,309.5 133.9,318.9 136.5,336.9
			141.1,352.8 147.5,365.7 155.2,374.7 164,378.9 173.2,377.9 182.2,371.5 190.2,360.1 196.7,344.2 201.1,325.2 203,304.3
			202.3,283.3 199,263.8 193.5,247.4 				"/>
	</g>
</g>


    <g>
	<g>
		<g>
			<polygon class="st8" points="610.3,324 606.5,324.1 606.5,314.7 575.6,315.4 575.8,369.6 610.5,366.8 			"/>
            <polygon class="st8" points="611.9,311.2 617.5,311.1 615.6,311.1 613.4,311.1 607.8,311.2 			"/>
            <g>
				<path class="st7" d="M613.4,311.1l-5.6,0.1l0.1,9.2l4.1,0.1l3.7-0.1l0.4,56.4l-45.8,4.2l-0.5-124.2l45.5,1.8l0.3,52.6
					L613.4,311.1z M606.5,314.7l-30.9,0.7l0.2,54.2l34.7-2.8l-0.3-42.9l-3.7,0.1L606.5,314.7z M610.3,305.6l-0.4-3.7l-0.6-3.6
					l-0.8-3.5l-0.9-3.4l-1.1-3.3l-1.3-3.1l-1.5-3l-1.6-2.8l-1.8-2.6l-1.9-2.3l-2-2.1l-2.2-1.8l0.2,35.2L610.3,305.6z M589.9,270.5
					l-2.1,1.6l-2,2l-1.9,2.3l-1.7,2.5l-1.6,2.8l-1.4,3L578,288l-1,3.4l-0.7,3.5l-0.5,3.6l-0.3,3.7l0,3.7l14.5-0.2L589.9,270.5z"/>
                <polygon class="st7" points="617.5,320.3 617.5,311.1 611.9,311.2 611.9,320.4 615.7,320.3 				"/>
                <polygon class="st7" points="611.9,320.4 611.9,311.2 607.8,311.2 607.9,320.4 				"/>
                <path class="st8" d="M564.2,390.6l-0.5-146.2l56.9,3l0.9,137.5L564.2,390.6z M569.8,256.7l0.5,124.2l45.8-4.2l-0.4-56.4l1.9-0.1
					l-0.1-9.2l-1.9,0l-0.3-52.6L569.8,256.7z"/>
                <polygon class="st7" points="558.7,244.7 559.1,390.1 564.2,390.6 563.7,244.4 				"/>
			</g>
            <polygon class="st8" points="594.1,270.6 594.3,305.8 610.3,305.6 609.9,301.9 609.3,298.4 608.6,294.8 607.6,291.5 606.5,288.2
				605.2,285.1 603.7,282.1 602,279.4 600.3,276.8 598.3,274.5 596.3,272.4 			"/>
            <polygon class="st8" points="575.6,306 590,305.8 589.9,270.5 587.7,272.2 585.7,274.1 583.9,276.4 582.1,279 580.6,281.8
				579.2,284.8 578,288 577.1,291.4 576.4,295 575.9,298.6 575.6,302.3 			"/>
		</g>
        <g>
			<polygon class="st9" points="777.1,357 776.5,318.2 736.7,319.5 737.2,360.3 			"/>
            <g>
				<polygon class="st7" points="678.7,373.5 677.5,255.5 670.2,255.7 671.3,373 				"/>
                <path class="st7" d="M729.9,220.3l49.5,39.9l1.7,103.7l-102.3,9.6l-1.2-118L729.9,220.3z M736.7,319.5l0.5,40.9l39.9-3.4
					l-0.6-38.8L736.7,319.5z M730.8,360.9l-0.5-41.2l-47.4,1.5l0.4,43.7L730.8,360.9z M736,272.2l0.5,36.9l39.8-0.7l-0.5-35
					L736,272.2z M682.8,310.1l47.3-0.9l-0.5-37.2l-47.3-1.3L682.8,310.1z M775.7,264.8L730,228.4L682.3,261L775.7,264.8z"/>
                <polygon class="st8" points="677.5,255.5 729.9,220.3 722.8,220.7 670.2,255.7 				"/>
			</g>
            <polygon class="st9" points="683,321.2 683.4,364.9 730.8,360.9 730.3,319.7 			"/>
            <polygon class="st9" points="776.4,308.3 775.8,273.3 736,272.2 736.5,309.1 			"/>
            <polygon class="st9" points="729.7,272 682.4,270.7 682.8,310.1 730.2,309.2 			"/>
            <polygon class="st9" points="730,228.4 682.3,261 775.7,264.8 			"/>
		</g>
        <g>
			<polygon class="st9" points="495.3,376.2 495.4,322.7 418.2,324.9 417.9,382.4 			"/>
            <g>
				<polygon class="st8" points="297.9,403.9 300,232.9 293,233.4 290.9,402.9 				"/>
                <path class="st7" d="M408.1,185.4l94.3,57.7l0,142.5l-204.5,18.3l2.1-171L408.1,185.4z M418.2,324.9l-0.3,57.5l77.4-6.2l0-53.5
					L418.2,324.9z M405.2,383.4l0.3-58.2l-96.6,2.7l-0.7,63.3L405.2,383.4z M418.5,258.5l-0.3,51.8l77.1-1.1l0-48.2L418.5,258.5z
					 M309.1,311.9l96.5-1.4l0.3-52.4l-96.2-3.1L309.1,311.9z M495.4,249.3l-87.3-52.5L310,241.1L495.4,249.3z"/>
                <polygon class="st8" points="300,232.9 408.1,185.4 400.8,186.3 293,233.4 				"/>
			</g>
            <polygon class="st9" points="308.9,327.9 308.2,391.2 405.2,383.4 405.5,325.2 			"/>
            <polygon class="st9" points="495.4,309.2 495.4,261 418.5,258.5 418.2,310.3 			"/>
            <polygon class="st9" points="405.9,258.1 309.8,255 309.1,311.9 405.6,310.5 			"/>
            <polygon class="st9" points="408.1,196.9 310,241.1 495.4,249.3 			"/>
		</g>
	</g>
</g>
</svg>
