<?xml version="1.0" encoding="utf-8"?>
<!-- Generator: Adobe Illustrator 25.0.1, SVG Export Plug-In . SVG Version: 6.00 Build 0)  -->
<svg version="1.1" id="katman_1" xmlns="http://www.w3.org/2000/svg" x="0px" y="0px"
     viewBox="0 0 841.9 595.3" style="enable-background:new 0 0 841.9 595.3;" xml:space="preserve">
<style type="text/css">
	.st0{fill:#8F6645;}
	.st1{fill:#EEEEEE;}
	.st2{fill:#DDDDDD;}
	.st3{fill:#3D3A37;}
	.st4{fill:#C4C4C4;}
	.st5{fill:#3D3A37;}
	.st6{fill:#000000;}
	.st7{fill:#FFFFFF;}
	.st8{fill:#888888;}
	.st9{fill:#7884AF;}
</style>

    <g id="body">
	<polygon class="st0" points="277.8,408 291.3,410 291.3,426.6 591.6,476.7 587.4,190.8 429.5,149.3 309.9,212.4 236.6,199.3
		174.5,222.9 105.9,191.8 48.1,232.8 48.1,234.1 46,385.6 135.2,400.5 151.1,398.7 151.2,388.5 197.2,383.6 277.9,394.2 			"/>
        <polygon class="st4" points="587.4,190.8 591.6,476.7 729.6,428.8 724.8,212.8 			"/>
</g>


    <g id="roof">
	<polygon class="st1" points="174.5,222.9 236.6,199.3 309.9,212.4 309.9,191.8 236.7,176.2 218.2,185 174.6,205.7 			"/>
        <polygon class="st3" points="236.7,176.2 309.9,191.8 320.2,185.8 298.6,183.3 			"/>
        <polygon class="st3" points="218.2,185 106.1,173.4 174.6,205.7 			"/>
        <polygon class="st2" points="730.6,213.7 768.8,211.3 633.3,186.6 587.4,190.8 724.8,212.8 			"/>
        <polygon class="st1" points="106.1,173.4 48.3,218.5 37.3,219.6 37.1,233.6 48.1,232.8 105.9,191.8 174.5,222.9 174.6,205.7
			"/>
        <polygon class="st1" points="587.4,190.8 633.3,186.6 632.5,158.6 605.9,161.6 586.7,163.8 429.4,122.3 342.5,172.8 327.8,181.4
			320.2,185.8 309.9,191.8 309.9,212.4 429.5,149.3 			"/>
        <polygon class="st3" points="592.9,158.3 429.4,122.3 586.7,163.8 605.9,161.6 			"/>
        <polygon class="st2" points="37.1,233.6 48.1,234.1 48.1,232.8 			"/>
        <polygon class="st1" points="768.8,211.3 768,190.6 632.5,158.6 633.3,186.6 			"/>
</g>


    <g id="chimney">
	<polygon class="st6" points="313.6,109.3 313.6,131.4 324.5,129.6 324.5,118 			"/>
        <polygon class="st5" points="327.7,114.8 342.4,117.8 353.3,120 357.5,119.3 328.6,113.4 324.4,114.1 			"/>
        <polygon class="st5" points="342.5,172.8 342.4,117.8 327.7,114.8 327.8,181.4 			"/>
        <path class="st5" d="M320.2,185.8l-21.6-2.5l0-50.5v-1.6l0-11.1l13.8-15.4l11.9,9.4l3.3,0.7l0.1,66.6L320.2,185.8z M324.5,129.6
			l0-11.6l-10.9-8.7v22.1L324.5,129.6z M302.4,146.6l10.4,4.2l0-2.5v-12.2v-3.6l-10.4,1.7L302.4,146.6z"/>
        <polygon class="st5" points="298.7,131.3 298.7,120.2 295.3,119.5 295.3,130.7 			"/>
        <polygon class="st5" points="298.7,120.2 312.5,104.7 310.1,102.9 295.3,119.5 			"/>
        <polygon class="st6" points="357.5,119.3 339.1,104.1 310.1,97.8 328.6,113.4 			"/>
        <polygon class="st6" points="295.3,119.5 310.1,102.9 312.5,104.7 324.4,114.1 328.6,113.4 310.1,97.8 290.8,120.4 290.8,131.4
			295.3,130.7 			"/>
        <polygon class="st6" points="290.8,131.4 298.7,132.8 298.7,131.3 295.3,130.7 			"/>
        <polygon class="st6" points="312.9,132.5 302.4,134.3 312.9,136.1 			"/>
        <polygon class="st6" points="302.4,134.3 302.4,146.6 312.9,148.3 312.9,136.1 			"/>
        <polygon class="st6" points="302.4,146.6 312.9,150.8 312.9,148.3 			"/>
</g>


    <g id="right-window">
	<g>
		<path class="st7" d="M699.8,305.8l-0.8,21.4l-2.8,20.3l-4.8,18l-6.5,14.6l-7.9,10l-8.9,4.6l-9.3-1.4l-9.1-7.7l-8.1-13.8l-6.5-19
			l-4.2-22.8l-1.6-24.8l1.2-24.6l3.8-22.5l6.1-18.6l7.8-13.4l8.8-7.4l9.1-1.3l8.9,4.6l8,9.9l6.8,14.4l5.2,17.8l3.3,20.2
			L699.8,305.8z M634.8,305.4l1.4,21.3l3.6,19.6l5.5,16.4l7,12L666.4,229l-7.9,1.3l-7.6,6.6l-6.7,11.7l-5.2,16.1l-3.3,19.4
			L634.8,305.4z M667.3,305.6l-7.2,76l8.1,1.4l7.7-3.8l6.9-8.6l5.7-12.6l4.2-15.7l2.5-17.8L667.3,305.6z M681.2,241.4l-7.1-8.5
			l-5.5,58.2l27,19.3l0.2-4.5l-1.2-18.8l-2.9-17.7l-4.5-15.5L681.2,241.4z"/>
        <polygon class="st8" points="642.5,385 651.6,392.7 658.9,393.4 649.9,385.6 				"/>
        <polygon class="st8" points="642.5,385 649.9,385.6 641.8,371.9 634.3,371.3 				"/>
        <polygon class="st8" points="658.9,393.4 651.6,392.7 661,394.1 668.2,394.8 				"/>
        <polygon class="st8" points="634.3,371.3 641.8,371.9 635.3,352.9 627.8,352.5 				"/>
        <polygon class="st8" points="623.6,329.8 627.8,352.5 635.3,352.9 631.1,330.1 				"/>
        <polygon class="st8" points="623.6,329.8 631.1,330.1 629.5,305.4 622,305.2 				"/>
        <polygon class="st8" points="622,305.2 629.5,305.4 630.7,280.7 623.2,280.7 				"/>
        <polygon class="st8" points="627.1,258.4 623.2,280.7 630.7,280.7 634.5,258.2 				"/>
        <polygon class="st8" points="627.1,258.4 634.5,258.2 640.6,239.6 633.2,239.9 				"/>
        <polygon class="st8" points="633.2,239.9 640.6,239.6 648.4,226.3 641.1,226.6 				"/>
        <polygon class="st8" points="649.9,219.2 641.1,226.6 648.4,226.3 657.2,218.8 				"/>
        <polygon class="st8" points="649.9,219.2 657.2,218.8 666.3,217.6 659.2,217.9 				"/>
	</g>
        <g>
		<polygon class="st9" points="639,264.8 635.8,284.2 634.8,305.4 636.1,326.7 639.7,346.3 645.3,362.8 652.2,374.8 666.4,229
			658.5,230.3 650.9,236.9 644.2,248.6 				"/>
            <polygon class="st9" points="692.6,342.4 695.1,324.6 667.3,305.6 660,381.7 668.1,383.1 675.8,379.3 682.7,370.7 688.4,358.1
								"/>
            <polygon class="st9" points="691.7,269.4 687.2,253.8 681.2,241.4 674.2,232.8 668.6,291 695.7,310.3 695.8,305.8 694.7,287.1
								"/>
	</g>
</g>


    <g>
	<g>
		<g>
			<polygon class="st0" points="291.3,410 277.8,408 231,414.8 151.1,401.6 151.1,398.7 135.2,400.5 121.7,402.1 225,419.9 			"/>
            <polygon class="st4" points="291.3,426.6 291.3,410 225,419.9 224.9,437.8 			"/>
            <polygon class="st0" points="277.9,394.2 197.2,383.6 151.2,388.5 231.1,400.2 			"/>
            <polygon class="st4" points="277.8,408 277.9,394.2 231.1,400.2 231,414.8 			"/>
            <polygon class="st4" points="121.5,417.7 224.9,437.8 225,419.9 121.7,402.1 			"/>
            <polygon class="st4" points="151.1,401.6 231,414.8 231.1,400.2 151.2,388.5 151.1,398.7 			"/>
		</g>
	</g>
        <g>
		<g>
			<polygon class="st9" points="531.6,409 530.8,342.8 430.4,337.3 430.8,397.4 			"/>
            <g>
				<path class="st7" d="M417.9,193.6l122.8,49.9l2.3,179.3l-218.3-27.5L324.5,251L417.9,193.6z M430.4,337.3l0.4,60.1L531.6,409
					l-0.8-66.2L430.4,337.3z M417.3,395.9l-0.4-59.3l-85-4.7l0.1,54.2L417.3,395.9z M430,267.9l0.4,54.1l100.3,4l-0.7-59.6
					L430,267.9z M331.8,318.2l85,3.4l-0.3-53.4l-84.7,1.2L331.8,318.2z M529.7,252.1L418,205.3l-86.3,52.1L529.7,252.1z"/>
                <polygon class="st8" points="543,422.7 549.7,421.2 547.4,243.9 540.7,243.5 				"/>
                <polygon class="st8" points="417.9,193.6 540.7,243.5 547.4,243.9 425,194.4 				"/>
			</g>
            <polygon class="st9" points="331.9,331.9 331.9,386.1 417.3,395.9 416.9,336.6 			"/>
            <polygon class="st9" points="530.6,326 529.9,266.5 430,267.9 430.3,322.1 			"/>
            <polygon class="st9" points="416.5,268.1 331.8,269.3 331.8,318.2 416.8,321.5 			"/>
            <polygon class="st9" points="418,205.3 331.8,257.4 529.7,252.1 			"/>
		</g>
            <g>
			<g>
				<path class="st7" d="M95.9,219.1l53.2,34.5l-1,115.9l-98-11.8l1.4-100.2L95.9,219.1z M100.1,315.9l-0.4,40.2l43.8,4.8l0.4-42.9
					L100.1,315.9z M93.5,355.4l0.4-39.9l-39.7-2l-0.5,37.5L93.5,355.4z M100.6,269.3l-0.4,36.3l43.7,1.5l0.3-38.7L100.6,269.3z
					 M54.4,304.1l39.7,1.4l0.4-36l-39.7,0.8L54.4,304.1z M144.3,259.1l-48.5-32l-40.9,34.8L144.3,259.1z"/>
                <polygon class="st8" points="148.1,369.5 155.3,368.8 156.2,253.8 149,253.6 				"/>
                <polygon class="st8" points="95.9,219.1 149,253.6 156.2,253.8 102.9,219.5 				"/>
			</g>
                <g>
				<polygon class="st9" points="143.5,360.9 143.8,318 100.1,315.9 99.6,356.1 				"/>
                    <polygon class="st9" points="54.2,313.6 53.7,351.1 93.5,355.4 94,315.6 				"/>
                    <polygon class="st9" points="143.9,307.2 144.3,268.5 100.6,269.3 100.2,305.6 				"/>
                    <polygon class="st9" points="94.5,269.4 54.8,270.2 54.4,304.1 94.1,305.4 				"/>
                    <polygon class="st9" points="95.8,227 54.9,261.9 144.3,259.1 				"/>
			</g>
		</g>
            <polygon class="st8" points="243.8,327.5 239.9,327.2 239.9,323.9 237.3,323.7 237.3,317.6 209.8,316.4 209.5,367.8 243.7,371.6
					"/>
            <g>
			<polygon class="st8" points="237.4,314.3 243.3,314.5 247.4,314.4 241.4,314.2 			"/>
                <polygon class="st7" points="243.3,324 247.3,323.8 247.4,314.4 243.3,314.5 			"/>
                <polygon class="st7" points="243.3,324 243.3,314.5 237.4,314.3 237.3,317.6 237.3,323.7 239.9,323.9 			"/>
                <path class="st7" d="M204.4,377.5L205,261l44.9-1.2L249.5,383L204.4,377.5z M239.9,323.9l3.4,0.2l4-0.2l0-9.5l-6-0.2l-4,0.1
				l0,3.3l-27.6-1.2l-0.3,51.5l34.2,3.7l0.1-44.1l-3.9-0.2L239.9,323.9z M244,308.6l-0.4-3.8l-0.6-3.7l-0.8-3.6l-1-3.5l-1.2-3.3
				l-1.3-3.2l-1.5-3l-1.7-2.8l-1.8-2.5l-1.9-2.3l-2-2l-2.1-1.7l-0.1,34.9L244,308.6z M223.6,273.2l-2.1,1.7l-1.9,2l-1.8,2.2
				l-1.6,2.5l-1.5,2.7l-1.3,2.9l-1.1,3.1l-0.9,3.2l-0.7,3.4l-0.5,3.4l-0.3,3.5l-0.1,3.5l13.6,0.4L223.6,273.2z"/>
                <polygon class="st7" points="260.6,392.2 260.9,247.7 256,247.5 255.6,392.8 			"/>
                <path class="st8" d="M199,385.3l0.8-135.4l56.2-2.4l-0.4,145.3L199,385.3z M205,261l-0.6,116.5l45.1,5.5l0.4-123.2L205,261z"/>
		</g>
            <polygon class="st8" points="227.7,273.2 227.6,308 244,308.6 243.7,304.8 243.1,301.1 242.3,297.5 241.4,294 240.2,290.6
			238.8,287.4 237.3,284.4 235.7,281.7 233.9,279.2 231.9,276.9 229.9,274.9 		"/>
            <polygon class="st8" points="209.8,307.5 223.4,307.9 223.6,273.2 221.5,274.9 219.6,276.9 217.8,279.1 216.1,281.6 214.6,284.3
			213.3,287.3 212.2,290.4 211.3,293.6 210.6,297 210.1,300.4 209.9,303.9 		"/>
	</g>
</g>
</svg>
