<?xml version="1.0" encoding="utf-8"?>
<!-- Generator: Adobe Illustrator 25.0.1, SVG Export Plug-In . SVG Version: 6.00 Build 0)  -->
<svg version="1.1" id="katman_1" xmlns="http://www.w3.org/2000/svg" x="0px" y="0px"
     viewBox="0 0 841.9 595.3" style="enable-background:new 0 0 841.9 595.3;" xml:space="preserve">
<style type="text/css">
	.st0{fill:#8F6645;}
	.st1{fill:#EEEEEE;}
	.st2{fill:#DDDDDD;}
	.st3{fill:#3D3A37;}
	.st4{fill:#C4C4C4;}
	.st5{fill:#3D3A37;}
	.st6{fill:#000000;}
	.st7{fill:#FFFFFF;}
	.st8{fill:#888888;}
	.st9{fill:#7884AF;}
</style>

    <g id="roof">
	<polygon class="st1" points="53.8,231.4 42.7,233.1 42.2,248 53.3,246.7 105.6,200.4 114.7,204.6 167.7,229.4 168,210.8
		106,181.1 		"/>
        <polygon class="st1" points="798.8,184.1 614.5,130.5 615.2,161.7 799.7,206.7 		"/>
        <polygon class="st2" points="799.7,206.7 615.2,161.7 572.8,168.1 586.5,171.1 763.4,210.1 		"/>
        <polygon class="st1" points="615.2,161.7 614.5,130.5 572.3,138.1 411.9,103.5 377.6,128.4 360.1,141.1 329.7,163.1 298.4,185.8
		296.5,187.2 295.2,188.1 295.1,209.5 295.1,210.1 412.1,133.2 572.8,168.1 		"/>
        <polygon class="st2" points="194.6,231.6 211.2,233.1 269.9,206 253.5,203.7 		"/>
        <polygon class="st1" points="180.8,230.5 194.6,231.6 194.9,213.5 168,210.8 167.7,229.4 		"/>
        <polygon class="st2" points="65.2,247.4 114.7,204.6 105.6,200.4 53.3,246.7 		"/>
        <polygon class="st2" points="295.1,210.1 309,211.7 426.2,136.3 412.1,133.2 		"/>
        <polygon class="st3" points="225.8,195.6 106,181.1 168,210.8 194.9,213.5 		"/>
        <polygon class="st3" points="298.4,185.8 253.7,179.5 296.5,187.2 		"/>
        <polygon class="st1" points="296.5,187.2 253.7,179.5 225.8,195.6 194.9,213.5 194.6,231.6 253.5,203.7 269.9,206 295.1,209.5
		295.2,188.1 		"/>
        <polygon class="st2" points="42.2,248 65.1,249.4 65.2,247.4 53.3,246.7 		"/>
</g>


    <g id="chimney">
	<polygon class="st5" points="377.6,121.9 360.1,118 360.1,141.1 377.6,128.4 		"/>
        <polygon class="st5" points="360.1,118 377.6,121.9 381.4,122.7 386.5,121.5 351.3,113.5 346.2,114.9 		"/>
        <path class="st5" d="M329.7,163.1l0.1-47.8l0-2l11.2-15l5.2,3.6l0,12.9l13.9,3.1l0,23.1L329.7,163.1z M344.8,146.1l11.2-9l0-8.9
		v-5.1l-11.1,2.8L344.8,146.1z M344.1,117.7l0-17.1L333,115.3l0,12.5l11.1-2.7L344.1,117.7z"/>
        <polygon class="st6" points="329.9,113.4 341.1,98.4 330.4,90.9 316.1,110.3 		"/>
        <polygon class="st6" points="330.4,85.2 312.1,111.4 316.1,110.3 330.4,90.9 341.1,98.4 346.3,102 346.2,114.9 351.3,113.5
		351.3,100.6 		"/>
        <polygon class="st6" points="330.4,85.2 351.3,100.6 386.5,109 365.4,94 		"/>
        <polygon class="st6" points="316.1,110.3 312.1,111.4 329.9,115.3 329.9,113.4 		"/>
        <polygon class="st6" points="386.5,109 351.3,100.6 351.3,113.5 386.5,121.5 		"/>
        <polygon class="st6" points="344.8,125.9 355.9,128.3 355.9,123.2 		"/>
        <polygon class="st5" points="355.9,128.3 344.8,125.9 344.8,146.1 355.9,137.2 		"/>
        <polygon class="st5" points="333,115.3 344.1,117.7 344.1,100.6 		"/>
        <polygon class="st6" points="344.1,117.7 333,115.3 333,127.8 344.1,125 		"/>
</g>


    <g id="body">
	<g>
		<polygon class="st0" points="61.2,406.8 177.9,425.4 180.8,230.5 167.7,229.4 114.7,204.6 65.2,247.4 65.1,249.4 			"/>
        <polygon class="st0" points="180.8,230.5 177.9,425.4 208.8,422.6 211.2,233.1 194.6,231.6 			"/>
	</g>
        <polygon class="st0" points="211.2,233.1 208.8,422.6 308,437.3 309,211.7 295.1,210.1 295.1,209.5 269.9,206 		"/>

        <g>
		<polygon class="st4" points="763.4,210.1 586.5,171.1 592.5,491.7 771.4,448 		"/>
            <polygon class="st0" points="426.2,136.3 309,211.7 308,437.3 308,446.2 592.5,491.7 586.5,171.1 		"/>
	</g>
</g>


    <g id="left-window">
	<path class="st7" d="M705.8,230.6l10.3,11.6l8.7,16.4l6.7,20l4.4,22.4l1.8,23.6l-0.8,23.5l-3.4,22.1l-5.9,19.5l-8.2,15.6l-10,10.5
		L698,420l-12-2.3l-11.7-9.3l-10.5-15.9l-8.4-21.6l-5.5-25.6l-2.2-27.5L645.2,215l49.2,9.7L705.8,230.6z M654.2,318.2l0.2,2
		l41.8,1.1l-1.5-84.7l-42.6-7.5L654.2,318.2z M699.7,239.2l2.6,91.5l-47.1-0.5l0.9,11.9l4.8,22.2l7.2,18.8l9.1,14l10.1,8.3
		l10.4,2.2l9.9-3.7l8.8-9l7.2-13.5l5.2-17l3-19.4l0.7-20.7l-1.6-20.8l-3.9-19.7l-5.9-17.5l-7.7-14.3l-9.1-10.1L699.7,239.2z"/>
        <polygon class="st8" points="649.9,345.2 647.7,317.7 639.8,317.8 642,345.2 		"/>
        <polygon class="st8" points="686,417.7 674.3,408.4 666.5,407.9 678.3,417.2 		"/>
        <polygon class="st8" points="674.3,408.4 663.8,392.5 656,392.1 666.5,407.9 		"/>
        <polygon class="st8" points="663.8,392.5 655.4,370.9 647.5,370.6 656,392.1 		"/>
        <polygon class="st8" points="655.4,370.9 649.9,345.2 642,345.2 647.5,370.6 		"/>
        <polygon class="st8" points="647.7,317.7 645.2,215 637.4,215.9 639.8,317.8 		"/>
        <g>
		<polygon class="st9" points="694.6,236.7 652,229.2 654.2,318.2 654.4,320.2 696.2,321.4 			"/>
            <polygon class="st9" points="713.7,251.8 704.6,241.7 699.7,239.2 702.3,330.7 655.2,330.2 656.1,342 660.9,364.2 668.1,383
			677.2,397 687.3,405.3 697.8,407.5 707.7,403.9 716.5,394.9 723.8,381.3 729,364.3 732.1,344.8 732.8,324.1 731.2,303.3
			727.3,283.6 721.4,266.1 			"/>
	</g>
</g>

    <g>
	<g>
		<polygon class="st9" points="265.4,267.1 261.8,267.7 254.8,270.3 248,274.1 241.6,279.1 235.7,285.2 232.4,289.5 231,416
			264.1,420.4 264.7,358.3 259.6,358.1 259.6,355.9 258.5,355.8 258.6,347.1 259.7,347.1 259.7,343.6 264.8,343.7 		"/>
        <polygon class="st9" points="275.3,421.9 308.9,426.4 309.5,285.4 305.6,281.1 298.6,275.3 291.4,271 283.9,268 276.5,266.5
			275.9,344 280.7,344.1 280.6,359.1 275.8,358.8 		"/>
        <g>
			<polygon class="st8" points="316.3,439.3 320.5,438.8 320.5,423.6 317.5,423.2 318,279.2 316.9,279.2 			"/>
            <path class="st8" d="M226.6,284.6l5.9-7.8l6.5-6.7l7-5.6l7.4-4.3l7.7-3l8-1.5l8.2,0l8.2,1.5l8.2,3.1l8,4.7l7.8,6.3l7.4,7.9
				l-0.6,160.1L225,425.6L226.6,284.6z M254.8,270.3l-6.7,3.8l-6.4,5l-5.9,6.1l-3.3,4.2L231,416l33.1,4.4l0.5-62.1l-5.1-0.2l0-2.2
				l4.1,0.2l3.6-0.1l0.1-8.7l-5.2-0.2l-2.5,0.1l0-3.5l5,0.1l0.6-76.7l-3.6,0.6L254.8,270.3z M309.5,285.4l-3.9-4.3l-7-5.8l-7.2-4.4
				l-7.4-2.9l-7.5-1.5l-0.6,77.5l4.8,0.1l-0.1,14.9l-4.8-0.2l-0.5,63.1l33.5,4.5L309.5,285.4z M272.9,347.8l-3.6,0.1l-0.1,8.2l5,0.2
				l3.6-0.1l0.1-8.2L272.9,347.8z"/>
            <polygon class="st7" points="301.8,265 309.6,271.3 313.7,271.5 305.9,265.3 			"/>
            <polygon class="st7" points="309.6,271.3 316.9,279.2 318,279.2 318,276.2 313.7,271.5 			"/>
            <polygon class="st7" points="293.8,260.3 301.8,265 305.9,265.3 297.8,260.5 			"/>
            <polygon class="st7" points="285.6,257.2 293.8,260.3 297.8,260.5 289.6,257.4 			"/>
            <polygon class="st7" points="277.3,255.6 285.6,257.2 289.6,257.4 281.4,255.9 			"/>
            <polygon class="st7" points="267.4,347.2 262.2,347.1 259.7,347.1 258.6,347.1 263.8,347.3 			"/>
            <polygon class="st7" points="267.3,356 267.4,347.2 263.8,347.3 263.7,356.1 			"/>
            <polygon class="st7" points="258.6,347.1 258.5,355.8 259.6,355.9 263.7,356.1 263.8,347.3 			"/>
            <polygon class="st7" points="277.8,356.1 277.9,347.9 274.3,348 274.2,356.2 			"/>
            <polygon class="st7" points="277.9,347.9 272.9,347.8 269.3,347.8 274.3,348 			"/>
            <polygon class="st7" points="274.2,356.2 274.3,348 269.3,347.8 269.2,356 			"/>
		</g>
	</g>
        <g>
		<path class="st7" d="M66.7,391l3.1-125.2l94.5-10.8l-2.5,148.3L66.7,391z M160.3,262.8l-44.4,4.6l-1.1,54.4l44.5-0.3L160.3,262.8z
			 M69.7,384.9l38.1,4.4l1.2-54.1l-38-0.7L69.7,384.9z M109.2,321.8l1.2-53.9l-37.9,3.9L71.2,322L109.2,321.8z M114.5,335.3
			l-1.2,54.6l44.7,5.2l1-59L114.5,335.3z"/>
            <polygon class="st8" points="164.3,254.9 161.8,403.2 170.4,402.6 172.8,255.5 		"/>
	</g>
        <g>
		<polygon class="st9" points="114.8,321.7 159.3,321.5 160.3,262.8 115.9,267.3 		"/>
            <polygon class="st9" points="108.9,335.2 70.9,334.5 69.7,384.9 107.7,389.3 		"/>
            <polygon class="st9" points="72.5,271.8 71.2,322 109.2,321.8 110.3,267.9 		"/>
            <polygon class="st9" points="158,395.1 159,336.1 114.5,335.3 113.3,389.9 		"/>
	</g>
        <polygon class="st5" points="701,408.1 689.1,405.7 681.3,405.2 693.3,407.5 	"/>

        <g>
		<g>
			<path class="st7" d="M561.4,449.9L333,420.6l-3.1-0.4l0.6-144l0-3l0.1-38.9l227-26L561.4,449.9z M547.7,221.4l-111.1,11.4
				l0.4,84.2l112-0.7L547.7,221.4z M336.2,411.3l87.9,10.2l-0.3-83.7l-87.3-1.6L336.2,411.3z M423.7,317l-0.3-82.9l-86.6,8.9
				l-0.3,74.5L423.7,317z M437.2,337.9l0.4,85.1l113.2,13.1l-1.4-96.1L437.2,337.9z"/>
            <polygon class="st8" points="557.7,208.2 561.4,449.9 570.5,448.3 566.6,209.6 			"/>
		</g>
            <polygon class="st9" points="437.1,316.9 549.1,316.3 547.7,221.4 436.7,232.7 		"/>
            <polygon class="st9" points="423.8,337.7 336.5,336.1 336.2,411.3 424.1,421.4 		"/>
            <polygon class="st9" points="336.8,243 336.5,317.5 423.7,317 423.4,234.1 		"/>
            <polygon class="st9" points="550.8,436.1 549.4,340 437.2,337.9 437.6,423 		"/>
	</g>
</g>
</svg>
