<?xml version="1.0" encoding="utf-8"?>
<!-- Generator: Adobe Illustrator 25.0.1, SVG Export Plug-In . SVG Version: 6.00 Build 0)  -->
<svg version="1.1" id="katman_1" xmlns="http://www.w3.org/2000/svg" x="0px" y="0px"
     viewBox="0 0 841.9 595.3" style="enable-background:new 0 0 841.9 595.3;" xml:space="preserve">
<style type="text/css">
	.st0{fill:#8F6645;}
	.st1{fill:#EEEEEE;}
	.st2{fill:#DDDDDD;}
	.st3{fill:#3D3A37;}
	.st4{fill:#C4C4C4;}
	.st5{fill:#3D3A37;}
	.st6{fill:#000000;}
	.st7{fill:#FFFFFF;}
	.st8{fill:#888888;}
	.st9{fill:#7884AF;}
</style>

    <g id="body">
	<polygon class="st4" points="76.8,213.8 73.8,431 207.5,476 210.1,188.4 			"/>
        <polygon class="st0" points="220.2,186.4 210.1,188.4 207.5,476 495.9,435.7 495.9,427.3 495.6,211.1 371.3,146.4 			"/>
        <polygon class="st0" points="613.7,411.9 641.8,415.4 640.5,222.6 627.9,223.5 612.7,224.6 			"/>
        <polygon class="st0" points="640.5,222.6 641.8,415.4 781.2,395.9 779.3,235.2 779.3,233.6 719.1,192.4 652.6,221.7 			"/>
        <polygon class="st0" points="495.9,427.3 613.7,411.9 612.7,224.6 547.6,201.2 507.6,208.1 507.6,209.9 495.6,211.1 			"/>
</g>


    <g id="roof">
	<polygon class="st2" points="76.8,213.8 210.1,188.4 220.2,186.4 173.8,182.1 39,211.3 			"/>
        <polygon class="st1" points="790.7,217.6 727.1,169.1 652.5,203.5 652.6,221.7 719.1,192.4 727.3,188.8 790.9,233 803.1,234
			802.9,218.9 			"/>
        <polygon class="st2" points="547.6,201.2 612.7,224.6 627.9,223.5 560.8,199 			"/>
        <polygon class="st2" points="495.6,211.1 507.6,209.9 381.9,143.6 371.3,146.4 			"/>
        <polygon class="st1" points="381.9,143.6 507.6,209.9 507.6,208.1 507.6,188.2 504.9,186.7 498.9,183.2 493,179.8 477.4,170.8
			382,115.4 220.7,158.7 211.2,157.6 174.5,153.4 173.8,182.1 220.2,186.4 371.3,146.4 			"/>
        <polygon class="st1" points="560.8,199 627.9,223.5 627.8,205.7 584,185.7 560.7,175.1 504.9,186.7 507.6,188.2 507.6,208.1
			547.6,201.2 			"/>
        <polygon class="st3" points="504.9,186.7 560.7,175.1 523.9,179.9 498.9,183.2 			"/>
        <polygon class="st3" points="220.7,158.7 382,115.4 215,156.6 211.2,157.6 			"/>
        <polygon class="st3" points="652.5,203.5 727.1,169.1 584,185.7 627.8,205.7 			"/>
        <polygon class="st1" points="173.8,182.1 174.5,153.4 39.5,190.1 39,211.3 			"/>
        <polygon class="st2" points="803.1,234 790.9,233 779.3,233.6 779.3,235.2 			"/>
        <polygon class="st2" points="779.3,233.6 790.9,233 727.3,188.8 719.1,192.4 			"/>
        <polygon class="st1" points="627.8,205.7 627.9,223.5 640.5,222.6 652.6,221.7 652.5,203.5 			"/>
</g>


    <g id="chimney">
	<polygon class="st6" points="477.4,111.4 492.9,107.9 503.4,105.6 505.2,105.2 500.7,104.3 469.6,111.3 474,112.1 		"/>
        <g>
		<polygon class="st5" points="492.9,107.9 477.4,111.4 477.4,170.8 493,179.8 			"/>
            <path class="st5" d="M503.4,105.6l-7.1,5.7l0,12.3l11.6,1.9l0-22.5l3.7-3l12.1,13.4l0,11.8v1.7l0.1,53l-25,3.3l-5.9-3.4
			l-0.1-71.9L503.4,105.6z M508.7,130.6l0,12.9v2.5l11.1-4.5l0-13.1l-11.1-1.8L508.7,130.6z"/>
            <polygon class="st6" points="523.8,113.4 523.8,125.2 536.2,122.8 536.1,110.9 			"/>
            <polygon class="st6" points="511.7,100 523.8,113.4 536.1,110.9 520.3,93 			"/>
            <polygon class="st6" points="496.4,123.5 508,125.4 507.9,103 505.2,105.2 503.4,105.6 496.3,111.2 			"/>
            <polygon class="st6" points="541,111.7 520.3,87.5 500.7,104.3 505.2,105.2 507.9,103 511.7,100 520.3,93 536.1,110.9
			536.2,122.8 541,123.6 			"/>
            <polygon class="st6" points="500.7,104.3 520.3,87.5 489,95 469.6,111.3 			"/>
            <polygon class="st6" points="541,123.6 536.2,122.8 523.8,125.2 523.8,127 			"/>
            <polygon class="st6" points="519.8,141.5 508.8,143.5 508.8,146 			"/>
            <polygon class="st16" points="508.8,143.5 519.8,141.5 519.8,128.4 508.7,130.6 			"/>
            <polygon class="st6" points="508.7,130.6 519.8,128.4 508.7,126.6 			"/>
	</g>
</g>


    <g id="right-window">
	<g>
		<polygon class="st8" points="163.3,280.7 159.7,257.4 152.2,257.2 155.7,280.7 				"/>
        <polygon class="st8" points="163.3,280.7 155.7,280.7 156.6,306.1 164.2,306 				"/>
        <path class="st7" d="M156.6,306.1l-1.9,25.2l-4.4,22.9l-6.6,18.8l-8.1,13.3l-9,7l-9.2,0.6l-8.7-5.5l-7.7-10.9L94.7,362
			l-4.5-18.8l-2.6-21l-0.6-22l1.5-21.8l3.5-20.5l5.3-17.9l6.9-14.2l8.1-9.5l8.9-4l9.1,2.1l8.7,8.5l7.6,14.5l5.8,19.7l3.5,23.5
			L156.6,306.1z M90.9,300.5l0.5,19.3l2.3,18.4l4,16.4l5.5,13.4l17.5-143.9l-7.7,3.3l-7.1,8.2l-6,12.3l-4.7,15.6l-3.1,17.9
			L90.9,300.5z M119.2,302.9l-9.2,74.5l7.6,4.6l8-0.7l7.8-6.3l7-11.6l5.6-16.3l3.8-19.8L119.2,302.9z M136.2,233.7l-7.5-7.5
			L121,288l29.9,22.9l0.4-5.2l-0.7-21.9l-3-20.3l-5-17.1L136.2,233.7z"/>
        <polygon class="st8" points="152.2,257.2 159.7,257.4 153.8,237.7 146.4,237.4 				"/>
        <polygon class="st8" points="157.8,353.9 162.3,331.1 154.7,331.4 150.3,354.3 				"/>
        <polygon class="st8" points="157.8,353.9 150.3,354.3 143.7,373 151.2,372.6 				"/>
        <polygon class="st8" points="154.7,331.4 162.3,331.1 164.2,306 156.6,306.1 				"/>
        <polygon class="st8" points="151.2,372.6 143.7,373 135.5,386.3 143,385.8 				"/>
        <polygon class="st8" points="128.2,212.7 121,212.3 130.1,214.4 137.4,214.8 				"/>
        <polygon class="st8" points="153.8,237.7 146.2,223.2 138.8,222.9 146.4,237.4 				"/>
        <polygon class="st8" points="146.2,223.2 137.4,214.8 130.1,214.4 138.8,222.9 				"/>
        <polygon class="st8" points="143,385.8 135.5,386.3 126.5,393.3 133.9,392.8 				"/>
	</g>
        <g>
		<polygon class="st9" points="95.3,263.5 92.2,281.4 90.9,300.5 91.4,319.8 93.7,338.2 97.7,354.6 103.2,368 120.8,224.1
			113.1,227.4 106,235.5 99.9,247.9 				"/>
            <polygon class="st9" points="146,347.1 149.8,327.4 119.2,302.9 110,377.4 117.6,382 125.5,381.3 133.3,375 140.3,363.4 				"/>
            <polygon class="st9" points="147.6,263.5 142.7,246.4 136.2,233.7 128.7,226.1 121,288 151,310.9 151.4,305.7 150.6,283.8"/>
	</g>
</g>


    <g>
	<g>
		<g>
			<g>
				<polygon class="st9" points="550,256.7 545.8,256.9 537.5,258.6 529.2,261.9 521.1,266.5 513.3,272.4 509,276.8 509.2,414.3
					550.5,409.2 550.3,347.7 544.5,348.1 544.4,333.5 550.3,333.2 				"/>
                <polygon class="st9" points="562.9,407.7 596.3,403.7 595.7,278 592,273.9 585.2,268 578,263.3 570.4,259.7 562.4,257.4
					562.7,332.7 567.8,332.4 567.8,336.4 568.1,344.4 567.9,346.7 562.7,347 				"/>
			</g>
            <g>
				<polygon class="st7" points="497.4,426.1 501,426.7 500.8,270.9 497.2,271 				"/>
                <path class="st8" d="M500.8,270.9l8.1-8l8.6-6.5l9-5l9.2-3.4l9.3-1.9l9.2-0.3l9,1.2l8.8,2.6l8.4,4l7.9,5.3l7.4,6.5l6.8,7.6
					l0.7,140.3L501,426.7L500.8,270.9z M537.5,258.6l-8.3,3.2l-8.1,4.6l-7.8,6l-4.4,4.3l0.2,137.5l41.3-5l-0.2-61.5l-5.9,0.3l0-14.6
					l5.9-0.3l-0.2-76.6l-4.2,0.2L537.5,258.6z M595.7,278l-3.7-4.1l-6.7-5.9l-7.2-4.7l-7.6-3.6l-8-2.3l0.3,75.2l5.1-0.2l0,4l-3-0.2
					l-5.4,0.3l0,7.9l3.2,0.2l5.2-0.3l0,2.3l-5.1,0.3l0.2,60.8l33.4-4L595.7,278z M550.5,345.6l6-0.3l0-8.6l-3.2-0.2l-6,0.3l0,8.7
					L550.5,345.6z"/>
                <polygon class="st7" points="497.2,271 500.8,270.9 508.9,262.9 505.3,263 				"/>
                <polygon class="st7" points="535.7,248 544.9,246.1 541.3,246.3 532.1,248.1 				"/>
                <polygon class="st7" points="526.5,251.4 535.7,248 532.1,248.1 522.9,251.6 				"/>
                <polygon class="st7" points="517.6,256.4 526.5,251.4 522.9,251.6 513.9,256.5 				"/>
                <polygon class="st7" points="508.9,262.9 517.6,256.4 513.9,256.5 505.3,263 				"/>
                <polygon class="st7" points="564.8,336.3 559.4,336.5 562.6,336.7 568,336.4 				"/>
                <polygon class="st7" points="559.4,336.5 559.4,344.5 562.7,344.7 562.6,336.7 				"/>
                <polygon class="st7" points="568.1,344.4 568,336.4 562.6,336.7 562.7,344.7 567.8,344.4 				"/>
                <polygon class="st7" points="547.3,336.8 547.3,345.4 550.5,345.6 550.5,336.9 				"/>
                <polygon class="st7" points="553.3,336.5 547.3,336.8 550.5,336.9 556.5,336.6 				"/>
                <polygon class="st7" points="550.5,336.9 550.5,345.6 556.5,345.3 556.5,336.6 				"/>
			</g>
		</g>
        <g>
			<g>
				<path class="st7" d="M657.9,391.2l-1.1-149.3l115.5,6.4l1.5,129.3L657.9,391.2z M768.8,254.8l-46.5-2.2l0.5,55.2l46.6-1
					L768.8,254.8z M662.5,383.1l54.2-5.9l-0.5-55.5l-54.2,2.1L662.5,383.1z M716,307.9l-0.5-55.6l-54.1-2.5l0.4,59.4L716,307.9z
					 M723,321.4l0.5,55l46.6-5.1l-0.6-51.8L723,321.4z"/>
                <polygon class="st8" points="657.9,391.2 656.8,241.9 648.8,242.3 649.9,390.4 				"/>
			</g>
            <g>
				<polygon class="st9" points="722.9,307.7 769.4,306.7 768.8,254.8 722.3,252.6 				"/>
                <polygon class="st9" points="716.2,321.7 662,323.8 662.5,383.1 716.7,377.2 				"/>
                <polygon class="st9" points="661.4,249.7 661.9,309.1 716,307.9 715.5,252.3 				"/>
                <polygon class="st9" points="770.2,371.4 769.6,319.6 723,321.4 723.5,376.4 				"/>
			</g>
		</g>
        <g>
			<g>
				<path class="st7" d="M240.5,440.2l1.7-221.4L480,232l0.2,180L240.5,440.2z M473.2,240.9l-92.6-4.4l-0.2,78.8l92.9-2.1
					L473.2,240.9z M250.8,427.7l115.3-12.5l0.2-79.8l-115,4.5L250.8,427.7z M366.4,315.6l0.2-79.8l-114.5-5.4l-0.6,87.7L366.4,315.6
					z M380.4,334.9l-0.2,78.8l93.2-10.1l-0.1-72.3L380.4,334.9z"/>
                <polygon class="st8" points="240.5,440.2 242.2,218.8 235.3,219.6 233.6,438.4 				"/>
			</g>
            <g>
				<polygon class="st9" points="380.4,315.3 473.3,313.3 473.2,240.9 380.6,236.5 				"/>
                <polygon class="st9" points="366.3,335.4 251.4,339.9 250.8,427.7 366.1,415.2 				"/>
                <polygon class="st9" points="252.2,230.5 251.5,318.2 366.4,315.6 366.6,235.8 				"/>
                <polygon class="st9" points="473.4,403.6 473.3,331.2 380.4,334.9 380.2,413.7 				"/>
			</g>
		</g>
	</g>
</g>
</svg>
