<?xml version="1.0" encoding="utf-8"?>
<!-- Generator: Adobe Illustrator 25.0.1, SVG Export Plug-In . SVG Version: 6.00 Build 0)  -->
<svg version="1.1" id="katman_1" xmlns="http://www.w3.org/2000/svg" x="0px" y="0px"
     viewBox="0 0 841.9 595.3" style="enable-background:new 0 0 841.9 595.3;" xml:space="preserve">
<style type="text/css">
	.st0{fill:#8F6645;}
	.st1{fill:#EEEEEE;}
	.st2{fill:#DDDDDD;}
	.st3{fill:#3D3A37;}
	.st4{fill:#C4C4C4;}
	.st5{fill:#3D3A37;}
	.st6{fill:#000000;}
	.st7{fill:#FFFFFF;}
	.st8{fill:#888888;}
	.st9{fill:#7884AF;}
</style>

    <g id="roof">
	<g>
		<polygon class="st1" points="76.9,172.4 182.7,103.4 212.6,109.9 333.6,136.5 333.5,115.3 182.6,82.9 76.7,157.4 			"/>
        <polygon class="st2" points="182.7,103.4 76.9,172.4 108.2,174.3 212.6,109.9 			"/>
        <polygon class="st3" points="182.6,82.9 333.5,115.3 646.7,155.8 492.7,126.2 292,98.2 287.7,97.6 267.9,94.8 264,94.3 247,91.9
				244.2,91.5 212.5,87.1 			"/>
        <polygon class="st1" points="333.5,115.3 333.6,136.5 369.3,140.5 635.7,169.8 646.7,171 646.7,155.8 			"/>
	</g>
        <g>
		<polygon class="st1" points="761.9,340 762,332.3 634.8,346.2 634.7,355.3 720.3,345 754.3,340.9 			"/>
            <polygon class="st3" points="762,332.3 634.9,325.1 634.8,346.2 			"/>
	</g>
</g>


    <g id="chiney">
	<polygon class="st6" points="291.8,26.7 243.8,17.1 244.2,91.5 247,91.9 246.7,35.7 246.6,27.6 263.7,30.9 264,94.3 267.9,94.8
		267.7,53.3 267.6,44.6 287.5,48.2 287.7,97.6 292,98.2 			"/>
        <polygon class="st5" points="287.5,48.2 267.6,44.6 267.7,53.3 			"/>
        <polygon class="st5" points="287.5,48.2 267.7,53.3 267.9,94.8 287.7,97.6 			"/>
        <polygon class="st5" points="263.7,30.9 246.6,27.6 246.7,35.7 			"/>
        <polygon class="st5" points="263.7,30.9 246.7,35.7 247,91.9 264,94.3 			"/>
        <polygon class="st6" points="243.8,17.1 212.2,26.8 212.5,87.1 244.2,91.5 			"/>
</g>


    <g id="body">
	<g>
		<polygon class="st0" points="634,485 634,496.1 719.3,470.9 719.4,460.9 			"/>
        <polygon class="st4" points="634,485 719.4,460.9 634.2,447.2 			"/>
	</g>
        <g>
		<polygon class="st0" points="212.6,109.9 108.2,174.3 111,484 370.2,574 369.3,140.5 333.6,136.5 			"/>
            <polygon class="st4" points="369.3,140.5 370.2,574 634,496.1 634,485 634.2,447.2 634.7,355.3 634.8,346.2 634.9,325.1
			635.7,169.8 			"/>
            <polygon class="st4" points="753.3,460.9 754.3,340.9 720.3,345 719.4,460.9 719.3,470.9 			"/>
            <polygon class="st4" points="634.2,447.2 719.4,460.9 720.3,345 634.7,355.3 			"/>
	</g>
</g>


    <g id="left-window">
	<polygon class="st9" points="106.8,304.5 152.4,307 151.4,179.3 105.9,206.6 			"/>
        <g>
		<path class="st7" d="M152.4,307l-1-127.7l-45.5,27.3l-0.1-12.7l2.3-0.3l98.8-61.2l2.5,387l-100.8-35l-1.7-179.9L152.4,307z
			 M115.9,475.7l38,12.5l-1.3-164.1l-38.1-3.1L115.9,475.7z M200,150.1l-40.8,24.5l1,132.8l40.8,2.2L200,150.1z M201.2,328.1
			l-40.8-3.3l1.3,166l40.6,13.4L201.2,328.1z"/>
            <polygon class="st8" points="206.9,132.4 209.3,519.4 216.2,518 215.9,467.6 215.8,466.8 214.2,200.3 213.8,133.2 				"/>
	</g>
        <polygon class="st9" points="152.6,324.2 114.5,321.1 115.9,475.7 153.9,488.2 			"/>
        <polygon class="st9" points="160.3,307.4 201,309.6 200,150.1 159.2,174.6 			"/>
        <polygon class="st9" points="161.7,490.8 202.3,504.2 201.2,328.1 160.4,324.8 			"/>
</g>


    <g>
	<g>
		<g>
			<polygon class="st9" points="613,256.7 613.2,214.8 579.9,212.4 579.8,247.7 593.1,248.1 593,256.3 			"/>
            <polygon class="st9" points="535.1,263.6 534.9,309 570.2,307.4 570.3,271.9 557.9,271.9 558,263.8 			"/>
            <g>
				<path class="st7" d="M531.3,315.3l0.3-111.5l84.4,6.7L615.5,311L531.3,315.3z M579.9,212.4l-0.1,35.3l13.3,0.4l0,8.2l19.9,0.4
					l0.2-41.8L579.9,212.4z M570.2,307.4l0.1-35.5h-12.4l0-8.1l-22.9-0.2l-0.1,45.4L570.2,307.4z M570.4,247.4l0.1-35.7l-35.3-2.6
					l-0.1,46l22.9,0.4l0-8.6L570.4,247.4z M579.7,271.9l-0.1,35.1l33.2-1.5l0.2-41.2l-19.9-0.2l0,7.7L579.7,271.9z"/>
                <polygon class="st8" points="531.3,315.3 531.6,203.8 526.8,204.1 526.5,315.1 				"/>
			</g>
            <polygon class="st9" points="558,255.6 558,247 570.4,247.4 570.6,211.7 535.2,209.1 535.1,255.2 			"/>
            <polygon class="st9" points="593,264.1 593,271.9 579.7,271.9 579.5,307 612.7,305.6 612.9,264.3 			"/>
		</g>
        <g>
			<polygon class="st9" points="501.7,254.5 501.8,206.7 458,203.5 457.9,244.1 475.5,244.6 475.5,254 			"/>
            <polygon class="st9" points="398.3,262.3 398.4,315 445.5,312.9 445.5,271.9 429,271.9 429,262.6 			"/>
            <g>
				<path class="st7" d="M393.5,322.4l-0.1-129.5l112.1,8.9l-0.2,114.9L393.5,322.4z M458,203.5l0,40.6l17.6,0.5l0,9.4l26.2,0.5
					l0.1-47.8L458,203.5z M445.5,312.9l0-41l-16.5,0v-9.3l-30.7-0.3l0,52.6L445.5,312.9z M445.5,243.7l0-41.1l-47.3-3.4l0.1,53.4
					l30.7,0.6v-9.9L445.5,243.7z M457.9,271.9l0,40.4l43.7-1.9l0.1-47.1l-26.2-0.2l0,8.9L457.9,271.9z"/>
                <polygon class="st8" points="393.5,322.4 393.4,192.9 388.5,193.3 388.7,322.1 				"/>
			</g>
            <polygon class="st9" points="429,253.1 429,243.2 445.5,243.7 445.5,202.6 398.3,199.1 398.3,252.5 			"/>
            <polygon class="st9" points="475.5,263.1 475.5,271.9 457.9,271.9 457.9,312.4 501.6,310.4 501.6,263.3 			"/>
		</g>
        <g>
			<polygon class="st9" points="612.1,424.8 612.3,383.4 579.2,388.1 579,423 592.3,420.6 592.2,428.7 			"/>
            <polygon class="st9" points="534.5,448.4 534.4,493.3 569.5,484.2 569.6,449 557.3,451.7 557.3,443.7 			"/>
            <g>
				<path class="st7" d="M530.8,500.4l0.3-110.4l84.1-11.6l-0.5,99.6L530.8,500.4z M579.2,388.1L579,423l13.2-2.5l0,8.1l19.9-3.9
					l0.2-41.4L579.2,388.1z M569.5,484.2l0.1-35.2l-12.3,2.7l0-8l-22.8,4.7l-0.1,44.9L569.5,484.2z M569.7,424.8l0.1-35.3l-35.2,5.1
					l-0.1,45.5l22.8-4.5l0-8.5L569.7,424.8z M578.9,447l-0.1,34.8l33.1-8.6l0.2-40.8l-19.9,4.1l0,7.7L578.9,447z"/>
                <polygon class="st8" points="531.1,390 615.2,378.4 610.5,378 526.3,389.5 				"/>
                <polygon class="st8" points="530.8,500.4 531.1,390 526.3,389.5 526,499.3 				"/>
			</g>
            <polygon class="st9" points="557.4,435.6 557.4,427.1 569.7,424.8 569.8,389.5 534.7,394.6 534.5,440.1 			"/>
            <polygon class="st9" points="592.2,436.5 592.2,444.2 578.9,447 578.8,481.8 611.9,473.2 612.1,432.4 			"/>
		</g>
        <g>
			<polygon class="st9" points="501.3,446.7 501.4,399.3 457.8,405.6 457.8,445.7 475.3,442.5 475.2,451.8 			"/>
            <polygon class="st9" points="398.5,476.6 398.6,528.6 445.4,516.4 445.4,476 429.1,479.5 429,470.3 			"/>
            <g>
				<path class="st7" d="M393.8,536.9L393.6,409L505,393.6l-0.2,113.7L393.8,536.9z M457.8,405.6l0,40.1l17.5-3.3l0,9.3l26-5.1
					l0.1-47.3L457.8,405.6z M445.4,516.4l0-40.5l-16.4,3.5l0-9.2l-30.5,6.3l0,52L445.4,516.4z M445.4,448l0-40.6l-47,6.8l0.1,52.8
					l30.5-6v-9.8L445.4,448z M457.8,473.3l0,40l43.4-11.3l0.1-46.6l-26,5.4l0,8.8L457.8,473.3z"/>
                <polygon class="st8" points="393.6,409 505,393.6 500.2,393.1 388.8,408.3 				"/>
                <polygon class="st8" points="393.8,536.9 393.6,409 388.8,408.3 389,535.5 				"/>
			</g>
            <polygon class="st9" points="429,460.9 429,451.1 445.4,448 445.5,407.4 398.5,414.2 398.5,466.9 			"/>
            <polygon class="st9" points="475.2,460.7 475.2,469.5 457.8,473.3 457.7,513.2 501.2,502 501.3,455.3 			"/>
		</g>
        <g>
			<path class="st8" d="M272.4,349.3l0.8,183.7L225,516.8l-1-172.3L272.4,349.3z M249.4,437.2l0.1,27.6l4.9,1.3l2.4-0.4l-0.1-16
				l2.6,0.6l8.6-1.4l0-10.8l-10-2.2L249.4,437.2z"/>
            <g>
				<polygon class="st8" points="278.4,339.6 285.5,339.1 224.5,312.5 217.6,312.7 				"/>
                <polygon class="st8" points="285.5,339.1 278.4,339.6 279.3,548.1 286.4,546.3 				"/>
                <path class="st7" d="M279.3,548.1l-60.5-21.3l-1.3-214.1l60.9,26.8L279.3,548.1z M273.2,533l-0.8-183.7l-48.4-4.8l1,172.3
					L273.2,533z"/>
                <polygon class="st8" points="268,438.1 257.9,435.9 249.4,437.2 259.4,439.4 				"/>
                <polygon class="st7" points="268,448.8 268,438.1 259.4,439.4 259.5,450.2 				"/>
                <polygon class="st7" points="259.5,450.2 259.4,439.4 249.4,437.2 249.6,464.7 254.5,466 254.4,449 256.8,449.6 				"/>
                <polygon class="st7" points="254.4,449 254.5,466 256.9,465.6 256.8,449.6 				"/>
			</g>
		</g>
        <path class="st5" d="M216,200.2l-1.8-0.1L216,200.2z"/>
        <path class="st7" d="M616,210.5L615.5,311 M615.5,311l-84.2,4.3 M531.6,203.8l84.4,6.7"/>
        <path class="st7" d="M531.3,315.3l-4.8-0.2 M531.6,203.8l-4.8,0.3 M526.5,315.1l0.3-111"/>
        <path class="st7" d="M505.4,201.7l-0.2,114.9 M505.2,316.7l-111.7,5.7 M393.4,192.9l112.1,8.9"/>
        <path class="st7" d="M393.5,322.4l-4.8-0.3 M393.4,192.9l-4.8,0.4 M388.7,322.1l-0.2-128.8"/>
        <path class="st7" d="M615.2,378.4l-0.5,99.6 M614.6,478l-83.9,22.4"/>
        <path class="st7" d="M615.2,378.4l-4.7-0.4 M530.8,500.4l-4.8-1.1"/>
        <line class="st7" x1="526.3" y1="389.5" x2="531.1" y2="390"/>
        <path class="st7" d="M526,499.3l0.3-109.8 M526.3,389.5l84.2-11.5"/>
        <path class="st7" d="M505,393.6l-0.2,113.7 M504.8,507.3l-111.1,29.6"/>
        <path class="st7" d="M505,393.6l-4.8-0.6 M393.8,536.9l-4.8-1.4"/>
        <line class="st7" x1="388.8" y1="408.3" x2="393.6" y2="409"/>
        <path class="st7" d="M389,535.5l-0.2-127.2 M388.8,408.3l111.4-15.2"/>
        <line class="st7" x1="278.4" y1="339.6" x2="285.5" y2="339.1"/>
        <line class="st7" x1="218.9" y1="526.8" x2="217.6" y2="312.7"/>
        <line class="st7" x1="279.3" y1="548.1" x2="218.9" y2="526.8"/>
        <line class="st7" x1="279.3" y1="548.1" x2="286.4" y2="546.3"/>
        <path class="st7" d="M257.9,435.9l10,2.2 M268,438.1l0,10.8"/>
        <line class="st7" x1="268" y1="448.8" x2="259.5" y2="450.2"/>
        <path class="st7" d="M259.4,439.4l0,10.8 M259.4,439.4l8.6-1.3"/>
        <path class="st7" d="M224.5,312.5l-6.9,0.2 M285.5,339.1l-61-26.6 M286.4,546.3l-0.9-207.2"/>
        <line class="st7" x1="254.4" y1="449" x2="254.5" y2="466"/>
        <path class="st7" d="M249.6,464.7l4.9,1.3 M249.4,437.2l0.1,27.6"/>
        <line class="st7" x1="259.4" y1="439.4" x2="249.4" y2="437.2"/>
	</g>
</g>
</svg>
