<?xml version="1.0" encoding="utf-8"?>
<!-- Generator: Adobe Illustrator 25.0.1, SVG Export Plug-In . SVG Version: 6.00 Build 0)  -->
<svg version="1.1" id="katman_1" xmlns="http://www.w3.org/2000/svg" x="0px" y="0px"
     viewBox="0 0 841.9 595.3" style="enable-background:new 0 0 841.9 595.3;" xml:space="preserve">
<style type="text/css">
	.st0{fill:#8F6645;}
	.st1{fill:#EEEEEE;}
	.st2{fill:#DDDDDD;}
	.st3{fill:#3D3A37;}
	.st4{fill:#C4C4C4;}
	.st5{fill:#3D3A37;}
	.st6{fill:#000000;}
	.st7{fill:#FFFFFF;}
	.st8{fill:#888888;}
	.st9{fill:#7884AF;}
</style>

    <g id="body">
	<polygon class="st0" points="613.3,176.7 486,112.9 333,138.5 317.9,140.6 317.2,351.1 495.5,342.6 614.1,347.4 			"/>
        <polygon class="st4" points="101.4,484.6 316.6,533.3 316.6,519.7 317.1,362 317.2,351.1 317.9,140.6 104.2,171 			"/>
        <polygon class="st4" points="464.1,566.8 548,585.8 547.4,377.2 464,371.7 464,492.6 464.1,551.2 			"/>
        <polygon class="st0" points="548,585.8 720,535.7 718.8,365.5 568.9,378.6 547.4,377.2 			"/>
        <polygon class="st4" points="317.1,362 316.6,519.7 464,492.6 464,371.7 			"/>
</g>


    <g id="chiney">
	<polygon class="st6" points="522.3,103.8 522.2,37.7 486,28.8 486.1,94.3 500.6,92 			"/>
        <polygon class="st5" points="486,28.8 445.8,37.4 445.8,100.8 447.9,100.4 447.9,46 461.7,43.2 461.7,49.1 461.7,98.2 465,97.7
			464.9,54.8 482.2,51.4 482.2,58.5 482.2,94.9 486.1,94.3 			"/>
        <polygon class="st6" points="447.9,46 447.9,100.4 461.7,98.2 461.7,49.1 			"/>
        <polygon class="st5" points="461.7,43.2 447.9,46 461.7,49.1 			"/>
        <polygon class="st6" points="464.9,54.8 465,97.7 482.2,94.9 482.2,58.5 			"/>
        <polygon class="st5" points="482.2,51.4 464.9,54.8 482.2,58.5 			"/>
</g>


    <g id="roof">
	<g>
		<polygon class="st3" points="316.6,533.3 464.1,566.8 464.1,551.2 316.6,519.7 			"/>
        <polygon class="st4" points="316.6,519.7 464.1,551.2 464,492.6 			"/>
	</g>
        <g>
		<polygon class="st2" points="486,112.9 613.3,176.7 628,175.5 500.6,110.5 			"/>
            <g>
			<polygon class="st1" points="464,371.7 547.4,377.2 568.9,378.6 568.9,365.1 317.2,351.1 317.1,362 				"/>
                <polygon class="st3" points="317.2,351.1 568.9,365.1 738.9,352.5 614.1,347.4 495.5,342.6 				"/>
                <polygon class="st1" points="739,363.7 738.9,352.5 568.9,365.1 568.9,378.6 718.8,365.5 				"/>
		</g>
            <polygon class="st1" points="104.2,171 317.9,140.6 333,138.5 333.1,120 88.1,159 87.8,173.3 			"/>
            <polygon class="st3" points="88.1,159 333.1,120 500.6,92 486.1,94.3 482.2,94.9 465,97.7 461.7,98.2 447.9,100.4 445.8,100.8
			248.7,132.3 			"/>
            <polygon class="st1" points="500.6,110.5 628,175.5 627.9,161.4 522.3,103.8 500.6,92 333.1,120 333,138.5 486,112.9 			"/>
	</g>
</g>


    <g id="right-window">
	<g>
		<polygon class="st9" points="525.2,227.5 525.2,269.7 560.7,270.3 560.6,234 598.4,235.9 598.2,201 556.8,197.4 556.9,229.2"/>
        <g>
			<polygon class="st8" points="511.4,182.7 511.5,281.4 517.6,281.4 517.4,182.2 				"/>
            <path class="st7" d="M605,281.8l-87.4-0.5l-0.2-99.1l87.2,8.6L605,281.8z M560.7,270.3l-0.1-36.3l37.8,2l-0.1-34.9l-41.4-3.6
				l0.1,31.8l-31.8-1.8l0.1,42.2L560.7,270.3z"/>
		</g>
	</g>
        <polygon class="st5" points="359.4,280.6 472.3,281.2 478.4,281.1 365.5,280.6 		"/>
        <g>
		<polygon class="st9" points="375.6,219 375.5,267.2 421.5,268 421.5,226.7 470.1,229.3 470,189.8 416.8,185.2 416.8,221.4 			"/>
            <g>
			<polygon class="st8" points="359.6,167.9 359.4,280.6 365.5,280.6 365.7,167.3 				"/>
                <path class="st7" d="M478.4,281.1l-112.9-0.6l0.2-113.3l112.6,11.1L478.4,281.1z M421.5,268l0-41.3l48.5,2.5l0-39.5l-53.2-4.7
				l0,36.2l-41.2-2.3l-0.1,48.2L421.5,268z"/>
		</g>
	</g>
</g>


    <g>
	<g>
		<g>
			<polygon class="st9" points="418.4,392.3 400.5,393.9 400.4,414.7 418.4,412.8 			"/>
            <polygon class="st9" points="418.4,441.2 418.4,418.1 400.4,420.1 400.4,443.6 			"/>
            <g>
				<polygon class="st7" points="431.8,444.9 438.2,444 438.2,434.8 431.8,435.7 				"/>
                <polygon class="st7" points="428.3,444.4 431.8,444.9 431.8,435.7 428.3,435.2 				"/>
                <polygon class="st7" points="434.7,434.4 428.3,435.2 431.8,435.7 438.2,434.8 				"/>
                <polygon class="st7" points="389.8,380.8 389.6,505.3 392.2,505.7 392.4,381 				"/>
                <polygon class="st7" points="389.8,380.8 392.4,381 443.3,376.9 440.7,376.7 				"/>
                <path class="st7" d="M443.3,376.9l0,119.4l-51.1,9.4l0.2-124.8L443.3,376.9z M438.8,490.7l0-107l-41.7,3.5l-0.1,111L438.8,490.7
					z"/>
                <path class="st8" d="M438.9,383.7l0,107l-41.8,7.5l0.1-111L438.9,383.7z M400.4,414.7l17.9-1.9l0-20.5l-17.9,1.6L400.4,414.7z
					 M438.2,434.8l-3.5-0.4l-6.4,0.8v9.2l3.5,0.5l6.4-0.9V434.8z M400.4,420.1l0,23.4l18-2.4l0-23.1L400.4,420.1z M418.5,491.8
					l0-43.9l-18.2,2.5l-0.1,44.6L418.5,491.8z"/>
			</g>
            <polygon class="st9" points="400.4,450.4 400.3,495 418.5,491.8 418.6,447.9 			"/>
		</g>
        <polygon class="st5" points="511.5,281.4 599.1,281.8 605,281.8 517.6,281.4 		"/>

        <g>
			<polygon class="st9" points="297.3,221.8 297.5,170.4 256.2,174.9 256,214.9 271.7,213.8 271.7,223.4 			"/>
            <polygon class="st9" points="209.5,235.9 209.3,282.6 245.1,282.5 245.3,242.8 232.1,243.4 232.2,234.7 			"/>
            <path class="st7" d="M205.8,289l0.7-113.8l94.8-10.9l-0.5,124.8L205.8,289z M256.2,174.9l-0.2,39.9l15.7-1.1l0,9.6l25.6-1.6
				l0.2-51.4L256.2,174.9z M245.1,282.5l0.2-39.6l-13.2,0.6l0-8.7l-22.6,1.2l-0.3,46.8L245.1,282.5z M245.5,215.6l0.2-39.5
				l-35.8,3.9l-0.3,47.2l22.6-1.4l0.1-9.3L245.5,215.6z M255.8,242.4l-0.2,40l41.4-0.2l0.2-51l-25.6,1.3l0,9.1L255.8,242.4z"/>
            <polygon class="st8" points="301.3,164.4 300.8,289.2 306.3,289.2 306.7,164.9 			"/>
            <polygon class="st9" points="232.2,225.8 232.3,216.5 245.5,215.6 245.7,176.1 209.9,180 209.6,227.2 			"/>
            <polygon class="st9" points="271.6,232.6 271.6,241.7 255.8,242.4 255.6,282.4 297,282.2 297.2,231.3 			"/>
		</g>

        <g>
			<polygon class="st9" points="180.3,229 180.6,183.2 147.7,186.8 147.5,222.5 160,221.6 160,230.2 			"/>
            <polygon class="st9" points="110.1,241 109.8,283 138.6,282.9 138.9,247.4 128.3,247.9 128.3,240.1 			"/>
            <path class="st7" d="M107,288.8l0.9-102.2l75.8-8.7l-0.7,111.1L107,288.8z M147.7,186.8l-0.3,35.7l12.5-0.9l-0.1,8.6l20.3-1.2
				l0.3-45.7L147.7,186.8z M138.6,282.9l0.3-35.5l-10.6,0.5l0.1-7.8l-18.2,0.9l-0.4,42L138.6,282.9z M139.1,223.1l0.3-35.4
				l-28.8,3.2l-0.4,42.4l18.2-1.1l0.1-8.3L139.1,223.1z M147.3,247.1l-0.3,35.8l32.9-0.1l0.3-45.4l-20.4,1.1l-0.1,8.1L147.3,247.1z"
            />
            <polygon class="st8" points="183.7,177.8 182.9,288.9 188.2,288.9 188.9,178.3 			"/>
            <polygon class="st9" points="128.4,232.1 128.5,223.8 139.1,223.1 139.3,187.7 110.6,190.9 110.2,233.2 			"/>
            <polygon class="st9" points="159.9,238.4 159.8,246.5 147.3,247.1 147,282.9 179.9,282.7 180.3,237.4 			"/>
		</g>
        <g>
			<polygon class="st9" points="296.5,431 296.7,379.1 255.2,375.5 255,415.8 270.8,417.8 270.8,427.5 			"/>
            <polygon class="st9" points="208.4,427.8 208.1,475.1 244.1,482 244.3,442 231,439.9 231.1,431.1 			"/>
            <path class="st7" d="M204.7,480.8l0.7-114.9l95.2,7.7l-0.5,126.1L204.7,480.8z M255.2,375.5l-0.2,40.3l15.8,2l0,9.7l25.7,3.5
				l0.2-51.9L255.2,375.5z M244.1,482l0.2-40l-13.3-2l0.1-8.8l-22.7-3.3l-0.3,47.2L244.1,482z M244.4,414.5l0.2-39.9l-35.9-3.1
				l-0.3,47.6l22.7,3.1l0.1-9.4L244.4,414.5z M254.9,443.6l-0.2,40.5l41.6,8l0.2-51.5l-25.7-3.7l0,9.2L254.9,443.6z"/>
            <polygon class="st8" points="300.5,373.7 300.1,499.8 305.5,498.9 306,373.3 			"/>
            <polygon class="st8" points="205.4,366 300.5,373.7 306,373.3 210.7,365.6 			"/>
            <polygon class="st9" points="231.1,422.1 231.2,412.8 244.4,414.5 244.7,374.6 208.7,371.4 208.4,419.1 			"/>
            <polygon class="st9" points="270.7,436.8 270.7,446 254.9,443.6 254.7,484 296.2,492.1 296.4,440.5 			"/>
		</g>
        <g>
			<polygon class="st9" points="179.1,415.1 179.4,368.9 146.4,366 146.1,402.1 158.7,403.7 158.6,412.3 			"/>
            <polygon class="st9" points="108.7,413.4 108.3,455.8 137.2,461.4 137.5,425.6 126.9,424 126.9,416.1 			"/>
            <path class="st7" d="M105.5,461l0.9-103.1l76,6.2l-0.7,112.1L105.5,461z M146.4,366l-0.3,36l12.6,1.6l-0.1,8.7l20.4,2.8l0.3-46.2
				L146.4,366z M137.2,461.4l0.3-35.8l-10.6-1.6l0.1-7.9l-18.2-2.6l-0.4,42.4L137.2,461.4z M137.7,401l0.3-35.7l-28.9-2.5l-0.4,42.7
				L127,408l0.1-8.4L137.7,401z M145.9,426.9l-0.3,36.1l33,6.4l0.3-45.8l-20.4-2.9l-0.1,8.2L145.9,426.9z"/>
            <polygon class="st8" points="182.4,364.1 181.7,476.2 187,475.5 187.7,363.8 			"/>
            <polygon class="st8" points="106.4,357.9 182.4,364.1 187.7,363.8 111.6,357.7 			"/>
            <polygon class="st9" points="127,408 127.1,399.7 137.7,401 138,365.3 109.1,362.8 108.7,405.6 			"/>
            <polygon class="st9" points="158.6,420.6 158.5,428.8 145.9,426.9 145.6,463 178.7,469.4 179,423.6 			"/>
		</g>
	</g>
</g>
</svg>
