<?xml version="1.0" encoding="utf-8"?>
<!-- Generator: Adobe Illustrator 25.0.1, SVG Export Plug-In . SVG Version: 6.00 Build 0)  -->
<svg version="1.1" id="katman_1" xmlns="http://www.w3.org/2000/svg" x="0px" y="0px"
     viewBox="0 0 841.9 595.3" style="enable-background:new 0 0 841.9 595.3;" xml:space="preserve">
<style type="text/css">
	.st0{fill:#8F6645;}
	.st1{fill:#EEEEEE;}
	.st2{fill:#DDDDDD;}
	.st3{fill:#3D3A37;}
	.st4{fill:#C4C4C4;}
	.st5{fill:#3D3A37;}
	.st6{fill:#000000;}
	.st7{fill:#FFFFFF;}
	.st8{fill:#888888;}
	.st9{fill:#7884AF;}
</style>

    <g id="roof">
	<g>
		<polygon class="st1" points="430.3,158 590,176.2 575.7,173.2 415.7,155.2 430.3,158 			"/>
        <polygon class="st1" points="802,207.1 736.3,192.2 736.6,206.7 787.6,217.3 802.4,220.4 			"/>
        <polygon class="st1" points="575.6,155.7 415.8,137.9 296,209 295.8,222.1 415.7,155.2 575.7,173.2 			"/>
        <polygon class="st1" points="575.6,155.7 575.7,173.2 590,176.2 684.6,195.8 684.3,180.4 644.9,171.4 			"/>
        <polygon class="st1" points="415.7,155.2 295.8,222.1 309.7,223.8 430.3,158 			"/>
        <polygon class="st1" points="802.4,220.4 787.6,217.3 787.6,218.5 			"/>
	</g>
        <g>
		<polygon class="st2" points="438.5,385.6 438.5,376.4 198.7,378.6 198.4,389.8 218.8,389.5 298,388.1 307.2,387.9 			"/>
            <polygon class="st2" points="198.7,378.6 438.5,376.4 307.4,375.1 81.3,376.7 			"/>
            <polygon class="st2" points="81.3,376.7 81,386.1 99.6,386.7 198.4,389.8 198.7,378.6 			"/>
	</g>
</g>


    <g id="body">
	<polygon class="st4" points="690.9,536.6 684.6,195.8 590,176.2 593.8,556.9 			"/>
        <polygon class="st0" points="590,176.2 430.3,158 309.7,223.8 307.4,375.1 438.5,376.4 438.5,385.6 307.2,387.9 305.4,498
			438,518.9 437.9,530.5 593.8,556.9 			"/>
        <polygon class="st0" points="744,525.5 795.8,514.7 787.6,218.5 787.6,217.3 736.6,206.7 			"/>
        <polygon class="st0" points="218.8,389.5 198.4,389.8 99.6,386.7 94.7,532.9 214.7,564.8 			"/>
        <polygon class="st4" points="295.3,552.4 295.5,539.2 296.1,499.1 298,388.1 218.8,389.5 214.7,564.8 			"/>
</g>


    <g id="chiney">
	<polygon class="st6" points="684.3,180.4 684.6,195.8 690.9,536.6 707.4,538.9 697,12.9 642.8,28.5 644.9,171.4 			"/>
        <path class="st5" d="M697,12.9l35.5,15.5l3.8,163.7l0.3,14.5l7.4,318.9l0.1,5.5l-36.7,7.9L697,12.9z M716.3,46L701,39.8l0.2,10.1
			l2.2,107.2l15.4,4L716.3,46z M730.9,38.1L718.8,33l0.2,8.2l2.8,126.7l12.2,3.1L730.9,38.1z"/>
        <polygon class="st6" points="703.3,157 718.7,161.1 716.3,46 701.2,49.8 			"/>
        <polygon class="st5" points="716.3,46 701,39.8 701.2,49.8 			"/>
        <polygon class="st6" points="721.8,168 733.9,171 730.9,38.1 719,41.2 			"/>
        <polygon class="st5" points="730.9,38.1 718.8,33 719,41.2 			"/>
</g>


    <g id="right-window">
	<g>
		<polygon class="st9" points="271.1,444.2 253,445.3 252.6,466.9 270.6,465.5 			"/>
        <polygon class="st9" points="270.1,495 270.5,471 252.4,472.5 251.9,496.9 			"/>
        <g>
			<polygon class="st7" points="282.9,499.2 289.4,498.5 289.6,488.9 283.1,489.6 				"/>
            <polygon class="st7" points="280,498.7 282.9,499.2 283.1,489.6 280.2,489.1 				"/>
            <polygon class="st8" points="286.7,488.5 280.2,489.1 283.1,489.6 289.6,488.9 				"/>
            <polygon class="st7" points="243.1,431.6 240.2,561 242.3,561.6 245.2,431.8 				"/>
            <polygon class="st8" points="243.1,431.6 245.2,431.8 296.4,429.2 294.3,429 				"/>
            <path class="st7" d="M296.4,429.2l-2.2,124.4l-51.9,8l2.9-129.8L296.4,429.2z M289.8,547.5l2-111.5l-41.9,2.4l-2.5,115.5
				L289.8,547.5z"/>
            <path class="st8" d="M291.8,436l-2,111.5l-42.4,6.3l2.5-115.5L291.8,436z M252.6,466.9l18.1-1.4l0.4-21.3l-18,1.1L252.6,466.9z
				 M289.6,488.9l-2.9-0.4l-6.5,0.6l-0.2,9.6l2.8,0.5l6.5-0.7L289.6,488.9z M252.4,472.5l-0.5,24.4l18.1-1.9l0.5-24L252.4,472.5z
				 M269.2,547.9l0.9-45.9l-18.4,2l-1,46.6L269.2,547.9z"/>
		</g>
        <polygon class="st9" points="251.8,504 250.8,550.6 269.2,547.9 270.1,502 			"/>
	</g>

        <g>
		<polygon class="st9" points="343.2,282.8 342.7,318.9 373,317.1 373.3,283.9 410.6,280.3 410.8,245.9 370.3,251.3 370,280.1
			"/>
            <g>
			<polygon class="st8" points="422.9,325.6 423.5,234.9 417.9,234.2 417.3,325.4 				"/>
                <polygon class="st7" points="342.1,329.4 422.9,325.6 417.3,325.4 336.6,329.2 				"/>
                <path class="st7" d="M417.3,325.4l-80.7,3.8l1.2-83.3l80.2-11.7L417.3,325.4z M373,317.1l0.3-33.2l37.3-3.6l0.3-34.4l-40.5,5.4
				l-0.3,28.8l-26.8,2.7l-0.5,36L373,317.1z"/>
		</g>
	</g>

        <g>
		<polygon class="st9" points="461.7,270.8 461.6,311.9 501.2,309.6 501.1,271.6 550.3,266.8 550.1,227.2 496.7,234.4 496.8,267.3
							"/>
            <g>
			<polygon class="st8" points="565.7,319 565,214.6 559.4,213.6 560.1,318.7 				"/>
                <polygon class="st8" points="459.5,323.9 565.7,319 560.1,318.7 453.8,323.7 				"/>
                <path class="st7" d="M560.1,318.7l-106.2,5l0.3-94.7l105.2-15.3L560.1,318.7z M501.2,309.6l0-38l49.2-4.8l-0.2-39.6l-53.4,7.2
				l0,32.9l-35,3.5l-0.1,41L501.2,309.6z"/>
		</g>
	</g>
</g>


    <g>
	<g>
		<g>
			<polygon class="st4" points="438,518.9 305.4,498 296.1,499.1 295.5,539.2 			"/>
            <polygon class="st0" points="438,518.9 295.5,539.2 295.3,552.4 437.9,530.5 			"/>
		</g>
	</g>
        <g>
		<g>
			<polygon class="st9" points="747.7,328.1 800.4,331.3 798,237 745.6,225.9 			"/>
            <g>
				<path class="st7" d="M747.1,523.5l-6.3-311.7l56.9,13.1L798,237l-52.4-11.1l2.1,102.2l52.7,3.2l4.5,178.9L747.1,523.5z
					 M797,348.6l-48.9-1.6l3.4,165.5l49.3-10.6L797,348.6z"/>
                <polygon class="st7" points="747.1,523.5 740.8,211.8 736.8,212.4 736.9,216.9 737.1,227.5 739.2,333.2 739.5,348 742.3,491.9
					742.6,502.6 742.6,503.6 743,522.9 				"/>
			</g>
            <polygon class="st9" points="751.5,512.6 800.8,501.9 797,348.6 748.1,347 			"/>
		</g>


            <g>
			<polygon class="st9" points="375.5,418.1 363.1,417.4 362.9,434 375.3,434.9 			"/>
                <polygon class="st9" points="375.1,458.2 375.3,439.3 362.8,438.3 362.6,456.9 			"/>
                <g>
				<polygon class="st7" points="379,463 383.8,463.5 383.9,455.8 379.1,455.3 				"/>
                    <polygon class="st7" points="383.8,463.5 387,463.2 387.1,455.5 383.9,455.8 				"/>
                    <polygon class="st8" points="387.1,455.5 382.3,455 379.1,455.3 383.9,455.8 				"/>
                    <polygon class="st8" points="360.2,406.3 357.8,406.4 394.1,408 396.5,407.9 				"/>
                    <path class="st7" d="M394.1,408l-0.9,102.3l-36.5-5.8l1.2-98.1L394.1,408z M389.8,504.3l0.8-91l-29.6-1.5l-1,88L389.8,504.3z"/>
                    <polygon class="st8" points="394.1,408 393.2,510.3 395.6,510 396.5,407.9 				"/>
                    <path class="st8" d="M390.6,413.3l-0.8,91l-29.9-4.5l1-88L390.6,413.3z M362.9,434l12.4,0.9l0.2-16.8l-12.4-0.7L362.9,434z
					 M387,463.2l0.1-7.7l-4.8-0.5l-3.2,0.3L379,463l4.8,0.5L387,463.2z M362.8,438.3l-0.2,18.7l12.4,1.3l0.2-18.9L362.8,438.3z
					 M374.8,499.9l0.4-36.2l-12.6-1.4l-0.4,35.6L374.8,499.9z"/>
			</g>
                <polygon class="st9" points="362.6,462.4 362.2,498 374.8,499.9 375.1,463.7 			"/>
		</g>

            <g>
			<g>
				<polygon class="st8" points="566.4,413.3 459.3,408.8 453.6,409.1 560.7,413.6 				"/>
                <polygon class="st8" points="567.1,521.7 566.4,413.3 560.7,413.6 561.4,522.6 				"/>
                <path class="st7" d="M561.4,522.6L453.2,507l0.3-97.9l107.1,4.5L561.4,522.6z M501.4,501.6l0-39.4l50.1,4.7l-0.2-41l-54.4-3
					l0,34.1l-35.6-3.2l-0.1,42.5L501.4,501.6z"/>
			</g>
                <polygon class="st9" points="461.3,453.9 461.2,496.3 501.4,501.6 501.3,462.3 551.5,466.9 551.2,425.9 496.9,423 496.9,457
				"/>
		</g>
	</g>
</g>
</svg>
