<?xml version="1.0" encoding="utf-8"?>
<!-- Generator: Adobe Illustrator 25.0.1, SVG Export Plug-In . SVG Version: 6.00 Build 0)  -->
<svg version="1.1" id="katman_1" xmlns="http://www.w3.org/2000/svg" x="0px" y="0px"
     viewBox="0 0 841.9 595.3" style="enable-background:new 0 0 841.9 595.3;" xml:space="preserve">
<style type="text/css">
	.st0{fill:#8F6645;}
	.st1{fill:#EEEEEE;}
	.st2{fill:#DDDDDD;}
	.st3{fill:#3D3A37;}
	.st4{fill:#C4C4C4;}
	.st5{fill:#3D3A37;}
	.st6{fill:#000000;}
	.st7{fill:#FFFFFF;}
	.st8{fill:#888888;}
	.st9{fill:#7884AF;}
</style>

    <g id="body">
	<polygon class="st4" points="290.5,565.4 400.4,589 399.6,190.4 291.1,206.2 			"/>
        <polygon class="st0" points="430.1,186 399.6,190.4 400.4,589 670.9,532 667.5,228.6 552.5,163.8 			"/>
        <polygon class="st4" points="231.7,214.8 160.6,225.2 158.7,537.1 230.5,552.5 			"/>
</g>


    <g id="roof">
	<polygon class="st1" points="291.1,189.6 291.1,206.2 399.6,190.4 430.1,186 430.1,167 			"/>
        <polygon class="st1" points="328.6,182.8 291.1,189.6 430.1,167 580.9,139.7 328.6,181.2 			"/>
        <polygon class="st1" points="150.4,212.4 150.3,226.7 160.6,225.2 231.7,214.8 231.8,199.2 			"/>
        <polygon class="st1" points="150.4,212.4 231.8,199.2 231.8,197.9 			"/>
        <polygon class="st1" points="430.1,167 430.1,186 552.5,163.8 581.1,158.6 696.2,226 696,211.7 580.9,139.7 			"/>
        <polygon class="st1" points="667.5,228.6 696.2,226 581.1,158.6 552.5,163.8 			"/>
</g>


    <g id="chiney">
	<g>
		<polygon class="st6" points="291.1,206.2 291.1,189.6 328.6,182.8 328.6,181.2 328.7,23.1 276.2,8.7 275,568.1 290.5,565.4
			"/>
        <path class="st5" d="M275,568.1l-44.6-9.9l0-5.7l1.2-337.6l0.1-15.6v-1.2l0.6-174l43.8-15.3L275,568.1z M254.4,53.5l0-10.1
			l-18.2,5.8l-0.4,122.5l18.3-3.5L254.4,53.5z M273.7,30.7l0-9.3l-15.6,5.3l-0.4,147.5l15.7-2.9L273.7,30.7z"/>
        <polygon class="st6" points="235.8,171.8 254.1,168.3 254.4,53.5 236.2,49.3 			"/>
        <polygon class="st5" points="254.4,43.4 236.2,49.3 254.4,53.5 			"/>
        <polygon class="st6" points="257.6,174.3 273.3,171.4 273.7,30.7 258.1,26.7 			"/>
        <polygon class="st5" points="273.7,21.5 258.1,26.7 273.7,30.7 			"/>
	</g>
</g>

    <g id="left-window">
	<g>
		<path class="st7" d="M478.5,349.4l-0.7-144.4l-77.7,15.4l0-16.5l3.6,0.5l0.8,0.1l143.4-26.4l2.8,379.6l-149.8,31.3l-0.5-240.5
			L478.5,349.4z M415.4,571.2l64.1-12.5L478.5,369l-63.7,0.6L415.4,571.2z M540.2,192.7L489,202.8l0.8,146.7l51.6,0.5L540.2,192.7z
			 M541.5,368.4l-51.6,0.5l1,187.6l51.9-10.1L541.5,368.4z"/>
        <polygon class="st7" points="541.5,179.1 403.6,204.4 404.4,204.6 547.8,178.2 			"/>
	</g>
        <polygon class="st9" points="400.3,348.7 478.5,349.4 477.7,205.1 400.1,220.4 		"/>
        <polygon class="st9" points="478.5,369 414.9,369.6 415.4,571.2 479.5,558.7 		"/>
        <polygon class="st9" points="489.8,349.5 541.4,350 540.2,192.7 489,202.8 		"/>
        <polygon class="st9" points="490.9,556.5 542.8,546.3 541.5,368.4 489.9,368.9 		"/>
</g>

    <g>
	<g>
		<g>
			<polygon class="st8" points="560.9,559.7 559.3,352.3 553,352.4 554.5,558.7 			"/>
            <path class="st7" d="M614.4,372.1l1.7,175.8l-55.2,11.8l-1.6-207.4L614.4,372.1z M611.1,537.7l-0.7-69.8l3.6-0.4l-0.1-9.3
				l-3.6-0.3l-0.7-77l-43.7,1.1l1.3,164.6L611.1,537.7z"/>
		</g>
        <polygon class="st8" points="565.9,382 567.2,546.6 611.1,537.7 610.4,467.9 610,482.9 605.7,483.5 603.6,483.2 603.4,468.4
			598,467.9 597.9,458.5 606.4,457.6 610.3,457.9 609.6,380.9 		"/>
        <g>
			<polygon class="st7" points="606.4,457.6 597.9,458.5 605.5,459.1 613.9,458.2 610.3,457.9 			"/>
            <polygon class="st7" points="597.9,458.5 598,467.9 603.4,468.4 603.6,483.2 605.7,483.5 605.5,459.1 			"/>
            <polygon class="st7" points="614,467.5 613.9,458.2 605.5,459.1 605.7,483.5 610,482.9 609.8,468 			"/>
		</g>
        <polygon class="st9" points="301.3,349.6 400.3,348.7 400.1,220.4 301.5,233.1 		"/>
        <path class="st7" d="M293.9,566.4l0.5-347.4L400,203.9l0,16.5l-98.6,12.6l-0.2,116.6l99-0.9l0.5,240.5L293.9,566.4z M391.8,372.2
			l-90.6-1.1L301,557l91.2,18.3L391.8,372.2z"/>
        <polygon class="st9" points="301,557 392.2,575.3 391.8,372.2 301.3,371.1 		"/>

        <line class="st5" x1="560.9" y1="559.7" x2="559.3" y2="352.3"/>
        <path class="st5" d="M559.3,352.3l55.1,19.8 M616.1,547.9l-1.7-175.8 M560.9,559.7l55.2-11.8"/>
        <path class="st5" d="M565.9,382l1.3,164.6 M567.2,546.6l43.9-8.8 M610.3,457.9l-0.7-77 M611.1,537.7l-0.7-69.8 M609.6,380.9
			l-43.7,1.1 M597.9,458.5l8.5-0.9 M598,467.9l-0.1-9.4"/>
        <path class="st5" d="M613.9,458.2l0.1,9.3 M553,352.4l6.3,0 M610,482.9l-0.1-14.9 M605.7,483.5l4.3-0.6"/>
        <path class="st5" d="M605.5,459.1l0.2,24.4 M605.5,459.1l8.4-0.9 M605.5,459.1l-7.6-0.6"/>
        <path class="st5" d="M554.5,558.7l6.4,1 M603.4,468.4l-5.5-0.5 M603.6,483.2l2.1,0.2 M603.4,468.4l0.1,14.9 M553,352.4l1.5,206.3"
        />
        <path class="st5" d="M400.9,589.1l-0.5-240.5 M301.3,349.6l99-0.9 M400.3,348.7l78.1,0.7"/>
        <path class="st5" d="M400,203.9l-105.6,15.1 M294.5,219.1l-0.5,347.4 M293.9,566.4l106.9,22.7"/>
        <line class="st5" x1="403.6" y1="204.4" x2="541.5" y2="179.1"/>
        <path class="st5" d="M489.8,349.5l51.6,0.5 M489.8,349.5L489,202.8 M540.2,192.7L489,202.8 M541.4,350l-1.1-157.3 M490.9,556.5
			l51.9-10.1 M490.9,556.5l-1-187.6 M489.9,368.9l51.6-0.5 M542.8,546.3l-1.3-177.9"/>
        <line class="st5" x1="547.8" y1="178.2" x2="550.6" y2="557.8"/>
        <line class="st5" x1="404.4" y1="204.6" x2="547.8" y2="178.2"/>
        <path class="st5" d="M547.8,178.2l-6.3,0.9 M610.3,457.9l-4-0.3 M613.9,458.2l-3.6-0.3 M614,467.5l-3.6,0.4 M403.6,204.4l0.8,0.1
			 M400,203.9l3.6,0.5 M550.6,557.8l-149.8,31.3"/>
	</g>
</g>
</svg>
