<?xml version="1.0" encoding="utf-8"?>
<!-- Generator: Adobe Illustrator 25.0.1, SVG Export Plug-In . SVG Version: 6.00 Build 0)  -->
<svg version="1.1" id="katman_1" xmlns="http://www.w3.org/2000/svg" x="0px" y="0px"
     viewBox="0 0 841.9 595.3" style="enable-background:new 0 0 841.9 595.3;" xml:space="preserve">
<style type="text/css">
	.st0{fill:#8F6645;}
	.st1{fill:#EEEEEE;}
	.st2{fill:#DDDDDD;}
	.st3{fill:#3D3A37;}
	.st4{fill:#C4C4C4;}
	.st5{fill:#3D3A37;}
	.st6{fill:#000000;}
	.st7{fill:#FFFFFF;}
	.st8{fill:#888888;}
	.st9{fill:#7884AF;}
</style>

    <g id="chimney">
	<polygon class="st5" points="390.4,25.8 390.4,22.2 423,12.1 423,34.9 			"/>
        <polygon class="st6" points="423,34.9 423,12.1 456.4,22.1 456.5,44.2 			"/>
</g>


    <g id="roof">
	<polygon class="st3" points="239.3,64 374.3,21.3 441.2,124.6 461.3,134.6 455.4,145.2 441.2,137.9 389.2,111 381.4,107
		353.6,92.6 347.5,89.5 341,91.1 266.9,109.8 264.3,110.4 256.3,119.8 234.8,144.8 228.8,151.8 203.3,181.4 193.8,192.5
		191.1,183.6 203.4,169 			"/>
        <polygon class="st3" points="441.2,124.6 374.3,21.3 390.4,25.8 423,34.9 456.5,44.2 578.4,78.1 644.2,164.2 			"/>
        <polygon class="st2" points="441.2,124.6 644.2,164.2 663.4,172.8 461.3,134.6 			"/>
        <polygon class="st1" points="663.4,172.8 657.8,181.1 644.3,178.7 455.4,145.2 461.3,134.6 			"/>
        <polygon class="st1" points="203.3,193.5 193.8,192.5 203.3,181.4 			"/>
</g>


    <g id="body">
	<g>
		<polygon class="st4" points="645.7,379.2 645.8,395.3 441.3,413 441.3,392.9 			"/>
        <path class="st4" d="M264.3,110.4l2.6-0.6l-0.5,98.7l74.3-10.1L341,91.1l6.6-1.7l6,3.1l-0.3,104l28.1-89.6l7.8,4L364,195.2
			l77.2-10.5v14.5l-88,10.7l-0.5,177l88.5,5.9l0,20.1l-239.6-20.7l0.1-15.4l52.9,3.5l0.9-158.6l-52.7,6.4l0.1-11.2l44.6-6.1
			l-19-59.2l6-7l21,65.1l0.5-90.1L264.3,110.4z M340.6,211.5l-74.3,9.1l-0.9,160.6l74.7,5L340.6,211.5z"/>
        <polygon class="st4" points="644.5,212.4 644.6,224.1 441.3,199.2 441.3,184.6 			"/>
	</g>
        <g>
		<polygon class="st4" points="203.3,181.4 228.8,151.8 247.8,211 203.1,217.1 203,228.2 203.3,193.5 			"/>
            <polygon class="st4" points="353.3,209.9 441.3,199.2 441.3,392.9 352.8,387 			"/>
            <polygon class="st4" points="441.3,392.9 441.3,199.2 644.6,224.1 645.7,379.2 			"/>
            <polygon class="st4" points="266.9,109.8 341,91.1 340.6,198.3 266.4,208.4 			"/>
            <polygon class="st4" points="234.8,144.8 256.3,119.8 255.8,209.9 			"/>
            <polygon class="st4" points="441.3,413 645.8,395.3 646.7,535.3 441.3,588.2 			"/>
            <polygon class="st4" points="441.2,137.9 455.4,145.2 644.3,178.7 644.5,212.4 441.3,184.6 			"/>
            <polygon class="st4" points="353.6,92.6 381.4,107 353.3,196.6 			"/>
            <polygon class="st4" points="389.2,111 441.2,137.9 441.3,184.6 364,195.2 			"/>
            <polygon class="st4" points="255.7,221.8 254.8,380.4 201.9,376.9 203,228.2 			"/>
            <polygon class="st4" points="201.8,392.3 441.3,413 441.3,588.2 200.7,526.4 			"/>
            <polygon class="st4" points="266.3,220.5 340.6,211.5 340.1,386.1 265.4,381.1 			"/>
	</g>
</g>


    <g id="left-window">
	<polygon class="st9" points="586,469.2 578.9,470.3 578.7,427.3 585.8,426.5 		"/>
        <polygon class="st9" points="606.9,465.8 606.6,424.1 626.3,421.9 626.5,462.6 		"/>
        <g>
			<polygon class="st8" points="567.8,417.8 626.7,411.8 631.5,412.1 572.7,418.1 			"/>
            <polygon class="st8" points="568.3,536.7 567.8,417.8 572.7,418.1 573.3,537.6 			"/>
            <path class="st7" d="M631.5,412.1l0.7,111.5l-58.9,14l-0.5-119.5L631.5,412.1z M578.9,470.3l7.1-1.1l-0.2-42.7l-7,0.8
				L578.9,470.3z M606.6,424.1l0.2,41.7l19.6-3.2l-0.3-40.7L606.6,424.1z M599.5,521.8l-0.2-41.6l-20.3,3.6l0.2,42.6L599.5,521.8z
				 M607.2,520.1l7.5-1.7l-0.2-40.8l-7.5,1.3L607.2,520.1z M626.6,475.4l-7,1.2l0.2,40.6l7-1.6L626.6,475.4z M598.9,425l-7.7,0.9
				l0.2,42.5l7.7-1.2L598.9,425z"/>
		</g>
        <polygon class="st9" points="599.2,480.2 599.5,521.8 579.2,526.4 579,483.8 		"/>
        <polygon class="st9" points="614.7,518.4 607.2,520.1 607,478.9 614.5,477.5 		"/>
        <polygon class="st9" points="619.6,476.6 626.6,475.4 626.9,515.6 619.9,517.2 		"/>
        <polygon class="st9" points="591.3,425.8 598.9,425 599.2,467 591.5,468.3 		"/>
        <polygon class="st9" points="477.1,486.4 468.1,487.8 468.1,439.3 477,438.2 		"/>
        <polygon class="st9" points="503.5,482.1 503.4,435.3 528,432.5 528.1,478.1 		"/>
        <g>
			<polygon class="st8" points="455.5,428.6 529.6,421.1 534.5,421.5 460.5,429.1 			"/>
            <polygon class="st8" points="455.6,562.7 455.5,428.6 460.5,429.1 460.6,563.9 			"/>
            <path class="st7" d="M534.5,421.5l0.4,124.7l-74.3,17.6l-0.1-134.8L534.5,421.5z M468.1,487.8l8.9-1.5l-0.1-48.1l-8.9,1
				L468.1,487.8z M503.4,435.3l0.1,46.8l24.7-4l-0.1-45.6L503.4,435.3z M493.9,545.2l-0.1-46.8l-25.6,4.6l0.1,48L493.9,545.2z
				 M503.6,543l9.4-2.1l-0.1-45.8l-9.4,1.7L503.6,543z M528.2,492.4l-8.8,1.6l0.1,45.5l8.8-2L528.2,492.4z M493.6,436.4l-9.7,1.1
				l0.1,47.8l9.7-1.6L493.6,436.4z"/>
		</g>
        <polygon class="st9" points="493.8,498.5 493.9,545.2 468.2,551 468.1,503 		"/>
        <polygon class="st9" points="513,540.9 503.6,543 503.5,496.7 512.9,495.1 		"/>
        <polygon class="st9" points="519.4,493.9 528.2,492.4 528.3,537.4 519.5,539.4 		"/>
        <polygon class="st9" points="483.9,437.5 493.6,436.4 493.7,483.6 484,485.2 		"/>
</g>


    <g>
	<g>
		<polygon class="st8" points="407.3,461.8 407.2,568.8 362.9,558 363,510.8 369.2,512 374.7,511.1 374.7,498.8 366.7,497.3
			363.1,497.9 363.2,455.8 364.5,452.5 367.6,447.5 371.2,443.5 375.4,440.6 380,439 384.8,438.8 389.6,440.1 394.3,442.8 
			398.6,446.8 402.6,452 405.9,458 		"/>
        <g>
			<polygon class="st8" points="413.1,583.3 413.2,457.6 417.2,457.1 417.1,582.3 			"/>
            <path class="st7" d="M413.2,457.6l-0.1,125.7l-55.6-14.4l0.3-118.5l3-7.3l3.8-6.2l4.4-4.9l4.9-3.5l5.3-1.9l5.5-0.3l5.6,1.4
				l5.5,3.1l5.2,4.7l4.7,6.2l4.1,7.5L413.2,457.6z M407.2,568.8l0.1-107.1l-1.5-3.8l-3.3-6l-3.9-5.1l-4.4-4l-4.7-2.7l-4.8-1.3
				L380,439l-4.6,1.6l-4.2,2.9l-3.7,4.1l-3.1,5l-1.4,3.2l-0.1,42.1l-1.8,0.3l0,12.3l1.8,0.4l-0.1,47.2L407.2,568.8z"/>
            <polygon class="st8" points="413.2,457.6 409.9,449.1 413.8,448.6 417.2,457.1 			"/>
            <polygon class="st8" points="409.9,449.1 405.8,441.6 409.7,441.2 413.8,448.6 			"/>
            <polygon class="st8" points="405.8,441.6 401,435.5 405,435.1 409.7,441.2 			"/>
            <polygon class="st8" points="401,435.5 395.8,430.8 399.8,430.4 405,435.1 			"/>
            <polygon class="st8" points="395.8,430.8 390.4,427.7 394.3,427.3 399.8,430.4 			"/>
            <polygon class="st8" points="390.4,427.7 384.8,426.3 388.7,425.9 394.3,427.3 			"/>
            <polygon class="st8" points="384.8,426.3 379.3,426.5 383.2,426.2 388.7,425.9 			"/>
            <polygon class="st8" points="366.7,497.3 374.7,498.8 369.3,499.6 361.2,498.1 363.1,497.9 			"/>
            <polygon class="st7" points="374.7,498.8 374.7,511.1 369.2,512 369.3,499.6 			"/>
            <polygon class="st7" points="361.2,510.4 361.2,498.1 369.3,499.6 369.2,512 363,510.8 			"/>
		</g>
        <g>
			<polygon class="st8" points="417.8,354.8 417.8,253.3 421.8,253.6 421.7,354.7 			"/>
            <path class="st7" d="M417.8,253.3l-0.1,101.4l-52.2-1.4l0.2-96.1l2.9-6.5l3.6-5.7l4.1-4.8l4.6-3.7l5-2.5l5.2-1.2l5.3,0.2l5.1,1.5
				l4.9,2.9l4.4,4.1l3.9,5.3L417.8,253.3z M407.1,248.5l-11.6,31.9l16.4-0.8l0-23.2l-1.8-3.6L407.1,248.5z M371,291.4l-0.1,54
				l41,0.8l0-56.3L371,291.4z M375.7,251.1l-2.9,4.6l-1.6,3.7l0,22.2l15.4-0.8L375.7,251.1z M403.5,245.2l-3.9-2.4l-4.2-1.3
				l-4.3-0.2l-4.2,0.9l-4.1,2l-3.8,3l12,33.4L403.5,245.2z"/>
            <polygon class="st8" points="417.8,253.3 414.7,247 418.6,247.4 421.8,253.6 			"/>
            <polygon class="st8" points="414.7,247 410.8,241.7 414.7,242.1 418.6,247.4 			"/>
            <polygon class="st8" points="410.8,241.7 406.4,237.6 410.3,237.9 414.7,242.1 			"/>
            <polygon class="st8" points="406.4,237.6 401.5,234.7 405.4,235.1 410.3,237.9 			"/>
            <polygon class="st8" points="401.5,234.7 396.4,233.2 400.3,233.5 405.4,235.1 			"/>
		</g>
        <polygon class="st9" points="395.5,280.5 407.1,248.5 410.2,252.9 411.9,256.4 411.9,279.7 		"/>
        <polygon class="st9" points="370.9,345.3 371,291.4 411.9,289.8 411.9,346.1 		"/>
        <polygon class="st9" points="372.7,255.7 375.7,251.1 386.4,280.9 371.1,281.7 371.1,259.4 		"/>
        <polygon class="st9" points="399.5,242.8 403.5,245.2 391,280.7 379,247.2 382.8,244.3 386.9,242.3 391.1,241.3 395.4,241.5 		"/>
        <g>
			<polygon class="st8" points="322.4,123.6 319.8,119.7 323.7,120.4 326.2,124.3 			"/>
            <polygon class="st8" points="319.8,119.7 316.7,116.5 320.5,117.2 323.7,120.4 			"/>
            <polygon class="st8" points="316.7,116.5 313.1,114.3 316.9,115 320.5,117.2 			"/>
            <polygon class="st8" points="313.1,114.3 309.1,112.9 313,113.6 316.9,115 			"/>
            <polygon class="st8" points="322.1,193.4 322.4,123.6 326.2,124.3 326,193.9 			"/>
            <path class="st7" d="M322.4,123.6l-0.3,69.8l-42.6,6.4l0.3-66.5l2.4-4.9l2.9-4.4l3.4-3.9l3.8-3.2l4.1-2.4l4.3-1.5l4.3-0.6
				l4.2,0.4l4,1.3l3.6,2.3l3.1,3.1L322.4,123.6z M317.6,187l0.2-59.6l-1.1-1.7l-2.5-2.6l-3-1.9l-3.4-1.2l-3.6-0.4l-3.7,0.5l-3.7,1.3
				l-3.5,2l-3.2,2.7l-2.8,3.2l-2.4,3.6l-1.1,2.2l-0.3,57.3L317.6,187z"/>
            <polygon class="st8" points="279.5,199.9 322.1,193.4 326,193.9 283.3,200.3 			"/>
		</g>
        <polygon class="st9" points="317.9,127.4 317.6,187 283.7,192.3 283.9,135 285,132.9 287.4,129.3 290.2,126.1 293.4,123.4
			296.9,121.4 300.6,120.1 304.3,119.7 307.9,120 311.3,121.2 314.2,123.1 316.7,125.6 		"/>
        <g>
			<polygon class="st8" points="321.1,352.2 321.4,260.6 325.3,260.9 325,352.1 			"/>
            <path class="st7" d="M321.4,260.6l-0.3,91.5l-42.8-1.2l0.5-87.2l2.4-5.8l2.9-5.1l3.4-4.3l3.8-3.3l4.1-2.2l4.3-1l4.3,0.2l4.2,1.4
				l4,2.6l3.6,3.8l3.1,4.8L321.4,260.6z M312.6,256.2l-9.5,28.8l13.4-0.7l0.1-21l-1.4-3.3L312.6,256.2z M283,294.8l-0.2,48.9
				l33.5,0.6l0.2-50.8L283,294.8z M286.9,258.3l-2.4,4.2l-1.4,3.3l-0.1,20.2l12.6-0.6L286.9,258.3z M309.7,253.1l-3.2-2.2l-3.4-1.2
				l-3.5-0.2l-3.5,0.8l-3.3,1.8l-3.1,2.7l9.7,30.4L309.7,253.1z"/>
            <polygon class="st8" points="321.4,260.6 318.9,254.9 322.7,255.2 325.3,260.9 			"/>
            <polygon class="st8" points="318.9,254.9 315.7,250.1 319.6,250.4 322.7,255.2 			"/>
            <polygon class="st8" points="315.7,250.1 312.1,246.3 316,246.6 319.6,250.4 			"/>
            <polygon class="st8" points="312.1,246.3 308.2,243.7 312,244 316,246.6 			"/>
            <polygon class="st8" points="308.2,243.7 304,242.2 307.8,242.5 312,244 			"/>
		</g>
        <polygon class="st9" points="303.1,285 312.6,256.2 315.2,260.1 316.6,263.4 316.5,284.4 		"/>
        <polygon class="st9" points="282.8,343.7 283,294.8 316.5,293.5 316.3,344.3 		"/>
        <polygon class="st9" points="284.5,262.5 286.9,258.3 295.7,285.4 283.1,286 283.2,265.8 		"/>
        <polygon class="st9" points="306.5,251 309.7,253.1 299.5,285.2 289.7,254.8 292.8,252.2 296.2,250.4 299.6,249.6 303.1,249.8
			"/>
        <g>
			<polygon class="st8" points="245.7,350.2 246.2,266.3 250,266.5 249.5,350.1 			"/>
            <path class="st7" d="M246.2,266.3l-0.5,83.8l-36-1l0.6-80.1l2-5.4l2.5-4.7l2.9-3.9l3.2-3l3.5-2l3.6-0.9l3.6,0.2l3.5,1.3l3.3,2.5
				l3,3.5l2.6,4.4L246.2,266.3z M238.9,262.2l-8.1,26.4l11.3-0.5l0.1-19.2l-1.2-3L238.9,262.2z M213.8,297.5l-0.3,45l28.2,0.5
				l0.3-46.6L213.8,297.5z M217.2,264l-2,3.8l-1.2,3.1l-0.1,18.5l10.6-0.5L217.2,264z M236.4,259.4l-2.7-2l-2.9-1.1l-2.9-0.2
				l-2.9,0.7l-2.8,1.6l-2.6,2.4l8.1,27.9L236.4,259.4z"/>
            <polygon class="st8" points="246.2,266.3 244.1,261.1 247.9,261.3 250,266.5 			"/>
            <polygon class="st8" points="244.1,261.1 241.5,256.6 245.3,256.8 247.9,261.3 			"/>
            <polygon class="st8" points="241.5,256.6 238.5,253.1 242.2,253.4 245.3,256.8 			"/>
            <polygon class="st8" points="238.5,253.1 235.1,250.7 238.9,250.9 242.2,253.4 			"/>
            <polygon class="st8" points="235.1,250.7 231.6,249.3 235.4,249.6 238.9,250.9 			"/>
		</g>
        <polygon class="st9" points="230.8,288.6 238.9,262.2 241,265.8 242.2,268.8 242.1,288 		"/>
        <polygon class="st9" points="213.5,342.5 213.8,297.5 242,296.4 241.7,343 		"/>
        <polygon class="st9" points="215.2,267.8 217.2,264 224.5,288.9 213.9,289.4 214,270.9 		"/>
        <polygon class="st9" points="233.7,257.4 236.4,259.4 227.7,288.7 219.6,260.8 222.2,258.4 225,256.8 227.9,256 230.9,256.2 		"/>
        <g>
			<path class="st7" d="M319.8,535.6l-108.5-25.3l0.5-61.2l7-12.8l7.2-9.6l8.2-7.5l9-5.3l9.6-2.9l10-0.3l10.3,2.4l10.3,5.1l10,7.8
				l9.5,10.4l8.7,12.8l8.7,16.8L319.8,535.6z M231.4,508l0.3-46.1l-16.3-2.7l-0.3,45.1L231.4,508z M295.5,437.3l-0.1,27.7l19.8,3.1
				l-7.1-14l-8.1-12L295.5,437.3z M267.4,419.1l-0.2,41.4l23.8,3.8l0.2-31.9l-9.3-7.3l-9.6-4.8L267.4,419.1z M235.8,425.8l-0.2,29.8
				l26.8,4.2l0.2-41.8l-9.4,0.2l-9,2.6L235.8,425.8z M231.9,429.3l-3.8,3.5l-6.8,9l-5.8,10.7l16.3,2.6L231.9,429.3z M262.1,514.9
				l0.3-47.8l-26.8-4.5l-0.3,46.3L262.1,514.9z M290.7,521.3l0.2-49.5l-23.9-4l-0.3,48.1L290.7,521.3z M295.2,522.3l19.9,4.4
				l0.2-50.9l-19.8-3.3L295.2,522.3z"/>
            <polygon class="st8" points="319.8,535.6 320,465.9 325.6,465.3 325.3,534.6 			"/>
            <polygon class="st8" points="320,465.9 311.4,449.1 316.9,448.5 325.6,465.3 			"/>
            <polygon class="st8" points="311.4,449.1 302.7,436.3 308.2,435.8 316.9,448.5 			"/>
            <polygon class="st8" points="302.7,436.3 293.2,426 298.7,425.5 308.2,435.8 			"/>
            <polygon class="st8" points="293.2,426 283.2,418.2 288.7,417.8 298.7,425.5 			"/>
            <polygon class="st8" points="283.2,418.2 272.9,413.1 278.4,412.7 288.7,417.8 			"/>
            <polygon class="st8" points="272.9,413.1 262.6,410.8 268.1,410.4 278.4,412.7 			"/>
            <polygon class="st8" points="262.6,410.8 252.6,411.1 258.1,410.7 268.1,410.4 			"/>
		</g>
        <polygon class="st9" points="231.7,462 231.4,508 215.1,504.4 215.4,459.3 		"/>
        <polygon class="st9" points="295.4,465 295.5,437.3 300,442.2 308.1,454.2 315.2,468.2 		"/>
        <polygon class="st9" points="267.2,460.6 267.4,419.1 272.2,420.3 281.8,425.1 291.2,432.5 291,464.3 		"/>
        <polygon class="st9" points="235.6,455.6 235.8,425.8 244.2,420.9 253.2,418.2 262.6,418 262.4,459.8 		"/>
        <polygon class="st9" points="228.1,432.8 231.9,429.3 231.8,455 215.5,452.4 221.3,441.8 		"/>
        <polygon class="st9" points="262.3,467.1 262.1,514.9 235.2,508.9 235.5,462.6 		"/>
        <polygon class="st9" points="291,471.9 290.7,521.3 266.9,516 267.1,467.9 		"/>
        <polygon class="st9" points="315,526.8 295.2,522.3 295.4,472.6 315.2,475.9 		"/>
        <polygon class="st9" points="476.8,288.8 467.9,288.5 467.9,240.6 476.7,241.3 		"/>
        <polygon class="st9" points="503,289.9 502.9,243.7 527.4,245.8 527.6,290.9 		"/>
        <g>
			<polygon class="st8" points="455.5,361.9 455.4,229.5 460.3,229 460.4,362.1 			"/>
            <path class="st7" d="M533.9,236.3l0.4,123.2l-73.9,2.5L460.3,229L533.9,236.3z M467.9,288.5l8.9,0.4l-0.1-47.5l-8.9-0.8
				L467.9,288.5z M502.9,243.7l0.1,46.2l24.5,1l-0.1-45L502.9,243.7z M493.5,350.3l-0.1-46.2l-25.5-0.6l0.1,47.4L493.5,350.3z
				 M503.2,350.1l9.4-0.2l-0.1-45.2l-9.4-0.2L503.2,350.1z M527.6,305l-8.7-0.2l0.1,44.9l8.7-0.2L527.6,305z M493.3,242.8l-9.7-0.9
				l0.1,47.2l9.7,0.4L493.3,242.8z"/>
		</g>
        <polygon class="st9" points="493.4,304.1 493.5,350.3 468,350.9 467.9,303.5 		"/>
        <polygon class="st9" points="512.6,349.9 503.2,350.1 503.1,304.4 512.4,304.6 		"/>
        <polygon class="st9" points="518.9,304.8 527.6,305 527.7,349.5 519,349.7 		"/>
        <polygon class="st9" points="483.6,242 493.3,242.8 493.4,289.5 483.7,289.1 		"/>
        <polygon class="st9" points="585.2,293.2 578.1,292.9 577.9,250.3 584.9,251 		"/>
        <polygon class="st9" points="606,294 605.7,252.8 625.3,254.5 625.5,294.8 		"/>
        <g>
			<polygon class="st8" points="567.6,358.1 567.1,240.5 572,240.1 572.5,358.2 			"/>
            <path class="st7" d="M630.4,246l0.7,110.3l-58.6,2L572,240.1L630.4,246z M578.1,292.9l7,0.3l-0.2-42.2l-7-0.6L578.1,292.9z
				 M605.7,252.8L606,294l19.6,0.8l-0.3-40.3L605.7,252.8z M598.6,347.9l-0.2-41.1l-20.1-0.5l0.2,42.1L598.6,347.9z M606.3,347.7
				l7.5-0.2l-0.2-40.4L606,307L606.3,347.7z M625.6,307.4l-7-0.2l0.2,40.1l7-0.2L625.6,307.4z M598.1,252.1l-7.6-0.7l0.2,42l7.7,0.3
				L598.1,252.1z"/>
		</g>
        <polygon class="st9" points="598.3,306.8 598.6,347.9 578.4,348.3 578.2,306.3 		"/>
        <polygon class="st9" points="613.7,347.5 606.3,347.7 606,307 613.5,307.1 		"/>
        <polygon class="st9" points="618.6,307.3 625.6,307.4 625.9,347.2 618.9,347.4 		"/>
        <polygon class="st9" points="590.4,251.4 598.1,252.1 598.3,293.7 590.6,293.4 		"/>

	</g>
</g>
</svg>
