<?xml version="1.0" encoding="utf-8"?>
<!-- Generator: Adobe Illustrator 25.0.1, SVG Export Plug-In . SVG Version: 6.00 Build 0)  -->
<svg version="1.1" id="katman_1" xmlns="http://www.w3.org/2000/svg" x="0px" y="0px"
     viewBox="0 0 841.9 595.3" style="enable-background:new 0 0 841.9 595.3;" xml:space="preserve">
<style type="text/css">
	.st0{fill:#8F6645;}
	.st1{fill:#EEEEEE;}
	.st2{fill:#DDDDDD;}
	.st3{fill:#3D3A37;}
	.st4{fill:#C4C4C4;}
	.st5{fill:#3D3A37;}
	.st6{fill:#000000;}
	.st7{fill:#FFFFFF;}
	.st8{fill:#888888;}
	.st9{fill:#7884AF;}
</style>

    <g id="chimney">
	<polygon class="st6" points="291.7,24.7 324.3,13.4 324.1,75.7 291.3,84.9 			"/>
        <polygon class="st5" points="324.1,75.7 324.3,13.4 359.6,25.4 359.5,65.7 			"/>
</g>

    <g id="roof">
	<polygon class="st3" points="431.1,133.6 394.8,154.2 379.6,162.9 375.1,150 394.8,139.2 443.8,41.9 569.5,86.5 611.2,190.9
		621.6,203 618.7,209.1 611.3,200.6 580.3,165 575.1,159.1 555.3,136.4 550.7,131.2 545.6,129.7 476.9,109.9 474.1,109.1
		465,114.2 438.9,129.1 			"/>
        <polygon class="st2" points="174.6,189.5 194,180 394.8,139.2 375.1,150 			"/>
        <polygon class="st3" points="194,180 243.8,98.4 291.3,84.9 324.1,75.7 359.5,65.7 443.8,41.9 394.8,139.2 			"/>
        <polygon class="st1" points="178.9,199.7 174.6,189.5 375.1,150 379.6,162.9 193.8,197 			"/>
        <polygon class="st1" points="611.3,200.6 618.7,209.1 611.4,210 			"/>
</g>

    <g id="body">
	<g>
		<polygon class="st4" points="193.4,238.8 193.5,227.7 394.8,198 394.8,211.8 			"/>
        <path class="st4" d="M474.1,109.1l2.8,0.8l0.5,102l69,11.6l-0.8-93.8l5.1,1.5l4.6,5.3l0.8,88.7l19-66l5.2,5.9l-16.4,61.4l47.8,8
			l0.1,10.5l-55.6-8.5l1.3,151.6l55.9-2.5l0.2,14.6l-218.9,14.3v-19.2l71.3-3.2l-0.6-169.6l-70.6-10.8l0.1-13.7l61.1,10.2
			l-24.9-74.7l7.8-4.5l26.5,80.8l-0.4-95.7L474.1,109.1z M546.5,235l-69.1-10.6l0.7,167.2l69.6-3.1L546.5,235z"/>
        <polygon class="st4" points="191.6,402.8 191.7,387.4 394.7,395.3 394.7,414.5 			"/>
	</g>
        <g>
		<polygon class="st4" points="394.8,211.8 394.8,198 394.8,154.2 431.1,133.6 455.9,208.3 394.8,198 			"/>
            <polygon class="st4" points="394.8,198 193.5,227.7 193.8,197 379.6,162.9 394.8,154.2 			"/>
            <polygon class="st4" points="193.4,238.8 394.8,211.8 394.7,395.3 191.7,387.4 			"/>
            <polygon class="st4" points="556.2,236.5 611.8,245 613.4,385.6 557.5,388.1 			"/>
            <polygon class="st4" points="476.9,109.9 545.6,129.7 546.4,223.5 477.3,211.9 			"/>
            <polygon class="st4" points="438.9,129.1 465,114.2 465.4,209.9 			"/>
            <polygon class="st4" points="555.3,136.4 575.1,159.1 556.1,225.1 			"/>
            <polygon class="st4" points="580.3,165 611.3,200.6 611.4,210 611.7,234.4 563.9,226.4 			"/>
            <polygon class="st4" points="465.4,222.6 466,392.1 394.7,395.3 394.8,211.8 			"/>
            <polygon class="st4" points="394.7,414.5 613.6,400.2 615.1,527.7 394.7,581.9 			"/>
            <polygon class="st4" points="191.6,402.8 394.7,414.5 394.7,581.9 190.1,537.7 			"/>
            <polygon class="st4" points="477.4,224.4 546.5,235 547.7,388.5 478.1,391.6 			"/>
	</g>
</g>


    <g id="right-window">
	<g>
		<g>
			<polygon class="st8" points="265.6,421.3 264.8,533 261.8,533.5 262.6,421.5 				"/>
            <path class="st7" d="M262.6,421.5l-0.8,112l-60.6-11.9l1.1-104.5L262.6,421.5z M207,425.7l-0.9,88.6l27.4,5.1l0.8-91.5
				L207,425.7z M244.1,433.7l-4.9-5.4l-0.8,92l5-4.1l4.4-5.7l3.7-7.1l2.7-8.2l1.7-9.1l0.6-9.6l-0.5-9.7l-1.6-9.5l-2.6-8.9l-3.5-8
				L244.1,433.7z"/>
		</g>
        <polygon class="st9" points="206.1,514.3 207,425.7 234.4,427.9 233.6,519.4 			"/>
        <polygon class="st9" points="239.2,428.3 244.1,433.7 248.4,440.5 252,448.5 254.6,457.4 256.2,466.9 256.7,476.6 256,486.2
			254.3,495.2 251.6,503.4 247.9,510.5 243.4,516.2 238.4,520.3 			"/>
	</g>
        <polygon class="st4" points="290.6,423.1 364.2,428.4 361.2,428.7 287.6,423.3 		"/>
        <g>
		<g>
			<polygon class="st8" points="364.2,428.4 364,552.3 360.9,552.9 361.2,428.7 				"/>
            <path class="st7" d="M361.2,428.7l-0.2,124.3l-74-14.5l0.7-115.1L361.2,428.7z M293.4,432.8l-0.5,97.7l33.4,6.2l0.4-101.2
				L293.4,432.8z M338.6,442l-6.1-6l-0.3,101.8l6.1-4.5l5.4-6.2l4.5-7.8l3.3-9.1l2.1-10l0.7-10.6l-0.7-10.8l-2-10.5l-3.3-9.9
				l-4.4-8.9L338.6,442z"/>
		</g>
            <polygon class="st9" points="292.9,530.5 293.4,432.8 326.7,435.5 326.3,536.7 			"/>
            <polygon class="st9" points="332.5,436 338.6,442 343.9,449.6 348.3,458.5 351.6,468.4 353.6,478.9 354.3,489.7 353.6,500.3
				351.5,510.3 348.2,519.4 343.7,527.1 338.3,533.3 332.2,537.8 			"/>
	</g>
</g>


    <g>
	<g>
		<g>
			<g>
				<polygon class="st8" points="266.8,252.7 266,362.3 263,362.3 263.8,252.4 				"/>
                <path class="st7" d="M263.8,252.4L263,362.3l-60.1-0.4l1.1-102.7L263.8,252.4z M208.7,266.7l-0.9,87.1l27.2-0.1l0.8-89.9
					L208.7,266.7z M245.5,267.8l-4.9-4.4l-0.8,90.4l5-5l4.4-6.4l3.6-7.6l2.7-8.6l1.7-9.2l0.6-9.5l-0.5-9.4l-1.6-9l-2.6-8.2l-3.5-7.2
					L245.5,267.8z"/>
			</g>
            <polygon class="st9" points="207.8,353.9 208.7,266.7 235.8,263.9 235,353.8 			"/>
            <polygon class="st9" points="240.6,263.4 245.5,267.8 249.8,273.7 253.3,280.9 255.9,289.1 257.5,298.1 257.9,307.5 257.3,317
				255.6,326.2 252.9,334.8 249.2,342.4 244.8,348.8 239.8,353.8 			"/>
		</g>
        <g>
			<g>
				<polygon class="st8" points="364.5,241.7 364.3,363 361.3,363 361.5,241.3 				"/>
                <path class="st7" d="M361.5,241.3L361.3,363l-73.3-0.5l0.7-112.9L361.5,241.3z M294.4,257.8l-0.5,95.9l33.1-0.1l0.4-99.2
					L294.4,257.8z M339.2,258.5l-6-4.8l-0.3,99.8l6.1-5.5l5.4-7.1l4.4-8.4l3.3-9.5l2-10.2l0.7-10.5l-0.7-10.4l-2-9.9l-3.2-9.1
					l-4.3-7.9L339.2,258.5z"/>
			</g>
            <polygon class="st9" points="293.8,353.6 294.4,257.8 327.3,254.3 327,353.6 			"/>
            <polygon class="st9" points="333.1,253.7 339.2,258.5 344.5,265 348.8,272.9 352.1,282 354,291.9 354.7,302.3 354,312.8 352,323
				348.7,332.5 344.2,341 338.9,348 332.8,353.5 			"/>
		</g>
        <polygon class="st4" points="205.3,417 265.6,421.3 262.6,421.5 202.3,417.2 		"/>
        <g>
			<path class="st8" d="M595.2,439.8l0.9,82l-28.7,6.7l-0.8-85.3l0.9-2.9l2.1-4.7l2.5-4l2.8-3.1l3-2l3.1-0.9l3.1,0.3l3,1.4l2.7,2.5
				l2.4,3.4l2,4.1L595.2,439.8z M569.4,476.8l0.1,10.1l5,0.5l5.5-1l-0.1-10.1l-5-0.5L569.4,476.8z"/>
            <g>
				<path class="st7" d="M598.6,435.6l1.1,95.1l-36,8.9l-0.9-100l2.1-6.7l2.6-5.8l3-4.8l3.3-3.6l3.5-2.3l3.6-1l3.6,0.4l3.5,1.7
					l3.2,2.9l2.9,4.1l2.5,5.1L598.6,435.6z M596.1,521.7l-0.9-82l-0.9-2.6l-2-4.1l-2.4-3.4l-2.7-2.5l-3-1.4l-3.1-0.3l-3.1,0.9l-3,2
					l-2.8,3.1l-2.5,4l-2.1,4.7l-0.9,2.9l0.8,85.3L596.1,521.7z"/>
                <polygon class="st8" points="580.9,415.5 577.3,416.5 573.7,416.3 577.3,415.4 				"/>
                <polygon class="st8" points="577.3,416.5 573.8,418.8 570.1,418.6 573.7,416.3 				"/>
                <polygon class="st8" points="573.8,418.8 570.5,422.4 566.8,422.2 570.1,418.6 				"/>
                <polygon class="st8" points="570.5,422.4 567.5,427.2 563.8,426.9 566.8,422.2 				"/>
                <polygon class="st8" points="567.5,427.2 564.9,433 561.2,432.7 563.8,426.9 				"/>
                <polygon class="st8" points="564.9,433 562.8,439.7 559.1,439.4 561.2,432.7 				"/>
                <polygon class="st8" points="562.8,439.7 563.7,539.6 560,539.1 559.1,439.4 				"/>
                <polygon class="st8" points="569.6,486.9 569.4,476.8 574.5,477.3 574.6,487.5 				"/>
                <polygon class="st7" points="569.4,476.8 574.9,475.9 580,476.4 574.5,477.3 				"/>
                <polygon class="st7" points="574.6,487.5 574.5,477.3 580,476.4 580.1,486.5 				"/>
			</g>
		</g>
        <g>
			<g>
				<path class="st7" d="M599.5,281.9l0.9,75.9l-33,0.1l-0.8-79.4l1.9-4.9l2.4-4.1l2.8-3.2l3-2.2l3.2-1.2l3.3-0.1l3.3,1l3.2,2l3,2.9
					l2.7,3.8l2.3,4.5L599.5,281.9z M593.1,277l-6.7,23.4l9.9,0.8l-0.2-17.5l-1.1-2.9L593.1,277z M570.5,307l0.4,44.2l25.9,0.2
					l-0.5-42.6L570.5,307z M573.3,274.8l-1.9,3.4l-1.1,2.8l0.2,18.2l10.2,0.8L573.3,274.8z M590.9,273.9l-2.4-2.4l-2.6-1.6l-2.7-0.7
					l-2.7,0.1l-2.6,1l-2.5,1.8l8.1,28L590.9,273.9z"/>
                <polygon class="st8" points="579.9,262.8 576.7,263.9 573.1,264.2 576.3,263 				"/>
                <polygon class="st8" points="576.7,263.9 573.6,266.2 570,266.4 573.1,264.2 				"/>
                <polygon class="st8" points="573.6,266.2 570.9,269.4 567.2,269.7 570,266.4 				"/>
                <polygon class="st8" points="570.9,269.4 568.5,273.5 564.9,273.8 567.2,269.7 				"/>
                <polygon class="st8" points="568.5,273.5 566.5,278.5 562.9,278.7 564.9,273.8 				"/>
                <polygon class="st8" points="566.5,278.5 567.3,357.9 563.7,357.9 562.9,278.7 				"/>
			</g>
            <g>
				<polygon class="st9" points="586.4,300.3 593.1,277 595,280.6 596.1,283.6 596.3,301.1 				"/>
                <polygon class="st9" points="570.9,351.2 570.5,307 596.4,308.7 596.8,351.3 				"/>
                <polygon class="st9" points="571.4,278.1 573.3,274.8 580.6,299.9 570.4,299.1 570.3,280.9 				"/>
                <polygon class="st9" points="588.5,271.5 590.9,273.9 583.6,300.1 575.5,272.1 578,270.3 580.6,269.3 583.3,269.2 585.9,270
									"/>
			</g>
		</g>
        <g>
			<g>
				<path class="st7" d="M532,151.2l0.5,63L493,207l-0.4-66.2l2.3-3.6l2.9-2.9l3.3-2.1l3.7-1.2l3.9-0.2l4,0.7l3.9,1.6l3.8,2.4
					l3.5,3.1l3.2,3.7l2.7,4.3L532,151.2z M528.6,207l-0.4-54.3l-1-2.1l-2.2-3.4l-2.6-3.1l-3-2.6l-3.3-2l-3.4-1.3l-3.4-0.6l-3.3,0.2
					l-3.1,1l-2.8,1.7l-2.3,2.3l-1,1.6l0.3,56.4L528.6,207z"/>
                <polygon class="st8" points="504.9,131.1 501.2,132.2 497.5,132.9 501.2,131.8 				"/>
                <polygon class="st8" points="501.2,132.2 497.9,134.3 494.2,135 497.5,132.9 				"/>
                <polygon class="st8" points="497.9,134.3 495,137.2 491.3,137.9 494.2,135 				"/>
                <polygon class="st8" points="495,137.2 492.6,140.8 488.9,141.5 491.3,137.9 				"/>
                <polygon class="st8" points="492.6,140.8 493,207 489.3,207.5 488.9,141.5 				"/>
                <polygon class="st8" points="493,207 532.5,214.2 528.8,214.7 489.3,207.5 				"/>
			</g>
            <polygon class="st9" points="528.2,152.7 528.6,207 497.1,200.9 496.8,144.5 497.8,142.9 500.2,140.5 502.9,138.8 506,137.8
				509.3,137.6 512.7,138.1 516.1,139.5 519.4,141.5 522.4,144.1 525,147.2 527.2,150.6 			"/>
		</g>
        <g>
			<g>
				<path class="st7" d="M532.6,274.9l0.6,83.1l-39.8,0.1l-0.5-87.3l2.4-5.4l2.9-4.5l3.3-3.5l3.7-2.4l3.9-1.3l4-0.1l4,1.1l3.8,2.2
					l3.5,3.2l3.2,4.2l2.7,5L532.6,274.9z M525,269.4l-8.2,25.5l11.9,0.9l-0.1-19.2l-1.3-3.2L525,269.4z M497.6,302.2l0.3,48.5
					l31.2,0.2l-0.3-46.7L497.6,302.2z M501.1,266.8l-2.3,3.7l-1.3,3.1l0.1,20l12.3,0.9L501.1,266.8z M522.4,266l-2.9-2.6l-3.1-1.8
					l-3.2-0.9l-3.2,0.1l-3.2,1l-3,2l9.6,30.8L522.4,266z"/>
                <polygon class="st8" points="509.1,253.7 505.2,254.9 501.5,255.3 505.4,254 				"/>
                <polygon class="st8" points="505.2,254.9 501.5,257.3 497.8,257.7 501.5,255.3 				"/>
                <polygon class="st8" points="501.5,257.3 498.2,260.9 494.5,261.2 497.8,257.7 				"/>
                <polygon class="st8" points="498.2,260.9 495.3,265.4 491.6,265.7 494.5,261.2 				"/>
                <polygon class="st8" points="495.3,265.4 492.9,270.7 489.2,271 491.6,265.7 				"/>
                <polygon class="st8" points="492.9,270.7 493.4,358.1 489.7,358.1 489.2,271 				"/>
			</g>
            <g>
				<polygon class="st9" points="516.7,294.9 525,269.4 527.2,273.4 528.5,276.7 528.6,295.9 				"/>
                <polygon class="st9" points="497.9,350.7 497.6,302.2 528.7,304.2 529,350.9 				"/>
                <polygon class="st9" points="498.8,270.4 501.1,266.8 509.8,294.4 497.5,293.5 497.4,273.5 				"/>
                <polygon class="st9" points="519.5,263.4 522.4,266 513.4,294.7 503.8,263.9 506.8,261.9 509.9,260.9 513.2,260.8 516.4,261.6
									"/>
			</g>
		</g>
        <g>
			<g>
				<path class="st7" d="M456.7,266.9l0.3,91.2l-48.3,0.1l-0.1-96.4l2.9-5.9l3.6-4.9l4.1-3.8l4.5-2.6l4.7-1.3l4.8,0l4.8,1.3l4.6,2.5
					l4.3,3.6l3.8,4.6l3.3,5.5L456.7,266.9z M447.6,260.8l-10.1,28l14.4,1.1l-0.1-21.1l-1.5-3.5L447.6,260.8z M414.1,296.6l0.1,53.5
					l37.8,0.2l-0.2-51.3L414.1,296.6z M418.6,257.6l-2.9,4l-1.6,3.4l0,22l14.9,1.2L418.6,257.6z M444.4,257.1l-3.5-2.9l-3.7-2
					l-3.9-1l-3.9,0.1l-3.8,1.1l-3.6,2.1l11.5,34L444.4,257.1z"/>
                <polygon class="st8" points="428.4,243.3 423.7,244.7 419.9,245.1 424.6,243.7 				"/>
                <polygon class="st8" points="423.7,244.7 419.2,247.3 415.4,247.6 419.9,245.1 				"/>
                <polygon class="st8" points="419.2,247.3 415.1,251.1 411.3,251.5 415.4,247.6 				"/>
                <polygon class="st8" points="415.1,251.1 411.6,256 407.7,256.4 411.3,251.5 				"/>
                <polygon class="st8" points="411.6,256 408.7,261.9 404.8,262.3 407.7,256.4 				"/>
                <polygon class="st8" points="408.7,261.9 408.7,358.3 404.9,358.3 404.8,262.3 				"/>
			</g>
            <g>
				<polygon class="st9" points="437.4,288.8 447.6,260.8 450.2,265.3 451.8,268.8 451.8,289.9 				"/>
                <polygon class="st9" points="414.2,350.2 414.1,296.6 451.8,299.1 452,350.4 				"/>
                <polygon class="st9" points="415.7,261.6 418.6,257.6 429,288.2 414.1,287 414.1,265 				"/>
                <polygon class="st9" points="440.9,254.2 444.4,257.1 433.4,288.5 421.9,254.5 425.5,252.4 429.4,251.3 433.3,251.2
					437.2,252.2 				"/>
			</g>
		</g>
        <g>
			<g>
				<path class="st7" d="M536.9,524.8L417,551.1l-0.1-73.5l9.7-17.6l9.7-13.3L447,436l11.1-8l11.4-5.1l11.3-2.3l11,0.5l10.5,3.2
					l9.8,5.7l8.9,7.9l7.9,10l7.6,13.4L536.9,524.8z M444.5,537.1l-0.1-52.2l-22.1,3.3l0.1,53.6L444.5,537.1z M514.5,440.4l0.2,26.7
					l17.8-2.5l-6.4-11.1l-7.4-9.4L514.5,440.4z M486,428.3l0.2,42.7l24.2-3.4l-0.2-31l-9.2-5.2l-9.9-2.9L486,428.3z M449.2,442.8
					l0.1,33.4l31.7-4.5l-0.2-43.6l-10.6,2.2l-10.6,4.9L449.2,442.8z M444.3,447.9l-5,5.1l-9.1,12.5l-8,14.6l22.1-3.1L444.3,447.9z
					 M481.3,529.4l-0.2-50l-31.7,4.7l0.2,51.9L481.3,529.4z M510.8,523.2l-0.3-48.2l-24.2,3.6l0.2,49.7L510.8,523.2z M515,522.3
					l17.8-3.7l-0.3-46.9l-17.8,2.7L515,522.3z"/>
                <polygon class="st8" points="491.8,421.1 480.8,420.6 475.3,420.3 486.4,420.8 				"/>
                <polygon class="st8" points="480.8,420.6 469.4,422.9 464,422.6 475.3,420.3 				"/>
                <polygon class="st8" points="469.4,422.9 458.1,428 452.6,427.7 464,422.6 				"/>
                <polygon class="st8" points="458.1,428 447,436 441.5,435.6 452.6,427.7 				"/>
                <polygon class="st8" points="447,436 436.4,446.7 430.9,446.3 441.5,435.6 				"/>
                <polygon class="st8" points="436.4,446.7 426.6,460 421.1,459.5 430.9,446.3 				"/>
                <polygon class="st8" points="426.6,460 416.9,477.6 411.4,477 421.1,459.5 				"/>
                <polygon class="st8" points="416.9,477.6 417,551.1 411.5,550.1 411.4,477 				"/>
			</g>
            <g>
				<polygon class="st9" points="444.4,484.8 444.5,537.1 422.3,541.8 422.3,488.2 				"/>
                <polygon class="st9" points="514.6,467.1 514.5,440.4 518.6,444.1 526.1,453.4 532.4,464.6 				"/>
                <polygon class="st9" points="486.2,471 486,428.3 491.1,428.5 501,431.4 510.2,436.6 510.4,467.6 				"/>
                <polygon class="st9" points="449.3,476.2 449.2,442.8 459.6,435.3 470.2,430.4 480.8,428.1 481,471.8 				"/>
                <polygon class="st9" points="439.3,452.9 444.3,447.9 444.4,476.9 422.2,480 430.3,465.4 				"/>
                <polygon class="st9" points="481,479.4 481.3,529.4 449.5,536.1 449.3,484.1 				"/>
                <polygon class="st9" points="510.5,475 510.8,523.2 486.5,528.3 486.3,478.6 				"/>
                <polygon class="st9" points="532.8,518.5 515,522.3 514.7,474.3 532.5,471.7 				"/>
			</g>
		</g>
	</g>
</g>
</svg>
