<?xml version="1.0" encoding="utf-8"?>
<!-- Generator: Adobe Illustrator 25.0.1, SVG Export Plug-In . SVG Version: 6.00 Build 0)  -->
<svg version="1.1" id="katman_1" xmlns="http://www.w3.org/2000/svg" x="0px" y="0px"
     viewBox="0 0 841.9 595.3" style="enable-background:new 0 0 841.9 595.3;" xml:space="preserve">
<style type="text/css">
	.st0{fill:#8F6645;}
	.st1{fill:#EEEEEE;}
	.st2{fill:#DDDDDD;}
	.st3{fill:#3D3A37;}
	.st4{fill:#C4C4C4;}
	.st5{fill:#3D3A37;}
	.st6{fill:#000000;}
	.st7{fill:#FFFFFF;}
	.st8{fill:#888888;}
	.st9{fill:#7884AF;}
</style>

    <g id="chimney">
	<polygon class="st6" points="509.3,10.9 540.7,23.5 541.1,68.3 509.6,57.2 			"/>
        <polygon class="st5" points="472.5,44.3 472.5,23.5 509.3,10.9 509.6,57.2 			"/>
</g>


    <g id="roof">
	<polygon class="st3" points="594.5,87 630.4,188.1 642.7,202.5 640.1,210.8 630.6,199.8 570,129.7 487.7,105.9 394.7,147.5
		380.6,153.8 374.8,143.4 394.7,134.8 461.2,40.3 472.5,44.3 509.6,57.2 541.1,68.3 			"/>
        <polygon class="st1" points="194.1,197.8 188.7,189.7 374.8,143.4 380.6,153.8 207.4,194.6 			"/>
        <polygon class="st2" points="374.8,143.4 188.7,189.7 207.7,182.1 394.7,134.8 			"/>
        <polygon class="st3" points="207.7,182.1 272.8,102.6 461.2,40.3 394.7,134.8 			"/>
        <polygon class="st1" points="640.1,210.8 630.8,212.1 630.6,199.8 			"/>
</g>


    <g id="body">
	<g>
		<polygon class="st4" points="206.9,228 394.6,192.1 394.5,206 206.7,239.1 			"/>
        <polygon class="st4" points="394.5,206 394.6,192.1 631.1,233.8 631.3,244.5 			"/>
        <polygon class="st4" points="633.4,387.3 633.7,402.2 393.9,412.5 394,392.9 			"/>
        <polygon class="st4" points="394,392.9 393.9,412.5 203.8,403.7 204.1,388.1 			"/>
	</g>

        <g>
		<polygon class="st4" points="380.6,153.8 394.7,147.5 394.6,192.1 206.9,228 207.4,194.6 			"/>
            <polygon class="st4" points="206.7,239.1 394.5,206 394,392.9 204.1,388.1 			"/>
            <polygon class="st4" points="631.1,233.8 394.6,192.1 394.7,147.5 487.7,105.9 570,129.7 630.6,199.8 630.8,212.1 			"/>
            <polygon class="st4" points="633.4,387.3 394,392.9 394.5,206 631.3,244.5 			"/>
            <polygon class="st4" points="393.9,412.5 633.7,402.2 635.7,532.7 602.6,539.7 602.6,538.7 565.5,533.2 484.4,549.1 484.5,565
			393.4,584.4 			"/>
            <polygon class="st4" points="203.8,403.7 393.9,412.5 393.4,584.4 201.4,539.9 			"/>
	</g>
</g>

    <g id="left-window">
	<polygon class="st9" points="308.4,476.8 300.9,475.9 301.4,431.1 308.8,431.6 		"/>
        <polygon class="st9" points="332,479.9 332.4,433.4 356.9,435.2 356.7,483 		"/>
        <g>
		<polygon class="st8" points="369.1,424.6 368.5,557 363.3,558 364,424.9 			"/>
            <polygon class="st8" points="300.4,420.4 369.1,424.6 364,424.9 295.4,420.6 			"/>
            <path class="st7" d="M364,424.9L363.3,558l-69.2-14.5l1.3-122.8L364,424.9z M300.9,475.9l7.4,1l0.4-45.2l-7.4-0.6L300.9,475.9z
				 M332.4,433.4l-0.4,46.5l24.7,3.2l0.3-47.8L332.4,433.4z M322.5,538.9l0.4-45.7l-22.1-3.2l-0.4,44.5L322.5,538.9z M331.5,540.6
				l9.1,1.8l0.3-46.7l-9.1-1.3L331.5,540.6z M356.6,498l-9.1-1.3l-0.3,47l9.1,1.8L356.6,498z M323.4,432.7l-8.6-0.6l-0.4,45.5
				l8.7,1.1L323.4,432.7z"/>
	</g>
        <polygon class="st9" points="322.9,493.2 322.5,538.9 300.3,534.5 300.8,490 		"/>
        <polygon class="st9" points="340.7,542.4 331.5,540.6 331.9,494.5 341,495.8 		"/>
        <polygon class="st9" points="347.5,496.7 356.6,498 356.3,545.5 347.2,543.7 		"/>
        <polygon class="st9" points="314.7,432.1 323.4,432.7 323,478.7 314.3,477.6 		"/>
        <g>
		<polygon class="st9" points="215.8,464.5 209.8,463.8 210.5,423.8 216.4,424.3 			"/>
            <polygon class="st9" points="234.5,466.9 235.1,425.7 254.4,427.1 253.9,469.4 			"/>
            <g>
			<polygon class="st8" points="265,417.7 263.5,534.7 258.5,535.5 260,417.9 				"/>
                <polygon class="st8" points="210.7,414.4 265,417.7 260,417.9 205.8,414.5 				"/>
                <path class="st7" d="M260,417.9l-1.5,117.6l-54.6-11.4l1.9-109.5L260,417.9z M209.8,463.8l5.9,0.8l0.7-40.2l-5.9-0.4
				L209.8,463.8z M235.1,425.7l-0.6,41.2l19.4,2.5l0.6-42.3L235.1,425.7z M226.5,519.4l0.6-40.6l-17.5-2.5l-0.7,39.6L226.5,519.4z
				 M233.7,520.8l7.2,1.4l0.6-41.3l-7.2-1L233.7,520.8z M253.7,482.7l-7.1-1l-0.6,41.6l7.1,1.4L253.7,482.7z M228,425.1l-6.8-0.5
				l-0.6,40.5l6.8,0.9L228,425.1z"/>
		</g>
            <polygon class="st9" points="227.2,478.8 226.5,519.4 209,515.9 209.6,476.3 			"/>
            <polygon class="st9" points="240.9,522.2 233.7,520.8 234.3,479.9 241.5,480.9 			"/>
            <polygon class="st9" points="246.5,481.6 253.7,482.7 253.1,524.6 246,523.2 			"/>
            <polygon class="st9" points="221.1,424.6 228,425.1 227.3,466 220.5,465.1 			"/>
	</g>
</g>

    <g>
	<g>
		<g>
			<polygon class="st0" points="484.4,549.1 565.5,533.2 602.6,538.7 522.3,555.8 			"/>
            <polygon class="st4" points="484.4,549.1 522.3,555.8 522.4,572.2 484.5,565 			"/>
            <polygon class="st4" points="522.3,555.8 602.6,538.7 602.6,539.7 602.8,553.7 522.4,572.2 			"/>
		</g>
        <g>
			<polygon class="st9" points="218.4,300 212.6,300.6 213.2,261.6 219.1,260.8 			"/>
            <polygon class="st9" points="237,298.4 237.6,258.2 256.7,255.5 256.2,296.7 			"/>
            <g>
				<polygon class="st8" points="267.2,245.9 265.8,359.9 260.8,359.9 262.3,245.3 				"/>
                <polygon class="st8" points="265.8,359.9 211.6,360.5 206.7,360.4 260.8,359.9 				"/>
                <path class="st7" d="M262.3,245.3l-1.5,114.5l-54.1,0.6l1.8-106.9L262.3,245.3z M212.6,300.6l5.9-0.5l0.6-39.3l-5.9,0.8
					L212.6,300.6z M237.6,258.2l-0.6,40.2l19.2-1.7l0.6-41.2L237.6,258.2z M229.1,351.1l0.6-39.6l-17.4,1.3l-0.6,38.7L229.1,351.1z
					 M236.2,350.9l7.1-0.2l0.6-40.3l-7.1,0.5L236.2,350.9z M256,309.6l-7.1,0.5l-0.6,40.5l7.1-0.2L256,309.6z M230.5,259.2l-6.8,1
					l-0.6,39.5l6.8-0.6L230.5,259.2z"/>
			</g>
            <polygon class="st9" points="229.7,311.5 229.1,351.1 211.7,351.5 212.4,312.8 			"/>
            <polygon class="st9" points="243.3,350.8 236.2,350.9 236.8,311 243.9,310.5 			"/>
            <polygon class="st9" points="249,310.1 256,309.6 255.5,350.5 248.4,350.7 			"/>
            <polygon class="st9" points="223.8,260.1 230.5,259.2 229.9,299 223.1,299.6 			"/>
		</g>
        <g>
			<polygon class="st9" points="310.1,291.8 302.8,292.5 303.2,248.9 310.5,247.9 			"/>
            <polygon class="st9" points="333.5,289.7 333.8,244.6 358.1,241.1 357.8,287.5 			"/>
            <g>
				<polygon class="st8" points="370.1,230.3 369.5,358.9 364.4,358.8 365.1,229.6 				"/>
                <polygon class="st8" points="369.5,358.9 301.1,359.6 296.1,359.5 364.4,358.8 				"/>
                <path class="st7" d="M365.1,229.6l-0.7,129.2l-68.3,0.7l1.2-119.5L365.1,229.6z M302.8,292.5l7.4-0.7l0.4-44l-7.3,1L302.8,292.5
					z M333.8,244.6l-0.3,45.2l24.3-2.2l0.3-46.4L333.8,244.6z M324.1,349l0.4-44.4l-21.8,1.6l-0.4,43.3L324.1,349z M333,348.8l9-0.2
					l0.3-45.3l-9,0.7L333,348.8z M357.7,302.1l-9,0.7l-0.3,45.7l9-0.2L357.7,302.1z M325,245.8l-8.5,1.2l-0.4,44.3l8.5-0.8
					L325,245.8z"/>
			</g>
            <polygon class="st9" points="324.5,304.6 324.1,349 302.2,349.5 302.6,306.2 			"/>
            <polygon class="st9" points="342.1,348.6 333,348.8 333.4,303.9 342.4,303.2 			"/>
            <polygon class="st9" points="348.8,302.8 357.7,302.1 357.5,348.2 348.5,348.4 			"/>
            <polygon class="st9" points="316.4,247 325,245.8 324.6,290.5 316,291.3 			"/>
		</g>

        <g>
			<g>
				<polygon class="st8" points="609,359 549.9,358.3 553,358.2 612.1,358.9 				"/>
                <polygon class="st8" points="549.9,358.3 549,247.7 552,247.4 553,358.2 				"/>
                <path class="st7" d="M610.7,255.6l1.4,103.3l-59-0.7l-1-110.9L610.7,255.6z M557.5,256.7l0.9,93l48.9,1.1l-1.1-87.7L557.5,256.7
					z"/>
			</g>
            <polygon class="st9" points="558.3,349.6 557.5,256.7 606.1,263 607.2,350.7 			"/>
		</g>
        <g>
			<polygon class="st8" points="530.5,533.4 502.6,538.7 501.9,416.7 529.7,415.2 530.1,472.2 530.1,481.5 			"/>
            <polygon class="st8" points="535.6,486.7 545,485.5 544.9,480.8 548.1,480.4 548,471.2 544.8,470.9 544.8,466.1 535.5,467.2
				535.1,414.9 560,413.6 561.1,527.7 536,532.4 			"/>
            <g>
				<polygon class="st8" points="496.9,548.5 493,547.8 492.4,408.2 496.3,408.4 				"/>
                <path class="st7" d="M566.1,534.8l-69.2,13.7l-0.7-140.1l68.6-3L566.1,534.8z M502.6,538.7l27.9-5.3l-0.4-52l5.2,0.6l9.5-1.2
					l0,4.7l-9.3,1.3l0.3,45.7l25.1-4.7L560,413.6l-25,1.3l0.4,52.3l9.3-1.1l0,4.7l-2-0.2l-12.7,1.5l-0.4-57l-27.7,1.5L502.6,538.7z"
                />
                <polygon class="st7" points="492.4,408.2 561,405.2 564.8,405.4 496.3,408.4 				"/>
                <polygon class="st7" points="530.1,481.5 530.1,472.2 535.3,472.7 535.4,482 				"/>
                <polygon class="st7" points="535.4,482 535.3,472.7 548,471.2 548.1,480.4 544.9,480.8 				"/>
                <polygon class="st7" points="548,471.2 535.3,472.7 530.1,472.2 542.8,470.7 544.8,470.9 				"/>
			</g>
		</g>
        <g>
			<g>
				<polygon class="st8" points="582.5,524.8 581.3,415.5 584.4,415.6 585.6,525.3 				"/>
                <polygon class="st8" points="581.3,415.5 611.6,413.8 614.6,413.9 584.4,415.6 				"/>
                <path class="st7" d="M614.6,413.9l1.4,105.6l-30.4,5.8l-1.2-109.6L614.6,413.9z M587.1,423.9l1.1,92.2l25.2-4.5l-1.2-89.4
					L587.1,423.9z"/>
			</g>
            <polygon class="st9" points="588.2,516.1 587.1,423.9 612.2,422.2 613.4,511.6 			"/>
		</g>
        <g>
			<g>
				<polygon class="st8" points="421.7,555.3 421.8,424.6 425,424.8 424.9,555.9 				"/>
                <polygon class="st8" points="421.8,424.6 464.5,422.2 467.7,422.3 425,424.8 				"/>
                <path class="st7" d="M467.7,422.3l0.3,125.3l-43.1,8.2l0.1-131.1L467.7,422.3z M428.8,434.7l0,110.2l35.7-6.4l-0.2-106.2
					L428.8,434.7z"/>
			</g>
            <polygon class="st9" points="428.7,544.9 428.8,434.7 464.2,432.3 464.4,538.5 			"/>
		</g>
        <g>
			<g>
				<polygon class="st8" points="499.1,357.7 421.9,356.8 425,356.8 502.2,357.7 				"/>
                <polygon class="st8" points="421.9,356.8 422,229.9 425.1,229.5 425,356.8 				"/>
                <path class="st7" d="M501.6,240.3l0.6,117.4l-77.2-0.9l0.1-127.3L501.6,240.3z M432.1,240.2l0,106.6l64,1.4l-0.5-99.7
					L432.1,240.2z"/>
			</g>
            <polygon class="st9" points="432.1,346.9 432.1,240.2 495.6,248.6 496.1,348.3 			"/>
		</g>
        <g>
			<g>
				<polygon class="st8" points="493.4,134.6 504.3,127.2 509.4,126 498.6,133.4 				"/>
                <polygon class="st8" points="493.4,134.6 498.6,133.4 489.3,145 484.1,146.1 				"/>
                <path class="st7" d="M498.6,133.4l10.9-7.5l11.8-3.1l12.2,1.3l11.9,5.4l11,9.1l9.7,12.2l8,14.7l6,16.6l6.7,31.6l-112.2-21.1
					l7.9-32.4l7.1-15.2L498.6,133.4z M517.1,188.8l29,5.8l-12.5-58.9L517.1,188.8z M511,187.6l17.3-52.3l-5.3-0.5l-10.1,2.8
					l-9.3,6.5l-7.9,10l-6,13l-3.7,15.4L511,187.6z M551.6,195.7l25.4,5.1l-3.2-15.3l-5.2-14.3l-6.9-12.7l-8.4-10.5l-9.5-7.7
					l-5.1-2.2L551.6,195.7z"/>
                <polygon class="st8" points="509.4,126 504.3,127.2 516.1,124.1 521.3,122.9 				"/>
                <polygon class="st8" points="469.1,193.5 477,161.3 482.2,160.2 474.3,192.6 				"/>
                <polygon class="st8" points="469.1,193.5 474.3,192.6 586.6,213.7 581.5,214.4 				"/>
                <polygon class="st8" points="482.2,160.2 477,161.3 484.1,146.1 489.3,145 				"/>
			</g>
            <g>
				<polygon class="st9" points="546.1,194.6 517.1,188.8 533.5,135.7 				"/>
                <polygon class="st9" points="528.3,135.2 511,187.6 486.1,182.6 489.8,167.2 495.8,154.1 503.6,144.1 512.9,137.6 523.1,134.8
									"/>
                <polygon class="st9" points="577.1,200.9 551.6,195.7 538.7,138 543.8,140.2 553.3,148 561.7,158.5 568.7,171.2 573.8,185.5
									"/>
			</g>
		</g>
	</g>
</g>
</svg>
