<?xml version="1.0" encoding="utf-8"?>
<!-- Generator: Adobe Illustrator 25.0.1, SVG Export Plug-In . SVG Version: 6.00 Build 0)  -->
<svg version="1.1" id="katman_1" xmlns="http://www.w3.org/2000/svg" x="0px" y="0px"
     viewBox="0 0 841.9 595.3" style="enable-background:new 0 0 841.9 595.3;" xml:space="preserve">
<style type="text/css">
	.st0{fill:#8F6645;}
	.st1{fill:#EEEEEE;}
	.st2{fill:#DDDDDD;}
	.st3{fill:#3D3A37;}
	.st4{fill:#C4C4C4;}
	.st5{fill:#3D3A37;}
	.st6{fill:#000000;}
	.st7{fill:#FFFFFF;}
	.st8{fill:#888888;}
	.st9{fill:#7884AF;}
</style>

    <g id="roof">
	<polygon class="st3" points="204.3,206.5 248.6,107.9 364.8,76.3 379.8,72.2 429.9,166.1 449.7,177.1 445.2,188.9 429.9,180.2
		348.7,134.1 268.6,151.6 204.2,215.8 196.1,223.8 193,217.8 			"/>
        <polygon class="st3" points="429.9,166.1 379.8,72.2 400.6,77.9 435.2,87.5 556.6,120.9 605.7,199.8 			"/>
        <polygon class="st2" points="429.9,166.1 605.7,199.8 624.6,209.3 449.7,177.1 			"/>
        <polygon class="st1" points="196.1,223.8 204.2,215.8 204.1,224.7 			"/>
        <polygon class="st1" points="445.2,188.9 449.7,177.1 624.6,209.3 620.4,218.9 605.9,216.4 			"/>
</g>

    <g id="body">
	<g>
		<polygon class="st4" points="430.4,424.7 430.4,406.7 608.3,396.4 608.5,411.1 			"/>
        <polygon class="st4" points="430.4,406.7 430.4,424.7 201.8,409 202,394.8 			"/>
        <polygon class="st4" points="606.3,245 606.4,255.6 430,234.2 430,221.3 			"/>
        <polygon class="st4" points="430,221.3 430,234.2 203.6,258.8 203.8,248.6 			"/>
	</g>
        <g>
		<polygon class="st4" points="430.4,406.7 202,394.8 203.6,258.8 430,234.2 			"/>
            <polygon class="st4" points="201.8,409 430.4,424.7 430.8,582.4 337.4,562.3 337.5,547.7 261.4,532.4 227.4,537.9 227.4,538.6
				200.3,532.7 			"/>
            <polygon class="st4" points="606.3,245 430,221.3 429.9,180.2 445.2,188.9 605.9,216.4 			"/>
            <polygon class="st4" points="430,234.2 606.4,255.6 608.3,396.4 430.4,406.7 			"/>
            <polygon class="st4" points="430,221.3 203.8,248.6 204.1,224.7 204.2,215.8 268.6,151.6 348.7,134.1 429.9,180.2 			"/>
            <polygon class="st4" points="430.4,424.7 608.5,411.1 610.3,539.2 430.8,582.4 			"/>
	</g>

</g>

    <g id="chimney">
	<polygon class="st6" points="400.5,12.9 435,24.7 435.2,87.5 400.6,77.9 			"/>
        <polygon class="st5" points="364.9,24.5 400.5,12.9 400.6,77.9 379.8,72.2 364.8,76.3 			"/>
</g>


    <g id="right-window">
	<g>
		<g>
			<polygon class="st8" points="443.3,557.8 442.9,438.3 445.9,438.6 446.4,558.4 				"/>
            <polygon class="st8" points="442.9,438.3 509.3,432.2 512.4,432.5 445.9,438.6 				"/>
            <path class="st7" d="M512.4,432.5l0.8,111.2l-66.9,14.7l-0.4-119.8L512.4,432.5z M452.1,447.3l0.4,100.5l31.9-6.7l-0.6-97
				L452.1,447.3z M494.2,448.1l-5.3-4.6l0.6,96.4l5.2-6.3l4.5-7.6l3.6-8.6l2.6-9.3l1.6-9.7l0.5-9.8l-0.6-9.6l-1.7-9.1l-2.7-8.4
				l-3.7-7.4L494.2,448.1z"/>
		</g>
        <polygon class="st9" points="452.4,547.7 452.1,447.3 483.8,444 484.3,541 			"/>
        <polygon class="st9" points="488.9,443.5 494.2,448.1 498.7,454.2 502.4,461.6 505.2,470 506.9,479.1 507.5,488.7 507,498.5
		505.4,508.2 502.8,517.4 499.2,526 494.7,533.6 489.5,539.9 			"/>
	</g>
        <g>
		<g>
			<polygon class="st8" points="533,538.2 532,430.2 535.1,430.4 536,538.7 				"/>
            <polygon class="st8" points="532,430.2 586.9,425.1 589.8,425.3 535.1,430.4 				"/>
            <path class="st7" d="M589.8,425.3l1.3,101.2L536,538.7l-1-108.3L589.8,425.3z M540.1,438.3l0.9,90.8l26.2-5.5l-1-88L540.1,438.3
				z M574.8,439.4l-4.4-4.3l1,87.5l4.3-5.7l3.7-6.8l2.9-7.7l2.1-8.4l1.3-8.8l0.3-8.9l-0.6-8.7l-1.5-8.3l-2.3-7.7l-3.1-6.7
				L574.8,439.4z"/>
		</g>
            <polygon class="st9" points="541,529.1 540.1,438.3 566.2,435.6 567.2,523.6 			"/>
            <polygon class="st9" points="570.5,435.2 574.8,439.4 578.6,445 581.7,451.7 584,459.4 585.5,467.7 586,476.5 585.7,485.4
				584.4,494.1 582.3,502.5 579.4,510.2 575.7,517 571.4,522.7 			"/>
	</g>

</g>


    <g>
	<g>
		<g>
			<polygon class="st0" points="227.4,537.9 261.4,532.4 337.5,547.7 303,554.1 			"/>
            <polygon class="st4" points="227.4,537.9 303,554.1 302.9,569.2 227.2,551.7 227.4,538.6 			"/>
            <polygon class="st4" points="303,554.1 337.5,547.7 337.4,562.3 302.9,569.2 			"/>
		</g>
	</g>
        <g>
		<g>
			<g>
				<path class="st7" d="M265.5,179.3l9.2-10.8l10.4-7.8l11.2-4.3l11.4-0.4l11.1,3.6l10.2,7.6l8.6,11.3l6.6,14.4l7.3,30.2L246,236.8
					l6.3-29.1l5.6-15.1L265.5,179.3z M280.6,221.8l27-3.8l-11.4-50.7L280.6,221.8z M275.3,222.5l16.1-53.5l-4.8,1.8l-9,6.6l-8,9.3
					l-6.6,11.5l-4.9,13.1l-3.1,14.1L275.3,222.5z M313.2,217.1l27.4-3.9l-3.5-14.4l-5.6-12.4l-7.4-9.7l-8.7-6.6l-9.5-3.2l-4.9,0.1
					L313.2,217.1z"/>
                <polygon class="st8" points="342.4,179.3 348.9,193.6 344.2,192.9 337.6,178.5 				"/>
                <polygon class="st8" points="342.4,179.3 337.6,178.5 329,167.2 333.7,168.1 				"/>
                <polygon class="st8" points="344.2,192.9 348.9,193.6 356.3,223.7 351.6,223.1 				"/>
                <polygon class="st8" points="250.7,237.3 246,236.8 351.6,223.1 356.3,223.7 				"/>
                <polygon class="st8" points="307.7,156.1 312.4,156.9 323.5,160.5 318.8,159.7 				"/>
                <polygon class="st8" points="329,167.2 318.8,159.7 323.5,160.5 333.7,168.1 				"/>
			</g>
            <g>
				<polygon class="st9" points="307.6,217.9 280.6,221.8 296.2,167.2 				"/>
                <polygon class="st9" points="291.4,169 275.3,222.5 255,225.4 258.1,211.3 263,198.2 269.6,186.7 277.6,177.4 286.6,170.8
					"/>
                <polygon class="st9" points="340.7,213.3 313.2,217.1 301.1,167.1 306.1,167 315.6,170.2 324.3,176.8 331.6,186.5 337.2,198.9
									"/>
			</g>
		</g>
            <g>
			<g>
				<polygon class="st8" points="273.3,270.6 272.5,372.1 269.8,372.1 270.5,270.4 				"/>
                <path class="st7" d="M270.5,270.4l-0.8,101.7l-55.2-1.2l1.1-95.6L270.5,270.4z M220,282.4l-0.9,81.1l45.8,0.6l0.7-85.4
					L220,282.4z"/>
			</g>
                <polygon class="st9" points="219.1,363.5 220,282.4 265.5,278.7 264.8,364.1 			"/>
		</g>
            <g>
			<g>
				<polygon class="st8" points="389.1,260.3 389,374.6 386.2,374.7 386.3,260.1 				"/>
                <path class="st7" d="M386.3,260.1l0,114.7l-69.7-1.5l0.5-106.9L386.3,260.1z M322.5,274.1l-0.4,90.7l57.8,0.8l0.1-96.2
					L322.5,274.1z"/>
			</g>
                <polygon class="st9" points="322.1,364.8 322.5,274.1 380,269.5 379.9,365.6 			"/>
		</g>
            <g>
			<g>
				<polygon class="st8" points="245.2,423.9 244.3,524.3 241.5,524.7 242.4,424.1 				"/>
                <polygon class="st8" points="216.7,421.6 245.2,423.9 242.4,424.1 214,421.7 				"/>
                <path class="st7" d="M242.4,424.1l-1,100.7l-28.6-5.6l1.1-97.4L242.4,424.1z M216.2,429.5l-0.9,82.4l23.7,4.4l0.8-84.7
					L216.2,429.5z"/>
			</g>
                <polygon class="st9" points="215.3,511.9 216.2,429.5 239.9,431.7 239,516.4 			"/>
		</g>
            <g>
			<g>
				<polygon class="st8" points="442.7,375.3 442.3,258.6 445.3,258.3 445.7,375.4 				"/>
                <path class="st7" d="M511.1,264.9l0.8,108.9l-66.2,1.6l-0.4-117.1L511.1,264.9z M451.4,267.9l0.4,98.2l31.6-0.5l-0.5-94.9
					L451.4,267.9z M493.1,276.7l-5.2-5.5l0.6,94.3l5.2-5.2l4.4-6.6l3.6-7.7l2.6-8.6l1.5-9.2l0.5-9.5l-0.6-9.5l-1.7-9.2l-2.7-8.7
					l-3.7-7.9L493.1,276.7z"/>
			</g>
                <polygon class="st9" points="451.7,366.1 451.4,267.9 482.8,270.8 483.3,365.6 			"/>
                <polygon class="st9" points="487.9,271.2 493.1,276.7 497.6,283.6 501.2,291.5 503.9,300.2 505.6,309.4 506.2,318.9 505.8,328.4
				504.2,337.5 501.6,346.1 498.1,353.8 493.6,360.3 488.4,365.5 			"/>
		</g>
            <g>
			<g>
				<polygon class="st8" points="531.5,373.1 530.6,267.3 533.6,267.1 534.5,373.2 				"/>
                <path class="st7" d="M587.9,272.5l1.2,99.3l-54.6,1.4l-1-106.1L587.9,272.5z M538.6,275.8l0.8,89l26-0.4l-1-86.2L538.6,275.8z
					 M573,283.5l-4.3-5l1,85.8l4.3-4.7l3.6-6l2.9-7l2.1-7.8l1.2-8.3l0.3-8.6l-0.6-8.7l-1.5-8.4l-2.3-7.9l-3.1-7.2L573,283.5z"/>
			</g>
                <polygon class="st9" points="539.4,364.8 538.6,275.8 564.4,278.1 565.4,364.4 			"/>
                <polygon class="st9" points="568.7,278.5 573,283.5 576.8,289.7 579.8,296.9 582.1,304.8 583.6,313.2 584.1,321.9 583.8,330.5
				582.6,338.8 580.4,346.6 577.5,353.6 573.9,359.6 569.6,364.3 			"/>
		</g>
            <g>
			<g>
				<polygon class="st8" points="391.5,435.8 391.5,553 388.6,553.6 388.6,436 				"/>
                <polygon class="st8" points="353,432.6 391.5,435.8 388.6,436 350.1,432.8 				"/>
                <path class="st7" d="M388.6,436l0,117.6l-38.8-7.6l0.3-113.1L388.6,436z M353.3,441.9l-0.2,95.8l32.1,6l0-98.9L353.3,441.9z"/>
			</g>
                <polygon class="st9" points="353.1,537.7 353.3,441.9 385.2,444.8 385.2,543.7 			"/>
		</g>
            <polygon class="st8" points="290.9,532.3 266.7,527.6 267.5,423 291.6,424.9 291.3,476.7 286.6,477.3 286.5,485.7 291.2,486.4
			"/>
            <g>
			<polygon class="st8" points="329.8,546.4 326.2,547.1 326.7,419.8 330.3,419.5 			"/>
                <path class="st7" d="M326.2,547.1L262,534.2l1-118.9l63.7,4.5L326.2,547.1z M266.7,527.6l24.2,4.7l0.3-45.9l7.3,1l4.7-0.6
				l0.1-8.5l-12-1.6l0.3-51.8l-24.1-1.9L266.7,527.6z M305.2,492.7l-9-1.3l-0.2,41.9l25,4.8l0.5-110.9l-24.8-1.9l-0.3,48.1l8.9,1.1
				L305.2,492.7z"/>
                <polygon class="st8" points="266.5,415.1 330.3,419.5 326.7,419.8 263,415.3 			"/>
                <polygon class="st7" points="286.5,485.7 286.6,477.3 298.6,478.9 298.5,487.4 291.2,486.4 			"/>
                <polygon class="st7" points="298.6,478.9 286.6,477.3 291.3,476.7 303.3,478.3 			"/>
                <polygon class="st7" points="298.6,478.9 303.3,478.3 303.3,486.8 298.5,487.4 			"/>
		</g>
            <polygon class="st8" points="296.3,491.3 305.2,492.7 305.3,474.5 296.4,473.4 296.7,425.3 321.5,427.2 321,538.1 296,533.3 		"/>
            <path class="st7" d="M286.6,477.3l12,1.6 M330.3,419.5l-3.5,0.2 M298.6,478.9l4.7-0.6 M291.3,476.7l12,1.6 M286.6,477.3l4.7-0.5
			 M266.5,415.1l-3.5,0.2 M263,415.3l-1,118.9 M326.2,547.1l0.5-127.3 M326.7,419.8l-63.7-4.5 M303.3,478.3l-0.1,8.5 M296,533.3
			l25,4.8 M296.3,491.3l-0.2,41.9 M305.3,474.5l-0.1,18.1 M296.4,473.4l8.9,1.1 M296.7,425.3l-0.3,48.1 M321.5,427.2l-24.8-1.9
			 M321,538.1l0.5-110.9 M298.6,478.9l0,8.6 M298.5,487.4l4.7-0.6 M298.5,487.4l-7.3-1 M291.2,486.4l-4.7-0.7"/>
	</g>
</g>
</svg>
