<?xml version="1.0" encoding="UTF-8"?>
<svg id="Layer_1" data-name="Layer 1" xmlns="http://www.w3.org/2000/svg" version="1.1" viewBox="0 0 841.89 595.28">
  <defs>
    <style>
      .st0{fill:#8F6645;}
      .st1{fill:#EEEEEE;}
      .st2{fill:#DDDDDD;}
      .st3{fill:#3D3A37;}
      .st4{fill:#C4C4C4;}
      .st5{fill:#3D3A37;}
      .st6{fill:#000000;}
      .st7{fill:#FFFFFF;}
      .st8{fill:#888888;}
      .st9{fill:#7884AF;}
    </style>
  </defs>
  <g>
    <polygon class="st5" points="289.06 94.19 317.81 96.96 317.81 10.04 289.06 7.27 289.06 94.19"/>
    <polygon class="st6" points="317.81 96.96 351.67 94.07 351.67 7.15 317.81 10.04 317.81 96.96"/>
    <polygon class="st6" points="351.67 7.15 322.93 4.38 289.06 7.27 317.81 10.04 351.67 7.15"/>
  </g>
  <g>
    <polygon class="st0" points="218.2 128.89 218.2 564.06 431.42 584.61 431.42 412.86 431.42 375.89 431.42 149.43 218.2 128.89"/>
    <polygon class="st4" points="639.74 358.14 639.74 132.39 435.35 149.81 431.42 149.43 431.42 375.89 443.45 374.87 455.45 376.03 455.45 378.21 501.7 382.67 513.73 381.64 523.06 382.54 591.78 376.68 591.78 374.99 605.01 373.86 614.34 374.76 626.02 373.76 626.02 359.3 639.74 358.14"/>
    <polygon class="st4" points="626.02 568.02 626.02 427.63 522.55 436.45 522.55 576.84 626.02 568.02"/>
    <polygon class="st4" points="452.45 582.82 502.94 578.51 502.94 436.65 452.45 431.78 452.45 582.82"/>
  </g>
  <g>
    <polygon class="st8" points="338.98 476.15 338.98 431.73 308.42 428.78 308.42 553.73 319.37 554.79 319.37 474.26 338.98 476.15"/>
    <g>
      <path class="st7" d="M516.58,290.84l45.56-3.88v108.45l-45.56,3.88v-108.45ZM511.51,406.64l55.69-4.75v-122.29l-55.69,4.75v122.29Z"/>
      <path class="st8" d="M551.4,333.42l5.6-.48,4.19.4v12.39l-5.6.48-4.19-.4v-12.39ZM562.14,286.96l-45.56,3.88v108.45l45.56-3.88v-108.45Z"/>
      <polygon class="st7" points="561.19 333.34 555.59 333.82 555.59 346.21 561.19 345.73 561.19 333.34"/>
      <polygon class="st7" points="339.5 497.68 339.41 491.78 336.92 492 337.02 497.89 339.5 497.68"/>
      <polygon class="st7" points="348.93 577.3 352.45 577 352.45 415.9 348.93 416.2 348.93 577.3"/>
    </g>
    <g>
      <polygon class="st8" points="511.51 284.35 567.21 279.6 563.86 279.28 508.17 284.03 511.51 284.35"/>
      <polygon class="st8" points="557 332.94 551.4 333.42 555.59 333.82 561.19 333.34 557 332.94"/>
      <polygon class="st8" points="339.41 491.78 333.51 491.22 331.02 491.43 336.92 492 339.41 491.78"/>
      <polygon class="st8" points="511.51 406.64 511.51 284.35 508.17 284.03 508.17 406.32 511.51 406.64"/>
      <polygon class="st8" points="551.4 333.42 551.4 345.81 555.59 346.21 555.59 333.82 551.4 333.42"/>
      <path class="st8" d="M339.41,491.78l.1,5.9-2.49.21-5.9-.57-.1-5.9,2.48-.21,5.9.57ZM338.98,431.73v44.42l-19.61-1.89v80.53l-10.95-1.06v-124.95l30.56,2.94ZM303.28,564.49l39.86,3.84v-144.28l-39.86-3.84v144.28Z"/>
      <polygon class="st8" points="337.02 497.89 336.92 492 331.02 491.43 331.12 497.32 337.02 497.89"/>
      <path class="st7" d="M343.15,568.33l-39.86-3.84v-144.28l39.86,3.84v144.28ZM297.5,572.34l51.43,4.96v-161.09l-51.43-4.96v161.09Z"/>
      <polygon class="st8" points="301.02 410.95 297.5 411.25 348.93 416.2 352.45 415.9 301.02 410.95"/>
    </g>
  </g>
  <g id="right-window">
    <path class="st7" d="M605.96,528.24l-46.8,3.99v-75.72l46.8-3.99v75.72ZM608,442.71l-50.89,4.34v94.98l50.89-4.34v-94.98Z"/>
    <path class="st7" d="M627.28,371.45l-46.8,3.99v-75.72l46.8-3.99v75.72ZM629.33,285.92l-50.89,4.34v94.98l50.89-4.34v-94.98Z"/>
    <polygon class="st8" points="557.11 542.03 557.11 447.05 553.76 446.73 553.76 541.71 557.11 542.03"/>
    <polygon class="st8" points="629.33 285.92 625.98 285.6 575.09 289.94 578.44 290.26 629.33 285.92"/>
    <polygon class="st8" points="578.44 385.24 578.44 290.26 575.09 289.94 575.09 384.92 578.44 385.24"/>
    <polygon class="st9" points="559.15 532.23 605.96 528.24 605.96 452.52 559.15 456.51 559.15 532.23"/>
    <polygon class="st9" points="580.48 375.44 627.28 371.45 627.28 295.73 580.48 299.72 580.48 375.44"/>
  </g>
  <g>
    <path class="st7" d="M498.72,382.4l-46.8,3.99v-75.72l46.8-3.99v75.72ZM500.76,296.88l-50.89,4.34v94.98l50.89-4.34v-94.98Z"/>
    <path class="st7" d="M516.67,535.85l-46.8,3.99v-75.72l46.8-3.99v75.72ZM518.72,450.32l-50.89,4.34v94.98l50.89-4.34v-94.98Z"/>
    <polygon class="st8" points="500.76 296.88 497.41 296.56 446.52 300.9 449.87 301.22 500.76 296.88"/>
    <polygon class="st8" points="449.87 396.2 449.87 301.22 446.52 300.9 446.52 395.88 449.87 396.2"/>
    <polygon class="st8" points="625.36 158.52 622.01 158.2 446.52 173.16 449.87 173.48 625.36 158.52"/>
    <polygon class="st8" points="449.87 268.46 449.87 173.48 446.52 173.16 446.52 268.14 449.87 268.46"/>
    <polygon class="st8" points="518.72 450.32 515.37 450 464.48 454.34 467.83 454.66 518.72 450.32"/>
    <polygon class="st8" points="467.83 549.64 467.83 454.66 464.48 454.34 464.48 549.32 467.83 549.64"/>
    <polygon class="st9" points="451.92 386.4 498.72 382.4 498.72 306.69 451.92 310.68 451.92 386.4"/>
    <polygon class="st9" points="469.87 539.84 516.67 535.85 516.67 460.13 469.87 464.12 469.87 539.84"/>
  </g>
  <g>
    <g>
      <polygon class="st8" points="608 442.71 604.65 442.39 553.76 446.73 557.11 447.05 608 442.71"/>
      <path class="st7" d="M318.7,263.84l-27.22-2.76v-89.81l27.22,2.76v89.81ZM324.68,174.47l28.58,2.75v89.81l-28.58-2.75v-89.81ZM359.31,169.01l-73.89-7.12v107.41l73.89,7.12v-107.41Z"/>
      <polygon class="st7" points="285.42 161.89 359.31 169.01 362.84 168.71 288.95 161.59 285.42 161.89"/>
      <path class="st7" d="M318.43,393.28l-27.22-2.76v-89.81l27.22,2.76v89.81ZM324.42,303.91l28.58,2.75v89.81l-28.58-2.75v-89.81ZM359.05,298.45l-73.89-7.12v107.41l73.89,7.12v-107.41Z"/>
      <polygon class="st7" points="285.16 291.33 359.05 298.45 362.57 298.15 288.68 291.03 285.16 291.33"/>
    </g>
    <g>
      <path class="st7" d="M618.31,244.47l-161.4,13.76v-75.72l161.4-13.76v75.72ZM625.36,158.52l-175.49,14.96v94.98l175.49-14.96v-94.98Z"/>
      <polygon class="st7" points="359.31 169.01 359.31 276.42 362.84 276.12 362.84 168.71 359.31 169.01"/>
      <polygon class="st7" points="359.05 298.45 359.05 405.86 362.57 405.56 362.57 298.15 359.05 298.45"/>
    </g>
    <g>
      <polygon class="st9" points="456.92 258.23 618.31 244.47 618.31 168.75 456.92 182.51 456.92 258.23"/>
      <polygon class="st9" points="353.26 177.23 324.68 174.47 324.68 264.28 353.26 267.04 353.26 177.23"/>
      <polygon class="st9" points="291.48 261.08 318.7 263.84 318.7 174.03 291.48 171.27 291.48 261.08"/>
      <polygon class="st9" points="353 306.67 324.42 303.91 324.42 393.72 353 396.47 353 306.67"/>
      <polygon class="st9" points="291.21 390.52 318.43 393.28 318.43 303.47 291.21 300.71 291.21 390.52"/>
    </g>
  </g>
  <g>
    <polygon class="st0" points="511.03 420.53 511.03 592.28 522.55 591.3 522.55 576.84 522.55 436.45 626.02 427.63 635.53 426.82 649.25 425.65 697.54 421.53 705.63 420.84 705.63 575.69 719.35 574.52 719.35 402.78 705.63 403.95 614.34 411.73 601.11 412.86 523.06 419.51 511.03 420.53"/>
    <polygon class="st0" points="511.03 383.57 511.03 420.53 523.06 419.51 523.06 382.54 511.03 383.57"/>
    <polygon class="st0" points="440.93 585.52 452.45 584.54 452.45 582.82 452.45 431.78 440.93 430.67 440.93 585.52"/>
    <polygon class="st0" points="719.35 402.78 719.35 365.81 705.63 366.98 705.63 403.95 719.35 402.78"/>
    <polygon class="st0" points="705.63 403.95 705.63 366.98 696.3 367.77 651.74 371.57 638.02 372.74 626.02 373.76 614.34 374.76 614.34 411.73 705.63 403.95"/>
    <polygon class="st0" points="614.34 411.73 614.34 374.76 601.11 375.89 601.11 412.86 614.34 411.73"/>
    <polygon class="st0" points="601.11 412.86 601.11 375.89 591.78 376.68 523.06 382.54 523.06 419.51 601.11 412.86"/>
    <polygon class="st0" points="455.45 376.03 443.43 377.05 455.45 378.21 455.45 376.03"/>
    <polygon class="st0" points="635.53 568.94 649.25 567.77 649.25 425.65 635.53 426.82 635.53 568.94"/>
    <polygon class="st0" points="651.74 359.29 638.02 360.46 638.02 372.74 651.74 371.57 651.74 359.29"/>
  </g>
  <g>
    <polygon class="st4" points="651.74 359.29 651.74 371.57 696.3 367.77 696.3 366.08 710.01 364.91 651.74 359.29"/>
    <polygon class="st4" points="511.03 592.28 511.03 420.53 501.7 419.64 443.43 414.02 431.42 412.86 431.42 584.61 440.93 585.52 440.93 430.67 452.45 431.78 502.94 436.65 502.94 578.51 502.94 591.5 511.03 592.28"/>
    <polygon class="st4" points="501.7 419.64 511.03 420.53 511.03 383.57 501.7 382.67 501.7 419.64"/>
    <polygon class="st4" points="501.7 419.64 501.7 382.67 455.45 378.21 443.43 377.05 443.43 414.02 501.7 419.64"/>
    <polygon class="st4" points="443.43 414.02 443.43 377.05 431.42 375.89 431.42 412.86 443.43 414.02"/>
    <polygon class="st4" points="635.53 568.94 635.53 426.82 626.02 427.63 626.02 568.02 635.53 568.94"/>
    <polygon class="st4" points="638.02 360.46 626.02 359.3 626.02 373.76 638.02 372.74 638.02 360.46"/>
    <polygon class="st4" points="697.54 421.53 697.54 574.91 705.63 575.69 705.63 420.84 697.54 421.53"/>
    <polygon class="st4" points="601.11 375.89 591.78 374.99 591.78 376.68 601.11 375.89"/>
    <polygon class="st4" points="696.3 366.08 696.3 367.77 705.63 366.98 696.3 366.08"/>
  </g>
  <g>
    <polygon class="st1" points="672.93 129.56 672.93 118.2 435.35 138.45 435.35 149.81 639.74 132.39 672.93 129.56"/>
    <polygon class="st1" points="189.65 114.77 189.65 126.13 218.2 128.89 431.42 149.43 435.35 149.81 435.35 138.45 189.65 114.77"/>
    <polygon class="st3" points="211.24 114.83 436.01 136.5 436.01 126.89 435.35 126.94 211.24 105.34 211.24 112.93 211.24 114.83"/>
    <polygon class="st3" points="436.01 126.89 436.01 136.5 651.34 118.14 651.34 116.12 651.34 108.53 436.01 126.89"/>
    <polygon class="st1" points="435.35 115.08 189.65 91.4 189.65 103.26 211.24 105.34 435.35 126.94 435.35 115.08"/>
    <polygon class="st1" points="672.93 106.69 672.93 94.82 435.35 115.08 435.35 126.94 436.01 126.89 651.34 108.53 672.93 106.69"/>
  </g>
  <g>
    <g>
      <polygon class="st3" points="672.93 118.2 651.34 116.12 651.34 118.14 436.01 136.5 211.24 114.83 211.24 112.93 189.65 114.77 435.35 138.45 672.93 118.2"/>
      <polygon class="st3" points="672.93 94.82 427.22 71.14 189.65 91.4 435.35 115.08 672.93 94.82"/>
    </g>
    <g>
      <polygon class="st3" points="501.7 382.67 511.03 383.57 523.06 382.54 513.73 381.64 501.7 382.67"/>
      <polygon class="st3" points="601.11 375.89 614.34 374.76 605.01 373.86 591.78 374.99 601.11 375.89"/>
      <polygon class="st3" points="705.63 366.98 719.35 365.81 710.01 364.91 696.3 366.08 705.63 366.98"/>
      <polygon class="st3" points="431.42 375.89 443.43 377.05 455.45 376.03 443.45 374.87 431.42 375.89"/>
      <polygon class="st3" points="651.74 359.29 639.74 358.14 626.02 359.3 638.02 360.46 651.74 359.29"/>
    </g>
  </g>
</svg>