<?xml version="1.0" encoding="UTF-8"?>
<svg id="Layer_1" data-name="Layer 1" xmlns="http://www.w3.org/2000/svg" version="1.1" viewBox="0 0 841.89 595.28">
  <defs>
    <style>
      .st0{fill:#8F6645;}
      .st1{fill:#EEEEEE;}
      .st2{fill:#DDDDDD;}
      .st3{fill:#3D3A37;}
      .st4{fill:#C4C4C4;}
      .st5{fill:#3D3A37;}
      .st6{fill:#000000;}
      .st7{fill:#FFFFFF;}
      .st8{fill:#888888;}
      .st9{fill:#7884AF;}
    </style>
  </defs>
  <g id="chimney">
    <polygon class="st6" points="416.5 99.87 449.81 98.41 449.81 8.38 416.5 9.84 416.5 99.87"/>
    <polygon class="st5" points="385.77 97.93 416.5 99.87 416.5 9.84 385.77 7.9 385.77 97.93"/>
    <polygon class="st6" points="419.08 6.44 385.77 7.9 416.5 9.84 449.81 8.38 419.08 6.44"/>
  </g>
  <g>
    <polygon class="st4" points="191.74 581.25 380.78 593.17 380.78 141.04 378.58 141.13 191.74 129.35 191.74 581.25"/>
    <polygon class="st0" points="380.78 141.04 380.78 593.17 627.83 582.36 627.83 404.47 627.83 366.17 627.83 365.01 627.83 357.44 627.83 356.32 627.83 130.23 380.78 141.04"/>
  </g>
  <g>
    <polygon class="st3" points="380.61 128.2 641.04 116.81 641.04 115.52 641.04 105.97 380.61 117.35 380.61 128.2"/>
    <polygon class="st1" points="663.26 128.69 663.26 116.92 378.58 129.37 378.58 141.13 380.78 141.04 627.83 130.23 663.26 128.69"/>
    <polygon class="st1" points="663.26 92.7 378.58 105.15 378.58 117.44 380.61 117.35 641.04 105.97 663.26 105 663.26 92.7"/>
  </g>
  <g>
    <polygon class="st1" points="378.58 141.13 378.58 129.37 162.99 115.77 162.99 127.54 191.74 129.35 378.58 141.13"/>
    <polygon class="st3" points="380.61 128.2 380.61 117.35 378.58 117.44 185.2 105.25 185.2 114.8 185.2 115.88 380.61 128.2"/>
    <polygon class="st1" points="162.99 91.56 162.99 103.85 185.2 105.25 378.58 117.44 378.58 105.15 162.99 91.56"/>
  </g>
  <g>
    <g>
      <polygon class="st3" points="185.2 114.8 162.99 115.77 378.58 129.37 663.26 116.92 641.04 115.52 641.04 116.81 380.61 128.2 185.2 115.88 185.2 114.8"/>
      <polygon class="st3" points="447.66 79.11 162.99 91.56 378.58 105.15 663.26 92.7 447.66 79.11"/>
    </g>
    <g>
      <polygon class="st0" points="709.25 362.61 720.06 362.14 709.15 361.45 698.34 361.92 709.25 362.61"/>
      <polygon class="st0" points="638.32 356.99 627.83 356.32 627.83 357.44 638.32 356.99"/>
      <polygon class="st0" points="627.83 366.17 641.73 365.56 638.32 365.35 630.82 364.88 627.83 365.01 627.83 366.17"/>
    </g>
  </g>
  <g>
    <polygon class="st4" points="720.06 578.33 720.06 400.43 709.25 400.9 641.73 403.86 627.83 404.47 627.83 582.36 638.84 581.88 638.84 421.48 700.24 418.8 710.69 418.34 710.69 578.74 720.06 578.33"/>
    <polygon class="st4" points="720.06 400.43 720.06 362.14 709.25 362.61 709.25 400.9 720.06 400.43"/>
    <polygon class="st4" points="709.25 400.9 709.25 362.61 698.34 363.09 641.73 365.56 641.73 403.86 709.25 400.9"/>
    <polygon class="st4" points="641.73 403.86 641.73 365.56 627.83 366.17 627.83 404.47 641.73 403.86"/>
    <polygon class="st4" points="638.32 365.35 638.32 356.99 627.83 357.44 627.83 365.01 630.82 364.88 638.32 365.35"/>
  </g>
  <g>
    <polygon class="st0" points="710.69 578.74 710.69 418.34 700.24 418.8 700.24 578.08 710.69 578.74"/>
    <polygon class="st0" points="709.15 361.45 638.32 356.99 638.32 365.35 641.73 365.56 698.34 363.09 698.34 361.92 709.15 361.45"/>
    <polygon class="st0" points="698.34 361.92 698.34 363.09 709.25 362.61 698.34 361.92"/>
  </g>
  <g id="left-window">
    <path class="st7" d="M259.85,515.47l-2.96-9.7-1.28-10.47,51.6,3.75-.24,5.26-2.22,9.85-3.8,8.52-5.13,6.6-6.1,4.23-6.66,1.58-6.76-1.19-6.4-3.87-5.61-6.29-4.44-8.28ZM306.18,483.32l.64,5.23-50.72-3.78,2.22-9.85,3.8-8.52,5.13-6.6,6.1-4.23,6.66-1.58,6.76,1.19,6.4,3.87,5.61,6.29,4.44,8.28,2.96,9.7ZM249.21,495.49l1.59,13.05,3.69,12.1,5.53,10.32,7,7.84,7.99,4.82,8.43,1.48,8.3-1.97,7.61-5.28,6.39-8.23,4.74-10.62,2.77-12.29.61-13.12-1.6-13.05-3.69-12.1-5.53-10.32-7-7.84-7.99-4.82-8.43-1.48-8.3,1.97-7.61,5.28-6.39,8.23-4.74,10.62-2.77,12.29-.61,13.12Z"/>
    <polygon class="st8" points="465.64 299.95 551.25 296.21 548.05 296 462.44 299.75 465.64 299.95"/>
    <polygon class="st8" points="311.85 468.31 306.32 457.98 303.04 458.13 308.57 468.45 311.85 468.31"/>
    <polygon class="st8" points="306.32 457.98 299.32 450.14 296.04 450.28 303.04 458.13 306.32 457.98"/>
    <polygon class="st8" points="291.33 445.32 282.9 443.84 279.63 443.98 288.06 445.46 291.33 445.32"/>
    <polygon class="st8" points="299.32 450.14 291.33 445.32 288.06 445.46 296.04 450.28 299.32 450.14"/>
    <polygon class="st8" points="299.35 537.86 291.74 543.14 295.02 543 302.62 537.72 299.35 537.86"/>
    <polygon class="st8" points="291.74 543.14 283.44 545.11 286.72 544.97 295.02 543 291.74 543.14"/>
    <polygon class="st8" points="313.25 506.72 310.48 519.01 313.76 518.87 316.53 506.58 313.25 506.72"/>
    <polygon class="st8" points="310.48 519.01 305.74 529.63 309.01 529.49 313.76 518.87 310.48 519.01"/>
    <polygon class="st8" points="299.35 537.86 302.62 537.72 309.01 529.49 305.74 529.63 299.35 537.86"/>
    <polygon class="st8" points="312.26 480.55 313.86 493.6 317.13 493.46 315.54 480.41 312.26 480.55"/>
    <polygon class="st8" points="313.25 506.72 316.53 506.58 317.13 493.46 313.86 493.6 313.25 506.72"/>
    <polygon class="st8" points="312.26 480.55 315.54 480.41 311.85 468.31 308.57 468.45 312.26 480.55"/>
    <polygon class="st9" points="306.82 488.56 306.18 483.32 303.22 473.62 298.78 465.34 293.17 459.05 286.76 455.18 280 454 273.35 455.57 267.25 459.81 262.12 466.41 258.32 474.92 256.1 484.78 306.82 488.56"/>
    <polygon class="st9" points="256.89 505.77 259.85 515.47 264.29 523.75 269.9 530.04 276.3 533.91 283.06 535.09 289.72 533.52 295.82 529.28 300.95 522.68 304.75 514.17 306.97 504.31 307.21 499.05 255.61 495.3 256.89 505.77"/>
  </g>
  <g>
    <g>
      <polygon class="st8" points="465.95 277.09 465.95 165.83 462.75 165.63 462.75 276.88 465.95 277.09"/>
      <polygon class="st8" points="465.64 411.2 465.64 299.95 462.44 299.75 462.44 411 465.64 411.2"/>
      <path class="st7" d="M259.59,376.74l-2.96-9.7-1.28-10.47,51.6,3.75-.24,5.26-2.22,9.85-3.8,8.52-5.13,6.6-6.1,4.23-6.66,1.58-6.76-1.19-6.4-3.87-5.61-6.29-4.44-8.28ZM305.92,344.59l.64,5.23-50.72-3.78,2.22-9.85,3.8-8.52,5.13-6.6,6.1-4.23,6.66-1.58,6.76,1.19,6.4,3.87,5.61,6.29,4.44,8.28,2.96,9.7ZM248.95,356.76l1.6,13.06,3.69,12.1,5.53,10.32,7,7.84,7.99,4.82,8.43,1.48,8.3-1.97,7.61-5.28,6.39-8.23,4.74-10.62,2.77-12.29.61-13.12-1.6-13.06-3.69-12.1-5.53-10.32-7-7.84-7.99-4.82-8.43-1.48-8.3,1.97-7.61,5.28-6.39,8.23-4.74,10.62-2.77,12.29-.61,13.12Z"/>
      <path class="st7" d="M259.71,242.22l-2.96-9.7-1.28-10.47,51.6,3.75-.24,5.26-2.22,9.85-3.8,8.52-5.13,6.6-6.1,4.23-6.66,1.58-6.76-1.19-6.4-3.87-5.61-6.29-4.44-8.28ZM306.04,210.07l.64,5.23-50.72-3.78,2.22-9.86,3.8-8.52,5.13-6.6,6.1-4.23,6.66-1.58,6.76,1.19,6.4,3.87,5.61,6.29,4.44,8.28,2.96,9.7ZM249.07,222.24l1.6,13.05,3.69,12.1,5.53,10.32,7,7.84,7.99,4.82,8.43,1.48,8.3-1.97,7.61-5.28,6.39-8.23,4.74-10.62,2.77-12.29.61-13.12-1.59-13.05-3.69-12.1-5.53-10.32-7-7.84-7.99-4.82-8.43-1.48-8.3,1.97-7.61,5.28-6.39,8.23-4.74,10.62-2.77,12.29-.61,13.12Z"/>
    </g>
    <g>
      <path class="st7" d="M504.5,266.42l-31.54,1.24v-93.03l31.54-1.24v93.03ZM511.43,172.96l33.11-1.45v93.03l-33.11,1.45v-93.03ZM551.56,162.09l-85.61,3.74v111.25l85.61-3.74v-111.25Z"/>
      <polygon class="st7" points="465.95 165.83 551.56 162.09 548.36 161.89 462.75 165.63 465.95 165.83"/>
      <path class="st7" d="M504.19,400.54l-31.54,1.24v-93.03l31.54-1.24v93.03ZM511.13,307.07l33.11-1.45v93.03l-33.11,1.45v-93.03ZM551.25,296.21l-85.61,3.74v111.25l85.61-3.74v-111.25Z"/>
      <polygon class="st8" points="311.59 329.58 306.06 319.25 302.78 319.4 308.32 329.72 311.59 329.58"/>
      <polygon class="st8" points="306.06 319.25 299.06 311.41 295.79 311.56 302.78 319.4 306.06 319.25"/>
      <polygon class="st8" points="291.07 306.59 282.64 305.11 279.37 305.25 287.8 306.73 291.07 306.59"/>
      <polygon class="st8" points="299.06 311.41 291.07 306.59 287.8 306.73 295.79 311.56 299.06 311.41"/>
      <polygon class="st8" points="299.09 399.14 291.49 404.41 294.76 404.27 302.37 398.99 299.09 399.14"/>
      <polygon class="st8" points="291.49 404.41 283.18 406.38 286.46 406.24 294.76 404.27 291.49 404.41"/>
      <polygon class="st8" points="312.99 367.99 310.23 380.28 313.5 380.14 316.27 367.85 312.99 367.99"/>
      <polygon class="st8" points="310.23 380.28 305.48 390.9 308.76 390.76 313.5 380.14 310.23 380.28"/>
      <polygon class="st8" points="299.09 399.14 302.37 398.99 308.76 390.76 305.48 390.9 299.09 399.14"/>
      <polygon class="st8" points="312.01 341.82 313.6 354.88 316.88 354.73 315.28 341.68 312.01 341.82"/>
      <polygon class="st8" points="312.99 367.99 316.27 367.85 316.88 354.73 313.6 354.88 312.99 367.99"/>
      <polygon class="st8" points="312.01 341.82 315.28 341.68 311.59 329.58 308.32 329.72 312.01 341.82"/>
      <polygon class="st8" points="311.71 195.06 306.18 184.73 302.91 184.88 308.44 195.2 311.71 195.06"/>
      <polygon class="st8" points="306.18 184.73 299.18 176.89 295.91 177.04 302.91 184.88 306.18 184.73"/>
      <polygon class="st8" points="291.19 172.07 282.76 170.59 279.49 170.73 287.92 172.21 291.19 172.07"/>
      <polygon class="st8" points="299.18 176.89 291.19 172.07 287.92 172.21 295.91 177.04 299.18 176.89"/>
      <polygon class="st8" points="299.21 264.62 291.61 269.89 294.88 269.75 302.49 264.47 299.21 264.62"/>
      <polygon class="st8" points="291.61 269.89 283.31 271.86 286.58 271.72 294.88 269.75 291.61 269.89"/>
      <polygon class="st8" points="313.12 233.48 310.35 245.76 313.62 245.62 316.39 233.33 313.12 233.48"/>
      <polygon class="st8" points="310.35 245.76 305.6 256.39 308.88 256.24 313.62 245.62 310.35 245.76"/>
      <polygon class="st8" points="299.21 264.62 302.49 264.47 308.88 256.24 305.6 256.39 299.21 264.62"/>
      <polygon class="st8" points="312.13 207.3 313.72 220.36 317 220.21 315.4 207.16 312.13 207.3"/>
      <polygon class="st8" points="313.12 233.48 316.39 233.33 317 220.21 313.72 220.36 313.12 233.48"/>
      <polygon class="st8" points="312.13 207.3 315.4 207.16 311.71 195.06 308.44 195.2 312.13 207.3"/>
    </g>
    <g>
      <polygon class="st9" points="544.54 171.51 511.43 172.96 511.43 265.98 544.54 264.54 544.54 171.51"/>
      <polygon class="st9" points="472.96 267.67 504.5 266.42 504.5 173.4 472.96 174.64 472.96 267.67"/>
      <polygon class="st9" points="544.24 305.63 511.13 307.07 511.13 400.1 544.24 398.65 544.24 305.63"/>
      <polygon class="st9" points="472.65 401.78 504.19 400.54 504.19 307.51 472.65 308.76 472.65 401.78"/>
      <polygon class="st9" points="306.56 349.83 305.92 344.59 302.96 334.89 298.52 326.61 292.91 320.32 286.51 316.45 279.75 315.27 273.09 316.84 266.99 321.08 261.86 327.68 258.06 336.19 255.84 346.05 306.56 349.83"/>
      <polygon class="st9" points="256.63 367.04 259.59 376.74 264.03 385.02 269.64 391.31 276.05 395.18 282.81 396.36 289.46 394.79 295.56 390.55 300.69 383.95 304.49 375.44 306.71 365.58 306.95 360.32 255.35 356.57 256.63 367.04"/>
      <polygon class="st9" points="306.68 215.31 306.04 210.07 303.08 200.37 298.64 192.09 293.03 185.8 286.63 181.94 279.87 180.75 273.21 182.33 267.11 186.56 261.99 193.16 258.18 201.68 255.96 211.53 306.68 215.31"/>
      <polygon class="st9" points="256.75 232.52 259.71 242.22 264.15 250.5 269.76 256.79 276.17 260.66 282.93 261.84 289.58 260.27 295.68 256.03 300.81 249.44 304.61 240.92 306.83 231.06 307.08 225.8 255.48 222.05 256.75 232.52"/>
    </g>
  </g>
  <g>
    <polygon class="st8" points="527.99 483.29 527.99 437.28 492.59 438.83 492.59 568.25 505.28 567.7 505.28 484.29 527.99 483.29"/>
    <g>
      <polygon class="st7" points="530.86 505.66 530.75 499.57 523.92 499.86 524.03 505.96 530.86 505.66"/>
      <path class="st8" d="M527.99,437.28v46.01l-22.72.99v83.41l-12.69.56v-129.43l35.41-1.55ZM521.77,505.81l-.11-6.09,6.83-.3,2.26.14.11,6.09-6.83.3-2.26-.14ZM486.64,580.17l46.19-2.02v-149.45l-46.19,2.02v149.45Z"/>
      <path class="st7" d="M532.82,578.15l-46.19,2.02v-149.45l46.19-2.02v149.45ZM479.94,589.17l59.59-2.61v-166.87l-59.59,2.61v166.87Z"/>
    </g>
    <g>
      <polygon class="st8" points="521.66 499.72 521.77 505.81 524.03 505.96 523.92 499.86 521.66 499.72"/>
      <polygon class="st8" points="528.49 499.42 521.66 499.72 523.92 499.86 530.75 499.57 528.49 499.42"/>
      <polygon class="st8" points="476.74 588.97 479.94 589.17 479.94 422.31 476.74 422.1 476.74 588.97"/>
      <polygon class="st8" points="476.74 422.1 479.94 422.31 539.52 419.7 536.33 419.5 476.74 422.1"/>
    </g>
  </g>
</svg>