<?xml version="1.0" encoding="UTF-8"?>
<svg id="Layer_1" data-name="Layer 1" xmlns="http://www.w3.org/2000/svg" version="1.1" viewBox="0 0 841.89 595.28">
  <defs>
    <style>
      .st0{fill:#8F6645;}
      .st1{fill:#EEEEEE;}
      .st2{fill:#DDDDDD;}
      .st3{fill:#3D3A37;}
      .st4{fill:#C4C4C4;}
      .st5{fill:#3D3A37;}
      .st6{fill:#000000;}
      .st7{fill:#FFFFFF;}
      .st8{fill:#888888;}
      .st9{fill:#7884AF;}
    </style>
  </defs>
  <g id="chimney">
    <polygon class="st5" points="387.01 97.45 423.27 99.43 423.27 13.91 387.01 11.92 387.01 97.45"/>
    <polygon class="st6" points="423.27 99.43 448.34 97.09 448.34 11.57 423.27 13.91 423.27 99.43"/>
    <polygon class="st6" points="423.27 13.91 448.34 11.57 412.09 9.58 387.01 11.92 423.27 13.91"/>
  </g>
  <g>
    <polygon class="st0" points="653.29 567.13 653.29 138.52 467.3 155.87 467.3 379.11 467.3 415.49 467.3 584.49 653.29 567.13"/>
    <polygon class="st4" points="467.3 379.11 467.3 155.87 466.17 155.98 244.3 143.82 244.3 366.89 257.17 367.6 257.17 377.88 271.29 378.66 279.43 377.9 293.59 378.67 293.59 379.88 383.17 384.79 391.31 384.03 406 384.83 442.15 381.46 442.15 379.28 452.62 378.31 467.3 379.11"/>
    <polygon class="st4" points="256.63 430.85 256.63 572.94 383.17 579.88 383.17 437.79 256.63 430.85"/>
    <polygon class="st4" points="404.91 581.07 444.32 583.23 444.32 434.26 404.91 437.93 404.91 581.07"/>
  </g>
  <g>
    <g>
      <polygon class="st1" points="466.17 144.8 466.17 155.98 467.3 155.87 653.29 138.52 680.49 135.98 680.49 124.81 466.17 144.8"/>
      <polygon class="st3" points="463.38 143.3 659.45 125.01 659.45 123.65 659.45 115.44 466.17 133.48 463.38 133.32 463.38 143.3"/>
      <polygon class="st1" points="680.49 101.8 466.17 121.8 466.17 133.48 659.45 115.44 680.49 113.48 680.49 101.8"/>
    </g>
    <g>
      <polygon class="st1" points="211.83 130.87 211.83 142.04 244.3 143.82 466.17 155.98 466.17 144.8 211.83 130.87"/>
      <polygon class="st3" points="463.38 143.3 463.38 133.32 232.87 120.69 232.87 128.9 232.87 130.67 463.38 143.3"/>
      <polygon class="st1" points="466.17 133.48 466.17 121.8 211.83 107.86 211.83 119.54 232.87 120.69 463.38 133.32 466.17 133.48"/>
    </g>
    <g>
      <polygon class="st3" points="426.16 87.87 211.83 107.86 466.17 121.8 680.49 101.8 426.16 87.87"/>
      <polygon class="st3" points="466.17 144.8 680.49 124.81 659.45 123.65 659.45 125.01 463.38 143.3 232.87 130.67 232.87 128.9 211.83 130.87 466.17 144.8"/>
      <g>
        <polygon class="st8" points="183 372.61 174.86 373.37 187.73 374.08 195.87 373.32 183 372.61"/>
        <polygon class="st8" points="271.29 378.66 285.45 379.43 293.59 378.67 279.43 377.9 271.29 378.66"/>
        <polygon class="st8" points="383.17 384.79 397.86 385.59 406 384.83 391.31 384.03 383.17 384.79"/>
        <polygon class="st8" points="244.3 366.89 233.83 367.87 246.7 368.58 257.17 367.6 244.3 366.89"/>
        <polygon class="st8" points="456.83 380.09 467.3 379.11 452.62 378.31 442.15 379.28 456.83 380.09"/>
      </g>
    </g>
  </g>
  <g>
    <g>
      <polygon class="st8" points="566.03 501.59 571.02 501.13 573.76 501.28 573.76 515.1 568.77 515.56 566.03 515.41 566.03 566.42 590.46 564.14 590.46 442.7 566.03 444.98 566.03 501.59"/>
      <polygon class="st8" points="568.77 501.74 568.77 515.56 573.76 515.1 573.76 501.28 568.77 501.74"/>
      <polygon class="st8" points="553.31 502.78 558.66 502.28 558.66 445.67 534.27 447.95 534.27 569.38 558.66 567.11 558.66 516.51 556.05 516.75 553.31 516.6 553.31 502.78"/>
      <polygon class="st8" points="561.4 502.43 556.05 502.93 556.05 516.75 558.66 516.51 561.4 516.25 561.4 502.43"/>
      <path class="st7" d="M558.66,516.51v50.6l-24.39,2.28v-121.43l24.39-2.28v56.61l2.74.15v13.82l-2.74.26ZM566.03,501.59v-56.61l24.43-2.28v121.43l-24.43,2.28v-64.83ZM528.59,579.23l67.56-6.3v-140.07l-67.56,6.3v140.07Z"/>
      <polygon class="st7" points="383.15 290.97 383.15 411.31 386.07 411.04 386.07 290.7 383.15 290.97"/>
      <polygon class="st7" points="372.23 354.19 372.23 342 368.58 342.34 368.58 354.54 372.23 354.19"/>
    </g>
    <g>
      <polygon class="st8" points="571.02 501.13 566.03 501.59 568.77 501.74 573.76 501.28 571.02 501.13"/>
      <polygon class="st8" points="566.03 501.59 566.03 515.41 568.77 515.56 568.77 501.74 566.03 501.59"/>
      <polygon class="st8" points="558.66 502.28 553.31 502.78 556.05 502.93 561.4 502.43 558.66 502.28"/>
      <polygon class="st8" points="553.31 502.78 553.31 516.6 556.05 516.75 556.05 502.93 553.31 502.78"/>
      <polygon class="st8" points="593.05 432.69 525.49 438.99 528.59 439.16 596.14 432.86 593.05 432.69"/>
      <polygon class="st8" points="525.49 438.99 525.49 579.06 528.59 579.23 528.59 439.16 525.49 438.99"/>
      <path class="st7" d="M328.95,294.82l48.78,2.67v106.71l-48.78-2.67v-106.71ZM323.53,408.04l59.62,3.27v-120.34l-59.62-3.27v120.34Z"/>
      <polygon class="st8" points="323.53 287.71 383.15 290.97 386.07 290.7 326.45 287.43 323.53 287.71"/>
      <path class="st8" d="M372.23,342v12.19l-3.65.34-6-.33v-12.19l3.65-.34,6,.33ZM377.73,297.49l-48.78-2.67v106.71l48.78,2.67v-106.71Z"/>
      <polygon class="st7" points="372.23 342 366.23 341.67 362.58 342.02 368.58 342.34 372.23 342"/>
      <polygon class="st7" points="368.58 342.34 362.58 342.02 362.58 354.21 368.58 354.54 368.58 342.34"/>
    </g>
  </g>
  <g id="right-window">
    <path class="st7" d="M424.63,541.15l-50.11-2.75v-74.51l50.11,2.75v74.51ZM426.82,457.29l-54.48-2.99v93.46l54.48,2.99v-93.46Z"/>
    <path class="st7" d="M447.46,389.91l-50.11-2.75v-74.51l50.11,2.75v74.51ZM449.65,306.05l-54.48-2.98v93.46l54.48,2.99v-93.46Z"/>
    <polygon class="st7" points="429.74 457.02 426.82 457.29 426.82 550.75 429.74 550.48 429.74 457.02"/>
    <polygon class="st7" points="452.57 305.77 449.65 306.05 449.65 399.51 452.57 399.24 452.57 305.77"/>
    <polygon class="st7" points="449.65 306.05 452.57 305.77 398.09 302.79 395.17 303.06 449.65 306.05"/>
    <polygon class="st7" points="426.82 457.29 429.74 457.02 375.26 454.03 372.34 454.3 426.82 457.29"/>
    <polygon class="st9" points="374.53 538.41 424.63 541.15 424.63 466.65 374.53 463.9 374.53 538.41"/>
    <polygon class="st9" points="397.36 387.17 447.46 389.91 447.46 315.4 397.36 312.66 397.36 387.17"/>
  </g>
  <g>
    <g>
      <g>
        <path class="st7" d="M309.84,382.37l-50.11-2.75v-74.51l50.11,2.75v74.51ZM312.02,298.51l-54.48-2.99v93.46l54.48,2.98v-93.46Z"/>
        <path class="st7" d="M437.86,263.69l-172.78-9.47v-74.51l172.78,9.47v74.51ZM445.4,180.12l-187.86-10.29v93.46l187.86,10.29v-93.46Z"/>
        <polygon class="st7" points="488.69 308.1 488.69 398.62 491.78 398.79 491.78 308.27 488.69 308.1"/>
        <path class="st7" d="M329.05,535.92l-50.1-2.75v-74.51l50.1,2.75v74.51ZM331.24,452.05l-54.48-2.99v93.46l54.48,2.99v-93.46Z"/>
        <polygon class="st7" points="575.63 299.99 575.63 390.51 578.72 390.68 578.72 300.16 575.63 299.99"/>
        <polygon class="st8" points="488.31 182.44 488.31 272.96 491.41 273.13 491.41 182.61 488.31 182.44"/>
        <polygon class="st7" points="575.25 174.33 575.25 264.85 578.35 265.02 578.35 174.5 575.25 174.33"/>
      </g>
      <g>
        <polygon class="st7" points="314.94 298.23 312.02 298.51 312.02 391.97 314.94 391.69 314.94 298.23"/>
        <polygon class="st7" points="312.02 298.51 314.94 298.23 260.47 295.25 257.54 295.52 312.02 298.51"/>
        <polygon class="st7" points="448.32 179.84 445.4 180.12 445.4 273.58 448.32 273.31 448.32 179.84"/>
        <polygon class="st7" points="445.4 180.12 448.32 179.84 260.47 169.55 257.54 169.82 445.4 180.12"/>
        <polygon class="st7" points="543.89 302.95 488.69 308.1 491.78 308.27 546.98 303.12 543.89 302.95"/>
        <path class="st7" d="M542.46,344.56l-20.56,1.92v-33.6l20.56-1.92v33.6ZM517.7,388.96l-21.4,2v-36.97l21.4-2v36.97ZM517.7,346.87l-21.4,2v-33.6l21.4-2v33.6ZM521.9,388.57v-36.97l20.56-1.92v36.97l-20.56,1.92ZM546.98,393.64v-90.52l-55.2,5.15v90.52l55.2-5.15Z"/>
        <polygon class="st7" points="334.16 451.78 331.24 452.05 331.24 545.51 334.16 545.24 334.16 451.78"/>
        <polygon class="st7" points="331.24 452.05 334.16 451.78 279.68 448.79 276.76 449.07 331.24 452.05"/>
        <polygon class="st7" points="630.83 294.84 575.63 299.99 578.72 300.16 633.92 295.01 630.83 294.84"/>
        <path class="st7" d="M629.4,336.44l-20.56,1.92v-33.6l20.56-1.92v33.6ZM604.64,380.85l-21.4,2v-36.97l21.4-2v36.97ZM604.64,338.76l-21.4,2v-33.6l21.4-2v33.6ZM608.84,380.46v-36.97l20.56-1.92v36.97l-20.56,1.92ZM633.92,385.53v-90.52l-55.2,5.15v90.52l55.2-5.15Z"/>
        <polygon class="st7" points="543.52 177.29 488.31 182.44 491.41 182.61 546.61 177.46 543.52 177.29"/>
        <path class="st7" d="M542.09,218.89l-20.56,1.92v-33.6l20.56-1.92v33.6ZM517.33,263.3l-21.39,2v-36.97l21.39-2v36.97ZM517.33,221.2l-21.39,2v-33.6l21.39-2v33.6ZM521.53,262.91v-36.97l20.56-1.92v36.97l-20.56,1.92ZM546.61,267.98v-90.52l-55.2,5.15v90.52l55.2-5.15Z"/>
        <polygon class="st7" points="630.46 169.18 575.25 174.33 578.35 174.5 633.55 169.35 630.46 169.18"/>
        <path class="st7" d="M629.03,210.78l-20.56,1.92v-33.6l20.56-1.92v33.6ZM604.27,255.19l-21.4,2v-36.97l21.4-2v36.97ZM604.27,213.09l-21.4,2v-33.6l21.4-2v33.6ZM608.47,254.8v-36.97l20.56-1.92v36.97l-20.56,1.92ZM633.55,259.87v-90.52l-55.2,5.15v90.52l55.2-5.15Z"/>
      </g>
    </g>
    <g>
      <polygon class="st9" points="259.73 379.62 309.84 382.37 309.84 307.86 259.73 305.12 259.73 379.62"/>
      <polygon class="st9" points="265.09 254.22 437.86 263.69 437.86 189.18 265.09 179.71 265.09 254.22"/>
      <polygon class="st9" points="521.9 351.6 521.9 388.57 542.46 386.65 542.46 349.69 521.9 351.6"/>
      <polygon class="st9" points="496.3 348.86 517.7 346.87 517.7 313.27 496.3 315.26 496.3 348.86"/>
      <polygon class="st9" points="496.3 390.96 517.7 388.96 517.7 352 496.3 353.99 496.3 390.96"/>
      <polygon class="st9" points="521.9 346.47 542.46 344.56 542.46 310.96 521.9 312.87 521.9 346.47"/>
      <polygon class="st9" points="278.95 533.17 329.05 535.92 329.05 461.41 278.95 458.66 278.95 533.17"/>
      <polygon class="st9" points="608.84 343.49 608.84 380.46 629.4 378.54 629.4 341.57 608.84 343.49"/>
      <polygon class="st9" points="583.24 340.75 604.64 338.76 604.64 305.16 583.24 307.15 583.24 340.75"/>
      <polygon class="st9" points="583.24 382.85 604.64 380.85 604.64 343.89 583.24 345.88 583.24 382.85"/>
      <polygon class="st9" points="608.84 338.36 629.4 336.44 629.4 302.84 608.84 304.76 608.84 338.36"/>
      <polygon class="st9" points="521.53 225.94 521.53 262.91 542.09 260.99 542.09 224.02 521.53 225.94"/>
      <polygon class="st9" points="495.93 223.2 517.33 221.2 517.33 187.6 495.93 189.6 495.93 223.2"/>
      <polygon class="st9" points="495.93 265.3 517.33 263.3 517.33 226.34 495.93 228.33 495.93 265.3"/>
      <polygon class="st9" points="521.53 220.81 542.09 218.89 542.09 185.29 521.53 187.21 521.53 220.81"/>
      <polygon class="st9" points="608.47 217.83 608.47 254.8 629.03 252.88 629.03 215.91 608.47 217.83"/>
      <polygon class="st9" points="582.87 215.09 604.27 213.09 604.27 179.49 582.87 181.49 582.87 215.09"/>
      <polygon class="st9" points="582.87 257.19 604.27 255.19 604.27 218.22 582.87 220.22 582.87 257.19"/>
      <polygon class="st9" points="608.47 212.7 629.03 210.78 629.03 177.18 608.47 179.1 608.47 212.7"/>
    </g>
  </g>
  <g>
    <g>
      <polygon class="st0" points="174.86 409.75 174.86 578.75 187.19 579.42 187.19 427.05 194.25 427.44 236 429.72 248.34 430.4 256.63 430.85 383.17 437.79 383.17 579.88 383.17 590.16 397.86 590.97 397.86 421.97 383.17 421.16 285.45 415.81 271.29 415.03 187.73 410.45 174.86 409.75"/>
      <polygon class="st0" points="174.86 373.37 174.86 409.75 187.73 410.45 187.73 374.08 174.86 373.37"/>
      <polygon class="st0" points="236 573.04 248.34 573.72 248.34 430.4 236 429.72 236 573.04"/>
      <polygon class="st0" points="271.29 415.03 285.45 415.81 285.45 379.43 271.29 378.66 271.29 415.03"/>
      <polygon class="st0" points="285.45 379.43 285.45 415.81 383.17 421.16 383.17 384.79 293.59 379.88 285.45 379.43"/>
      <polygon class="st0" points="383.17 384.79 383.17 421.16 397.86 421.97 397.86 385.59 383.17 384.79"/>
      <polygon class="st0" points="271.29 415.03 271.29 378.66 257.17 377.88 246.7 377.31 233.83 376.6 195.87 374.52 187.73 374.08 187.73 410.45 271.29 415.03"/>
      <polygon class="st0" points="233.83 367.87 233.83 376.6 246.7 377.31 246.7 368.58 233.83 367.87"/>
      <polygon class="st0" points="444.32 584.46 459.01 585.26 459.01 432.89 444.32 434.26 444.32 583.23 444.32 584.46"/>
      <polygon class="st0" points="456.83 380.09 442.15 379.28 442.15 381.46 456.83 380.09"/>
    </g>
    <g>
      <polygon class="st4" points="233.83 367.87 183 372.61 195.87 373.32 195.87 374.52 233.83 376.6 233.83 367.87"/>
      <polygon class="st4" points="397.86 421.97 397.86 590.97 404.91 590.31 404.91 581.07 404.91 437.93 444.32 434.26 459.01 432.89 459.01 585.26 467.3 584.49 467.3 415.49 456.83 416.47 406 421.21 397.86 421.97"/>
      <polygon class="st4" points="467.3 415.49 467.3 379.11 456.83 380.09 456.83 416.47 467.3 415.49"/>
      <polygon class="st4" points="248.34 430.4 248.34 573.72 256.63 572.94 256.63 430.85 248.34 430.4"/>
      <polygon class="st4" points="397.86 385.59 397.86 421.97 406 421.21 406 384.83 397.86 385.59"/>
      <polygon class="st4" points="194.25 578.76 194.25 427.44 187.19 427.05 187.19 579.42 194.25 578.76"/>
      <polygon class="st4" points="195.87 373.32 187.73 374.08 195.87 374.52 195.87 373.32"/>
      <polygon class="st4" points="456.83 416.47 456.83 380.09 442.15 381.46 406 384.83 406 421.21 456.83 416.47"/>
      <polygon class="st4" points="257.17 377.88 257.17 367.6 246.7 368.58 246.7 377.31 257.17 377.88"/>
      <polygon class="st4" points="293.59 378.67 285.45 379.43 293.59 379.88 293.59 378.67"/>
    </g>
  </g>
</svg>