<?xml version="1.0" encoding="UTF-8"?>
<svg id="Layer_1" data-name="Layer 1" xmlns="http://www.w3.org/2000/svg" version="1.1" viewBox="0 0 841.89 595.28">
  <defs>
    <style>
      .st0{fill:#8F6645;}
      .st1{fill:#EEEEEE;}
      .st2{fill:#DDDDDD;}
      .st3{fill:#3D3A37;}
      .st4{fill:#C4C4C4;}
      .st5{fill:#3D3A37;}
      .st6{fill:#000000;}
      .st7{fill:#FFFFFF;}
      .st8{fill:#888888;}
      .st9{fill:#7884AF;}
    </style>
  </defs>
  <g id="chimney">
    <polygon class="st6" points="542.79 96.91 576.06 95.05 576.06 6.95 542.79 8.81 542.79 96.91"/>
    <polygon class="st5" points="512.83 95.23 542.79 96.91 542.79 8.81 512.83 7.13 512.83 95.23"/>
    <polygon class="st6" points="512.83 7.13 542.79 8.81 576.06 6.95 546.1 5.27 512.83 7.13"/>
  </g>
  <g>
    <polygon class="st4" points="443.93 587.14 648.58 575.7 648.58 133.45 444.04 144.89 443.93 144.88 443.93 587.14"/>
    <polygon class="st0" points="443.93 587.14 443.93 144.88 221.67 132.4 221.67 353.81 221.67 361.71 221.67 363.11 221.67 400.58 221.67 574.66 443.93 587.14"/>
  </g>
  <g>
    <polygon class="st1" points="187.93 118.99 187.93 130.51 221.67 132.4 443.93 144.88 444.04 144.89 444.04 133.37 187.93 118.99"/>
    <polygon class="st1" points="677.45 131.84 677.45 120.32 444.04 133.37 444.04 144.89 648.58 133.45 677.45 131.84"/>
    <polygon class="st3" points="209.77 118.99 444.07 132.15 444.07 121.71 444.04 121.71 209.77 108.55 209.77 117.77 209.77 118.99"/>
    <polygon class="st3" points="444.07 121.71 444.07 132.15 655.61 120.32 655.61 119.1 655.61 109.88 444.07 121.71"/>
    <polygon class="st1" points="444.04 109.68 187.93 95.3 187.93 107.32 209.77 108.55 444.04 121.71 444.04 109.68"/>
    <polygon class="st1" points="444.04 109.68 444.04 121.71 444.07 121.71 655.61 109.88 677.45 108.65 677.45 96.63 444.04 109.68"/>
  </g>
  <g>
    <polygon class="st3" points="187.93 118.99 444.04 133.37 677.45 120.32 655.61 119.1 655.61 120.32 444.07 132.15 209.77 118.99 209.77 117.77 187.93 118.99"/>
    <polygon class="st3" points="677.45 96.63 421.33 82.24 187.93 95.3 444.04 109.68 677.45 96.63"/>
    <polygon class="st3" points="152.16 357.7 138.69 358.45 148.41 359 161.89 358.24 152.16 357.7"/>
    <polygon class="st3" points="209.16 362.41 221.67 363.11 221.67 361.71 209.16 362.41"/>
  </g>
  <polygon class="st0" points="221.67 353.81 152.16 357.7 161.89 358.24 161.89 359.75 209.16 362.41 221.67 361.71 221.67 353.81"/>
  <g>
    <polygon class="st4" points="138.69 395.92 138.69 570 147.12 570.47 147.12 413.52 160.59 414.28 211.76 417.15 211.76 574.1 221.67 574.66 221.67 400.58 209.16 399.88 148.41 396.47 138.69 395.92"/>
    <polygon class="st4" points="221.67 400.58 221.67 363.11 209.16 362.41 209.16 399.88 221.67 400.58"/>
    <polygon class="st4" points="138.69 358.45 138.69 395.92 148.41 396.47 148.41 359 138.69 358.45"/>
    <polygon class="st4" points="209.16 399.88 209.16 362.41 161.89 359.75 148.41 359 148.41 396.47 209.16 399.88"/>
    <g>
      <polygon class="st0" points="147.12 413.52 147.12 570.47 160.59 569.72 160.59 414.28 147.12 413.52"/>
      <polygon class="st0" points="161.89 359.75 161.89 358.24 148.41 359 161.89 359.75"/>
    </g>
  </g>
  <g>
    <g>
      <polygon class="st7" points="339.07 505.2 333.11 504.87 330.59 505.01 336.56 505.34 339.07 505.2"/>
      <polygon class="st7" points="324.3 504.37 317.91 504.01 315.4 504.15 321.79 504.51 324.3 504.37"/>
      <polygon class="st7" points="371.93 438.82 291.21 434.29 288.36 434.45 369.09 438.98 371.93 438.82"/>
    </g>
    <g>
      <polygon class="st8" points="333.11 504.87 339.07 505.2 339.07 519.44 336.56 519.58 333.11 519.39 333.11 571.64 362.3 573.28 362.3 448.19 333.11 446.56 333.11 504.87"/>
      <polygon class="st8" points="339.07 519.44 339.07 505.2 336.56 505.34 336.56 519.58 339.07 519.44"/>
      <polygon class="st8" points="330.59 505.01 330.59 519.25 333.11 519.39 336.56 519.58 336.56 505.34 330.59 505.01"/>
      <polygon class="st8" points="317.91 504.01 324.3 504.37 324.3 446.06 295.15 444.42 295.15 569.51 324.3 571.15 324.3 518.61 321.79 518.75 315.4 518.39 315.4 504.15 317.91 504.01"/>
      <polygon class="st8" points="324.3 518.61 324.3 504.37 321.79 504.51 321.79 518.75 324.3 518.61"/>
      <polygon class="st8" points="321.79 504.51 315.4 504.15 315.4 518.39 321.79 518.75 321.79 504.51"/>
      <polygon class="st8" points="371.93 583.1 371.93 438.82 369.09 438.98 369.09 583.26 371.93 583.1"/>
      <path class="st7" d="M324.3,518.61v52.54l-29.15-1.64v-125.09l29.15,1.64v72.55ZM333.11,504.87v-58.31l29.2,1.64v125.09l-29.2-1.64v-52.26l-2.51-.14v-14.24l2.51-.14ZM288.36,578.72l80.73,4.53v-144.28l-80.73-4.53v144.28Z"/>
    </g>
  </g>
  <g id="left-window">
    <path class="st7" d="M524.15,514.08l-3.2-9.13-1.38-10.09,55.86-2.64-.26,5.18-2.4,9.91-4.12,8.8-5.55,7.08-6.6,4.89-7.21,2.36-7.32-.33-6.93-3-6.08-5.47-4.8-7.56ZM574.3,476.96l.69,5.04-54.91,2.5,2.4-9.91,4.12-8.8,5.55-7.08,6.6-4.89,7.21-2.36,7.32.33,6.93,3,6.08,5.47,4.8,7.56,3.2,9.13ZM512.63,495.82l1.73,12.58,3.99,11.39,5.99,9.42,7.58,6.82,8.65,3.74,9.13.42,8.99-2.94,8.23-6.09,6.92-8.84,5.13-10.97,3-12.36.66-12.91-1.73-12.58-3.99-11.39-5.99-9.42-7.58-6.82-8.65-3.74-9.13-.42-8.99,2.94-8.23,6.09-6.92,8.83-5.13,10.97-3,12.36-.66,12.91Z"/>
    <polygon class="st8" points="525.39 450.57 518.47 459.41 521.42 459.57 528.34 450.74 525.39 450.57"/>
    <polygon class="st8" points="518.47 459.41 513.34 470.38 516.28 470.55 521.42 459.57 518.47 459.41"/>
    <polygon class="st8" points="513.34 470.38 510.34 482.75 513.29 482.91 516.28 470.55 513.34 470.38"/>
    <polygon class="st8" points="509.68 495.66 511.41 508.24 514.36 508.4 512.63 495.82 509.68 495.66"/>
    <polygon class="st8" points="551.74 441.96 542.61 441.54 545.56 441.71 554.69 442.12 551.74 441.96"/>
    <polygon class="st8" points="542.61 441.54 533.63 444.48 536.57 444.64 545.56 441.71 542.61 441.54"/>
    <polygon class="st8" points="533.63 444.48 525.39 450.57 528.34 450.74 536.57 444.64 533.63 444.48"/>
    <polygon class="st8" points="511.41 508.24 515.41 519.63 518.35 519.79 514.36 508.4 511.41 508.24"/>
    <polygon class="st8" points="515.41 519.63 521.39 529.05 524.34 529.22 518.35 519.79 515.41 519.63"/>
    <polygon class="st8" points="521.39 529.05 528.97 535.87 531.92 536.03 524.34 529.22 521.39 529.05"/>
    <polygon class="st8" points="510.34 482.75 509.68 495.66 512.63 495.82 513.29 482.91 510.34 482.75"/>
    <polygon class="st9" points="574.99 482 574.3 476.96 571.1 467.82 566.3 460.27 560.22 454.8 553.29 451.8 545.97 451.46 538.76 453.82 532.16 458.7 526.61 465.79 522.49 474.59 520.09 484.5 574.99 482"/>
    <polygon class="st9" points="520.95 504.94 524.15 514.08 528.95 521.64 535.03 527.1 541.96 530.11 549.28 530.44 556.49 528.08 563.09 523.2 568.64 516.11 572.76 507.31 575.16 497.4 575.42 492.22 519.56 494.86 520.95 504.94"/>
  </g>
  <g>
    <g>
      <polygon class="st8" points="540.56 539.78 531.92 536.03 528.97 535.87 537.62 539.61 540.56 539.78"/>
      <polygon class="st8" points="525.11 314.85 518.19 323.69 521.14 323.86 528.06 315.02 525.11 314.85"/>
      <polygon class="st8" points="518.19 323.69 513.06 334.66 516.01 334.83 521.14 323.86 518.19 323.69"/>
      <polygon class="st8" points="513.06 334.66 510.06 347.03 513.01 347.19 516.01 334.83 513.06 334.66"/>
      <polygon class="st8" points="509.41 359.94 511.13 372.52 514.08 372.68 512.35 360.1 509.41 359.94"/>
      <polygon class="st8" points="551.46 306.24 542.33 305.82 545.28 305.99 554.41 306.4 551.46 306.24"/>
      <polygon class="st8" points="542.33 305.82 533.35 308.76 536.29 308.93 545.28 305.99 542.33 305.82"/>
      <polygon class="st8" points="533.35 308.76 525.11 314.85 528.06 315.02 536.29 308.93 533.35 308.76"/>
      <polygon class="st8" points="511.13 372.52 515.13 383.91 518.07 384.07 514.08 372.68 511.13 372.52"/>
      <polygon class="st8" points="515.13 383.91 521.12 393.33 524.06 393.5 518.07 384.07 515.13 383.91"/>
      <polygon class="st8" points="521.12 393.33 528.69 400.15 531.64 400.32 524.06 393.5 521.12 393.33"/>
      <polygon class="st8" points="540.28 404.06 531.64 400.32 528.69 400.15 537.34 403.89 540.28 404.06"/>
      <polygon class="st8" points="525.24 183.21 518.32 192.04 521.27 192.21 528.19 183.38 525.24 183.21"/>
      <polygon class="st8" points="518.32 192.04 513.19 203.02 516.14 203.18 521.27 192.21 518.32 192.04"/>
      <polygon class="st8" points="513.19 203.02 510.19 215.38 513.14 215.55 516.14 203.18 513.19 203.02"/>
      <polygon class="st8" points="509.54 228.29 511.26 240.87 514.21 241.04 512.48 228.46 509.54 228.29"/>
      <polygon class="st8" points="551.59 174.59 542.47 174.18 545.41 174.34 554.54 174.76 551.59 174.59"/>
      <polygon class="st8" points="542.47 174.18 533.48 177.12 536.42 177.28 545.41 174.34 542.47 174.18"/>
      <polygon class="st8" points="533.48 177.12 525.24 183.21 528.19 183.38 536.42 177.28 533.48 177.12"/>
      <polygon class="st8" points="511.26 240.87 515.26 252.26 518.2 252.43 514.21 241.04 511.26 240.87"/>
      <polygon class="st8" points="515.26 252.26 521.25 261.69 524.19 261.85 518.2 252.43 515.26 252.26"/>
      <polygon class="st8" points="521.25 261.69 528.82 268.5 531.77 268.67 524.19 261.85 521.25 261.69"/>
      <polygon class="st8" points="540.41 272.42 531.77 268.67 528.82 268.5 537.47 272.25 540.41 272.42"/>
      <polygon class="st8" points="416.64 173.5 350.67 169.79 347.83 169.95 413.79 173.66 416.64 173.5"/>
      <polygon class="st8" points="417.08 303 351.12 299.29 348.27 299.45 414.24 303.16 417.08 303"/>
      <polygon class="st8" points="313.19 297.16 247.22 293.46 244.38 293.62 310.35 297.32 313.19 297.16"/>
      <polygon class="st8" points="312.74 167.66 246.78 163.96 243.94 164.12 309.9 167.82 312.74 167.66"/>
      <polygon class="st8" points="510.06 347.03 509.41 359.94 512.35 360.1 513.01 347.19 510.06 347.03"/>
      <polygon class="st8" points="510.19 215.38 509.54 228.29 512.48 228.46 513.14 215.55 510.19 215.38"/>
    </g>
    <g>
      <path class="st7" d="M523.87,378.36l-3.2-9.13-1.38-10.09,55.86-2.64-.26,5.18-2.4,9.91-4.12,8.8-5.55,7.08-6.6,4.89-7.21,2.36-7.32-.33-6.93-3-6.08-5.47-4.8-7.56ZM574.02,341.24l.69,5.04-54.91,2.5,2.4-9.91,4.12-8.8,5.55-7.08,6.6-4.89,7.21-2.36,7.32.33,6.93,3,6.08,5.47,4.8,7.56,3.2,9.13ZM512.35,360.1l1.73,12.58,3.99,11.39,5.99,9.42,7.58,6.82,8.65,3.74,9.13.42,8.99-2.94,8.23-6.09,6.92-8.83,5.13-10.97,3-12.36.66-12.91-1.73-12.58-3.99-11.39-5.99-9.43-7.58-6.82-8.65-3.74-9.13-.42-8.99,2.94-8.23,6.09-6.92,8.84-5.13,10.97-3,12.36-.66,12.91Z"/>
      <path class="st7" d="M524,246.72l-3.2-9.13-1.38-10.09,55.86-2.64-.26,5.18-2.4,9.91-4.12,8.8-5.55,7.08-6.6,4.89-7.21,2.36-7.32-.33-6.93-3-6.08-5.47-4.8-7.56ZM574.15,209.59l.69,5.04-54.91,2.5,2.4-9.91,4.12-8.8,5.55-7.08,6.6-4.89,7.21-2.36,7.32.33,6.93,3,6.08,5.47,4.8,7.56,3.2,9.13ZM512.48,228.46l1.73,12.58,3.99,11.39,5.99,9.42,7.58,6.82,8.65,3.74,9.13.42,8.99-2.94,8.23-6.09,6.92-8.83,5.13-10.97,3-12.36.66-12.91-1.73-12.58-3.99-11.39-5.99-9.42-7.58-6.82-8.65-3.74-9.13-.42-8.99,2.94-8.23,6.09-6.92,8.84-5.13,10.97-3,12.36-.66,12.91Z"/>
      <polygon class="st8" points="416.64 266.74 416.64 173.5 413.79 173.66 413.79 266.9 416.64 266.74"/>
      <path class="st7" d="M408.39,215.6l-24.57-1.38v-34.61l24.57,1.38v34.61ZM378.8,257.3l-25.57-1.44v-38.08l25.57,1.44v38.08ZM378.8,213.93l-25.57-1.44v-34.61l25.57,1.44v34.61ZM383.82,257.58v-38.08l24.57,1.38v38.08l-24.57-1.38ZM413.79,266.9v-93.24l-65.96-3.7v93.24l65.96,3.7Z"/>
      <polygon class="st8" points="417.08 396.24 417.08 303 414.24 303.16 414.24 396.4 417.08 396.24"/>
      <path class="st7" d="M408.84,345.1l-24.57-1.38v-34.61l24.57,1.38v34.61ZM379.24,386.8l-25.57-1.44v-38.08l25.57,1.44v38.08ZM379.24,343.44l-25.57-1.44v-34.61l25.57,1.44v34.61ZM384.27,387.08v-38.08l24.57,1.38v38.08l-24.57-1.38ZM414.24,396.4v-93.24l-65.96-3.7v93.24l65.96,3.7Z"/>
      <polygon class="st8" points="313.19 390.4 313.19 297.16 310.35 297.32 310.35 390.56 313.19 390.4"/>
      <path class="st7" d="M304.95,339.26l-24.57-1.38v-34.61l24.57,1.38v34.61ZM275.35,380.96l-25.57-1.44v-38.08l25.57,1.44v38.08ZM275.35,337.6l-25.57-1.44v-34.61l25.57,1.44v34.61ZM280.37,381.25v-38.08l24.57,1.38v38.08l-24.57-1.38ZM310.35,390.56v-93.24l-65.96-3.7v93.24l65.96,3.7Z"/>
      <polygon class="st8" points="312.74 260.9 312.74 167.66 309.9 167.82 309.9 261.06 312.74 260.9"/>
      <path class="st7" d="M304.5,209.76l-24.57-1.38v-34.61l24.57,1.38v34.61ZM274.9,251.46l-25.57-1.44v-38.08l25.57,1.44v38.08ZM274.9,208.1l-25.57-1.44v-34.61l25.57,1.44v34.61ZM279.93,251.75v-38.08l24.57,1.38v38.08l-24.57-1.38ZM309.9,261.06v-93.24l-65.96-3.7v93.24l65.96,3.7Z"/>
    </g>
    <g>
      <polygon class="st9" points="574.72 346.28 574.02 341.24 570.82 332.1 566.02 324.55 559.94 319.08 553.01 316.08 545.69 315.74 538.48 318.1 531.88 322.99 526.33 330.07 522.21 338.87 519.81 348.78 574.72 346.28"/>
      <polygon class="st9" points="520.67 369.23 523.87 378.36 528.67 385.92 534.75 391.38 541.68 394.39 549 394.72 556.21 392.37 562.81 387.48 568.36 380.39 572.48 371.59 574.88 361.68 575.14 356.5 519.28 359.14 520.67 369.23"/>
      <polygon class="st9" points="574.85 214.64 574.15 209.59 570.95 200.46 566.15 192.9 560.07 187.43 553.14 184.43 545.82 184.1 538.61 186.45 532.01 191.34 526.46 198.43 522.35 207.22 519.94 217.14 574.85 214.64"/>
      <polygon class="st9" points="520.8 237.58 524 246.72 528.8 254.27 534.88 259.74 541.81 262.74 549.13 263.08 556.34 260.72 562.94 255.83 568.49 248.75 572.61 239.95 575.01 230.03 575.28 224.86 519.41 227.49 520.8 237.58"/>
      <polygon class="st9" points="383.82 219.5 383.82 257.58 408.39 258.96 408.39 220.88 383.82 219.5"/>
      <polygon class="st9" points="353.23 212.5 378.8 213.93 378.8 179.32 353.23 177.89 353.23 212.5"/>
      <polygon class="st9" points="353.23 255.86 378.8 257.3 378.8 219.22 353.23 217.78 353.23 255.86"/>
      <polygon class="st9" points="383.82 214.22 408.39 215.6 408.39 180.99 383.82 179.61 383.82 214.22"/>
      <polygon class="st9" points="384.27 349 384.27 387.08 408.84 388.46 408.84 350.38 384.27 349"/>
      <polygon class="st9" points="353.67 342 379.24 343.44 379.24 308.83 353.67 307.39 353.67 342"/>
      <polygon class="st9" points="353.67 385.36 379.24 386.8 379.24 348.72 353.67 347.28 353.67 385.36"/>
      <polygon class="st9" points="384.27 343.72 408.84 345.1 408.84 310.49 384.27 309.11 384.27 343.72"/>
      <polygon class="st9" points="280.37 343.17 280.37 381.25 304.95 382.63 304.95 344.55 280.37 343.17"/>
      <polygon class="st9" points="249.78 336.16 275.35 337.6 275.35 302.99 249.78 301.55 249.78 336.16"/>
      <polygon class="st9" points="249.78 379.53 275.35 380.96 275.35 342.88 249.78 341.45 249.78 379.53"/>
      <polygon class="st9" points="280.37 337.88 304.95 339.26 304.95 304.65 280.37 303.27 280.37 337.88"/>
      <polygon class="st9" points="279.93 213.67 279.93 251.75 304.5 253.12 304.5 215.05 279.93 213.67"/>
      <polygon class="st9" points="249.34 206.66 274.9 208.1 274.9 173.49 249.34 172.05 249.34 206.66"/>
      <polygon class="st9" points="249.34 250.03 274.9 251.46 274.9 213.38 249.34 211.95 249.34 250.03"/>
      <polygon class="st9" points="279.93 208.38 304.5 209.76 304.5 175.15 279.93 173.77 279.93 208.38"/>
    </g>
  </g>
</svg>