<?xml version="1.0" encoding="utf-8"?>
<!-- Generator: Adobe Illustrator 25.0.1, SVG Export Plug-In . SVG Version: 6.00 Build 0)  -->
<svg version="1.1" id="katman_1" xmlns="http://www.w3.org/2000/svg" x="0px" y="0px"
     viewBox="0 0 841.9 595.3" style="enable-background:new 0 0 841.9 595.3;" xml:space="preserve">
<style type="text/css">
	.st0{fill:#8F6645;}
	.st1{fill:#EEEEEE;}
	.st2{fill:#DDDDDD;}
	.st3{fill:#3D3A37;}
	.st4{fill:#C4C4C4;}
	.st5{fill:#3D3A37;}
	.st6{fill:#000000;}
	.st7{fill:#FFFFFF;}
	.st8{fill:#888888;}
	.st9{fill:#7884AF;}
</style>

    <g id="roof">
	<polygon class="st3" points="782,231.3 637.6,87.2 415.7,153.9 415.7,195.7 433.1,189.8 615.1,128.1 638.6,120.2 765.1,239.5
		783.3,258.1 			"/>
        <polygon class="st2" points="615.1,128.1 740.3,241.9 765.1,239.5 638.6,120.2 			"/>
        <polygon class="st2" points="102.6,253.3 181.3,260 181.4,257.1 113.9,251.2 			"/>
        <polygon class="st2" points="113.9,251.2 181.4,257.1 181.6,249.9 141.2,246.2 			"/>
        <polygon class="st3" points="75.4,231.8 74.3,258.4 102.6,253.3 113.9,251.2 141.2,246.2 181.9,238.7 415.7,195.7 415.7,153.9
						"/>
        <polygon class="st3" points="75.4,231.8 415.7,153.9 637.6,87.2 499.4,120.7 473.3,127.1 443.8,134.2 284.8,172.8 			"/>
        <polygon class="st2" points="765.1,239.5 740.3,241.9 741.2,261.6 783.3,258.1 			"/>
</g>


    <g id="chimney">
	<polygon class="st5" points="451.7,52.2 451.8,75.6 472.2,69.4 472,45.6 			"/>
        <polygon class="st6" points="490.7,51.9 472,45.6 472.2,69.4 491,75 			"/>
        <polygon class="st5" points="443.5,78.1 443.8,134.2 473.3,127.1 472.8,69.3 451.8,75.6 			"/>
        <polygon class="st6" points="499.4,120.7 498.8,77.4 491,75 472.8,69.3 473.3,127.1 			"/>
</g>


    <g id="body">
	<g>
		<polygon class="st4" points="434.3,529.6 750.4,477.3 741.2,261.6 740.3,241.9 615.1,128.1 433.1,189.8 			"/>
        <polygon class="st0" points="434.3,529.6 433.1,189.8 415.7,195.7 181.9,238.7 181.6,249.9 181.4,257.1 181.3,260 177.7,386.7
			177.6,390.6 177.6,391.4 176,447 166.3,445.8 92.3,437.1 86.2,436.4 84.9,469.3 			"/>
        <polygon class="st3" points="86.2,436.4 92.3,437.1 94,393.6 108,394.2 167.7,396.9 166.7,432.2 166.3,445.8 176,447
			177.6,391.4 88.1,388.1 			"/>
        <polygon class="st0" points="92.3,437.1 166.3,445.8 166.7,432.2 106.5,435.4 106.4,436.4 			"/>
        <polygon class="st4" points="92.3,437.1 106.4,436.4 106.5,435.4 108,394.2 94,393.6 			"/>
        <polygon class="st4" points="88.1,388.1 177.6,391.4 177.6,390.6 108.2,388.1 177.7,387 			"/>
        <polygon class="st4" points="177.7,387 108.2,388.1 177.6,390.6 			"/>
	</g>
</g>


    <g id="left-window">
	<g>
		<polygon class="st9" points="392.2,266.6 316.6,275.6 316.2,308.3 392.1,302.2 			"/>
        <polygon class="st9" points="315.2,399 392,401.4 392.1,316.6 316.1,321.4 			"/>
        <g>
			<polygon class="st8" points="407.3,413.8 407.1,254.4 400.4,253.6 400.4,414.1 				"/>
            <path class="st7" d="M400.4,414.1l-92.2-4.2l1.7-144.2l90.5-12.1L400.4,414.1z M316.2,308.3l-0.1,13.2l-0.8,77.5l76.8,2.4
			l0.1-84.8l0-14.4l0-35.6l-75.6,9.1L316.2,308.3z"/>
            <polygon class="st7" points="392.1,316.6 392.1,302.2 316.2,308.3 316.1,321.4 				"/>
		</g>
	</g>
        <g>
		<g>
			<path class="st7" d="M242.3,278.4l-1,49.1l-40.5,2.5l1.2-46.5L242.3,278.4z M202.6,326.7l36.8-2.4l0.9-42.2l-36.7,4.5
				L202.6,326.7z"/>
            <polygon class="st8" points="200.8,330 205,330.2 245.6,327.7 241.3,327.5 				"/>
            <polygon class="st8" points="241.3,327.5 245.6,327.7 246.6,278.8 242.3,278.4 				"/>
		</g>
            <polygon class="st9" points="240.3,282.1 203.6,286.6 202.6,326.7 239.4,324.2 			"/>
	</g>
</g>


    <g>
	<g>
		<g>
			<g>
				<path class="st7" d="M468.2,476.4L466,219.8l46.9,7.7l3.6,243.5L468.2,476.4z M475.5,235.1l2.2,225.6l29.6-2.8l-2.9-218.4
					L475.5,235.1z"/>
                <polygon class="st8" points="468.2,476.4 466,219.8 459.3,220.9 461.2,475.7 				"/>
			</g>
            <polygon class="st9" points="507.3,457.9 504.4,239.5 475.5,235.1 477.7,460.7 			"/>
		</g>
        <g>
			<path class="st8" d="M645.6,372.6h-9.9l0.6,18.8l9.9,0.2l4.8-0.1l3.4,107.1l-78,13.2L571.3,279l76.4,8.8l3.1,97L645.6,372.6z
				 M583.4,358l29.7,0.6l-1.7-60.9l-29.6-2.9L583.4,358z"/>
            <g>
				<polygon class="st8" points="609.5,217 599.3,218.5 547.7,257.6 558.1,256.5 				"/>
                <path class="st7" d="M651,391.5l2.7-0.1l-2.9-6.7l-3.1-97l-76.4-8.8l5.1,232.8l-13,2.2l-5.3-257.5l51.4-39.5l47.7,53.3
					l7.5,226.5l-10.4,1.7L651,391.5z M640.3,268l-30.3-33l-32.1,24.3L640.3,268z"/>
                <polygon class="st8" points="547.7,257.6 552.5,512.6 563.3,514 558.1,256.5 				"/>
                <polygon class="st7" points="636.3,391.5 646.1,391.6 645.6,372.6 635.7,372.6 				"/>
                <polygon class="st7" points="645.6,372.6 646.1,391.6 651,391.5 653.7,391.4 650.8,384.7 				"/>
			</g>
            <polygon class="st9" points="611.5,297.7 581.9,294.8 583.4,358 613.1,358.6 			"/>
            <polygon class="st9" points="610,234.9 577.9,259.2 640.3,268 			"/>
		</g>
        <g>
			<g>
				<path class="st7" d="M695.3,451.1L688,256.5l27.4,4.5l7.6,187L695.3,451.1z M693.9,268l6.5,171.5l17.1-1.6l-6.7-167.3L693.9,268
					z"/>
                <polygon class="st8" points="695.3,451.1 688,256.5 681.7,257.1 688.8,450.7 				"/>
			</g>
            <polygon class="st9" points="717.5,437.8 710.8,270.5 693.9,268 700.4,439.5 			"/>
		</g>
	</g>
</g>
</svg>
