<?xml version="1.0" encoding="utf-8"?>
<!-- Generator: Adobe Illustrator 25.0.1, SVG Export Plug-In . SVG Version: 6.00 Build 0)  -->
<svg version="1.1" id="katman_1" xmlns="http://www.w3.org/2000/svg" x="0px" y="0px"
     viewBox="0 0 841.9 595.3" style="enable-background:new 0 0 841.9 595.3;" xml:space="preserve">
<style type="text/css">
	.st0{fill:#8F6645;}
	.st1{fill:#EEEEEE;}
	.st2{fill:#DDDDDD;}
	.st3{fill:#3D3A37;}
	.st4{fill:#C4C4C4;}
	.st5{fill:#3D3A37;}
	.st6{fill:#000000;}
	.st7{fill:#FFFFFF;}
	.st8{fill:#888888;}
	.st9{fill:#7884AF;}
</style>

    <g id="body">
	<polygon class="st0" points="820.2,479.9 812.8,480.8 723.7,490.4 712.1,491.7 710.6,429.1 710.5,428.2 710.4,423.7 706.8,281
		706.8,277.8 706.5,269.7 706.3,259.3 419.7,212.9 409.2,208.5 407.2,582.7 821.5,517.1 			"/>
        <polygon class="st4" points="407.2,582.7 409.2,208.5 377.3,195.2 215.7,137 84.6,262.7 83.8,284.8 74.6,523.5 			"/>
</g>


    <g id="roof">
	<polygon class="st2" points="84.6,262.7 215.7,137 189.7,127.6 56.9,260.2 			"/>
        <polygon class="st2" points="706.8,281 793.5,273.4 779.7,271.1 706.8,277.8 			"/>
        <polygon class="st5" points="706.8,277.8 779.7,271.1 746.7,265.8 706.5,269.7 			"/>
        <polygon class="st3" points="598.7,182 190.7,90.8 419.9,166.5 826.8,248.7 			"/>
        <polygon class="st3" points="826.8,248.7 419.9,166.5 419.7,212.9 706.3,259.3 746.7,265.8 779.7,271.1 793.5,273.4 827.9,278.9
						"/>
        <polygon class="st3" points="419.9,166.5 190.7,90.8 37.2,251.5 35.9,281.1 56.9,260.2 189.7,127.6 215.7,137 377.3,195.2
			409.2,208.5 419.7,212.9 			"/>
        <polygon class="st2" points="35.9,281.1 83.8,284.8 84.6,262.7 56.9,260.2 			"/>
</g>


    <g id="chimney">
	<polygon class="st5" points="443.2,168.1 476.4,174.6 475.9,45.2 467.1,42.3 444.2,35 443.2,34.7 			"/>
        <polygon class="st6" points="411.4,157.5 443.2,168.1 443.2,34.7 421.6,41.7 411.8,45 			"/>
        <polygon class="st6" points="444.2,7 421.7,15 421.6,41.7 443.2,34.7 444.2,35 			"/>
        <polygon class="st5" points="467,14.9 444.2,7 444.2,35 467.1,42.3 			"/>
</g>


    <g id="right-window">
	<polygon class="st9" points="644,454.5 640.8,288.2 610.6,284.3 613.3,456.3 		"/>
        <polygon class="st9" points="646.6,288.9 649.9,454.2 674.2,452.8 670.6,292.1 		"/>
        <g>
		<polygon class="st7" points="644,454.5 649.9,454.2 646.6,288.9 640.8,288.2 			"/>
            <polygon class="st8" points="600.7,274.7 603.5,466.1 607.6,466.3 604.7,274.2 			"/>
            <path class="st7" d="M607.6,466.3l-2.9-192l70.6,9.9l4,177.3L607.6,466.3z M674.2,452.8l-3.6-160.7l-24-3.1l-5.8-0.8l-30.2-3.9
				l2.7,172l30.7-1.8l5.9-0.3L674.2,452.8z"/>
	</g>
</g>


    <g>
	<g>
		<g>
			<polygon class="st0" points="812.8,480.8 797.3,479.9 797.3,478.7 723.3,474.5 723.7,490.4 			"/>
            <g>
				<polygon class="st4" points="818.2,425.3 710.6,429.1 712.1,491.7 723.7,490.4 723.3,474.5 722.3,435.4 795.7,432.2 811,431.6
					812.8,480.8 820.2,479.9 				"/>
                <polygon class="st4" points="710.6,429.1 818.2,425.3 710.4,423.3 795.5,425.3 710.5,428.2 				"/>
                <polygon class="st4" points="812.8,480.8 811,431.6 795.7,432.2 797.3,478.7 797.3,479.9 				"/>
                <polygon class="st4" points="710.5,428.2 795.5,425.3 710.4,423.7 				"/>
			</g>
		</g>
	</g>
        <g>
		<path class="st8" d="M165,540l7-226l76.6-9.1l-5.6,249.3L165,540z M218,405.4l-0.6,21.6l8.6,0.2l11.2-0.2l-8.1-21.6L218,405.4z
			 M178.3,390.7l27.7-0.5l1.8-65.3l-27.5,2.7L178.3,390.7z"/>
            <g>
			<polygon class="st8" points="268,555.2 273.5,281.9 261.8,280.8 256,556.6 			"/>
                <polygon class="st8" points="221.7,239.5 210.3,238.1 261.8,280.8 273.5,281.9 			"/>
                <path class="st7" d="M248.6,304.9l-76.6,9.1l-7,226l-10.4-1.9l7.7-242.9l48-57.2l51.5,42.7L256,556.6l-13-2.4L248.6,304.9z
				 M241,283.8l-31.1-26.5l-31.2,35.6L241,283.8z"/>
                <polygon class="st7" points="237.3,427 229.1,405.3 218,405.4 226,427.2 			"/>
                <polygon class="st7" points="218,405.4 217.4,426.9 226,427.2 			"/>
		</g>
            <polygon class="st9" points="207.8,324.9 180.2,327.6 178.3,390.7 206,390.2 		"/>
            <polygon class="st9" points="209.8,257.3 178.6,292.9 241,283.8 		"/>
            <g>
			<g>
				<polygon class="st8" points="137.5,489.5 144.6,279.8 137.6,279.2 130.3,489.9 				"/>
                <path class="st7" d="M102,486.5l7.6-202.5l28.1-4.8l-7.3,210.7L102,486.5z M114.4,294.3l-6.7,181.2l17.4,1.8l6.5-185.7
					L114.4,294.3z"/>
			</g>
                <polygon class="st9" points="125.1,477.3 131.6,291.6 114.4,294.3 107.7,475.5 			"/>
		</g>
            <g>
			<g>
				<polygon class="st8" points="369.8,517.2 372.4,241 364.8,239.9 361.9,517.9 				"/>
                <path class="st7" d="M312.7,512l4.1-263.8l48-8.3l-2.9,278L312.7,512z M325.5,261.2L322,497.8l30.2,3.1l2.8-244.4L325.5,261.2z"
                />
			</g>
                <polygon class="st9" points="352.2,500.9 355,256.6 325.5,261.2 322,497.8 			"/>
		</g>
            <polygon class="st9" points="517.7,461.8 516.6,272 477.1,266.9 477.4,464.1 		"/>
            <polygon class="st9" points="524.2,273 525.4,461.3 557,459.5 555.2,277 		"/>
            <g>
			<polygon class="st7" points="517.7,461.8 525.4,461.3 524.2,273 516.6,272 			"/>
                <polygon class="st8" points="465.5,255.8 465.6,475.4 469.8,475.6 469.6,255.3 			"/>
                <path class="st7" d="M469.8,475.6l-0.2-220.4l91.8,12.9l2.1,201.1L469.8,475.6z M557,459.5L555.2,277l-31-4l-7.6-1l-39.5-5.1
				l0.3,197.2l40.3-2.3l7.7-0.5L557,459.5z"/>
		</g>
	</g>
</g>
</svg>
