<?xml version="1.0" encoding="utf-8"?>
<!-- Generator: Adobe Illustrator 25.0.1, SVG Export Plug-In . SVG Version: 6.00 Build 0)  -->
<svg version="1.1" id="katman_1" xmlns="http://www.w3.org/2000/svg" x="0px" y="0px"
     viewBox="0 0 841.9 595.3" style="enable-background:new 0 0 841.9 595.3;" xml:space="preserve">
<style type="text/css">
	.st0{fill:#8F6645;}
	.st1{fill:#EEEEEE;}
	.st2{fill:#DDDDDD;}
	.st3{fill:#3D3A37;}
	.st4{fill:#C4C4C4;}
	.st5{fill:#3D3A37;}
	.st6{fill:#000000;}
	.st7{fill:#FFFFFF;}
	.st8{fill:#888888;}
	.st9{fill:#7884AF;}
</style>

    <g id="roof">
	<polygon class="st3" points="201.5,246.2 236.2,218.7 130.8,238.4 		"/>
        <polygon class="st3" points="62,252.4 201.2,265.1 201.5,246.2 130.8,238.4 95,245.2 71.3,242.8 		"/>
        <polygon class="st3" points="789.8,223.5 470.3,130.6 470.7,176.3 544.7,193.6 737,238.6 790.8,251.2 		"/>
        <polygon class="st3" points="62.8,225 62,252.4 71.3,242.8 80.8,233 178.8,138.9 185.2,132.8 210.9,108.2 214.5,104.6
		218.2,105.7 243.6,112.8 245.8,113.4 253.3,115.5 278.8,122.6 336.9,138.9 417.8,161.5 443.5,168.7 467.1,175.3 470.7,176.3
		470.3,130.6 421,118.9 393.1,112.2 364.9,105.5 215.1,69.8 		"/>
        <polygon class="st3" points="443.5,168.7 417.8,161.5 268.3,193.2 255.9,195.8 227,202 253.3,115.5 245.8,113.4 243.5,120.6
		216.7,204.1 218.2,105.7 214.5,104.6 210.9,108.2 210.4,138.4 209.4,205.7 185.2,132.8 178.8,138.9 200.1,207.7 80.8,233
		71.3,242.8 		"/>
        <polygon class="st3" points="210.9,108.2 185.2,132.8 210.3,138.2 		"/>
        <polygon class="st3" points="253.3,115.5 227,202 255.9,195.8 278.8,122.6 		"/>
        <polygon class="st3" points="185.2,132.8 209.4,205.7 210.4,138.4 		"/>
        <polygon class="st3" points="178.8,138.9 80.8,233 200.1,207.7 		"/>
        <polygon class="st3" points="218.2,105.7 216.7,204.1 243.5,120.6 243.6,112.8 		"/>
        <polygon class="st3" points="278.8,122.6 255.9,195.8 268.3,193.2 336.9,138.9 		"/>
        <polygon class="st3" points="243.6,112.8 243.5,120.6 245.8,113.4 		"/>
        <polygon class="st3" points="443.5,168.7 71.3,242.8 95,245.2 130.8,238.4 236.2,218.7 467.1,175.3 		"/>
</g>


    <g id="body">
	<polygon class="st0" points="207.7,384.4 199.3,384.2 29.4,387.5 120.8,391.4 137.1,391 52.2,387.5 		"/>
        <polygon class="st0" points="364.6,552.5 744.4,473.1 737,238.6 544.7,193.6 547.7,394.1 548.7,465.4 534.5,467.4 382.4,488.9
			364.7,491.4 		"/>
        <polygon class="st4" points="547.7,394.1 544.7,193.6 470.7,176.3 467.1,175.3 236.2,218.7 201.5,246.2 201.2,265.1 199.3,384.2
			207.7,384.4 207,433.1 211.7,433.6 212.3,395.4 229.4,394.9 363.6,400.4 529.6,393.6 		"/>
        <polygon class="st4" points="336.9,138.9 268.3,193.2 417.8,161.5 		"/>
        <polygon class="st4" points="36.7,393.9 35.2,444.4 50.6,443.4 50.6,441.9 52,394.8 		"/>
        <polygon class="st4" points="207,433.1 207.7,384.4 52.2,387.5 137.1,391 185,390.3 193.4,390 192.7,434.1 		"/>
        <polygon class="st4" points="516.1,465.6 534.5,467.4 533.6,402.6 515.4,403.6 516.1,462.3 		"/>
        <polygon class="st4" points="185,390.3 184.3,433.2 192.7,434.1 193.4,390 		"/>
        <polygon class="st4" points="547.7,394.1 529.6,393.6 363.6,400.4 229.4,394.9 212.3,395.4 364.8,401.9 		"/>
        <polygon class="st4" points="119.4,456.4 135.8,455.1 136.2,436.3 137.1,391.5 120.8,391.4 		"/>
        <polygon class="st4" points="242.7,436.5 345.9,446.2 346,410.6 243,405 		"/>
        <polygon class="st4" points="382.4,449.7 516.1,462.3 515.4,403.6 382.4,410.7 		"/>
</g>


    <g id="chimney">
	<polygon class="st5" points="392.9,38.1 372.7,45.1 372.7,68.7 392.9,62.2 		"/>
        <polygon class="st6" points="392.9,38.1 392.9,62.2 412.3,68.7 412.2,45.2 		"/>
        <polygon class="st5" points="364.9,71.2 364.9,105.5 393.1,112.2 393,62.1 372.7,68.7 		"/>
        <polygon class="st6" points="393,62.1 393.1,112.2 421,118.9 420.8,71.6 412.3,68.7 		"/>
</g>


    <g id="left-window">
	<g>
		<polygon class="st9" points="723.2,284.8 682,278.7 682.8,307.2 724,311.3 				"/>
        <polygon class="st9" points="685,386 726.3,384.5 724.3,322 683.1,318.7 				"/>
        <g>
			<path class="st7" d="M730.3,393.3l-49.5,2.7l-3.5-127.6l49.3,8.2L730.3,393.3z M682.8,307.2l0.3,11.5L685,386l41.3-1.5l-2-62.5
				l-0.3-10.7l-0.8-26.5l-41.2-6.2L682.8,307.2z"/>
            <polygon class="st8" points="670.3,269 673.6,395.8 680.8,396 677.3,268.4 					"/>
            <polygon class="st7" points="724.3,322 724,311.3 682.8,307.2 683.1,318.7 					"/>
		</g>
	</g>
        <g>
		<g>
			<polygon class="st8" points="577.3,311.8 576.2,256 571.2,256.5 572.1,312 					"/>
            <path class="st7" d="M619.6,262.9l1.2,52.2l-43.5-3.4l-1-55.8L619.6,262.9z M579.3,308.1l39.5,3.3l-1-45.1l-39.4-6.1
				L579.3,308.1z"/>
            <polygon class="st8" points="577.3,311.8 572.1,312 615.8,315.4 620.8,315.2 					"/>
		</g>
            <polygon class="st9" points="617.8,266.3 578.4,260.2 579.3,308.1 618.8,311.4 				"/>
	</g>
</g>


    <g>
	<g>
		<polygon class="st0" points="225,471.5 345.8,488.7 345.9,446.2 242.7,436.5 242.3,469.7 		"/>
        <polygon class="st0" points="50.6,443.4 35.2,444.4 107.3,454.7 107.7,438.2 50.6,441.9 		"/>
        <polygon class="st0" points="207,433.1 192.7,434.1 184.3,433.2 136.2,436.3 135.8,455.1 119.4,456.4 211.2,469.5 211.7,433.6
			"/>
        <polygon class="st0" points="382.4,488.9 534.5,467.4 516.1,465.6 516.1,462.3 382.4,449.7 		"/>
	</g>
        <polygon class="st4" points="225,471.5 242.3,469.7 242.7,436.5 243,405 225.9,404.1 	"/>
        <g>
		<polygon class="st4" points="164.1,526.9 210.5,520 211,482.6 194.9,484.5 194.7,496.9 180.1,498.7 179.9,511.3 164.3,513.4 		"/>
            <polygon class="st0" points="164.3,513.4 179.9,511.3 89.4,492.5 83.1,493.2 74.7,494.1 		"/>
            <polygon class="st4" points="179.9,511.3 180.1,498.7 89.7,481.6 89.4,492.5 		"/>
            <polygon class="st0" points="180.1,498.7 194.7,496.9 103.5,480.2 89.7,481.6 		"/>
            <polygon class="st4" points="194.7,496.9 194.9,484.5 103.8,469.3 103.5,480.2 		"/>
            <polygon class="st4" points="164.1,526.9 164.3,513.4 74.7,494.1 74.4,505.9 		"/>
            <polygon class="st0" points="194.9,484.5 211,482.6 119.1,467.9 103.8,469.3 		"/>
	</g>
        <g>
		<g>
			<g>
				<polygon class="st9" points="480.2,308.3 479.7,258.9 447.5,262.3 447.8,310.1 				"/>
                <g>
					<polygon class="st8" points="492.5,250.4 486.6,249.5 487.9,381.2 493.9,381 					"/>
                    <path class="st7" d="M487.9,381.2l-76.3-1.2L411.2,258l75.4-8.5L487.9,381.2z M447.5,262.3l0.3,47.8l32.3-1.8l-0.5-49.4
						L447.5,262.3z M480.8,372.2l-0.5-56.9l-32.4,1.6l0.4,55.1L480.8,372.2z M442.7,262.8l-25.4,2.6l0.4,106.3l25.6,0.2L442.7,262.8
						z"/>
				</g>
                <polygon class="st9" points="447.9,316.9 448.2,372 480.8,372.2 480.3,315.3 				"/>
                <polygon class="st9" points="417.7,371.8 443.3,371.9 442.7,262.8 417.3,265.4 				"/>
			</g>
            <g>
				<polygon class="st9" points="362.8,365.8 362.9,282.4 328.1,285.6 327.8,365.8 				"/>
                <g>
					<polygon class="st7" points="293.4,444.2 298.8,444.7 299.3,368.3 294,368.3 					"/>
                    <polygon class="st7" points="293.2,363.7 293.2,368.3 294,368.3 299.3,368.3 301.7,368.3 301.8,363.7 299.3,363.7 294,363.7
											"/>
                    <polygon class="st7" points="294.7,271 294,363.7 299.3,363.7 299.9,278.5 368.6,271.4 368.5,451.4 374.9,452 374.9,261.9
											"/>
                    <polygon class="st8" points="374.9,261.9 374.9,452 381.8,451.3 381.7,262.7 					"/>
                    <path class="st8" d="M298.8,444.7l0.5-76.4l2.4,0l0,5.3l2.7,0l3.2,0l0.1-9.9l-6,0h-2.4l0.6-85.2l68.7-7.1l-0.1,179.9
						L298.8,444.7z M328.1,285.6l-0.3,80.2l35,0l0.1-83.4L328.1,285.6z"/>
                    <polygon class="st7" points="307.7,373.6 307.7,363.7 301.8,363.7 301.7,368.3 304.4,368.3 304.4,373.6 					"/>
                    <polygon class="st7" points="304.4,373.6 304.4,368.3 301.7,368.3 301.7,373.6 					"/>
				</g>
			</g>
            <g>
				<polygon class="st9" points="254.1,320.9 254.5,282.4 234.8,284.5 234.4,322 				"/>
                <g>
					<polygon class="st8" points="264.7,275.7 258.8,275.2 257.7,377.5 263.7,377.4 					"/>
                    <path class="st7" d="M257.7,377.5l-46.6-0.7l1.4-96.3l46.3-5.2L257.7,377.5z M234.8,284.5l-0.5,37.5l19.7-1.1l0.4-38.4
						L234.8,284.5z M253.5,370.6l0.5-44.2l-19.7,1l-0.5,43.1L253.5,370.6z M231.9,284.8l-15.7,1.6l-1.2,83.9l15.8,0.1L231.9,284.8z"
                    />
				</g>
                <polygon class="st9" points="234.3,327.3 233.8,370.4 253.5,370.6 254,326.3 				"/>
                <polygon class="st9" points="215,370.3 230.8,370.4 231.9,284.8 216.2,286.4 				"/>
			</g>
		</g>
            <g>
			<polygon class="st4" points="210.5,520 364.6,552.5 364.7,491.4 345.8,488.7 225,471.5 225.9,404.1 243,405 346,410.6
				345.9,446.2 345.8,488.7 364.7,491.4 364.8,401.9 212.3,395.4 211.7,433.6 211.2,469.5 119.4,456.4 120.8,391.4 29.4,387.5
				27.7,443.3 35.2,444.4 36.7,393.9 52,394.8 108.6,397.8 107.7,438.2 107.3,454.7 35.2,444.4 27.7,443.3 26.5,481.3 83.1,493.2
				89.4,492.5 89.7,481.6 103.5,480.2 103.8,469.3 119.1,467.9 211,482.6 			"/>
                <polygon class="st4" points="364.8,401.9 364.7,491.4 382.4,488.9 382.4,449.7 382.4,410.7 515.4,403.6 533.6,402.6 534.5,467.4
				548.7,465.4 547.7,394.1 			"/>
		</g>
	</g>
</g>
</svg>
