<?xml version="1.0" encoding="utf-8"?>
<!-- Generator: Adobe Illustrator 25.0.1, SVG Export Plug-In . SVG Version: 6.00 Build 0)  -->
<svg version="1.1" id="katman_1" xmlns="http://www.w3.org/2000/svg" x="0px" y="0px"
     viewBox="0 0 841.9 595.3" style="enable-background:new 0 0 841.9 595.3;" xml:space="preserve">
<style type="text/css">
	.st0{fill:#8F6645;}
	.st1{fill:#EEEEEE;}
	.st2{fill:#DDDDDD;}
	.st3{fill:#3D3A37;}
	.st4{fill:#C4C4C4;}
	.st5{fill:#3D3A37;}
	.st6{fill:#000000;}
	.st7{fill:#FFFFFF;}
	.st8{fill:#888888;}
	.st9{fill:#7884AF;}
</style>

    <g id="body">
	<polygon class="st0" points="82.3,247 74.8,485.4 482.3,564.5 482,503.7 463.7,501.2 303.5,479.6 288.3,477.6 289.3,405.4
	291.9,207 		"/>
        <polygon class="st4" points="482,503.7 482.3,564.5 641.4,529.5 640.8,492.5 728,477.6 743.4,479 743.7,489.8 757.6,491.2
			757.9,502.1 763.4,502.6 810.7,492.2 809.5,453.7 801.9,454.8 737.5,464.7 737.1,449 736,407.8 784.9,404.6 800.3,403.6
			801.9,454.8 809.5,453.7 807.7,397 726.1,401.4 727.7,466.2 640.6,479.5 640,444.1 639.3,406.1 481.7,414.6 		"/>
        <polygon class="st4" points="631.3,251.6 600.2,226.6 385.1,188.5 380.5,190.1 291.9,207 289.3,405.4 306.7,404.8 481.3,412.8
			621.9,405.5 625.3,405.6 625.1,393.3 633.7,393 631.7,270.9 		"/>
        <polygon class="st4" points="593.6,124.4 593.5,121.1 592.6,121.4 		"/>
        <polygon class="st4" points="737.5,464.7 801.9,454.8 786.3,453.8 786.3,452.2 737.1,449 		"/>
        <polygon class="st4" points="304.3,414.1 303.5,479.6 321.2,477.8 321.2,474.2 321.8,415.1 		"/>
        <polygon class="st4" points="569.7,202.2 503.5,149.3 426.1,173.4 		"/>

</g>


    <g id="roof">
	<polygon class="st3" points="631.7,270.9 775.8,259.3 765.8,249.5 741.6,251.7 702.1,244.7 631.3,251.6 			"/>
        <polygon class="st3" points="631.3,251.6 702.1,244.7 600.2,226.6 			"/>
        <polygon class="st3" points="32.2,228.3 31.2,256.7 82.3,247 291.9,207 380.5,190.1 380.8,144.7 			"/>
        <polygon class="st3" points="765.8,249.5 775.8,259.3 775,231.5 622.7,76.6 380.8,144.7 380.5,190.1 385.1,188.5 403.9,181.6
			426.1,173.4 503.5,149.3 559.6,131.8 585.4,123.7 592.6,121.4 593.5,121.1 619.7,113 623.2,111.9 626.8,115.3 652.1,139.7
			658.4,145.8 755.4,239.5 			"/>
        <polygon class="st3" points="380.8,144.7 622.7,76.6 258.5,167.1 32.2,228.3 			"/>
        <polygon class="st3" points="658.4,145.8 652.1,139.7 628.5,214 627.3,144.4 626.8,115.3 623.2,111.9 619.7,113 621.2,212.6
			593.6,124.4 592.6,121.4 585.4,123.7 611.8,210.7 582.3,204.8 569.7,202.2 426.1,173.4 403.9,181.6 765.8,249.5 755.4,239.5
			638.1,216 			"/>
        <polygon class="st3" points="755.4,239.5 658.4,145.8 638.1,216 			"/>
        <polygon class="st3" points="611.8,210.7 585.4,123.7 559.6,131.8 582.3,204.8 			"/>
        <polygon class="st3" points="628.5,214 652.1,139.7 627.3,144.4 			"/>
        <polygon class="st3" points="652.1,139.7 626.8,115.3 627.3,144.4 			"/>
        <polygon class="st3" points="621.2,212.6 619.7,113 593.5,121.1 593.6,124.4 			"/>
        <polygon class="st3" points="582.3,204.8 559.6,131.8 503.5,149.3 569.7,202.2 			"/>
        <polygon class="st3" points="765.8,249.5 403.9,181.6 385.1,188.5 600.2,226.6 702.1,244.7 741.6,251.7 			"/>
</g>


    <g id="chimney">
	<polygon class="st5" points="329.4,154 359.1,148.2 360.1,30.7 339.4,37.4 330.6,40.3 			"/>
        <polygon class="st6" points="359.1,148.2 392.9,140.6 393.5,40.2 384,37.5 360.1,30.7 			"/>
        <polygon class="st6" points="384,38.3 384.1,11.7 360.2,3.4 360,30.7 			"/>
        <polygon class="st5" points="360.2,3.4 339.7,11.6 339.4,38.2 360,30.7 			"/>
</g>


    <g id="right-window">
	<g>
		<polygon class="st8" points="256.7,432.5 259.9,232.7 255.5,232.2 252.2,432.8 				"/>
        <path class="st7" d="M182.6,426.7l4.1-183.3l68.8-11.2l-3.3,200.5L182.6,426.7z M246.7,422.3l3-179.5l-25.4,3.8l-5.7,0.9
			l-27.4,4.1l-3.6,166.3l27.6,2l5.8,0.4L246.7,422.3z"/>
        <polygon class="st2" points="215.2,420 221,420.4 224.3,246.6 218.6,247.5 				"/>
	</g>
        <polygon class="st9" points="215.2,420 218.6,247.5 191.2,251.6 187.6,417.9 			"/>
        <polygon class="st9" points="224.3,246.6 221,420.4 246.7,422.3 249.7,242.8 			"/>
</g>


    <g>
	<g>
		<polygon class="st4" points="786.3,453.8 801.9,454.8 800.3,403.6 784.9,404.6 786.3,452.2 		"/>
        <polygon class="st0" points="303.5,479.6 463.7,501.2 463.6,459.7 321.2,474.2 321.2,477.8 		"/>
        <polygon class="st0" points="306.7,404.8 289.3,405.4 481.7,414.6 639.3,406.1 625.3,405.6 621.9,405.5 481.3,412.8 		"/>
        <polygon class="st4" points="757.9,502.1 757.6,491.2 672.1,508.2 672.4,520.6 		"/>
        <polygon class="st4" points="672.4,520.6 672.1,508.2 657.4,506.5 657.1,494.2 640.8,492.5 641.4,529.5 688.3,536 688.1,522.6
			"/>
        <polygon class="st0" points="640.6,479.5 727.7,466.2 711.1,464.9 710.7,447.2 649.2,443.3 640.7,444.1 640,444.1 		"/>
        <polygon class="st4" points="640.7,444.1 649.2,443.3 648.4,399.3 639.9,399.1 		"/>
        <polygon class="st4" points="711.1,464.9 727.7,466.2 726.1,401.4 709.6,400.9 710.7,447.2 		"/>
        <polygon class="st4" points="625.1,393.3 625.3,405.6 639.3,406.1 640,444.1 640.7,444.1 639.9,399.1 648.4,399.3 709.6,401.1
			784.6,397 		"/>
        <polygon class="st4" points="784.6,397 709.6,400.9 726.1,401.4 807.7,397 633.7,393 625.1,393.3 		"/>
        <polygon class="st4" points="743.7,489.8 743.4,479 657.1,494.2 657.4,506.5 		"/>
        <polygon class="st4" points="688.1,522.6 688.3,536 773,515.3 772.7,503.6 		"/>
        <polygon class="st0" points="757.6,491.2 743.7,489.8 657.4,506.5 672.1,508.2 		"/>
        <polygon class="st4" points="321.2,474.2 463.6,459.7 463.6,423.2 321.8,415.1 		"/>
        <polygon class="st0" points="743.4,479 728,477.6 640.8,492.5 657.1,494.2 		"/>
        <polygon class="st0" points="672.4,520.6 688.1,522.6 772.7,503.6 763.4,502.6 757.9,502.1 		"/>
        <polygon class="st4" points="499.8,500.9 482,503.7 482.3,564.5 641.4,529.5 640.8,492.5 728,477.6 743.4,479 743.7,489.8
			757.6,491.2 757.9,502.1 763.4,502.6 810.7,492.2 809.5,453.7 801.9,454.8 737.5,464.7 737.1,449 736,407.8 784.9,404.6
			800.3,403.6 801.9,454.8 809.5,453.7 807.7,397 726.1,401.4 727.7,466.2 640.6,479.5 640,444.1 639.3,406.1 481.7,414.6
			499.8,500.9 		"/>
        <polygon class="st4" points="625.2,481.8 624.1,415 606.6,416.1 607,445.1 607.6,480.1 		"/>
        <polygon class="st0" points="499.8,500.9 625.2,481.8 607.6,480.1 607,445.1 499.6,456 		"/>
        <polygon class="st4" points="499.6,456 607,445.1 606.6,416.1 499.4,423.1 		"/>
	</g>

        <g>
		<g>
			<polygon class="st9" points="415.4,315.9 415.5,267.9 385.3,265 385,314.4 			"/>
            <g>
				<path class="st7" d="M421.3,386.4l-76.1,1.8l1.2-136l75.2,7.9L421.3,386.4z M385.3,265l-0.3,49.4l30.3,1.5l0.1-48L385.3,265z
					 M415.2,378l0.1-55.3l-30.4-1.2l-0.3,57L415.2,378z M380.4,264.5l-27.2-2.6l-0.9,117l27.5-0.4L380.4,264.5z"/>
                <polygon class="st8" points="346.3,252.2 339.9,253 338.7,388 345.2,388.2 				"/>
			</g>
            <polygon class="st9" points="385,321.4 384.7,378.4 415.2,378 415.4,322.7 			"/>
            <polygon class="st9" points="352.3,378.9 379.8,378.5 380.4,264.5 353.2,261.9 			"/>
		</g>

            <g>
			<polygon class="st9" points="618.8,325.6 618.2,287.5 599.3,285.6 599.8,324.7 			"/>
                <g>
				<path class="st7" d="M623.5,381.6l-47.2,1.1l-1.2-106.5l46.9,4.9L623.5,381.6z M599.3,285.6l0.5,39.1l19,0.9l-0.6-38.1
					L599.3,285.6z M619.5,374.9l-0.6-43.9l-19-0.8l0.6,44.9L619.5,374.9z M596.2,285.3l-16.8-1.6l1.1,91.8l16.9-0.3L596.2,285.3z"/>
                    <polygon class="st8" points="575.1,276.3 568.8,276.7 569.9,382.6 576.2,382.7 				"/>
			</g>
                <polygon class="st9" points="599.9,330.2 600.5,375.2 619.5,374.9 618.9,331 			"/>
                <polygon class="st9" points="580.4,375.5 597.4,375.2 596.2,285.3 579.4,283.7 			"/>
		</g>

            <g>
			<g>
				<polygon class="st8" points="154,423.7 158.3,249.1 154.1,248.7 149.7,423.9 				"/>
                <path class="st7" d="M96.1,419.2l4.8-161.9l53.2-8.6l-4.4,175.1L96.1,419.2z M145.6,414.8l4-156.9l-19.5,2.9l-4.4,0.7l-21.2,3.2
					l-4.3,146.7l21.4,1.6l4.5,0.3L145.6,414.8z"/>
                <polygon class="st7" points="121.5,413 125.9,413.3 130.1,260.8 125.7,261.5 				"/>
			</g>
                <polygon class="st9" points="121.5,413 125.7,261.5 104.4,264.7 100.1,411.4 			"/>
                <polygon class="st9" points="130.1,260.8 125.9,413.3 145.6,414.8 149.6,257.9 			"/>
		</g>

            <path class="st5" d="M487.1,369.1l-4.5,0L487.1,369.1z"/>
            <g>
			<polygon class="st9" points="539.3,370.8 538.7,290.6 506.3,287.9 506.8,371.1 			"/>
                <g>
				<polygon class="st7" points="480.5,369.2 480.5,374.2 482.4,374.2 482.4,369.2 				"/>
                    <polygon class="st7" points="482.4,369.2 482.4,374.2 486.1,374.2 489.1,374.1 492,374.1 492,369.1 				"/>
                    <polygon class="st5" points="480.5,369.2 482.4,369.2 492,369.1 485.7,369.1 482.6,369.1 487.1,369.1 482.6,369.1 				"/>
                    <polygon class="st7" points="482.6,374.2 482.7,379.8 486.1,379.9 486.1,374.2 				"/>
                    <polygon class="st7" points="489.2,379.8 489.1,374.1 486.1,374.2 486.1,379.9 				"/>
                    <polygon class="st8" points="462.9,458.8 470.2,459.5 469.8,265 462.6,265.7 				"/>
                    <polygon class="st7" points="470.2,459.5 476.5,458.9 476,274.7 543.5,281.1 544.9,451.8 550.2,451.2 548.7,273.3 469.8,265
									"/>
                    <path class="st8" d="M476.5,458.9L476,274.7l67.5,6.5l1.4,170.7L476.5,458.9z M506.3,287.9l0.4,83.1l32.5-0.3l-0.6-80.1
					L506.3,287.9z M482.6,374.2l0,5.6l3.5,0.1l3-0.1l0-5.7l2.9,0l0-5l-6.4,0l-3,0.1l-2.1,0l0,5L482.6,374.2z"/>
			</g>
		</g>
	</g>
        <polygon class="st4" points="463.6,501.1 481.9,503.5 481.6,414.5 289.2,405.3 288.2,477.5 303.4,479.5 304.2,414 321.7,415
		463.5,423.1 463.6,459.6 	"/>
        <polygon class="st4" points="624,414.9 625.1,481.7 499.7,500.8 481.9,503.5 482.2,564.4 641.3,529.3 640.7,492.3 727.9,477.5
		743.3,478.9 743.6,489.7 757.6,491.1 757.9,501.9 763.3,502.5 810.6,492.1 809.4,453.6 801.8,454.7 737.4,464.6 737,448.8
		735.9,407.7 784.8,404.5 800.3,403.5 801.8,454.7 809.4,453.6 807.6,396.9 726,401.3 727.6,466.1 640.5,479.4 639.9,444 639.2,406
		481.6,414.5 481.9,503.5 499.7,500.8 499.5,455.9 499.3,422.9 606.5,416 	"/>
</g>
</svg>
