<?xml version="1.0" encoding="utf-8"?>
<!-- Generator: Adobe Illustrator 25.0.1, SVG Export Plug-In . SVG Version: 6.00 Build 0)  -->
<svg version="1.1" id="katman_1" xmlns="http://www.w3.org/2000/svg" x="0px" y="0px"
     viewBox="0 0 841.9 595.3" style="enable-background:new 0 0 841.9 595.3;" xml:space="preserve">
<style type="text/css">
	.st0{fill:#8F6645;}
	.st1{fill:#EEEEEE;}
	.st2{fill:#DDDDDD;}
	.st3{fill:#3D3A37;}
	.st4{fill:#C4C4C4;}
	.st5{fill:#3D3A37;}
	.st6{fill:#000000;}
	.st7{fill:#FFFFFF;}
	.st8{fill:#888888;}
	.st9{fill:#7884AF;}
</style>


    <g id="body">
	<polygon class="st4" points="533.8,573.7 532.4,147 534.7,146.7 608.5,43.8 668.9,167.7 668.9,172.3 671.3,532 			"/>
        <polygon class="st0" points="532.4,147 533.8,573.7 252.2,508.2 252.5,423.4 252.5,421.6 252.6,384 252.6,382.7 252.6,375.6
		253.3,183.3 			"/>
        <polygon class="st0" points="251.1,507.9 165.6,488 166,411.7 251.4,423.5 			"/>
</g>


    <g id="roof">
	<polygon class="st3" points="325.7,95.4 609.7,35.6 532.6,142.3 246.4,180.6 			"/>
        <polygon class="st1" points="246.4,180.6 532.6,142.3 534.8,146.5 532.5,146.8 253.5,183.1 248.6,183.7 			"/>
        <polygon class="st1" points="532.6,142.3 609.7,35.6 613.5,36.9 677,168.7 675.5,171.5 673.3,167.1 611.6,39.5 608.7,43.6
		534.8,146.5 			"/>
        <polygon class="st2" points="611.6,39.5 673.3,167.1 669,167.5 608.7,43.6 			"/>
        <polygon class="st1" points="673.3,167.1 675.5,171.5 669.1,172.1 669,167.5 			"/>
        <polygon class="st1" points="251.5,423.3 166.2,411.5 164.8,409.4 250.2,421 			"/>
        <polygon class="st2" points="252.6,423.2 251.5,423.3 252.6,421.4 			"/>
        <polygon class="st3" points="250.2,421 164.8,409.4 207.8,379.7 251.6,383.8 			"/>
        <polygon class="st2" points="252.6,421.4 251.5,423.3 250.2,421 252.6,421.1 			"/>
        <polygon class="st3" points="252.6,421.1 250.2,421 251.6,383.8 252.8,383.8 			"/>
        <polygon class="st2" points="252.8,383.8 251.6,383.8 252.8,382.4 			"/>
        <polygon class="st3" points="252.8,382.4 251.6,383.8 207.8,379.7 209.1,378.2 252.8,382.2 			"/>
        <polygon class="st2" points="252.8,382.2 209.1,378.2 252.8,375.4 			"/>
</g>


    <g id="chimney">
	<polygon class="st5" points="615,560.5 591.2,555.5 590.9,496.8 614.7,500.6 			"/>
        <polygon class="st5" points="652.2,548.5 615,560.5 614.7,500.6 651.8,491.5 			"/>
        <polygon class="st5" points="614.7,500.6 590.9,496.8 589.6,226.9 613.2,225.1 			"/>
        <polygon class="st5" points="651.8,491.5 614.7,500.6 613.2,225.1 650.1,229.5 			"/>
        <polygon class="st5" points="594.5,205.2 593.6,29.5 612.2,24.8 613.2,203.4 			"/>
        <polygon class="st6" points="613.2,225.1 589.6,226.9 594.5,205.2 613.2,203.4 			"/>
        <polygon class="st6" points="613.2,225.1 613.1,203.9 640.8,207.9 650.1,229.5 			"/>
        <polygon class="st6" points="613.2,203.4 612.2,24.8 639.8,35.3 640.8,207.9 613.1,203.9 			"/>
</g>


    <g id="left-window">
	<g>
		<polygon class="st8" points="450.2,379.1 446.2,378.9 446.2,340.7 448.3,340.7 448.3,376 450.2,376.1 			"/>
        <polygon class="st8" points="458.3,379.5 454.2,379.3 454.2,376.3 458.2,376.5 			"/>
        <polygon class="st8" points="475.6,380.5 470.4,380.2 470.4,377.1 472.9,377.3 472.9,340.7 475.5,340.7 			"/>
        <polygon class="st8" points="445.4,339.4 445.3,293.6 475.8,292.7 475.9,339.3 472.9,339.4 472.8,297.2 448.2,297.9 448.2,325.8
			447.5,327 447.4,327.7 447.5,328.4 447.8,329 448.3,339.4 			"/>
        <polygon class="st7" points="447.5,328.4 447.4,327.7 447.5,327 447.8,326.4 448.7,325.5 449.9,325.1 450.6,325.2 451.7,325.9
			452.4,327.1 452.4,327.7 452.4,328.4 452.1,329 451.2,329.9 449.9,330.3 449.3,330.2 448.2,329.6 			"/>
        <path class="st7" d="M452.1,326.4l2.3-0.6L452.1,326.4z"/>
        <polygon class="st9" points="454.8,326.4 453.9,325.5 452.6,325.1 449.9,325.1 449.3,325.2 448.2,325.8 448.2,297.9 472.8,297.2
			472.9,339.4 460,339.6 448.3,339.4 448.2,329.6 449.3,330.2 449.9,330.3 452.6,330.3 453.3,330.2 454.4,329.5 455,328.4
			455.1,327.7 455,327 			"/>
        <path class="st8" d="M454.8,329l-3.1,0.6L454.8,329z"/>
        <path class="st8" d="M453.3,325.2l-2.1,0.3L453.3,325.2z"/>
        <polygon class="st15" points="452.6,325.1 453.3,325.2 450.6,325.2 449.9,325.1 			"/>
        <polygon class="st3" points="455.1,327.7 455,328.4 452.4,328.4 452.4,327.7 			"/>
        <path class="st8" d="M453.9,325.5l-2.2,0.4L453.9,325.5z"/>
        <polygon class="st8" points="454.8,326.4 455,327 452.4,327.1 452.1,326.4 			"/>
        <polygon class="st8" points="455,327 455.1,327.7 452.4,327.7 452.4,327.1 			"/>
        <polygon class="st8" points="455,328.4 454.8,329 452.1,329 452.4,328.4 			"/>
        <polygon class="st8" points="453.3,330.2 452.6,330.3 449.9,330.3 450.6,330.2 			"/>
        <path class="st8" d="M454.4,329.5l-3.2,0.4L454.4,329.5z"/>
        <path class="st8" d="M453.9,329.9l-3.3,0.3L453.9,329.9z"/>
        <polygon class="st7" points="475.9,339.3 475.8,292.7 478.2,292.8 478.3,339.3 			"/>
        <polygon class="st8" points="448.3,376 448.3,340.7 450.2,340.8 450.2,376.1 			"/>
        <polygon class="st8" points="472.9,340.7 472.9,377.3 470.4,377.1 470.4,340.8 			"/>
        <polygon class="st8" points="458.2,376.5 454.2,376.3 454.2,340.8 458.2,340.9 			"/>
        <polygon class="st8" points="462.4,340.9 466,340.9 466.1,376.9 462.4,376.7 			"/>
        <polygon class="st8" points="462.4,376.7 466.1,376.9 466.1,380 462.4,379.8 			"/>
	</g>

        <g>
		<polygon class="st5" points="460.8,340.5 458.6,340.5 452.9,340.4 451.1,340.4 448.7,340.4 442.9,340.3 441,340.2 438.9,340.2
			433.2,340.1 431.2,340.1 428.6,340 422,339.9 420,339.9 417.7,339.8 411.9,339.7 410,339.7 407.8,339.7 402.2,339.6 400.3,339.5
			398.1,339.5 394.5,339.4 392.9,339.4 391,339.4 388.5,339.3 383.7,339.2 382.9,339.2 381.1,339.2 378.7,339.2 373.4,339.1
			371.6,339 369.1,339 364.7,338.9 362.9,338.9 361.1,338.8 361.1,337.7 477.2,339.6 477.2,340.9 474.9,340.8 470.9,340.8
			468.8,340.7 466.9,340.7 464.9,340.7 462.8,340.6 460.8,340.6 			"/>
            <polygon class="st5" points="460.8,340.5 462.8,340.6 462.9,378.8 462.9,383.1 460.8,383.2 460.8,340.5 			"/>
            <polygon class="st5" points="407.8,339.7 410,339.7 407.7,339.7 			"/>
            <polygon class="st5" points="398.1,339.5 400.3,339.5 398,339.5 			"/>
            <polygon class="st5" points="388.5,339.3 391,339.4 388.4,339.3 			"/>
            <polygon class="st5" points="378.7,339.2 381.1,339.2 378.5,339.2 			"/>
            <polygon class="st5" points="369.1,339 371.6,339 368.9,339 			"/>
            <polygon class="st5" points="361.1,337.7 401.2,337.1 404.8,337.2 369.5,337.7 404.2,338.3 462.1,339.3 464.9,339.3 476.7,339.5
				489.5,339.3 492.6,339.2 495,339.2 515.2,338.8 517.2,338.9 477.2,339.6 			"/>
            <polygon class="st5" points="404.8,337.2 404.8,338.3 369.5,337.7 			"/>
            <polygon class="st5" points="517.2,338.9 517.2,340.1 514.7,340.1 512.5,340.2 506.7,340.3 504,340.4 502.1,340.4 496.4,340.5
				494.2,340.5 492.2,340.6 489.5,340.6 487,340.7 484.7,340.7 482.7,340.8 479,340.8 477.2,340.9 477.2,339.6 			"/>
            <polygon class="st5" points="494.2,340.5 496.4,340.5 496.5,380.3 496.5,382.9 494.3,383.1 			"/>
            <polygon class="st5" points="494.3,383.1 496.5,382.9 496.5,380.3 502.2,380.7 502.2,382.3 504.1,382.4 506.8,382.3 506.8,380.9
			512.6,381.2 514.8,381.7 517.3,381.6 517.9,381.5 477.2,384.2 380.6,378.5 382.9,378.3 382.9,376.3 383.7,376.2 388.3,375.8
			388.3,378.9 390.9,379 392.9,378.9 392.9,375.8 394.5,375.7 398,375.3 398,379.5 400.2,379.6 402.2,379.5 402.2,375.2
			407.7,375.5 407.7,380.1 409.9,380.2 411.9,380.1 411.9,375.7 417.6,376 417.6,380.6 420,380.8 422,380.7 422,376.2 428.6,376.6
			428.6,381.3 431.2,381.5 433.2,381.3 433.2,376.9 438.9,377.2 438.9,381.9 441,382 442.9,381.9 442.9,377.4 448.8,377.7
			448.8,382.5 451.1,382.6 453,382.5 453,378 458.6,378.3 458.6,383.1 460.8,383.2 462.9,383.1 462.9,378.8 466.9,379 466.9,383.6
			468.8,383.7 470.9,383.6 470.9,379.2 474.9,379.4 474.9,384.1 477.1,384.2 479.1,384.1 479.1,379.7 482.7,379.9 482.7,383.6
			484.8,383.7 487.1,383.5 487.1,380.1 492.3,380.4 492.3,383 			"/>
            <polygon class="st5" points="506.8,382.3 504.1,382.4 504,340.4 506.7,340.3 506.8,380.9 			"/>
            <polygon class="st5" points="514.8,381.7 512.6,381.6 512.5,340.2 514.7,340.1 			"/>
            <polygon class="st5" points="517.3,381.6 514.8,381.7 514.7,340.1 517.2,340.1 517.3,381.5 			"/>
            <polygon class="st5" points="494.2,340.5 494.3,383.1 492.3,383 492.3,380.4 492.2,340.6 			"/>
            <polygon class="st5" points="504,340.4 504.1,382.4 502.2,382.3 502.2,380.7 502.1,340.4 			"/>
            <polygon class="st5" points="477.2,413.6 360.2,403.3 360.2,377.2 368.5,377.7 371,377.9 378.2,378.3 380.6,378.5 477.2,384.2"/>
            <polygon class="st5" points="518,409.6 477.2,413.6 477.2,384.2 517.9,381.5 			"/>
            <polygon class="st5" points="368.5,377.7 360.2,377.2 361.1,377.2 362.8,377.3 364.6,377.2 368.8,376.8 368.8,377.7 			"/>
            <polygon class="st5" points="364.6,377.2 362.8,377.3 362.9,338.9 364.7,338.9 364.6,377 			"/>
            <polygon class="st5" points="383.7,376.2 382.9,376.3 382.9,339.2 383.7,339.2 383.7,376 			"/>
            <polygon class="st5" points="394.5,375.7 392.9,375.8 392.9,339.4 394.5,339.4 394.5,375.5 			"/>
            <polygon class="st5" points="378.2,378.3 371,377.9 373.3,377.8 373.3,376.6 378.5,376.3 378.5,378.3 			"/>
            <polygon class="st5" points="468.8,340.7 470.9,340.8 470.9,376.2 470.9,379.2 470.9,383.6 468.8,383.7 			"/>
            <polygon class="st5" points="466.9,340.7 468.8,340.7 468.8,383.7 466.9,383.6 466.9,379 466.9,376 			"/>
            <polygon class="st5" points="431.2,340.1 433.2,340.1 433.2,376.9 433.2,381.3 431.2,381.5 			"/>
            <polygon class="st5" points="420,339.9 422,339.9 422,376.2 422,380.7 420,380.8 			"/>
            <polygon class="st5" points="417.6,339.8 420,339.9 420,380.8 417.6,380.6 417.6,376 			"/>
            <polygon class="st5" points="409.9,339.7 411.9,339.7 411.9,375.7 411.9,380.1 409.9,380.2 			"/>
            <polygon class="st5" points="400.2,339.5 402.2,339.6 402.2,375.2 402.2,379.5 400.2,379.6 			"/>
            <polygon class="st5" points="391,339.4 392.9,339.4 392.9,375.8 392.9,378.9 390.9,379 			"/>
            <polygon class="st5" points="378.5,339.2 380.9,339.2 380.9,378.5 378.5,378.3 378.5,376.3 			"/>
            <polygon class="st5" points="380.9,339.2 382.9,339.2 382.9,376.3 382.9,378.3 380.9,378.5 			"/>
            <polygon class="st5" points="371.3,339 373.4,339.1 373.3,376.6 373.3,377.8 371.3,377.9 			"/>
            <polygon class="st5" points="371,377.9 368.5,377.7 371.3,377.9 			"/>
            <polygon class="st5" points="380.6,378.5 378.2,378.3 380.9,378.5 			"/>
            <polygon class="st5" points="487.1,383.5 484.8,383.7 484.7,340.7 487,340.7 487.1,377.1 487.1,380.1 			"/>
            <polygon class="st5" points="484.8,383.7 482.7,383.6 482.7,379.9 482.7,376.8 482.7,340.8 484.7,340.7 			"/>
            <polygon class="st5" points="477.1,384.2 474.9,384.1 474.9,379.4 474.9,376.4 474.9,340.8 477,340.9 			"/>
            <polygon class="st5" points="477.1,384.2 477,340.9 479,340.8 479.1,376.6 479.1,379.7 479.1,384.1 			"/>
            <polygon class="st5" points="460.8,383.2 458.6,383.1 458.6,378.3 458.6,340.5 460.8,340.5 			"/>
            <polygon class="st5" points="451.1,382.6 448.8,382.5 448.8,377.7 448.7,340.4 451.1,340.4 			"/>
            <polygon class="st5" points="451.1,382.6 451.1,340.4 452.9,340.4 453,378 453,382.5 			"/>
            <polygon class="st5" points="441,382 438.9,381.9 438.9,377.2 438.9,340.2 441,340.2 			"/>
            <polygon class="st5" points="441,382 441,340.2 442.9,340.3 442.9,377.4 442.9,381.9 			"/>
            <polygon class="st5" points="431.2,381.5 428.6,381.3 428.6,376.6 428.6,340 431.2,340.1 			"/>
            <polygon class="st5" points="409.9,380.2 407.7,380.1 407.7,375.5 407.7,339.7 409.9,339.7 			"/>
            <polygon class="st5" points="400.2,379.6 398,379.5 398,375.3 398,339.5 400.2,339.5 			"/>
            <polygon class="st5" points="390.9,379 388.3,378.9 388.3,375.8 388.4,339.3 391,339.4 			"/>
            <polygon class="st5" points="371.3,377.9 368.8,377.7 368.8,376.8 368.9,339 371.3,339 			"/>
            <polygon class="st5" points="362.9,338.9 362.8,377.3 361.1,377.2 361.1,338.8 			"/>
	</g>
</g>


    <g>
	<g>

		<g>
			<polygon class="st5" points="342.3,240.9 344.5,241.1 344.4,277.8 342.2,277.7 			"/>
            <polygon class="st5" points="344.5,241.1 342.3,240.9 325.4,239.7 325.4,238.6 365.3,241.5 365.3,242.6 362.8,242.4 354.8,241.8
				352.1,241.6 			"/>
            <polygon class="st5" points="237,247.3 237,246.3 295.3,241.2 297.4,241 315.1,239.5 317.3,239.3 319.6,239.1 325.4,238.6
				325.4,239.7 319.1,240.2 317.6,240.4 313.1,240.8 311.4,240.8 290.7,242.7 288.7,242.8 282.2,243.4 280.4,243.6 274.6,244.1
				272.8,244.2 267.2,244.7 265.3,244.8 260,245.3 258,245.5 252.4,245.9 250.4,246.1 245.1,246.6 243,246.7 238.4,247.1 			"/>
            <polygon class="st5" points="313.1,240.7 315.1,240.9 315,277.5 312.9,277.6 313,240.7 			"/>
            <polygon class="st5" points="315.1,240.9 313.1,240.8 317.6,240.4 315.1,240.9 			"/>
            <polygon class="st5" points="245.1,246.6 250.4,246.1 246.8,247 			"/>
            <polygon class="st5" points="245.1,246.6 246.8,246.7 246.8,247.3 246.7,280.5 244.7,280.5 244.9,246.6 			"/>
            <polygon class="st5" points="246.8,247 250.4,246.6 250.4,247.6 246.8,247.3 			"/>
            <polygon class="st5" points="252.4,245.9 258,245.5 254.2,246.3 			"/>
            <polygon class="st5" points="252.4,245.9 254.2,246.1 254.2,246.8 254.2,247.8 254.1,280.1 252.1,280.2 252.2,245.9 			"/>
            <polygon class="st5" points="254.2,246.8 258,247.1 258,248 254.2,247.8 			"/>
            <polygon class="st5" points="260,245.3 265.3,244.8 261.9,245.6 			"/>
            <polygon class="st5" points="260,245.3 261.9,245.4 261.9,247.3 261.9,248.3 261.7,279.8 259.8,279.9 260,245.3 			"/>
            <polygon class="st5" points="261.9,247.3 265.3,247.5 265.3,248.5 261.9,248.3 			"/>
            <polygon class="st5" points="267.2,244.7 272.8,244.2 269,245 			"/>
            <polygon class="st5" points="267.2,244.7 269,244.8 269,247.8 269,248.7 268.9,279.5 266.9,279.6 267.1,244.7 			"/>
            <polygon class="st5" points="269,247.8 272.7,248 272.7,249 269,248.7 			"/>
            <polygon class="st5" points="274.6,244.1 280.4,243.6 276.4,244.3 			"/>
            <polygon class="st5" points="274.6,244.1 276.4,244.2 276.4,248.2 276.4,249.2 276.3,279.2 274.4,279.3 274.5,244.1 			"/>
            <polygon class="st5" points="278.8,248.4 278.8,249.3 276.4,249.2 276.4,248.2 			"/>
            <path class="st5" d="M278.8,249.3l-2.4,0.2L278.8,249.3z"/>
            <polygon class="st5" points="282.2,243.4 288.7,242.8 284.1,243.7 			"/>
            <polygon class="st5" points="282.2,243.4 284.1,243.5 284,278.9 282.1,278.9 282.2,243.4 			"/>
            <polygon class="st5" points="290.7,242.7 311.4,240.9 307.6,241.6 305.8,241.4 304,241.6 300,242.3 298.2,242.1 296.5,242.2
				295.3,242.7 292.7,242.9 			"/>
            <polygon class="st5" points="304,241.6 305.8,241.4 305.7,277.9 303.9,278 304,241.9 			"/>
            <polygon class="st5" points="296.5,242.2 298.2,242.1 298.1,278.3 296.4,278.3 296.5,242.6 			"/>
            <polygon class="st5" points="305.8,241.4 307.6,241.5 307.5,277.9 305.7,277.9 			"/>
            <polygon class="st5" points="298.2,242.1 300,242.2 299.9,278.2 298.1,278.3 			"/>
            <polygon class="st5" points="290.7,242.7 292.7,242.8 292.5,278.5 290.6,278.6 290.7,242.7 			"/>
            <polygon class="st5" points="319.1,240.2 325.4,239.7 342.3,240.9 340.8,241 335.2,240.7 332.9,240.3 331.5,240.4 327.3,240.1
				325.3,239.7 323.7,239.9 321,240.4 			"/>
            <polygon class="st5" points="340.8,241 342.3,240.9 342.2,277.7 340.7,277.7 340.8,241.1 			"/>
            <polygon class="st5" points="332.9,240.3 335.2,240.5 335.2,277.5 332.9,277.4 			"/>
            <polygon class="st5" points="331.5,240.4 332.9,240.3 332.9,277.4 331.3,277.3 331.4,240.4 			"/>
            <polygon class="st5" points="325.3,239.7 327.3,239.9 327.2,277.2 325.2,277.1 			"/>
            <polygon class="st5" points="246.8,247.3 250.4,247.6 248.4,247.9 246.8,247.7 			"/>
            <polygon class="st5" points="246.8,247.7 248.4,247.7 248.3,280.4 246.7,280.5 			"/>
            <polygon class="st5" points="254.2,247.8 258,248 256.1,248.2 254.8,248.3 254.2,248.3 			"/>
            <polygon class="st5" points="256.1,248.2 258,248.3 257.8,280 255.9,280.1 			"/>
            <polygon class="st5" points="254.8,248.3 256.1,248.2 255.9,280.1 254.7,280.1 254.8,248.3 			"/>
            <polygon class="st5" points="261.9,248.3 265.3,248.5 261.9,248.7 			"/>
            <polygon class="st5" points="269,248.7 272.7,249 269.2,249.2 			"/>
            <path class="st5" d="M269,249l0.1,30.5L269,249z"/>
            <polygon class="st5" points="250.4,246.1 252.2,245.9 252.1,280.2 250.2,280.3 250.4,248.1 250.4,246.6 			"/>
            <polygon class="st5" points="275.9,304.1 236,303.7 325.1,302.4 365.8,302.9 			"/>
            <polygon class="st5" points="325.1,302.4 236,303.7 236.1,280.9 236.9,280.9 238.2,280.8 239.9,280.7 242.8,280.6 244.7,280.5
				246.7,280.5 248.3,280.4 250.2,280.3 252.1,280.2 254.1,280.1 254.7,280.1 255.9,280.1 257.8,280 259.8,279.9 261.7,279.8
				265.2,279.7 266.9,279.6 268.9,279.5 272.6,279.3 274.4,279.3 276.3,279.2 280.3,279 282.1,278.9 284,278.9 288.6,278.7
				290.6,278.6 292.5,278.5 295.2,278.4 296.4,278.3 298.1,278.3 299.9,278.2 303.9,278 305.7,277.9 307.5,277.9 311.3,277.7
				312.9,277.6 315,277.5 317.2,277.4 319,277.4 321,277.3 323.6,277.2 325.2,277.1 			"/>
            <polygon class="st5" points="365.8,302.9 325.1,302.4 325.2,277.1 327.2,277.2 331.3,277.3 332.9,277.4 335.2,277.5 340.7,277.7
				342.2,277.7 344.4,277.8 350.6,278 352.1,278.1 354.7,278.2 361.1,278.4 362.8,278.5 365.3,278.5 			"/>
            <polygon class="st5" points="321.1,240.4 321,277.3 319,277.4 319.1,240.2 321,240.4 			"/>
            <polygon class="st5" points="325.3,239.7 325.2,277.1 323.6,277.2 323.7,240.2 			"/>
            <polygon class="st5" points="319.1,240.2 319,277.4 317.5,277.4 317.6,240.7 			"/>
            <polygon class="st5" points="313,240.7 312.9,277.6 311.3,277.7 311.4,241.2 			"/>
            <polygon class="st5" points="290.7,242.7 290.6,278.6 288.6,278.7 288.7,243.2 			"/>
            <polygon class="st5" points="282.2,243.4 282.1,278.9 280.3,279 280.4,244 			"/>
            <polygon class="st5" points="274.5,244.1 274.4,279.3 272.6,279.3 272.7,249.4 272.7,248 272.8,244.7 			"/>
            <polygon class="st5" points="267.1,244.7 266.9,279.6 265.2,279.7 265.3,248.9 265.3,247.5 265.3,245.3 			"/>
            <polygon class="st5" points="260,245.3 259.8,279.9 257.8,280 258,248.3 258,247.1 258,246 			"/>
            <polygon class="st5" points="244.9,246.6 244.7,280.5 242.8,280.6 243,247.6 243,246.8 			"/>
            <polygon class="st5" points="236.9,280.9 237,247.3 238.4,247.1 238.2,280.8 			"/>
            <polygon class="st5" points="238.2,280.8 238.4,247.1 240.1,247.3 239.9,280.7 			"/>
            <polygon class="st5" points="240.1,247.3 238.4,247.1 243,246.8 243,247.6 240.1,247.4 			"/>
            <polygon class="st5" points="365.3,242.6 365.3,278.5 362.8,278.5 362.8,242.4 			"/>
            <polygon class="st5" points="362.8,242.4 362.8,278.5 361.1,278.4 361.2,242.5 			"/>
            <polygon class="st5" points="362.8,242.4 361.3,242.5 354.8,242.1 			"/>
            <polygon class="st5" points="352.1,241.6 354.8,241.8 354.7,278.2 352.1,278.1 			"/>
            <polygon class="st5" points="352.1,241.6 352.1,278.1 350.6,278 350.6,241.8 			"/>
            <polygon class="st5" points="352.1,241.6 350.6,241.7 344.5,241.3 			"/>
            <path class="st2" d="M315.1,240.9l-0.1,36.6L315.1,240.9z"/>
		</g>
        <g>
			<polygon class="st8" points="307.7,241.3 311.5,241 311.4,277.4 307.7,277.6 			"/>
            <polygon class="st8" points="300.1,242 304.1,241.6 304,277.7 300,277.9 			"/>
            <polygon class="st8" points="295.5,240.9 295.6,208.7 317.5,206 317.4,239 315.2,239.2 315.3,210.1 297.6,212.2 297.6,234.9
				296.8,235.5 296.3,236.5 296.3,237.7 296.8,238.6 297.6,239.1 297.6,240.7 			"/>
            <polygon class="st8" points="296.3,237.7 296.3,236.5 296.8,235.5 297.6,234.9 298.5,234.8 299.3,235.3 299.8,236.2 299.8,237.3
				299.3,238.4 298.5,239 297.6,239.1 296.8,238.6 			"/>
            <path class="st7" d="M299.6,235.7l2.4-0.2L299.6,235.7z"/>
            <polygon class="st9" points="302.3,235.9 301.6,235.2 298.5,234.8 297.6,234.9 297.6,212.2 315.3,210.1 315.2,239.2 297.6,240.7
				297.6,239.1 300.7,239.3 301.6,238.9 302.3,238.1 302.5,237 			"/>
            <path class="st8" d="M302.3,238.1l-2.9,0.3L302.3,238.1z"/>
            <path class="st8" d="M301.2,235l-2.2,0L301.2,235z"/>
            <path class="st8" d="M302.5,237l-2.7,0.4L302.5,237z"/>
            <path class="st8" d="M301.6,235.2l-2.3,0.1L301.6,235.2z"/>
            <path class="st8" d="M302.3,235.9l-2.5,0.3L302.3,235.9z"/>
            <path class="st8" d="M302.5,236.4l-2.6,0.4L302.5,236.4z"/>
            <path class="st8" d="M302.5,237.5l-2.8,0.4L302.5,237.5z"/>
            <path class="st8" d="M301.2,239.2l-3.1-0.1L301.2,239.2z"/>
            <path class="st8" d="M302,238.6l-3,0.2L302,238.6z"/>
            <path class="st8" d="M301.6,238.9l-3.1,0.1L301.6,238.9z"/>
            <polygon class="st7" points="317.4,239 317.5,206 319.8,206.3 319.8,238.8 			"/>
            <polygon class="st7" points="315.1,277.3 315.2,240.6 317.4,240.5 317.3,277.2 			"/>
            <polygon class="st7" points="295.5,242.4 296.7,242.3 296.6,278 295.4,278.1 			"/>
		</g>
        <g>
			<polygon class="st8" points="293.5,491.6 292.5,491.4 292.5,490.5 292.5,469.5 293.6,469.6 			"/>
            <polygon class="st8" points="301,493.1 297,492.3 297,489.8 301,490.6 			"/>
            <polygon class="st8" points="308.4,494.7 304.6,493.9 304.6,491.3 308.4,492.1 			"/>
            <polygon class="st8" points="314.4,495.9 312.1,495.4 312.1,492.8 312.3,473.1 314.5,473.4 			"/>
            <polygon class="st8" points="308.4,492.1 304.6,491.3 304.7,471.7 308.4,472.4 			"/>
            <polygon class="st8" points="301,490.6 297,489.8 297.1,470.3 301,471 			"/>
            <polygon class="st8" points="292.7,418.6 295.1,418.4 317,421 314.6,421.3 			"/>
            <polygon class="st8" points="292.6,467.6 292.7,418.6 314.6,421.3 314.5,471.7 312.3,471.3 312.4,424.8 294.8,422.6 294.7,446.7
				293.9,447.1 293.4,448 293.4,449.1 293.9,450.2 294.7,450.9 294.6,468 			"/>
            <polygon class="st7" points="293.4,449.1 293.4,448 293.9,447.1 294.7,446.7 295.6,446.8 296.5,447.5 296.9,448.6 296.9,449.7
				296.4,450.6 295.6,451.1 294.7,450.9 293.9,450.2 			"/>
            <path class="st7" d="M296.7,448l2.4-0.8L296.7,448z"/>
            <polygon class="st9" points="299.4,447.7 298.8,446.8 297.8,446.3 294.7,446.6 294.8,422.6 312.4,424.8 312.3,471.3 294.6,468
				294.7,450.9 295.6,451.1 298.3,450.7 299.1,450.3 299.6,449.4 299.6,448.2 			"/>
            <path class="st8" d="M297.4,446.3l-2.2,0.3L297.4,446.3z"/>
            <path class="st8" d="M299.4,449.9l-3,0.8L299.4,449.9z"/>
            <path class="st8" d="M298.3,446.5l-2.2,0.6L298.3,446.5z"/>
            <path class="st8" d="M297.8,446.3l-2.2,0.5L297.8,446.3z"/>
            <path class="st8" d="M299.6,448.8l-2.7,0.9L299.6,448.8z"/>
            <path class="st8" d="M298.8,446.8l-2.3,0.7L298.8,446.8z"/>
            <path class="st8" d="M299.4,447.7l-2.5,0.9L299.4,447.7z"/>
            <path class="st8" d="M299.6,448.2l-2.6,0.9L299.6,448.2z"/>
            <path class="st8" d="M299.6,449.4l-2.8,0.8L299.6,449.4z"/>
            <path class="st8" d="M299.1,450.3l-3,0.6L299.1,450.3z"/>
            <path class="st8" d="M298.7,450.6l-3.1,0.5L298.7,450.6z"/>
            <polygon class="st7" points="314.5,471.7 314.6,421.3 317,421 316.9,472.1 			"/>
		</g>
        <g>
			<polygon class="st5" points="314.5,496 314.6,511 316.1,511.3 318.2,510.9 318.2,495.9 320.7,496.4 320.7,512.3 322.3,512.7
				324.3,512.3 324.3,497.1 328.5,498 328.5,510.9 330,511.2 332.4,510.8 332.4,498.8 338,499.9 338,509.2 339.5,509.6 341.7,509.2
				341.7,500.7 347.9,502 347.9,507.4 349.4,507.7 352,507.2 352,502.8 358.5,504.2 358.5,505.3 360.2,505.7 362.6,505.2
				322.3,512.8 248.9,496.4 251.2,496 251.2,490.1 251.9,490 253.2,490.4 255,490.1 255,497.6 256.9,498 258.9,497.7 258.9,488.9
				262.4,488.3 262.3,499.3 264.1,499.7 266,499.3 266.1,488.3 266.4,487.7 269.8,487.2 269.7,500.9 271.5,501.3 273.4,501
				273.5,486.7 277.4,487.5 277.4,502.6 279.2,503 281.1,502.7 281.1,488.2 285.8,489.2 285.7,504.5 287.7,504.9 289.7,504.6
				289.7,490 292.6,490.6 292.6,491.5 293.6,491.7 293.5,506.2 295.2,506.6 297,506.2 297.1,492.4 301.1,493.2 301,507.9
				302.8,508.3 304.6,507.9 304.7,494 308.5,494.8 308.4,509.6 310,510 312.1,509.6 312.1,495.5 			"/>
            <path class="st5" d="M314.7,496l-0.1-22.4L314.7,496z"/>
            <polygon class="st5" points="341.7,509.2 339.5,509.6 339.5,472.4 341.7,472.1 341.7,500.7 			"/>
            <polygon class="st5" points="352,507.2 349.4,507.7 349.4,470.9 352.1,470.5 352,502.8 			"/>
            <polygon class="st5" points="360.2,505.7 358.5,505.3 358.5,504.2 358.5,469.5 360.2,469.3 			"/>
            <polygon class="st5" points="362.6,505.2 360.2,505.7 360.2,469.3 362.7,468.9 362.6,505 			"/>
            <polygon class="st5" points="341.7,472.1 339.5,472.4 338,472.6 332.4,473.5 330.1,473.8 328.6,474.1 324.4,474.7 322.5,475
				322.5,473.9 362.7,467.8 362.7,468.9 360.2,469.3 358.5,469.5 352.1,470.5 349.4,470.9 347.9,471.1 			"/>
            <polygon class="st5" points="312.4,473.1 312.3,493 312.2,473.1 			"/>
            <polygon class="st5" points="322.6,473.3 361.2,467.6 362.7,467.8 322.5,473.9 234.1,457.9 273.4,453 276.2,453.5 241.4,458
				244.5,458.6 245.6,458.8 252.1,460 253.3,460.3 255.9,460.8 262.6,462 264,462.3 266.5,462.7 292.6,467.6 294.7,468 312.4,471.3
				314.5,471.8 316.9,472.2 			"/>
            <polygon class="st5" points="234.1,458.9 234.1,457.9 322.5,473.9 322.5,475 320.8,474.7 318.2,474.2 316.2,473.8 314.8,473.6
				312.4,473.1 310.2,472.7 308.5,472.4 304.7,471.8 302.9,471.4 301.1,471.1 297.1,470.4 295.3,470 293.7,469.7 292.6,469.5
				289.8,469 287.8,468.7 285.9,468.3 281.2,467.5 279.3,467.1 277.5,466.8 273.6,466.1 271.7,465.7 270,465.4 266.5,464.8
				264.3,464.4 262.6,464.1 259,463.4 257.2,463.1 255.2,462.7 253.3,462.4 252,462.2 251.3,462 249.5,461.7 247.7,461.4 245.6,461
				244,460.7 242.2,460.4 240.3,460 237.2,459.5 235.5,459.1 			"/>
            <polygon class="st5" points="314.8,473.6 316.2,473.8 314.7,473.6 			"/>
            <polygon class="st5" points="308.5,472.4 310.2,472.7 308.5,472.4 			"/>
            <polygon class="st5" points="310.2,472.7 312.2,473.1 312.2,492.9 312.1,495.5 312.1,509.6 310,510 310.1,472.7 			"/>
            <polygon class="st5" points="285.9,468.3 287.8,468.7 285.8,468.3 			"/>
            <polygon class="st5" points="277.5,466.8 279.3,467.1 277.5,466.8 			"/>
            <polygon class="st5" points="270,465.4 271.7,465.7 269.9,465.4 			"/>
            <polygon class="st5" points="262.6,464.1 264.3,464.4 262.5,464.1 			"/>
            <polygon class="st5" points="255.2,462.7 257.2,463.1 255.1,462.7 			"/>
            <polygon class="st5" points="247.7,461.4 249.5,461.7 247.5,461.4 			"/>
            <polygon class="st5" points="240.3,460 242.2,460.4 240.1,460 			"/>
            <polygon class="st5" points="276.2,453.5 276.2,454.5 266.5,455.7 264,456.1 262.6,456.3 255.9,457.1 253.3,457.5 252.1,457.7
				245.6,458.5 244.5,458.6 241.4,458 			"/>
            <polygon class="st5" points="339.5,472.4 339.5,509.6 338,509.2 338,499.9 338,472.6 			"/>
            <polygon class="st5" points="349.4,470.9 349.4,507.7 347.9,507.4 347.9,502 347.9,471.1 			"/>
            <polygon class="st5" points="322.3,538.4 233.1,515.9 233.2,492.9 239.7,494.3 241.6,494.7 247.1,496 248.9,496.4 322.3,512.8
							"/>
            <polygon class="st5" points="363.2,529.7 322.3,538.4 322.3,512.8 363.2,505.1 			"/>
            <polygon class="st5" points="239.7,494.3 233.2,492.9 234,492.8 235.3,493.1 237.1,492.9 239.9,491.8 239.9,494.3 			"/>
            <polygon class="st5" points="237.1,492.9 235.3,493.1 235.5,459.1 237.2,459.5 237.1,492.3 			"/>
            <polygon class="st5" points="253.2,490.4 251.9,490.1 252,462.2 253.3,462.4 			"/>
            <polygon class="st5" points="255,490.1 253.2,490.4 253.3,462.4 255.2,462.7 			"/>
            <polygon class="st5" points="266.4,488.3 266.1,464.7 266.4,487.7 			"/>
            <polygon class="st5" points="247.1,496 241.6,494.7 243.8,494.4 243.8,491.8 245.5,491.6 247.4,490.7 247.4,495.9 			"/>
            <polygon class="st5" points="245.5,491.6 243.8,491.8 244,460.7 245.6,461 245.5,491 			"/>
            <polygon class="st5" points="316.2,473.8 318.2,474.2 318.2,495.9 318.2,510.9 316.1,511.3 			"/>
            <polygon class="st5" points="287.8,468.7 289.8,469 289.7,490 289.7,504.6 287.7,504.9 			"/>
            <polygon class="st5" points="279.3,467.1 281.2,467.5 281.1,488.2 281.1,502.7 279.2,503 			"/>
            <polygon class="st5" points="271.6,465.7 273.6,466.1 273.5,486.7 273.4,501 271.5,501.3 			"/>
            <polygon class="st5" points="264.2,464.4 266.1,464.7 266.1,488.3 266,499.3 264.1,499.7 			"/>
            <polygon class="st5" points="257.1,463.1 259,463.4 258.9,488.9 258.9,497.7 256.9,498 			"/>
            <path class="st5" d="M247.5,461.4l1.9,0.3L247.5,461.4z"/>
            <polygon class="st5" points="247.5,461.4 249.4,461.7 249.2,496.3 247.4,495.9 247.4,490.7 			"/>
            <polygon class="st5" points="249.4,461.7 251.3,462 251.2,490.1 251.2,496 249.2,496.3 			"/>
            <path class="st5" d="M240.1,460l1.9,0.3L240.1,460z"/>
            <polygon class="st5" points="242,460.4 244,460.7 243.8,491.8 243.8,494.4 241.8,494.7 			"/>
            <polygon class="st5" points="266.5,455.7 266.5,462.7 264,462.3 264,456.1 			"/>
            <polygon class="st5" points="264,456.1 264,462.3 262.6,462 262.6,456.3 			"/>
            <polygon class="st5" points="241.6,494.7 239.7,494.3 241.8,494.7 			"/>
            <polygon class="st5" points="248.9,496.4 247.1,496 249.2,496.3 			"/>
            <polygon class="st5" points="332.4,510.8 330,511.2 330.1,473.8 332.4,473.5 332.4,498.8 			"/>
            <polygon class="st5" points="330,511.2 328.5,510.9 328.5,498 328.6,474.1 330.1,473.8 			"/>
            <polygon class="st5" points="322.3,512.7 320.7,512.3 320.7,496.4 320.8,474.7 322.4,475 			"/>
            <polygon class="st5" points="322.3,512.7 322.4,475 324.4,474.7 324.3,497.1 324.3,512.3 			"/>
            <polygon class="st5" points="316.1,511.3 314.6,511 314.7,496 314.7,473.6 316.2,473.8 			"/>
            <polygon class="st5" points="310,510 308.4,509.6 308.5,494.8 308.5,492.2 308.5,472.4 310.1,472.7 			"/>
            <polygon class="st5" points="302.8,508.3 301,507.9 301.1,493.2 301.1,490.7 301.1,471.1 302.9,471.4 			"/>
            <polygon class="st5" points="302.8,508.3 302.9,471.4 304.7,471.8 304.7,491.4 304.7,494 304.6,507.9 			"/>
            <polygon class="st5" points="295.2,506.6 293.5,506.2 293.6,491.7 293.7,469.7 295.3,470 			"/>
            <polygon class="st5" points="295.2,506.6 295.3,470 297.1,470.4 297.1,489.8 297.1,492.4 297,506.2 			"/>
            <polygon class="st5" points="287.7,504.9 285.7,504.5 285.8,489.2 285.8,468.3 287.8,468.7 			"/>
            <polygon class="st5" points="279.2,503 277.4,502.6 277.4,487.5 277.5,466.8 279.3,467.1 			"/>
            <polygon class="st5" points="271.5,501.3 269.7,500.9 269.8,487.2 269.9,465.4 271.6,465.7 			"/>
            <polygon class="st5" points="264.1,499.7 262.3,499.3 262.4,488.3 262.5,464.1 264.2,464.4 			"/>
            <polygon class="st5" points="256.9,498 255,497.6 255,490.1 255.1,462.7 257.1,463.1 			"/>
            <polygon class="st5" points="241.8,494.7 239.9,494.3 239.9,491.8 240.1,460 242,460.4 			"/>
            <polygon class="st5" points="235.5,459.1 235.3,493.1 234,492.8 234.1,458.9 			"/>
            <polygon class="st5" points="255.9,457.1 255.9,460.8 253.3,460.3 253.3,457.5 			"/>
            <polygon class="st5" points="253.3,457.5 253.3,460.3 252.1,460 252.1,457.7 			"/>
            <path class="st5" d="M245.6,458.5l-1.1,0.1L245.6,458.5z"/>
		</g>
	</g>
</g>
</svg>
