<?xml version="1.0" encoding="utf-8"?>
<!-- Generator: Adobe Illustrator 25.0.1, SVG Export Plug-In . SVG Version: 6.00 Build 0)  -->
<svg version="1.1" id="katman_1" xmlns="http://www.w3.org/2000/svg" x="0px" y="0px"
     viewBox="0 0 841.9 595.3" style="enable-background:new 0 0 841.9 595.3;" xml:space="preserve">
<style type="text/css">
	.st0{fill:#8F6645;}
	.st1{fill:#EEEEEE;}
	.st2{fill:#DDDDDD;}
	.st3{fill:#3D3A37;}
	.st4{fill:#C4C4C4;}
	.st5{fill:#3D3A37;}
	.st6{fill:#000000;}
	.st7{fill:#FFFFFF;}
	.st8{fill:#888888;}
	.st9{fill:#7884AF;}
</style>


    <g id="body">
	<g>
		<polygon class="st4" points="305,573.5 180,539.9 186.2,195.4 186.3,192 243.6,69.7 306.9,161.6 308.8,162 				"/>
        <polygon class="st4" points="305,573.5 308.8,162 584.5,210.4 586.5,400.3 586.5,403.4 586.5,405.1 586.9,439.2 586.9,441.3
			587.8,523.7 				"/>
        <polygon class="st4" points="531.3,182.9 489.1,174.7 488.9,113.4 510.7,103.8 530.9,123.6 530.9,125 530.9,126.4 531,142.9
							"/>
        <polygon class="st4" points="488.9,113.4 489.1,174.7 446.2,124.8 				"/>
        <polygon class="st4" points="366.3,150.8 324.8,95.9 366.2,81.6 				"/>
        <polygon class="st4" points="366.3,150.8 366.6,81.4 393.7,71.7 419.3,94.9 419.3,99.7 419.3,105.5 419.2,161.1 				"/>
        <polygon class="st0" points="595.7,522.8 589.3,523.9 588.4,441.4 673.7,434.4 674.9,508.9 670.7,509.6 669.6,441.8
			666.9,442.1 594.9,448.7 595.1,466.7 595.3,485.2 595.5,503.6 595.7,522.1 				"/>
	</g>
        <polygon class="st0" points="670.6,509.5 668.7,509.3 667.5,492.5 668.5,492.3 667.2,475.5 668.3,475.4 666.9,458.6 667.8,458.5
		666.7,442 669.5,441.8 			"/>
</g>


    <g id="roof">
	<g>
		<polygon class="st8" points="667.8,492.7 669,509.5 595.9,522.2 595.7,503.7 			"/>
        <polygon class="st8" points="667.5,475.7 668.8,492.5 667.8,492.7 595.7,503.7 595.5,485.3 			"/>
        <polygon class="st8" points="667.2,458.8 668.6,475.6 667.5,475.7 595.5,485.3 595.3,466.8 			"/>
        <polygon class="st8" points="667.1,442.2 668.1,458.7 667.2,458.8 595.3,466.8 595.1,448.8 			"/>
	</g>
        <g>
		<polygon class="st3" points="322.3,93.3 339.3,87.2 342.5,86 394.6,67.7 365.1,78.3 321.4,93.6 323.8,92.8 			"/>
            <polygon class="st3" points="339.3,87.2 322.3,93.3 323.8,92.8 321.4,93.6 321.9,94.7 323.2,96 324.8,95.4 366.3,150.3
			419.2,160.6 419.2,105 458.9,114.8 455.2,115.8 443.9,122.3 445.2,121.9 442.4,123.1 444.2,124.9 446.2,124.3 489.1,174.2
			531.2,182.4 531,142.4 591.9,207.9 586.1,206.9 583.5,206.4 478.4,187.5 309,157.1 242.5,61.3 342.5,86 			"/>
            <polygon class="st1" points="323.2,96 321.9,94.7 321.4,93.6 365.1,78.3 366.1,81.1 324.8,95.4 			"/>
            <polygon class="st1" points="444.2,124.9 442.3,123.2 488.6,110.6 489.3,112.8 446.2,124.3 			"/>
            <polygon class="st3" points="442.3,123.2 445.2,121.9 443.9,122.3 455.2,115.8 458.9,114.8 513,99.9 488.6,110.6 			"/>
            <polygon class="st1" points="366.1,81.1 365.1,78.3 394.6,67.7 396.5,68.3 426,95.3 425.1,97.4 395.5,70.5 393.6,71.2
			366.6,80.9 			"/>
            <polygon class="st1" points="186.2,194.9 180.6,194.1 182.1,191 186.2,191.5 			"/>
            <polygon class="st3" points="186.2,191.5 182.1,191 240.7,65.1 243.6,69.2 			"/>
            <polygon class="st3" points="182.1,191 180.6,194.1 179.3,191.5 239.1,62.6 242.5,61.3 309,157.1 308.6,157.9 306.9,161.1
			243.6,69.2 240.7,65.1 			"/>
            <polygon class="st1" points="514.3,100.5 537,122.9 536.5,124.5 535.4,123.4 513.7,102 510.7,103.3 489.3,112.8 488.6,110.6
			513,99.9 			"/>
            <polygon class="st3" points="423.2,98 419.3,99.2 419.3,94.4 			"/>
            <polygon class="st3" points="530.8,123.1 510.7,103.3 513.7,102 535.4,123.4 530.8,124.5 			"/>
            <polygon class="st3" points="425.1,97.4 423.2,98 419.3,94.4 393.6,71.2 395.5,70.5 			"/>
            <polygon class="st3" points="588.4,440.9 586.9,440.8 586.9,438.7 			"/>
            <polygon class="st3" points="673.6,433.9 588.4,440.9 589.5,439 674.7,432.2 			"/>
            <polygon class="st3" points="674.7,432.2 589.5,439 588.8,404.9 632.4,403 			"/>
            <path class="st2" d="M587.1,438.7l-0.6-34.1L587.1,438.7z"/>
            <polygon class="st2" points="589.5,439 588.4,440.9 587.1,438.7 			"/>
            <polygon class="st2" points="589.5,439 587.1,438.7 586.6,404.6 588.8,404.9 			"/>
            <polygon class="st2" points="588.8,404.9 586.6,404.6 587.7,403 			"/>
            <path class="st2" d="M674.5,432L632.4,403L674.5,432z"/>
            <path class="st2" d="M632.3,402.9l-1-1.7L632.3,402.9z"/>
            <polygon class="st2" points="631.3,401.2 632.4,403 588.8,404.9 587.7,403 			"/>
            <polygon class="st2" points="631.3,401.2 587.7,403 586.5,402.9 586.5,399.9 			"/>
            <polygon class="st2" points="587.7,403 586.6,404.6 586.5,402.9 			"/>
            <polygon class="st2" points="530.8,124.5 535.4,123.4 536.5,124.5 530.9,125.9 			"/>
            <polygon class="st2" points="591.9,207.9 589.8,210.9 587,207.9 586.1,206.9 			"/>
            <polygon class="st2" points="587,207.9 589.8,210.9 584.5,209.9 308.7,161.5 306.9,161.1 308.5,158.1 477.7,188.3 584.4,207.4
						"/>
            <polygon class="st2" points="308.8,158.1 309,157.1 478.2,187.5 477.7,188.3 			"/>
            <polygon class="st2" points="477.7,188.3 478.2,187.5 477.8,188.4 			"/>
            <polygon class="st2" points="477.8,188.4 478.4,187.5 583.5,206.4 584.4,207.4 			"/>
            <polygon class="st2" points="584.4,207.4 583.5,206.4 586.1,206.9 587,207.9 			"/>
	</g>
</g>


    <g id="chimney">
	<polygon class="st5" points="264.2,501.9 238.9,504.6 243.1,219.6 267.8,222.6 			"/>
        <polygon class="st5" points="238.9,504.6 264.2,501.9 263.4,563.6 238,567.6 			"/>
        <polygon class="st5" points="238.9,504.6 238,567.6 201.7,557.2 202.7,497.5 			"/>
        <polygon class="st5" points="238.9,504.6 202.7,497.5 207.4,227.4 243.1,219.6 			"/>
        <polygon class="st5" points="265.7,23.1 263.3,201.3 243.7,198.6 246.3,17.6 			"/>
        <polygon class="st6" points="207.4,227.4 216.9,205.2 243.7,198.6 243.1,219.6 			"/>
        <polygon class="st6" points="267.8,222.6 243.1,219.6 243.7,198.6 263.3,201.3 			"/>
        <polygon class="st6" points="217,204.8 219.8,31.1 246.3,17.6 243.7,198.6 216.9,205.2 			"/>
</g>


    <g id="right-window">
	<g>
		<g>
			<polygon class="st7" points="355.9,310.7 355.4,385.7 353.1,385.7 353.6,310.9 				"/>
            <path class="st7" d="M355.4,385.7l0.4-75l94,4.7l0.1,68.7L355.4,385.7z M445.5,379.3l0-43.9l-38.1-1.2l-4.7-0.2l-41.7-1.3
				l-0.3,47.6L445.5,379.3z M407.4,318.4l0,11l38.1,1.3l0-10.6L407.4,318.4z M361,316.3l-0.1,11.6l41.7,1.5l0-11.2L361,316.3z"/>
		</g>
        <g>
			<polygon class="st9" points="445.5,335.4 445.5,379.3 360.7,380.3 360.9,332.7 402.7,334 407.4,334.2 				"/>
            <polygon class="st9" points="407.4,329.4 407.4,318.4 445.5,320.1 445.5,330.7 				"/>
            <polygon class="st9" points="361,327.9 361,316.3 402.7,318.2 402.7,329.3 				"/>
		</g>
	</g>

        <g>
		<g>
			<polygon class="st7" points="489.1,317.4 489.3,383.5 486.9,383.5 486.7,317.5 				"/>
            <path class="st7" d="M489.3,383.5l-0.2-66.1l73.8,3.7l0.6,61.2L489.3,383.5z M559.9,378l-0.3-39.1l-30.1-0.9l-3.7-0.2l-32.6-1
				l0.2,42L559.9,378z M529.4,323.9l0.1,9.8l30.1,1.1l-0.1-9.5L529.4,323.9z M493.1,322.3l0,10.2l32.6,1.1l-0.1-9.9L493.1,322.3z"
            />
		</g>
            <g>
			<polygon class="st9" points="559.5,338.9 559.9,378 493.3,378.7 493.2,336.8 525.8,337.8 529.4,338 				"/>
                <polygon class="st9" points="529.4,333.7 529.4,323.9 559.4,325.3 559.5,334.8 				"/>
                <polygon class="st9" points="493.1,332.5 493.1,322.3 525.7,323.8 525.7,333.6 				"/>
		</g>
	</g>

</g>


    <g>
	<g>
		<g>
			<polygon class="st0" points="450.5,531 492.5,524.4 492.5,523.5 504.5,521.6 534,526.3 460,538.9 430.6,533.4 450.5,530.2 			"/>
            <polygon class="st0" points="430.6,549.9 430.6,533.4 460,538.9 460,555.9 			"/>
            <polygon class="st4" points="534.1,542.1 460,555.9 460,538.9 534,526.3 			"/>
		</g>

        <g>
			<g>
				<polygon class="st7" points="353.6,446.8 353.1,523.5 350.8,523 351.3,446.5 				"/>
                <path class="st7" d="M353.1,523.5l0.5-76.7l59.3-4.2l-0.1,72.6L353.1,523.5z M409.9,510.4l0.1-46.4l-24.5,2.2l-3,0.2l-25.9,2.3
					l-0.3,48.8L409.9,510.4z M385.6,449.8l0,11.5l24.5-2.1l0-11.2L385.6,449.8z M356.7,452l-0.1,11.9l25.9-2.2l0.1-11.6L356.7,452z"
                />
			</g>
            <polygon class="st8" points="410.5,442.4 412.9,442.6 353.6,446.8 351.3,446.5 			"/>
            <g>
				<polygon class="st9" points="410,464.1 409.9,510.4 356.4,517.6 356.6,468.8 382.6,466.5 385.5,466.3 				"/>
                <polygon class="st9" points="385.5,461.3 385.6,449.8 410,448 410,459.2 				"/>
                <polygon class="st9" points="356.7,463.8 356.7,452 382.6,450 382.6,461.6 				"/>
			</g>
		</g>


        <g>
			<g>
				<polygon class="st7" points="494.6,118.4 494.7,162.4 492.4,162.9 492.3,119 				"/>
                <path class="st7" d="M494.7,162.4l-0.2-44l33.2,8.3l0.3,42.5L494.7,162.4z M526.4,165.9l-0.1-17l-13.8-3.1l0.1,17.2
					L526.4,165.9z M512.4,126l0.1,17.1l13.8,3.2l-0.1-16.9L512.4,126z M496.3,122l0.1,17.4l14.4,3.3l-0.1-17.2L496.3,122z
					 M510.9,162.7l-0.1-17.2l-14.4-3.3l0.1,17.5L510.9,162.7z"/>
                <polygon class="st7" points="494.7,162.4 528.1,169.3 525.8,169.7 492.4,162.9 				"/>
			</g>
            <g>
				<polygon class="st9" points="526.3,148.9 526.4,165.9 512.6,163 512.5,145.8 				"/>
                <polygon class="st9" points="512.5,143.1 512.4,126 526.2,129.4 526.3,146.3 				"/>
                <polygon class="st9" points="496.4,139.4 496.3,122 510.7,125.5 510.8,142.7 				"/>
                <polygon class="st9" points="510.8,145.4 510.9,162.7 496.5,159.6 496.4,142.1 				"/>
			</g>
		</g>


        <g>
			<g>
				<polygon class="st7" points="521.2,434.9 521.6,500 519.2,499.7 518.8,434.7 				"/>
                <path class="st7" d="M521.6,500l-0.4-65.1l43.3-3l0.6,62.2L521.6,500z M562.9,489.8l-0.4-39.7l-17.9,1.6l-2.2,0.1l-18.9,1.7
					l0.3,41.4L562.9,489.8z M544.6,437.7l0.1,9.8l17.9-1.5l-0.1-9.6L544.6,437.7z M523.5,439.3l0.1,10.1l18.8-1.6l-0.1-9.9
					L523.5,439.3z"/>
			</g>
            <polygon class="st7" points="562.1,431.7 564.5,431.8 521.2,434.9 518.8,434.7 			"/>
            <g>
				<polygon class="st9" points="562.6,450.2 562.9,489.8 523.9,495 523.6,453.6 542.5,451.9 544.7,451.8 				"/>
                <polygon class="st9" points="544.6,447.5 544.6,437.7 562.5,436.4 562.5,446 				"/>
                <polygon class="st9" points="523.6,449.4 523.5,439.3 542.4,437.9 542.5,447.8 				"/>
			</g>
		</g>
        <g>
			<g>
				<polygon class="st7" points="373.2,87.7 373,137 370.7,137.6 371,88.4 				"/>
                <path class="st7" d="M373,137l0.2-49.3l41.7,10.5l-0.1,47.5L373,137z M412.8,141.8l0-19l-17.4-3.9l-0.1,19.3L412.8,141.8z
					 M395.6,96.7l-0.1,19.2l17.4,4l0-18.9L395.6,96.7z M375.4,91.7l-0.1,19.5l18.1,4.2l0.1-19.2L375.4,91.7z M393.4,137.7l0.1-19.3
					l-18.1-4.1l-0.1,19.6L393.4,137.7z"/>
                <polygon class="st7" points="373,137 414.9,145.6 412.6,146.2 370.7,137.6 				"/>
			</g>
            <g>
				<polygon class="st9" points="412.9,122.9 412.8,141.8 395.5,138.2 395.5,118.9 				"/>
                <polygon class="st9" points="395.5,115.9 395.6,96.7 412.9,101 412.9,119.9 				"/>
                <polygon class="st9" points="375.3,111.3 375.4,91.7 393.5,96.2 393.4,115.4 				"/>
                <polygon class="st9" points="393.4,118.4 393.4,137.7 375.2,133.9 375.3,114.3 				"/>
			</g>
		</g>
        <g>
			<g>
				<polygon class="st7" points="357.1,182 356.6,255.7 354.3,256 354.8,182.5 				"/>
                <path class="st7" d="M356.6,255.7l0.4-73.7l93.2,15.3l0.1,67.6L356.6,255.7z M445.9,259.7l0-43.2l-37.8-5.5l-4.7-0.8l-41.4-6
					l-0.3,46.8L445.9,259.7z M408.1,195.4l0,10.8l37.8,5.7l0-10.5L408.1,195.4z M362.2,188l-0.1,11.4l41.3,6.2l0-11L362.2,188z"/>
                <polygon class="st7" points="356.6,255.7 450.3,264.9 447.9,265.2 354.3,256 				"/>
			</g>
            <g>
				<polygon class="st9" points="445.9,216.4 445.9,259.7 361.8,250.9 362.1,204.2 403.4,210.2 408.1,210.9 				"/>
                <polygon class="st9" points="408.1,206.2 408.1,195.4 445.9,201.4 445.9,211.9 				"/>
                <polygon class="st9" points="362.1,199.4 362.2,188 403.5,194.6 403.4,205.6 				"/>
			</g>
		</g>
        <g>
			<g>
				<polygon class="st7" points="489.1,203.8 489.3,268.8 487,269.1 486.7,204.2 				"/>
                <path class="st7" d="M489.3,268.8l-0.2-65.1l73.3,12.1l0.5,60.3L489.3,268.8z M559.4,271.4l-0.3-38.5l-29.9-4.3l-3.7-0.6
					l-32.4-4.7l0.2,41.3L559.4,271.4z M529.1,214.8l0.1,9.6l29.9,4.5l-0.1-9.3L529.1,214.8z M493.1,209l0,10.1l32.4,4.9l-0.1-9.7
					L493.1,209z"/>
                <polygon class="st7" points="489.3,268.8 562.9,276.1 560.5,276.3 487,269.1 				"/>
			</g>
            <g>
				<polygon class="st9" points="559,232.9 559.4,271.4 493.3,264.6 493.2,223.3 525.5,228 529.2,228.6 				"/>
                <polygon class="st9" points="529.2,224.4 529.1,214.8 558.9,219.5 559,228.9 				"/>
                <polygon class="st9" points="493.1,219.1 493.1,209 525.4,214.2 525.5,223.9 				"/>
			</g>
		</g>
        <g>
			<g>
				<polygon class="st9" points="488.4,439.7 488.5,458.5 472.8,460 472.7,440.8 				"/>
                <polygon class="st9" points="472.7,437.9 472.7,418.8 488.3,418 488.4,436.8 				"/>
                <polygon class="st9" points="454.5,439.1 454.5,419.7 470.8,418.9 470.8,438 				"/>
                <polygon class="st9" points="470.8,441 470.9,460.2 454.5,461.6 454.5,442.2 				"/>
			</g>
            <g>
				<path class="st7" d="M492.6,524l-42,6.6v-0.8l0-2.9l-0.1-111.1l0-2.7l41.7-1.9l0.4,111.8L492.6,524z M452.5,416l0.1,111.4
					l37.9-5.9l-0.4-107.3L452.5,416z"/>
                <path class="st8" d="M452.6,527.3L452.5,416l37.7-1.8l0.4,107.3L452.6,527.3z M488.5,458.1l-0.1-18.8l-15.7,1.1l0,19.1
					L488.5,458.1z M472.7,418.4l0.1,19.1l15.7-1.1l-0.1-18.8L472.7,418.4z M454.5,419.3l0,19.4l16.3-1.1l-0.1-19.1L454.5,419.3z
					 M470.9,459.8l0-19.2l-16.4,1.2l0,19.5L470.9,459.8z M455.6,484.9l0.7,0.2l1.9,0.3l0.7,0l0.7-0.3l0.7-0.5l0.5-0.7l0.4-0.9l0.2-1
					l0-1l-0.2-1l-0.3-0.9l-0.5-0.7l-0.6-0.5l-0.7-0.2l-1.9-0.2l-0.7,0l-0.7,0.3l-0.7,0.5l-0.5,0.7l-0.4,0.9l-0.2,1l0,1l0.2,1
					l0.3,0.9l0.5,0.7L455.6,484.9z"/>
                <polygon class="st7" points="456,481 456.3,480 456.7,479.1 457.2,478.4 457.9,477.8 458.6,477.6 459.3,477.5 460,477.8
					460.6,478.3 461.1,479 461.5,479.9 461.6,480.9 461.6,481.9 461.3,482.9 460.9,483.8 460.4,484.6 459.7,485.1 459,485.4
					458.3,485.4 457.6,485.2 457,484.7 456.5,484 456.1,483.1 456,482.1 				"/>
			</g>
		</g>
	</g>
</g>
</svg>
