<?xml version="1.0" encoding="utf-8"?>
<!-- Generator: Adobe Illustrator 25.0.1, SVG Export Plug-In . SVG Version: 6.00 Build 0)  -->
<svg version="1.1" id="katman_1" xmlns="http://www.w3.org/2000/svg" x="0px" y="0px"
     viewBox="0 0 841.9 595.3" style="enable-background:new 0 0 841.9 595.3;" xml:space="preserve">
<style type="text/css">
	.st0{fill:#8F6645;}
	.st1{fill:#EEEEEE;}
	.st2{fill:#DDDDDD;}
	.st3{fill:#3D3A37;}
	.st4{fill:#C4C4C4;}
	.st5{fill:#3D3A37;}
	.st6{fill:#000000;}
	.st7{fill:#FFFFFF;}
	.st8{fill:#888888;}
	.st9{fill:#7884AF;}
</style>


    <g id="chimney">
	<polygon class="st6" points="240.2,50.1 242.7,218.4 223.1,221.1 220.8,52.6 		"/>
        <polygon class="st5" points="243.3,239.4 242.7,218.4 269.5,225 279,247.2 		"/>
        <polygon class="st5" points="223.1,221.1 242.7,218.4 243.3,239.4 218.6,242.4 		"/>
        <polygon class="st5" points="269.5,225 242.7,218.4 240.2,50.1 266.6,50.9 269.4,224.6 		"/>
</g>


    <g id="body">
	<polygon class="st4" points="161.7,501.9 167.1,179.8 414.9,135 415,437.1 415,437.9 415.1,550.2 				"/>
        <polygon class="st4" points="368.7,121.7 321.1,131.3 321.4,74.8 321.5,67.6 321.5,65.8 321.5,63.8 344.3,41.1 367.7,51.3
				368.9,51.6 				"/>
        <polygon class="st4" points="368.7,121.7 368.9,51.6 418,64.5 				"/>
        <polygon class="st4" points="306.7,91.8 257.7,144 258.3,81.2 259.3,81.8 				"/>
        <polygon class="st4" points="220,90.8 238.6,71 258.3,81.2 257.7,144 219.2,151.8 219.7,117 220,92.8 				"/>
        <polygon class="st0" points="415,437.1 414.9,135 415.6,134.9 494.6,37.5 564.7,161.2 564.7,164.6 567.1,387.6 479.1,392.6
				477.1,394.8 				"/>
        <polygon class="st0" points="426.7,552.6 416.7,550.7 416.7,550 416.6,440.5 582.3,455.9 583.8,582.6 573.6,580.7 573.6,579.6
				573.3,551.2 572.9,522.9 572.6,494.4 572.3,466.9 429.9,452.4 426.6,452 				"/>
        <polygon class="st0" points="728.7,541.8 583.8,582.6 582.3,455.9 726.4,436.2 				"/>
</g>


    <g id="roof">
	<polygon class="st6" points="478.3,395.2 477.4,394.6 479.4,392.5 			"/>
        <g>
		<polygon class="st8" points="415.4,550.1 415.3,437.7 416.9,440.4 417,549.8 				"/>
            <polygon class="st8" points="415.7,437.9 416.9,440.4 415.3,437.7 				"/>
            <polygon class="st6" points="427,552.4 426.9,451.9 430.2,452.2 429.2,476.6 430.3,476.7 429,501.7 430.3,501.9 429.2,526.8
				430.4,527 429.3,551.9 				"/>
            <polygon class="st8" points="429.3,551.9 430.4,527 573.6,551 573.9,579.4 				"/>
            <polygon class="st8" points="429.2,526.8 430.3,501.9 573.2,522.7 573.6,551 430.4,527 				"/>
            <polygon class="st8" points="429,501.7 430.3,476.7 572.9,494.3 573.2,522.7 430.3,501.9 				"/>
            <polygon class="st8" points="429.2,476.6 430.2,452.2 572.6,466.8 572.9,494.3 430.3,476.7 				"/>
		</g>
        <g>
		<polygon class="st3" points="309.2,93.3 311.7,91.3 308.6,89.7 310.4,90.1 302.2,82.8 298.4,81.9 321.9,75.9 321.6,132.3
			369.2,122.7 418.5,65.5 420.3,65.9 422.2,64.3 419.5,63 420.9,63.4 408.2,56.2 403.7,55 495.6,31.5 413.7,131.8 287.5,155.2
			168.6,177.1 166.3,177.6 159.7,178.8 220.2,118 219.7,152.8 258.2,145 307.2,92.9 				"/>
            <polygon class="st2" points="311.7,91.3 309.2,93.3 307.2,92.9 259.8,82.8 260.5,80.3 				"/>
            <polygon class="st2" points="311.6,91.2 260.5,80.3 238,68.6 298.4,81.9 302.2,82.8 310.4,90.1 308.6,89.7 				"/>
            <polygon class="st2" points="422.2,64.3 420.3,65.9 418.5,65.5 369.4,52.6 368.2,52.3 368.9,50.1 422.3,64.2 				"/>
            <polygon class="st1" points="219,93.5 216.8,93.1 237.3,71 239.1,72 220.5,91.8 				"/>
            <polygon class="st2" points="216.8,93.1 216.2,91.1 236.6,69 238,68.6 260.5,80.3 259.8,82.8 258.8,82.3 239.1,72 237.3,71
				"/>
            <polygon class="st1" points="570.8,164.8 565.2,165.6 565.2,162.2 569,161.6 				"/>
            <polygon class="st1" points="499.7,32.7 572.5,162.1 570.8,164.8 569,161.6 497.7,35.3 495.1,38.5 416.1,135.9 414.3,132.8
				413.7,131.8 495.6,31.5 				"/>
            <polygon class="st2" points="344.8,42.1 322,64.8 320.3,66.5 318.9,67.9 314.9,67 341.3,40.5 				"/>
            <polygon class="st2" points="497.7,35.3 569,161.6 565.2,162.2 495.1,38.5 				"/>
            <polygon class="st1" points="162.1,181.8 159.7,178.8 166.3,177.6 165.2,178.6 				"/>
            <polygon class="st1" points="165.2,178.6 166.3,177.6 168.6,177.1 167.6,178.2 				"/>
            <polygon class="st1" points="167.6,178.2 168.6,177.1 286.8,155.3 287.5,156.1 				"/>
            <polygon class="st1" points="287.5,156.1 286.8,155.3 288.1,156 				"/>
            <polygon class="st1" points="288.1,156 287.5,155.2 413.7,131.8 414.3,132.8 				"/>
            <polygon class="st1" points="162.1,181.8 165.2,178.6 167.6,178.2 287.5,156.1 414.3,132.8 416.1,135.9 415.4,136 167.6,180.8
								"/>
            <polygon class="st2" points="322,68.6 318.9,67.9 320.3,66.5 322,66.9 				"/>
            <polygon class="st2" points="727.9,434.2 728.9,434.9 667,393.3 				"/>
            <g>
			<polygon class="st1" points="731.7,433.2 587.6,452.9 589.8,449.9 733.7,430.8 					"/>
                <polygon class="st1" points="587.6,452.9 421.9,437.5 420.7,435 586.4,450 					"/>
                <polygon class="st3" points="586.4,450 420.7,435 483.3,392.3 566.7,396.4 					"/>
                <polygon class="st3" points="733.7,430.8 589.8,449.9 570,396.3 671.8,389.2 					"/>
                <polygon class="st3" points="420.7,435 420,434.3 482.4,391.7 483.3,392.3 					"/>
                <polygon class="st3" points="589.8,449.9 587.6,452.9 586.4,450 					"/>
                <polygon class="st3" points="589.8,449.9 586.4,450 566.7,396.4 570,396.3 					"/>
                <polygon class="st4" points="570,396.3 566.7,396.4 567.9,393.6 					"/>
                <polygon class="st4" points="567.9,393.6 566.7,396.4 483.3,392.3 484.4,389.6 					"/>
                <polygon class="st4" points="567.9,393.6 484.4,389.6 572.4,384.6 589.3,383.7 669.8,386.8 					"/>
                <polygon class="st4" points="570,396.3 567.9,393.6 669.8,386.8 671.8,389.2 					"/>
			</g>
            <polygon class="st4" points="422.3,64.2 368.9,50.1 342,38.4 403.7,55 408.2,56.2 420.9,63.4 419.5,63 				"/>
            <polygon class="st4" points="342,38.4 368.9,50.1 368.2,52.3 344.8,42.1 341.3,40.5 314.9,67 314.2,65 340.6,38.6 				"/>
            <polygon class="st4" points="219,93.5 220.5,91.8 220.5,93.8 				"/>
            <polygon class="st4" points="322,66.9 320.3,66.5 322,64.8 				"/>
		</g>
</g>


    <g id="right-window">
	<g>
		<path class="st7" d="M192.5,358.7l0.9-62.5L260,293l-0.7,67.2L192.5,358.7z M255.8,355.4l0.5-42.6l-29.2,0.8h-3.3l-27.4,0.8
			l-0.6,40L255.8,355.4z M227.3,299.2l-0.1,10l29.2-0.9l0.1-10.3L227.3,299.2z M196.6,300.5l-0.1,9.7l27.4-0.9l0.1-10L196.6,300.5
			z"/>
        <polygon class="st7" points="262.8,293.1 262.1,360.2 259.4,360.2 260.1,293 				"/>
	</g>

        <g>
		<polygon class="st9" points="256.3,312.8 255.8,355.4 195.8,354.3 196.4,314.3 223.8,313.6 227.1,313.6 				"/>
            <polygon class="st9" points="227.2,309.2 227.3,299.2 256.5,297.9 256.3,308.3 				"/>
            <polygon class="st9" points="196.4,310.3 196.6,300.5 224,299.4 223.8,309.4 				"/>
	</g>


        <g>
		<path class="st7" d="M295,361.1l0.5-69.7l83.8-4.1l-0.2,75.7L295,361.1z M374.6,357.5l0.1-48l-36.9,1h-4.2l-34.4,0.9l-0.3,44.6
			L374.6,357.5z M337.9,294.4l-0.1,11.2l36.9-1.2v-11.6L337.9,294.4z M299.4,296.1l-0.1,10.9l34.3-1.1l0.1-11.2L299.4,296.1z"/>
            <polygon class="st7" points="382.1,287.4 381.9,362.9 379.2,363 379.3,287.3 				"/>
	</g>
        <g>
		<polygon class="st9" points="374.7,309.5 374.6,357.5 298.9,356.1 299.3,311.5 333.6,310.6 337.8,310.5 				"/>
            <polygon class="st9" points="337.8,305.6 337.9,294.4 374.7,292.8 374.7,304.5 				"/>
            <polygon class="st9" points="299.3,307 299.4,296.1 333.7,294.6 333.7,305.9 				"/>
	</g>
</g>


    <g>
	<g>
		<g>
			<g>
				<polygon class="st0" points="257,503.7 294.5,510.4 294.5,509.4 312.2,512.5 278.8,517.6 212.5,505.3 245.5,500.9 257,502.9 
									"/>
                <polygon class="st0" points="312.2,512.5 312.1,529.2 278.6,534.8 278.8,517.6 				"/>
                <polygon class="st4" points="278.6,534.8 212.3,521.4 212.5,505.3 278.8,517.6 				"/>
			</g>
            <g>
				<path class="st7" d="M188.4,472.6l1-63.4l38.8,3.2l-0.8,66.3L188.4,472.6z M225.3,473.6l0.5-42.1l-16.8-1.7l-1.9-0.3l-16.2-1.7
					l-0.6,40.5L225.3,473.6z M209.3,415.4l-0.1,10l16.7,1.6l0.1-10.2L209.3,415.4z M191.2,413.8l-0.1,9.9l16.2,1.6l0.1-10.1
					L191.2,413.8z"/>
                <polygon class="st7" points="230,478.3 227.3,478.6 228.1,412.3 230.8,412.2 230.5,442.3 230.4,445 				"/>
                <polygon class="st7" points="230.8,412.2 228.1,412.3 189.4,409.2 192,409 				"/>
			</g>
            <path class="st7" d="M296.2,393.7h-0.9H296.2z"/>
            <g>
				<polygon class="st7" points="452.9,149.9 453.2,232.4 449.3,232.8 449.1,150.5 				"/>
                <path class="st7" d="M453.2,232.4l-0.3-82.6l91.3,17.4l0.7,75L453.2,232.4z M540.6,187.6l-0.1-14.7l-23.9-4.4l0.1,15.1
					L540.6,187.6z M517,232.7l24,2.7l-0.4-43.4l-24-3.9L517,232.7z M457.7,173.7l20,3.4l-0.1-15.7l-20-3.7L457.7,173.7z
					 M480.8,161.9l0.1,15.7l32.6,5.5l-0.1-15.1L480.8,161.9z M477.7,181.8l-20-3.3l0.2,47.4l20,2.3L477.7,181.8z M513.6,187.6
					l-32.7-5.3l0.2,46.3l32.8,3.8L513.6,187.6z"/>
			</g>
            <polygon class="st7" points="449.3,232.8 453.2,232.4 544.9,242.3 541.1,242.6 			"/>

            <g>
				<polygon class="st9" points="540.4,172.9 540.6,187.6 516.6,183.6 516.5,168.5 				"/>

                <polygon class="st9" points="541,235.5 517,232.7 516.6,188.1 540.6,192 				"/>

                <polygon class="st9" points="477.6,177 457.7,173.7 457.6,157.6 477.6,161.3 				"/>

                <polygon class="st9" points="480.9,177.6 480.8,161.9 513.5,167.9 513.6,183.1 				"/>

                <polygon class="st9" points="457.7,178.5 477.7,181.8 477.9,228.2 457.8,226 				"/>

                <polygon class="st9" points="480.9,182.3 513.6,187.6 513.9,232.4 481.2,228.6 				"/>
			</g>

            <g>
				<polygon class="st9" points="225.9,431.5 225.3,473.6 190.4,468.3 191,427.8 207.2,429.5 209.1,429.8 				"/>
                <polygon class="st9" points="209.2,425.4 209.3,415.4 226,416.9 225.9,427.1 				"/>
                <polygon class="st9" points="191,423.7 191.2,413.8 207.4,415.2 207.2,425.3 				"/>
			</g>


            <g>
				<path class="st7" d="M324.1,120.6l0.3-47.9l36.7-9.8l-0.2,49.6L324.1,120.6z M358.9,109.4l0.1-19.7l-15.8,3.8l-0.1,19.4
					L358.9,109.4z M343.3,71.1l-0.1,19.4l15.8-3.8l0.1-19.7L343.3,71.1z M326.1,75.6l-0.1,19l15.4-3.7l0.1-19.3L326.1,75.6z
					 M341.3,113.4l0.1-19.4L326,97.7l-0.1,19.1L341.3,113.4z"/>
                <polygon class="st7" points="363.6,63.6 363.5,113.1 360.9,112.6 361,62.9 				"/>
                <polygon class="st7" points="360.9,112.6 363.5,113.1 326.7,121.1 324.1,120.6 				"/>
			</g>
            <g>
				
				<polygon class="st9" points="359,89.7 358.9,109.4 343.1,113 343.2,93.5 				"/>
                <polygon class="st9" points="343.2,90.5 343.3,71.1 359.1,67 359,86.6 				"/>
                <polygon class="st9" points="326,94.7 326.1,75.6 341.5,71.6 341.4,90.9 				"/>
                <polygon class="st9" points="341.4,94 341.3,113.4 325.9,116.8 326,97.7 				"/>
			</g>


            <g>
				<polygon class="st7" points="453.3,281.4 453.6,365.5 449.7,365.4 449.4,281.6 				"/>
                <path class="st7" d="M453.6,365.5l-0.3-84.1l92,5.3L546,363L453.6,365.5z M541.7,307.9l-0.1-15l-24.1-1.2l0.1,15.4L541.7,307.9
					z M517.9,357.1l24.2-0.5l-0.4-44.2l-24.2-0.7L517.9,357.1z M458.1,305.1l20.1,0.7l-0.1-16l-20.1-1L458.1,305.1z M481.5,289.9
					l0.1,16l32.9,1.1l-0.1-15.4L481.5,289.9z M478.3,310.6l-20.1-0.6l0.2,48.3l20.2-0.4L478.3,310.6z M514.5,311.6l-32.9-1l0.2,47.1
					l33-0.7L514.5,311.6z"/>
			</g>
            <g>
				<polygon class="st9" points="541.5,293 541.7,307.9 517.5,307.1 517.4,291.7 				"/>
                <polygon class="st9" points="542.1,356.6 517.9,357.1 517.6,311.7 541.7,312.4 				"/>
                <polygon class="st9" points="478.3,305.7 458.1,305.1 458.1,288.7 478.2,289.7 				"/>
                <polygon class="st9" points="481.6,305.9 481.5,289.9 514.4,291.6 514.5,307 				"/>
                <polygon class="st9" points="458.1,310 478.3,310.6 478.5,357.9 458.3,358.3 				"/>
                <polygon class="st9" points="481.6,310.7 514.5,311.6 514.8,357.1 481.8,357.8 				"/>
			</g>

            <g>
				<path class="st7" d="M325.6,493.6l0.4-73.4l52.3,4.3l-0.2,77.3L325.6,493.6z M375.3,495.7l0.1-49l-22.7-2.3l-2.6-0.4l-21.8-2.2
					l-0.3,46.9L375.3,495.7z M352.8,427.7v11.6l22.7,2.2v-11.9L352.8,427.7z M328.5,425.6l-0.1,11.4l21.8,2.1v-11.7L328.5,425.6z"/>
                <polygon class="st7" points="381,424.2 380.9,501.3 378.1,501.7 378.3,424.4 				"/>
                <polygon class="st7" points="381,424.2 378.3,424.4 326,420.2 328.7,420 				"/>
			</g>
            <g>

				<polygon class="st9" points="375.4,446.7 375.3,495.7 328.1,488.7 328.4,441.8 350.1,444 352.8,444.4 				"/>
                <polygon class="st9" points="352.8,439.3 352.8,427.7 375.5,429.7 375.4,441.5 				"/>
                <polygon class="st9" points="328.4,437 328.5,425.6 350.2,427.5 350.2,439.2 				"/>
			</g>

            <g>
				<path class="st7" d="M222.5,142.5l0.6-43.2l29.5-7.9l-0.5,44.6L222.5,142.5z M250.6,133.2l0.2-17.7l-12.7,3.1l-0.2,17.5
					L250.6,133.2z M238.4,98.4l-0.2,17.4l12.7-3.1l0.2-17.7L238.4,98.4z M224.5,102l-0.2,17.2l12.4-3l0.2-17.4L224.5,102z
					 M236.4,136.3l0.2-17.5l-12.4,3L224,139L236.4,136.3z"/>
                <polygon class="st7" points="255.2,92 254.7,136.4 252.1,136 252.6,91.4 				"/>
                <polygon class="st7" points="252.1,136 254.7,136.4 225.1,142.9 222.5,142.5 				"/>
			</g>
            <g>
				<polygon class="st9" points="250.8,115.5 250.6,133.2 237.9,136 238.1,118.5 				"/>
                <polygon class="st9" points="238.2,115.8 238.4,98.4 251.1,95 250.9,112.7 				"/>
                <polygon class="st9" points="224.3,119.2 224.5,102 236.9,98.7 236.7,116.1 				"/>
                <polygon class="st9" points="236.7,118.9 236.4,136.3 224,139.1 224.3,121.9 				"/>
			</g>

            <g>
				<path class="st7" d="M193.7,250.3l0.9-61.6l66.2-11.3l-0.7,66.2L193.7,250.3z M256.6,239.3l0.4-42l-29,4.4l-3.3,0.4l-27.3,4.1
					l-0.6,39.4L256.6,239.3z M228.2,187.5l-0.1,9.9l29-4.5l0.1-10.2L228.2,187.5z M197.7,192.6l-0.1,9.6l27.2-4.2l0.1-9.9
					L197.7,192.6z"/>
                <polygon class="st7" points="263.5,177.8 262.8,243.8 260.1,243.6 260.8,177.4 				"/>
                <polygon class="st7" points="260.1,243.6 262.8,243.8 196.3,250.5 193.7,250.3 				"/>
			</g>
            <g>
				<polygon class="st9" points="257,197.3 256.6,239.3 196.9,245.6 197.5,206.2 224.7,202.1 228,201.7 				"/>
                <polygon class="st9" points="228.1,197.4 228.2,187.5 257.2,182.7 257,192.9 				"/>
                <polygon class="st9" points="197.5,202.2 197.7,192.6 224.9,188.1 224.8,198 				"/>
			</g>

            <g>
				<path class="st7" d="M295.4,240.1l0.5-68.6l83.1-14.2l-0.2,74.4L295.4,240.1z M374.4,226.8l0.1-47.2l-36.6,5.5l-4.2,0.5
					l-34.1,5.1l-0.3,43.9L374.4,226.8z M338,169.3l-0.1,11l36.5-5.7v-11.4L338,169.3z M299.8,175.6l-0.1,10.7l34.1-5.3l0.1-11.1
					L299.8,175.6z"/>
                <polygon class="st7" points="381.8,157.7 381.7,231.9 378.9,231.6 379.1,157.2 				"/>
			</g>
            <polygon class="st7" points="378.9,231.6 381.7,231.9 298.1,240.3 295.4,240.1 			"/>
            <g>
				<polygon class="st9" points="374.5,179.6 374.4,226.8 299.4,234.7 299.7,190.8 333.8,185.7 337.9,185.1 				"/>
                <polygon class="st9" points="337.9,180.3 338,169.3 374.5,163.2 374.5,174.7 				"/>
                <polygon class="st9" points="299.7,186.4 299.8,175.6 333.8,170 333.8,181.1 				"/>
			</g>
            <g>
				<path class="st7" d="M294.1,510.2l-37.5-6.7v-0.8l0.6-60.2v-1l0.5-52.7l37.2,2v2.7L294,506.6v2.6L294.1,510.2z M259.5,391.7
					l-0.6,61.8l-0.8,1.4l-0.2,0.9v1l0.1,1l0.3,0.9l0.4,0.8l-0.2,41.3l33.8,5.9l0.9-113.2L259.5,391.7z"/>
                <polygon class="st7" points="295.9,393.5 295,506.4 294.2,506.6 295,393.5 				"/>
                <path class="st8" d="M259,453.5l0.6-61.8l33.6,1.9l-0.9,113.2l-33.8-5.9l0.4-41.1l0.9,0.8l2.8-0.1l1.2-0.5l0.8-1.4l0.2-0.9v-1
					l-0.1-1l-0.3-0.9L264,454l-1.1-1l-2.8,0.1L259,453.5L259,453.5z M291.1,439.7l0.2-19.8l-14.5-1.2l-0.2,19.5L291.1,439.7z
					 M277,396.2l-0.2,19.4l14.5,1.2l0.2-19.7L277,396.2z M261.2,395.2l-0.2,19.1l14.1,1.1l0.2-19.4L261.2,395.2z M274.9,438
					l0.2-19.5l-14.1-1.2l-0.2,19.2L274.9,438z"/>
                <polygon class="st7" points="257.9,455.9 258.1,454.9 258.5,454.1 259.5,453.1 260.7,453.1 261.8,454.1 262.2,454.9
					262.5,455.9 262.6,456.9 262.6,457.9 262.4,458.8 262,459.7 261,460.7 259.7,460.7 258.8,459.9 258.2,458.8 258,457.9 
					257.9,456.9 				"/>
			</g>
            <g>
				<polygon class="st9" points="291.5,420.1 291.4,439.9 276.9,438.3 277,418.8 				"/>
                <polygon class="st9" points="277.1,415.8 277.2,396.4 291.7,397.2 291.5,417 				"/>
                <polygon class="st9" points="261.3,414.5 261.5,395.4 275.6,396.3 275.4,415.6 				"/>
                <polygon class="st9" points="275.4,418.7 275.2,438.2 261.1,436.7 261.3,417.5 				"/>
			</g>
            <path class="st7" d="M257,503.7l37.5,6.7 M312.1,529.2l0.1-16.7 M245.5,500.9l11.4,2 M294.5,509.4l17.8,3.1 M540.4,172.9
				l0.1,14.7 M541,235.5l-24-2.7 M477.6,177l-20-3.4 M477.6,177l-0.1-15.7 M457.6,157.6l20,3.7 M457.7,173.7l-0.1-16 M540.6,192
				l0.4,43.4 M480.8,161.9l0.1,15.7 M457.7,178.5l20,3.3 M516.5,168.5l23.9,4.4 M452.9,149.9l0.3,82.6 M452.9,149.9l-3.9,0.6
				 M449.1,150.5l0.2,82.3 M453.2,232.4l-3.9,0.4 M544.2,167.3l-91.3-17.4 M480.8,161.9l32.6,6 M513.6,183.1l-32.6-5.5 M513.6,183.1
				l-0.1-15.1 M457.8,226l-0.2-47.4 M449.3,232.8l91.8,9.8 M544.9,242.3l-3.8,0.3 M516.5,168.5l0.1,15.1 M453.2,232.4l91.7,9.9
				 M544.9,242.3l-0.7-75 M540.6,187.6l-24-4 M477.9,228.2l-20-2.3 M477.7,181.8l0.2,46.5 M480.9,182.3l32.7,5.3 M480.9,182.3
				l0.2,46.3 M513.9,232.4l-32.8-3.8 M513.6,187.6l0.3,44.7 M516.6,188.1l24,3.9 M516.6,188.1l0.3,44.6 M278.6,534.8l-66.3-13.5
				 M225.3,473.6l0.5-42.1 M189.4,409.2l-1,63.4 M209.3,415.4l-0.1,10 M226,416.9l-16.7-1.4 M191.2,413.8l-0.1,9.9 M227.3,478.6
				l2.7-0.3 M228.1,412.3l2.7-0.2 M188.4,472.6l38.9,6 M207.4,415.2l-16.2-1.4 M189.4,409.2l2.7-0.1 M230.8,412.2L192,409
				 M228.1,412.3l-38.8-3.2 M225.9,427.1l-16.7-1.6 M225.9,427.1l0.1-10.2 M207.2,425.3l0.1-10.1 M207.2,425.3l-16.2-1.6 M191,427.8
				l-0.6,40.5 M227.3,478.6l0.8-66.3 M191,427.8l16.2,1.7 M209.1,429.8l16.8,1.7 M207.2,429.5l1.9,0.3 M374.6,357.5l0.1-48
				 M295.5,291.3L295,361 M381.9,362.9l0.1-75.5 M337.9,294.4l-0.1,11.2 M374.7,292.8l-36.8,1.6 M299.4,296.1l-0.1,10.9 M379.2,363
				l2.7-0.1 M379.3,287.3l2.7,0.1 M295,361.1l84.2,1.9 M333.7,294.6l-34.3,1.5 M379.3,287.3l-83.8,4.1 M374.7,304.5l-36.9,1.2
				 M374.7,304.5v-11.6 M333.7,305.9l0.1-11.2 M333.7,305.9l-34.3,1.1 M299.3,311.5l-0.3,44.6 M379.2,363l0.2-75.7 M299.3,311.5
				l34.4-0.9 M337.8,310.5l36.9-1 M333.6,310.6h4.2 M358.9,109.4l0.1-19.7 M324.4,72.7l-0.3,47.9 M363.5,113.1l0.2-49.5 M343.3,71.1
				l-0.1,19.4 M359.1,67l-15.8,4.1 M326.1,75.6l-0.1,19 M360.9,112.6l2.6,0.5 M361,62.9l2.6,0.7 M324.1,120.6l36.8-8 M324.1,120.6
				l2.6,0.5 M326.7,121.1l36.8-8 M341.5,71.6l-15.3,4 M341.3,113.4l0.1-19.4 M343.1,113l15.8-3.5 M325.9,116.8l15.4-3.4 M361,62.9
				l-36.7,9.8 M359,86.6l-15.8,3.8 M326,97.7l15.4-3.7 M359,86.6l0.1-19.7 M341.4,90.9l0.1-19.3 M341.4,90.9L326,94.7 M343.2,93.5
				l-0.1,19.4 M326,97.7l-0.1,19.1 M343.2,93.5l15.8-3.8 M360.9,112.6l0.2-49.6 M278.6,534.8l0.2-17.2 M278.8,517.6l-66.3-12.3
				 M212.3,521.4l0.2-16 M255.8,355.4l0.5-42.6 M193.5,296.2l-0.9,62.5 M262.1,360.2l0.7-67.1 M227.3,299.2l-0.1,10 M256.5,297.9
				l-29.2,1.3 M196.6,300.5l-0.1,9.7 M259.4,360.2h2.7 M260.1,293l2.7,0.1 M192.5,358.7l66.9,1.5 M224,299.4l-27.4,1.2 M260.1,293
				l-66.6,3.2 M256.3,308.3l-29.2,0.9 M256.3,308.3l0.1-10.3 M223.8,309.4l0.1-10 M223.8,309.4l-27.4,0.9 M196.4,314.3l-0.6,40
				 M259.4,360.2l0.7-67.2 M196.4,314.3l27.4-0.8 M227.1,313.6l29.2-0.8 M223.8,313.6h3.3 M541.5,293l0.1,15 M542.1,356.6l-24.2,0.5
				 M478.3,305.7l-20.1-0.7 M478.3,305.7l-0.1-16 M458.1,288.7l20.1,1 M458.1,305.1l-0.1-16.3 M541.7,312.4l0.4,44.2 M481.5,289.9
				l0.1,16 M458.1,310l20.1,0.6 M517.4,291.7l24.1,1.2 M453.3,281.4l0.3,84.1 M453.3,281.4l-3.9,0.2 M449.4,281.6l0.2,83.8
				 M453.6,365.5l-3.9-0.1 M545.4,286.7l-92-5.3 M481.5,289.9l32.9,1.7 M514.5,307l-32.9-1.1 M514.5,307l-0.1-15.4 M458.3,358.3
				l-0.2-48.3 M517.4,291.7l0.1,15.4 M453.6,365.5l92.5-2.5 M546.1,363l-0.7-76.3 M541.7,307.9l-24.1-0.8 M478.5,357.9l-20.2,0.4
				 M478.3,310.6l0.2,47.3 M481.6,310.7l32.9,1 M481.6,310.7l0.2,47.1 M514.8,357.1l-33,0.7 M514.5,311.6l0.3,45.5 M517.6,311.7
				l24.2,0.7 M517.6,311.7l0.3,45.4 M212.5,505.3l33-4.5 M375.3,495.7l0.1-49 M326,420.2l-0.4,73.4 M380.9,501.3l0.1-77
				 M352.8,427.7v11.6 M375.5,429.7l-22.6-2 M328.5,425.6l-0.1,11.4 M378.1,501.7l2.8-0.4 M378.3,424.4l2.8-0.2 M325.6,493.6
				l52.5,8.1 M350.2,427.5l-21.7-1.9 M326,420.2l2.7-0.2 M381,424.2l-52.3-4.2 M378.3,424.4l-52.3-4.3 M375.4,441.5l-22.7-2.2
				 M375.4,441.5v-11.9 M350.2,439.2v-11.7 M350.2,439.2l-21.8-2.1 M328.4,441.8l-0.3,46.9 M378.1,501.7l0.2-77.3 M328.4,441.8
				l21.8,2.2 M352.8,444.4l22.7,2.3 M350.1,444l2.6,0.4 M250.6,133.2l0.2-17.7 M223.1,99.3l-0.6,43.2 M254.7,136.4l0.5-44.5
				 M238.4,98.4l-0.2,17.4 M251.1,95l-12.7,3.3 M224.5,102l-0.2,17.2 M252.1,136l2.6,0.4 M252.6,91.4l2.6,0.5 M222.5,142.5l29.6-6.5
				 M222.5,142.5l2.6,0.4 M225.1,142.9l29.6-6.4 M236.9,98.7l-12.4,3.3 M236.4,136.3l0.2-17.5 M237.9,136l12.7-2.8 M224,139.1
				l12.4-2.8 M252.6,91.4l-29.5,7.9 M250.9,112.7l-12.7,3.1 M224.3,121.9l12.4-3 M250.9,112.7l0.2-17.7"/>
		</g>
	</g>
</g>
</svg>
