<?xml version="1.0" encoding="utf-8"?>
<!-- Generator: Adobe Illustrator 25.0.1, SVG Export Plug-In . SVG Version: 6.00 Build 0)  -->
<svg version="1.1" id="katman_1" xmlns="http://www.w3.org/2000/svg" x="0px" y="0px"
     viewBox="0 0 841.9 595.3" style="enable-background:new 0 0 841.9 595.3;" xml:space="preserve">
<style type="text/css">
	.st0{fill:#8F6645;}
	.st1{fill:#EEEEEE;}
	.st2{fill:#DDDDDD;}
	.st3{fill:#3D3A37;}
	.st4{fill:#C4C4C4;}
	.st5{fill:#3D3A37;}
	.st6{fill:#000000;}
	.st7{fill:#FFFFFF;}
	.st8{fill:#888888;}
	.st9{fill:#7884AF;}
</style>


    <g id="chimney">
	<polygon class="st0" points="611.9,202.9 611.9,201.8 597.9,200.3 597.6,71.2 628.2,65.2 628.6,198.8 634,215.4 634.3,293.9
		629.4,294 594.9,293.9 595.2,267.1 612.4,266.7 612.3,241 611.7,240.9 611.6,202.9 		"/>
        <polygon class="st0" points="628.6,198.8 628.2,65.2 637.9,67.8 638.3,199.9 		"/>
</g>


    <g id="body">
	<polygon class="st0" points="686.7,172.6 687.9,471.6 457.1,525 457.1,138.4 			"/>
        <polygon class="st0" points="457.1,138.4 457.1,525 455.2,524.6 455.2,424.7 456.9,421.7 399,382.7 397.1,380.9 313.9,372.8
		314.5,162.2 314.5,158 377.8,43.6 455.8,138.2 			"/>
        <polygon class="st0" points="302.7,560.7 166,516.7 166.5,419.8 303.1,444.9 			"/>
        <polygon class="st0" points="455.2,525.4 302.7,560.7 303.1,444.9 455.2,424.7 455.2,524.6 			"/>
</g>


    <g id="roof">
	<g>
		<polygon class="st3" points="614.7,92.1 693.3,170.7 458.1,134.6 377.3,37.2 			"/>
        <polygon class="st1" points="458.1,134.6 693.3,170.7 691.1,173.6 686.7,172.9 457.1,138.6 455.8,138.4 			"/>
        <polygon class="st1" points="377.3,37.2 458.1,134.6 455.8,138.4 377.8,43.8 375.4,40.9 310.9,157.8 308.7,161.9 307,159.3
			373.3,38.4 			"/>
        <polygon class="st2" points="308.7,161.9 310.9,157.8 314.5,158.2 314.4,162.5 			"/>
        <polygon class="st1" points="455.2,425 303.1,445.1 304.5,442 456.6,422.3 			"/>
        <polygon class="st1" points="303.1,445.1 166.5,420 164.6,417.8 301,442.5 			"/>
        <polygon class="st3" points="301,442.5 164.6,417.8 221.8,379 318.3,390.3 			"/>
        <polygon class="st3" points="456.6,422.3 304.5,442 321.5,389.8 398.5,383.2 			"/>
        <polygon class="st3" points="304.5,442 303.1,445.1 301,442.5 			"/>
        <polygon class="st3" points="304.5,442 301,442.5 318.3,390.3 321.5,389.8 			"/>
        <polygon class="st1" points="321.5,389.8 318.3,390.3 320.2,387.7 			"/>
        <polygon class="st1" points="456.9,422 455.2,425 456.6,422.3 			"/>
        <path class="st1" d="M456.9,422l-58.4-38.8L456.9,422z"/>
        <path class="st1" d="M399,383l-1.9-1.8L399,383z"/>
        <polygon class="st4" points="223.7,376.7 298.2,371.6 313.9,373.1 397.1,381.2 320.2,387.7 			"/>
        <polygon class="st4" points="397.1,381.2 398.5,383.2 321.5,389.8 320.2,387.7 			"/>
        <polygon class="st4" points="320.2,387.7 318.3,390.3 221.8,379 223.7,376.7 			"/>
        <polygon class="st4" points="377.8,43.8 314.5,158.2 310.9,157.8 375.4,40.9 			"/>
	</g>
</g>


    <g id="left-window">
	<g>
		<polygon class="st1" points="655.7,329.1 652,329.2 652,326.7 655.7,326.5 			"/>
        <g>
			<polygon class="st8" points="663.2,329 659.8,329.2 659.8,326.7 661.8,326.6 661.7,296.1 663.1,296.1 				"/>
            <polygon class="st9" points="648,329.7 644.2,329.9 644.1,296.2 645.7,296.2 645.8,327.3 648,327.2 				"/>
            <polygon class="st8" points="652,296.1 655.7,296.1 655.8,326.8 652.1,327 				"/>
            <polygon class="st8" points="641,256.4 643.6,256.3 643.7,295.1 641.1,295.1 				"/>
            <polygon class="st8" points="643.7,295.1 643.6,256.3 651.7,256.7 663.5,257.2 663.6,295 661.7,295 661.6,260.8 645.5,260.2
					645.6,295 				"/>
            <polygon class="st8" points="645.8,327.3 645.7,296.2 647.9,296.2 648,327.2 				"/>
            <path class="st9" d="M645.6,295l-0.1-34.9l16.1,0.6l0.1,34.2L645.6,295z M647.1,284.7l-0.2,1.1l0.2,1.1l0.6,0.8l0.8,0.3l2.8,0
					l0.8-0.3l0.6-0.8l0.2-1.1l-0.2-1.1l-0.6-0.8l-0.8-0.3l-2.8,0l-0.8,0.3L647.1,284.7z"/>
            <polygon class="st8" points="661.7,296.1 661.8,326.6 659.8,326.7 659.7,296.1 				"/>
            <polygon class="st1" points="652.6,284.2 653,285.2 653,286.4 652.6,287.4 651.8,287.9 651,287.9 650.2,287.3 649.8,286.3
				649.8,285.2 650.2,284.2 651,283.7 651.8,283.7 				"/>
		</g>
	</g>

        <g>
		<polygon class="st5" points="698.3,295.9 698.4,330.1 696.3,330 696.3,329.2 696.2,295.9 			"/>
            <polygon class="st5" points="698.3,295.8 696.2,295.9 693.4,295.9 692,295.9 690,295.9 688.2,295.9 687.1,295.9 685.8,295.9
				683.8,295.9 681.4,296 679.3,296 677.2,296 673.4,296 671.7,296 669.7,296 669,296 666.4,296 664.8,296 662.7,296 659.3,296.1
				657.6,296.1 655.6,296.1 654.2,296.1 652.2,296.1 650.2,296.1 648.2,296.1 644.3,296.1 642.3,296.1 640.4,296.1 638.2,296.2
				636.4,296.2 634.3,296.2 632.4,296.2 629,296.2 627.5,296.2 627.5,295.1 709.1,294.8 709.1,295.8 707.6,295.8 705.6,295.8
				704.3,295.8 703.1,295.9 701,295.9 699.6,295.9 698.3,295.8 			"/>
            <polygon class="st5" points="634.3,296.2 636.4,296.2 634.6,296.2 			"/>
            <polygon class="st5" points="627.5,295.1 627.5,296.2 625.6,296.2 620.3,296.2 619,296.2 616.6,296.2 609.6,296.1 608.3,296.1
				605.4,296.1 598,296.1 596.6,296.1 593.9,296.1 592.8,296.1 591,296.1 585.1,296.1 585.1,295 			"/>
            <polygon class="st4" points="627.5,295.1 585.1,295 588.4,295 591,295 592.8,295 627.4,295.1 632.2,295.1 633.7,295.1 636.2,295
				638.2,295 654.2,295 656.1,295 666.5,295 705.7,294.8 666.5,294.8 667.7,294.8 709.1,294.8 			"/>
            <polygon class="st5" points="666.5,294.8 705.7,294.8 666.5,295 			"/>
            <polygon class="st5" points="709,329.6 644.9,332.8 644.6,329.5 648.3,329.4 648.3,332.4 650.3,332.5 652.4,332.4 652.3,329.2
				655.7,329 655.7,332 657.8,332.1 659.5,332 659.4,328.7 662.8,328.5 662.8,331.7 664.9,331.8 666.5,331.7 666.5,328.4
				669.1,328.5 669.8,328.4 669.8,331.3 671.9,331.4 673.5,331.3 673.5,328.5 677.3,328.6 677.3,331 679.4,331.1 681.1,331
				681.1,328.8 684,328.8 684,330.7 685.9,330.7 687.3,330.6 687.3,328.9 688.3,328.9 690.2,329.1 690.2,330.4 692.1,330.4
				693.6,330.3 693.6,329.1 696.3,329.2 696.3,330 698.4,330.1 699.7,330 699.7,329.4 700.9,329.3 703.3,329.9 704.4,329.8
				705.7,329.5 707.7,329.6 709,329.6 			"/>
            <polygon class="st5" points="690.2,329.1 688.3,329 688.2,295.9 690,295.9 			"/>
            <polygon class="st5" points="669.1,328.5 666.5,328.4 666.4,296 669,296 			"/>
            <polygon class="st5" points="669.8,328.4 669.1,328.5 669,296 669.7,296 			"/>
            <polygon class="st5" points="707.7,329.6 705.7,329.6 705.6,295.8 707.6,295.8 			"/>
            <polygon class="st5" points="704.2,295.8 704.4,329.4 703.3,329.9 703.1,295.9 			"/>
            <polygon class="st5" points="703.1,295.9 703.3,329.9 701.2,329.8 701,295.9 			"/>
            <polygon class="st5" points="699.5,295.8 699.7,329.4 699.7,330 698.4,330.1 698.3,295.8 			"/>
            <polygon class="st5" points="681,296 681.1,328.8 681.1,331 679.4,331.1 679.3,296 			"/>
            <polygon class="st5" points="679.2,296 679.4,331.1 677.3,331 677.3,328.6 677.2,296 			"/>
            <polygon class="st5" points="673.4,296 673.5,328.5 673.5,331.3 671.9,331.4 671.7,296 			"/>
            <polygon class="st5" points="671.7,296 671.9,331.4 669.8,331.3 669.8,328.4 669.7,296 			"/>
            <polygon class="st5" points="666.3,296 666.5,328.4 666.5,331.7 664.9,331.8 664.8,296 			"/>
            <polygon class="st5" points="664.7,296 664.9,331.8 662.8,331.7 662.8,328.5 662.7,296 			"/>
            <polygon class="st5" points="659.2,296.1 659.4,328.7 659.5,332 657.8,332.1 657.6,296.1 			"/>
            <polygon class="st5" points="657.5,296.1 657.8,332.1 655.7,332 655.7,329 655.6,296.1 			"/>
            <polygon class="st5" points="652.1,296.1 652.3,326.7 652.3,329.2 652.4,332.4 650.3,332.5 650.2,296.1 			"/>
            <polygon class="st5" points="650.1,296.1 650.3,332.5 648.3,332.4 648.3,329.4 648.3,326.8 648.2,296.1 			"/>
            <polygon class="st5" points="625.6,296.2 627.5,296.2 627.6,333.6 625.7,333.5 625.7,330.2 			"/>
            <polygon class="st5" points="709.5,329.6 709.6,352.4 644.5,357.6 632.4,358.6 627.9,359 627.9,333.6 635,333.3 637.1,333.2
				643,332.9 644.9,332.8 			"/>
            <polygon class="st5" points="627.9,333.6 627.9,359 592,356.9 591.2,356.8 584.4,356.4 584.3,332.1 627.3,333.6 			"/>
            <polygon class="st5" points="635,333.3 627.9,333.6 629.1,333.5 629.1,330 632.3,329.9 632.5,333.2 634.7,333.3 			"/>
            <polygon class="st5" points="627.3,333.6 584.3,332.1 591.1,331.8 592.3,331.7 593.8,331.6 593.9,332.4 596.5,332.5 598.1,332.4
				598.1,331.4 605.5,331.1 605.5,332.8 608.4,332.9 609.7,332.8 609.7,330.9 616.7,330.6 616.7,333.2 619.1,333.3 620.4,333.2
				620.4,330.4 625.7,330.2 625.7,333.5 627.6,333.6 			"/>
            <polygon class="st5" points="620.4,333.2 619.1,333.3 619,296.2 620.3,296.2 620.4,330.4 			"/>
            <polygon class="st5" points="609.7,332.8 608.4,332.9 608.3,296.1 609.6,296.1 609.7,330.9 			"/>
            <polygon class="st5" points="598.1,332.4 596.5,332.5 596.4,296.1 598,296.1 598.1,331.4 			"/>
            <polygon class="st5" points="643,332.9 637.1,333.2 636.8,329.9 640.5,329.7 640.5,332.8 642.7,332.9 			"/>
            <polygon class="st5" points="636.6,296.2 636.8,329.9 636.8,333.2 634.7,333.3 634.6,296.2 			"/>
            <polygon class="st5" points="637.1,333.2 635,333.3 636.8,333.2 			"/>
            <polygon class="st5" points="644.9,332.8 643,332.9 644.6,332.8 			"/>
            <polygon class="st5" points="700.9,329.3 699.7,329.4 699.6,295.9 700.7,295.9 700.9,329.3 			"/>
            <polygon class="st5" points="707.7,329.6 707.6,295.8 708.8,295.8 709,329.6 			"/>
            <polygon class="st5" points="693.6,330.3 692.1,330.4 692,295.9 693.4,295.9 693.6,329.1 			"/>
            <polygon class="st5" points="692,295.9 692.1,330.4 690.2,330.4 690.2,329.1 690,295.9 			"/>
            <polygon class="st5" points="687.3,330.6 685.9,330.7 685.8,295.9 687.1,295.9 687.3,328.9 			"/>
            <polygon class="st5" points="685.8,295.9 685.9,330.7 684,330.7 684,328.8 683.8,295.9 			"/>
            <polygon class="st5" points="644.6,332.8 642.7,332.9 642.5,296.1 644.4,296.1 644.6,327 644.6,329.5 			"/>
            <polygon class="st5" points="642.5,296.1 642.7,332.9 640.5,332.8 640.5,329.7 640.5,327.2 640.4,296.1 642.3,296.1 			"/>
            <polygon class="st5" points="634.6,296.2 634.7,333.3 632.5,333.2 632.5,329.9 632.4,296.2 634.3,296.2 			"/>
            <polygon class="st5" points="627.6,333.6 627.5,296.2 629,296.2 629.1,330 629.1,333.5 			"/>
            <polygon class="st5" points="619.1,333.3 616.7,333.2 616.7,330.6 616.6,296.2 619,296.2 			"/>
            <polygon class="st5" points="608.3,296.1 608.4,332.9 605.5,332.8 605.5,331.1 605.4,296.1 			"/>
            <polygon class="st5" points="596.4,296.1 596.5,332.5 593.9,332.4 593.8,331.6 593.8,296.1 			"/>
            <path class="st4" d="M666.5,328.4l-0.1-32.3L666.5,328.4z"/>
            <polygon class="st5" points="699.6,295.9 699.7,329.4 699.6,295.9 			"/>
            <path class="st5" d="M681.5,328.7L681,296L681.5,328.7z"/>
            <polygon class="st5" points="632.4,296.2 632.5,329.9 632.2,296.2 			"/>
	</g>

</g>

    <g>
	<g>
		<g>
			<polygon class="st5" points="563.7,438.4 563.7,437.3 604.4,442.8 600.6,443.4 599.4,443.3 598,443.1 595.5,442.7 591.4,442.2
				589.9,442 588.5,441.8 586.1,441.5 579.3,440.5 577.9,440.3 575,440 567.8,439 566.3,438.8 			"/>
            <polygon class="st5" points="598,443 599.4,443.3 597.9,443.9 597.9,443.1 			"/>
            <polygon class="st5" points="595.5,442.7 598,443 595.4,442.7 			"/>
            <polygon class="st5" points="563.7,438.4 566.3,438.8 563.5,438.4 			"/>
            <polygon class="st5" points="604.4,442.8 563.7,437.3 565.1,437.1 591.4,440.5 608.2,442.8 501.4,461.4 458.2,454.3 462.5,453.6
				487.5,457.5 490.1,457.9 492.8,458.3 502.5,459.8 515.1,457.8 517.7,457.3 563.5,449.6 566.2,449.2 567.8,448.9 575.1,447.7
				577.9,447.2 579.3,447 586.2,445.9 588.5,445.5 590,445.2 591.4,445 595.4,444.3 597.9,443.9 599.4,443.6 600.6,443.4 			"/>
            <polygon class="st5" points="458.2,454.3 501.4,461.4 501.4,462.7 499.5,462.4 494.6,461.6 492.7,461.3 490.3,460.9 487.5,460.4
				483.6,459.8 481.8,459.4 478.9,459 471.7,457.8 469.8,457.4 467.1,457 458.2,455.5 			"/>
            <polygon class="st5" points="467.1,457 469.8,457.4 466.9,457 			"/>
            <polygon class="st5" points="501.4,462.7 501.4,461.4 608.2,442.8 608.2,443.9 606.3,444.2 604.2,444.6 602,445 600.5,445.3
				598.3,445.6 595.9,446.1 594.2,446.3 592,446.8 591.4,446.9 590,447.1 588.5,447.4 586.1,447.8 584.1,448.2 579.8,448.9
				578.1,449.2 576.1,449.6 575.1,449.7 571.8,450.3 569.5,450.7 567.4,451.1 566.2,451.3 563.5,451.8 561.9,452.1 559.7,452.5
				557.6,452.8 552.6,453.7 550.5,454.1 548.5,454.4 543.4,455.3 541.1,455.7 539.1,456.1 534.1,457 531.4,457.4 529.4,457.8
				523.7,458.8 521.1,459.3 519.1,459.6 517.7,459.9 515.1,460.3 513.3,460.6 510.6,461.1 508.6,461.5 503.5,462.4 			"/>
            <polygon class="st5" points="600.5,445.3 602,445 600.5,445.3 			"/>
            <polygon class="st5" points="594.2,446.3 595.9,446 594.3,446.3 			"/>
            <polygon class="st5" points="594.2,446.4 594.4,485.5 592.1,485.1 592.1,479.7 592.1,458.1 592,446.8 			"/>
            <polygon class="st5" points="569.5,450.7 571.8,450.3 569.6,450.7 			"/>
            <polygon class="st5" points="559.7,452.5 561.9,452.1 559.8,452.5 			"/>
            <polygon class="st5" points="550.5,454.1 552.6,453.7 550.6,454.1 			"/>
            <polygon class="st5" points="541.1,455.7 543.4,455.3 541.3,455.7 			"/>
            <polygon class="st5" points="531.4,457.4 534.1,457 531.5,457.5 			"/>
            <polygon class="st5" points="521.1,459.3 523.7,458.8 521.3,459.3 			"/>
            <polygon class="st5" points="510.6,461.1 513.3,460.6 510.8,461.1 			"/>
            <polygon class="st5" points="608.7,508.5 501.7,535.6 501.7,506.2 511.2,504.1 513.9,503.5 521.7,501.8 524.3,501.2 608.6,482.4
							"/>
            <polygon class="st56" points="501.7,535.6 457.2,525.1 457.2,497 501.1,506.1 			"/>
            <polygon class="st56" points="608,482.3 608.6,482.4 524.3,501.2 523.9,483.4 529.4,482.3 529.4,499 531.6,499.4 534.2,498.8
				534.2,481.3 539.1,480.3 539.2,496.8 541.3,497.3 543.5,496.8 543.5,479.4 548.5,478.4 548.5,494.8 550.7,495.2 552.8,494.7
				552.8,477.5 557.7,476.5 557.7,492.7 559.8,493.1 562,492.7 561.9,475.7 563.6,475.3 566.2,476 567.5,475.7 567.5,490.6
				569.6,491 571.9,490.5 571.9,476.3 575.1,476.8 576.1,477.6 576.1,488.7 578.1,489 579.9,488.6 579.9,477.6 584.2,478.3
				584.2,486.9 586.2,487.2 588.1,486.8 588.1,479.6 590,479.4 592.1,479.7 592.1,485.1 594.4,485.5 596,485.1 596,481 598,481.4
				598.4,483.7 600.6,484.1 602.1,483.8 602.1,481.3 604.3,481.7 604.3,482.4 606.4,482.8 608,482.4 			"/>
            <path class="st5" d="M588.6,479.7l-0.6-32.2L588.6,479.7z"/>
            <polygon class="st5" points="576.1,477.6 575.1,477.4 575.1,449.7 576.1,449.6 			"/>
            <polygon class="st5" points="566.2,476 563.6,475.5 563.5,451.8 566.2,451.3 			"/>
            <polygon class="st5" points="567.5,475.7 566.2,476 566.2,451.3 567.4,451.1 			"/>
            <polygon class="st5" points="511.2,504.1 501.7,506.2 503.5,505.6 503.5,488.6 508.6,487.5 508.6,503.6 510.8,504 			"/>
            <polygon class="st5" points="501.1,506.1 457.2,497 466.9,495 466.9,498.9 469.7,499.4 471.7,499 471.7,494 478.9,492.6
				478.9,501.3 481.8,501.9 483.6,501.5 483.6,491.6 487.5,490.8 490.1,491.3 490.3,503.6 492.8,504.1 494.6,503.7 494.6,490.4
				499.5,489.4 499.5,505.6 501.5,506 			"/>
            <path class="st5" d="M490.3,491.3l-0.2-30.4L490.3,491.3z"/>
            <polygon class="st5" points="494.6,503.7 492.8,504.1 492.7,461.3 494.6,461.6 494.6,487.4 494.6,490.4 			"/>
            <polygon class="st5" points="483.6,501.5 481.8,501.9 481.8,459.4 483.6,459.8 483.6,491.6 			"/>
            <polygon class="st5" points="471.7,499 469.7,499.4 469.7,457.5 471.7,457.8 471.7,494 			"/>
            <polygon class="st5" points="521.7,501.8 513.9,503.5 513.6,486.5 517.7,485.7 517.7,484.7 519.2,484.4 519.2,501.3 521.4,501.7
							"/>
            <polygon class="st5" points="606.4,482.8 604.3,482.4 604.3,481.7 604.2,459.8 604.2,444.6 606.3,444.2 			"/>
            <polygon class="st5" points="602,445 604.2,444.6 604.2,459.8 602,459.5 			"/>
            <polygon class="st5" points="600.5,445.3 600.6,484.1 598.4,483.7 598.4,481.3 598.3,445.6 			"/>
            <polygon class="st5" points="569.5,450.7 569.6,491 567.5,490.6 567.5,475.7 567.4,451.1 			"/>
            <polygon class="st5" points="559.7,452.5 559.8,493.1 557.7,492.7 557.7,476.5 557.6,452.8 			"/>
            <polygon class="st5" points="550.5,454.1 550.7,495.2 548.5,494.8 548.5,478.4 548.5,454.4 			"/>
            <polygon class="st5" points="541.1,455.7 541.3,497.3 539.2,496.8 539.1,480.3 539.1,456.1 			"/>
            <polygon class="st5" points="531.4,457.4 531.6,499.4 529.4,499 529.4,482.3 529.4,457.8 			"/>
            <path class="st5" d="M513.5,460.7l-2.7,0.5L513.5,460.7z"/>
            <polygon class="st5" points="510.8,461.1 510.8,504 508.6,503.6 508.6,487.5 508.6,484.5 508.6,461.5 510.6,461.1 			"/>
            <polygon class="st5" points="513.9,503.5 511.2,504.1 513.6,503.4 			"/>
            <polygon class="st4" points="524.3,501.2 521.7,501.8 524,501.1 			"/>
            <path class="st5" d="M598.4,481.3l-0.5-35.6L598.4,481.3z"/>
            <polygon class="st5" points="606.4,482.8 606.3,444.2 607.9,444 607.9,460.4 608,482.3 			"/>
            <polygon class="st5" points="600.6,484.1 600.5,445.3 602,445 602,459.5 602.1,481.3 602.1,483.8 			"/>
            <polygon class="st5" points="594.4,485.5 594.3,446.3 595.9,446 596,481 596,485.1 			"/>
            <polygon class="st5" points="588.1,486.8 586.2,487.2 586.1,447.8 588,447.5 588.1,479.6 			"/>
            <polygon class="st5" points="586.1,447.8 586.2,487.2 584.2,486.9 584.2,478.3 584.1,448.2 			"/>
            <polygon class="st5" points="579.9,488.6 578.1,489 578.1,449.2 579.8,448.9 579.9,477.6 			"/>
            <polygon class="st5" points="578.1,449.2 578.1,489 576.1,488.7 576.1,477.6 576.1,449.6 			"/>
            <polygon class="st5" points="569.6,491 569.6,450.7 571.8,450.3 571.9,476.3 571.9,490.5 			"/>
            <polygon class="st5" points="559.8,493.1 559.8,452.5 561.9,452.1 561.9,475.7 562,492.7 			"/>
            <polygon class="st5" points="550.7,495.2 550.6,454.1 552.7,453.7 552.8,477.5 552.8,494.7 			"/>
            <polygon class="st5" points="541.3,497.3 541.3,455.7 543.5,455.3 543.5,479.4 543.5,496.8 			"/>
            <polygon class="st5" points="531.6,499.4 531.5,457.5 534.2,457 534.2,481.3 534.2,498.8 			"/>
            <polygon class="st5" points="524,501.1 521.4,501.7 521.4,459.3 523.9,458.8 523.9,483.4 			"/>
            <polygon class="st5" points="523.9,458.8 521.4,459.3 523.9,458.8 			"/>
            <polygon class="st5" points="521.3,459.3 521.4,501.7 519.2,501.3 519.2,484.4 519.1,459.6 521.1,459.3 			"/>
            <polygon class="st5" points="510.8,504 510.8,461.2 513.6,460.7 513.6,483.5 513.6,486.5 513.6,503.4 			"/>
            <polygon class="st5" points="501.5,506 499.5,505.6 499.5,489.4 499.5,486.4 499.5,462.4 501.4,462.7 			"/>
            <polygon class="st5" points="501.5,506 501.4,462.7 503.5,462.4 503.5,485.6 503.5,488.6 503.5,505.6 			"/>
            <polygon class="st5" points="492.8,504.1 490.3,503.6 490.3,491.3 490.3,460.9 492.7,461.3 			"/>
            <polygon class="st5" points="481.8,459.4 481.8,501.9 478.9,501.3 478.9,492.6 478.9,459 			"/>
            <polygon class="st5" points="469.7,457.5 469.7,499.4 466.9,498.9 466.9,495 466.9,465.2 466.9,457 			"/>
            <path class="st5" d="M595.4,442.7l2.5,0.3L595.4,442.7z"/>
            <polygon class="st5" points="588.6,479.7 588.5,447.4 590,447.1 590,479.3 			"/>
            <polygon class="st5" points="563.5,449.6 563.5,438.4 566.1,438.8 566.2,449.2 			"/>
            <polygon class="st5" points="566.1,438.8 567.8,439 567.8,448.9 566.2,449.2 			"/>
            <polygon class="st5" points="575.1,447.7 575,440 577.9,440.3 577.9,447.2 			"/>
            <polygon class="st5" points="577.9,447.2 577.9,440.3 579.3,440.5 579.3,447 			"/>
            <polygon class="st5" points="586.2,445.9 586.1,441.5 588.5,441.8 588.5,445.5 			"/>
            <polygon class="st5" points="588.5,445.5 588.5,441.8 589.9,442 590,445.2 			"/>
            <polygon class="st5" points="595.4,442.7 597.9,443.1 595.4,442.8 			"/>
            <polygon class="st5" points="595.4,442.8 597.9,443.1 597.9,443.9 595.4,444.3 			"/>
            <polygon class="st5" points="597.9,445.7 598,481.4 596,481 595.9,446.1 			"/>
            <polygon class="st5" points="595.4,442.8 595.4,444.3 591.4,445 591.4,442.2 595.4,442.7 			"/>
            <path class="st4" d="M599.4,443.6l1.2-0.2L599.4,443.6z"/>
            <polygon class="st4" points="591.4,457.9 591.4,446.9 592,446.8 592.1,458.1 			"/>
		</g>

        <g>
			<polygon class="st5" points="461,197.3 461,196.1 490.1,193.3 492.7,193 495.4,192.7 504.1,191.9 504.1,193.1 502.2,193.3
				472.6,196.2 469.8,196.4 			"/>
            <polygon class="st5" points="504.1,193.1 504.1,191.9 517.4,193.3 519.9,193.5 595.9,201.4 609.8,202.9 609.8,204 603.7,203.4
				602.2,203.2 597.7,202.8 596,202.5 573.8,200.3 571.6,200.1 564,199.3 561.8,199.1 554.9,198.4 552.8,198.1 545.7,197.4
				543.5,197.2 536.5,196.5 533.9,196.2 526.4,195.4 523.8,195.1 516.1,194.4 513.4,194.1 			"/>
            <polygon class="st5" points="596,202.6 596.1,241.2 593.9,241.1 593.8,211.4 593.8,209.4 593.8,205.3 593.8,203.9 593.8,202.8
							"/>
            <polygon class="st5" points="596,202.6 593.8,202.8 589.8,202.4 588,201.8 586,202 581.7,201.6 580,201 578,201.1 573.8,200.8
							"/>
            <polygon class="st5" points="578,201.1 580,201 580.1,240.3 578,240.2 578,206.2 578,205.1 578,201.2 			"/>
            <polygon class="st5" points="580,201 581.7,201.2 581.7,204.8 581.7,205.9 581.8,240.4 580.1,240.3 			"/>
            <polygon class="st5" points="588,201.8 589.8,202 589.8,204.2 589.8,205.3 589.9,240.9 588,240.8 			"/>
            <polygon class="st5" points="586,202 588,201.8 588,240.8 586,240.7 586,205.9 586,204.5 586,202 			"/>
            <polygon class="st5" points="465.3,197.7 461,197.3 469.8,196.5 469.8,197.3 			"/>
            <polygon class="st5" points="589.8,204.2 593.8,203.9 593.8,205 589.8,205.3 			"/>
            <polygon class="st5" points="589.8,205.3 593.8,205 591.7,205.4 590.2,205.3 			"/>
            <path class="st5" d="M589.8,205.3l0.5,35.6L589.8,205.3z"/>
            <polygon class="st5" points="590.2,205.3 591.7,205.4 591.7,216.4 591.7,219.2 591.8,241 590.3,240.9 			"/>
            <polygon class="st5" points="581.7,204.8 586,204.5 586,205.6 581.7,205.9 			"/>
            <polygon class="st5" points="581.7,205.9 586,205.6 581.7,206.2 			"/>
            <polygon class="st5" points="573.8,205.5 578,205.1 578,206.2 573.8,206.6 			"/>
            <polygon class="st5" points="573.8,206.6 578,206.2 576.9,206.3 573.8,206.8 			"/>
            <polygon class="st5" points="576.9,206.3 578,206.2 578,240.2 576.9,240.1 576.9,206.6 			"/>
            <polygon class="st5" points="609.8,204 608,203.9 606,204 603.7,203.8 			"/>
            <polygon class="st5" points="606,204 608,203.9 608.1,242 605.9,241.8 605.8,204.3 			"/>
            <polygon class="st5" points="603.7,203.8 606,204 603.7,204.2 			"/>
            <polygon class="st5" points="603.7,204.2 605.8,204 603.7,204.5 			"/>
            <polygon class="st5" points="504.1,193.1 513.2,194.1 511.2,194.3 506.1,194.2 506.1,193.4 			"/>
            <polygon class="st5" points="511.2,194.3 513.2,194.1 513.4,236.4 511.2,236.2 511.2,194.7 			"/>
            <polygon class="st5" points="516.1,194.4 523.6,195.2 521.6,195.3 519.9,195.5 517.4,195.3 516.1,195.2 			"/>
            <polygon class="st5" points="521.6,195.3 523.6,195.2 523.9,237 521.7,236.9 521.6,195.7 			"/>
            <polygon class="st5" points="526.4,195.4 533.8,196.2 531.8,196.4 526.4,196.2 			"/>
            <polygon class="st5" points="531.8,196.4 533.8,196.2 533.9,237.6 531.8,237.5 531.8,196.7 			"/>
            <polygon class="st5" points="536.5,196.5 543.4,197.2 541.4,197.4 536.5,197.2 			"/>
            <polygon class="st5" points="541.4,197.4 543.4,197.2 543.6,238.2 541.4,238 541.4,197.6 			"/>
            <polygon class="st5" points="545.7,197.4 552.7,198.2 550.6,198.3 545.7,198.1 			"/>
            <polygon class="st5" points="550.6,198.3 552.7,198.2 552.8,238.7 550.7,238.6 550.6,198.6 			"/>
            <polygon class="st5" points="554.9,198.4 561.8,199.1 559.7,199.3 554.9,199 			"/>
            <polygon class="st5" points="559.7,199.3 561.8,199.1 561.9,239.2 559.8,239.1 559.7,199.5 			"/>
            <polygon class="st5" points="564,199.3 571.5,200.1 569.4,200.3 564,199.9 			"/>
            <polygon class="st5" points="569.4,200.3 571.5,200.1 571.6,239.8 569.5,239.7 569.4,207.1 569.4,205.8 569.4,200.4 			"/>
            <polygon class="st5" points="565.5,206.1 569.4,205.8 569.4,206.9 568.2,207 565.5,207.2 			"/>
            <path class="st5" d="M568.2,207l1.3-0.1L568.2,207z"/>
            <polygon class="st5" points="568.2,207 569.4,207.1 569.5,239.7 568.1,239.6 568,207 			"/>
            <polygon class="st5" points="597.7,202.8 602.2,203.2 600.1,203.4 597.7,203.2 			"/>
            <polygon class="st5" points="472.6,196.2 502.2,193.3 502.2,194.3 497.3,194.8 495.5,194 493,194.3 493,195.2 490.1,195.4
				486.4,195.8 484.6,195.1 481.7,195.3 481.7,196.2 474.5,196.9 			"/>
            <polygon class="st5" points="495.5,194 497.3,194.2 497.3,236.2 495.5,236.3 			"/>
            <polygon class="st5" points="493,194.3 495.5,194 495.5,236.3 493.1,236.5 493,195.2 			"/>
            <polygon class="st5" points="484.6,195.1 486.4,195.2 486.4,236.8 484.6,236.9 			"/>
            <polygon class="st5" points="481.7,195.3 484.6,195.1 484.6,236.9 481.7,237.1 481.7,196.2 			"/>
            <polygon class="st5" points="472.6,196.2 474.5,196.4 474.5,237.5 472.5,237.6 472.5,196.2 			"/>
            <polygon class="st5" points="523.8,195.1 526.4,195.4 526.4,196.2 526.4,237.1 523.9,237 			"/>
            <polygon class="st5" points="610.3,242.1 610.3,267.9 504.4,264.8 504.4,235.8 506.1,235.9 511.2,236.2 513.4,236.4 516.1,236.5
				517.4,236.6 520,236.8 521.7,236.9 523.9,237 526.4,237.1 531.8,237.5 533.9,237.6 536.5,237.7 541.4,238 543.6,238.2
				545.8,238.3 550.7,238.6 552.8,238.7 554.9,238.8 559.8,239.1 561.9,239.2 564,239.4 565.4,239.4 568.1,239.6 569.5,239.7
				571.6,239.8 573.9,239.9 576.9,240.1 578,240.2 580.1,240.3 581.8,240.4 586,240.7 588,240.8 589.9,240.9 591.8,241 593.5,241.1
				596.1,241.2 597.8,241.3 599.7,241.5 602.3,241.6 603.8,241.7 605.9,241.8 608.1,242 609.6,242 			"/>
            <polygon class="st5" points="504.4,264.8 610.3,267.9 593.1,268.2 591,268.3 566.6,268.8 460.1,266 			"/>
            <polygon class="st5" points="504.4,264.8 460.1,266 460.1,238.3 469.8,237.7 472.5,237.6 474.5,237.5 481.7,237.1 484.6,236.9
				486.4,236.8 490.1,236.6 492.7,236.5 495.5,236.3 497.3,236.2 502.2,236 504.1,235.8 			"/>
            <polygon class="st5" points="608.1,242 608,203.9 609.5,204 609.6,242 			"/>
            <polygon class="st5" points="602.2,203.2 603.7,203.4 603.7,204.2 603.8,241.7 602.3,241.6 			"/>
            <polygon class="st5" points="602.2,203.2 602.3,241.6 600.1,241.5 600,204.5 600,203.4 602.2,203.2 			"/>
            <polygon class="st5" points="596.1,241.2 596,202.5 597.7,202.7 597.7,203.5 597.7,204.6 597.8,241.3 			"/>
            <polygon class="st5" points="571.6,239.8 571.6,200.1 573.8,200.3 573.8,205.5 573.8,206.6 573.9,239.9 			"/>
            <polygon class="st5" points="561.9,239.2 561.8,199.1 564,199.3 564,239.4 			"/>
            <polygon class="st5" points="552.8,238.7 552.8,198.1 554.9,198.4 554.9,238.8 			"/>
            <polygon class="st5" points="543.6,238.2 543.5,197.2 545.7,197.4 545.7,198.1 545.8,238.3 			"/>
            <polygon class="st5" points="533.9,237.6 533.9,196.2 536.5,196.5 536.5,197.2 536.5,237.7 			"/>
            <polygon class="st5" points="513.4,236.4 513.4,194.1 516.1,194.3 516.1,195.2 516.1,236.5 			"/>
            <polygon class="st5" points="472.5,196.2 472.5,237.6 469.8,237.7 469.8,197.3 469.8,196.5 			"/>
            <polygon class="st5" points="565.4,239.4 565.4,207.2 568,207 568.1,239.6 			"/>
            <polygon class="st5" points="504.1,193.1 506.1,193.4 506.1,194.2 506.1,235.9 504.4,235.8 			"/>
            <polygon class="st5" points="504.1,193.1 504.1,235.8 502.2,236 502.2,194.3 502.2,193.3 			"/>
            <polygon class="st5" points="599.7,203.4 600,204.5 597.7,204.6 597.7,203.5 			"/>
            <polygon class="st5" points="599.7,204.5 600.1,241.5 599.6,204.5 			"/>
            <path class="st5" d="M599.7,203.4l-2,0.2L599.7,203.4z"/>
            <polygon class="st5" points="597.7,204.6 599.6,204.5 597.7,204.6 			"/>
            <polygon class="st5" points="597.7,204.6 599.6,204.5 597.7,204.7 			"/>
            <polygon class="st5" points="597.7,204.7 599.6,204.5 599.7,241.5 597.8,241.3 			"/>
            <polygon class="st5" points="492.7,236.5 492.7,195.2 493.1,236.5 			"/>
            <polygon class="st5" points="593.7,219.4 593.8,211.4 593.9,241.1 			"/>
		</g>
        <g>
			<g>
				<polygon class="st1" points="487.4,457.5 487.4,403.9 490,404.2 490,457.9 				"/>
                <polygon class="st1" points="490,404.2 487.4,403.9 514.9,400.7 517.5,401 				"/>
                <polygon class="st8" points="490,457.9 490,404.2 517.5,401 517.5,457.3 514.9,457.7 514.9,405.6 492.7,408.3 492.7,458.3
					"/>
                <path class="st9" d="M492.7,458.3l0-50l22.2-2.7l0,52.1l-12.5,2.1L492.7,458.3z M494.8,437l-0.2,0.7l-0.1,0.7l0.1,0.7l0.6,1.1
					l1,0.5l2.9,0.4l1.2-0.2l1-0.8l0.6-1.3l0.1-0.7l-0.1-0.7l-0.6-1.1l-1-0.5l-2.9-0.4l-1.2,0.2l-1,0.8L494.8,437z"/>
                <polygon class="st8" points="508.5,487.5 503.4,488.5 503.4,485.5 508.5,484.5 				"/>
                <polygon class="st8" points="508.5,484.5 503.4,485.5 503.4,462.3 508.5,461.4 				"/>
                <polygon class="st8" points="490,491.3 487.4,490.8 487.4,460.4 490,460.8 				"/>
                <polygon class="st8" points="499.4,489.4 494.5,490.4 494.5,487.3 499.4,486.3 				"/>
                <polygon class="st8" points="499.4,486.3 494.5,487.3 494.5,461.5 499.4,462.4 				"/>
                <polygon class="st8" points="517.6,485.6 513.5,486.5 513.5,483.5 515,483.2 514.9,460.3 517.5,459.8 517.6,484.6 				"/>
                <polygon class="st8" points="514.9,460.3 515,483.2 513.5,483.5 513.4,460.6 				"/>
			</g>
            <polygon class="st8" points="501.4,436.3 502,437.4 502.1,438 502,438.7 501.7,439.4 500.9,440.5 499.7,441 498.6,440.8
				497.7,440 497.4,438.7 497.5,438.1 497.7,437.4 498.6,436.3 499.7,435.8 500.9,436 			"/>
		</g>

        <g>
			<polygon class="st8" points="506.2,194 511.3,194.5 511.3,236.1 506.2,235.8 			"/>
            <polygon class="st8" points="497.4,194.7 502.3,194.2 502.3,235.8 497.4,236.1 			"/>
            <polygon class="st8" points="520,195.4 520.1,236.6 517.5,236.5 517.5,195.1 			"/>
            <polygon class="st5" points="517.5,195.1 517.5,236.5 516.2,236.4 516.2,195 			"/>
            <polygon class="st8" points="490.2,236.5 490.2,195.3 492.8,195.1 492.8,236.3 			"/>
            <polygon class="st4" points="490.2,153.9 492.8,153.5 492.8,192.8 490.2,193.1 			"/>
            <polygon class="st8" points="492.8,192.8 492.8,153.5 520,157.4 520.1,193.4 517.5,193.1 517.4,161.3 495.5,158.3 495.5,192.6
							"/>
            <path class="st9" d="M495.5,192.6l0-34.3l22,3l0,31.8l-13.3-1.4L495.5,192.6z M497.6,187.2l-0.3,1.3l0.1,0.7l0.2,0.6l0.8,1
				l1.2,0.5l3.5-0.3l1-0.6l0.6-1.1l0.1-0.7l-0.1-0.7l-0.2-0.6l-0.8-1l-1.2-0.5l-3.5,0.3l-1,0.5L497.6,187.2z"/>
            <polygon class="st1" points="504.1,186.7 504.7,188 504.8,188.6 504.7,189.3 504.1,190.4 503.1,190.9 501.9,190.8 500.8,190
				500.2,188.8 500.1,188.1 500.2,187.5 500.8,186.4 501.9,185.8 503,186 			"/>
		</g>
        <g>
			<polygon class="st7" points="341.7,235.6 338.1,235.4 426.6,229.6 430.2,229.8 			"/>
            <g>
				<path class="st7" d="M338.1,235.4l0.2-71.6l88.4-13.1l-0.1,78.9L338.1,235.4z M422.1,173.4l0-15.4l-26.2,3.7l0,14.9L422.1,173.4
					z M395.9,225.2l26.2-1.9l0-45.2l-26.2,3.1L395.9,225.2z M341.9,183.4l16.9-2.1l0-14.3l-16.9,2.4L341.9,183.4z M361.7,166.5
					l0,14.4l31.1-3.9l0-14.9L361.7,166.5z M358.8,185.6l-16.9,2l-0.1,41.4l16.9-1.2L358.8,185.6z M392.8,181.5l-31.1,3.7l-0.1,42.4
					l31.2-2.3L392.8,181.5z"/>
                <polygon class="st7" points="430.3,151.2 430.2,229.8 426.6,229.6 426.7,150.7 				"/>
			</g>
            <g>
				<polygon class="st9" points="422.2,158 422.1,173.4 395.9,176.7 396,161.7 				"/>
                <polygon class="st9" points="422.1,223.2 395.9,225.2 395.9,181.2 422.1,178 				"/>
                <polygon class="st9" points="358.8,181.3 341.9,183.4 342,169.3 358.8,167 				"/>
                <polygon class="st9" points="361.7,180.9 361.7,166.5 392.9,162.1 392.8,177 				"/>
                <polygon class="st9" points="341.9,187.6 358.8,185.6 358.7,227.8 341.8,229.1 				"/>
                <polygon class="st9" points="361.7,185.3 392.8,181.5 392.8,225.4 361.6,227.6 				"/>
			</g>
		</g>
        <g>
			<g>
				<path class="st7" d="M337.8,349.4l0.2-71.9l88.6-1.5l-0.1,79.2L337.8,349.4z M422,298.2l0-15.4l-26.2,0.3l0,15L422,298.2z
					 M395.7,346.8l26.3,1.5l0-45.4l-26.2-0.3L395.7,346.8z M341.7,297.7l16.9,0.1l0-14.4l-16.9,0.2L341.7,297.7z M361.5,283.4
					l0,14.5l31.2,0.2l0-15L361.5,283.4z M358.6,302.2l-16.9-0.2l-0.1,41.6l16.9,1L358.6,302.2z M392.7,302.5l-31.2-0.3l-0.1,42.5
					l31.2,1.8L392.7,302.5z"/>
                <polygon class="st7" points="430.2,276.1 430.2,355 426.5,355.3 426.6,276 				"/>
			</g>
            <g>
				<polygon class="st9" points="422,282.8 422,298.2 395.8,298 395.8,283 				"/>
                <polygon class="st9" points="422,348.3 395.7,346.8 395.8,302.6 422,302.9 				"/>
                <polygon class="st9" points="358.6,297.8 341.7,297.7 341.7,283.6 358.6,283.4 				"/>
                <polygon class="st9" points="361.5,297.8 361.5,283.4 392.7,283.1 392.7,298 				"/>
                <polygon class="st9" points="341.7,302 358.6,302.2 358.5,344.6 341.6,343.6 				"/>
                <polygon class="st9" points="361.5,302.2 392.7,302.5 392.6,346.6 361.4,344.7 				"/>
			</g>
		</g>
	</g>
</g>
</svg>
