<?xml version="1.0" encoding="utf-8"?>
<!-- Generator: Adobe Illustrator 25.0.1, SVG Export Plug-In . SVG Version: 6.00 Build 0)  -->
<svg version="1.1" id="katman_1" xmlns="http://www.w3.org/2000/svg" x="0px" y="0px"
     viewBox="0 0 841.9 595.3" style="enable-background:new 0 0 841.9 595.3;" xml:space="preserve">
<style type="text/css">
	.st0{fill:#8F6645;}
	.st1{fill:#EEEEEE;}
	.st2{fill:#DDDDDD;}
	.st3{fill:#3D3A37;}
	.st4{fill:#C4C4C4;}
	.st5{fill:#3D3A37;}
	.st6{fill:#000000;}
	.st7{fill:#FFFFFF;}
	.st8{fill:#888888;}
	.st9{fill:#7884AF;}
</style>


    <g id="body">
	<g>
		<polygon class="st4" points="549.2,573.5 674.1,539.9 667.9,195.4 667.9,192 610.6,69.7 547.2,161.6 545.4,162 				"/>
        <polygon class="st4" points="549.2,573.5 545.4,162 269.7,210.4 267.7,400.3 267.6,403.4 267.6,405.1 267.3,439.2 267.3,441.3
			266.4,523.7 				"/>
        <polygon class="st4" points="322.9,182.9 365,174.7 365.2,113.4 343.5,103.8 323.3,123.6 323.3,125 323.3,126.4 323.2,142.9
							"/>
        <polygon class="st4" points="365.2,113.4 365,174.7 407.9,124.8 				"/>
        <polygon class="st4" points="487.9,150.8 529.4,95.9 488,81.6 				"/>
        <polygon class="st4" points="487.9,150.8 487.5,81.4 460.5,71.7 434.9,94.9 434.9,99.7 434.9,105.5 435,161.1 				"/>
        <polygon class="st0" points="258.4,522.8 264.9,523.9 265.7,441.4 180.5,434.4 179.3,508.9 183.4,509.6 184.5,441.8
			187.3,442.1 259.2,448.7 259,466.7 258.8,485.2 258.6,503.6 258.4,522.1 				"/>
	</g>
        <polygon class="st4" points="183.5,509.5 185.5,509.3 186.7,492.5 185.7,492.3 187,475.5 185.9,475.4 187.2,458.6 186.3,458.5
			187.4,442 184.7,441.8 			"/>
</g>


    <g id="roof">
	<polygon class="st2" points="531.8,93.3 514.9,87.2 511.6,86 459.6,67.7 489,78.3 532.7,93.6 530.4,92.8 			"/>
        <polygon class="st3" points="514.9,87.2 531.8,93.3 530.4,92.8 532.7,93.6 532.3,94.7 530.9,96 529.4,95.4 487.9,150.3
			435,160.6 434.9,105 395.3,114.8 399,115.8 410.3,122.3 409,121.9 411.8,123.1 409.9,124.9 408,124.3 365,174.2 322.9,182.4 
			323.2,142.4 262.2,207.9 268.1,206.9 270.7,206.4 375.8,187.5 545.2,157.1 611.7,61.3 511.6,86 			"/>
        <polygon class="st1" points="530.9,96 532.3,94.7 532.7,93.6 489,78.3 488,81.1 529.4,95.4 			"/>
        <polygon class="st1" points="409.9,124.9 411.9,123.2 365.5,110.6 364.8,112.8 408,124.3 			"/>
        <polygon class="st1" points="411.9,123.2 409,121.9 410.3,122.3 399,115.8 395.3,114.8 341.1,99.9 365.5,110.6 			"/>
        <polygon class="st1" points="488,81.1 489,78.3 459.6,67.7 457.7,68.3 428.1,95.3 429,97.4 458.6,70.5 460.5,71.2 487.6,80.9
			"/>
        <polygon class="st1" points="668,194.9 673.6,194.1 672.1,191 667.9,191.5 			"/>
        <polygon class="st1" points="667.9,191.5 672.1,191 613.5,65.1 610.6,69.2 			"/>
        <polygon class="st1" points="672.1,191 673.6,194.1 674.9,191.5 615,62.6 611.7,61.3 545.2,157.1 545.6,157.9 547.3,161.1
			610.6,69.2 613.5,65.1 			"/>
        <polygon class="st2" points="339.9,100.5 317.1,122.9 317.7,124.5 318.8,123.4 340.5,102 343.5,103.3 364.8,112.8 365.5,110.6
			341.1,99.9 			"/>
        <polygon class="st2" points="431,98 434.9,99.2 434.9,94.4 			"/>
        <polygon class="st2" points="323.3,123.1 343.5,103.3 340.5,102 318.8,123.4 323.3,124.5 			"/>
        <polygon class="st2" points="429,97.4 431,98 434.9,94.4 460.5,71.2 458.6,70.5 			"/>
        <polygon class="st2" points="265.8,440.9 267.3,440.8 267.3,438.7 			"/>
        <polygon class="st2" points="180.5,433.9 265.8,440.9 264.7,439 179.5,432.2 			"/>
        <polygon class="st3" points="179.5,432.2 264.7,439 265.4,404.9 221.8,403 			"/>
        <path class="st2" d="M267,438.7l0.6-34.1L267,438.7z"/>
        <polygon class="st2" points="264.7,439 265.8,440.9 267,438.7 			"/>
        <polygon class="st2" points="264.7,439 267,438.7 267.6,404.6 265.4,404.9 			"/>
        <polygon class="st2" points="265.4,404.9 267.6,404.6 266.4,403 			"/>
        <path class="st2" d="M179.6,432l42.1-28.9L179.6,432z"/>
        <path class="st2" d="M221.9,402.9l1-1.7L221.9,402.9z"/>
        <polygon class="st4" points="222.8,401.2 221.8,403 265.4,404.9 266.4,403 			"/>
        <polygon class="st4" points="222.8,401.2 266.4,403 267.7,402.9 267.7,399.9 			"/>
        <polygon class="st1" points="266.4,403 267.6,404.6 267.7,402.9 			"/>
        <polygon class="st1" points="323.3,124.5 318.8,123.4 317.7,124.5 323.3,125.9 			"/>
        <polygon class="st1" points="262.2,207.9 264.3,210.9 267.1,207.9 268.1,206.9 			"/>
        <polygon class="st1" points="267.1,207.9 264.3,210.9 269.7,209.9 545.4,161.5 547.3,161.1 545.7,158.1 376.5,188.3 269.7,207.4
						"/>
        <polygon class="st2" points="545.4,158.1 545.2,157.1 375.9,187.5 376.5,188.3 			"/>
        <polygon class="st2" points="376.5,188.3 375.9,187.5 376.3,188.4 			"/>
        <polygon class="st2" points="376.3,188.4 375.8,187.5 270.7,206.4 269.7,207.4 			"/>
        <polygon class="st2" points="269.7,207.4 270.7,206.4 268.1,206.9 267.1,207.9 			"/>
</g>


    <g id="chimney">
	<polygon class="st5" points="589.9,501.9 615.3,504.6 611.1,219.6 586.3,222.6 			"/>
        <polygon class="st5" points="615.3,504.6 589.9,501.9 590.7,563.6 616.2,567.6 			"/>
        <polygon class="st5" points="615.3,504.6 616.2,567.6 652.5,557.2 651.4,497.5 			"/>
        <polygon class="st5" points="615.3,504.6 651.4,497.5 646.8,227.4 611.1,219.6 			"/>
        <polygon class="st5" points="588.5,23.1 590.9,201.3 610.5,198.6 607.9,17.6 			"/>
        <polygon class="st6" points="646.8,227.4 637.3,205.2 610.5,198.6 611.1,219.6 			"/>
        <polygon class="st6" points="586.3,222.6 611.1,219.6 610.5,198.6 590.9,201.3 			"/>
        <polygon class="st6" points="637.2,204.8 634.3,31.1 607.9,17.6 610.5,198.6 637.3,205.2 			"/>
</g>


    <g id="right-window">
	<g>
		<g>
			<polygon class="st7" points="365.1,317.4 364.9,383.5 367.2,383.5 367.5,317.5 				"/>
            <path class="st7" d="M290.8,382.3l0.6-61.2l73.8-3.7l-0.2,66.1L290.8,382.3z M360.8,378.7l0.2-42l-32.6,1l-3.7,0.2l-30.1,0.9
				l-0.3,39.1L360.8,378.7z M294.8,325.3l-0.1,9.5l30.1-1.1l0.1-9.8L294.8,325.3z M328.5,323.8l-0.1,9.9l32.6-1.1l0-10.2
				L328.5,323.8z"/>
		</g>
        <g>
			<polygon class="st9" points="294.6,338.9 294.3,378 360.8,378.7 361,336.8 328.4,337.8 324.7,338 				"/>
            <polygon class="st9" points="324.7,333.7 324.8,323.9 294.8,325.3 294.7,334.8 				"/>
            <polygon class="st9" points="361,332.5 361.1,322.3 328.5,323.8 328.4,333.6 				"/>
		</g>
	</g>

        <g>
		<g>
			<polygon class="st7" points="498.3,310.7 498.7,385.7 501,385.7 500.6,310.9 				"/>
            <path class="st7" d="M404.2,384.2l0.1-68.7l94-4.7l0.4,75L404.2,384.2z M493.5,380.3l-0.3-47.6l-41.7,1.3l-4.7,0.2l-38.1,1.2
				l0,43.9L493.5,380.3z M408.7,320.1l0,10.6l38.1-1.3l0-11L408.7,320.1z M451.4,318.2l0,11.2l41.7-1.5l-0.1-11.6L451.4,318.2z"/>
		</g>
            <g>
			<polygon class="st9" points="408.7,335.4 408.6,379.3 493.5,380.3 493.2,332.7 451.5,334 446.8,334.2 				"/>
                <polygon class="st9" points="446.8,329.4 446.8,318.4 408.7,320.1 408.7,330.7 				"/>
                <polygon class="st9" points="493.2,327.9 493.1,316.3 451.4,318.2 451.5,329.3 				"/>
		</g>
	</g>

</g>


    <g>
	<g>
		<g>
			<polygon class="st8" points="186.4,492.7 185.2,509.5 258.2,522.2 258.4,503.7 			"/>
            <polygon class="st8" points="186.7,475.7 185.4,492.5 186.4,492.7 258.4,503.7 258.7,485.3 			"/>
            <polygon class="st8" points="186.9,458.8 185.5,475.6 186.7,475.7 258.7,485.3 258.9,466.8 			"/>
            <polygon class="st8" points="187.1,442.2 186,458.7 186.9,458.8 258.9,466.8 259.1,448.8 			"/>
		</g>
	</g>

        <g>
		<g>
			<polygon class="st0" points="403.7,531 361.6,524.4 361.6,523.5 349.7,521.6 320.2,526.3 394.2,538.9 423.6,533.4 403.7,530.2 
							"/>
            <polygon class="st0" points="423.6,549.9 423.6,533.4 394.2,538.9 394.2,555.9 			"/>
            <polygon class="st4" points="320.1,542.1 394.2,555.9 394.2,538.9 320.2,526.3 			"/>
		</g>

            <g>
			<g>
				<polygon class="st7" points="500.6,446.8 501,523.5 503.4,523 502.9,446.5 				"/>
                <path class="st7" d="M441.4,515.2l-0.1-72.6l59.3,4.2l0.5,76.7L441.4,515.2z M497.8,517.6l-0.3-48.8l-25.9-2.3l-3-0.2
					l-24.5-2.2l0.1,46.4L497.8,517.6z M444.1,448l0,11.2l24.5,2.1l0-11.5L444.1,448z M471.5,450l0.1,11.6l25.9,2.2l-0.1-11.9
					L471.5,450z"/>
			</g>
                <polygon class="st7" points="443.7,442.4 441.3,442.6 500.6,446.8 502.9,446.5 			"/>
                <g>
				<polygon class="st9" points="444.2,464.1 444.3,510.4 497.8,517.6 497.5,468.8 471.6,466.5 468.6,466.3 				"/>
                    <polygon class="st9" points="468.6,461.3 468.6,449.8 444.1,448 444.2,459.2 				"/>
                    <polygon class="st9" points="497.5,463.8 497.4,452 471.5,450 471.6,461.6 				"/>
			</g>
		</g>


            <g>
			<g>
				<polygon class="st7" points="359.6,118.4 359.4,162.4 361.7,162.9 361.9,119 				"/>
                <path class="st7" d="M326.1,169.3l0.3-42.5l33.2-8.3l-0.2,44L326.1,169.3z M341.6,163l0.1-17.2l-13.8,3.1l-0.1,17L341.6,163z
					 M328,129.4l-0.1,16.9l13.8-3.2l0.1-17.1L328,129.4z M343.5,125.5l-0.1,17.2l14.4-3.3l0.1-17.4L343.5,125.5z M357.7,159.6
					l0.1-17.5l-14.4,3.3l-0.1,17.2L357.7,159.6z"/>
                <polygon class="st7" points="359.4,162.4 326.1,169.3 328.4,169.7 361.7,162.9 				"/>
			</g>
                <g>
				<polygon class="st9" points="327.8,148.9 327.7,165.9 341.6,163 341.7,145.8 				"/>
                    <polygon class="st9" points="341.7,143.1 341.8,126 328,129.4 327.9,146.3 				"/>
                    <polygon class="st9" points="357.8,139.4 357.8,122 343.5,125.5 343.4,142.7 				"/>
                    <polygon class="st9" points="343.4,145.4 343.3,162.7 357.7,159.6 357.8,142.1 				"/>
			</g>
		</g>


            <g>
			<g>
				<polygon class="st7" points="332.9,434.9 332.5,500 335,499.7 335.3,434.7 				"/>
                <path class="st7" d="M289.1,494l0.6-62.2l43.3,3l-0.4,65.1L289.1,494z M330.3,495l0.3-41.4l-18.9-1.7l-2.2-0.1l-17.9-1.6
					l-0.4,39.7L330.3,495z M291.7,436.4l-0.1,9.6l17.9,1.5l0.1-9.8L291.7,436.4z M311.8,437.9l-0.1,9.9l18.8,1.6l0.1-10.1
					L311.8,437.9z"/>
			</g>
                <polygon class="st3" points="292,431.7 289.6,431.8 332.9,434.9 335.3,434.7 			"/>
                <g>
				<polygon class="st9" points="291.6,450.2 291.2,489.8 330.3,495 330.5,453.6 311.7,451.9 309.5,451.8 				"/>
                    <polygon class="st9" points="309.5,447.5 309.6,437.7 291.7,436.4 291.6,446 				"/>
                    <polygon class="st9" points="330.5,449.4 330.6,439.3 311.8,437.9 311.7,447.8 				"/>
			</g>
		</g>
            <g>
			<g>
				<polygon class="st7" points="481,87.7 481.2,137 483.4,137.6 483.2,88.4 				"/>
                <path class="st7" d="M439.3,145.6l-0.1-47.5L481,87.7l0.2,49.3L439.3,145.6z M458.7,138.2l-0.1-19.3l-17.4,3.9l0,19
					L458.7,138.2z M441.3,101l0,18.9l17.4-4l-0.1-19.2L441.3,101z M460.7,96.2l0.1,19.2l18.1-4.2l-0.1-19.5L460.7,96.2z M479,133.9
					l-0.1-19.6l-18.1,4.1l0.1,19.3L479,133.9z"/>
                <polygon class="st7" points="481.2,137 439.3,145.6 441.6,146.2 483.4,137.6 				"/>
			</g>
                <g>
				<polygon class="st9" points="441.3,122.9 441.3,141.8 458.7,138.2 458.7,118.9 				"/>
                    <polygon class="st9" points="458.6,115.9 458.6,96.7 441.3,101 441.3,119.9 				"/>
                    <polygon class="st9" points="478.9,111.3 478.8,91.7 460.7,96.2 460.7,115.4 				"/>
                    <polygon class="st9" points="460.7,118.4 460.8,137.7 479,133.9 478.9,114.3 				"/>
			</g>
		</g>

            <g>
			<g>
				<polygon class="st7" points="497.1,182 497.5,255.7 499.8,256 499.4,182.5 				"/>
                <path class="st7" d="M403.9,264.9l0.1-67.6l93.2-15.3l0.4,73.7L403.9,264.9z M492.3,250.9l-0.3-46.8l-41.4,6l-4.7,0.8
					l-37.8,5.5l0,43.2L492.3,250.9z M408.3,201.4l0,10.5l37.8-5.7l0-10.8L408.3,201.4z M450.7,194.6l0,11l41.3-6.2L492,188
					L450.7,194.6z"/>
                <polygon class="st7" points="497.5,255.7 403.9,264.9 406.2,265.2 499.8,256 				"/>
			</g>
                <g>
				<polygon class="st9" points="408.3,216.4 408.2,259.7 492.3,250.9 492.1,204.2 450.7,210.2 446.1,210.9 				"/>
                    <polygon class="st9" points="446.1,206.2 446.1,195.4 408.3,201.4 408.3,211.9 				"/>
                    <polygon class="st9" points="492.1,199.4 492,188 450.7,194.6 450.7,205.6 				"/>
			</g>
		</g>

            <g>
			<g>
				<polygon class="st7" points="365.1,203.8 364.8,268.8 367.2,269.1 367.4,204.2 				"/>
                <path class="st7" d="M291.3,276.1l0.5-60.3l73.3-12.1l-0.2,65.1L291.3,276.1z M360.8,264.6l0.2-41.3l-32.4,4.7l-3.7,0.6
					l-29.9,4.3l-0.3,38.5L360.8,264.6z M295.2,219.5l-0.1,9.3l29.9-4.5l0.1-9.6L295.2,219.5z M328.7,214.2l-0.1,9.7l32.4-4.9l0-10.1
					L328.7,214.2z"/>
                <polygon class="st7" points="364.8,268.8 291.3,276.1 293.6,276.3 367.2,269.1 				"/>
			</g>
                <g>
				<polygon class="st9" points="295.1,232.9 294.8,271.4 360.8,264.6 361,223.3 328.6,228 325,228.6 				"/>
                    <polygon class="st9" points="325,224.4 325.1,214.8 295.2,219.5 295.2,228.9 				"/>
                    <polygon class="st9" points="361,219.1 361.1,209 328.7,214.2 328.7,223.9 				"/>
			</g>
		</g>

            <g>
			<g>
				<polygon class="st9" points="365.8,439.7 365.7,458.5 381.4,460 381.4,440.8 				"/>
                <polygon class="st9" points="381.4,437.9 381.5,418.8 365.8,418 365.8,436.8 				"/>
                <polygon class="st9" points="399.7,439.1 399.7,419.7 383.4,418.9 383.3,438 				"/>
                <polygon class="st9" points="383.3,441 383.3,460.2 399.6,461.6 399.7,442.2 				"/>
			</g>

                <g>
				<path class="st7" d="M361.6,523.1l0.4-111.8l41.7,1.9l0,2.7l-0.1,111.1l0,2.9v0.8l-42-6.6L361.6,523.1z M364,414.2l-0.4,107.3
					l37.9,5.9l0.1-111.4L364,414.2z"/>
                    <path class="st8" d="M363.6,521.4l0.4-107.3l37.7,1.8l-0.1,111.4L363.6,521.4z M381.4,459.6l0-19.1l-15.7-1.1l-0.1,18.8
					L381.4,459.6z M365.8,417.6l-0.1,18.8l15.7,1.1l0.1-19.1L365.8,417.6z M383.3,418.5l-0.1,19.1l16.3,1.1l0-19.4L383.3,418.5z
					 M399.6,461.3l0-19.5l-16.4-1.2l0,19.2L399.6,461.3z M399.1,484.4l0.5-0.7l0.3-0.9l0.2-1l0-1l-0.2-1l-0.4-0.9l-0.5-0.7l-0.7-0.5
					l-0.7-0.3l-0.7,0l-1.9,0.2l-0.7,0.2l-0.6,0.5L393,479l-0.3,0.9l-0.2,1l0,1l0.2,1l0.4,0.9l0.5,0.7l0.7,0.5l0.7,0.3l0.7,0l1.9-0.3
					l0.7-0.2L399.1,484.4z"/>
                    <polygon class="st7" points="398.1,481 397.9,480 397.5,479.1 397,478.4 396.3,477.8 395.6,477.6 394.8,477.5 394.1,477.8
					393.5,478.3 393,479 392.7,479.9 392.5,480.9 392.6,481.9 392.8,482.9 393.2,483.8 393.8,484.6 394.4,485.1 395.1,485.4 
					395.9,485.4 396.6,485.2 397.2,484.7 397.7,484 398,483.1 398.2,482.1 				"/>
			</g>
		</g>
	</g>
</g>
</svg>
