<?xml version="1.0" encoding="utf-8"?>
<!-- Generator: Adobe Illustrator 25.0.1, SVG Export Plug-In . SVG Version: 6.00 Build 0)  -->
<svg version="1.1" id="katman_1" xmlns="http://www.w3.org/2000/svg" x="0px" y="0px"
     viewBox="0 0 841.9 595.3" style="enable-background:new 0 0 841.9 595.3;" xml:space="preserve">
<style type="text/css">
	.st0{fill:#8F6645;}
	.st1{fill:#EEEEEE;}
	.st2{fill:#DDDDDD;}
	.st3{fill:#3D3A37;}
	.st4{fill:#C4C4C4;}
	.st5{fill:#3D3A37;}
	.st6{fill:#000000;}
	.st7{fill:#FFFFFF;}
	.st8{fill:#888888;}
	.st9{fill:#7884AF;}
</style>

    <g id="body">
	<polygon class="st4" points="308.1,573.7 309.5,147 307.2,146.7 233.4,43.8 173,167.7 173,172.3 170.6,532 			"/>
        <polygon class="st0" points="309.5,147 308.1,573.7 589.7,508.2 589.4,423.4 589.4,421.6 589.3,384 589.3,382.7 589.3,375.6
		588.6,183.3 			"/>
        <polygon class="st0" points="590.8,507.9 676.3,488 675.9,411.7 590.5,423.5 			"/>
</g>


    <g id="roof">
	<g>
		<polygon class="st3" points="516.2,95.4 232.2,35.6 309.3,142.3 595.5,180.6 			"/>
        <polygon class="st1" points="595.5,180.6 309.3,142.3 307.1,146.5 309.4,146.8 588.4,183.1 593.3,183.7 			"/>
        <polygon class="st1" points="309.3,142.3 232.2,35.6 228.4,36.9 164.8,168.7 166.4,171.5 168.6,167.1 230.3,39.5 233.2,43.6
			307.1,146.5 			"/>
        <polygon class="st1" points="230.3,39.5 168.6,167.1 172.9,167.5 233.2,43.6 			"/>
        <polygon class="st1" points="168.6,167.1 166.4,171.5 172.8,172.1 172.9,167.5 			"/>
        <polygon class="st1" points="590.4,423.3 675.7,411.5 677,409.4 591.7,421 			"/>
        <polygon class="st1" points="589.3,423.2 590.4,423.3 589.3,421.4 			"/>
        <polygon class="st3" points="591.7,421 677,409.4 634,379.7 590.3,383.8 			"/>
        <polygon class="st3" points="589.3,421.4 590.4,423.3 591.7,421 589.3,421.1 			"/>
        <polygon class="st3" points="589.3,421.1 591.7,421 590.3,383.8 589.1,383.8 			"/>
        <polygon class="st3" points="589.1,383.8 590.3,383.8 589.1,382.4 			"/>
        <polygon class="st3" points="589.1,382.4 590.3,383.8 634,379.7 632.7,378.2 589.1,382.2 			"/>
        <polygon class="st4" points="589.1,382.2 632.7,378.2 589.1,375.4 			"/>
	</g>
</g>


    <g id="chimney">
	<polygon class="st5" points="226.9,560.5 250.7,555.5 251,496.8 227.2,500.6 			"/>
        <polygon class="st5" points="189.7,548.5 226.9,560.5 227.2,500.6 190.1,491.5 			"/>
        <polygon class="st5" points="227.2,500.6 251,496.8 252.3,226.9 228.7,225.1 			"/>
        <polygon class="st5" points="190.1,491.5 227.2,500.6 228.7,225.1 191.7,229.5 			"/>
        <polygon class="st5" points="247.4,205.2 248.3,29.5 229.7,24.8 228.7,203.4 			"/>
        <polygon class="st6" points="228.7,225.1 252.3,226.9 247.4,205.2 228.7,203.4 			"/>
        <polygon class="st6" points="228.7,225.1 228.8,203.9 201.1,207.9 191.7,229.5 			"/>
        <polygon class="st6" points="228.7,203.4 229.7,24.8 202.1,35.3 201.1,207.9 228.8,203.9 			"/>
</g>


    <g id="left-window">
	<g>
		<polygon class="st8" points="391.7,379.1 395.7,378.9 395.7,340.7 393.6,340.7 393.6,376 391.7,376.1 			"/>
        <polygon class="st8" points="383.6,379.5 387.7,379.3 387.7,376.3 383.6,376.5 			"/>
        <polygon class="st8" points="366.3,380.5 371.5,380.2 371.5,377.1 369,377.3 369,340.7 366.3,340.7 			"/>
        <polygon class="st8" points="396.5,339.4 396.5,293.6 366.1,292.7 366,339.3 369,339.4 369.1,297.2 393.7,297.9 393.6,325.8
				394.4,327 394.4,327.7 394.4,328.4 394.1,329 393.6,339.4 			"/>
        <polygon class="st7" points="394.4,328.4 394.4,327.7 394.4,327 394.1,326.4 393.2,325.5 392,325.1 391.3,325.2 390.2,325.9
				389.5,327.1 389.4,327.7 389.5,328.4 389.8,329 390.7,329.9 391.9,330.3 392.6,330.2 393.6,329.6 			"/>
        <path class="st7" d="M389.8,326.4l-2.3-0.6L389.8,326.4z"/>
        <polygon class="st9" points="387.1,326.4 388,325.5 389.3,325.1 392,325.1 392.6,325.2 393.6,325.8 393.7,297.9 369.1,297.2
				369,339.4 381.9,339.6 393.6,339.4 393.6,329.6 392.6,330.2 391.9,330.3 389.3,330.3 388.6,330.2 387.5,329.5 386.8,328.4
				386.8,327.7 386.8,327 			"/>
        <path class="st8" d="M387.1,329l3.1,0.6L387.1,329z"/>
        <path class="st8" d="M388.6,325.2l2.1,0.3L388.6,325.2z"/>
        <polygon class="st8" points="389.3,325.1 388.6,325.2 391.3,325.2 392,325.1 			"/>
        <polygon class="st8" points="386.8,327.7 386.8,328.4 389.5,328.4 389.4,327.7 			"/>
        <path class="st8" d="M388,325.5l2.2,0.4L388,325.5z"/>
        <polygon class="st8" points="387.1,326.4 386.8,327 389.5,327.1 389.8,326.4 			"/>
        <polygon class="st8" points="386.8,327 386.8,327.7 389.4,327.7 389.5,327.1 			"/>
        <polygon class="st8" points="386.8,328.4 387.1,329 389.8,329 389.5,328.4 			"/>
        <polygon class="st8" points="388.6,330.2 389.3,330.3 391.9,330.3 391.3,330.2 			"/>
        <path class="st8" d="M387.5,329.5l3.2,0.4L387.5,329.5z"/>
        <path class="st8" d="M388,329.9l3.3,0.3L388,329.9z"/>
        <polygon class="st7" points="366,339.3 366.1,292.7 363.7,292.8 363.6,339.3 			"/>
        <polygon class="st8" points="393.6,376 393.6,340.7 391.7,340.8 391.7,376.1 			"/>
        <polygon class="st8" points="369,340.7 369,377.3 371.5,377.1 371.5,340.8 			"/>
        <polygon class="st8" points="383.6,376.5 387.7,376.3 387.7,340.8 383.7,340.9 			"/>
        <polygon class="st8" points="379.5,340.9 375.9,340.9 375.8,376.9 379.5,376.7 			"/>
        <polygon class="st8" points="379.5,376.7 375.8,376.9 375.8,380 379.5,379.8 			"/>
	</g>


        <g>
		<polygon class="st5" points="381.1,340.5 383.2,340.5 388.9,340.4 390.8,340.4 393.2,340.4 399,340.3 400.9,340.2 403,340.2
			408.7,340.1 410.7,340.1 413.2,340 419.9,339.9 421.9,339.9 424.2,339.8 430,339.7 431.9,339.7 434.1,339.7 439.7,339.6
			441.5,339.5 443.8,339.5 447.4,339.4 449,339.4 450.9,339.4 453.4,339.3 458.1,339.2 458.9,339.2 460.8,339.2 463.2,339.2
			468.5,339.1 470.3,339 472.8,339 477.2,338.9 479,338.9 480.8,338.8 480.8,337.7 364.6,339.6 364.6,340.9 367,340.8 371,340.8
			373.1,340.7 375,340.7 377,340.7 379.1,340.6 381.1,340.6 			"/>
            <polygon class="st5" points="381.1,340.5 379.1,340.6 379,378.8 379,383.1 381.1,383.2 381.1,340.5 			"/>
            <polygon class="st5" points="434.1,339.7 431.9,339.7 434.2,339.7 			"/>
            <polygon class="st5" points="443.8,339.5 441.5,339.5 443.9,339.5 			"/>
            <polygon class="st5" points="453.4,339.3 450.9,339.4 453.5,339.3 			"/>
            <polygon class="st5" points="463.2,339.2 460.8,339.2 463.3,339.2 			"/>
            <polygon class="st5" points="472.8,339 470.3,339 473,339 			"/>
            <polygon class="st5" points="480.8,337.7 440.7,337.1 437.1,337.2 472.4,337.7 437.7,338.3 379.8,339.3 377,339.3 365.2,339.5
				352.4,339.3 349.3,339.2 346.9,339.2 326.7,338.8 324.7,338.9 364.6,339.6 			"/>
            <polygon class="st5" points="437.1,337.2 437.1,338.3 472.4,337.7 			"/>
            <polygon class="st5" points="324.7,338.9 324.7,340.1 327.2,340.1 329.4,340.2 335.2,340.3 337.8,340.4 339.8,340.4 345.5,340.5
				347.7,340.5 349.7,340.6 352.4,340.6 354.9,340.7 357.2,340.7 359.2,340.8 362.9,340.8 364.6,340.9 364.6,339.6 			"/>
            <polygon class="st5" points="347.7,340.5 345.5,340.5 345.4,380.3 345.4,382.9 347.6,383.1 			"/>
            <polygon class="st5" points="347.6,383.1 345.4,382.9 345.4,380.3 339.7,380.7 339.7,382.3 337.8,382.4 335.1,382.3 335.1,380.9
				329.3,381.2 327.1,381.7 324.6,381.6 324,381.5 364.7,384.2 461.3,378.5 459,378.3 459,376.3 458.2,376.2 453.6,375.8
				453.6,378.9 451,379 449,378.9 449,375.8 447.4,375.7 443.9,375.3 443.9,379.5 441.7,379.6 439.7,379.5 439.7,375.2 434.2,375.5
				434.2,380.1 432,380.2 430,380.1 430,375.7 424.3,376 424.3,380.6 421.9,380.8 419.9,380.7 419.9,376.2 413.3,376.6 413.3,381.3
				410.7,381.5 408.7,381.3 408.7,376.9 403,377.2 403,381.9 400.8,382 399,381.9 399,377.4 393.1,377.7 393.1,382.5 390.8,382.6
				388.9,382.5 388.9,378 383.3,378.3 383.2,383.1 381.1,383.2 379,383.1 379,378.8 375,379 375,383.6 373.1,383.7 371,383.6
				371,379.2 367,379.4 367,384.1 364.8,384.2 362.8,384.1 362.8,379.7 359.2,379.9 359.2,383.6 357.1,383.7 354.8,383.5
				354.8,380.1 349.6,380.4 349.6,383 			"/>
            <polygon class="st5" points="335.1,382.3 337.8,382.4 337.8,340.4 335.2,340.3 335.1,380.9 			"/>
            <polygon class="st5" points="327.1,381.7 329.3,381.6 329.4,340.2 327.2,340.1 			"/>
            <polygon class="st5" points="324.6,381.6 327.1,381.7 327.2,340.1 324.7,340.1 324.6,381.5 			"/>
            <polygon class="st5" points="347.7,340.5 347.6,383.1 349.6,383 349.6,380.4 349.7,340.6 			"/>
            <polygon class="st5" points="337.8,340.4 337.8,382.4 339.7,382.3 339.7,380.7 339.8,340.4 			"/>
            <polygon class="st5" points="364.7,413.6 481.7,403.3 481.6,377.2 473.3,377.7 470.9,377.9 463.7,378.3 461.3,378.5 364.7,384.2
							"/>
            <polygon class="st5" points="323.9,409.6 364.7,413.6 364.7,384.2 324,381.5 			"/>
            <polygon class="st5" points="473.3,377.7 481.6,377.2 480.8,377.2 479.1,377.3 477.3,377.2 473.1,376.8 473.1,377.7 			"/>
            <polygon class="st5" points="477.3,377.2 479.1,377.3 479,338.9 477.2,338.9 477.3,377 			"/>
            <polygon class="st5" points="458.2,376.2 459,376.3 458.9,339.2 458.1,339.2 458.2,376 			"/>
            <polygon class="st5" points="447.4,375.7 449,375.8 449,339.4 447.4,339.4 447.4,375.5 			"/>
            <polygon class="st5" points="463.7,378.3 470.9,377.9 468.6,377.8 468.6,376.6 463.4,376.3 463.4,378.3 			"/>
            <polygon class="st5" points="373.1,340.7 371,340.8 371,376.2 371,379.2 371,383.6 373.1,383.7 			"/>
            <polygon class="st5" points="375,340.7 373.1,340.7 373.1,383.7 375,383.6 375,379 375,376 			"/>
            <polygon class="st5" points="410.7,340.1 408.7,340.1 408.7,376.9 408.7,381.3 410.7,381.5 			"/>
            <polygon class="st5" points="421.9,339.9 419.9,339.9 419.9,376.2 419.9,380.7 421.9,380.8 			"/>
            <polygon class="st5" points="424.3,339.8 421.9,339.9 421.9,380.8 424.3,380.6 424.3,376 			"/>
            <polygon class="st5" points="432,339.7 430,339.7 430,375.7 430,380.1 432,380.2 			"/>
            <polygon class="st5" points="441.6,339.5 439.7,339.6 439.7,375.2 439.7,379.5 441.7,379.6 			"/>
            <polygon class="st5" points="450.9,339.4 449,339.4 449,375.8 449,378.9 451,379 			"/>
            <polygon class="st5" points="463.4,339.2 461,339.2 461,378.5 463.4,378.3 463.4,376.3 			"/>
            <polygon class="st5" points="461,339.2 458.9,339.2 459,376.3 459,378.3 461,378.5 			"/>
            <polygon class="st5" points="470.5,339 468.5,339.1 468.6,376.6 468.6,377.8 470.6,377.9 			"/>
            <polygon class="st5" points="470.9,377.9 473.3,377.7 470.6,377.9 			"/>
            <polygon class="st5" points="461.3,378.5 463.7,378.3 461,378.5 			"/>
            <polygon class="st5" points="354.8,383.5 357.1,383.7 357.2,340.7 354.9,340.7 354.8,377.1 354.8,380.1 			"/>
            <polygon class="st5" points="357.1,383.7 359.2,383.6 359.2,379.9 359.2,376.8 359.2,340.8 357.2,340.7 			"/>
            <polygon class="st5" points="364.8,384.2 367,384.1 367,379.4 367,376.4 367,340.8 364.8,340.9 			"/>
            <polygon class="st5" points="364.8,384.2 364.8,340.9 362.9,340.8 362.8,376.6 362.8,379.7 362.8,384.1 			"/>
            <polygon class="st5" points="381.1,383.2 383.2,383.1 383.3,378.3 383.3,340.5 381.1,340.5 			"/>
            <polygon class="st5" points="390.8,382.6 393.1,382.5 393.1,377.7 393.2,340.4 390.8,340.4 			"/>
            <polygon class="st5" points="390.8,382.6 390.8,340.4 388.9,340.4 388.9,378 388.9,382.5 			"/>
            <polygon class="st5" points="400.8,382 403,381.9 403,377.2 403,340.2 400.9,340.2 			"/>
            <polygon class="st5" points="400.8,382 400.9,340.2 399,340.3 399,377.4 399,381.9 			"/>
            <polygon class="st5" points="410.7,381.5 413.3,381.3 413.3,376.6 413.3,340 410.7,340.1 			"/>
            <polygon class="st5" points="432,380.2 434.2,380.1 434.2,375.5 434.2,339.7 432,339.7 			"/>
            <polygon class="st5" points="441.7,379.6 443.9,379.5 443.9,375.3 443.9,339.5 441.6,339.5 			"/>
            <polygon class="st5" points="451,379 453.6,378.9 453.6,375.8 453.5,339.3 450.9,339.4 			"/>
            <polygon class="st5" points="470.6,377.9 473.1,377.7 473.1,376.8 473,339 470.5,339 			"/>
            <polygon class="st5" points="479,338.9 479.1,377.3 480.8,377.2 480.8,338.8 			"/>
	</g>
</g>


    <g>
	<g>

		<g>
			<polygon class="st5" points="499.6,240.9 497.4,241.1 497.5,277.8 499.6,277.7 			"/>
            <polygon class="st5" points="497.4,241.1 499.6,240.9 516.5,239.7 516.5,238.6 476.6,241.5 476.6,242.6 479,242.4 487.1,241.8
				489.7,241.6 			"/>
            <polygon class="st5" points="604.9,247.3 604.9,246.3 546.6,241.2 544.5,241 526.8,239.5 524.6,239.3 522.3,239.1 516.5,238.6
				516.5,239.7 522.8,240.2 524.3,240.4 528.8,240.8 530.5,240.8 551.2,242.7 553.2,242.8 559.7,243.4 561.5,243.6 567.3,244.1
				569.1,244.2 574.7,244.7 576.5,244.8 581.8,245.3 583.9,245.5 589.5,245.9 591.5,246.1 596.8,246.6 598.9,246.7 603.5,247.1
				"/>
            <polygon class="st5" points="528.8,240.7 526.8,240.9 526.9,277.5 529,277.6 528.9,240.7 			"/>
            <polygon class="st5" points="526.8,240.9 528.8,240.8 524.3,240.4 526.8,240.9 			"/>
            <polygon class="st5" points="596.8,246.6 591.5,246.1 595.1,247 			"/>
            <polygon class="st5" points="596.8,246.6 595.1,246.7 595.1,247.3 595.2,280.5 597.2,280.5 597,246.6 			"/>
            <polygon class="st5" points="595.1,247 591.5,246.6 591.5,247.6 595.1,247.3 			"/>
            <polygon class="st5" points="589.5,245.9 583.9,245.5 587.7,246.3 			"/>
            <polygon class="st5" points="589.5,245.9 587.7,246.1 587.7,246.8 587.7,247.8 587.8,280.1 589.8,280.2 589.7,245.9 			"/>
            <polygon class="st5" points="587.7,246.8 583.9,247.1 583.9,248 587.7,247.8 			"/>
            <polygon class="st5" points="581.8,245.3 576.5,244.8 580,245.6 			"/>
            <polygon class="st5" points="581.8,245.3 580,245.4 580,247.3 580,248.3 580.2,279.8 582.1,279.9 581.9,245.3 			"/>
            <polygon class="st5" points="580,247.3 576.6,247.5 576.6,248.5 580,248.3 			"/>
            <polygon class="st5" points="574.7,244.7 569.1,244.2 572.9,245 			"/>
            <polygon class="st5" points="574.7,244.7 572.9,244.8 572.9,247.8 572.9,248.7 573,279.5 574.9,279.6 574.8,244.7 			"/>
            <polygon class="st5" points="572.9,247.8 569.1,248 569.1,249 572.9,248.7 			"/>
            <polygon class="st5" points="567.3,244.1 561.5,243.6 565.5,244.3 			"/>
            <polygon class="st5" points="567.3,244.1 565.5,244.2 565.5,248.2 565.5,249.2 565.6,279.2 567.5,279.3 567.4,244.1 			"/>
            <polygon class="st5" points="563.1,248.4 563.1,249.3 565.5,249.2 565.5,248.2 			"/>
            <path class="st5" d="M563.1,249.3l2.4,0.2L563.1,249.3z"/>
            <polygon class="st5" points="559.7,243.4 553.2,242.8 557.8,243.7 			"/>
            <polygon class="st5" points="559.7,243.4 557.8,243.5 557.9,278.9 559.8,278.9 559.7,243.4 			"/>
            <polygon class="st5" points="551.2,242.7 530.5,240.9 534.3,241.6 536.1,241.4 537.9,241.6 541.9,242.3 543.7,242.1 545.4,242.2
				546.6,242.7 549.2,242.9 			"/>
            <polygon class="st5" points="537.9,241.6 536.1,241.4 536.2,277.9 538,278 537.9,241.9 			"/>
            <polygon class="st5" points="545.4,242.2 543.7,242.1 543.8,278.3 545.5,278.3 545.4,242.6 			"/>
            <polygon class="st5" points="536.1,241.4 534.3,241.5 534.4,277.9 536.2,277.9 			"/>
            <polygon class="st5" points="543.7,242.1 541.9,242.2 542,278.2 543.8,278.3 			"/>
            <polygon class="st5" points="551.2,242.7 549.2,242.8 549.3,278.5 551.3,278.6 551.2,242.7 			"/>
            <polygon class="st5" points="522.8,240.2 516.5,239.7 499.6,240.9 501.1,241 506.6,240.7 509,240.3 510.4,240.4 514.6,240.1
				516.6,239.7 518.2,239.9 520.8,240.4 			"/>
            <polygon class="st5" points="501.1,241 499.6,240.9 499.6,277.7 501.1,277.7 501.1,241.1 			"/>
            <polygon class="st5" points="509,240.3 506.6,240.5 506.7,277.5 509,277.4 			"/>
            <polygon class="st5" points="510.4,240.4 509,240.3 509,277.4 510.6,277.3 510.5,240.4 			"/>
            <polygon class="st5" points="516.6,239.7 514.6,239.9 514.7,277.2 516.7,277.1 			"/>
            <polygon class="st5" points="595.1,247.3 591.5,247.6 593.4,247.9 595.1,247.7 			"/>
            <polygon class="st5" points="595.1,247.7 593.4,247.7 593.6,280.4 595.2,280.5 			"/>
            <polygon class="st5" points="587.7,247.8 583.9,248 585.8,248.2 587.1,248.3 587.7,248.3 			"/>
            <polygon class="st5" points="585.8,248.2 583.9,248.3 584.1,280 586,280.1 			"/>
            <polygon class="st5" points="587.1,248.3 585.8,248.2 586,280.1 587.2,280.1 587.1,248.3 			"/>
            <polygon class="st5" points="580,248.3 576.6,248.5 580,248.7 			"/>
            <polygon class="st5" points="572.9,248.7 569.1,249 572.7,249.2 			"/>
            <path class="st5" d="M572.9,249l-0.1,30.5L572.9,249z"/>
            <polygon class="st5" points="591.5,246.1 589.7,245.9 589.8,280.2 591.7,280.3 591.5,248.1 591.5,246.6 			"/>
            <polygon class="st5" points="566,304.1 605.9,303.7 516.8,302.4 476,302.9 			"/>
            <polygon class="st5" points="516.8,302.4 605.9,303.7 605.8,280.9 605,280.9 603.7,280.8 601.9,280.7 599.1,280.6 597.2,280.5
				595.2,280.5 593.6,280.4 591.7,280.3 589.8,280.2 587.8,280.1 587.2,280.1 586,280.1 584.1,280 582.1,279.9 580.2,279.8
				576.7,279.7 574.9,279.6 573,279.5 569.3,279.3 567.5,279.3 565.6,279.2 561.6,279 559.8,278.9 557.9,278.9 553.3,278.7
				551.3,278.6 549.3,278.5 546.7,278.4 545.5,278.3 543.8,278.3 542,278.2 538,278 536.2,277.9 534.4,277.9 530.6,277.7 529,277.6
				526.9,277.5 524.7,277.4 522.9,277.4 520.9,277.3 518.3,277.2 516.7,277.1 			"/>
            <polygon class="st5" points="476,302.9 516.8,302.4 516.7,277.1 514.7,277.2 510.6,277.3 509,277.4 506.7,277.5 501.1,277.7
				499.6,277.7 497.5,277.8 491.3,278 489.8,278.1 487.2,278.2 480.8,278.4 479.1,278.5 476.6,278.5 			"/>
            <polygon class="st5" points="520.8,240.4 520.9,277.3 522.9,277.4 522.8,240.2 520.8,240.4 			"/>
            <polygon class="st5" points="516.6,239.7 516.7,277.1 518.3,277.2 518.2,240.2 			"/>
            <polygon class="st5" points="522.8,240.2 522.9,277.4 524.4,277.4 524.3,240.7 			"/>
            <polygon class="st5" points="528.9,240.7 529,277.6 530.6,277.7 530.5,241.2 			"/>
            <polygon class="st5" points="551.2,242.7 551.3,278.6 553.3,278.7 553.2,243.2 			"/>
            <polygon class="st5" points="559.7,243.4 559.8,278.9 561.6,279 561.5,244 			"/>
            <polygon class="st5" points="567.4,244.1 567.5,279.3 569.3,279.3 569.1,249.4 569.1,248 569.1,244.7 			"/>
            <polygon class="st5" points="574.8,244.7 574.9,279.6 576.7,279.7 576.6,248.9 576.6,247.5 576.5,245.3 			"/>
            <polygon class="st5" points="581.9,245.3 582.1,279.9 584.1,280 583.9,248.3 583.9,247.1 583.9,246 			"/>
            <polygon class="st5" points="597,246.6 597.2,280.5 599.1,280.6 598.9,247.6 598.9,246.8 			"/>
            <polygon class="st5" points="605,280.9 604.9,247.3 603.5,247.1 603.7,280.8 			"/>
            <polygon class="st5" points="603.7,280.8 603.5,247.1 601.8,247.3 601.9,280.7 			"/>
            <polygon class="st5" points="601.8,247.3 603.5,247.1 598.9,246.8 598.9,247.6 601.8,247.4 			"/>
            <polygon class="st5" points="476.6,242.6 476.6,278.5 479.1,278.5 479,242.4 			"/>
            <polygon class="st5" points="479,242.4 479.1,278.5 480.8,278.4 480.7,242.5 			"/>
            <polygon class="st5" points="479,242.4 480.6,242.5 487.1,242.1 			"/>
            <polygon class="st5" points="489.7,241.6 487.1,241.8 487.2,278.2 489.8,278.1 			"/>
            <polygon class="st5" points="489.7,241.6 489.8,278.1 491.3,278 491.2,241.8 			"/>
            <polygon class="st5" points="489.7,241.6 491.2,241.7 497.4,241.3 			"/>
            <path class="st5" d="M526.8,240.9l0.1,36.6L526.8,240.9z"/>
		</g>

        <g>
			<polygon class="st8" points="534.1,241.3 530.4,241 530.5,277.4 534.2,277.6 			"/>
            <polygon class="st8" points="541.8,242 537.8,241.6 537.9,277.7 541.9,277.9 			"/>
            <polygon class="st8" points="546.4,240.9 546.3,208.7 524.4,206 524.5,239 526.7,239.2 526.6,210.1 544.2,212.2 544.3,234.9
				545.1,235.5 545.6,236.5 545.6,237.7 545.1,238.6 544.3,239.1 544.3,240.7 			"/>
            <polygon class="st7" points="545.6,237.7 545.6,236.5 545.1,235.5 544.3,234.9 543.4,234.8 542.5,235.3 542.1,236.2 542.1,237.3
				542.6,238.4 543.4,239 544.3,239.1 545.1,238.6 			"/>
            <path class="st8" d="M542.3,235.7l-2.4-0.2L542.3,235.7z"/>
            <polygon class="st9" points="539.6,235.9 540.3,235.2 543.4,234.8 544.3,234.9 544.2,212.2 526.6,210.1 526.7,239.2 544.3,240.7
				544.3,239.1 541.2,239.3 540.3,238.9 539.6,238.1 539.4,237 			"/>
            <path class="st5" d="M539.6,238.1l2.9,0.3L539.6,238.1z"/>
            <path class="st8" d="M540.7,235l2.2,0L540.7,235z"/>
            <path class="st8" d="M539.4,237l2.7,0.4L539.4,237z"/>
            <path class="st8" d="M540.3,235.2l2.3,0.1L540.3,235.2z"/>
            <path class="st8" d="M539.6,235.9l2.5,0.3L539.6,235.9z"/>
            <path class="st8" d="M539.4,236.4l2.6,0.4L539.4,236.4z"/>
            <path class="st8" d="M539.4,237.5l2.8,0.4L539.4,237.5z"/>
            <path class="st8" d="M540.7,239.2l3.1-0.1L540.7,239.2z"/>
            <path class="st8" d="M539.9,238.6l3,0.2L539.9,238.6z"/>
            <path class="st8" d="M540.3,238.9l3.1,0.1L540.3,238.9z"/>
            <polygon class="st7" points="524.5,239 524.4,206 522,206.3 522.1,238.8 			"/>
            <polygon class="st8" points="526.8,277.3 526.7,240.6 524.5,240.5 524.6,277.2 			"/>
            <polygon class="st8" points="546.4,242.4 545.2,242.3 545.3,278 546.5,278.1 			"/>
		</g>

        <g>
			<polygon class="st8" points="548.4,491.6 549.4,491.4 549.4,490.5 549.3,469.5 548.3,469.6 			"/>
            <polygon class="st8" points="540.9,493.1 544.9,492.3 544.9,489.8 540.9,490.6 			"/>
            <polygon class="st8" points="533.5,494.7 537.3,493.9 537.3,491.3 533.5,492.1 			"/>
            <polygon class="st8" points="527.5,495.9 529.8,495.4 529.8,492.8 529.6,473.1 527.4,473.4 			"/>
            <polygon class="st8" points="533.5,492.1 537.3,491.3 537.2,471.7 533.4,472.4 			"/>
            <polygon class="st8" points="540.9,490.6 544.9,489.8 544.8,470.3 540.9,471 			"/>
            <polygon class="st8" points="549.2,418.6 546.8,418.4 524.9,421 527.3,421.3 			"/>
            <polygon class="st8" points="549.3,467.6 549.2,418.6 527.3,421.3 527.4,471.7 529.6,471.3 529.5,424.8 547.1,422.6 547.2,446.7
				548,447.1 548.4,448 548.5,449.1 548,450.2 547.2,450.9 547.3,468 			"/>
            <polygon class="st7" points="548.5,449.1 548.4,448 548,447.1 547.2,446.7 546.2,446.8 545.4,447.5 545,448.6 545,449.7
				545.4,450.6 546.2,451.1 547.2,450.9 548,450.2 			"/>
            <path class="st7" d="M545.1,448l-2.4-0.8L545.1,448z"/>
            <polygon class="st9" points="542.5,447.7 543.1,446.8 544,446.3 547.2,446.6 547.1,422.6 529.5,424.8 529.6,471.3 547.3,468
				547.2,450.9 546.2,451.1 543.6,450.7 542.8,450.3 542.3,449.4 542.3,448.2 			"/>
            <path class="st8" d="M544.5,446.3l2.2,0.3L544.5,446.3z"/>
            <path class="st8" d="M542.5,449.9l3,0.8L542.5,449.9z"/>
            <path class="st8" d="M543.6,446.5l2.2,0.6L543.6,446.5z"/>
            <path class="st8" d="M544,446.3l2.2,0.5L544,446.3z"/>
            <path class="st8" d="M542.2,448.8l2.7,0.9L542.2,448.8z"/>
            <path class="st8" d="M543.1,446.8l2.3,0.7L543.1,446.8z"/>
            <path class="st8" d="M542.5,447.7l2.5,0.9L542.5,447.7z"/>
            <path class="st8" d="M542.3,448.2l2.6,0.9L542.3,448.2z"/>
            <path class="st8" d="M542.3,449.4l2.8,0.8L542.3,449.4z"/>
            <path class="st8" d="M542.8,450.3l3,0.6L542.8,450.3z"/>
            <path class="st8" d="M543.2,450.6l3.1,0.5L543.2,450.6z"/>
            <polygon class="st7" points="527.4,471.7 527.3,421.3 524.9,421 525,472.1 			"/>
		</g>

        <g>
			<polygon class="st5" points="527.4,496 527.2,511 525.8,511.3 523.7,510.9 523.7,495.9 521.2,496.4 521.2,512.3 519.6,512.7
				517.6,512.3 517.5,497.1 513.4,498 513.4,510.9 511.9,511.2 509.5,510.8 509.5,498.8 503.9,499.9 503.9,509.2 502.4,509.6
				500.2,509.2 500.2,500.7 494,502 494,507.4 492.5,507.7 489.9,507.2 489.9,502.8 483.4,504.2 483.4,505.3 481.7,505.7
				479.2,505.2 519.6,512.8 593,496.4 590.7,496 590.7,490.1 590,490 588.7,490.4 586.9,490.1 586.9,497.6 584.9,498 583,497.7
				583,488.9 579.5,488.3 579.6,499.3 577.8,499.7 575.9,499.3 575.8,488.3 575.5,487.7 572.1,487.2 572.1,500.9 570.4,501.3
				568.5,501 568.4,486.7 564.5,487.5 564.5,502.6 562.7,503 560.8,502.7 560.7,488.2 556.1,489.2 556.2,504.5 554.2,504.9
				552.2,504.6 552.2,490 549.3,490.6 549.3,491.5 548.3,491.7 548.3,506.2 546.7,506.6 544.9,506.2 544.8,492.4 540.8,493.2
				540.9,507.9 539.1,508.3 537.2,507.9 537.2,494 533.4,494.8 533.5,509.6 531.8,510 529.8,509.6 529.7,495.5 			"/>
            <path class="st5" d="M527.2,496l0.1-22.4L527.2,496z"/>
            <polygon class="st5" points="500.2,509.2 502.4,509.6 502.4,472.4 500.2,472.1 500.2,500.7 			"/>
            <polygon class="st5" points="489.9,507.2 492.5,507.7 492.5,470.9 489.8,470.5 489.9,502.8 			"/>
            <polygon class="st5" points="481.7,505.7 483.4,505.3 483.4,504.2 483.4,469.5 481.7,469.3 			"/>
            <polygon class="st5" points="479.2,505.2 481.7,505.7 481.7,469.3 479.2,468.9 479.2,505 			"/>
            <polygon class="st5" points="500.2,472.1 502.4,472.4 503.9,472.6 509.5,473.5 511.8,473.8 513.3,474.1 517.5,474.7 519.4,475
				519.3,473.9 479.2,467.8 479.2,468.9 481.7,469.3 483.4,469.5 489.8,470.5 492.5,470.9 494,471.1 			"/>
            <polygon class="st5" points="529.5,473.1 529.6,493 529.7,473.1 			"/>
            <polygon class="st5" points="519.3,473.3 480.7,467.6 479.2,467.8 519.3,473.9 607.7,457.9 568.5,453 565.7,453.5 600.5,458
				597.4,458.6 596.3,458.8 589.8,460 588.6,460.3 586,460.8 579.3,462 577.9,462.3 575.4,462.7 549.3,467.6 547.2,468 529.5,471.3
				527.3,471.8 524.9,472.2 			"/>
            <polygon class="st5" points="607.7,458.9 607.7,457.9 519.3,473.9 519.4,475 521.1,474.7 523.6,474.2 525.7,473.8 527.1,473.6
				529.5,473.1 531.7,472.7 533.3,472.4 537.2,471.8 539,471.4 540.8,471.1 544.8,470.4 546.6,470 548.2,469.7 549.3,469.5
				552.1,469 554.1,468.7 556,468.3 560.7,467.5 562.6,467.1 564.4,466.8 568.3,466.1 570.2,465.7 571.9,465.4 575.4,464.8
				577.6,464.4 579.3,464.1 582.9,463.4 584.7,463.1 586.7,462.7 588.6,462.4 589.8,462.2 590.6,462 592.3,461.7 594.2,461.4
				596.3,461 597.9,460.7 599.7,460.4 601.6,460 604.7,459.5 606.4,459.1 			"/>
            <polygon class="st5" points="527.1,473.6 525.7,473.8 527.2,473.6 			"/>
            <polygon class="st5" points="533.3,472.4 531.7,472.7 533.4,472.4 			"/>
            <polygon class="st5" points="531.7,472.7 529.7,473.1 529.7,492.9 529.7,495.5 529.8,509.6 531.8,510 531.7,472.7 			"/>
            <polygon class="st5" points="556,468.3 554.1,468.7 556,468.3 			"/>
            <polygon class="st5" points="564.4,466.8 562.6,467.1 564.4,466.8 			"/>
            <polygon class="st5" points="571.9,465.4 570.2,465.7 572,465.4 			"/>
            <polygon class="st5" points="579.3,464.1 577.6,464.4 579.4,464.1 			"/>
            <polygon class="st5" points="586.7,462.7 584.7,463.1 586.8,462.7 			"/>
            <polygon class="st5" points="594.2,461.4 592.3,461.7 594.3,461.4 			"/>
            <polygon class="st5" points="601.6,460 599.7,460.4 601.8,460 			"/>
            <polygon class="st5" points="565.7,453.5 565.7,454.5 575.4,455.7 577.9,456.1 579.2,456.3 586,457.1 588.6,457.5 589.8,457.7
				596.3,458.5 597.4,458.6 600.5,458 			"/>
            <polygon class="st5" points="502.4,472.4 502.4,509.6 503.9,509.2 503.9,499.9 503.9,472.6 			"/>
            <polygon class="st5" points="492.5,470.9 492.5,507.7 494,507.4 494,502 494,471.1 			"/>
            <polygon class="st5" points="519.6,538.4 608.7,515.9 608.6,492.9 602.2,494.3 600.3,494.7 594.8,496 593,496.4 519.6,512.8
				"/>
            <polygon class="st5" points="478.7,529.7 519.6,538.4 519.6,512.8 478.6,505.1 			"/>
            <polygon class="st5" points="602.2,494.3 608.6,492.9 607.9,492.8 606.6,493.1 604.8,492.9 601.9,491.8 602,494.3 			"/>
            <polygon class="st5" points="604.8,492.9 606.6,493.1 606.4,459.1 604.7,459.5 604.8,492.3 			"/>
            <polygon class="st5" points="588.7,490.4 590,490.1 589.8,462.2 588.6,462.4 			"/>
            <polygon class="st5" points="586.9,490.1 588.7,490.4 588.6,462.4 586.7,462.7 			"/>
            <polygon class="st5" points="575.5,488.3 575.7,464.7 575.5,487.7 			"/>
            <polygon class="st5" points="594.8,496 600.3,494.7 598.1,494.4 598.1,491.8 596.4,491.6 594.5,490.7 594.5,495.9 			"/>
            <polygon class="st5" points="596.4,491.6 598.1,491.8 597.9,460.7 596.3,461 596.4,491 			"/>
            <polygon class="st5" points="525.7,473.8 523.6,474.2 523.7,495.9 523.7,510.9 525.8,511.3 			"/>
            <polygon class="st5" points="554.1,468.7 552.1,469 552.2,490 552.2,504.6 554.2,504.9 			"/>
            <polygon class="st5" points="562.6,467.1 560.7,467.5 560.7,488.2 560.8,502.7 562.7,503 			"/>
            <polygon class="st5" points="570.3,465.7 568.3,466.1 568.4,486.7 568.5,501 570.4,501.3 			"/>
            <polygon class="st5" points="577.7,464.4 575.7,464.7 575.8,488.3 575.9,499.3 577.8,499.7 			"/>
            <polygon class="st5" points="584.8,463.1 582.9,463.4 583,488.9 583,497.7 584.9,498 			"/>
            <path class="st5" d="M594.4,461.4l-1.9,0.3L594.4,461.4z"/>
            <polygon class="st5" points="594.4,461.4 592.5,461.7 592.7,496.3 594.5,495.9 594.5,490.7 			"/>
            <polygon class="st5" points="592.5,461.7 590.6,462 590.7,490.1 590.7,496 592.7,496.3 			"/>
            <path class="st5" d="M601.8,460l-1.9,0.3L601.8,460z"/>
            <polygon class="st5" points="599.9,460.4 597.9,460.7 598.1,491.8 598.1,494.4 600.1,494.7 			"/>
            <polygon class="st5" points="575.4,455.7 575.4,462.7 577.9,462.3 577.9,456.1 			"/>
            <polygon class="st5" points="577.9,456.1 577.9,462.3 579.3,462 579.2,456.3 			"/>
            <polygon class="st5" points="600.3,494.7 602.2,494.3 600.1,494.7 			"/>
            <polygon class="st5" points="593,496.4 594.8,496 592.7,496.3 			"/>
            <polygon class="st5" points="509.5,510.8 511.9,511.2 511.8,473.8 509.5,473.5 509.5,498.8 			"/>
            <polygon class="st5" points="511.9,511.2 513.4,510.9 513.4,498 513.3,474.1 511.8,473.8 			"/>
            <polygon class="st5" points="519.6,512.7 521.2,512.3 521.2,496.4 521.1,474.7 519.5,475 			"/>
            <polygon class="st5" points="519.6,512.7 519.5,475 517.5,474.7 517.5,497.1 517.6,512.3 			"/>
            <polygon class="st5" points="525.8,511.3 527.2,511 527.2,496 527.2,473.6 525.7,473.8 			"/>
            <polygon class="st5" points="531.8,510 533.5,509.6 533.4,494.8 533.4,492.2 533.4,472.4 531.7,472.7 			"/>
            <polygon class="st5" points="539.1,508.3 540.9,507.9 540.8,493.2 540.8,490.7 540.8,471.1 539,471.4 			"/>
            <polygon class="st5" points="539.1,508.3 539,471.4 537.2,471.8 537.2,491.4 537.2,494 537.2,507.9 			"/>
            <polygon class="st5" points="546.7,506.6 548.3,506.2 548.3,491.7 548.2,469.7 546.6,470 			"/>
            <polygon class="st5" points="546.7,506.6 546.6,470 544.8,470.4 544.8,489.8 544.8,492.4 544.9,506.2 			"/>
            <polygon class="st5" points="554.2,504.9 556.2,504.5 556.1,489.2 556,468.3 554.1,468.7 			"/>
            <polygon class="st5" points="562.7,503 564.5,502.6 564.5,487.5 564.4,466.8 562.6,467.1 			"/>
            <polygon class="st5" points="570.4,501.3 572.1,500.9 572.1,487.2 572,465.4 570.3,465.7 			"/>
            <polygon class="st5" points="577.8,499.7 579.6,499.3 579.5,488.3 579.4,464.1 577.7,464.4 			"/>
            <polygon class="st5" points="584.9,498 586.9,497.6 586.9,490.1 586.8,462.7 584.8,463.1 			"/>
            <polygon class="st5" points="600.1,494.7 602,494.3 601.9,491.8 601.8,460 599.9,460.4 			"/>
            <polygon class="st5" points="606.4,459.1 606.6,493.1 607.9,492.8 607.7,458.9 			"/>
            <polygon class="st5" points="586,457.1 586,460.8 588.6,460.3 588.6,457.5 			"/>
            <polygon class="st5" points="588.6,457.5 588.6,460.3 589.8,460 589.8,457.7 			"/>
            <path class="st5" d="M596.3,458.5l1.1,0.1L596.3,458.5z"/>
		</g>




	</g>
</g>
</svg>
