<?xml version="1.0" encoding="utf-8"?>
<!-- Generator: Adobe Illustrator 25.0.1, SVG Export Plug-In . SVG Version: 6.00 Build 0)  -->
<svg version="1.1" id="katman_1" xmlns="http://www.w3.org/2000/svg" x="0px" y="0px"
     viewBox="0 0 841.9 595.3" style="enable-background:new 0 0 841.9 595.3;" xml:space="preserve">
<style type="text/css">
	.st0{fill:#8F6645;}
	.st1{fill:#EEEEEE;}
	.st2{fill:#DDDDDD;}
	.st3{fill:#3D3A37;}
	.st4{fill:#C4C4C4;}
	.st5{fill:#3D3A37;}
	.st6{fill:#000000;}
	.st7{fill:#FFFFFF;}
	.st8{fill:#888888;}
	.st9{fill:#7884AF;}
</style>

    <g id="chimney">
	<polygon class="st6" points="262.3,202.9 262.3,201.8 276.3,200.3 276.6,71.2 246,65.2 245.6,198.8 240.2,215.4 239.9,293.9
		244.8,294 279.4,293.9 279,267.1 261.8,266.7 261.9,241 262.5,240.9 262.6,202.9 		"/>
        <polygon class="st5" points="245.6,198.8 246,65.2 236.3,67.8 235.9,199.9 		"/>
</g>


    <g id="body">
	<polygon class="st0" points="187.5,172.6 186.3,471.6 417.1,525 417.1,138.4 			"/>
        <polygon class="st0" points="417.1,138.4 417.1,525 419,524.6 419,424.7 417.3,421.7 475.2,382.7 477.1,380.9 560.3,372.8
			559.7,162.2 559.7,158 496.4,43.6 418.4,138.2 			"/>
        <polygon class="st0" points="571.5,560.7 708.2,516.7 707.7,419.8 571.1,444.9 			"/>
        <polygon class="st0" points="419,525.4 571.5,560.7 571.1,444.9 419,424.7 419,524.6 			"/>
</g>


    <g id="roof">
	<g>
		<polygon class="st3" points="259.5,92.1 180.9,170.7 416.1,134.6 496.9,37.2 			"/>
        <polygon class="st1" points="416.1,134.6 180.9,170.7 183.1,173.6 187.5,172.9 417.1,138.6 418.4,138.4 			"/>
        <polygon class="st1" points="496.9,37.2 416.1,134.6 418.4,138.4 496.4,43.8 498.8,40.9 563.3,157.8 565.5,161.9 567.2,159.3
			500.9,38.4 			"/>
        <polygon class="st1" points="565.5,161.9 563.3,157.8 559.7,158.2 559.8,162.5 			"/>
        <polygon class="st1" points="419,425 571.1,445.1 569.7,442 417.6,422.3 			"/>
        <polygon class="st1" points="571.1,445.1 707.7,420 709.6,417.8 573.2,442.5 			"/>
        <polygon class="st3" points="573.2,442.5 709.6,417.8 652.4,379 555.9,390.3 			"/>
        <polygon class="st3" points="417.6,422.3 569.7,442 552.7,389.8 475.7,383.2 			"/>
        <polygon class="st1" points="569.7,442 571.1,445.1 573.2,442.5 			"/>
        <polygon class="st3" points="569.7,442 573.2,442.5 555.9,390.3 552.7,389.8 			"/>
        <polygon class="st3" points="552.7,389.8 555.9,390.3 554,387.7 			"/>
        <polygon class="st1" points="417.3,422 419,425 417.6,422.3 			"/>
        <path class="st1" d="M417.3,422l58.4-38.8L417.3,422z"/>
        <path class="st1" d="M475.2,383l1.9-1.8L475.2,383z"/>
        <polygon class="st4" points="650.5,376.7 576,371.6 560.3,373.1 477.1,381.2 554,387.7 			"/>
        <polygon class="st1" points="477.1,381.2 475.7,383.2 552.7,389.8 554,387.7 			"/>
        <polygon class="st1" points="554,387.7 555.9,390.3 652.4,379 650.5,376.7 			"/>
        <polygon class="st1" points="496.4,43.8 559.7,158.2 563.3,157.8 498.8,40.9 			"/>
	</g>
</g>


    <g id="left-window">
	<g>
		<polygon class="st5" points="175.9,295.9 175.8,330.1 177.9,330 177.9,329.2 178,295.9 			"/>
        <polygon class="st5" points="175.9,295.8 178,295.9 180.8,295.9 182.2,295.9 184.2,295.9 186,295.9 187.1,295.9 188.4,295.9
				190.4,295.9 192.8,296 194.9,296 197,296 200.8,296 202.5,296 204.5,296 205.3,296 207.8,296 209.4,296 211.5,296 214.9,296.1
				216.6,296.1 218.6,296.1 220,296.1 222,296.1 224,296.1 226,296.1 229.9,296.1 231.9,296.1 233.8,296.1 236,296.2 237.8,296.2
				239.9,296.2 241.8,296.2 245.2,296.2 246.7,296.2 246.7,295.1 165.1,294.8 165.1,295.8 166.6,295.8 168.6,295.8 169.9,295.8
				171.1,295.9 173.2,295.9 174.6,295.9 175.9,295.8 			"/>
        <polygon class="st5" points="239.9,296.2 237.8,296.2 239.6,296.2 			"/>
        <polygon class="st5" points="246.7,295.1 246.7,296.2 248.6,296.2 253.9,296.2 255.2,296.2 257.6,296.2 264.6,296.1 265.9,296.1
				268.8,296.1 276.2,296.1 277.6,296.1 280.3,296.1 281.4,296.1 283.2,296.1 289.1,296.1 289.1,295 			"/>
        <polygon class="st5" points="246.7,295.1 289.1,295 285.8,295 283.2,295 281.4,295 246.8,295.1 242,295.1 240.5,295.1 238,295
				236,295 220,295 218.1,295 207.7,295 168.5,294.8 207.7,294.8 206.6,294.8 165.1,294.8 			"/>
        <polygon class="st5" points="207.7,294.8 168.5,294.8 207.7,295 			"/>
        <polygon class="st5" points="165.2,329.6 229.3,332.8 229.6,329.5 225.9,329.4 225.9,332.4 223.9,332.5 221.8,332.4 221.9,329.2
				218.5,329 218.5,332 216.4,332.1 214.8,332 214.8,328.7 211.4,328.5 211.4,331.7 209.3,331.8 207.7,331.7 207.7,328.4
				205.1,328.5 204.4,328.4 204.4,331.3 202.3,331.4 200.7,331.3 200.7,328.5 196.9,328.6 196.9,331 194.8,331.1 193.1,331
				193.1,328.8 190.2,328.8 190.2,330.7 188.3,330.7 186.9,330.6 186.9,328.9 185.9,328.9 184,329.1 184,330.4 182.1,330.4
				180.6,330.3 180.6,329.1 177.9,329.2 177.9,330 175.8,330.1 174.5,330 174.5,329.4 173.3,329.3 170.9,329.9 169.8,329.8
				168.5,329.5 166.5,329.6 165.2,329.6 			"/>
        <polygon class="st5" points="184,329.1 185.9,329 186,295.9 184.2,295.9 			"/>
        <polygon class="st5" points="205.1,328.5 207.7,328.4 207.8,296 205.3,296 			"/>
        <polygon class="st5" points="204.4,328.4 205.1,328.5 205.3,296 204.5,296 			"/>
        <polygon class="st5" points="166.5,329.6 168.5,329.6 168.6,295.8 166.6,295.8 			"/>
        <polygon class="st5" points="170,295.8 169.8,329.4 170.9,329.9 171.1,295.9 			"/>
        <polygon class="st5" points="171.1,295.9 170.9,329.9 173,329.8 173.2,295.9 			"/>
        <polygon class="st5" points="174.7,295.8 174.5,329.4 174.5,330 175.8,330.1 175.9,295.8 			"/>
        <polygon class="st5" points="193.2,296 193.1,328.8 193.1,331 194.8,331.1 194.9,296 			"/>
        <polygon class="st5" points="195,296 194.8,331.1 196.9,331 196.9,328.6 197,296 			"/>
        <polygon class="st5" points="200.8,296 200.7,328.5 200.7,331.3 202.3,331.4 202.5,296 			"/>
        <polygon class="st5" points="202.5,296 202.3,331.4 204.4,331.3 204.4,328.4 204.5,296 			"/>
        <polygon class="st5" points="207.9,296 207.7,328.4 207.7,331.7 209.3,331.8 209.4,296 			"/>
        <polygon class="st5" points="209.5,296 209.3,331.8 211.4,331.7 211.4,328.5 211.5,296 			"/>
        <polygon class="st5" points="215,296.1 214.8,328.7 214.8,332 216.4,332.1 216.6,296.1 			"/>
        <polygon class="st5" points="216.7,296.1 216.4,332.1 218.5,332 218.5,329 218.6,296.1 			"/>
        <polygon class="st5" points="222.1,296.1 221.9,326.7 221.9,329.2 221.8,332.4 223.9,332.5 224,296.1 			"/>
        <polygon class="st5" points="224.1,296.1 223.9,332.5 225.9,332.4 225.9,329.4 225.9,326.8 226,296.1 			"/>
        <polygon class="st5" points="248.6,296.2 246.7,296.2 246.6,333.6 248.5,333.5 248.5,330.2 			"/>
        <polygon class="st5" points="164.7,329.6 164.6,352.4 229.7,357.6 241.8,358.6 246.3,359 246.3,333.6 239.2,333.3 237.1,333.2
				231.2,332.9 229.3,332.8 			"/>
        <polygon class="st5" points="246.3,333.6 246.3,359 282.2,356.9 283,356.8 289.8,356.4 289.9,332.1 246.9,333.6 			"/>
        <polygon class="st5" points="239.2,333.3 246.3,333.6 245.1,333.5 245.1,330 241.9,329.9 241.7,333.2 239.5,333.3 			"/>
        <polygon class="st5" points="246.9,333.6 289.9,332.1 283.1,331.8 281.9,331.7 280.4,331.6 280.3,332.4 277.7,332.5 276.1,332.4
				276.1,331.4 268.7,331.1 268.7,332.8 265.8,332.9 264.5,332.8 264.5,330.9 257.5,330.6 257.5,333.2 255.1,333.3 253.8,333.2
				253.8,330.4 248.5,330.2 248.5,333.5 246.6,333.6 			"/>
        <polygon class="st5" points="253.8,333.2 255.1,333.3 255.2,296.2 253.9,296.2 253.8,330.4 			"/>
        <polygon class="st5" points="264.5,332.8 265.8,332.9 265.9,296.1 264.6,296.1 264.5,330.9 			"/>
        <polygon class="st5" points="276.1,332.4 277.7,332.5 277.8,296.1 276.2,296.1 276.1,331.4 			"/>
        <polygon class="st5" points="231.2,332.9 237.1,333.2 237.5,329.9 233.7,329.7 233.7,332.8 231.5,332.9 			"/>
        <polygon class="st5" points="237.6,296.2 237.5,329.9 237.4,333.2 239.5,333.3 239.6,296.2 			"/>
        <polygon class="st5" points="237.1,333.2 239.2,333.3 237.4,333.2 			"/>
        <polygon class="st5" points="229.3,332.8 231.2,332.9 229.6,332.8 			"/>
        <polygon class="st5" points="173.3,329.3 174.5,329.4 174.6,295.9 173.5,295.9 173.3,329.3 			"/>
        <polygon class="st5" points="166.5,329.6 166.6,295.8 165.4,295.8 165.2,329.6 			"/>
        <polygon class="st5" points="180.6,330.3 182.1,330.4 182.2,295.9 180.8,295.9 180.6,329.1 			"/>
        <polygon class="st5" points="182.2,295.9 182.1,330.4 184,330.4 184,329.1 184.2,295.9 			"/>
        <polygon class="st5" points="186.9,330.6 188.3,330.7 188.4,295.9 187.1,295.9 186.9,328.9 			"/>
        <polygon class="st5" points="188.4,295.9 188.3,330.7 190.2,330.7 190.2,328.8 190.4,295.9 			"/>
        <polygon class="st5" points="229.6,332.8 231.5,332.9 231.7,296.1 229.8,296.1 229.6,327 229.6,329.5 			"/>
        <polygon class="st5" points="231.7,296.1 231.5,332.9 233.7,332.8 233.7,329.7 233.7,327.2 233.8,296.1 231.9,296.1 			"/>
        <polygon class="st5" points="239.6,296.2 239.5,333.3 241.7,333.2 241.7,329.9 241.8,296.2 239.9,296.2 			"/>
        <polygon class="st5" points="246.6,333.6 246.7,296.2 245.2,296.2 245.1,330 245.1,333.5 			"/>
        <polygon class="st5" points="255.1,333.3 257.5,333.2 257.5,330.6 257.6,296.2 255.2,296.2 			"/>
        <polygon class="st5" points="265.9,296.1 265.8,332.9 268.7,332.8 268.7,331.1 268.8,296.1 			"/>
        <polygon class="st5" points="277.8,296.1 277.7,332.5 280.3,332.4 280.4,331.6 280.4,296.1 			"/>
        <path class="st5" d="M207.7,328.4l0.1-32.3L207.7,328.4z"/>
        <polygon class="st5" points="174.6,295.9 174.5,329.4 174.6,295.9 			"/>
        <path class="st5" d="M192.7,328.7l0.5-32.8L192.7,328.7z"/>
        <polygon class="st5" points="241.8,296.2 241.7,329.9 242,296.2 			"/>
	</g>


        <g>
		<polygon class="st8" points="218.5,329.1 222.2,329.2 222.2,326.7 218.5,326.5 			"/>
            <g>
			<polygon class="st8" points="211,329 214.4,329.2 214.4,326.7 212.4,326.6 212.5,296.1 211.1,296.1 				"/>
                <polygon class="st8" points="226.2,329.7 230,329.9 230.1,296.2 228.5,296.2 228.4,327.3 226.2,327.2 				"/>
                <polygon class="st8" points="222.2,296.1 218.5,296.1 218.4,326.8 222.1,327 				"/>
                <polygon class="st8" points="233.2,256.4 230.6,256.3 230.5,295.1 233.1,295.1 				"/>
                <polygon class="st8" points="230.5,295.1 230.6,256.3 222.5,256.7 210.7,257.2 210.6,295 212.5,295 212.6,260.8 228.7,260.2
					228.6,295 				"/>
                <polygon class="st8" points="228.4,327.3 228.5,296.2 226.3,296.2 226.2,327.2 				"/>
                <path class="st9" d="M212.5,295l0.1-34.2l16.1-0.6l-0.1,34.9L212.5,295z M226.5,283.9l-0.8-0.3l-2.8,0l-0.8,0.3l-0.6,0.8
					l-0.2,1.1l0.2,1.1l0.6,0.8l0.8,0.3l2.8,0l0.8-0.3l0.6-0.8l0.2-1.1l-0.2-1.1L226.5,283.9z"/>
                <polygon class="st8" points="212.5,296.1 212.4,326.6 214.4,326.7 214.5,296.1 				"/>
                <polygon class="st7" points="221.6,284.2 221.2,285.2 221.2,286.4 221.6,287.4 222.4,287.9 223.2,287.9 224,287.3 224.4,286.3
					224.4,285.2 224,284.2 223.2,283.7 222.4,283.7 				"/>
		</g>
	</g>

</g>


    <g>
	<g>
		<g>
			<polygon class="st5" points="310.5,438.4 310.5,437.3 269.9,442.8 273.6,443.4 274.8,443.3 276.2,443.1 278.7,442.7 282.8,442.2
				284.3,442 285.7,441.8 288.1,441.5 294.9,440.5 296.3,440.3 299.2,440 306.4,439 307.9,438.8 			"/>
            <polygon class="st5" points="276.2,443 274.8,443.3 276.3,443.9 276.3,443.1 			"/>
            <polygon class="st5" points="278.7,442.7 276.2,443 278.8,442.7 			"/>
            <polygon class="st5" points="310.5,438.4 307.9,438.8 310.7,438.4 			"/>
            <polygon class="st5" points="269.9,442.8 310.5,437.3 309.1,437.1 282.8,440.5 266,442.8 372.8,461.4 416,454.3 411.7,453.6
				386.7,457.5 384.1,457.9 381.4,458.3 371.7,459.8 359.1,457.8 356.5,457.3 310.7,449.6 308,449.2 306.4,448.9 299.1,447.7
				296.3,447.2 294.9,447 288,445.9 285.7,445.5 284.2,445.2 282.8,445 278.8,444.3 276.3,443.9 274.8,443.6 273.6,443.4 			"/>
            <polygon class="st5" points="416,454.3 372.8,461.4 372.8,462.7 374.7,462.4 379.6,461.6 381.5,461.3 383.9,460.9 386.7,460.4
				390.6,459.8 392.4,459.4 395.3,459 402.5,457.8 404.4,457.4 407.1,457 416,455.5 			"/>
            <polygon class="st5" points="407.1,457 404.4,457.4 407.3,457 			"/>
            <polygon class="st5" points="372.8,462.7 372.8,461.4 266,442.8 266,443.9 267.9,444.2 270,444.6 272.2,445 273.7,445.3
				275.9,445.6 278.3,446.1 280,446.3 282.2,446.8 282.8,446.9 284.2,447.1 285.7,447.4 288.1,447.8 290.1,448.2 294.4,448.9
				296.1,449.2 298.2,449.6 299.1,449.7 302.4,450.3 304.7,450.7 306.8,451.1 308,451.3 310.7,451.8 312.3,452.1 314.5,452.5
				316.6,452.8 321.6,453.7 323.7,454.1 325.7,454.4 330.8,455.3 333.1,455.7 335.1,456.1 340.1,457 342.8,457.4 344.8,457.8
				350.5,458.8 353.1,459.3 355.1,459.6 356.5,459.9 359.1,460.3 360.9,460.6 363.6,461.1 365.6,461.5 370.7,462.4 			"/>
            <polygon class="st5" points="273.7,445.3 272.2,445 273.7,445.3 			"/>
            <polygon class="st5" points="280,446.3 278.3,446 279.9,446.3 			"/>
            <polygon class="st5" points="280,446.4 279.8,485.5 282.1,485.1 282.1,479.7 282.1,458.1 282.2,446.8 			"/>
            <polygon class="st5" points="304.7,450.7 302.4,450.3 304.6,450.7 			"/>
            <polygon class="st5" points="314.5,452.5 312.3,452.1 314.4,452.5 			"/>
            <polygon class="st5" points="323.7,454.1 321.6,453.7 323.6,454.1 			"/>
            <polygon class="st5" points="333.1,455.7 330.8,455.3 332.9,455.7 			"/>
            <polygon class="st5" points="342.8,457.4 340.1,457 342.7,457.5 			"/>
            <polygon class="st5" points="353.1,459.3 350.5,458.8 352.9,459.3 			"/>
            <polygon class="st5" points="363.6,461.1 360.9,460.6 363.4,461.1 			"/>
            <polygon class="st5" points="265.5,508.5 372.5,535.6 372.5,506.2 363,504.1 360.3,503.5 352.5,501.8 349.9,501.2 265.6,482.4
							"/>
            <polygon class="st5" points="372.5,535.6 417,525.1 417,497 373.1,506.1 			"/>
            <polygon class="st5" points="266.2,482.3 265.6,482.4 349.9,501.2 350.3,483.4 344.8,482.3 344.8,499 342.6,499.4 340,498.8
				340,481.3 335.1,480.3 335,496.8 332.9,497.3 330.7,496.8 330.7,479.4 325.7,478.4 325.7,494.8 323.5,495.2 321.4,494.7
				321.4,477.5 316.5,476.5 316.5,492.7 314.4,493.1 312.2,492.7 312.3,475.7 310.7,475.3 308,476 306.7,475.7 306.7,490.6
				304.6,491 302.3,490.5 302.3,476.3 299.1,476.8 298.1,477.6 298.1,488.7 296.1,489 294.3,488.6 294.3,477.6 290,478.3 290,486.9
				288,487.2 286.1,486.8 286.1,479.6 284.2,479.4 282.1,479.7 282.1,485.1 279.8,485.5 278.2,485.1 278.2,481 276.2,481.4
				275.8,483.7 273.6,484.1 272.1,483.8 272.1,481.3 269.9,481.7 269.9,482.4 267.8,482.8 266.2,482.4 			"/>
            <path class="st5" d="M285.6,479.7l0.6-32.2L285.6,479.7z"/>
            <polygon class="st5" points="298.1,477.6 299.1,477.4 299.1,449.7 298.2,449.6 			"/>
            <polygon class="st5" points="308,476 310.7,475.5 310.7,451.8 308,451.3 			"/>
            <polygon class="st5" points="306.7,475.7 308,476 308,451.3 306.8,451.1 			"/>
            <polygon class="st5" points="363,504.1 372.5,506.2 370.7,505.6 370.7,488.6 365.6,487.5 365.6,503.6 363.4,504 			"/>
            <polygon class="st5" points="373.1,506.1 417,497 407.3,495 407.3,498.9 404.5,499.4 402.5,499 402.5,494 395.3,492.6
				395.3,501.3 392.4,501.9 390.6,501.5 390.6,491.6 386.7,490.8 384.1,491.3 383.9,503.6 381.4,504.1 379.6,503.7 379.6,490.4
				374.7,489.4 374.7,505.6 372.7,506 			"/>
            <path class="st5" d="M383.9,491.3l0.2-30.4L383.9,491.3z"/>
            <polygon class="st5" points="379.6,503.7 381.4,504.1 381.5,461.3 379.6,461.6 379.6,487.4 379.6,490.4 			"/>
            <polygon class="st5" points="390.6,501.5 392.4,501.9 392.4,459.4 390.6,459.8 390.6,491.6 			"/>
            <polygon class="st5" points="402.5,499 404.5,499.4 404.5,457.5 402.5,457.8 402.5,494 			"/>
            <polygon class="st5" points="352.5,501.8 360.3,503.5 360.6,486.5 356.5,485.7 356.5,484.7 355,484.4 355,501.3 352.8,501.7
				"/>
            <polygon class="st5" points="267.8,482.8 269.9,482.4 269.9,481.7 270,459.8 270,444.6 267.9,444.2 			"/>
            <polygon class="st5" points="272.2,445 270,444.6 270,459.8 272.2,459.5 			"/>
            <polygon class="st5" points="273.7,445.3 273.6,484.1 275.8,483.7 275.8,481.3 275.9,445.6 			"/>
            <polygon class="st5" points="304.7,450.7 304.6,491 306.7,490.6 306.7,475.7 306.8,451.1 			"/>
            <polygon class="st5" points="314.5,452.5 314.4,493.1 316.5,492.7 316.5,476.5 316.6,452.8 			"/>
            <polygon class="st5" points="323.7,454.1 323.5,495.2 325.7,494.8 325.7,478.4 325.7,454.4 			"/>
            <polygon class="st5" points="333.1,455.7 332.9,497.3 335,496.8 335.1,480.3 335.1,456.1 			"/>
            <polygon class="st5" points="342.8,457.4 342.6,499.4 344.8,499 344.8,482.3 344.8,457.8 			"/>
            <path class="st5" d="M360.7,460.7l2.7,0.5L360.7,460.7z"/>
            <polygon class="st5" points="363.4,461.1 363.4,504 365.6,503.6 365.6,487.5 365.6,484.5 365.6,461.5 363.6,461.1 			"/>
            <polygon class="st5" points="360.3,503.5 363,504.1 360.6,503.4 			"/>
            <polygon class="st5" points="349.9,501.2 352.5,501.8 350.2,501.1 			"/>
            <path class="st5" d="M275.8,481.3l0.5-35.6L275.8,481.3z"/>
            <polygon class="st5" points="267.8,482.8 267.9,444.2 266.3,444 266.3,460.4 266.2,482.3 			"/>
            <polygon class="st5" points="273.6,484.1 273.7,445.3 272.2,445 272.2,459.5 272.1,481.3 272.1,483.8 			"/>
            <polygon class="st5" points="279.8,485.5 279.9,446.3 278.3,446 278.2,481 278.2,485.1 			"/>
            <polygon class="st5" points="286.1,486.8 288,487.2 288.1,447.8 286.2,447.5 286.1,479.6 			"/>
            <polygon class="st5" points="288.1,447.8 288,487.2 290,486.9 290,478.3 290.1,448.2 			"/>
            <polygon class="st5" points="294.3,488.6 296.1,489 296.1,449.2 294.4,448.9 294.3,477.6 			"/>
            <polygon class="st5" points="296.1,449.2 296.1,489 298.1,488.7 298.1,477.6 298.2,449.6 			"/>
            <polygon class="st5" points="304.6,491 304.6,450.7 302.4,450.3 302.3,476.3 302.3,490.5 			"/>
            <polygon class="st5" points="314.4,493.1 314.4,452.5 312.3,452.1 312.3,475.7 312.2,492.7 			"/>
            <polygon class="st5" points="323.5,495.2 323.6,454.1 321.5,453.7 321.4,477.5 321.4,494.7 			"/>
            <polygon class="st5" points="332.9,497.3 332.9,455.7 330.7,455.3 330.7,479.4 330.7,496.8 			"/>
            <polygon class="st5" points="342.6,499.4 342.7,457.5 340,457 340,481.3 340,498.8 			"/>
            <polygon class="st5" points="350.2,501.1 352.8,501.7 352.8,459.3 350.3,458.8 350.3,483.4 			"/>
            <polygon class="st5" points="350.3,458.8 352.8,459.3 350.3,458.8 			"/>
            <polygon class="st5" points="352.9,459.3 352.8,501.7 355,501.3 355,484.4 355.1,459.6 353.1,459.3 			"/>
            <polygon class="st5" points="363.4,504 363.4,461.2 360.6,460.7 360.6,483.5 360.6,486.5 360.6,503.4 			"/>
            <polygon class="st5" points="372.7,506 374.7,505.6 374.7,489.4 374.7,486.4 374.7,462.4 372.8,462.7 			"/>
            <polygon class="st5" points="372.7,506 372.8,462.7 370.7,462.4 370.7,485.6 370.7,488.6 370.7,505.6 			"/>
            <polygon class="st5" points="381.4,504.1 383.9,503.6 383.9,491.3 383.9,460.9 381.5,461.3 			"/>
            <polygon class="st5" points="392.4,459.4 392.4,501.9 395.3,501.3 395.3,492.6 395.3,459 			"/>
            <polygon class="st5" points="404.5,457.5 404.5,499.4 407.3,498.9 407.3,495 407.3,465.2 407.3,457 			"/>
            <path class="st5" d="M278.8,442.7l-2.5,0.3L278.8,442.7z"/>
            <polygon class="st5" points="285.6,479.7 285.7,447.4 284.2,447.1 284.2,479.3 			"/>
            <polygon class="st5" points="310.7,449.6 310.7,438.4 308.1,438.8 308,449.2 			"/>
            <polygon class="st5" points="308.1,438.8 306.4,439 306.4,448.9 308,449.2 			"/>
            <polygon class="st5" points="299.1,447.7 299.2,440 296.3,440.3 296.3,447.2 			"/>
            <polygon class="st5" points="296.3,447.2 296.3,440.3 294.9,440.5 294.9,447 			"/>
            <polygon class="st5" points="288,445.9 288.1,441.5 285.7,441.8 285.7,445.5 			"/>
            <polygon class="st5" points="285.7,445.5 285.7,441.8 284.3,442 284.2,445.2 			"/>
            <polygon class="st5" points="278.8,442.7 276.3,443.1 278.8,442.8 			"/>
            <polygon class="st5" points="278.8,442.8 276.3,443.1 276.3,443.9 278.8,444.3 			"/>
            <polygon class="st5" points="276.3,445.7 276.2,481.4 278.2,481 278.3,446.1 			"/>
            <polygon class="st5" points="278.8,442.8 278.8,444.3 282.8,445 282.8,442.2 278.8,442.7 			"/>
            <path class="st5" d="M274.8,443.6l-1.2-0.2L274.8,443.6z"/>
            <polygon class="st5" points="282.8,457.9 282.8,446.9 282.2,446.8 282.1,458.1 			"/>
		</g>


        <g>
			<polygon class="st5" points="413.2,197.3 413.2,196.1 384.1,193.3 381.5,193 378.8,192.7 370.1,191.9 370.1,193.1 372,193.3
				401.6,196.2 404.4,196.4 			"/>
            <polygon class="st5" points="370.1,193.1 370.1,191.9 356.8,193.3 354.3,193.5 278.3,201.4 264.4,202.9 264.4,204 270.5,203.4
				272,203.2 276.5,202.8 278.2,202.5 300.4,200.3 302.6,200.1 310.3,199.3 312.4,199.1 319.3,198.4 321.4,198.1 328.5,197.4
				330.7,197.2 337.7,196.5 340.3,196.2 347.9,195.4 350.4,195.1 358.1,194.4 360.8,194.1 			"/>
            <polygon class="st5" points="278.2,202.6 278.1,241.2 280.3,241.1 280.4,211.4 280.4,209.4 280.4,205.3 280.4,203.9 280.4,202.8
							"/>
            <polygon class="st5" points="278.2,202.6 280.4,202.8 284.4,202.4 286.3,201.8 288.2,202 292.5,201.6 294.2,201 296.2,201.1
				300.4,200.8 			"/>
            <polygon class="st5" points="296.2,201.1 294.2,201 294.1,240.3 296.2,240.2 296.2,206.2 296.2,205.1 296.2,201.2 			"/>
            <polygon class="st5" points="294.2,201 292.5,201.2 292.5,204.8 292.5,205.9 292.4,240.4 294.1,240.3 			"/>
            <polygon class="st5" points="286.3,201.8 284.4,202 284.4,204.2 284.4,205.3 284.3,240.9 286.2,240.8 			"/>
            <polygon class="st5" points="288.2,202 286.3,201.8 286.2,240.8 288.2,240.7 288.2,205.9 288.2,204.5 288.2,202 			"/>
            <polygon class="st5" points="408.9,197.7 413.2,197.3 404.4,196.5 404.4,197.3 			"/>
            <polygon class="st5" points="284.4,204.2 280.4,203.9 280.4,205 284.4,205.3 			"/>
            <polygon class="st5" points="284.4,205.3 280.4,205 282.5,205.4 284,205.3 			"/>
            <path class="st5" d="M284.4,205.3l-0.5,35.6L284.4,205.3z"/>
            <polygon class="st5" points="284,205.3 282.5,205.4 282.5,216.4 282.5,219.2 282.4,241 283.9,240.9 			"/>
            <polygon class="st5" points="292.5,204.8 288.2,204.5 288.2,205.6 292.5,205.9 			"/>
            <polygon class="st5" points="292.5,205.9 288.2,205.6 292.5,206.2 			"/>
            <polygon class="st5" points="300.4,205.5 296.2,205.1 296.2,206.2 300.4,206.6 			"/>
            <polygon class="st5" points="300.4,206.6 296.2,206.2 297.3,206.3 300.4,206.8 			"/>
            <polygon class="st5" points="297.3,206.3 296.2,206.2 296.2,240.2 297.3,240.1 297.3,206.6 			"/>
            <polygon class="st5" points="264.4,204 266.2,203.9 268.2,204 270.5,203.8 			"/>
            <polygon class="st5" points="268.2,204 266.2,203.9 266.1,242 268.3,241.8 268.4,204.3 			"/>
            <polygon class="st5" points="270.5,203.8 268.2,204 270.5,204.2 			"/>
            <polygon class="st5" points="270.5,204.2 268.4,204 270.5,204.5 			"/>
            <polygon class="st5" points="370.1,193.1 361,194.1 363,194.3 368.1,194.2 368.1,193.4 			"/>
            <polygon class="st5" points="363,194.3 361,194.1 360.8,236.4 363,236.2 363,194.7 			"/>
            <polygon class="st5" points="358.1,194.4 350.6,195.2 352.6,195.3 354.3,195.5 356.8,195.3 358.1,195.2 			"/>
            <polygon class="st5" points="352.6,195.3 350.6,195.2 350.3,237 352.5,236.9 352.6,195.7 			"/>
            <polygon class="st5" points="347.9,195.4 340.4,196.2 342.4,196.4 347.9,196.2 			"/>
            <polygon class="st5" points="342.4,196.4 340.4,196.2 340.3,237.6 342.4,237.5 342.4,196.7 			"/>
            <polygon class="st5" points="337.7,196.5 330.8,197.2 332.8,197.4 337.7,197.2 			"/>
            <polygon class="st5" points="332.8,197.4 330.8,197.2 330.6,238.2 332.8,238 332.8,197.6 			"/>
            <polygon class="st5" points="328.5,197.4 321.5,198.2 323.6,198.3 328.5,198.1 			"/>
            <polygon class="st5" points="323.6,198.3 321.5,198.2 321.4,238.7 323.5,238.6 323.6,198.6 			"/>
            <polygon class="st5" points="319.3,198.4 312.4,199.1 314.5,199.3 319.3,199 			"/>
            <polygon class="st5" points="314.5,199.3 312.4,199.1 312.3,239.2 314.4,239.1 314.5,199.5 			"/>
            <polygon class="st5" points="310.3,199.3 302.7,200.1 304.8,200.3 310.3,199.9 			"/>
            <polygon class="st5" points="304.8,200.3 302.7,200.1 302.6,239.8 304.7,239.7 304.8,207.1 304.8,205.8 304.8,200.4 			"/>
            <polygon class="st5" points="308.7,206.1 304.8,205.8 304.8,206.9 306,207 308.7,207.2 			"/>
            <path class="st5" d="M306,207l-1.3-0.1L306,207z"/>
            <polygon class="st5" points="306,207 304.8,207.1 304.7,239.7 306.1,239.6 306.2,207 			"/>
            <polygon class="st5" points="276.5,202.8 272,203.2 274.1,203.4 276.5,203.2 			"/>
            <polygon class="st5" points="401.6,196.2 372,193.3 372,194.3 376.9,194.8 378.7,194 381.2,194.3 381.2,195.2 384.1,195.4
				387.8,195.8 389.6,195.1 392.5,195.3 392.5,196.2 399.7,196.9 			"/>
            <polygon class="st5" points="378.7,194 376.9,194.2 376.9,236.2 378.7,236.3 			"/>
            <polygon class="st5" points="381.2,194.3 378.7,194 378.7,236.3 381.1,236.5 381.2,195.2 			"/>
            <polygon class="st5" points="389.6,195.1 387.8,195.2 387.8,236.8 389.6,236.9 			"/>
            <polygon class="st5" points="392.5,195.3 389.6,195.1 389.6,236.9 392.5,237.1 392.5,196.2 			"/>
            <polygon class="st5" points="401.6,196.2 399.7,196.4 399.7,237.5 401.7,237.6 401.7,196.2 			"/>
            <polygon class="st5" points="350.4,195.1 347.9,195.4 347.9,196.2 347.8,237.1 350.3,237 			"/>
            <polygon class="st5" points="263.9,242.1 263.9,267.9 369.8,264.8 369.8,235.8 368.1,235.9 363,236.2 360.8,236.4 358.1,236.5
				356.8,236.6 354.2,236.8 352.5,236.9 350.3,237 347.8,237.1 342.4,237.5 340.3,237.6 337.7,237.7 332.8,238 330.6,238.2
				328.4,238.3 323.5,238.6 321.4,238.7 319.3,238.8 314.4,239.1 312.3,239.2 310.2,239.4 308.8,239.4 306.1,239.6 304.7,239.7
				302.6,239.8 300.3,239.9 297.3,240.1 296.2,240.2 294.1,240.3 292.4,240.4 288.2,240.7 286.2,240.8 284.3,240.9 282.4,241
				280.7,241.1 278.1,241.2 276.4,241.3 274.5,241.5 271.9,241.6 270.4,241.7 268.3,241.8 266.1,242 264.6,242 			"/>
            <polygon class="st5" points="369.8,264.8 263.9,267.9 281.1,268.2 283.2,268.3 307.6,268.8 414.1,266 			"/>
            <polygon class="st5" points="369.8,264.8 414.1,266 414.1,238.3 404.4,237.7 401.7,237.6 399.7,237.5 392.5,237.1 389.6,236.9
				387.8,236.8 384.1,236.6 381.5,236.5 378.7,236.3 376.9,236.2 372,236 370.1,235.8 			"/>
            <polygon class="st5" points="266.1,242 266.2,203.9 264.7,204 264.6,242 			"/>
            <polygon class="st5" points="272,203.2 270.5,203.4 270.5,204.2 270.4,241.7 271.9,241.6 			"/>
            <polygon class="st5" points="272,203.2 271.9,241.6 274.1,241.5 274.2,204.5 274.2,203.4 272,203.2 			"/>
            <polygon class="st5" points="278.1,241.2 278.2,202.5 276.5,202.7 276.5,203.5 276.5,204.6 276.4,241.3 			"/>
            <polygon class="st5" points="302.6,239.8 302.6,200.1 300.4,200.3 300.4,205.5 300.4,206.6 300.3,239.9 			"/>
            <polygon class="st5" points="312.3,239.2 312.4,199.1 310.3,199.3 310.2,239.4 			"/>
            <polygon class="st5" points="321.4,238.7 321.4,198.1 319.3,198.4 319.3,238.8 			"/>
            <polygon class="st5" points="330.6,238.2 330.7,197.2 328.5,197.4 328.5,198.1 328.4,238.3 			"/>
            <polygon class="st5" points="340.3,237.6 340.3,196.2 337.7,196.5 337.7,197.2 337.7,237.7 			"/>
            <polygon class="st5" points="360.8,236.4 360.8,194.1 358.1,194.3 358.1,195.2 358.1,236.5 			"/>
            <polygon class="st5" points="401.7,196.2 401.7,237.6 404.4,237.7 404.4,197.3 404.4,196.5 			"/>
            <polygon class="st5" points="308.8,239.4 308.8,207.2 306.2,207 306.1,239.6 			"/>
            <polygon class="st5" points="370.1,193.1 368.1,193.4 368.1,194.2 368.1,235.9 369.8,235.8 			"/>
            <polygon class="st5" points="370.1,193.1 370.1,235.8 372,236 372,194.3 372,193.3 			"/>
            <polygon class="st5" points="274.5,203.4 274.2,204.5 276.5,204.6 276.5,203.5 			"/>
            <polygon class="st5" points="274.5,204.5 274.1,241.5 274.6,204.5 			"/>
            <path class="st5" d="M274.5,203.4l2,0.2L274.5,203.4z"/>
            <polygon class="st5" points="276.5,204.6 274.6,204.5 276.5,204.6 			"/>
            <polygon class="st5" points="276.5,204.6 274.6,204.5 276.5,204.7 			"/>
            <polygon class="st5" points="276.5,204.7 274.6,204.5 274.5,241.5 276.4,241.3 			"/>
            <polygon class="st5" points="381.5,236.5 381.5,195.2 381.1,236.5 			"/>
            <polygon class="st5" points="280.5,219.4 280.4,211.4 280.3,241.1 			"/>
		</g>


        <g>
			<g>
				<polygon class="st7" points="386.8,457.5 386.9,403.9 384.2,404.2 384.2,457.9 				"/>
                <polygon class="st7" points="384.2,404.2 386.9,403.9 359.3,400.7 356.7,401 				"/>
                <polygon class="st8" points="384.2,457.9 384.2,404.2 356.7,401 356.7,457.3 359.3,457.7 359.3,405.6 381.5,408.3 381.5,458.3
									"/>
                <path class="st9" d="M371.8,459.8l-12.5-2.1l0-52.1l22.2,2.7l0,50L371.8,459.8z M379,436.4l-1-0.8l-1.2-0.2l-2.9,0.4l-1,0.5
					l-0.6,1.1l-0.1,0.7l0.1,0.7l0.6,1.3l1,0.8l1.2,0.2l2.9-0.4l1-0.5l0.6-1.1l0.1-0.7l-0.1-0.7l-0.2-0.7L379,436.4z"/>
                <polygon class="st8" points="365.7,487.5 370.8,488.5 370.8,485.5 365.7,484.5 				"/>
                <polygon class="st8" points="365.7,484.5 370.8,485.5 370.9,462.3 365.7,461.4 				"/>
                <polygon class="st8" points="384.2,491.3 386.8,490.8 386.8,460.4 384.2,460.8 				"/>
                <polygon class="st8" points="374.8,489.4 379.7,490.4 379.7,487.3 374.8,486.3 				"/>
                <polygon class="st8" points="374.8,486.3 379.7,487.3 379.7,461.5 374.8,462.4 				"/>
                <polygon class="st8" points="356.6,485.6 360.7,486.5 360.7,483.5 359.2,483.2 359.3,460.3 356.7,459.8 356.6,484.6 				"/>
                <polygon class="st8" points="359.3,460.3 359.2,483.2 360.7,483.5 360.8,460.6 				"/>
			</g>
            <polygon class="st7" points="372.8,436.3 372.2,437.4 372.1,438 372.2,438.7 372.5,439.4 373.3,440.5 374.5,441 375.6,440.8
					376.5,440 376.8,438.7 376.7,438.1 376.5,437.4 375.6,436.3 374.5,435.8 373.3,436 			"/>
		</g>


        <g>
			<polygon class="st8" points="368,194 362.9,194.5 362.9,236.1 368,235.8 			"/>
            <polygon class="st8" points="376.8,194.7 371.9,194.2 371.9,235.8 376.8,236.1 			"/>
            <polygon class="st8" points="354.2,195.4 354.1,236.6 356.7,236.5 356.7,195.1 			"/>
            <polygon class="st8" points="356.7,195.1 356.7,236.5 358,236.4 358,195 			"/>
            <polygon class="st8" points="384,236.5 384,195.3 381.4,195.1 381.4,236.3 			"/>
            <polygon class="st7" points="384,153.9 381.4,153.5 381.4,192.8 384,193.1 			"/>
            <polygon class="st8" points="381.4,192.8 381.4,153.5 354.2,157.4 354.1,193.4 356.7,193.1 356.8,161.3 378.7,158.3 378.7,192.6
							"/>
            <path class="st9" d="M370,191.7l-13.3,1.4l0-31.8l22-3l0,34.3L370,191.7z M376.3,186.7l-1-0.5l-3.5-0.3l-1.2,0.5l-0.8,1l-0.2,0.6
				l-0.1,0.7l0.1,0.7l0.6,1.1l1,0.6l3.5,0.3l1.2-0.5l0.8-1l0.2-0.6l0.1-0.7l-0.3-1.3L376.3,186.7z"/>
            <polygon class="st7" points="370.1,186.7 369.5,188 369.4,188.6 369.5,189.3 370.1,190.4 371.1,190.9 372.3,190.8 373.4,190
				374,188.8 374.1,188.1 374,187.5 373.4,186.4 372.3,185.8 371.2,186 			"/>
		</g>
        <g>
			<polygon class="st7" points="532.6,235.6 536.1,235.4 447.6,229.6 444,229.8 			"/>
            <g>
				<path class="st7" d="M447.6,229.6l-0.1-78.9l88.4,13.1l0.2,71.6L447.6,229.6z M478.3,176.7l0-14.9L452,158l0,15.4L478.3,176.7z
					 M478.3,181.2l-26.2-3.1l0,45.2l26.2,1.9L478.3,181.2z M532.2,169.3l-16.9-2.4l0,14.3l16.9,2.1L532.2,169.3z M481.3,162.1
					l0,14.9l31.1,3.9l0-14.4L481.3,162.1z M515.5,227.8l16.9,1.2l-0.1-41.4l-16.9-2L515.5,227.8z M481.4,225.4l31.2,2.3l-0.1-42.4
					l-31.1-3.7L481.4,225.4z"/>
                <polygon class="st7" points="443.9,151.2 444,229.8 447.6,229.6 447.5,150.7 				"/>
			</g>
            <g>
				<polygon class="st9" points="452,158 452.1,173.4 478.3,176.7 478.2,161.7 				"/>
                <polygon class="st9" points="452.1,223.2 478.3,225.2 478.3,181.2 452.1,178 				"/>
                <polygon class="st9" points="515.4,181.3 532.3,183.4 532.2,169.3 515.4,167 				"/>
                <polygon class="st9" points="512.5,180.9 512.5,166.5 481.3,162.1 481.4,177 				"/>
                <polygon class="st9" points="532.3,187.6 515.4,185.6 515.5,227.8 532.4,229.1 				"/>
                <polygon class="st9" points="512.5,185.3 481.4,181.5 481.4,225.4 512.6,227.6 				"/>
			</g>
		</g>
        <g>
			<g>
				<path class="st7" d="M447.7,355.3l-0.1-79.2l88.6,1.5l0.2,71.9L447.7,355.3z M478.4,298l0-15l-26.2-0.3l0,15.4L478.4,298z
					 M478.4,302.6l-26.2,0.3l0,45.4l26.3-1.5L478.4,302.6z M532.5,283.6l-16.9-0.2l0,14.4l16.9-0.1L532.5,283.6z M481.5,283.1l0,15
					l31.2-0.2l0-14.5L481.5,283.1z M515.7,344.6l16.9-1l-0.1-41.6l-16.9,0.2L515.7,344.6z M481.6,346.6l31.2-1.8l-0.1-42.5
					l-31.2,0.3L481.6,346.6z"/>
                <polygon class="st7" points="444,276.1 444,355 447.7,355.3 447.6,276 				"/>
			</g>
            <g>
				<polygon class="st9" points="452.2,282.8 452.2,298.2 478.4,298 478.4,283 				"/>
                <polygon class="st9" points="452.2,348.3 478.5,346.8 478.4,302.6 452.2,302.9 				"/>
                <polygon class="st9" points="515.6,297.8 532.5,297.7 532.5,283.6 515.6,283.4 				"/>
                <polygon class="st9" points="512.7,297.8 512.7,283.4 481.5,283.1 481.5,298 				"/>
                <polygon class="st9" points="532.5,302 515.6,302.2 515.7,344.6 532.6,343.6 				"/>
                <polygon class="st9" points="512.7,302.2 481.5,302.5 481.6,346.6 512.8,344.7 				"/>
			</g>
		</g>
	</g>
</g>
</svg>
