<?xml version="1.0" encoding="utf-8"?>
<!-- Generator: Adobe Illustrator 25.0.1, SVG Export Plug-In . SVG Version: 6.00 Build 0)  -->
<svg version="1.1" id="katman_1" xmlns="http://www.w3.org/2000/svg" x="0px" y="0px"
     viewBox="0 0 841.9 595.3" style="enable-background:new 0 0 841.9 595.3;" xml:space="preserve">
<style type="text/css">
	.st0{fill:#8F6645;}
	.st1{fill:#EEEEEE;}
	.st2{fill:#DDDDDD;}
	.st3{fill:#3D3A37;}
	.st4{fill:#C4C4C4;}
	.st5{fill:#3D3A37;}
	.st6{fill:#000000;}
	.st7{fill:#FFFFFF;}
	.st8{fill:#888888;}
	.st9{fill:#7884AF;}
</style>


    <g id="chimney">
	<polygon class="st5" points="672.6,52.6 670.3,221.1 650.7,218.4 653.2,50.1 		"/>
        <polygon class="st5" points="614.4,247.2 623.9,225 650.7,218.4 650.1,239.4 		"/>
        <polygon class="st6" points="674.8,242.4 650.1,239.4 650.7,218.4 670.3,221.1 		"/>
        <polygon class="st6" points="624,224.6 626.8,50.9 653.2,50.1 650.7,218.4 623.9,225 		"/>
</g>


    <g id="body">
	<polygon class="st4" points="478.2,550.2 478.3,437.9 478.3,437.1 478.4,135 726.2,179.8 731.6,501.9 				"/>
        <polygon class="st4" points="524.4,51.6 525.6,51.3 549,41.1 571.8,63.8 571.8,65.8 571.8,67.6 571.9,74.8 572.2,131.3
				524.6,121.7 				"/>
        <polygon class="st4" points="475.3,64.5 524.4,51.6 524.6,121.7 				"/>
        <polygon class="st4" points="634,81.8 635,81.2 635.6,144 586.6,91.8 				"/>
        <polygon class="st4" points="673.3,92.8 673.6,117 674.1,151.8 635.6,144 635,81.2 654.7,71 673.3,90.8 				"/>
        <polygon class="st0" points="416.2,394.8 414.2,392.6 326.2,387.6 328.6,164.6 328.6,161.2 398.7,37.5 477.7,134.9 478.4,135
				478.3,437.1 				"/>
        <polygon class="st0" points="466.7,452 463.4,452.4 321,466.9 320.7,494.4 320.4,522.9 320,551.2 319.7,579.6 319.7,580.7
				309.5,582.6 311,455.9 476.7,440.5 476.6,550 476.6,550.7 466.6,552.6 				"/>
        <polygon class="st0" points="166.9,436.2 311,455.9 309.5,582.6 164.6,541.8 				"/>
</g>


    <g id="roof">

	<polygon class="st3" points="414,392.5 416,394.6 415.1,395.2 			"/>
        <g>
		<polygon class="st8" points="476.4,549.8 476.5,440.4 478.1,437.7 478,550.1 				"/>
            <polygon class="st8" points="478.1,437.7 476.5,440.4 477.7,437.9 				"/>
            <polygon class="st6" points="464.1,551.9 463,527 464.2,526.8 463.1,501.9 464.4,501.7 463.1,476.7 464.2,476.6 463.2,452.2
				466.5,451.9 466.4,552.4 				"/>
            <polygon class="st8" points="319.5,579.4 319.8,551 463,527 464.1,551.9 				"/>
            <polygon class="st8" points="463,527 319.8,551 320.2,522.7 463.1,501.9 464.2,526.8 				"/>
            <polygon class="st8" points="463.1,501.9 320.2,522.7 320.5,494.3 463.1,476.7 464.4,501.7 				"/>
            <polygon class="st8" points="463.1,476.7 320.5,494.3 320.8,466.8 463.2,452.2 464.2,476.6 				"/>
		</g>
        <g>
		<polygon class="st3" points="586.2,92.9 635.2,145 673.7,152.8 673.2,118 733.7,178.8 727.1,177.6 724.8,177.1 605.9,155.2
				479.7,131.8 397.8,31.5 489.7,55 485.2,56.2 472.5,63.4 473.9,63 471.2,64.3 473.1,65.9 474.9,65.5 524.2,122.7 571.8,132.3
				571.5,75.9 595,81.9 591.2,82.8 583,90.1 584.8,89.7 581.7,91.3 584.2,93.3 				"/>
            <polygon class="st1" points="632.9,80.3 633.6,82.8 586.2,92.9 584.2,93.3 581.7,91.3 				"/>
            <polygon class="st3" points="584.8,89.7 583,90.1 591.2,82.8 595,81.9 655.4,68.6 632.9,80.3 581.8,91.2 				"/>
            <polygon class="st3" points="471.1,64.2 524.5,50.1 525.2,52.3 524,52.6 474.9,65.5 473.1,65.9 471.2,64.3 				"/>
            <polygon class="st1" points="672.9,91.8 654.3,72 656.1,71 676.6,93.1 674.4,93.5 				"/>
            <polygon class="st1" points="656.1,71 654.3,72 634.6,82.3 633.6,82.8 632.9,80.3 655.4,68.6 656.8,69 677.2,91.1 676.6,93.1
								"/>
            <polygon class="st1" points="324.4,161.6 328.2,162.2 328.2,165.6 322.6,164.8 				"/>
            <polygon class="st1" points="397.8,31.5 479.7,131.8 479.1,132.8 477.3,135.9 398.3,38.5 395.7,35.3 324.4,161.6 322.6,164.8
				320.9,162.1 393.7,32.7 				"/>
            <polygon class="st1" points="552.1,40.5 578.5,67 574.5,67.9 573.1,66.5 571.4,64.8 548.6,42.1 				"/>
            <polygon class="st1" points="398.3,38.5 328.2,162.2 324.4,161.6 395.7,35.3 				"/>
            <polygon class="st2" points="728.2,178.6 727.1,177.6 733.7,178.8 731.3,181.8 				"/>
            <polygon class="st2" points="725.8,178.2 724.8,177.1 727.1,177.6 728.2,178.6 				"/>
            <polygon class="st2" points="605.9,156.1 606.6,155.3 724.8,177.1 725.8,178.2 				"/>
            <polygon class="st2" points="605.3,156 606.6,155.3 605.9,156.1 				"/>
            <polygon class="st2" points="479.1,132.8 479.7,131.8 605.9,155.2 605.3,156 				"/>
            <polygon class="st1" points="725.8,180.8 478,136 477.3,135.9 479.1,132.8 605.9,156.1 725.8,178.2 728.2,178.6 731.3,181.8
								"/>
            <polygon class="st2" points="571.4,66.9 573.1,66.5 574.5,67.9 571.4,68.6 				"/>
            <polygon class="st1" points="226.4,393.3 164.5,434.9 165.5,434.2 				"/>
            <g>
			<polygon class="st1" points="159.7,430.8 303.6,449.9 305.8,452.9 161.7,433.2 					"/>
                <polygon class="st1" points="307,450 472.7,435 471.5,437.5 305.8,452.9 					"/>
                <polygon class="st3" points="326.7,396.4 410.1,392.3 472.7,435 307,450 					"/>
                <polygon class="st3" points="221.6,389.2 323.4,396.3 303.6,449.9 159.7,430.8 					"/>
                <polygon class="st3" points="410.1,392.3 411,391.7 473.4,434.3 472.7,435 					"/>
                <polygon class="st3" points="307,450 305.8,452.9 303.6,449.9 					"/>
                <polygon class="st3" points="323.4,396.3 326.7,396.4 307,450 303.6,449.9 					"/>
                <polygon class="st3" points="325.5,393.6 326.7,396.4 323.4,396.3 					"/>
                <polygon class="st3" points="409,389.6 410.1,392.3 326.7,396.4 325.5,393.6 					"/>
                <polygon class="st4" points="223.6,386.8 304.1,383.7 321,384.6 409,389.6 325.5,393.6 					"/>
                <polygon class="st2" points="221.6,389.2 223.6,386.8 325.5,393.6 323.4,396.3 					"/>
		</g>
            <polygon class="st3" points="473.9,63 472.5,63.4 485.2,56.2 489.7,55 551.4,38.4 524.5,50.1 471.1,64.2 				"/>
            <polygon class="st1" points="552.8,38.6 579.2,65 578.5,67 552.1,40.5 548.6,42.1 525.2,52.3 524.5,50.1 551.4,38.4 				"/>
            <polygon class="st2" points="672.9,93.8 672.9,91.8 674.4,93.5 				"/>
            <polygon class="st2" points="571.4,64.8 573.1,66.5 571.4,66.9 				"/>
	</g>
</g>


    <g id="right-window">
	<g>
		<path class="st7" d="M514.3,363l-0.2-75.7l83.8,4.1l0.5,69.7L514.3,363z M594.5,356l-0.3-44.6l-34.4-0.9h-4.2l-36.9-1l0.1,48
			L594.5,356z M518.7,292.8v11.6l36.9,1.2l-0.1-11.2L518.7,292.8z M559.7,294.7l0.1,11.2l34.3,1.1l-0.1-10.9L559.7,294.7z"/>
        <polygon class="st7" points="514.1,287.3 514.2,363 511.5,362.9 511.3,287.4 				"/>
	</g>
        <g>
		<polygon class="st9" points="555.6,310.5 559.8,310.6 594.1,311.5 594.5,356.1 518.8,357.5 518.7,309.5 				"/>
            <polygon class="st9" points="518.7,304.5 518.7,292.8 555.5,294.4 555.6,305.6 				"/>
            <polygon class="st9" points="559.7,305.9 559.7,294.6 594,296.1 594.1,307 				"/>
	</g>


        <g>
		<path class="st7" d="M634.1,360.2l-0.7-67.2l66.6,3.2l0.9,62.5L634.1,360.2z M697.6,354.4l-0.6-40l-27.4-0.8h-3.3l-29.2-0.8
			l0.5,42.6L697.6,354.4z M636.9,298l0.1,10.3l29.2,0.9l-0.1-10L636.9,298z M669.4,299.3l0.1,10l27.4,0.9l-0.1-9.7L669.4,299.3z"
        />
            <polygon class="st7" points="633.3,293 634,360.2 631.3,360.2 630.6,293.1 				"/>
	</g>
        <g>
		<polygon class="st9" points="666.3,313.6 669.6,313.6 697,314.3 697.6,354.3 637.6,355.4 637.1,312.8 				"/>
            <polygon class="st9" points="637.1,308.3 636.9,297.9 666.1,299.2 666.2,309.2 				"/>
            <polygon class="st9" points="669.6,309.4 669.4,299.4 696.8,300.5 697,310.3 				"/>
	</g>

</g>


    <g>
	<g>
		<g>
			<g>
				<polygon class="st0" points="636.4,502.9 647.9,500.9 680.9,505.3 614.6,517.6 581.2,512.5 598.9,509.4 598.9,510.4
					636.4,503.7 				"/>
                <polygon class="st0" points="614.6,517.6 614.8,534.8 581.3,529.2 581.2,512.5 				"/>
                <polygon class="st1" points="614.6,517.6 680.9,505.3 681.1,521.4 614.8,534.8 				"/>
			</g>
            <g>
				<path class="st7" d="M666,478.7l-0.8-66.3l38.8-3.2l1,63.4L666,478.7z M703.1,468.3l-0.6-40.5l-16.2,1.7l-1.9,0.3l-16.8,1.7
					l0.5,42.1L703.1,468.3z M667.4,416.8l0.1,10.2l16.7-1.6l-0.1-10L667.4,416.8z M686,415.2l0.1,10.1l16.2-1.6l-0.1-9.9L686,415.2z
					"/>
                <polygon class="st7" points="663,445 662.9,442.3 662.6,412.2 665.3,412.3 666.1,478.6 663.4,478.3 				"/>
                <polygon class="st7" points="701.4,409 704,409.2 665.3,412.3 662.6,412.2 				"/>
			</g>
            <path class="st7" d="M598.1,393.7h-0.9H598.1z"/>
            <g>
				<polygon class="st7" points="444.3,150.5 444.1,232.8 440.2,232.4 440.5,149.9 				"/>
                <path class="st7" d="M348.5,242.2l0.7-75l91.3-17.4l-0.3,82.6L348.5,242.2z M376.7,183.6l0.1-15.1l-23.9,4.4l-0.1,14.7
					L376.7,183.6z M376.8,188.1l-24,3.9l-0.4,43.4l24-2.7L376.8,188.1z M435.8,157.7l-20,3.7l-0.1,15.7l20-3.4L435.8,157.7z
					 M380,168l-0.1,15.1l32.6-5.5l0.1-15.7L380,168z M415.5,228.2l20-2.3l0.2-47.4l-20,3.3L415.5,228.2z M379.5,232.4l32.8-3.8
					l0.2-46.3l-32.7,5.3L379.5,232.4z"/>
			</g>
            <polygon class="st7" points="352.3,242.6 348.5,242.3 440.2,232.4 444.1,232.8 			"/>
            <g>
				<polygon class="st9" points="376.9,168.5 376.8,183.6 352.8,187.6 353,172.9 				"/>
                <polygon class="st9" points="352.8,192 376.8,188.1 376.4,232.7 352.4,235.5 				"/>
                <polygon class="st9" points="415.8,161.3 435.8,157.6 435.7,173.7 415.8,177 				"/>
                <polygon class="st9" points="379.8,183.1 379.9,167.9 412.6,161.9 412.5,177.6 				"/>
                <polygon class="st9" points="435.6,226 415.5,228.2 415.7,181.8 435.7,178.5 				"/>
                <polygon class="st9" points="412.2,228.6 379.5,232.4 379.8,187.6 412.5,182.3 				"/>
			</g>


            <g>
				<polygon class="st9" points="684.3,429.8 686.2,429.5 702.4,427.8 703,468.3 668.1,473.6 667.5,431.5 				"/>
                <polygon class="st9" points="667.5,427.1 667.4,416.9 684.1,415.4 684.2,425.4 				"/>
                <polygon class="st9" points="686.2,425.3 686,415.2 702.2,413.8 702.4,423.7 				"/>
			</g>


            <g>
				<path class="st7" d="M532.5,112.5l-0.2-49.6l36.7,9.8l0.3,47.9L532.5,112.5z M550.3,112.9l-0.1-19.4l-15.8-3.8l0.1,19.7
					L550.3,112.9z M534.3,67l0.1,19.7l15.8,3.8l-0.1-19.4L534.3,67z M551.9,71.6l0.1,19.3l15.4,3.7l-0.1-19L551.9,71.6z
					 M567.5,116.8l-0.1-19.1L552,94l0.1,19.4L567.5,116.8z"/>
                <polygon class="st7" points="532.4,62.9 532.5,112.6 529.9,113.1 529.8,63.6 				"/>
                <polygon class="st7" points="569.3,120.6 566.7,121.1 529.9,113.1 532.5,112.6 				"/>
			</g>
            <g>
				<polygon class="st9" points="550.2,93.5 550.3,113 534.5,109.4 534.4,89.7 				"/>
                <polygon class="st9" points="534.4,86.6 534.3,67 550.1,71.1 550.2,90.5 				"/>
                <polygon class="st9" points="552,90.9 551.9,71.6 567.3,75.6 567.4,94.7 				"/>
                <polygon class="st9" points="567.4,97.7 567.5,116.8 552.1,113.4 552,94 				"/>
			</g>


            <g>
				<polygon class="st7" points="444,281.6 443.7,365.4 439.8,365.5 440.1,281.4 				"/>
                <path class="st7" d="M347.4,363l0.7-76.3l92-5.3l-0.3,84.1L347.4,363z M375.8,307.1l0.1-15.4l-24.1,1.2l-0.1,15L375.8,307.1z
					 M375.9,311.7l-24.2,0.7l-0.4,44.2l24.2,0.5L375.9,311.7z M435.4,288.8l-20.1,1l-0.1,16l20.1-0.7L435.4,288.8z M379,291.6
					l-0.1,15.4l32.9-1.1l0.1-16L379,291.6z M414.8,357.9l20.2,0.4l0.2-48.3l-20.1,0.6L414.8,357.9z M378.6,357l33,0.7l0.2-47.1
					l-32.9,1L378.6,357z"/>
			</g>
            <g>
				<polygon class="st9" points="376,291.7 375.9,307.1 351.7,307.9 351.9,293 				"/>
                <polygon class="st9" points="351.7,312.4 375.8,311.7 375.5,357.1 351.3,356.6 				"/>
                <polygon class="st9" points="415.2,289.7 435.3,288.7 435.3,305.1 415.1,305.7 				"/>
                <polygon class="st9" points="378.9,307 379,291.6 411.9,289.9 411.8,305.9 				"/>
                <polygon class="st9" points="435.1,358.3 414.9,357.9 415.1,310.6 435.3,310 				"/>
                <polygon class="st9" points="411.6,357.8 378.6,357.1 378.9,311.6 411.8,310.7 				"/>
			</g>


            <g>
				<path class="st7" d="M515.3,501.8l-0.2-77.3l52.3-4.3l0.4,73.4L515.3,501.8z M565.4,488.7l-0.3-46.9l-21.8,2.2l-2.6,0.4
					l-22.7,2.3l0.1,49L565.4,488.7z M517.9,429.6v11.9l22.7-2.2v-11.6L517.9,429.6z M543.2,427.4v11.7L565,437l-0.1-11.4
					L543.2,427.4z"/>
                <polygon class="st7" points="515.1,424.4 515.3,501.7 512.5,501.3 512.4,424.2 				"/>
                <polygon class="st7" points="564.7,420 567.4,420.2 515.1,424.4 512.4,424.2 				"/>
			</g>
            <g>
				<polygon class="st9" points="540.6,444.4 543.3,444 565,441.8 565.3,488.7 518.1,495.7 518,446.7 				"/>
                <polygon class="st9" points="518,441.5 517.9,429.7 540.6,427.7 540.6,439.3 				"/>
                <polygon class="st9" points="543.2,439.2 543.2,427.5 564.9,425.6 565,437 				"/>
			</g>


            <g>
				<path class="st7" d="M641.3,136l-0.5-44.6l29.5,7.9l0.6,43.2L641.3,136z M655.5,136.1l-0.2-17.5l-12.7-3.1l0.2,17.7
					L655.5,136.1z M642.3,95l0.2,17.7l12.7,3.1L655,98.4L642.3,95z M656.5,98.8l0.2,17.4l12.4,3l-0.2-17.2L656.5,98.8z M669.4,139
					l-0.2-17.2l-12.4-3l0.2,17.5L669.4,139z"/>
                <polygon class="st7" points="640.8,91.4 641.3,136 638.7,136.4 638.2,92 				"/>
                <polygon class="st7" points="670.9,142.5 668.3,142.9 638.7,136.4 641.3,136 				"/>
			</g>
            <g>
				<polygon class="st9" points="655.3,118.5 655.5,136 642.8,133.2 642.6,115.5 				"/>
                <polygon class="st9" points="642.5,112.7 642.3,95 655,98.4 655.2,115.8 				"/>
                <polygon class="st9" points="656.7,116.1 656.5,98.7 668.9,102 669.1,119.2 				"/>
                <polygon class="st9" points="669.1,121.9 669.4,139.1 657,136.3 656.7,118.9 				"/>
			</g>


            <g>
				<path class="st7" d="M633.3,243.6l-0.7-66.2l66.2,11.3l0.9,61.6L633.3,243.6z M696.6,245.6l-0.6-39.4l-27.3-4.1l-3.3-0.4
					l-29-4.4l0.4,42L696.6,245.6z M636.2,182.7l0.1,10.2l29,4.5l-0.1-9.9L636.2,182.7z M668.5,188.1l0.1,9.9l27.2,4.2l-0.1-9.6
					L668.5,188.1z"/>
                <polygon class="st7" points="632.6,177.4 633.3,243.6 630.6,243.8 629.9,177.8 				"/>
                <polygon class="st7" points="699.7,250.3 697.1,250.5 630.6,243.8 633.3,243.6 				"/>
			</g>
            <g>
				<polygon class="st9" points="665.4,201.7 668.7,202.1 695.9,206.2 696.5,245.6 636.8,239.3 636.4,197.3 				"/>
                <polygon class="st9" points="636.4,192.9 636.2,182.7 665.2,187.5 665.3,197.4 				"/>
                <polygon class="st9" points="668.6,198 668.5,188.1 695.7,192.6 695.9,202.2 				"/>
			</g>


            <g>
				<path class="st7" d="M514.6,231.7l-0.2-74.4l83.1,14.2l0.5,68.6L514.6,231.7z M594.1,234.6l-0.3-43.9l-34.1-5.1l-4.2-0.5
					l-36.6-5.5l0.1,47.2L594.1,234.6z M519,163.2v11.4l36.5,5.7l-0.1-11L519,163.2z M559.5,169.9l0.1,11.1l34.1,5.3l-0.1-10.7
					L559.5,169.9z"/>
                <polygon class="st7" points="514.3,157.2 514.5,231.6 511.7,231.9 511.6,157.7 				"/>
			</g>
            <polygon class="st7" points="598,240.1 595.3,240.3 511.7,231.9 514.5,231.6 			"/>
            <g>
				<polygon class="st9" points="555.5,185.1 559.6,185.7 593.7,190.8 594,234.7 519,226.8 518.9,179.6 				"/>
                <polygon class="st9" points="518.9,174.7 518.9,163.2 555.4,169.3 555.5,180.3 				"/>
                <polygon class="st9" points="559.6,181.1 559.6,170 593.6,175.6 593.7,186.4 				"/>
			</g>


            <g>
				<path class="st7" d="M599.4,509.2v-2.6l-0.9-113.1v-2.7l37.2-2l0.5,52.7v1l0.6,60.2v0.8l-37.5,6.7L599.4,509.2z M600.2,393.5
					l0.9,113.2l33.8-5.9l-0.2-41.3l0.4-0.8l0.3-0.9l0.1-1v-1l-0.2-0.9l-0.8-1.4l-0.6-61.8L600.2,393.5z"/>
                <polygon class="st8" points="598.4,393.5 599.2,506.6 598.4,506.4 597.5,393.5 				"/>
                <path class="st8" d="M634.4,453.5l-1.1-0.4l-2.8-0.1l-1.1,1l-0.4,0.8l-0.3,0.9l-0.1,1v1l0.2,0.9l0.8,1.4l1.2,0.5l2.8,0.1
					l0.9-0.8l0.4,41.1l-33.8,5.9l-0.9-113.2l33.6-1.9L634.4,453.5L634.4,453.5z M616.8,438.2l-0.2-19.5l-14.5,1.2l0.2,19.8
					L616.8,438.2z M601.9,397.1l0.2,19.7l14.5-1.2l-0.2-19.4L601.9,397.1z M618.1,396l0.2,19.4l14.1-1.1l-0.2-19.1L618.1,396z
					 M632.6,436.5l-0.2-19.2l-14.1,1.2l0.2,19.5L632.6,436.5z"/>
                <polygon class="st7" points="635.5,456.9 635.4,457.9 635.2,458.8 634.6,459.9 633.7,460.7 632.4,460.7 631.4,459.7 631,458.8
					630.8,457.9 630.8,456.9 630.9,455.9 631.2,454.9 631.6,454.1 632.7,453.1 633.9,453.1 634.9,454.1 635.3,454.9 635.5,455.9
									"/>
			</g>
            <g>
				<polygon class="st9" points="616.4,418.8 616.5,438.3 602,439.9 601.9,420.1 				"/>
                <polygon class="st9" points="601.9,417 601.7,397.2 616.2,396.4 616.3,415.8 				"/>
                <polygon class="st9" points="618,415.6 617.8,396.3 631.9,395.4 632.1,414.5 				"/>
                <polygon class="st9" points="632.1,417.5 632.3,436.7 618.2,438.2 618,418.7 				"/>
			</g>


            <path class="st7" d="M598.9,510.4l37.5-6.7 M581.2,512.5l0.1,16.7 M636.5,502.9l11.4-2 M581.1,512.5l17.8-3.1 M352.9,187.6
				l0.1-14.7 M376.4,232.8l-24,2.7 M435.8,173.6l-20,3.4 M415.9,161.3l-0.1,15.7 M415.8,161.3l20-3.7 M435.8,157.7l-0.1,16
				 M352.4,235.4l0.4-43.4 M412.5,177.6l0.1-15.7 M415.7,181.8l20-3.3 M353,172.9l23.9-4.4 M440.2,232.5l0.3-82.6 M444.4,150.5
				l-3.9-0.6 M444.1,232.8l0.2-82.3 M444.1,232.8l-3.9-0.4 M440.5,149.9l-91.3,17.4 M380,167.9l32.6-6 M412.4,177.6l-32.6,5.5
				 M379.9,168l-0.1,15.1 M435.8,178.6l-0.2,47.4 M352.3,242.6l91.8-9.8 M352.3,242.6l-3.8-0.3 M376.8,183.6l0.1-15.1 M348.5,242.3
				l91.7-9.9 M349.2,167.3l-0.7,75 M376.8,183.6l-24,4 M435.5,225.9l-20,2.3 M415.5,228.3l0.2-46.5 M379.8,187.6l32.7-5.3
				 M412.3,228.6l0.2-46.3 M412.3,228.6l-32.8,3.8 M379.5,232.3l0.3-44.7 M352.8,192l24-3.9 M376.5,232.7l0.3-44.6 M681.1,521.3
				l-66.3,13.5 M667.6,431.5l0.5,42.1 M705,472.6l-1-63.4 M684.2,425.4l-0.1-10 M684.1,415.5l-16.7,1.4 M702.3,423.7l-0.1-9.9
				 M663.4,478.3l2.7,0.3 M662.6,412.1l2.7,0.2 M666.1,478.6l38.9-6 M702.2,413.8l-16.2,1.4 M701.3,409.1l2.7,0.1 M701.4,409
				l-38.8,3.2 M704.1,409.1l-38.8,3.2 M684.2,425.5l-16.7,1.6 M667.4,416.9l0.1,10.2 M686.1,415.2l0.1,10.1 M702.4,423.7l-16.2,1.6
				 M703,468.3l-0.6-40.5 M665.3,412.3l0.8,66.3 M686.2,429.5l16.2-1.7 M667.5,431.5l16.8-1.7 M684.3,429.8l1.9-0.3 M518.7,309.5
				l0.1,48 M598.4,361l-0.5-69.7 M511.4,287.4l0.1,75.5 M555.6,305.6l-0.1-11.2 M555.5,294.4l-36.8-1.6 M594.1,307l-0.1-10.9
				 M511.5,362.9l2.7,0.1 M511.4,287.4l2.7-0.1 M514.2,363l84.2-1.9 M594,296.1l-34.3-1.5 M597.9,291.4l-83.8-4.1 M555.6,305.7
				l-36.9-1.2 M518.7,292.9v11.6 M559.6,294.7l0.1,11.2 M594,307l-34.3-1.1 M594.4,356.1l-0.3-44.6 M514,287.3l0.2,75.7
				 M559.7,310.6l34.4,0.9 M518.7,309.5l36.9,1 M555.6,310.6h4.2 M534.4,89.7l0.1,19.7 M569.3,120.6L569,72.7 M529.7,63.6l0.2,49.5
				 M550.2,90.5l-0.1-19.4 M550.1,71.1L534.3,67 M567.4,94.6l-0.1-19 M529.9,113.1l2.6-0.5 M529.8,63.6l2.6-0.7 M532.5,112.6l36.8,8
				 M566.7,121.1l2.6-0.5 M529.9,113.1l36.8,8 M567.2,75.6l-15.3-4 M552,94l0.1,19.4 M534.5,109.5l15.8,3.5 M552.1,113.4l15.4,3.4
				 M569.1,72.7l-36.7-9.8 M550.2,90.4l-15.8-3.8 M552,94l15.4,3.7 M534.3,66.9l0.1,19.7 M551.9,71.6l0.1,19.3 M567.4,94.7L552,90.9
				 M550.3,112.9l-0.1-19.4 M567.5,116.8l-0.1-19.1 M534.4,89.7l15.8,3.8 M532.3,63l0.2,49.6 M614.6,517.6l0.2,17.2 M680.9,505.3
				l-66.3,12.3 M680.9,505.4l0.2,16 M637.1,312.8l0.5,42.6 M700.8,358.7l-0.9-62.5 M630.6,293.1l0.7,67.1 M666.2,309.2l-0.1-10
				 M666.1,299.2l-29.2-1.3 M696.9,310.2l-0.1-9.7 M631.3,360.2h2.7 M630.6,293.1l2.7-0.1 M634,360.2l66.9-1.5 M696.8,300.6
				l-27.4-1.2 M699.9,296.2l-66.6-3.2 M666.3,309.2l-29.2-0.9 M637,298l0.1,10.3 M669.5,299.4l0.1,10 M697,310.3l-27.4-0.9
				 M697.6,354.3l-0.6-40 M633.3,293l0.7,67.2 M669.6,313.5l27.4,0.8 M637.1,312.8l29.2,0.8 M666.3,313.6h3.3 M351.8,308l0.1-15
				 M375.5,357.1l-24.2-0.5 M435.2,305l-20.1,0.7 M415.2,289.7l-0.1,16 M415.2,289.7l20.1-1 M435.4,288.8l-0.1,16.3 M351.3,356.6
				l0.4-44.2 M411.8,305.9l0.1-16 M415.2,310.6l20.1-0.6 M351.9,292.9l24.1-1.2 M439.8,365.5l0.3-84.1 M444,281.6l-3.9-0.2
				 M443.8,365.4l0.2-83.8 M443.7,365.4l-3.9,0.1 M440,281.4l-92,5.3 M379,291.6l32.9-1.7 M411.8,305.9l-32.9,1.1 M379,291.6
				l-0.1,15.4 M435.3,310l-0.2,48.3 M375.9,307.1l0.1-15.4 M347.3,363l92.5,2.5 M348,286.7l-0.7,76.3 M375.8,307.1l-24.1,0.8
				 M435.1,358.3l-20.2-0.4 M414.9,357.9l0.2-47.3 M378.9,311.7l32.9-1 M411.6,357.8l0.2-47.1 M411.6,357.8l-33-0.7 M378.6,357.1
				l0.3-45.5 M351.6,312.4l24.2-0.7 M375.5,357.1l0.3-45.4 M647.9,500.8l33,4.5 M518,446.7l0.1,49 M567.8,493.6l-0.4-73.4
				 M512.4,424.3l0.1,77 M540.6,439.3v-11.6 M540.5,427.7l-22.6,2 M565,437l-0.1-11.4 M512.5,501.3l2.8,0.4 M512.3,424.2l2.8,0.2
				 M515.3,501.7l52.5-8.1 M564.9,425.6l-21.7,1.9 M564.7,420l2.7,0.2 M564.7,420l-52.3,4.2 M567.4,420.1l-52.3,4.3 M540.7,439.3
				l-22.7,2.2 M518,429.6v11.9 M543.2,427.5v11.7 M565,437.1l-21.8,2.1 M565.3,488.7l-0.3-46.9 M515.1,424.4l0.2,77.3 M543.2,444
				l21.8-2.2 M517.9,446.7l22.7-2.3 M540.7,444.4l2.6-0.4 M642.6,115.5l0.2,17.7 M670.9,142.5l-0.6-43.2 M638.2,91.9l0.5,44.5
				 M655.2,115.8L655,98.4 M655,98.3L642.3,95 M669.1,119.2l-0.2-17.2 M638.7,136.4l2.6-0.4 M638.2,91.9l2.6-0.5 M641.3,136
				l29.6,6.5 M668.3,142.9l2.6-0.4 M638.7,136.5l29.6,6.4 M668.9,102l-12.4-3.3 M656.8,118.8l0.2,17.5 M642.8,133.2l12.7,2.8
				 M657,136.3l12.4,2.8 M670.3,99.3l-29.5-7.9 M655.2,115.8l-12.7-3.1 M656.7,118.9l12.4,3 M642.3,95l0.2,17.7"/>
		</g>
	</g>
</g>
</svg>
