<?xml version="1.0" encoding="utf-8"?>
<!-- Generator: Adobe Illustrator 25.0.1, SVG Export Plug-In . SVG Version: 6.00 Build 0)  -->
<svg version="1.1" id="katman_1" xmlns="http://www.w3.org/2000/svg" x="0px" y="0px"
     viewBox="0 0 841.9 595.3" style="enable-background:new 0 0 841.9 595.3;" xml:space="preserve">
<style type="text/css">
	.st0{fill:#8F6645;}
	.st1{fill:#EEEEEE;}
	.st2{fill:#DDDDDD;}
	.st3{fill:#3D3A37;}
	.st4{fill:#C4C4C4;}
	.st5{fill:#3D3A37;}
	.st6{fill:#000000;}
	.st7{fill:#FFFFFF;}
	.st8{fill:#888888;}
	.st9{fill:#7884AF;}
</style>

    <g id="body">
	<polygon class="st0" points="43.6,479.9 51,480.8 140,490.4 151.7,491.7 153.2,429.1 153.3,428.2 153.4,423.7 157,281 157,277.8
		157.3,269.7 157.5,259.3 444.1,212.9 454.6,208.5 456.6,582.7 42.3,517.1 			"/>
        <polygon class="st4" points="456.6,582.7 454.6,208.5 486.5,195.2 648.1,137 779.2,262.7 780,284.8 789.2,523.5 			"/>
</g>


    <g id="roof">
	<polygon class="st2" points="779.2,262.7 648.1,137 674.1,127.6 806.9,260.2 			"/>
        <polygon class="st2" points="157,281 70.3,273.4 84.1,271.1 157,277.8 			"/>
        <polygon class="st3" points="157,277.8 84.1,271.1 117.1,265.8 157.3,269.7 			"/>
        <polygon class="st3" points="265.1,182 673.1,90.8 443.9,166.5 37,248.7 			"/>
        <polygon class="st3" points="37,248.7 443.9,166.5 444.1,212.9 157.5,259.3 117.1,265.8 84.1,271.1 70.3,273.4 35.9,278.9 			"/>
        <polygon class="st3" points="443.9,166.5 673.1,90.8 826.6,251.5 827.9,281.1 806.9,260.2 674.1,127.6 648.1,137 486.5,195.2
			454.6,208.5 444.1,212.9 			"/>
        <polygon class="st2" points="827.9,281.1 780,284.8 779.2,262.7 806.9,260.2 			"/>
</g>


    <g id="chimney">
	<polygon class="st5" points="420.6,168.1 387.4,174.6 387.9,45.2 396.7,42.3 419.6,35 420.6,34.7 			"/>
        <polygon class="st6" points="452.4,157.5 420.6,168.1 420.6,34.7 442.2,41.7 452,45 			"/>
        <polygon class="st6" points="419.6,7 442.1,15 442.2,41.7 420.6,34.7 419.6,35 			"/>
        <polygon class="st5" points="396.8,14.9 419.6,7 419.6,35 396.7,42.3 			"/>
</g>


    <g id="right-window">
	<polygon class="st9" points="219.8,454.5 223,288.2 253.2,284.3 250.5,456.3 		"/>
        <polygon class="st9" points="217.2,288.9 213.9,454.2 189.6,452.8 193.2,292.1 		"/>
        <g>
		<polygon class="st7" points="219.8,454.5 213.9,454.2 217.2,288.9 223,288.2 			"/>
            <polygon class="st8" points="263.1,274.7 260.3,466.1 256.2,466.3 259.1,274.2 			"/>
            <path class="st7" d="M184.4,461.4l4-177.3l70.6-9.9l-2.9,192L184.4,461.4z M213.9,454.2l5.9,0.3l30.7,1.8l2.7-172l-30.2,3.9
				l-5.8,0.8l-24,3.1l-3.6,160.7L213.9,454.2z"/>
	</g>
</g>


    <g>
	<g>
		<g>
			<polygon class="st0" points="51,480.8 66.5,479.9 66.5,478.7 140.5,474.5 140,490.4 			"/>
            <g>
				<polygon class="st4" points="45.6,425.3 153.2,429.1 151.7,491.7 140,490.4 140.5,474.5 141.5,435.4 68.1,432.2 52.8,431.6
					51,480.8 43.6,479.9 				"/>
                <polygon class="st4" points="153.2,429.1 45.6,425.3 153.4,423.3 68.3,425.3 153.3,428.2 				"/>
                <polygon class="st4" points="51,480.8 52.8,431.6 68.1,432.2 66.5,478.7 66.5,479.9 				"/>
                <polygon class="st4" points="153.3,428.2 68.3,425.3 153.4,423.7 				"/>
			</g>
		</g>
	</g>
        <g>
		<path class="st8" d="M620.9,554.3l-5.6-249.3l76.6,9.1l7,226L620.9,554.3z M634.7,405.3l-8.1,21.6l11.2,0.2l8.6-0.2l-0.6-21.6
			L634.7,405.3z M683.6,327.6l-27.5-2.7l1.8,65.3l27.7,0.5L683.6,327.6z"/>
            <g>
			<polygon class="st8" points="595.8,555.2 590.3,281.9 602,280.8 607.8,556.6 			"/>
                <polygon class="st8" points="642.1,239.5 653.5,238.1 602,280.8 590.3,281.9 			"/>
                <path class="st7" d="M620.9,554.3l-13,2.4L602,280.8l51.5-42.7l48,57.2l7.7,242.9l-10.4,1.9l-7-226l-76.6-9.1L620.9,554.3z
				 M685.2,292.9L654,257.3l-31.1,26.5L685.2,292.9z"/>
                <polygon class="st7" points="626.5,427 634.7,405.3 645.8,405.4 637.8,427.2 			"/>
                <polygon class="st7" points="645.8,405.4 646.4,426.9 637.8,427.2 			"/>
		</g>
            <polygon class="st9" points="656,324.9 683.6,327.6 685.4,390.7 657.8,390.2 		"/>
            <polygon class="st9" points="654,257.3 685.2,292.9 622.8,283.8 		"/>
            <g>
			<g>
				<polygon class="st8" points="726.3,489.5 719.2,279.8 726.2,279.2 733.5,489.9 				"/>
                <path class="st7" d="M733.5,489.9l-7.3-210.7l28.1,4.8l7.6,202.5L733.5,489.9z M732.2,291.6l6.5,185.7l17.4-1.8l-6.7-181.2
					L732.2,291.6z"/>
			</g>
                <polygon class="st9" points="738.7,477.3 732.2,291.6 749.4,294.3 756.1,475.5 			"/>
		</g>
            <g>
			<g>
				<polygon class="st8" points="494,517.2 491.4,241 499,239.9 501.9,517.9 				"/>
                <path class="st7" d="M501.9,517.9l-2.9-278l48,8.3l4.1,263.8L501.9,517.9z M508.8,256.6l2.8,244.4l30.2-3.1l-3.4-236.6
					L508.8,256.6z"/>
			</g>
                <polygon class="st9" points="511.6,500.9 508.8,256.6 538.3,261.2 541.8,497.8 			"/>
		</g>

            <polygon class="st9" points="346.1,461.8 347.2,272 386.7,266.9 386.4,464.1 		"/>
            <polygon class="st9" points="339.6,273 338.4,461.3 306.8,459.5 308.6,277 		"/>
            <g>
			<polygon class="st7" points="346.1,461.8 338.4,461.3 339.6,273 347.2,272 			"/>
                <polygon class="st8" points="398.3,255.8 398.2,475.4 394,475.6 394.2,255.3 			"/>
                <path class="st7" d="M300.3,469.3l2.1-201.1l91.8-12.9L394,475.6L300.3,469.3z M338.4,461.3l7.7,0.5l40.3,2.3l0.3-197.2
				l-39.5,5.1l-7.6,1l-31,4l-1.8,182.5L338.4,461.3z"/>
		</g>
	</g>
</g>
</svg>
