<?xml version="1.0" encoding="utf-8"?>
<!-- Generator: Adobe Illustrator 25.0.1, SVG Export Plug-In . SVG Version: 6.00 Build 0)  -->
<svg version="1.1" id="katman_1" xmlns="http://www.w3.org/2000/svg" x="0px" y="0px"
     viewBox="0 0 841.9 595.3" style="enable-background:new 0 0 841.9 595.3;" xml:space="preserve">
<style type="text/css">
	.st0{fill:#8F6645;}
	.st1{fill:#EEEEEE;}
	.st2{fill:#DDDDDD;}
	.st3{fill:#3D3A37;}
	.st4{fill:#C4C4C4;}
	.st5{fill:#3D3A37;}
	.st6{fill:#000000;}
	.st7{fill:#FFFFFF;}
	.st8{fill:#888888;}
	.st9{fill:#7884AF;}
</style>

    <g id="chimney">
	<polygon class="st6" points="406,52.2 405.8,75.6 385.4,69.4 385.6,45.6 			"/>
        <polygon class="st5" points="366.9,51.9 385.6,45.6 385.4,69.4 366.7,75 			"/>
        <polygon class="st6" points="414.1,78.1 413.9,134.2 384.3,127.1 384.8,69.3 405.8,75.6 			"/>
        <polygon class="st5" points="358.3,120.7 358.8,77.4 366.7,75 384.8,69.3 384.3,127.1 			"/>
</g>


    <g id="roof">
	<polygon class="st3" points="75.6,231.3 220.1,87.2 442,153.9 441.9,195.7 424.6,189.8 242.5,128.1 219.1,120.2 92.6,239.5
		74.3,258.1 			"/>
        <polygon class="st2" points="242.5,128.1 117.3,241.9 92.6,239.5 219.1,120.2 			"/>
        <polygon class="st3" points="755.1,253.3 676.3,260 676.3,257.1 743.8,251.2 			"/>
        <polygon class="st3" points="743.8,251.2 676.3,257.1 676.1,249.9 716.5,246.2 			"/>
        <polygon class="st3" points="782.2,231.8 783.3,258.4 755.1,253.3 743.8,251.2 716.5,246.2 675.7,238.7 441.9,195.7 442,153.9
						"/>
        <polygon class="st3" points="782.2,231.8 442,153.9 220.1,87.2 358.3,120.7 384.3,127.1 413.9,134.2 572.8,172.8 			"/>
        <polygon class="st2" points="92.6,239.5 117.3,241.9 116.5,261.6 74.3,258.1 			"/>
</g>


    <g id="body">
	<g>
		<polygon class="st4" points="423.4,529.6 107.3,477.3 116.5,261.6 117.3,241.9 242.5,128.1 424.6,189.8 			"/>
        <polygon class="st0" points="423.4,529.6 424.6,189.8 441.9,195.7 675.7,238.7 676.1,249.9 676.3,257.1 676.3,260 679.9,386.7
			680.1,390.6 680.1,391.4 681.7,447 691.4,445.8 765.3,437.1 771.5,436.4 772.8,469.3 			"/>
        <polygon class="st4" points="771.5,436.4 765.3,437.1 763.6,393.6 749.6,394.2 689.9,396.9 690.9,432.2 691.4,445.8 681.7,447
			680.1,391.4 769.5,388.1 			"/>
        <polygon class="st0" points="765.3,437.1 691.4,445.8 690.9,432.2 751.2,435.4 751.2,436.4 			"/>
        <polygon class="st4" points="765.3,437.1 751.2,436.4 751.2,435.4 749.6,394.2 763.6,393.6 			"/>
        <polygon class="st4" points="769.5,388.1 680.1,391.4 680.1,390.6 749.4,388.1 679.9,387 			"/>
        <polygon class="st4" points="679.9,387 749.4,388.1 680.1,390.6 			"/>
	</g>
</g>


    <g id="left-window">
	<polygon class="st9" points="465.5,266.6 541.1,275.6 541.4,308.3 465.5,302.2 			"/>
        <polygon class="st9" points="542.4,399 465.6,401.4 465.5,316.6 541.6,321.4 			"/>
        <g>
		<polygon class="st8" points="450.4,413.8 450.5,254.4 457.2,253.6 457.2,414.1 				"/>
            <path class="st7" d="M457.2,253.6l90.5,12.1l1.7,144.2l-92.2,4.2L457.2,253.6z M541.1,275.6l-75.6-9.1l0,35.6l0,14.4l0.1,84.8
				l76.8-2.4l-0.8-77.5l-0.1-13.2L541.1,275.6z"/>
            <polygon class="st7" points="465.5,316.6 465.5,302.2 541.4,308.3 541.6,321.4 				"/>
	</g>

        <g>
		<g>
			<path class="st7" d="M655.7,283.6l1.2,46.5l-40.5-2.5l-1-49.1L655.7,283.6z M654,286.6l-36.7-4.5l0.9,42.2l36.8,2.4L654,286.6z"
            />
            <polygon class="st8" points="656.9,330 652.6,330.2 612,327.7 616.4,327.5 				"/>
            <polygon class="st8" points="616.4,327.5 612,327.7 611.1,278.8 615.4,278.4 				"/>
		</g>
            <polygon class="st9" points="617.4,282.1 654,286.6 655.1,326.7 618.3,324.2 			"/>
	</g>
</g>


    <g>
	<g>
		<g>
			<g>
				<path class="st7" d="M341.2,471.1l3.6-243.5l46.9-7.7l-2.2,256.6L341.2,471.1z M353.3,239.5l-2.9,218.4l29.6,2.8l2.2-225.6
					L353.3,239.5z"/>
                <polygon class="st8" points="389.5,476.4 391.6,219.8 398.4,220.9 396.4,475.7 				"/>
			</g>
            <polygon class="st9" points="350.3,457.9 353.3,239.5 382.1,235.1 379.9,460.7 			"/>
		</g>
        <g>
			<path class="st8" d="M206.9,384.7l3.1-97l76.4-8.8l-5.1,232.8l-78-13.2l3.4-107.1l4.8,0.1l9.9-0.2l0.6-18.8h-9.9L206.9,384.7z
				 M275.7,294.8l-29.6,2.9l-1.7,60.9l29.7-0.6L275.7,294.8z"/>
            <g>
				<polygon class="st8" points="248.1,217 258.3,218.5 310,257.6 299.6,256.5 				"/>
                <path class="st7" d="M203.2,498.6l-10.4-1.7l7.5-226.5l47.7-53.3l51.4,39.5L294.3,514l-13-2.2l5.1-232.8l-76.4,8.8l-3.1,97
					l-2.9,6.7l2.7,0.1L203.2,498.6z M279.7,259.2l-32.1-24.3l-30.3,33L279.7,259.2z"/>
                <polygon class="st8" points="310,257.6 305.1,512.6 294.3,514 299.6,256.5 				"/>
                <polygon class="st7" points="221.4,391.5 211.5,391.6 212.1,372.6 221.9,372.6 				"/>
                <polygon class="st7" points="212.1,372.6 211.5,391.6 206.7,391.5 204,391.4 206.9,384.7 				"/>
			</g>
            <polygon class="st9" points="246.2,297.7 275.7,294.8 274.3,358 244.5,358.6 			"/>
            <polygon class="st9" points="247.6,234.9 279.7,259.2 217.4,268 			"/>
		</g>
        <g>
			<g>
				<path class="st7" d="M134.5,448l7.6-187l27.4-4.5l-7.3,194.6L134.5,448z M146.9,270.5l-6.7,167.3l17.1,1.6l6.5-171.5
					L146.9,270.5z"/>
                <polygon class="st8" points="162.3,451.1 169.6,256.5 175.9,257.1 168.8,450.7 				"/>
			</g>
            <polygon class="st9" points="140.1,437.8 146.9,270.5 163.7,268 157.2,439.5 			"/>
		</g>
	</g>
</g>
</svg>
