<?xml version="1.0" encoding="utf-8"?>
<!-- Generator: Adobe Illustrator 25.0.1, SVG Export Plug-In . SVG Version: 6.00 Build 0)  -->
<svg version="1.1" id="katman_1" xmlns="http://www.w3.org/2000/svg" x="0px" y="0px"
     viewBox="0 0 841.9 595.3" style="enable-background:new 0 0 841.9 595.3;" xml:space="preserve">
<style type="text/css">
	.st0{fill:#8F6645;}
	.st1{fill:#EEEEEE;}
	.st2{fill:#DDDDDD;}
	.st3{fill:#3D3A37;}
	.st4{fill:#C4C4C4;}
	.st5{fill:#3D3A37;}
	.st6{fill:#000000;}
	.st7{fill:#FFFFFF;}
	.st8{fill:#888888;}
	.st9{fill:#7884AF;}
</style>

    <g id="roof">
	<polygon class="st3" points="615.8,246.2 581.1,218.7 686.5,238.4 		"/>
        <polygon class="st3" points="755.3,252.4 616.1,265.1 615.8,246.2 686.5,238.4 722.3,245.2 746,242.8 		"/>
        <polygon class="st3" points="27.5,223.5 346.9,130.6 346.6,176.3 272.5,193.6 80.3,238.6 26.5,251.2 		"/>
        <polygon class="st3" points="754.5,225 755.3,252.4 746,242.8 736.5,233 638.5,138.9 632.1,132.8 606.4,108.2 602.7,104.6
		599.1,105.7 573.7,112.8 571.5,113.4 564,115.5 538.5,122.6 480.4,138.9 399.5,161.5 373.8,168.7 350.2,175.3 346.6,176.3
		346.9,130.6 396.3,118.9 424.2,112.2 452.4,105.5 602.2,69.8 		"/>
        <polygon class="st3" points="373.8,168.7 399.5,161.5 549,193.2 561.4,195.8 590.3,202 564,115.5 571.5,113.4 573.8,120.6
		600.6,204.1 599.1,105.7 602.7,104.6 606.4,108.2 606.9,138.4 607.9,205.7 632.1,132.8 638.5,138.9 617.1,207.7 736.5,233
		746,242.8 		"/>
        <polygon class="st3" points="606.4,108.2 632.1,132.8 607,138.2 		"/>
        <polygon class="st3" points="564,115.5 590.3,202 561.4,195.8 538.5,122.6 		"/>
        <polygon class="st3" points="632.1,132.8 607.9,205.7 606.9,138.4 		"/>
        <polygon class="st3" points="638.5,138.9 736.5,233 617.1,207.7 		"/>
        <polygon class="st3" points="599.1,105.7 600.6,204.1 573.8,120.6 573.7,112.8 		"/>
        <polygon class="st3" points="538.5,122.6 561.4,195.8 549,193.2 480.4,138.9 		"/>
        <polygon class="st3" points="573.7,112.8 573.8,120.6 571.5,113.4 		"/>
        <polygon class="st3" points="373.8,168.7 746,242.8 722.3,245.2 686.5,238.4 581.1,218.7 350.2,175.3 		"/>
</g>


    <g id="body">
	<polygon class="st4" points="609.6,384.4 618,384.2 787.9,387.5 696.4,391.4 680.1,391 765.1,387.5 		"/>
        <polygon class="st0" points="452.7,552.5 72.9,473.1 80.3,238.6 272.5,193.6 269.6,394.1 268.6,465.4 282.8,467.4 434.9,488.9
			452.6,491.4 		"/>
        <polygon class="st4" points="269.6,394.1 272.5,193.6 346.6,176.3 350.2,175.3 581.1,218.7 615.8,246.2 616.1,265.1 618,384.2
			609.6,384.4 610.3,433.1 605.5,433.6 605,395.4 587.9,394.9 453.7,400.4 287.7,393.6 		"/>
        <polygon class="st4" points="480.4,138.9 549,193.2 399.5,161.5 		"/>
        <polygon class="st4" points="780.6,393.9 782.1,444.4 766.7,443.4 766.7,441.9 765.3,394.8 		"/>
        <polygon class="st2" points="610.3,433.1 609.6,384.4 765.1,387.5 680.1,391 632.3,390.3 623.9,390 624.6,434.1 		"/>
        <polygon class="st4" points="301.2,465.6 282.8,467.4 283.7,402.6 301.9,403.6 301.2,462.3 		"/>
        <polygon class="st4" points="632.3,390.3 633,433.2 624.6,434.1 623.9,390 		"/>
        <polygon class="st4" points="269.6,394.1 287.7,393.6 453.7,400.4 587.9,394.9 605,395.4 452.4,401.9 		"/>
        <polygon class="st4" points="697.9,456.4 681.5,455.1 681.1,436.3 680.2,391.5 696.4,391.4 		"/>
        <polygon class="st4" points="574.6,436.5 471.4,446.2 471.3,410.6 574.2,405 		"/>
        <polygon class="st4" points="434.9,449.7 301.2,462.3 301.9,403.6 434.9,410.7 		"/>
</g>


    <g id="chimney">
	<polygon class="st6" points="424.4,38.1 444.6,45.1 444.6,68.7 424.4,62.2 		"/>
        <polygon class="st5" points="424.4,38.1 424.4,62.2 405,68.7 405.1,45.2 		"/>
        <polygon class="st6" points="452.3,71.2 452.4,105.5 424.2,112.2 424.2,62.1 444.6,68.7 		"/>
        <polygon class="st5" points="424.2,62.1 424.2,112.2 396.3,118.9 396.4,71.6 405,68.7 		"/>
</g>


    <g id="left-window">
	<g>
		<polygon class="st9" points="94.1,284.8 135.3,278.7 134.5,307.2 93.3,311.3 				"/>
        <polygon class="st9" points="132.3,386 91,384.5 93,322 134.2,318.7 				"/>
        <g>
			<path class="st7" d="M90.6,276.6l49.3-8.2L136.5,396L87,393.3L90.6,276.6z M135.3,278.7l-41.2,6.2l-0.8,26.5L93,322l-2,62.5
				l41.3,1.5l1.9-67.3l0.3-11.5L135.3,278.7z"/>
            <polygon class="st8" points="147,269 143.6,395.8 136.5,396 139.9,268.4 					"/>
            <polygon class="st7" points="93,322 93.3,311.3 134.5,307.2 134.2,318.7 					"/>
		</g>
	</g>
        <g>
		<g>
			<polygon class="st8" points="240,311.8 241,256 246.1,256.5 245.1,312 					"/>
            <path class="st7" d="M241,256l-1,55.8l-43.5,3.4l1.2-52.2L241,256z M238.9,260.2l-39.4,6.1l-1,45.1l39.5-3.3L238.9,260.2z"/>
            <polygon class="st6" points="240,311.8 245.1,312 201.5,315.4 196.5,315.2 					"/>
		</g>
            <polygon class="st9" points="199.4,266.3 238.9,260.2 238,308.1 198.5,311.4 				"/>
	</g>
</g>


    <g>
	<g>
		<polygon class="st0" points="592.3,471.5 471.5,488.7 471.4,446.2 574.6,436.5 575,469.7 		"/>
        <polygon class="st0" points="766.7,443.4 782.1,444.4 710,454.7 709.6,438.2 766.7,441.9 		"/>
        <polygon class="st0" points="610.3,433.1 624.6,434.1 633,433.2 681.1,436.3 681.5,455.1 697.9,456.4 606.1,469.5 605.5,433.6
			"/>
        <polygon class="st0" points="434.9,488.9 282.8,467.4 301.2,465.6 301.2,462.3 434.9,449.7 		"/>
	</g>
        <polygon class="st4" points="592.3,471.5 575,469.7 574.6,436.5 574.2,405 591.4,404.1 	"/>
        <g>
		<polygon class="st4" points="653.2,526.9 606.8,520 606.3,482.6 622.4,484.5 622.6,496.9 637.2,498.7 637.4,511.3 653,513.4 		"/>
            <polygon class="st0" points="653,513.4 637.4,511.3 727.9,492.5 734.2,493.2 742.6,494.1 		"/>
            <polygon class="st4" points="637.4,511.3 637.2,498.7 727.6,481.6 727.9,492.5 		"/>
            <polygon class="st0" points="637.2,498.7 622.6,496.9 713.8,480.2 727.6,481.6 		"/>
            <polygon class="st4" points="622.6,496.9 622.4,484.5 713.5,469.3 713.8,480.2 		"/>
            <polygon class="st4" points="653.2,526.9 653,513.4 742.6,494.1 742.9,505.9 		"/>
            <polygon class="st0" points="622.4,484.5 606.3,482.6 698.2,467.9 713.5,469.3 		"/>
	</g>
        <g>
		<g>
			<g>
				<polygon class="st9" points="337.1,308.3 337.6,258.9 369.8,262.3 369.4,310.1 				"/>
                <g>
					<polygon class="st8" points="324.8,250.4 330.7,249.5 329.4,381.2 323.4,381 					"/>
                    <path class="st7" d="M330.7,249.5l75.4,8.5l-0.4,121.9l-76.3,1.2L330.7,249.5z M337.6,258.9l-0.5,49.4l32.3,1.8l0.3-47.8
						L337.6,258.9z M369,372l0.4-55.1l-32.4-1.6l-0.5,56.9L369,372z M373.9,371.9l25.6-0.2l0.4-106.3l-25.4-2.6L373.9,371.9z"/>
				</g>
                <polygon class="st9" points="369.4,316.9 369,372 336.5,372.2 337,315.3 				"/>
                <polygon class="st9" points="399.6,371.8 373.9,371.9 374.6,262.8 400,265.4 				"/>
			</g>
            <g>
				<polygon class="st9" points="454.5,365.8 454.4,282.4 489.2,285.6 489.5,365.8 				"/>
                <g>
					<polygon class="st7" points="523.9,444.2 518.5,444.7 518,368.3 523.3,368.3 					"/>
                    <polygon class="st7" points="524.1,363.7 524.1,368.3 523.3,368.3 518,368.3 515.6,368.3 515.5,363.7 518,363.7 523.3,363.7
											"/>
                    <polygon class="st7" points="522.6,271 523.3,363.7 518,363.7 517.4,278.5 448.7,271.4 448.8,451.4 442.4,452 442.4,261.9
											"/>
                    <polygon class="st8" points="442.4,261.9 442.4,452 435.5,451.3 435.6,262.7 					"/>
                    <path class="st8" d="M448.8,451.4l-0.1-179.9l68.7,7.1l0.6,85.2h-2.4l-6,0l0.1,9.9l3.2,0l2.7,0l0-5.3l2.4,0l0.5,76.4
						L448.8,451.4z M454.4,282.4l0.1,83.4l35,0l-0.3-80.2L454.4,282.4z"/>
                    <polygon class="st7" points="509.6,373.6 509.6,363.7 515.5,363.7 515.5,368.3 512.8,368.3 512.9,373.6 					"/>
                    <polygon class="st8" points="512.9,373.6 512.8,368.3 515.5,368.3 515.6,373.6 					"/>
				</g>
			</g>
            <g>
				<polygon class="st9" points="563.2,320.9 562.8,282.4 582.4,284.5 582.9,322 				"/>
                <g>
					<polygon class="st8" points="552.6,275.7 558.5,275.2 559.6,377.5 553.6,377.4 					"/>
                    <path class="st7" d="M558.5,275.2l46.3,5.2l1.4,96.3l-46.6,0.7L558.5,275.2z M562.8,282.4l0.4,38.4l19.7,1.1l-0.5-37.5
						L562.8,282.4z M583.5,370.4l-0.5-43.1l-19.7-1l0.5,44.2L583.5,370.4z M586.5,370.4l15.8-0.1l-1.2-83.9l-15.7-1.6L586.5,370.4z"
                    />
				</g>
                <polygon class="st9" points="583,327.3 583.5,370.4 563.8,370.6 563.3,326.3 				"/>
                <polygon class="st9" points="602.3,370.3 586.5,370.4 585.4,284.8 601.1,286.4 				"/>
			</g>
		</g>
            <g>
			<polygon class="st4" points="606.8,520 452.7,552.5 452.6,491.4 471.5,488.7 592.3,471.5 591.4,404.1 574.2,405 471.3,410.6
				471.4,446.2 471.5,488.7 452.6,491.4 452.4,401.9 605,395.4 605.5,433.6 606.1,469.5 697.9,456.4 696.4,391.4 787.9,387.5
				789.6,443.3 782.1,444.4 780.6,393.9 765.3,394.8 708.6,397.8 709.6,438.2 710,454.7 782.1,444.4 789.6,443.3 790.8,481.3
				734.2,493.2 727.9,492.5 727.6,481.6 713.8,480.2 713.5,469.3 698.2,467.9 606.3,482.6 			"/>
                <polygon class="st4" points="452.4,401.9 452.6,491.4 434.9,488.9 434.9,449.7 434.9,410.7 301.9,403.6 283.7,402.6 282.8,467.4
				268.6,465.4 269.6,394.1 			"/>
		</g>
	</g>
</g>
</svg>
