<?xml version="1.0" encoding="utf-8"?>
<!-- Generator: Adobe Illustrator 25.0.1, SVG Export Plug-In . SVG Version: 6.00 Build 0)  -->
<svg version="1.1" id="katman_1" xmlns="http://www.w3.org/2000/svg" x="0px" y="0px"
     viewBox="0 0 841.9 595.3" style="enable-background:new 0 0 841.9 595.3;" xml:space="preserve">
<style type="text/css">
	.st0{fill:#8F6645;}
	.st1{fill:#EEEEEE;}
	.st2{fill:#DDDDDD;}
	.st3{fill:#3D3A37;}
	.st4{fill:#C4C4C4;}
	.st5{fill:#3D3A37;}
	.st6{fill:#000000;}
	.st7{fill:#FFFFFF;}
	.st8{fill:#888888;}
	.st9{fill:#7884AF;}
</style>

    <g id="body">
	<polygon class="st0" points="759.6,247 767.1,485.4 359.6,564.5 359.8,503.7 378.2,501.2 538.4,479.6 553.6,477.6 552.6,405.4
	550,207 		"/>
        <polygon class="st4" points="359.8,503.7 359.6,564.5 200.5,529.5 201.1,492.5 113.9,477.6 98.5,479 98.2,489.8 84.2,491.2
			83.9,502.1 78.5,502.6 31.2,492.2 32.4,453.7 40,454.8 104.4,464.7 104.8,449 105.9,407.8 57,404.6 41.5,403.6 40,454.8
			32.4,453.7 34.2,397 115.8,401.4 114.2,466.2 201.3,479.5 201.9,444.1 202.6,406.1 360.2,414.6 		"/>
        <polygon class="st4" points="210.5,251.6 241.7,226.6 456.8,188.5 461.4,190.1 550,207 552.6,405.4 535.2,404.8 360.6,412.8
			220,405.5 216.6,405.6 216.8,393.3 208.2,393 210.2,270.9 		"/>
        <polygon class="st4" points="248.3,124.4 248.3,121.1 249.2,121.4 		"/>
        <polygon class="st4" points="104.4,464.7 40,454.8 55.6,453.8 55.6,452.2 104.8,449 		"/>
        <polygon class="st4" points="537.6,414.1 538.4,479.6 520.7,477.8 520.7,474.2 520.1,415.1 		"/>
        <polygon class="st4" points="272.2,202.2 338.4,149.3 415.7,173.4 		"/>

</g>


    <g id="roof">
	<polygon class="st3" points="210.2,270.9 66,259.3 76.1,249.5 100.3,251.7 139.8,244.7 210.5,251.6 			"/>
        <polygon class="st3" points="210.5,251.6 139.8,244.7 241.7,226.6 			"/>
        <polygon class="st3" points="809.7,228.3 810.7,256.7 759.6,247 550,207 461.4,190.1 461.1,144.7 			"/>
        <polygon class="st3" points="76.1,249.5 66,259.3 66.9,231.5 219.2,76.6 461.1,144.7 461.4,190.1 456.8,188.5 438,181.6
			415.7,173.4 338.4,149.3 282.3,131.8 256.5,123.7 249.2,121.4 248.3,121.1 222.2,113 218.7,111.9 215.1,115.3 189.8,139.7
			183.5,145.8 86.5,239.5 			"/>
        <polygon class="st3" points="461.1,144.7 219.2,76.6 583.4,167.1 809.7,228.3 			"/>
        <polygon class="st3" points="183.5,145.8 189.8,139.7 213.4,214 214.6,144.4 215.1,115.3 218.7,111.9 222.2,113 220.7,212.6
			248.3,124.4 249.2,121.4 256.5,123.7 230.1,210.7 259.6,204.8 272.2,202.2 415.7,173.4 438,181.6 76.1,249.5 86.5,239.5
			203.8,216 			"/>
        <polygon class="st3" points="86.5,239.5 183.5,145.8 203.8,216 			"/>
        <polygon class="st3" points="230.1,210.7 256.5,123.7 282.3,131.8 259.6,204.8 			"/>
        <polygon class="st3" points="213.4,214 189.8,139.7 214.6,144.4 			"/>
        <polygon class="st3" points="189.8,139.7 215.1,115.3 214.6,144.4 			"/>
        <polygon class="st3" points="220.7,212.6 222.2,113 248.3,121.1 248.3,124.4 			"/>
        <polygon class="st3" points="259.6,204.8 282.3,131.8 338.4,149.3 272.2,202.2 			"/>
        <polygon class="st3" points="76.1,249.5 438,181.6 456.8,188.5 241.7,226.6 139.8,244.7 100.3,251.7 			"/>
</g>

    <g id="right-window">
		<g>
			<polygon class="st8" points="585.2,432.5 582,232.7 586.4,232.2 589.7,432.8 				"/>
            <path class="st7" d="M589.7,432.8l-3.3-200.5l68.8,11.2l4.1,183.3L589.7,432.8z M620.9,420.4l5.8-0.4l27.6-2l-3.6-166.3
				l-27.4-4.1l-5.7-0.9l-25.4-3.8l3,179.5L620.9,420.4z"/>
            <polygon class="st7" points="626.7,420 620.9,420.4 617.6,246.6 623.3,247.5 				"/>
		</g>
        <polygon class="st9" points="626.7,420 623.3,247.5 650.7,251.6 654.3,417.9 			"/>
        <polygon class="st9" points="617.6,246.6 620.9,420.4 595.2,422.3 592.2,242.8 			"/>
</g>

    <g id="chimney">
	<polygon class="st6" points="512.5,154 482.8,148.2 481.8,30.7 502.5,37.4 511.3,40.3 			"/>
        <polygon class="st5" points="482.8,148.2 448.9,140.6 448.4,40.2 457.9,37.5 481.8,30.7 			"/>
        <polygon class="st5" points="457.9,38.3 457.7,11.7 481.7,3.4 481.9,30.7 			"/>
        <polygon class="st6" points="481.7,3.4 502.2,11.6 502.5,38.2 481.9,30.7 			"/>
</g>


    <g>
	<g>
		<polygon class="st4" points="55.6,453.8 40,454.8 41.5,403.6 57,404.6 55.6,452.2 		"/>
        <polygon class="st0" points="538.4,479.6 378.2,501.2 378.2,459.7 520.7,474.2 520.7,477.8 		"/>
        <polygon class="st4" points="535.2,404.8 552.6,405.4 360.2,414.6 202.6,406.1 216.6,405.6 220,405.5 360.6,412.8 		"/>
        <polygon class="st4" points="83.9,502.1 84.2,491.2 169.8,508.2 169.5,520.6 		"/>
        <polygon class="st4" points="169.5,520.6 169.8,508.2 184.5,506.5 184.8,494.2 201.1,492.5 200.5,529.5 153.5,536 153.8,522.6
			"/>
        <polygon class="st0" points="201.3,479.5 114.2,466.2 130.8,464.9 131.2,447.2 192.7,443.3 201.2,444.1 201.9,444.1 		"/>
        <polygon class="st4" points="201.2,444.1 192.7,443.3 193.5,399.3 202,399.1 		"/>
        <polygon class="st4" points="130.8,464.9 114.2,466.2 115.8,401.4 132.3,400.9 131.2,447.2 		"/>
        <polygon class="st4" points="216.8,393.3 216.6,405.6 202.6,406.1 201.9,444.1 201.2,444.1 202,399.1 193.5,399.3 132.3,401.1
			57.3,397 		"/>
        <polygon class="st4" points="57.3,397 132.3,400.9 115.8,401.4 34.2,397 208.2,393 216.8,393.3 		"/>
        <polygon class="st4" points="98.2,489.8 98.5,479 184.8,494.2 184.5,506.5 		"/>
        <polygon class="st4" points="153.8,522.6 153.5,536 68.8,515.3 69.2,503.6 		"/>
        <polygon class="st0" points="84.2,491.2 98.2,489.8 184.5,506.5 169.8,508.2 		"/>
        <polygon class="st4" points="520.7,474.2 378.2,459.7 378.3,423.2 520.1,415.1 		"/>
        <polygon class="st0" points="98.5,479 113.9,477.6 201.1,492.5 184.8,494.2 		"/>
        <polygon class="st0" points="169.5,520.6 153.8,522.6 69.2,503.6 78.5,502.6 83.9,502.1 		"/>
        <polygon class="st1" points="342.1,500.9 359.8,503.7 359.6,564.5 200.5,529.5 201.1,492.5 113.9,477.6 98.5,479 98.2,489.8
			84.2,491.2 83.9,502.1 78.5,502.6 31.2,492.2 32.4,453.7 40,454.8 104.4,464.7 104.8,449 105.9,407.8 57,404.6 41.5,403.6
			40,454.8 32.4,453.7 34.2,397 115.8,401.4 114.2,466.2 201.3,479.5 201.9,444.1 202.6,406.1 360.2,414.6 342.1,500.9 		"/>
        <polygon class="st4" points="216.7,481.8 217.8,415 235.3,416.1 234.8,445.1 234.3,480.1 		"/>
        <polygon class="st0" points="342.1,500.9 216.7,481.8 234.3,480.1 234.8,445.1 342.3,456 		"/>
        <polygon class="st4" points="342.3,456 234.8,445.1 235.3,416.1 342.4,423.1 		"/>
	</g>

        <g>
		<g>
			<polygon class="st9" points="426.5,315.9 426.4,267.9 456.6,265 456.9,314.4 			"/>
            <g>
				<path class="st7" d="M420.3,260.1l75.2-7.9l1.2,136l-76.1-1.8L420.3,260.1z M426.4,267.9l0.1,48l30.3-1.5l-0.3-49.4L426.4,267.9
					z M457.2,378.4l-0.3-57l-30.4,1.2l0.1,55.3L457.2,378.4z M462.1,378.5l27.5,0.4l-0.9-117l-27.2,2.6L462.1,378.5z"/>
                <polygon class="st8" points="495.6,252.2 501.9,253 503.2,388 496.7,388.2 				"/>
			</g>
            <polygon class="st9" points="456.9,321.4 457.2,378.4 426.7,378 426.5,322.7 			"/>
            <polygon class="st9" points="489.6,378.9 462.1,378.5 461.5,264.5 488.7,261.9 			"/>
		</g>

            <g>
			<polygon class="st9" points="223.1,325.6 223.7,287.5 242.6,285.6 242.1,324.7 			"/>
                <g>
				<path class="st7" d="M219.9,281.2l46.9-4.9l-1.2,106.5l-47.2-1.1L219.9,281.2z M223.7,287.5l-0.6,38.1l19-0.9l0.5-39.1
					L223.7,287.5z M241.4,375.2l0.6-44.9l-19,0.8l-0.6,43.9L241.4,375.2z M244.5,375.2l16.9,0.3l1.1-91.8l-16.8,1.6L244.5,375.2z"/>
                    <polygon class="st8" points="266.8,276.3 273.1,276.7 272,382.6 265.7,382.7 				"/>
			</g>
                <polygon class="st9" points="242,330.2 241.4,375.2 222.4,374.9 223,331 			"/>
                <polygon class="st9" points="261.4,375.5 244.5,375.2 245.7,285.3 262.5,283.7 			"/>
		</g>

            <g>
			<g>
				<polygon class="st8" points="687.9,423.7 683.6,249.1 687.8,248.7 692.2,423.9 				"/>
                <path class="st7" d="M692.2,423.9l-4.4-175.1l53.2,8.6l4.8,161.9L692.2,423.9z M715.9,413.3l4.5-0.3l21.4-1.6l-4.3-146.7
					l-21.2-3.2l-4.4-0.7l-19.5-2.9l4,156.9L715.9,413.3z"/>
                <polygon class="st7" points="720.4,413 715.9,413.3 711.8,260.8 716.2,261.5 				"/>
			</g>
                <polygon class="st9" points="720.4,413 716.2,261.5 737.5,264.7 741.8,411.4 			"/>
                <polygon class="st9" points="711.8,260.8 715.9,413.3 696.3,414.8 692.3,257.9 			"/>
		</g>

            <path class="st0" d="M354.8,369.1l4.5,0L354.8,369.1z"/>

            <g>
			<polygon class="st9" points="302.6,370.8 303.2,290.6 335.5,287.9 335.1,371.1 			"/>
                <g>
				<polygon class="st7" points="361.4,369.2 361.4,374.2 359.5,374.2 359.5,369.2 				"/>
                    <polygon class="st7" points="359.5,369.2 359.5,374.2 355.8,374.2 352.8,374.1 349.8,374.1 349.9,369.1 				"/>
                    <polygon class="st7" points="361.4,369.2 359.5,369.2 349.9,369.1 356.2,369.1 359.3,369.1 354.8,369.1 359.3,369.1 				"/>
                    <polygon class="st7" points="359.3,374.2 359.2,379.8 355.8,379.9 355.8,374.2 				"/>
                    <polygon class="st7" points="352.7,379.8 352.8,374.1 355.8,374.2 355.8,379.9 				"/>
                    <polygon class="st7" points="379,458.8 371.7,459.5 372.1,265 379.3,265.7 				"/>
                    <polygon class="st7" points="371.7,459.5 365.4,458.9 365.9,274.7 298.4,281.1 297,451.8 291.7,451.2 293.2,273.3 372.1,265
									"/>
                    <path class="st8" d="M297,451.8l1.4-170.7l67.5-6.5l-0.5,184.2L297,451.8z M303.2,290.6l-0.6,80.1l32.5,0.3l0.4-83.1
					L303.2,290.6z M361.4,374.2l0-5l-2.1,0l-3-0.1l-6.4,0l0,5l2.9,0l0,5.7l3,0.1l3.5-0.1l0-5.6L361.4,374.2z"/>
			</g>
		</g>
	</g>
        <polygon class="st4" points="378.2,501.1 359.9,503.5 360.3,414.5 552.7,405.3 553.7,477.5 538.4,479.5 537.7,414 520.1,415
		378.4,423.1 378.3,459.6 	"/>
        <polygon class="st4" points="217.9,414.9 216.8,481.7 342.1,500.8 359.9,503.5 359.7,564.4 200.6,529.3 201.2,492.3 114,477.5
		98.5,478.9 98.3,489.7 84.3,491.1 84,501.9 78.6,502.5 31.2,492.1 32.5,453.6 40,454.7 104.5,464.6 104.9,448.8 106,407.7 
		57.1,404.5 41.6,403.5 40,454.7 32.5,453.6 34.3,396.9 115.9,401.3 114.3,466.1 201.4,479.4 202,444 202.7,406 360.3,414.5 
		359.9,503.5 342.1,500.8 342.4,455.9 342.5,422.9 235.3,416 	"/>
</g>
</svg>
