<?xml version="1.0" encoding="utf-8"?>
<!-- Generator: Adobe Illustrator 25.0.1, SVG Export Plug-In . SVG Version: 6.00 Build 0)  -->
<svg version="1.1" id="katman_1" xmlns="http://www.w3.org/2000/svg" x="0px" y="0px"
     viewBox="0 0 841.9 595.3" style="enable-background:new 0 0 841.9 595.3;" xml:space="preserve">
<style type="text/css">
	.st0{fill:#8F6645;}
	.st1{fill:#EEEEEE;}
	.st2{fill:#DDDDDD;}
	.st3{fill:#3D3A37;}
	.st4{fill:#C4C4C4;}
	.st5{fill:#3D3A37;}
	.st6{fill:#000000;}
	.st7{fill:#FFFFFF;}
	.st8{fill:#888888;}
	.st9{fill:#7884AF;}
</style>
    <g id="roof">
	<g>
		<polygon class="st1" points="767.8,360.6 763.8,365.8 753.2,360.5 665.9,317.9 558.7,360 531.7,370.6 531.6,359.9 665.7,304.6
			"/>
        <polygon class="st3" points="665.7,304.6 531.6,359.9 353.4,360.4 488.5,313.1 578.3,308.8 		"/>
        <polygon class="st1" points="531.6,359.9 531.7,370.6 380,369.5 353.3,369.3 353.4,360.4 		"/>
        <polygon class="st2" points="753.2,360.5 763.8,365.8 753.3,365.7 		"/>
	</g>

        <g>
		<polygon class="st2" points="577.7,249.2 320,219 311.7,218 332.4,214.5 610.4,248.5 589.2,250.6 		"/>
            <polygon class="st1" points="332.4,214.5 311.7,218 312,193.3 215.4,104.7 209.9,99.6 126,228.7 125.5,249.6 111.8,251.9
			112.6,222.5 210.5,64.7 332.8,175.3 		"/>
            <polygon class="st2" points="125.5,249.6 126,228.7 133.5,229.4 133,250.2 		"/>
            <polygon class="st2" points="133.5,229.4 126,228.7 209.9,99.6 215.4,104.7 		"/>
            <polygon class="st2" points="125.5,249.6 133,250.2 132.9,253.6 111.8,251.9 		"/>
            <polygon class="st1" points="332.4,214.5 332.8,175.3 610,218.2 610.4,248.5 		"/>
            <polygon class="st3" points="332.8,175.3 210.5,64.7 478.7,124.6 610,218.2 		"/>
	</g>
</g>


    <g id="body">
	<polygon class="st0" points="560.4,581.2 378.9,545.2 380,369.5 531.7,370.6 558.7,360 		"/>
        <polygon class="st0" points="560.4,581.2 558.7,360 665.9,317.9 753.2,360.5 753.3,365.7 757.2,537.6 		"/>
        <polygon class="st0" points="380,369.5 378.9,545.2 316.3,555 320,219 577.7,249.2 578.3,308.8 488.5,313.1 353.4,360.4
		353.3,369.3 		"/>
        <polygon class="st4" points="133.5,229.4 215.4,104.7 312,193.3 311.7,218 320,219 316.3,555 126.3,512.5 132.9,253.6 133,250.2
				"/>
</g>


    <g id="chimney">
	<path class="st5" d="M442.6,12.9v167.4l-27.1-3.7l0.5-172.5L442.6,12.9z M439.2,81.3l0-53l-5.1-1.6l-14.3-4.5l-0.1,27.6l0,9.4
		l0,17.2l18.3,4.6L439.2,81.3z"/>
        <path class="st6" d="M415.9,4.1l-0.5,172.5l-37-25.5l0.5-85.4L415.9,4.1z M383.9,69.3l-0.1,13.3l21.8-6.4l4.8-1.4l1-0.3l0-2.2
			l0-9.3l0.1-43.5l-26.5,47.6L383.9,69.3z"/>
        <polygon class="st5" points="405.7,76.2 405.7,72.4 411.4,63.1 411.4,72.4 410.4,74 410.4,74.9 			"/>
        <polygon class="st5" points="405.7,72.4 405.7,76.2 383.8,82.6 383.9,69.3 385.1,67.2 			"/>
        <polygon class="st5" points="411.4,63.1 405.7,72.4 385.1,67.2 411.6,19.6 			"/>
        <polygon class="st5" points="419.7,49.8 434.1,26.6 439.2,28.2 439.2,81.3 437.9,80.9 437.9,29.9 419.7,59.2 			"/>
        <polygon class="st5" points="434.1,26.6 419.7,49.8 419.8,22.2 			"/>
</g>


    <g id="left-window">
	<g>
		<g>
			<polygon class="st8" points="351.9,333.5 352.8,234.1 357.3,233.4 356.4,333.4 				"/>
            <polygon class="st8" points="416.8,335.1 351.9,333.5 356.4,333.4 421.4,335 				"/>
            <path class="st7" d="M356.4,333.4l0.8-100l64.4,7.2l-0.3,94.4L356.4,333.4z M415.5,326.9l0.1-35.9l-30.4-2l0.3-44.4l-21.8-2.3
				l-0.6,82.9L415.5,326.9z M415.8,247.8l-25.4-2.7l-0.2,36.6l25.5,1.8L415.8,247.8z"/>
		</g>
        <polygon class="st9" points="415.6,291 415.5,326.9 363.1,325.2 363.7,242.3 385.5,244.6 385.3,289 			"/>
        <polygon class="st9" points="390.4,245.1 415.8,247.8 415.7,283.5 390.2,281.7 			"/>
	</g>
</g>


    <g>
	<g>
		<g>
			<g>
				<polygon class="st8" points="296.6,334.2 227.4,336.6 222.7,336.5 291.8,334.1 				"/>
                <polygon class="st8" points="298,228.1 296.6,334.2 291.8,334.1 293.2,227.6 				"/>
                <path class="st7" d="M224.6,239.1l68.7-11.5l-1.4,106.6l-69.1,2.4L224.6,239.1z M248.1,328.1l39.3-1.8l1.2-90.3l-39.1,6.2
					L248.1,328.1z M242.3,328.4l1.5-85.2l-15.6,2.5l-1.6,83.5L242.3,328.4z"/>
			</g>
            <polygon class="st9" points="287.4,326.4 248.1,328.1 249.5,242.2 288.6,236.1 			"/>
            <polygon class="st9" points="243.8,243.1 242.3,328.4 226.7,329.1 228.2,245.6 			"/>
		</g>
        <polygon class="st9" points="225.3,384.2 294.5,386.3 289.7,386.4 220.6,384.3 		"/>
        <g>
			<g>
				<polygon class="st8" points="294.5,386.3 293.1,495 288.2,495.5 289.7,386.4 				"/>
                <path class="st7" d="M220.6,384.3l69.1,2.1l-1.5,109.1l-69.5-11.6L220.6,384.3z M244.2,480.5l39.5,6.2l1.3-92.5l-39.3-1.6
					L244.2,480.5z M238.4,479.6l1.5-87.2l-15.6-0.6l-1.6,85.4L238.4,479.6z"/>
			</g>
            <polygon class="st9" points="283.8,486.7 244.2,480.5 245.7,392.6 285.1,394.2 			"/>
            <polygon class="st9" points="239.9,392.4 238.4,479.6 222.7,477.1 224.3,391.7 			"/>
		</g>
        <polygon class="st4" points="209.9,337.2 154.3,339.1 149.8,339 205.3,337.1 		"/>
        <g>
			<g>
				<polygon class="st8" points="211.8,242.4 209.9,337.2 205.3,337.1 207.2,242 				"/>
                <path class="st7" d="M152,251.2l55.2-9.3l-1.9,95.2l-55.5,1.9L152,251.2z M170.3,331.6l31.5-1.4l1.7-80.7l-31.4,4.9L170.3,331.6
					z M165.7,331.8l1.8-76.6l-12.6,2l-1.9,75.2L165.7,331.8z"/>
			</g>
            <polygon class="st9" points="201.8,330.2 170.3,331.6 172.1,254.5 203.5,249.5 			"/>
            <polygon class="st9" points="167.5,255.2 165.7,331.8 153.1,332.4 154.9,257.2 			"/>
		</g>
        <g>
			<g>
				<polygon class="st8" points="228.8,132.8 291.9,195.2 286.4,194.5 223.6,131.8 				"/>
                <polygon class="st8" points="228.8,132.8 223.6,131.8 223.8,119.7 229.1,120.7 				"/>
                <path class="st7" d="M223.6,131.8l62.8,62.6L222.1,208l-0.1,5l-70.2,14.3l72-107.6L223.6,131.8z M216.8,203.7l1.2-63.6
					l-50.2,74.2L216.8,203.7z M223.5,138.5l-1.2,64.1l53.3-11.6L223.5,138.5z"/>
                <polygon class="st8" points="286.4,194.5 291.9,195.2 227.4,208.6 222.1,208 				"/>
                <polygon class="st8" points="222,213 222.1,208 227.4,208.6 227.3,213.6 				"/>
                <polygon class="st8" points="151.8,227.3 222,213 227.3,213.6 156.9,227.8 				"/>
			</g>
            <polygon class="st9" points="218,140.2 216.8,203.7 167.9,214.4 			"/>
            <polygon class="st9" points="222.3,202.5 223.5,138.5 275.6,190.9 			"/>
		</g>
        <polygon class="st4" points="152.3,382 207.9,383.7 203.2,383.8 147.8,382.1 		"/>
        <g>
			<g>
				<polygon class="st8" points="207.9,383.7 205.9,480.5 201.2,481 203.2,383.8 				"/>
                <path class="st7" d="M147.8,382.1l55.4,1.7l-2,97.2l-55.7-9.3L147.8,382.1z M166.2,468.2l31.6,5l1.7-82.4l-31.5-1.3L166.2,468.2
					z M161.5,467.5l1.9-78.2l-12.6-0.5l-1.9,76.7L161.5,467.5z"/>
			</g>
            <polygon class="st9" points="197.8,473.2 166.2,468.2 168,389.5 199.5,390.7 			"/>
            <polygon class="st9" points="163.3,389.3 161.5,467.5 148.8,465.5 150.7,388.7 			"/>
		</g>
	</g>
</g>
</svg>
