<?xml version="1.0" encoding="utf-8"?>
<!-- Generator: Adobe Illustrator 25.0.1, SVG Export Plug-In . SVG Version: 6.00 Build 0)  -->
<svg version="1.1" id="katman_1" xmlns="http://www.w3.org/2000/svg" x="0px" y="0px"
     viewBox="0 0 841.9 595.3" style="enable-background:new 0 0 841.9 595.3;" xml:space="preserve">
<style type="text/css">
	.st0{fill:#8F6645;}
	.st1{fill:#EEEEEE;}
	.st2{fill:#DDDDDD;}
	.st3{fill:#3D3A37;}
	.st4{fill:#C4C4C4;}
	.st5{fill:#3D3A37;}
	.st6{fill:#000000;}
	.st7{fill:#FFFFFF;}
	.st8{fill:#888888;}
	.st9{fill:#7884AF;}
</style>

    <g id="roof">
	<polygon class="st1" points="160.5,250.4 160.5,220.1 385.7,186.7 385.7,228.4 			"/>
        <polygon class="st3" points="385.7,186.7 160.5,220.1 313,121.6 463.8,84.1 492.7,76.9 505.5,73.7 514.3,71.5 518.7,70.4
			548.7,62.9 			"/>
        <polygon class="st2" points="160.5,250.4 385.7,228.4 416.1,230.9 408.9,231.5 196.9,250.9 187.9,251.7 			"/>
        <polygon class="st1" points="416.1,230.9 385.7,228.4 385.7,186.7 548.7,62.9 663.9,221.1 663.9,251.1 649.2,249.9 649.2,230.1
			548.7,99.8 543.5,103.8 416.1,202.8 			"/>
        <polygon class="st2" points="642.2,230.6 543.5,103.8 548.7,99.8 649.2,230.1 			"/>
        <polygon class="st2" points="642.2,230.6 649.2,230.1 649.2,249.9 642.3,250.2 			"/>
        <polygon class="st2" points="642.3,250.2 649.2,249.9 663.9,251.1 642.3,252.2 			"/>

        <g>
		<polygon class="st3" points="642.3,330.9 708.9,353.8 642.3,358.3 			"/>
            <polygon class="st2" points="708.9,353.8 708.9,359.9 687.7,361.5 642.3,365 642.3,358.3 			"/>
	</g>

</g>


    <g id="body">
	<polygon class="st0" points="196.7,500.7 196.8,354.1 196.9,250.9 408.9,231.5 408.9,575.8 196.7,509.1 			"/>
        <polygon class="st4" points="408.9,231.5 416.1,230.9 416.1,202.8 543.5,103.8 642.2,230.6 642.3,250.2 642.3,252.2 642.3,330.9
			642.3,358.3 642.3,365 642.4,489.2 642.4,511.3 408.9,575.8 			"/>
        <polygon class="st0" points="687.8,478 642.4,489.2 642.3,365 687.7,361.5 			"/>
</g>


    <g id="right-window">
	<g>
		<polygon class="st8" points="370.5,251.7 370.5,362.8 366.1,363 366.2,251.4 				"/>
        <path class="st7" d="M366.1,363l-150.4-8l0.1-90.7l150.4-13L366.1,363z M251.9,268.6l0,32.5l25.9-0.7l0-33.8L251.9,268.6z
			 M318.9,352.4l0-34.5l-29.5,0.1l0,33.1L318.9,352.4z M277.7,350.7l0-32.6l-25.9,0.1l0,31.4L277.7,350.7z M219.4,271l0,31
			l23.1-0.6l0-32.1L219.4,271z M360.7,354.2l0-36.4l-30.3,0.1l0,35L360.7,354.2z M330.4,262.6l0,36.3l30.3-0.9l0-37.7L330.4,262.6
			z M289.4,265.7l0,34.3l29.5-0.8l0-35.7L289.4,265.7z M242.5,349.2l0-31l-23.1,0.1l0,29.9L242.5,349.2z"/>
	</g>
        <polygon class="st9" points="251.8,301.1 251.9,268.6 277.8,266.6 277.8,300.4 			"/>
        <polygon class="st9" points="318.9,317.9 318.9,352.4 289.4,351.2 289.4,318 			"/>
        <polygon class="st9" points="277.7,318.1 277.7,350.7 251.8,349.6 251.8,318.2 			"/>
        <polygon class="st9" points="219.4,302 219.4,271 242.5,269.3 242.5,301.4 			"/>
        <polygon class="st9" points="360.7,317.8 360.7,354.2 330.4,352.9 330.4,317.9 			"/>
        <polygon class="st9" points="330.4,298.9 330.4,262.6 360.7,260.4 360.7,298 			"/>
        <polygon class="st9" points="289.4,300.1 289.4,265.7 318.9,263.5 318.9,299.2 			"/>
        <polygon class="st9" points="242.5,318.2 242.5,349.2 219.4,348.2 219.4,318.3 			"/>
</g>


    <g id="chimney">
	<polygon class="st6" points="463.8,84.1 489.9,57.1 518.7,49.2 492.7,76.9 			"/>
        <polygon class="st5" points="518.7,49.2 518.7,70.4 514.3,71.5 514.3,68.6 514.3,63 508.5,70 505.5,73.7 492.7,76.9 			"/>
        <polygon class="st6" points="514.3,63 514.3,68.6 508.5,70 			"/>
</g>


    <g>
	<g>
		<g>
			<polygon class="st0" points="142.4,484.4 133,481.5 142.4,480.2 			"/>
            <polygon class="st4" points="142.4,484.4 147.6,485.9 190.7,498.9 196.7,500.7 196.7,509.1 133,489 133,481.5 			"/>
            <polygon class="st0" points="147.6,485.9 164.2,483.5 164.2,477.2 190.7,473.5 190.7,498.9 			"/>
		</g>
        <g>
			<polygon class="st8" points="133,379.5 196.8,354.1 196.7,500.7 190.7,498.9 190.7,473.5 190.7,386.6 175.9,384.8 164.3,383.4
				147.7,381.3 147.6,485.9 142.4,484.4 142.4,480.2 142.5,386.9 133,385.6 			"/>
            <polygon class="st4" points="147.6,485.9 147.7,381.3 164.3,383.4 164.3,385.5 164.2,477.2 164.2,483.5 			"/>
            <polygon class="st4" points="175.9,384.8 164.3,385.5 164.3,383.4 			"/>
		</g>
	</g>
        <g>
		<g>
			<g>
				<polygon class="st8" points="370.5,414.8 370.5,526 366.1,526.9 366.1,415.2 				"/>
                <polygon class="st7" points="219.8,397.1 370.5,414.8 366.1,415.2 215.7,397.4 				"/>
                <path class="st7" d="M366.1,526.9l-150.5-38.8l0.1-90.7l150.5,17.8L366.1,526.9z M251.8,409l0,32.6l25.9,4.6l0-33.8L251.8,409z
					 M318.8,506.6l0-34.5l-29.5-5.9l0,33.2L318.8,506.6z M277.7,496.5l0-32.6l-25.9-5.2l0,31.4L277.7,496.5z M219.3,404.8l0,31
					l23.1,4.1l0-32.1L219.3,404.8z M360.6,517l0-36.4l-30.3-6.1l0,35L360.6,517z M330.3,419.1l0,36.3l30.3,5.4l0-37.7L330.3,419.1z
					 M289.3,413.8l0,34.3l29.5,5.2l0-35.7L289.3,413.8z M242.4,487.8l0-31l-23.1-4.6l0,30L242.4,487.8z"/>
			</g>
            <polygon class="st9" points="251.8,441.6 251.8,409 277.7,412.3 277.7,446.1 			"/>
            <polygon class="st9" points="318.8,472.1 318.8,506.6 289.3,499.3 289.3,466.2 			"/>
            <polygon class="st9" points="277.7,463.8 277.7,496.5 251.7,490.1 251.7,458.6 			"/>
            <polygon class="st9" points="219.3,435.8 219.3,404.8 242.4,407.8 242.4,439.9 			"/>
            <polygon class="st9" points="360.7,480.5 360.6,517 330.3,509.5 330.3,474.4 			"/>
            <polygon class="st9" points="330.3,455.4 330.3,419.1 360.7,423 360.7,460.8 			"/>
            <polygon class="st9" points="289.3,448.2 289.3,413.8 318.9,417.7 318.8,453.4 			"/>
            <polygon class="st9" points="242.4,456.7 242.4,487.8 219.3,482 219.3,452.1 			"/>
		</g>

            <g>
			<g>
				<polygon class="st8" points="551.2,355.7 551.2,255.3 555.5,255 555.5,355.8 				"/>
                <path class="st7" d="M555.5,255l70.7,5.7l0.1,92.1l-70.7,3.1L555.5,255z M584.4,347.4l38-1.3l-0.1-78.9l-38-2.7L584.4,347.4z
					 M578.1,347.6l0-83.6l-18-1.3l0,85.5L578.1,347.6z"/>
			</g>
                <polygon class="st9" points="622.4,346.1 584.4,347.4 584.3,264.5 622.3,267.2 			"/>
                <polygon class="st9" points="578.1,264 578.1,347.6 560.2,348.2 560.1,262.8 			"/>
		</g>
            <g>
			<g>
				<polygon class="st8" points="549.8,404.5 620.9,397.3 625.1,397.6 554.1,404.9 				"/>
                <polygon class="st8" points="549.8,505.2 549.8,404.5 554.1,404.9 554.1,506 				"/>
                <path class="st7" d="M554.1,404.9l71-7.3l0.1,92.4l-71,16.1L554.1,404.9z M583.1,492.3l38.1-8.3l-0.1-79.1l-38.1,4.3
					L583.1,492.3z M576.8,493.6l0-83.8l-18,2l0,85.7L576.8,493.6z"/>
			</g>
                <polygon class="st9" points="621.2,484 583.1,492.3 583.1,409.1 621.2,404.8 			"/>
                <polygon class="st9" points="576.8,409.8 576.8,493.6 558.8,497.6 558.8,411.9 			"/>
		</g>
            <g>
			<g>
				<polygon class="st8" points="438.1,360.5 438.1,246.3 442.4,245.9 442.4,360.7 				"/>
                <path class="st7" d="M442.4,245.9l90.6,7.3l0,103.6l-90.6,3.9L442.4,245.9z M479.7,351l48.4-1.7l0-88.8l-48.4-3.4L479.7,351z
					 M471.6,351.3l0-94.8l-23.2-1.6l0,97.2L471.6,351.3z"/>
			</g>
                <polygon class="st9" points="528.1,349.3 479.7,351 479.6,257 528,260.5 			"/>
                <polygon class="st9" points="471.6,256.5 471.6,351.3 448.4,352.1 448.4,254.8 			"/>
		</g>
            <g>
			<g>
				<path class="st7" d="M553.1,140.8l67.9,89l-67.9-8.2v1.1v4.1l-110.3-12.6l110.3-86.5V140.8z M546.2,215l0-68.5l-73.9,59.1
					L546.2,215z M553.2,148l0,68l57.8,7.4L553.2,148z"/>
                <polygon class="st8" points="621,229.9 616.2,230.3 553.2,222.8 553.2,221.7 				"/>
                <polygon class="st8" points="553.1,127.8 442.8,214.3 437.9,214.9 548.2,128.8 				"/>
                <polygon class="st8" points="442.8,214.3 553.2,226.9 548.2,227.4 437.9,214.9 				"/>
			</g>
                <polygon class="st9" points="546.2,146.5 546.2,215 472.3,205.6 			"/>
                <polygon class="st9" points="553.2,215.9 553.2,148 611.1,223.3 			"/>
		</g>
            <g>
			<g>
				<polygon class="st8" points="436.2,416.2 527.2,406.9 531.5,407.2 440.6,416.6 				"/>
                <polygon class="st8" points="436.2,530.8 436.2,416.2 440.6,416.6 440.6,531.8 				"/>
                <path class="st7" d="M440.6,416.6l91-9.4l0,103.9l-91,20.6L440.6,416.6z M478,515.2l48.6-10.6l0-89.1l-48.6,5.5L478,515.2z
					 M469.9,516.9l0-95.1l-23.3,2.6l0,97.5L469.9,516.9z"/>
			</g>
                <polygon class="st9" points="526.6,504.6 478,515.2 477.9,420.9 526.6,415.5 			"/>
                <polygon class="st9" points="469.9,421.8 469.9,516.9 446.6,522 446.6,424.5 			"/>
		</g>
	</g>
</g>
</svg>
