<?xml version="1.0" encoding="utf-8"?>
<!-- Generator: Adobe Illustrator 25.0.1, SVG Export Plug-In . SVG Version: 6.00 Build 0)  -->
<svg version="1.1" id="katman_1" xmlns="http://www.w3.org/2000/svg" x="0px" y="0px"
     viewBox="0 0 841.9 595.3" style="enable-background:new 0 0 841.9 595.3;" xml:space="preserve">
<style type="text/css">
	.st0{fill:#8F6645;}
	.st1{fill:#EEEEEE;}
	.st2{fill:#DDDDDD;}
	.st3{fill:#3D3A37;}
	.st4{fill:#C4C4C4;}
	.st5{fill:#3D3A37;}
	.st6{fill:#000000;}
	.st7{fill:#FFFFFF;}
	.st8{fill:#888888;}
	.st9{fill:#7884AF;}
</style>

    <g id="body">
	<polygon class="st4" points="563.1,117.2 652.4,236.7 652.9,256 653,260.7 655.2,352.5 444.4,339.7 444.4,215.8 459.8,212.8
		459.7,189.5 		"/>
        <polygon class="st0" points="444.4,215.8 444.4,339.7 348.5,306.9 238.6,297.4 239.6,256.5 		"/>
        <polygon class="st0" points="237.4,562.2 77,524.5 83.8,360.3 84.2,350.9 154.8,303.3 242.6,337.7 		"/>
        <polygon class="st4" points="256.5,559.5 237.4,562.2 242.6,337.7 256.7,343.3 444.4,352.2 444.4,521.7 444.4,524.4 440,500.2
		437.1,500.4 437.1,468.9 442.5,468.5 438.7,438.6 437.1,438.2 437.2,410.1 441.2,410 433.6,365 260.7,359.2 		"/>
        <polygon class="st4" points="465.2,380.7 544.4,382.1 545.8,508.2 465.6,518.9 		"/>
        <polygon class="st4" points="648.2,494.6 569.3,505.1 567.6,387.9 645.8,388.7 		"/>
</g>


    <g id="roof">
	<polygon class="st2" points="652.4,236.7 563.1,117.2 574.9,109 667.1,234.6 		"/>
        <polygon class="st2" points="444.4,215.8 239.6,256.5 235.6,257.2 213.7,254.6 436.5,208.2 459.8,212.8 		"/>
        <polygon class="st1" points="436.5,208.2 213.7,254.6 214.5,226.6 436.5,171.3 		"/>
        <polygon class="st3" points="436.5,171.3 214.5,226.6 350.8,145.2 574.4,76.5 		"/>
        <polygon class="st1" points="682.7,257.2 653,260.7 652.9,256 667.6,254.1 		"/>
        <polygon class="st2" points="652.9,256 652.4,236.7 667.1,234.6 667.6,254.1 		"/>
        <polygon class="st1" points="459.8,212.8 436.5,208.2 436.5,171.3 574.4,76.5 682,229.7 682.7,257.2 667.6,254.1 667.1,234.6
		574.9,109 563.1,117.2 459.7,189.5 		"/>
</g>


    <g id="left-window">
	<g>
		<polygon class="st8" points="300.4,255.8 299,337.6 294,337.3 295.4,255.1 		"/>
        <path class="st7" d="M254.4,340.6l1.8-77.9l39.3-7.6l-1.5,82.2L254.4,340.6z M290.1,330.8l0.6-30.9l-19.2,2.6l0.7-36.3l-12.6,2.3
		l-1.4,65.3L290.1,330.8z M291.3,262.6l-16.2,3l-0.6,30.1l16.3-2.3L291.3,262.6z"/>
	</g>
        <g>
		<polygon class="st9" points="290.7,299.8 290.1,330.8 258.1,333.7 259.6,268.4 272.2,266.1 271.4,302.4 		"/>
            <polygon class="st9" points="275.1,265.6 291.3,262.6 290.8,293.4 274.5,295.7 		"/>
	</g>
</g>


    <g id="chimney">
	<path class="st5" d="M375,18.9l-1.7,165.5l-25.8,5L349.7,29L375,18.9z M353,43.3l-0.7,50.7l2-0.6l16.6-5.2l0.2-22.3l0.1-9.2
		l0.2-20.3L359.1,41L353,43.3z"/>
        <path class="st6" d="M373.3,184.3L375,18.9l45.9,60.8l-0.3,81.9L373.3,184.3z M415,80.9l-34.2-45l-0.3,32.5l-0.1,10.1L380.2,90
		l8.9,2.3l6.2,1.6l19.6,5.1l0.1-17.4L415,80.9z"/>
        <polygon class="st5" points="380.4,68.4 395.3,87.5 395.2,93.8 389.1,92.3 389.1,90.6 380.3,78.5 		"/>
        <polygon class="st5" points="395.2,93.8 395.3,87.5 415,81.5 414.9,98.9 		"/>
        <polygon class="st5" points="359.1,41 371.2,56.6 371.1,65.8 355,43.5 354.3,93.3 352.3,93.9 353,43.3 		"/>
</g>


    <g>
	<polygon class="st0" points="783.9,389.8 761.1,389.9 751.4,389.8 739.6,389.7 666.1,388.9 655.8,388.8 645.8,388.7 567.6,387.9
		557.3,387.7 582.8,387.5 	"/>
        <g>
		<polygon class="st4" points="444.4,524.4 444.4,521.7 455,523.2 546.1,535.7 559.3,537.5 584.8,541 585,553.2 445.9,532.5 		"/>
            <polygon class="st4" points="788.3,513.4 585,553.2 584.8,541 788,504.3 		"/>
            <polygon class="st0" points="584.8,541 559.3,537.5 569.7,535.7 569.3,505.1 648.2,494.6 658.4,495.5 668.8,494.1 743.3,500.5
			743.4,502.9 755.4,504 765.1,502.3 788,504.3 		"/>
            <polygon class="st0" points="455,523.2 465.6,521.8 465.6,518.9 545.8,508.2 546.1,535.7 		"/>
	</g>

        <polygon class="st3" points="440,500.2 263.6,519.6 260.8,519.7 437.1,500.4 	"/>
        <g>
		<polygon class="st3" points="256.5,559.5 260.7,359.2 266.9,412.5 263,412.4 262.3,445.9 263.8,446.4 266.7,481.9 261.6,480.9
			260.8,519.7 263.6,519.6 269.3,564.9 		"/>
            <polygon class="st8" points="266.9,412.5 260.7,359.2 433.6,365 441.2,410 437.2,410.1 		"/>
            <polygon class="st8" points="263,412.4 266.9,412.5 437.2,410.1 437.1,438.2 262.3,445.9 		"/>
            <polygon class="st8" points="266.7,481.9 263.8,446.4 438.7,438.6 442.5,468.5 437.1,468.9 		"/>
            <polygon class="st8" points="261.6,480.9 266.7,481.9 437.1,468.9 437.1,500.4 260.8,519.7 		"/>
            <polygon class="st8" points="269.3,564.9 263.6,519.6 440,500.2 444.4,524.4 445.9,532.5 446.9,538.1 		"/>
            <polygon class="st4" points="438.7,438.6 263.8,446.4 262.3,445.9 437.1,438.2 		"/>
	</g>


        <g>
		<polygon class="st8" points="563,444.4 544.9,445.4 544.4,400 562.4,400 		"/>
            <polygon class="st9" points="586.1,400 586.8,443 568.5,444.1 567.9,400 		"/>
            <polygon class="st9" points="545.6,506.7 545,457.1 587,454.2 587.7,501.2 		"/>
            <g>
			<path class="st8" d="M591.9,504.3l-50.1,6.7l-1.3-122.4l49.5,0.6L591.9,504.3z M544.9,445.4l18.1-1l-0.6-44.4l-18,0L544.9,445.4z
				 M586.8,443l-0.7-43.1l-18.2,0l0.6,44.1L586.8,443z M545,457.1l0.5,49.5l42.2-5.5l-0.8-47L545,457.1z M547.8,449.5l0,4.4l3,0.2
				l4.3-0.3l-0.1-4.4l-3-0.2L547.8,449.5z"/>
                <polygon class="st7" points="540.4,388.7 541.8,511 538.2,510.6 536.9,388.7 			"/>
                <polygon class="st7" points="547.9,453.9 547.8,449.5 550.8,449.6 550.9,454 			"/>
                <polygon class="st8" points="547.8,449.5 552.1,449.2 555.1,449.3 550.8,449.6 			"/>
                <polygon class="st8" points="550.9,454 550.8,449.6 555.1,449.3 555.2,453.8 			"/>
		</g>
	</g>
        <g>
		<polygon class="st9" points="621.9,255.8 639.2,259.1 640,293.1 622.6,290.7 		"/>
            <polygon class="st9" points="619,333.2 597.4,331.4 596.8,293.6 618.3,296.5 		"/>
            <polygon class="st9" points="640.1,299.4 640.9,335.1 623.5,333.6 622.8,297.1 		"/>
            <polygon class="st9" points="596.7,286.9 596,250.9 617.5,255 618.2,290 		"/>
	</g>
        <g>
		<path class="st7" d="M591.4,242.7L643,253l2.1,89.6l-52-4L591.4,242.7z M639.2,259.1l-17.3-3.3l0.7,34.8l17.4,2.5L639.2,259.1z
			 M597.4,331.4l21.6,1.9l-0.7-36.7l-21.5-2.9L597.4,331.4z M640.9,335.1l-0.8-35.7l-17.4-2.3l0.7,36.5L640.9,335.1z M596,250.9
			l0.6,36l21.5,3.1l-0.7-35L596,250.9z"/>
            <polygon class="st8" points="591.4,242.7 593.1,338.5 587,338.9 585.5,243.6 		"/>
            <polygon class="st8" points="593.1,338.5 645.1,342.5 639.1,342.8 587,338.9 		"/>
	</g>
        <g>
		<polygon class="st9" points="521.6,236.8 543.8,241 544.2,279.4 522,276.2 		"/>
            <polygon class="st9" points="516.6,324.3 488.7,321.9 488.5,278.9 516.3,282.7 		"/>
            <polygon class="st9" points="544.3,286.5 544.7,326.8 522.4,324.8 522,283.5 		"/>
            <polygon class="st9" points="488.5,271.4 488.3,230.4 515.9,235.7 516.2,275.4 		"/>
	</g>
        <g>
		<path class="st7" d="M482.4,221l66.3,13.2l1.2,101l-67-5.2L482.4,221z M543.8,241l-22.1-4.2l0.3,39.4l22.2,3.2L543.8,241z
			 M488.7,321.9l27.9,2.4l-0.3-41.7l-27.8-3.8L488.7,321.9z M544.7,326.8l-0.5-40.3l-22.3-3l0.4,41.4L544.7,326.8z M488.3,230.4
			l0.2,40.9l27.8,4l-0.3-39.7L488.3,230.4z"/>
            <polygon class="st8" points="482.4,221 482.9,330 476.7,330.4 476.3,222.1 		"/>
	</g>
        <polygon class="st7" points="482.9,330 549.9,335.2 543.8,335.6 476.7,330.4 	"/>
        <polygon class="st7" points="299,337.6 259.3,340.8 254.4,340.6 294,337.3 	"/>

        <g>
		<polygon class="st8" points="541.4,218.6 545.5,217.9 589.9,227.6 585.9,228.3 		"/>
            <polygon class="st8" points="541.4,218.6 540.7,157.4 544.7,156.4 545.5,217.9 		"/>
            <path class="st7" d="M545.5,217.9l-0.7-61.5l22.4-18.8l21.9,31.6l1,58.3L545.5,217.9z M548.4,160.2l0.1,7.8l0.5,45.1l16.1,3.6
			l4.5,1l16.9,3.8l-0.7-43.1l-0.1-7.5l-18.6-26.7L548.4,160.2z"/>
            <polygon class="st8" points="544.7,156.4 540.7,157.4 563.1,138.7 567.1,137.6 		"/>
            <polygon class="st7" points="548.5,168 548.4,160.2 585.8,171 585.9,178.5 569,173.8 564.5,172.5 		"/>
            <polygon class="st7" points="564.5,172.5 569,173.8 569.7,217.8 565.1,216.8 		"/>
	</g>
        <g>
		<polygon class="st9" points="548.5,168 564.5,172.5 565.1,216.8 549,213.1 		"/>
            <polygon class="st9" points="569,173.8 585.9,178.5 586.6,221.6 569.7,217.8 		"/>
            <polygon class="st9" points="585.8,171 548.4,160.2 567.2,144.3 		"/>
	</g>

        <g>
		<polygon class="st8" points="454.8,380.2 544.3,378.6 544.4,382.1 465.2,380.7 		"/>
            <polygon class="st8" points="444.4,339.7 655.2,352.5 783.7,382.6 582.7,377.9 		"/>
            <polygon class="st8" points="444.4,521.7 444.4,352.2 459.4,352.9 465.5,347 444.4,339.8 582.7,377.9 582.8,387.5 557.3,387.7
			559.3,537.5 546.1,535.7 545.8,508.2 544.4,382.1 544.3,378.6 454.8,380.2 455,523.2 		"/>
            <polygon class="st8" points="783.7,382.6 783.9,389.8 582.8,387.5 582.7,377.9 		"/>
            <polygon class="st8" points="751.4,389.8 761.1,389.9 765.1,502.3 755.4,504 		"/>
            <polygon class="st8" points="454.8,380.2 465.2,380.3 465.6,518.9 465.6,521.8 455,523.2 		"/>
            <polygon class="st8" points="658.4,495.5 648.2,494.6 645.8,388.7 655.8,388.8 		"/>
            <polygon class="st8" points="668.8,494.1 658.4,495.5 655.8,388.8 666.1,388.9 		"/>
            <polygon class="st8" points="557.3,387.7 567.6,387.9 569.3,505.1 569.7,535.7 559.3,537.5 		"/>
            <polygon class="st8" points="755.4,504 743.4,502.9 743.3,500.5 739.6,389.7 751.4,389.8 		"/>
	</g>
        <g>
		<polygon class="st2" points="154.8,303.3 84.2,350.9 70.8,359.9 71.1,352 155.3,290.1 262.7,336.1 256.7,343.3 242.6,337.7 		"/>
            <polygon class="st2" points="70.8,359.9 84.2,350.9 83.8,360.3 		"/>
            <polygon class="st2" points="256.7,343.3 262.7,336.1 465.5,347 459.4,352.9 444.4,352.2 		"/>
            <polygon class="st3" points="465.5,347 262.7,336.1 155.3,290.1 238.6,297.4 348.5,306.9 444.4,339.8 		"/>
	</g>
</g>
</svg>
