<?xml version="1.0" encoding="utf-8"?>
<!-- Generator: Adobe Illustrator 25.0.1, SVG Export Plug-In . SVG Version: 6.00 Build 0)  -->
<svg version="1.1" id="katman_1" xmlns="http://www.w3.org/2000/svg" x="0px" y="0px"
     viewBox="0 0 841.9 595.3" style="enable-background:new 0 0 841.9 595.3;" xml:space="preserve">
<style type="text/css">
	.st0{fill:#8F6645;}
	.st1{fill:#EEEEEE;}
	.st2{fill:#DDDDDD;}
	.st3{fill:#3D3A37;}
	.st4{fill:#C4C4C4;}
	.st5{fill:#3D3A37;}
	.st6{fill:#000000;}
	.st7{fill:#FFFFFF;}
	.st8{fill:#888888;}
	.st9{fill:#7884AF;}
</style>

    <g id="body">
	<polygon class="st4" points="151.9,491.5 152.9,462.4 155.1,462.4 154.3,485.5 153.5,485.4 		"/>
        <polygon class="st4" points="153.1,457 155.2,398.6 157.3,398.6 156.9,411.1 154.7,420 156.6,420 155.8,443.3 		"/>
        <polygon class="st4" points="155.6,385.5 155.9,377.8 202.2,374.5 		"/>
        <polygon class="st4" points="263.1,239.4 369.7,107.3 496.6,178.4 497.1,204.8 511.5,208.5 514.3,340.2 260.9,360.7 261.3,342.9
		262.7,263.9 262.8,258.3 		"/>
        <polygon class="st0" points="514.3,340.2 511.5,208.5 702.7,257.9 716.5,520.9 518.9,548.4 518.6,536.8 		"/>
        <polygon class="st4" points="487.8,533.9 422.8,527.7 421.8,387.6 485.3,385 		"/>
        <polygon class="st4" points="389.5,524.5 265.9,512.6 267.9,394 389.2,389 		"/>
</g>


    <g id="roof">
	<polygon class="st2" points="369.7,107.3 263.1,239.4 248.9,236.9 357.3,100.4 		"/>
        <polygon class="st2" points="263.1,239.4 262.8,258.3 248.5,256 248.9,236.9 		"/>
        <polygon class="st2" points="248.5,256 262.8,258.3 262.7,263.9 232.5,259.3 		"/>
        <polygon class="st1" points="248.9,236.9 248.5,256 232.5,259.3 233.2,230.3 357.5,66.7 528,159.2 528.9,198.2 497.1,204.8
		496.6,178.4 369.7,107.3 357.3,100.4 		"/>
        <polygon class="st3" points="528,159.2 357.5,66.7 571.3,143.4 733.4,225.3 		"/>
        <polygon class="st1" points="528,159.2 733.4,225.3 735.1,255.1 528.9,198.2 		"/>
        <polygon class="st2" points="528.9,198.2 735.1,255.1 706.5,258.8 702.7,257.9 511.5,208.5 497.1,204.8 		"/>

        <g>
		<polygon class="st3" points="246.4,344.4 261.3,342.9 260.9,360.7 233.6,367.1 137.1,374.5 		"/>
            <polygon class="st2" points="142.4,378.7 137.1,374.5 233.6,367.1 202.2,374.5 155.9,377.8 		"/>
	</g>

</g>


    <g id="right-window">
	<g>
		<polygon class="st7" points="685.2,349 546.4,332 551,331.6 689.5,348.7 				"/>
        <polygon class="st7" points="546.4,332 543.6,224.9 548.1,224 551,331.6 				"/>
        <path class="st7" d="M689.5,348.7L551,331.6L548.1,224L685,259L689.5,348.7z M591.9,242.9l1.2,34.4l26.3,5.3l-1.3-33.2
			L591.9,242.9z M656.5,337.4l-1.4-31.1l-24.4-4.3l1.3,32.1L656.5,337.4z M621.3,332.6l-1.3-32.6l-26.3-4.7l1.2,33.7L621.3,332.6z
			 M553.2,233.4l1,36l28.5,5.7l-1.1-34.8L553.2,233.4z M685.7,341.3l-1.5-29.8l-20.6-3.7l1.4,30.7L685.7,341.3z M661.5,259.9
			l1.4,31.3l20.5,4.1l-1.5-30.4L661.5,259.9z M628.7,251.9l1.3,32.8l24.3,4.9l-1.4-31.7L628.7,251.9z M584.4,327.7l-1.1-34.2
			l-28.5-5.1l1,35.4L584.4,327.7z"/>
	</g>
        <polygon class="st9" points="593.1,277.2 591.9,242.9 618.1,249.3 619.4,282.5 			"/>
        <polygon class="st9" points="655.1,306.3 656.5,337.4 632,334.1 630.7,301.9 			"/>
        <polygon class="st9" points="620.1,300.1 621.3,332.6 594.9,329.1 593.7,295.4 			"/>
        <polygon class="st9" points="554.2,269.4 553.2,233.4 581.5,240.3 582.7,275.1 			"/>
        <polygon class="st9" points="684.2,311.5 685.7,341.3 665.1,338.5 663.7,307.8 			"/>
        <polygon class="st9" points="662.9,291.3 661.5,259.9 682,264.9 683.5,295.4 			"/>
        <polygon class="st9" points="630,284.6 628.7,251.9 653,257.8 654.4,289.5 			"/>
        <polygon class="st9" points="583.3,293.5 584.4,327.7 555.7,323.8 554.7,288.4 			"/>
</g>


    <g id="chimney">
	<polygon class="st5" points="477.2,109.6 451.4,100.4 438.1,74.9 463.6,82.4 	"/>
        <polygon class="st6" points="442.5,97.2 437.7,95.5 438.1,74.9 451.4,100.4 	"/>
</g>


    <g>
	<path class="st1" d="M267.9,394l121.3-5.1L267.9,394z"/>
        <g>
		<polygon class="st4" points="518.6,536.8 518.9,548.4 386.6,566.8 386.6,553.4 410.6,550.4 423,548.8 508.6,538.1 		"/>
            <polygon class="st0" points="508.6,538.1 423,548.8 422.8,527.7 487.8,533.9 487.8,536.1 		"/>
            <polygon class="st0" points="130.7,521.3 153.2,519.6 160.6,520.5 172.4,519.6 172.4,518.2 187.5,517.1 239.9,513.2 248.2,512.6
			255.9,513.4 265.9,512.6 389.5,524.5 389.5,547.9 410.6,550.4 386.6,553.4 		"/>
            <polygon class="st4" points="386.6,553.4 386.6,566.8 130.3,531.1 130.7,521.3 		"/>
	</g>

        <polygon class="st3" points="174.8,440.8 248.5,441.8 247,442.1 174.8,441.1 	"/>
        <polygon class="st4" points="248.9,418.8 175.5,419.8 245.1,418.8 	"/>
        <polygon class="st4" points="156.6,420 154.7,420 156.6,420 	"/>
        <g>
		<polygon class="st4" points="250.5,394.7 248.2,512.6 239.9,513.2 244.7,492.2 247.4,492.4 248,465.8 243,466.2 247,442.1
			248.5,441.8 248.9,418.8 245.1,418.8 250.3,394.8 		"/>
            <polygon class="st8" points="248.9,418.8 248.5,441.8 174.8,440.8 175.5,419.8 		"/>
            <polygon class="st8" points="174.8,441.1 247,442.1 243,466.2 174.1,463.3 		"/>
            <polygon class="st8" points="245.1,418.8 175.5,419.7 176.2,397.8 250.3,394.8 		"/>
            <polygon class="st8" points="156.6,420 154.7,420 156.9,411.1 		"/>
            <polygon class="st8" points="153.5,485.4 154.3,485.5 153.4,513.3 146.4,512.5 151.9,491.5 		"/>
            <polygon class="st8" points="247.4,492.4 244.7,492.2 173.4,486.9 174.1,463.3 243,466.2 248,465.8 		"/>
            <polygon class="st8" points="173.4,486.9 244.7,492.2 239.9,513.2 187.5,517.1 172.5,515.4 		"/>
            <polygon class="st8" points="153.1,457 155.8,443.3 155.1,462.4 152.9,462.4 152.1,462.3 		"/>
	</g>
        <g>
		<g>
			<polygon class="st9" points="598.4,429.9 597.1,393.9 623.7,395.2 625.1,430 			"/>
            <polygon class="st9" points="661.3,447.7 662.8,480.2 638,481.8 636.6,448.2 			"/>
            <g>
				<polygon class="st7" points="550.8,496 547.8,383.3 552.4,383.1 555.5,496.3 				"/>
                <path class="st7" d="M696.2,485.2l-140.6,11.1l-3.1-113.2l139.1,8.5L696.2,485.2z M597.1,393.9l1.2,36.1l26.7,0.1l-1.3-34.8
					L597.1,393.9z M662.8,480.2l-1.4-32.5l-24.7,0.5l1.4,33.7L662.8,480.2z M627.1,482.6l-1.3-34.2L599,449l1.2,35.4L627.1,482.6z
					 M557.6,391.9l1.1,37.9l29,0.1l-1.2-36.6L557.6,391.9z M692.4,478.2l-1.5-31.1l-20.8,0.4l1.5,32.1L692.4,478.2z M667.7,397.4
					l1.5,32.7l20.8,0.1l-1.5-31.8L667.7,397.4z M634.5,395.8l1.4,34.3l24.7,0.1l-1.5-33.2L634.5,395.8z M589.5,485.1l-1.2-35.9
					l-29.1,0.6l1,37.3L589.5,485.1z"/>
			</g>
            <polygon class="st9" points="625.8,448.4 627.1,482.6 600.2,484.4 599,449 			"/>
            <polygon class="st9" points="558.7,429.8 557.6,391.9 586.5,393.3 587.7,429.9 			"/>
            <polygon class="st9" points="690.8,447 692.4,478.2 671.5,479.6 670,447.5 			"/>
            <polygon class="st9" points="669.2,430.2 667.7,397.4 688.5,398.5 690,430.2 			"/>
            <polygon class="st9" points="635.9,430.1 634.5,395.8 659.1,397 660.6,430.2 			"/>
            <polygon class="st9" points="588.3,449.2 589.5,485.1 560.3,487.1 559.3,449.8 			"/>
		</g>

            <g>
			<polygon class="st9" points="439.7,229.5 468.5,223.8 469.1,267.4 440.1,272 			"/>
                <polygon class="st9" points="433.5,325.4 401.8,328.7 401.7,285.5 433.1,280.9 			"/>
                <polygon class="st9" points="469.2,275.5 469.9,321.6 440.6,324.6 440.1,279.8 			"/>
                <polygon class="st9" points="401.7,278 401.5,237 432.7,230.9 433.1,273 			"/>
                <g>
				<path class="st7" d="M395.4,230l79.9-16.5l1.8,116.5l-81.4,7.8L395.4,230z M468.5,223.8l-28.8,5.7l0.4,42.5l29-4.5L468.5,223.8z
					 M401.8,328.7l31.7-3.3l-0.4-44.5l-31.4,4.7L401.8,328.7z M469.9,321.6l-0.7-46.1l-29.1,4.3l0.4,44.8L469.9,321.6z M401.5,237
					l0.1,40.9l31.4-4.9l-0.4-42.2L401.5,237z"/>
                    <polygon class="st8" points="395.7,337.9 477.2,330 483,330.7 401.6,338.4 				"/>
                    <polygon class="st8" points="477.2,330 475.3,213.5 481.1,214.9 483,330.7 				"/>
			</g>
		</g>
            <g>
			<polygon class="st9" points="316.3,253.9 338.6,249.5 338.3,287.9 316,291.4 			"/>
                <polygon class="st9" points="310,338.4 285.5,340.9 286,302.7 310.5,299.1 			"/>
                <polygon class="st9" points="338.3,295 338,335.4 315.5,337.8 315.9,298.3 			"/>
                <polygon class="st9" points="286.2,296 286.7,259.8 311,255 310.5,292.2 			"/>
                <g>
				<path class="st7" d="M282.1,253.4l61.9-12.8l-0.6,102.3l-62.9,6.1L282.1,253.4z M338.6,249.5l-22.2,4.4l-0.4,37.5l22.4-3.5
					L338.6,249.5z M285.5,340.9l24.6-2.6l0.4-39.2l-24.4,3.6L285.5,340.9z M338,335.4l0.3-40.4l-22.4,3.3l-0.4,39.5L338,335.4z
					 M286.7,259.8l-0.5,36.3l24.4-3.8L311,255L286.7,259.8z"/>
                    <polygon class="st8" points="280.6,349 343.4,342.9 349.3,343.4 286.4,349.4 				"/>
                    <polygon class="st8" points="343.4,342.9 344,240.6 349.8,241.7 349.3,343.4 				"/>
			</g>
		</g>
            <g>
			<polygon class="st9" points="348.9,172.7 367.2,167.6 367.1,214 348.7,218.2 			"/>
                <g>
				<polygon class="st8" points="348.7,225.5 344.8,224.8 398.2,212.8 402.1,213.7 				"/>
                    <path class="st7" d="M344.8,224.8l0.4-61.6l25.7-34.1l27.1,18.8l0.2,65L344.8,224.8z M349,164.8l0,7.9l-0.2,45.6l18.3-4.2
					l5.4-1.2l21.4-4.9l-0.1-47.6l0-8.2L370.8,136L349,164.8z"/>
                    <polygon class="st8" points="398.2,212.8 398,147.8 401.8,149 402.1,213.7 				"/>
                    <polygon class="st8" points="398,147.8 370.8,129 374.7,130.2 401.8,149 				"/>
                    <polygon class="st7" points="348.9,172.7 349,164.8 393.7,152 393.7,160.2 372.5,166.1 367.2,167.6 				"/>
                    <polygon class="st7" points="367.2,167.6 372.5,166.1 372.4,212.8 367.1,214 				"/>
			</g>
                <polygon class="st9" points="372.5,166.1 393.7,160.2 393.8,207.9 372.4,212.8 			"/>
                <polygon class="st9" points="393.7,152 349,164.8 370.8,136 			"/>
		</g>
            <g>
			<polygon class="st9" points="361.7,455.9 341.4,455.4 341.7,409.3 361.8,408.8 			"/>
                <polygon class="st9" points="391.3,408 391.4,456.6 368.4,456.1 368.4,408.6 			"/>
                <polygon class="st9" points="341.1,518 341.4,467.4 391.5,469.2 391.6,522.7 			"/>
                <g>
				<path class="st8" d="M397,527.4l-60.1-5.8l0.8-123.7l58.9-2.2L397,527.4z M341.4,455.4l20.3,0.5l0.1-47.1l-20.1,0.5L341.4,455.4
					z M391.4,456.6l-0.1-48.6l-22.9,0.6l-0.1,47.5L391.4,456.6z M341.4,467.4l-0.3,50.7l50.5,4.7l-0.1-53.4L341.4,467.4z M349.2,460
					l-4.7-0.1l-2.9,0.1l0,4.6l4.7,0.2l2.9-0.1L349.2,460z"/>
                    <polygon class="st7" points="397,527.4 396.7,395.7 400,395.9 400.4,527.1 				"/>
                    <polygon class="st7" points="344.5,459.8 349.2,460 346.3,460 341.6,459.9 				"/>
                    <polygon class="st5" points="349.2,460 349.2,464.5 346.3,464.6 346.3,460 				"/>
                    <polygon class="st5" points="341.6,464.5 341.6,459.9 346.3,460 346.3,464.6 				"/>
			</g>
		</g>
	</g>
        <g>
		<polygon class="st8" points="267.9,394 265.9,512.6 255.9,513.4 258.1,394.4 267.4,394 		"/>
            <polygon class="st8" points="255.9,513.4 248.2,512.6 250.5,394.7 258.1,394.4 		"/>
            <polygon class="st8" points="260.9,360.7 514.3,340.2 385.9,376.7 135.2,390.3 155.6,385.5 202.2,374.5 233.6,367.1 		"/>
            <polygon class="st8" points="160.6,520.5 153.2,519.6 153.4,513.3 154.3,485.5 155.1,462.4 155.8,443.3 156.6,420 156.9,411.1
			157.3,398.6 164.7,398.3 		"/>
            <polygon class="s8" points="164.7,398.3 157.3,398.6 155.2,398.6 134.9,398.1 385.9,387 409.8,388.1 389.2,388.9 267.4,394
			258.1,394.4 250.5,394.7 176.2,397.8 		"/>
            <polygon class="st8" points="172.4,519.6 160.6,520.5 164.7,398.3 176.2,397.8 175.5,419.7 174.8,440.8 174.1,463.3 173.4,486.9
			172.5,515.4 172.4,518.2 		"/>
            <polygon class="st8" points="409.8,388.1 385.9,387 385.9,376.7 514.3,340.2 518.6,536.8 508.6,538.1 505.5,383.2 421.8,378.6
			421.8,387.6 422.8,527.7 423,548.8 410.6,550.4 		"/>
            <polygon class="st4" points="421.8,378.6 505.5,383.2 485.2,384 485.3,385 421.8,387.6 		"/>
            <polygon class="st8" points="485.2,384 505.5,383.2 508.6,538.1 487.8,536.1 487.8,533.9 485.3,385 		"/>
            <polygon class="st8" points="389.2,388.9 409.8,388.1 410.6,550.4 389.5,547.9 389.5,524.5 389.2,389 		"/>
            <polygon class="st2" points="385.9,376.7 385.9,387 134.9,398.1 135.2,390.3 		"/>
	</g>
        <g>
		<line class="st7" x1="437.7" y1="95.5" x2="438.1" y2="74.9"/>
            <line class="st7" x1="451.4" y1="100.4" x2="438.1" y2="74.9"/>
            <line class="st7" x1="451.4" y1="100.4" x2="437.7" y2="95.5"/>
            <line class="st7" x1="438.1" y1="74.9" x2="463.6" y2="82.4"/>
            <line class="st7" x1="477.2" y1="109.6" x2="463.6" y2="82.4"/>
            <line class="st7" x1="451.4" y1="100.4" x2="477.2" y2="109.6"/>
	</g>
</g>
</svg>
