<?xml version="1.0" encoding="UTF-8"?>
<svg id="Layer_1" data-name="Layer 1" xmlns="http://www.w3.org/2000/svg" version="1.1" viewBox="0 0 841.89 595.28">
  <defs>
    <style>
      .st0{fill:#8F6645;}
      .st1{fill:#EEEEEE;}
      .st2{fill:#DDDDDD;}
      .st3{fill:#3D3A37;}
      .st4{fill:#C4C4C4;}
      .st5{fill:#3D3A37;}
      .st6{fill:#000000;}
      .st7{fill:#FFFFFF;}
      .st8{fill:#888888;}
      .st9{fill:#7884AF;}
    </style>
  </defs>
  <g>
    <polygon class="st1" points="754.51 115 754.51 130.29 726.77 131.39 460.01 141.96 460.01 126.67 754.51 115"/>
    <polygon class="st1" points="132.39 158.75 132.39 144.11 460.01 156.8 460.01 171.44 176.08 160.45 132.39 158.75"/>
    <polygon class="st1" points="460.01 171.44 460.01 156.8 754.51 145.13 754.51 159.77 718.62 161.19 460.4 171.42 460.01 171.44"/>
    <polygon class="st1" points="460.01 126.67 460.01 141.96 459.85 141.96 160.13 130.35 132.39 129.28 132.39 113.98 460.01 126.67"/>
    <polygon class="st3" points="726.77 145.13 459.85 155.71 459.85 141.96 460.01 141.96 726.77 131.39 726.77 144.05 726.77 145.13"/>
    <polygon class="st3" points="459.85 155.71 160.13 144.11 160.13 143.01 160.13 130.35 459.85 141.96 459.85 155.71"/>
  </g>
  <polygon class="st0" points="176.08 308.78 174.98 308.74 160.08 309.33 97.28 306.89 97.28 305.73 84.84 305.25 176.08 301.63 176.08 308.78"/>
  <g>
    <polygon class="st3" points="426.89 102.31 754.51 115 460.01 126.67 132.39 113.98 426.89 102.31"/>
    <polygon class="st3" points="460.01 156.8 132.39 144.11 160.13 143.01 160.13 144.11 459.85 155.71 726.77 145.13 726.77 144.05 754.51 145.13 460.01 156.8"/>
    <polygon class="st3" points="176.08 309.95 160.08 309.33 174.98 308.74 176.08 308.78 176.08 309.95"/>
    <polygon class="st3" points="69.93 305.84 84.84 305.25 97.28 305.73 82.37 306.32 69.93 305.84"/>
  </g>
  <g>
    <polygon class="st0" points="176.08 357.59 176.08 309.95 176.08 308.78 176.08 301.63 176.08 160.45 460.01 171.44 460.4 171.42 460.4 589.95 176.08 578.94 176.08 357.59"/>
    <polygon class="st4" points="460.4 589.95 460.4 171.42 718.62 161.19 718.62 579.72 460.4 589.95"/>
  </g>
  <g>
    <polygon class="st4" points="95 574.68 80.72 575.25 80.72 375.67 95 376.23 95 574.68"/>
    <polygon class="st4" points="80.72 575.25 69.93 574.83 69.93 353.48 82.37 353.96 160.08 356.97 176.08 357.59 176.08 578.94 163.4 578.45 163.4 378.87 95 376.23 80.72 375.67 80.72 575.25"/>
    <polygon class="st4" points="160.08 356.97 82.37 353.96 82.37 306.32 97.28 306.89 160.08 309.33 160.08 356.97"/>
    <polygon class="st4" points="176.08 357.59 160.08 356.97 160.08 309.33 176.08 309.95 176.08 357.59"/>
    <polygon class="st4" points="69.93 305.84 82.37 306.32 82.37 353.96 69.93 353.48 69.93 305.84"/>
    <polygon class="st4" points="97.28 305.73 97.28 306.89 82.37 306.32 97.28 305.73"/>
  </g>
  <g id="chimney">
    <polygon class="st5" points="423.66 121.63 385.33 120.15 385.33 8.12 423.66 9.61 423.66 121.63"/>
    <polygon class="st6" points="465.64 119.97 423.66 121.63 423.66 9.61 465.64 7.94 465.64 119.97"/>
    <polygon class="st6" points="427.31 6.46 465.64 7.94 423.66 9.61 385.33 8.12 427.31 6.46"/>
  </g>
  <polygon class="st8" points="290.28 454.58 290.28 397.33 331.03 398.9 331.03 559.94 316.43 559.38 316.43 455.59 290.28 454.58"/>
  <g>
    <polygon class="st8" points="297.57 474.96 297.45 482.54 294.37 482.66 294.49 475.08 297.57 474.96"/>
    <polygon class="st7" points="286.5 482.36 286.63 474.78 294.49 475.08 294.37 482.66 286.5 482.36"/>
    <path class="st8" d="M290.28,397.33v57.25l26.14,1.01v103.79l14.61.57v-161.04l-40.75-1.58ZM297.45,482.54l.13-7.58-7.86-.3-3.08.12-.13,7.58,7.86.3,3.08-.12ZM337.88,574.71l-53.15-2.06v-185.96l53.15,2.06v185.95Z"/>
    <path class="st7" d="M284.73,572.66l53.15,2.06v-185.95l-53.15-2.06v185.96ZM345.59,585.85l-68.57-2.66v-207.62l68.57,2.66v207.62Z"/>
    <polygon class="st8" points="349.96 585.67 345.59 585.85 345.59 378.23 349.96 378.05 349.96 585.67"/>
  </g>
  <g>
    <polygon class="st8" points="289.71 474.65 297.57 474.96 294.49 475.08 286.63 474.78 289.71 474.65"/>
    <polygon class="st8" points="349.96 378.05 345.59 378.23 277.02 375.57 281.38 375.4 349.96 378.05"/>
  </g>
  <g id="left-window">
    <polygon class="st8" points="362.04 192.32 263.52 188.5 267.89 188.33 366.41 192.14 362.04 192.32"/>
    <polygon class="st8" points="554.91 224.19 562.47 211.48 566.23 211.62 558.68 224.33 554.91 224.19"/>
    <polygon class="st8" points="562.47 211.48 572.02 201.89 575.79 202.04 566.23 211.62 562.47 211.48"/>
    <polygon class="st8" points="582.94 196.08 594.45 194.45 598.22 194.59 586.7 196.23 582.94 196.08"/>
    <polygon class="st8" points="572.02 201.89 582.94 196.08 586.7 196.23 575.79 202.04 572.02 201.89"/>
    <polygon class="st8" points="571.28 310.93 581.67 317.68 577.9 317.53 567.51 310.78 571.28 310.93"/>
    <polygon class="st8" points="581.67 317.68 593.01 320.33 589.24 320.18 577.9 317.53 581.67 317.68"/>
    <polygon class="st8" points="552.29 271.84 556.07 287.2 552.3 287.05 548.52 271.7 552.29 271.84"/>
    <polygon class="st8" points="556.07 287.2 562.55 300.53 558.78 300.39 552.3 287.05 556.07 287.2"/>
    <polygon class="st8" points="571.28 310.93 567.51 310.78 558.78 300.39 562.55 300.53 571.28 310.93"/>
    <polygon class="st8" points="553.64 239.3 549.87 239.15 554.91 224.19 558.68 224.33 553.64 239.3"/>
    <polygon class="st8" points="553.64 239.3 551.46 255.5 547.69 255.36 549.87 239.15 553.64 239.3"/>
    <polygon class="st8" points="552.29 271.84 548.52 271.7 547.69 255.36 551.46 255.5 552.29 271.84"/>
    <path class="st7" d="M625.23,284.03l4.04-12,1.75-12.99-70.49,3.41.33,6.55,3.03,12.32,5.19,10.69,7,8.34,8.33,5.41,9.09,2.12,9.24-1.31,8.75-4.66,7.67-7.69,6.06-10.19ZM561.95,242.9l-.87,6.5,69.28-3.47-3.03-12.32-5.19-10.69-7-8.34-8.33-5.41-9.09-2.12-9.24,1.31-8.75,4.66-7.67,7.69-6.06,10.19-4.04,12ZM639.77,259.42l-2.18,16.2-5.04,14.97-7.56,12.71-9.56,9.59-10.91,5.81-11.52,1.64-11.34-2.65-10.39-6.75-8.73-10.4-6.48-13.33-3.78-15.36-.83-16.34,2.18-16.2,5.04-14.97,7.56-12.71,9.56-9.59,10.91-5.81,11.52-1.64,11.34,2.65,10.39,6.75,8.73,10.4,6.48,13.33,3.78,15.36.83,16.34Z"/>
    <polygon class="st9" points="561.08 249.4 561.95 242.9 565.99 230.9 572.05 220.7 579.72 213.02 588.47 208.36 597.7 207.05 606.8 209.17 615.13 214.58 622.13 222.92 627.32 233.61 630.36 245.93 561.08 249.4"/>
    <polygon class="st9" points="629.28 272.02 625.23 284.03 619.17 294.22 611.51 301.9 602.76 306.56 593.52 307.87 584.43 305.75 576.1 300.34 569.1 292 563.9 281.31 560.87 268.99 560.54 262.44 631.02 259.03 629.28 272.02"/>
  </g>
  <g>
    <g>
      <polygon class="st8" points="554.56 436.27 562.11 423.56 565.88 423.7 558.32 436.41 554.56 436.27"/>
      <polygon class="st8" points="562.11 423.56 571.67 413.97 575.44 414.12 565.88 423.7 562.11 423.56"/>
      <polygon class="st8" points="582.58 408.16 594.1 406.53 597.87 406.67 586.35 408.31 582.58 408.16"/>
      <polygon class="st8" points="571.67 413.97 582.58 408.16 586.35 408.31 575.44 414.12 571.67 413.97"/>
      <polygon class="st8" points="570.93 523.01 581.31 529.76 577.55 529.62 567.16 522.86 570.93 523.01"/>
      <polygon class="st8" points="581.31 529.76 592.65 532.41 588.89 532.26 577.55 529.62 581.31 529.76"/>
      <polygon class="st8" points="551.93 483.92 555.72 499.28 551.95 499.14 548.17 483.78 551.93 483.92"/>
      <polygon class="st8" points="555.72 499.28 562.2 512.61 558.43 512.47 551.95 499.14 555.72 499.28"/>
      <polygon class="st8" points="570.93 523.01 567.16 522.86 558.43 512.47 562.2 512.61 570.93 523.01"/>
      <path class="st7" d="M317.68,317.86l36.3,1.23v-115.75l-36.3-1.23v115.75ZM309.7,201.63l-38.11-1.48v115.75l38.11,1.47v-115.75ZM263.52,188.5l98.52,3.82v138.43l-98.52-3.81v-138.43Z"/>
      <polygon class="st7" points="362.04 330.74 362.04 192.32 366.41 192.14 366.41 330.57 362.04 330.74"/>
      <path class="st7" d="M624.88,496.11l4.04-12,1.75-12.99-70.49,3.41.33,6.55,3.03,12.32,5.19,10.69,7,8.34,8.33,5.41,9.09,2.12,9.24-1.31,8.75-4.66,7.67-7.69,6.06-10.19ZM561.6,454.98l-.87,6.5,69.28-3.47-3.03-12.32-5.19-10.69-7-8.34-8.33-5.41-9.09-2.12-9.24,1.31-8.75,4.66-7.67,7.69-6.06,10.19-4.04,12ZM639.42,471.5l-2.18,16.2-5.04,14.97-7.56,12.71-9.56,9.59-10.91,5.81-11.52,1.64-11.34-2.65-10.39-6.75-8.73-10.4-6.48-13.33-3.78-15.36-.83-16.34,2.18-16.2,5.04-14.97,7.56-12.71,9.56-9.59,10.91-5.81,11.52-1.64,11.34,2.65,10.39,6.75,8.73,10.4,6.48,13.33,3.78,15.36.83,16.34Z"/>
      <polygon class="st8" points="553.28 451.38 551.11 467.59 547.34 467.44 549.52 451.24 553.28 451.38"/>
      <polygon class="st8" points="551.93 483.92 548.17 483.78 547.34 467.44 551.11 467.59 551.93 483.92"/>
      <polygon class="st8" points="553.28 451.38 549.52 451.24 554.56 436.27 558.32 436.41 553.28 451.38"/>
    </g>
    <g>
      <polygon class="st9" points="271.59 200.15 309.7 201.63 309.7 317.38 271.59 315.9 271.59 200.15"/>
      <polygon class="st9" points="353.97 319.09 317.68 317.86 317.68 202.11 353.97 203.34 353.97 319.09"/>
      <polygon class="st9" points="560.73 461.48 561.6 454.98 565.64 442.98 571.7 432.78 579.37 425.1 588.12 420.44 597.35 419.13 606.45 421.25 614.78 426.67 621.78 435 626.97 445.69 630.01 458.01 560.73 461.48"/>
      <polygon class="st9" points="628.92 484.1 624.88 496.11 618.82 506.3 611.16 513.99 602.41 518.64 593.17 519.96 584.08 517.83 575.75 512.42 568.74 504.08 563.55 493.39 560.52 481.07 560.18 474.52 630.67 471.11 628.92 484.1"/>
    </g>
  </g>
</svg>