<?xml version="1.0" encoding="UTF-8"?>
<svg id="Layer_1" data-name="Layer 1" xmlns="http://www.w3.org/2000/svg" version="1.1" viewBox="0 0 841.89 595.28">
  <defs>
    <style>
      .st0{fill:#8F6645;}
      .st1{fill:#EEEEEE;}
      .st2{fill:#DDDDDD;}
      .st3{fill:#3D3A37;}
      .st4{fill:#C4C4C4;}
      .st5{fill:#3D3A37;}
      .st6{fill:#000000;}
      .st7{fill:#FFFFFF;}
      .st8{fill:#888888;}
      .st9{fill:#7884AF;}
    </style>
  </defs>
  <g id="chimney">
    <polygon class="st5" points="666.02 117.2 630.59 118.77 630.59 8.92 666.02 7.35 666.02 117.2"/>
    <polygon class="st6" points="630.59 118.77 587.13 117.2 587.13 7.35 630.59 8.92 630.59 118.77"/>
    <polygon class="st5" points="587.13 7.35 622.55 5.77 666.02 7.35 630.59 8.92 587.13 7.35"/>
  </g>
  <g>
    <polygon class="st4" points="378.84 578.89 242 573.92 242 386.14 378.84 391.1 378.84 578.89"/>
    <polygon class="st4" points="465.22 582.02 403.59 579.78 403.59 391.2 465.22 388.46 465.22 582.02"/>
    <polygon class="st0" points="491.73 365.92 491.73 319.2 491.73 172.73 754.48 161.04 754.48 571.29 491.73 582.98 491.73 365.92"/>
    <polygon class="st4" points="491.73 172.73 491.73 319.2 476.29 318.64 461.5 319.3 461.5 320.55 405.12 323.05 389.69 322.49 378.19 323.01 289.52 319.79 289.52 318.86 272.54 318.25 261.04 318.76 242 318.07 242 310.14 224.39 309.51 224.39 163.36 487.65 172.91 491.73 172.73"/>
  </g>
  <g id="right-window">
    <polygon class="st7" points="402.91 187.78 407.04 187.6 472.35 189.97 468.22 190.15 402.91 187.78"/>
    <path class="st7" d="M405.53,295.74l60.07,2.18v-95.7l-60.07-2.18v95.7ZM402.91,187.78l65.31,2.37v120.04l-65.31-2.37v-120.04Z"/>
    <polygon class="st7" points="379.87 418.18 384 418 449.31 420.37 445.18 420.55 379.87 418.18"/>
    <path class="st7" d="M382.49,526.14l60.07,2.18v-95.69l-60.07-2.18v95.69ZM379.87,418.18l65.31,2.37v120.04l-65.31-2.37v-120.04Z"/>
    <polygon class="st7" points="237.92 182.31 242.05 182.12 307.36 184.49 303.23 184.68 237.92 182.31"/>
    <polygon class="st8" points="468.22 310.19 468.22 190.15 472.35 189.97 472.35 310.01 468.22 310.19"/>
    <polygon class="st8" points="445.18 540.59 445.18 420.55 449.31 420.37 449.31 540.4 445.18 540.59"/>
    <polygon class="st9" points="465.6 297.92 405.53 295.74 405.53 200.05 465.6 202.23 465.6 297.92"/>
    <polygon class="st9" points="442.56 528.32 382.49 526.14 382.49 430.45 442.56 432.63 442.56 528.32"/>
  </g>
  <g>
    <g>
      <polygon class="st8" points="303.23 304.72 303.23 184.68 307.36 184.49 307.36 304.53 303.23 304.72"/>
      <path class="st7" d="M631.15,315.41l33.54-1.66v-113.5l-33.54,1.66v113.5ZM623.77,202.07l-35.22,1.57v113.5l35.22-1.57v-113.5ZM581.1,192.85l91.05-4.05v135.74l-91.05,4.05v-135.74Z"/>
    </g>
    <g>
      <path class="st7" d="M240.54,290.27l60.07,2.18v-95.69l-60.07-2.18v95.69ZM237.92,182.31l65.31,2.37v120.04l-65.31-2.37v-120.04Z"/>
      <polygon class="st7" points="672.15 188.8 581.1 192.85 576.57 192.68 667.63 188.63 672.15 188.8"/>
      <polygon class="st7" points="581.1 192.85 581.1 328.59 576.57 328.42 576.57 192.68 581.1 192.85"/>
    </g>
    <g>
      <polygon class="st9" points="300.61 292.45 240.54 290.27 240.54 194.58 300.61 196.75 300.61 292.45"/>
      <polygon class="st9" points="588.55 203.63 623.77 202.07 623.77 315.57 588.55 317.14 588.55 203.63"/>
      <polygon class="st9" points="664.69 313.75 631.15 315.41 631.15 201.91 664.69 200.25 664.69 313.75"/>
    </g>
  </g>
  <g>
    <polygon class="st8" points="605.83 451.65 605.83 395.51 643.49 393.83 643.49 551.75 629.99 552.35 629.99 450.58 605.83 451.65"/>
    <g>
      <path class="st7" d="M382.61,216.49l-58.47-2.12v137.06l58.47,2.12v-137.06ZM389.11,362.54l-71.47-2.59v-154.56l71.47,2.59v154.56Z"/>
      <path class="st8" d="M337.92,272.43l-7.19-.26-5.16.23v15.66l7.19.26,5.16-.23v-15.66ZM324.14,214.37l58.47,2.12v137.06l-58.47-2.12v-137.06Z"/>
      <polygon class="st8" points="325.58 272.4 332.77 272.66 332.77 288.32 325.58 288.06 325.58 272.4"/>
      <polygon class="st8" points="605.18 478.83 605.3 471.38 608.49 471.5 608.37 478.94 605.18 478.83"/>
      <polygon class="st8" points="593.57 578.82 589.04 578.65 589.04 375.06 593.57 375.22 593.57 578.82"/>
    </g>
    <g>
      <polygon class="st7" points="389.11 362.54 389.11 207.98 393.24 207.79 393.24 362.35 389.11 362.54"/>
      <polygon class="st7" points="389.11 207.98 317.64 205.39 321.77 205.2 393.24 207.79 389.11 207.98"/>
      <polygon class="st7" points="330.74 272.17 337.92 272.43 332.77 272.66 325.58 272.4 330.74 272.17"/>
      <polygon class="st7" points="337.92 272.43 337.92 288.09 332.77 288.32 332.77 272.66 337.92 272.43"/>
      <path class="st8" d="M605.3,471.38l-.12,7.44,3.19.12,7.27-.32.12-7.44-3.19-.12-7.27.32ZM605.83,395.51v56.14l24.16-1.07v101.77l13.5-.6v-157.92l-37.66,1.68ZM649.82,565.69l-49.12,2.19v-182.35l49.12-2.18v182.35Z"/>
      <polygon class="st7" points="605.3 471.38 612.57 471.06 615.76 471.17 608.49 471.5 605.3 471.38"/>
      <polygon class="st7" points="608.37 478.94 608.49 471.5 615.76 471.17 615.64 478.62 608.37 478.94"/>
      <path class="st7" d="M600.69,567.88l49.12-2.19v-182.35l-49.12,2.18v182.35ZM656.94,576l-63.38,2.82v-203.59l63.38-2.82v203.59Z"/>
      <polygon class="st8" points="652.42 372.24 656.94 372.4 593.57 375.22 589.04 375.06 652.42 372.24"/>
    </g>
  </g>
  <g>
    <g>
      <polygon class="st0" points="143.89 578.29 126.29 577.65 126.29 360.59 143.89 361.23 261.04 365.48 278.02 366.09 378.19 369.73 393.62 370.29 393.62 587.34 378.84 586.81 378.84 578.89 378.84 391.1 242 386.14 230.28 385.71 212.67 385.08 153.86 382.94 143.89 382.58 143.89 578.29"/>
      <polygon class="st0" points="261.04 365.48 143.89 361.23 143.89 314.51 155.39 314.92 209.6 316.89 227.2 317.53 242 318.07 261.04 318.76 261.04 365.48"/>
      <polygon class="st0" points="278.02 366.09 261.04 365.48 261.04 318.76 278.02 319.37 278.02 366.09"/>
      <polygon class="st0" points="230.28 385.71 230.28 574.44 212.67 573.8 212.67 385.08 230.28 385.71"/>
      <polygon class="st0" points="461.5 320.55 461.5 319.3 476.93 319.86 461.5 320.55"/>
      <polygon class="st0" points="278.02 366.09 278.02 319.37 289.52 319.79 378.19 323.01 378.19 369.73 278.02 366.09"/>
      <polygon class="st0" points="378.19 369.73 378.19 323.01 393.62 323.57 393.62 370.29 378.19 369.73"/>
      <polygon class="st0" points="126.29 360.59 126.29 313.87 143.89 314.51 143.89 361.23 126.29 360.59"/>
      <polygon class="st0" points="480.01 387.8 480.01 583.5 465.22 582.97 465.22 582.02 465.22 388.46 480.01 387.8"/>
      <polygon class="st0" points="227.2 310.8 227.2 317.53 209.6 316.89 209.6 310.16 227.2 310.8"/>
    </g>
    <polygon class="st0" points="209.6 310.16 209.6 316.89 155.39 314.92 155.39 314 137.79 313.36 209.6 310.16"/>
    <g>
      <polygon class="st4" points="403.59 586.9 393.62 587.34 393.62 370.29 405.12 369.78 476.93 366.58 491.73 365.92 491.73 582.98 480.01 583.5 480.01 387.8 465.22 388.46 403.59 391.2 403.59 579.78 403.59 586.9"/>
      <polygon class="st4" points="476.93 366.58 405.12 369.78 405.12 323.05 461.5 320.55 476.93 319.86 476.93 366.58"/>
      <polygon class="st4" points="153.86 577.84 143.89 578.29 143.89 382.58 153.86 382.94 153.86 577.84"/>
      <polygon class="st4" points="242 386.14 242 573.92 230.28 574.44 230.28 385.71 242 386.14"/>
      <polygon class="st4" points="491.73 365.92 476.93 366.58 476.93 319.86 491.73 319.2 491.73 365.92"/>
      <polygon class="st4" points="393.62 323.57 405.12 323.05 405.12 369.78 393.62 370.29 393.62 323.57"/>
      <polygon class="st4" points="242 310.14 242 318.07 227.2 317.53 227.2 310.8 242 310.14"/>
      <polygon class="st4" points="278.02 319.37 289.52 318.86 289.52 319.79 278.02 319.37"/>
      <polygon class="st4" points="155.39 314 155.39 314.92 143.89 314.51 155.39 314"/>
    </g>
  </g>
  <g>
    <g>
      <polygon class="st1" points="790.43 145.09 790.43 159.44 754.48 161.04 491.73 172.73 487.65 172.91 487.65 158.55 790.43 145.09"/>
      <polygon class="st1" points="790.43 115.54 790.43 130.54 763.26 131.74 487.65 144 487.65 129.01 790.43 115.54"/>
      <polygon class="st3" points="763.26 145.14 486.27 157.46 486.27 143.95 487.65 144 763.26 131.74 763.26 144.1 763.26 145.14"/>
    </g>
    <g>
      <polygon class="st1" points="182.76 132.94 182.76 117.95 487.65 129.01 487.65 144 486.27 143.95 209.93 133.93 182.76 132.94"/>
      <polygon class="st1" points="487.65 158.55 487.65 172.91 224.39 163.36 182.76 161.85 182.76 147.49 487.65 158.55"/>
      <polygon class="st3" points="486.27 157.46 209.93 147.44 209.93 146.28 209.93 133.93 486.27 143.95 486.27 157.46"/>
    </g>
    <g>
      <polygon class="st3" points="182.76 117.95 485.54 104.48 790.43 115.54 487.65 129.01 182.76 117.95"/>
      <polygon class="st3" points="790.43 145.09 487.65 158.55 182.76 147.49 209.93 146.28 209.93 147.44 486.27 157.46 763.26 145.14 763.26 144.1 790.43 145.09"/>
      <polygon class="st3" points="209.6 310.16 224.39 309.51 242 310.14 227.2 310.8 209.6 310.16"/>
      <polygon class="st3" points="278.02 319.37 261.04 318.76 272.54 318.25 289.52 318.86 278.02 319.37"/>
      <polygon class="st3" points="461.5 319.3 476.29 318.64 491.73 319.2 476.93 319.86 461.5 319.3"/>
      <polygon class="st3" points="393.62 323.57 378.19 323.01 389.69 322.49 405.12 323.05 393.62 323.57"/>
      <polygon class="st3" points="143.89 314.51 126.29 313.87 137.79 313.36 155.39 314 143.89 314.51"/>
    </g>
  </g>
</svg>