<?xml version="1.0" encoding="UTF-8"?>
<svg id="Layer_1" data-name="Layer 1" xmlns="http://www.w3.org/2000/svg" version="1.1" viewBox="0 0 841.89 595.28">
  <defs>
    <style>
      .st0{fill:#8F6645;}
      .st1{fill:#EEEEEE;}
      .st2{fill:#DDDDDD;}
      .st3{fill:#3D3A37;}
      .st4{fill:#C4C4C4;}
      .st5{fill:#3D3A37;}
      .st6{fill:#000000;}
      .st7{fill:#FFFFFF;}
      .st8{fill:#888888;}
      .st9{fill:#7884AF;}
    </style>
  </defs>
  <g>
    <polygon class="st1" points="704.37 117.14 704.37 132.37 676.76 133.55 389.02 145.85 389.02 130.63 704.37 117.14"/>
    <polygon class="st1" points="389.02 130.63 389.02 145.85 388.27 145.82 113.78 135.3 86.17 134.24 86.17 119.01 389.02 130.63"/>
    <polygon class="st1" points="86.17 163.58 86.17 149.01 389.02 160.62 389.02 175.2 388.23 175.17 122.69 164.98 86.17 163.58"/>
    <polygon class="st1" points="704.37 147.13 704.37 161.71 661.9 163.53 389.02 175.2 389.02 160.62 704.37 147.13"/>
    <polygon class="st3" points="388.27 159.5 113.78 148.98 113.78 147.83 113.78 135.3 388.27 145.82 388.27 159.5"/>
    <polygon class="st3" points="676.76 147.17 388.27 159.5 388.27 145.82 389.02 145.85 676.76 133.55 676.76 146.08 676.76 147.17"/>
  </g>
  <polygon class="st3" points="661.9 304.04 746.59 307.29 734.61 307.8 734.61 309.22 677.3 311.67 661.9 311.08 661.9 304.04"/>
  <polygon class="st3" points="736.21 575.53 736.21 378.26 753.69 377.51 753.69 576.2 736.21 575.53"/>
  <g>
    <polygon class="st0" points="661.9 312.33 661.9 359.76 661.9 580.12 388.23 591.83 388.23 175.17 389.02 175.2 661.9 163.53 661.9 304.04 661.9 311.08 661.9 312.33"/>
    <polygon class="st4" points="122.69 581.64 122.69 164.98 388.23 175.17 388.23 591.83 122.69 581.64"/>
  </g>
  <g>
    <polygon class="st3" points="704.37 117.14 389.02 130.63 86.17 119.01 401.52 105.52 704.37 117.14"/>
    <polygon class="st3" points="86.17 149.01 113.78 147.83 113.78 148.98 388.27 159.5 676.76 147.17 676.76 146.08 704.37 147.13 389.02 160.62 86.17 149.01"/>
    <polygon class="st3" points="677.3 311.67 661.9 312.33 661.9 311.08 677.3 311.67"/>
    <polygon class="st3" points="746.59 307.29 764.07 307.96 752.1 308.47 734.61 307.8 746.59 307.29"/>
  </g>
  <g>
    <polygon class="st4" points="674.1 579.6 661.9 580.12 661.9 359.76 677.3 359.1 752.1 355.9 764.07 355.39 764.07 575.75 753.69 576.2 753.69 377.51 736.21 378.26 674.1 380.92 674.1 579.6"/>
    <polygon class="st4" points="677.3 359.1 661.9 359.76 661.9 312.33 677.3 311.67 677.3 359.1"/>
    <polygon class="st4" points="677.3 359.1 677.3 311.67 734.61 309.22 752.1 308.47 752.1 355.9 677.3 359.1"/>
    <polygon class="st4" points="764.07 307.96 764.07 355.39 752.1 355.9 752.1 308.47 764.07 307.96"/>
    <polygon class="st4" points="734.61 309.22 734.61 307.8 752.1 308.47 734.61 309.22"/>
  </g>
  <g id="chimney">
    <polygon class="st5" points="256.61 119.09 213.44 117.44 213.44 5.91 256.61 7.57 256.61 119.09"/>
    <polygon class="st6" points="293.5 117.51 256.61 119.09 256.61 7.57 293.5 5.99 293.5 117.51"/>
    <polygon class="st6" points="293.5 5.99 256.61 7.57 213.44 5.91 250.33 4.33 293.5 5.99"/>
  </g>
  <g>
    <g>
      <polygon class="st8" points="524.87 489.61 517.53 489.92 517.53 507.94 520.79 508.07 524.87 507.89 524.87 574.13 488.92 575.67 488.92 417.33 524.87 415.79 524.87 489.61"/>
      <polygon class="st8" points="543.58 488.81 535.71 489.14 535.71 415.33 571.61 413.79 571.61 572.14 535.71 573.67 535.71 507.17 538.98 507.29 546.85 506.95 546.85 488.93 543.58 488.81"/>
    </g>
    <g>
      <polygon class="st7" points="517.53 489.92 524.87 489.61 528.14 489.73 520.79 490.05 517.53 489.92"/>
      <polygon class="st7" points="517.53 507.94 517.53 489.92 520.79 490.05 520.79 508.07 517.53 507.94"/>
      <polygon class="st7" points="535.71 489.14 543.58 488.81 546.85 488.93 538.98 489.27 535.71 489.14"/>
      <polygon class="st7" points="535.71 507.17 535.71 489.14 538.98 489.27 538.98 507.29 535.71 507.17"/>
      <polygon class="st7" points="476.88 588.04 476.88 405.4 480.57 405.54 480.57 588.18 476.88 588.04"/>
      <polygon class="st7" points="476.88 405.4 576.28 401.14 579.97 401.29 480.57 405.54 476.88 405.4"/>
    </g>
    <g>
      <polygon class="st7" points="528.14 489.73 528.14 507.75 524.87 507.89 520.79 508.07 520.79 490.05 528.14 489.73"/>
      <polygon class="st7" points="538.98 489.27 546.85 488.93 546.85 506.95 538.98 507.29 538.98 489.27"/>
      <path class="st7" d="M535.71,507.17v66.51l35.89-1.53v-158.34l-35.89,1.53v91.84ZM524.87,489.61v-73.82l-35.95,1.54v158.34l35.95-1.54v-66.24l3.26-.14v-18.02l-3.26-.13ZM579.97,583.93l-99.4,4.25v-182.64l99.4-4.25v182.64Z"/>
    </g>
  </g>
  <g id="left-window">
    <polygon class="st8" points="282.89 209.55 291.87 220.59 288.24 220.74 279.26 209.71 282.89 209.55"/>
    <polygon class="st8" points="291.87 220.59 298.53 234.37 294.9 234.53 288.24 220.74 291.87 220.59"/>
    <polygon class="st8" points="298.53 234.37 302.42 249.96 298.79 250.11 294.9 234.53 298.53 234.37"/>
    <polygon class="st8" points="302.42 249.96 303.27 266.29 299.64 266.45 298.79 250.11 302.42 249.96"/>
    <polygon class="st8" points="303.27 266.29 301.03 282.25 297.4 282.41 299.64 266.45 303.27 266.29"/>
    <polygon class="st8" points="260.54 198.48 272.21 202.01 268.58 202.16 256.92 198.63 260.54 198.48"/>
    <polygon class="st8" points="272.21 202.01 282.89 209.55 279.26 209.71 268.58 202.16 272.21 202.01"/>
    <polygon class="st8" points="301.03 282.25 295.85 296.75 292.22 296.91 297.4 282.41 301.03 282.25"/>
    <polygon class="st8" points="295.85 296.75 288.08 308.81 284.45 308.97 292.22 296.91 295.85 296.75"/>
    <polygon class="st8" points="288.08 308.81 278.25 317.6 274.62 317.76 284.45 308.97 288.08 308.81"/>
    <path class="st7" d="M284.7,289.8l4.16-11.63,1.8-12.8-72.48-2.16.34,6.55,3.12,12.5,5.34,11.05,7.2,8.85,8.57,6.05,9.35,2.83,9.5-.58,9-3.95,7.88-7.05,6.23-9.67ZM219.62,243.86l-.9,6.4,71.24,2.01-3.12-12.5-5.34-11.05-7.2-8.85-8.57-6.05-9.35-2.83-9.5.58-9,3.95-7.88,7.05-6.23,9.67-4.16,11.63ZM299.64,266.45l-2.24,15.96-5.18,14.5-7.77,12.06-9.83,8.79-11.22,4.92-11.84.72-11.66-3.53-10.68-7.54-8.98-11.04-6.66-13.78-3.89-15.59-.85-16.33,2.24-15.96,5.18-14.5,7.77-12.06,9.83-8.79,11.22-4.92,11.84-.72,11.66,3.53,10.68,7.54,8.98,11.04,6.66,13.78,3.89,15.59.85,16.33Z"/>
    <polygon class="st9" points="218.72 250.26 219.62 243.86 223.78 232.23 230.01 222.56 237.89 215.52 246.89 211.57 256.39 210.99 265.74 213.82 274.3 219.87 281.5 228.72 286.85 239.77 289.97 252.27 218.72 250.26"/>
    <polygon class="st9" points="288.85 278.17 284.7 289.8 278.46 299.47 270.58 306.51 261.58 310.46 252.09 311.04 242.74 308.21 234.17 302.16 226.97 293.31 221.63 282.26 218.51 269.76 218.17 263.21 290.65 265.37 288.85 278.17"/>
  </g>
  <g>
    <g>
      <polygon class="st8" points="251.56 323.4 263.4 322.68 267.03 322.52 255.18 323.24 251.56 323.4"/>
      <polygon class="st8" points="282.53 420.66 291.51 431.7 287.88 431.85 278.9 420.82 282.53 420.66"/>
      <polygon class="st8" points="291.51 431.7 298.17 445.48 294.54 445.64 287.88 431.85 291.51 431.7"/>
      <polygon class="st8" points="298.17 445.48 302.06 461.07 298.43 461.22 294.54 445.64 298.17 445.48"/>
      <polygon class="st8" points="302.06 461.07 302.91 477.4 299.28 477.56 298.43 461.22 302.06 461.07"/>
      <polygon class="st8" points="302.91 477.4 300.67 493.36 297.04 493.52 299.28 477.56 302.91 477.4"/>
      <polygon class="st8" points="260.18 409.59 271.84 413.12 268.22 413.27 256.56 409.74 260.18 409.59"/>
      <polygon class="st8" points="271.84 413.12 282.53 420.66 278.9 420.82 268.22 413.27 271.84 413.12"/>
      <polygon class="st8" points="300.67 493.36 295.49 507.86 291.86 508.02 297.04 493.52 300.67 493.36"/>
      <polygon class="st8" points="295.49 507.86 287.71 519.92 284.09 520.08 291.86 508.02 295.49 507.86"/>
      <polygon class="st8" points="287.71 519.92 277.88 528.71 274.26 528.86 284.09 520.08 287.71 519.92"/>
      <path class="st7" d="M284.33,500.91l4.16-11.63,1.8-12.8-72.48-2.16.34,6.55,3.12,12.5,5.34,11.05,7.2,8.85,8.57,6.05,9.35,2.83,9.5-.58,9-3.95,7.88-7.05,6.23-9.67ZM219.26,454.97l-.9,6.4,71.24,2.01-3.12-12.5-5.34-11.05-7.2-8.85-8.57-6.05-9.35-2.83-9.5.58-9,3.95-7.88,7.05-6.23,9.67-4.16,11.63ZM299.28,477.56l-2.24,15.96-5.18,14.5-7.77,12.06-9.83,8.79-11.22,4.92-11.84.72-11.66-3.53-10.68-7.54-8.98-11.04-6.66-13.78-3.89-15.59-.85-16.33,2.24-15.96,5.18-14.5,7.77-12.06,9.83-8.79,11.22-4.92,11.84-.72,11.66,3.53,10.68,7.54,8.98,11.04,6.66,13.78,3.89,15.59.85,16.33Z"/>
      <polygon class="st8" points="251.19 534.51 263.04 533.79 266.66 533.63 254.82 534.35 251.19 534.51"/>
      <polygon class="st8" points="263.04 533.79 274.26 528.86 277.88 528.71 266.66 533.63 263.04 533.79"/>
      <polygon class="st8" points="421.29 322.81 421.29 204.78 424.98 204.92 424.98 322.95 421.29 322.81"/>
      <polygon class="st8" points="421.29 204.78 502.51 201.31 506.2 201.45 424.98 204.92 421.29 204.78"/>
      <polygon class="st8" points="549.21 317.14 549.21 199.11 552.9 199.26 552.9 317.29 549.21 317.14"/>
      <polygon class="st8" points="549.21 199.11 630.43 195.64 634.12 195.78 552.9 199.26 549.21 199.11"/>
    </g>
    <g>
      <path class="st7" d="M431.63,258.11l30.25-1.29v-43.81l-30.25,1.29v43.81ZM468.07,311.45l31.48-1.35v-48.2l-31.48,1.35v48.2ZM468.07,256.55l31.48-1.35v-43.81l-31.48,1.35v43.81ZM461.88,311.71v-48.2l-30.25,1.29v48.2l30.25-1.29ZM424.98,322.95v-118.03l81.22-3.47v118.03l-81.22,3.47Z"/>
      <path class="st7" d="M559.55,252.45l30.25-1.29v-43.81l-30.25,1.29v43.81ZM595.99,305.78l31.48-1.35v-48.2l-31.48,1.35v48.2ZM595.99,250.89l31.48-1.35v-43.81l-31.48,1.35v43.81ZM589.8,306.05v-48.2l-30.25,1.29v48.2l30.25-1.29ZM552.9,317.29v-118.03l81.22-3.47v118.03l-81.22,3.47Z"/>
    </g>
    <g>
      <polygon class="st9" points="218.36 461.37 219.26 454.97 223.42 443.34 229.65 433.67 237.53 426.62 246.53 422.68 256.02 422.1 265.38 424.93 273.94 430.98 281.14 439.83 286.48 450.88 289.6 463.38 218.36 461.37"/>
      <polygon class="st9" points="288.49 489.28 284.33 500.91 278.1 510.58 270.22 517.62 261.22 521.57 251.72 522.15 242.37 519.32 233.81 513.27 226.61 504.42 221.26 493.37 218.15 480.87 217.8 474.32 290.29 476.48 288.49 489.28"/>
      <polygon class="st9" points="461.88 263.51 461.88 311.71 431.63 313.01 431.63 264.8 461.88 263.51"/>
      <polygon class="st9" points="499.55 255.21 468.07 256.55 468.07 212.74 499.55 211.4 499.55 255.21"/>
      <polygon class="st9" points="499.55 310.1 468.07 311.45 468.07 263.24 499.55 261.9 499.55 310.1"/>
      <polygon class="st9" points="461.88 256.82 431.63 258.11 431.63 214.3 461.88 213.01 461.88 256.82"/>
      <polygon class="st9" points="589.8 257.84 589.8 306.05 559.55 307.34 559.55 259.14 589.8 257.84"/>
      <polygon class="st9" points="627.47 249.54 595.99 250.89 595.99 207.08 627.47 205.73 627.47 249.54"/>
      <polygon class="st9" points="627.47 304.43 595.99 305.78 595.99 257.58 627.47 256.23 627.47 304.43"/>
      <polygon class="st9" points="589.8 251.15 559.55 252.45 559.55 208.63 589.8 207.34 589.8 251.15"/>
    </g>
  </g>
</svg>