<?xml version="1.0" encoding="UTF-8"?>
<svg id="Layer_1" data-name="Layer 1" xmlns="http://www.w3.org/2000/svg" version="1.1" viewBox="0 0 841.89 595.28">
  <defs>
    <style>
      .st0{fill:#8F6645;}
      .st1{fill:#EEEEEE;}
      .st2{fill:#DDDDDD;}
      .st3{fill:#3D3A37;}
      .st4{fill:#C4C4C4;}
      .st5{fill:#3D3A37;}
      .st6{fill:#000000;}
      .st7{fill:#FFFFFF;}
      .st8{fill:#888888;}
      .st9{fill:#7884AF;}
    </style>
  </defs>
  <g id="body">
    <polygon class="st0" points="125.91 572.6 125.91 164.39 377.65 176.38 377.65 322.13 377.65 368.62 377.65 584.59 125.91 572.6"/>
    <polygon class="st4" points="377.65 322.13 377.65 176.38 381.11 176.55 651.44 167.36 651.44 312.82 635.64 313.36 635.64 321.03 627.04 321.32 616.02 320.8 598.63 321.39 598.63 322.29 489.67 325.99 478.65 325.47 460.62 326.08 409.85 323.66 409.85 322.19 395.68 321.52 377.65 322.13"/>
    <polygon class="st4" points="636.3 388.74 636.3 575.8 489.67 580.78 489.67 393.73 636.3 388.74"/>
    <polygon class="st4" points="462.09 581.72 406.91 583.59 406.91 391.26 462.09 393.89 462.09 581.72"/>
  </g>
  <g id="chimney">
    <polygon class="st5" points="416.7 116.72 382.76 115.1 382.76 5.8 416.7 7.42 416.7 116.72"/>
    <polygon class="st6" points="461.21 115.21 416.7 116.72 416.7 7.42 461.21 5.91 461.21 115.21"/>
    <polygon class="st6" points="416.7 7.42 382.76 5.8 427.27 4.29 461.21 5.91 416.7 7.42"/>
  </g>
  <g id="right-window">
    <path class="st7" d="M571.26,295.3l61.52-2.09v-95.22l-61.52,2.09v95.22ZM568.57,188.07l66.89-2.27v119.44l-66.89,2.27v-119.44Z"/>
    <path class="st7" d="M547.66,526.19l61.52-2.09v-95.22l-61.52,2.09v95.22ZM544.97,418.95l66.89-2.27v119.44l-66.89,2.27v-119.44Z"/>
    <polygon class="st9" points="632.77 293.21 571.26 295.3 571.26 200.09 632.77 198 632.77 293.21"/>
    <polygon class="st9" points="609.18 524.09 547.66 526.19 547.66 430.97 609.18 428.88 609.18 524.09"/>
    <polygon class="st8" points="564.62 187.88 568.57 188.07 568.57 307.51 564.62 307.32 564.62 187.88"/>
    <polygon class="st8" points="541.02 418.76 544.97 418.95 544.97 538.39 541.02 538.2 541.02 418.76"/>
  </g>
  <g>
    <g>
      <polygon class="st8" points="244.32 483.8 237.56 483.48 234.2 483.6 234.2 501.26 240.96 501.58 244.32 501.47 244.32 566.65 211.25 565.07 211.25 409.88 244.32 411.46 244.32 483.8"/>
      <polygon class="st8" points="261.53 484.62 254.29 484.28 254.29 411.93 287.31 413.51 287.31 568.7 254.29 567.12 254.29 502.22 258.17 502.4 261.53 502.29 261.53 484.62"/>
    </g>
    <g>
      <polygon class="st7" points="237.56 483.48 244.32 483.8 240.96 483.92 234.2 483.6 237.56 483.48"/>
      <polygon class="st7" points="254.29 484.28 261.53 484.62 258.17 484.74 250.93 484.39 254.29 484.28"/>
      <polygon class="st7" points="207.37 397.48 298.8 401.84 295 401.97 203.56 397.61 207.37 397.48"/>
      <polygon class="st7" points="240.96 483.92 240.96 501.58 234.2 501.26 234.2 483.6 240.96 483.92"/>
      <polygon class="st7" points="250.93 484.39 258.17 484.74 258.17 502.4 254.29 502.22 250.93 502.06 250.93 484.39"/>
      <path class="st7" d="M254.29,502.22v64.91l33.02,1.57v-155.19l-33.02-1.57v72.34l-3.36.11v17.66l3.36.16ZM244.32,483.8v-72.34l-33.07-1.58v155.19l33.07,1.58v-82.84ZM295,580.97l-91.44-4.36v-179l91.44,4.36v179Z"/>
      <polygon class="st7" points="494.65 277.15 502.01 276.9 506.96 277.14 499.59 277.39 494.65 277.15"/>
    </g>
    <g>
      <polygon class="st7" points="494.65 292.73 494.65 277.15 499.59 277.39 499.59 292.97 494.65 292.73"/>
      <polygon class="st7" points="244.32 483.8 244.32 501.47 240.96 501.58 240.96 483.92 244.32 483.8"/>
      <polygon class="st7" points="261.53 484.62 261.53 502.29 258.17 502.4 258.17 484.74 261.53 484.62"/>
      <polygon class="st7" points="298.8 401.84 298.8 580.84 295 580.97 295 401.97 298.8 401.84"/>
      <path class="st8" d="M547.78,218.08l-59.88,2.04v136.37l59.88-2.04v-136.37ZM554.44,362.93l-73.2,2.49v-153.78l73.2-2.49v153.79Z"/>
      <path class="st8" d="M494.65,277.15v15.58l4.94.24,7.36-.25v-15.58l-4.94-.24-7.36.25ZM487.9,220.11l59.88-2.04v136.37l-59.88,2.04v-136.37Z"/>
      <polygon class="st7" points="499.59 277.39 506.96 277.14 506.96 292.72 499.59 292.97 499.59 277.39"/>
      <polygon class="st7" points="481.24 211.63 481.24 365.42 477.29 365.23 477.29 211.44 481.24 211.63"/>
      <polygon class="st7" points="554.44 209.14 481.24 211.63 477.29 211.44 550.49 208.95 554.44 209.14"/>
    </g>
  </g>
  <g>
    <g>
      <polygon class="st0" points="745.43 363.79 745.43 579.76 730.29 580.27 730.29 385.55 720.74 385.87 662.67 387.85 647.52 388.36 636.3 388.74 489.67 393.73 489.67 580.78 489.67 588.45 471.64 589.07 471.64 373.09 489.67 372.48 609.65 368.4 627.04 367.81 729.62 364.32 745.43 363.79"/>
      <polygon class="st0" points="745.43 317.3 745.43 363.79 729.62 364.32 729.62 317.84 745.43 317.3"/>
      <polygon class="st0" points="489.67 372.48 471.64 373.09 471.64 326.61 489.67 325.99 489.67 372.48"/>
      <polygon class="st0" points="489.67 372.48 489.67 325.99 598.63 322.29 609.65 321.92 609.65 368.4 489.67 372.48"/>
      <polygon class="st0" points="662.67 575.82 647.52 576.33 647.52 388.36 662.67 387.85 662.67 575.82"/>
      <polygon class="st0" points="665.61 313.5 665.61 320.01 649.81 320.55 649.81 314.03 665.61 313.5"/>
      <polygon class="st0" points="609.65 368.4 609.65 321.92 627.04 321.32 627.04 367.81 609.65 368.4"/>
      <polygon class="st0" points="627.04 367.81 627.04 321.32 635.64 321.03 649.81 320.55 665.61 320.01 718.61 318.21 729.62 317.84 729.62 364.32 627.04 367.81"/>
      <polygon class="st0" points="406.91 584.51 388.88 585.12 388.88 390.4 406.91 391.26 406.91 583.59 406.91 584.51"/>
      <polygon class="st0" points="391.82 322.81 409.85 322.19 409.85 323.66 391.82 322.81"/>
    </g>
    <g>
      <polygon class="st4" points="471.64 373.09 471.64 589.07 462.09 588.61 462.09 581.72 462.09 393.89 406.91 391.26 388.88 390.4 388.88 585.12 377.65 584.59 377.65 368.62 391.82 369.29 460.62 372.57 471.64 373.09"/>
      <polygon class="st4" points="377.65 368.62 377.65 322.13 391.82 322.81 391.82 369.29 377.65 368.62"/>
      <polygon class="st4" points="471.64 326.61 471.64 373.09 460.62 372.57 460.62 326.08 471.64 326.61"/>
      <polygon class="st4" points="647.52 388.36 647.52 576.33 636.3 575.8 636.3 388.74 647.52 388.36"/>
      <polygon class="st4" points="720.74 579.82 720.74 385.87 730.29 385.55 730.29 580.27 720.74 579.82"/>
      <polygon class="st4" points="635.64 313.36 649.81 314.03 649.81 320.55 635.64 321.03 635.64 313.36"/>
      <polygon class="st4" points="391.82 369.29 391.82 322.81 409.85 323.66 460.62 326.08 460.62 372.57 391.82 369.29"/>
      <polygon class="st4" points="718.61 317.31 729.62 317.84 718.61 318.21 718.61 317.31"/>
      <polygon class="st4" points="598.63 321.39 609.65 321.92 598.63 322.29 598.63 321.39"/>
    </g>
  </g>
  <g>
    <g>
      <polygon class="st3" points="734.41 316.77 745.43 317.3 729.62 317.84 718.61 317.31 734.41 316.77"/>
      <polygon class="st3" points="489.67 325.99 471.64 326.61 460.62 326.08 478.65 325.47 489.67 325.99"/>
      <polygon class="st3" points="651.44 312.82 665.61 313.5 649.81 314.03 635.64 313.36 651.44 312.82"/>
      <polygon class="st3" points="627.04 321.32 609.65 321.92 598.63 321.39 616.02 320.8 627.04 321.32"/>
      <polygon class="st3" points="391.82 322.81 377.65 322.13 395.68 321.52 409.85 322.19 391.82 322.81"/>
      <polygon class="st3" points="381.11 132.86 91.03 119.05 403.29 108.43 693.37 122.25 381.11 132.86"/>
      <polygon class="st3" points="666.39 150.36 693.37 151.64 381.11 162.26 91.03 148.44 118.01 147.53 118.01 148.54 383.38 161.18 666.39 151.55 666.39 150.36"/>
    </g>
    <g>
      <polygon class="st1" points="381.11 147.79 381.11 132.86 693.37 122.25 693.37 137.17 666.39 138.09 383.38 147.71 381.11 147.79"/>
      <polygon class="st1" points="693.37 151.64 693.37 165.93 651.44 167.36 381.11 176.55 381.11 162.26 693.37 151.64"/>
      <polygon class="st3" points="666.39 151.55 383.38 161.18 383.38 147.71 666.39 138.09 666.39 150.36 666.39 151.55"/>
    </g>
    <g>
      <polygon class="st1" points="91.03 133.97 91.03 119.05 381.11 132.86 381.11 147.79 118.01 135.25 91.03 133.97"/>
      <polygon class="st1" points="381.11 162.26 381.11 176.55 377.65 176.38 125.91 164.39 91.03 162.73 91.03 148.44 381.11 162.26"/>
      <polygon class="st3" points="383.38 161.18 118.01 148.54 118.01 147.53 118.01 135.25 381.11 147.79 383.38 147.71 383.38 161.18"/>
    </g>
  </g>
  <g>
    <g>
      <path class="st7" d="M402.28,301.56l61.52-2.09v-95.22l-61.52,2.09v95.22ZM399.6,194.32l66.89-2.27v119.44l-66.89,2.27v-119.44Z"/>
      <polygon class="st8" points="348.62 205.07 348.62 320.75 344.81 320.88 344.81 205.2 348.62 205.07"/>
      <polygon class="st8" points="230.94 199.66 230.94 315.34 227.14 315.47 227.14 199.79 230.94 199.66"/>
    </g>
    <g>
      <polygon class="st8" points="395.64 194.13 399.6 194.32 399.6 313.76 395.64 313.57 395.64 194.13"/>
      <polygon class="st8" points="399.6 194.32 395.64 194.13 462.53 191.86 466.48 192.05 399.6 194.32"/>
      <polygon class="st8" points="273.9 201.51 348.62 205.07 344.81 205.2 270.1 201.64 273.9 201.51"/>
      <path class="st7" d="M276.22,254.34l27.83,1.33v-42.94l-27.83-1.33v42.94ZM309.74,309.74l28.96,1.38v-47.24l-28.96-1.38v47.24ZM309.74,255.94l28.96,1.38v-42.94l-28.96-1.38v42.94ZM304.05,309.47v-47.24l-27.83-1.33v47.24l27.83,1.33ZM270.1,317.32v-115.68l74.71,3.56v115.68l-74.71-3.56Z"/>
      <polygon class="st7" points="156.23 196.1 230.94 199.66 227.14 199.79 152.43 196.23 156.23 196.1"/>
      <path class="st7" d="M158.55,248.93l27.83,1.33v-42.94l-27.83-1.33v42.94ZM192.07,304.33l28.96,1.38v-47.24l-28.96-1.38v47.24ZM192.07,250.53l28.96,1.38v-42.94l-28.96-1.38v42.94ZM186.38,304.05v-47.24l-27.83-1.33v47.24l27.83,1.33ZM152.43,311.91v-115.68l74.71,3.56v115.68l-74.71-3.56Z"/>
    </g>
    <g>
      <polygon class="st9" points="463.8 299.47 402.28 301.56 402.28 206.34 463.8 204.25 463.8 299.47"/>
      <polygon class="st9" points="304.05 262.23 304.05 309.47 276.22 308.14 276.22 260.9 304.05 262.23"/>
      <polygon class="st9" points="338.7 257.32 309.74 255.94 309.74 213 338.7 214.38 338.7 257.32"/>
      <polygon class="st9" points="338.7 311.12 309.74 309.74 309.74 262.5 338.7 263.88 338.7 311.12"/>
      <polygon class="st9" points="304.05 255.67 276.22 254.34 276.22 211.4 304.05 212.73 304.05 255.67"/>
      <polygon class="st9" points="186.38 256.81 186.38 304.05 158.55 302.73 158.55 255.49 186.38 256.81"/>
      <polygon class="st9" points="221.03 251.91 192.07 250.53 192.07 207.59 221.03 208.97 221.03 251.91"/>
      <polygon class="st9" points="221.03 305.7 192.07 304.33 192.07 257.08 221.03 258.46 221.03 305.7"/>
      <polygon class="st9" points="186.38 250.26 158.55 248.93 158.55 205.99 186.38 207.32 186.38 250.26"/>
    </g>
  </g>
</svg>