<?xml version="1.0" encoding="utf-8"?>
<!-- Generator: Adobe Illustrator 25.0.1, SVG Export Plug-In . SVG Version: 6.00 Build 0)  -->
<svg version="1.1" id="katman_1" xmlns="http://www.w3.org/2000/svg" x="0px" y="0px"
     viewBox="0 0 841.9 595.3" style="enable-background:new 0 0 841.9 595.3;" xml:space="preserve">
<style type="text/css">
	.st0{fill:#8F6645;}
	.st1{fill:#EEEEEE;}
	.st2{fill:#DDDDDD;}
	.st3{fill:#3D3A37;}
	.st4{fill:#C4C4C4;}
	.st5{fill:#3D3A37;}
	.st6{fill:#000000;}
	.st7{fill:#FFFFFF;}
	.st8{fill:#888888;}
	.st9{fill:#7884AF;}
</style>

    <g id="body">
	<polygon class="st0" points="528,408 514.5,410 514.5,426.6 214.2,476.7 218.4,190.8 376.3,149.3 496,212.4 569.2,199.3
		631.4,222.9 699.9,191.8 757.7,232.8 757.7,234.1 759.8,385.6 670.6,400.5 654.7,398.7 654.7,388.5 608.6,383.6 528,394.2 			"/>
        <polygon class="st4" points="218.4,190.8 214.2,476.7 76.2,428.8 81,212.8 			"/>
</g>


    <g id="roof">
	<polygon class="st1" points="631.4,222.9 569.2,199.3 496,212.4 496,191.8 569.1,176.2 587.6,185 631.3,205.7 			"/>
        <polygon class="st3" points="569.1,176.2 496,191.8 485.6,185.8 507.2,183.3 			"/>
        <polygon class="st3" points="587.6,185 699.7,173.4 631.3,205.7 			"/>
        <polygon class="st2" points="75.2,213.7 37.1,211.3 172.5,186.6 218.4,190.8 81,212.8 			"/>
        <polygon class="st1" points="699.7,173.4 757.5,218.5 768.6,219.6 768.8,233.6 757.7,232.8 699.9,191.8 631.4,222.9 631.3,205.7
						"/>
        <polygon class="st1" points="218.4,190.8 172.5,186.6 173.3,158.6 199.9,161.6 219.1,163.8 376.5,122.3 463.3,172.8 478.1,181.4
			485.6,185.8 496,191.8 496,212.4 376.3,149.3 			"/>
        <polygon class="st3" points="213,158.3 376.5,122.3 219.1,163.8 199.9,161.6 			"/>
        <polygon class="st1" points="768.8,233.6 757.7,234.1 757.7,232.8 			"/>
        <polygon class="st1" points="37.1,211.3 37.8,190.6 173.3,158.6 172.5,186.6 			"/>
</g>

    <g id="chimney">
	<polygon class="st6" points="492.3,109.3 492.3,131.4 481.3,129.6 481.3,118 			"/>
        <polygon class="st6" points="478.1,114.8 463.4,117.8 452.5,120 448.3,119.3 477.2,113.4 481.5,114.1 			"/>
        <polygon class="st5" points="463.3,172.8 463.4,117.8 478.1,114.8 478.1,181.4 			"/>
        <path class="st5" d="M478.1,181.4l0.1-66.6l3.3-0.7l11.9-9.4l13.8,15.4l0,11.1v1.6l0,50.5l-21.6,2.5L478.1,181.4z M492.3,131.4
			v-22.1l-10.9,8.7l0,11.6L492.3,131.4z M503.4,134.3l-10.4-1.7v3.6v12.2l0,2.5l10.4-4.2L503.4,134.3z"/>
        <polygon class="st6" points="507.2,131.3 507.2,120.2 510.5,119.5 510.5,130.7 			"/>
        <polygon class="st6" points="507.2,120.2 493.4,104.7 495.7,102.9 510.5,119.5 			"/>
        <polygon class="st6" points="448.3,119.3 466.7,104.1 495.7,97.8 477.2,113.4 			"/>
        <polygon class="st5" points="510.5,119.5 495.7,102.9 493.4,104.7 481.5,114.1 477.2,113.4 495.7,97.8 515,120.4 515,131.4
			510.5,130.7 			"/>
        <polygon class="st6" points="515,131.4 507.2,132.8 507.2,131.3 510.5,130.7 			"/>
        <polygon class="st6" points="493,132.5 503.4,134.3 493,136.1 			"/>
        <polygon class="st6" points="503.4,134.3 503.4,146.6 493,148.3 493,136.1 			"/>
        <polygon class="st6" points="503.4,146.6 493,150.8 493,148.3 			"/>
</g>


    <g id="right-window">
	<g>
		<path class="st7" d="M107.3,284.4l3.3-20.2l5.2-17.8l6.8-14.4l8-9.9l8.9-4.6l9.1,1.3l8.8,7.4l7.8,13.4l6.1,18.6l3.8,22.5
			l1.2,24.6l-1.6,24.8l-4.2,22.8l-6.5,19l-8.1,13.8l-9.1,7.7l-9.3,1.4l-8.9-4.6l-7.9-10l-6.5-14.6l-4.8-18l-2.8-20.3l-0.8-21.4
			L107.3,284.4z M170,284.2l-3.3-19.4l-5.2-16.1l-6.7-11.7l-7.6-6.6l-7.9-1.3l14.2,145.8l7-12l5.5-16.4l3.6-19.6l1.4-21.3
			L170,284.2z M110.7,324.6l2.5,17.8l4.2,15.7l5.7,12.6l6.9,8.6l7.7,3.8l8.1-1.4l-7.2-76L110.7,324.6z M118.6,253.8l-4.5,15.5
			l-2.9,17.7l-1.2,18.8l0.2,4.5l27-19.3l-5.5-58.2l-7.1,8.5L118.6,253.8z"/>
        <polygon class="st8" points="163.4,385 154.2,392.7 146.9,393.4 156,385.6 				"/>
        <polygon class="st8" points="163.4,385 156,385.6 164.1,371.9 171.5,371.3 				"/>
        <polygon class="st8" points="146.9,393.4 154.2,392.7 144.9,394.1 137.6,394.8 				"/>
        <polygon class="st8" points="171.5,371.3 164.1,371.9 170.5,352.9 178,352.5 				"/>
        <polygon class="st8" points="182.2,329.8 178,352.5 170.5,352.9 174.7,330.1 				"/>
        <polygon class="st8" points="182.2,329.8 174.7,330.1 176.3,305.4 183.8,305.2 				"/>
        <polygon class="st8" points="183.8,305.2 176.3,305.4 175.1,280.7 182.6,280.7 				"/>
        <polygon class="st8" points="178.7,258.4 182.6,280.7 175.1,280.7 171.3,258.2 				"/>
        <polygon class="st8" points="178.7,258.4 171.3,258.2 165.2,239.6 172.6,239.9 				"/>
        <polygon class="st8" points="172.6,239.9 165.2,239.6 157.5,226.3 164.8,226.6 				"/>
        <polygon class="st8" points="155.9,219.2 164.8,226.6 157.5,226.3 148.7,218.8 				"/>
        <polygon class="st8" points="155.9,219.2 148.7,218.8 139.5,217.6 146.6,217.9 				"/>
	</g>
        <g>
		<polygon class="st9" points="166.8,264.8 170,284.2 171,305.4 169.7,326.7 166.1,346.3 160.6,362.8 153.6,374.8 139.4,229 147.3,230.3 154.9,236.9 161.6,248.6 				"/>
            <polygon class="st9" points="113.2,342.4 110.7,324.6 138.6,305.6 145.8,381.7 137.7,383.1 130,379.3 123.1,370.7 117.4,358.1"/>
            <polygon class="st9" points="114.1,269.4 118.6,253.8 124.6,241.4 131.6,232.8 137.2,291 110.2,310.3 110,305.8 111.2,287.1"/>
	</g>
</g>


    <g>
	<g>
		<g>
			<polygon class="st0" points="514.5,410 528,408 574.8,414.8 654.8,401.6 654.7,398.7 670.6,400.5 684.1,402.1 580.9,419.9 			"/>
            <polygon class="st4" points="514.5,426.6 514.5,410 580.9,419.9 580.9,437.8 			"/>
            <polygon class="st0" points="528,394.2 608.6,383.6 654.7,388.5 574.7,400.2 			"/>
            <polygon class="st4" points="528,408 528,394.2 574.7,400.2 574.8,414.8 			"/>
            <polygon class="st4" points="684.3,417.7 580.9,437.8 580.9,419.9 684.1,402.1 			"/>
            <polygon class="st4" points="654.8,401.6 574.8,414.8 574.7,400.2 654.7,388.5 654.7,398.7 			"/>
		</g>
	</g>


        <g>
		<g>
			<polygon class="st9" points="274.2,409 275,342.8 375.4,337.3 375,397.4 			"/>
            <g>
				<path class="st7" d="M481.4,251l-0.1,144.3l-218.3,27.5l2.3-179.3L388,193.6L481.4,251z M275,342.8l-0.8,66.2L375,397.4
					l0.4-60.1L275,342.8z M473.9,386.1l0.1-54.2l-85,4.7l-0.4,59.3L473.9,386.1z M275.9,266.5l-0.7,59.6l100.3-4l0.4-54.1
					L275.9,266.5z M474.1,269.3l-84.7-1.2l-0.3,53.4l85-3.4L474.1,269.3z M474.1,257.4l-86.3-52.1l-111.7,46.8L474.1,257.4z"/>
                <polygon class="st8" points="262.9,422.7 256.2,421.2 258.5,243.9 265.1,243.5 				"/>
                <polygon class="st8" points="388,193.6 265.1,243.5 258.5,243.9 380.8,194.4 				"/>
			</g>
            <polygon class="st9" points="474,331.9 473.9,386.1 388.6,395.9 388.9,336.6 			"/>
            <polygon class="st9" points="275.2,326 275.9,266.5 375.9,267.9 375.5,322.1 			"/>
            <polygon class="st9" points="389.3,268.1 474.1,269.3 474,318.2 389,321.5 			"/>
            <polygon class="st9" points="387.8,205.3 474.1,257.4 276.1,252.1 			"/>
		</g>
            <g>
			<g>
				<path class="st7" d="M754.4,257.4l1.4,100.2l-98,11.8l-1-115.9l53.2-34.5L754.4,257.4z M662,318l0.4,42.9l43.8-4.8l-0.4-40.2
					L662,318z M752.1,351.1l-0.5-37.5l-39.7,2l0.4,39.9L752.1,351.1z M661.6,268.5l0.3,38.7l43.7-1.5l-0.4-36.3L661.6,268.5z
					 M751,270.2l-39.7-0.8l0.4,36l39.7-1.4L751,270.2z M750.9,261.9L710,227l-48.5,32L750.9,261.9z"/>
                <polygon class="st8" points="657.8,369.5 650.5,368.8 649.6,253.8 656.8,253.6 				"/>
                <polygon class="st8" points="710,219.1 656.8,253.6 649.6,253.8 702.9,219.5 				"/>
			</g>
                <g>
				<polygon class="st9" points="662.4,360.9 662,318 705.7,315.9 706.2,356.1 				"/>
                    <polygon class="st9" points="751.6,313.6 752.1,351.1 712.3,355.4 711.9,315.6 				"/>
                    <polygon class="st9" points="661.9,307.2 661.6,268.5 705.2,269.3 705.6,305.6 				"/>
                    <polygon class="st9" points="711.4,269.4 751,270.2 751.5,304.1 711.8,305.4 				"/>
                    <polygon class="st9" points="710,227 750.9,261.9 661.5,259.1 				"/>
			</g>
		</g>
            <polygon class="st8" points="562,327.5 565.9,327.2 565.9,323.9 568.5,323.7 568.5,317.6 596.1,316.4 596.3,367.8 562.1,371.6
			"/>
            <g>
			<polygon class="st7" points="568.5,314.3 562.5,314.5 558.5,314.4 564.4,314.2 			"/>
                <polygon class="st7" points="562.5,324 558.5,323.8 558.5,314.4 562.5,314.5 			"/>
                <polygon class="st7" points="562.5,324 562.5,314.5 568.5,314.3 568.5,317.6 568.5,323.7 565.9,323.9 			"/>
                <path class="st7" d="M556.3,383l-0.4-123.2l44.9,1.2l0.6,116.5L556.3,383z M565.9,327.2l-3.9,0.2l0.1,44.1l34.2-3.7l-0.3-51.5
				l-27.6,1.2l0-3.3l-4-0.1l-6,0.2l0,9.5l4,0.2l3.4-0.2L565.9,327.2z M578.2,308l-0.1-34.9l-2.1,1.7l-2,2l-1.9,2.3l-1.8,2.5
				l-1.7,2.8l-1.5,3l-1.3,3.2l-1.2,3.3l-1,3.5l-0.8,3.6l-0.6,3.7l-0.4,3.8L578.2,308z M582.4,307.9l13.6-0.4l-0.1-3.5l-0.3-3.5
				l-0.5-3.4l-0.7-3.4l-0.9-3.2l-1.1-3.1l-1.3-2.9l-1.5-2.7l-1.6-2.5l-1.8-2.2l-1.9-2l-2.1-1.7L582.4,307.9z"/>
                <polygon class="st7" points="545.2,392.2 544.9,247.7 549.9,247.5 550.2,392.8 			"/>
                <path class="st8" d="M550.2,392.8l-0.4-145.3l56.2,2.4l0.8,135.4L550.2,392.8z M555.9,259.7l0.4,123.2l45.1-5.5L600.8,261
				L555.9,259.7z"/>
		</g>
            <polygon class="st8" points="578.1,273.2 578.2,308 561.8,308.6 562.2,304.8 562.7,301.1 563.5,297.5 564.5,294 565.6,290.6
			567,287.4 568.5,284.4 570.2,281.7 572,279.2 573.9,276.9 575.9,274.9 		"/>
            <polygon class="st8" points="596,307.5 582.4,307.9 582.3,273.2 584.3,274.9 586.3,276.9 588.1,279.1 589.7,281.6 591.2,284.3
			592.5,287.3 593.6,290.4 594.5,293.6 595.2,297 595.7,300.4 596,303.9 		"/>
	</g>
</g>
</svg>
