<?xml version="1.0" encoding="utf-8"?>
<!-- Generator: Adobe Illustrator 25.0.1, SVG Export Plug-In . SVG Version: 6.00 Build 0)  -->
<svg version="1.1" id="katman_1" xmlns="http://www.w3.org/2000/svg" x="0px" y="0px"
     viewBox="0 0 841.9 595.3" style="enable-background:new 0 0 841.9 595.3;" xml:space="preserve">
<style type="text/css">
	.st0{fill:#8F6645;}
	.st1{fill:#EEEEEE;}
	.st2{fill:#DDDDDD;}
	.st3{fill:#3D3A37;}
	.st4{fill:#C4C4C4;}
	.st5{fill:#3D3A37;}
	.st6{fill:#000000;}
	.st7{fill:#FFFFFF;}
	.st8{fill:#888888;}
	.st9{fill:#7884AF;}
</style>

    <g id="roof">
	<polygon class="st1" points="133,188.5 71.5,231.3 58,232.1 58.3,217.2 71.8,216.1 133.3,169.6 204.7,202.4 204.5,220.2 			"/>
        <polygon class="st1" points="58,232.1 71.5,231.3 71.4,232.8 			"/>
        <polygon class="st1" points="204.5,220.2 204.7,202.4 249.1,181.5 268.2,172.5 341.4,188.6 341.4,208.8 268.1,195.9 			"/>
        <polygon class="st1" points="341.4,208.8 341.4,188.6 352.4,182.1 361.5,176.7 392.9,158.1 408.1,149.1 457.5,119.9 604.5,161.4
			640.9,157.6 641.4,183.8 604.9,186.8 457.7,146.4 			"/>
        <polygon class="st3" points="204.7,202.4 133.3,169.6 249.1,181.5 			"/>
        <polygon class="st1" points="795.5,187.9 796,208.3 641.4,183.8 640.9,157.6 649.9,159.4 			"/>
        <polygon class="st2" points="641.4,183.8 796,208.3 764.1,210.1 757.4,209.2 604.9,186.8 			"/>
        <polygon class="st3" points="640.9,157.6 604.5,161.4 457.5,119.9 630.7,154.2 649.9,159.4 			"/>
        <polygon class="st3" points="341.4,188.6 268.2,172.5 352.4,182.1 			"/>
</g>


    <g id=" body">
	<polygon class="st4" points="323.5,407.3 323.5,424 257,432.6 257,414.8 			"/>
        <polygon class="st0" points="310.3,405.8 323.5,407.3 257,414.8 152.1,401.2 182,398.5 182,400.8 263.2,411 			"/>
        <polygon class="st4" points="310.3,391.9 310.3,405.8 263.2,411 263.3,396.4 			"/>
        <polygon class="st0" points="228.4,383.7 310.3,391.9 263.3,396.4 182.1,387.5 			"/>
        <polygon class="st0" points="323.5,424 323.5,407.3 310.3,405.8 310.3,391.9 228.4,383.7 182.1,387.5 182,398.5 152.1,401.2
			68.9,390.8 71.4,232.8 71.5,231.3 133,188.5 204.5,220.2 268.1,195.9 341.4,208.8 457.7,146.4 604.9,186.8 609,461.2 			"/>
        <polygon class="st4" points="604.9,186.8 757.4,209.2 762.5,425.8 609,461.2 			"/>
        <polygon class="st4" points="257,432.6 151.9,416.9 152.1,401.6 257,414.8 			"/>
        <polygon class="st4" points="263.2,411 182,400.8 182,398.5 182.1,387.5 263.3,396.4 			"/>
</g>


    <g id="chimney">
	<g>
		<polygon class="st6" points="408,119 408.1,149.1 392.9,158.1 392.8,116.1 			"/>
        <polygon class="st5" points="408,119 392.8,116.1 389.3,115.5 394.5,114.6 424.5,120.3 419.3,121.1 			"/>
        <path class="st5" d="M392.8,116.1l0.1,42l-31.4,18.6l0-65.5v-1.5l13.9-16.2l14,9.9l0,12.1L392.8,116.1z M364.7,123.6l11.5-1.9
			l0-7.9l0-15.4l-11.5,13.3L364.7,123.6z M388.5,120.8l-11.5,1.9l0,19.3l11.5-7.8l0-9.4L388.5,120.8z"/>
        <polygon class="st5" points="375.3,93.5 361.4,109.6 358,109 372.8,91.7 			"/>
        <polygon class="st5" points="402.8,92.7 424.5,108.5 394.5,102.4 372.8,86.3 			"/>
        <polygon class="st6" points="372.8,91.7 358,109 353.7,109.7 372.8,86.3 394.5,102.4 394.5,114.6 389.3,115.5 389.3,103.4
			375.3,93.5 			"/>
        <polygon class="st6" points="353.7,109.7 358,109 361.4,109.6 361.4,111.2 			"/>
        <polygon class="st5" points="394.5,102.4 424.5,108.5 424.5,120.3 394.5,114.6 			"/>
        <polygon class="st6" points="376.2,121.7 364.7,123.6 364.7,111.7 376.2,113.8 			"/>
        <polygon class="st6" points="376.2,113.8 364.7,111.7 376.2,98.4 			"/>
        <polygon class="st6" points="377,122.7 388.5,120.8 388.5,124.7 			"/>
        <polygon class="st6" points="377,122.7 388.5,124.7 388.5,134.1 377,141.9 			"/>
	</g>
</g>


    <g id="left-window">
	<g>
		<path class="st7" d="M685,214.8l38.2,4.8l1.8,80.2l-0.5,21.5l-2.9,20.4l-5.2,18.2l-7.2,14.8l-8.9,10.3l-10,5l-10.5-1l-10.3-7.1
			l-9.3-13l-7.5-18.2l-5.1-22l-2.2-24.1l0.9-24.2L650,258l6.4-18.8l8.5-14l9.8-8.2L685,214.8z M719,229.3l-33.6-3.6l2.3,76.3
			l32.8-0.4l0-1.6L719,229.3z M676.3,227.8l-8.5,7.3l-7.3,12.3l-5.5,16.4l-3.3,19.5l-0.7,21l1.9,20.9l4.4,19.1l6.5,15.8l8.1,11.5
			l9,6.3l9.2,1l8.8-4.2l7.8-8.9l6.4-12.9l4.6-15.9l2.6-18l0.2-9.4l-37.8,1l-1.6-83.7L676.3,227.8z"/>
        <polygon class="st8" points="685,214.8 674.7,217 668,217.4 678.4,215.2 				"/>
        <polygon class="st8" points="674.7,217 664.9,225.2 658.1,225.6 668,217.4 				"/>
        <polygon class="st8" points="664.9,225.2 656.5,239.2 649.6,239.5 658.1,225.6 				"/>
        <polygon class="st8" points="656.5,239.2 650,258 643.1,258.2 649.6,239.5 				"/>
        <polygon class="st8" points="650,258 646.2,280.4 639.3,280.5 643.1,258.2 				"/>
        <polygon class="st8" points="646.2,280.4 645.3,304.6 638.4,304.6 639.3,280.5 				"/>
        <polygon class="st8" points="645.3,304.6 647.6,328.7 640.6,328.5 638.4,304.6 				"/>
        <polygon class="st8" points="647.6,328.7 652.7,350.7 645.7,350.4 640.6,328.5 				"/>
        <polygon class="st8" points="652.7,350.7 660.2,368.8 653.3,368.4 645.7,350.4 				"/>
        <polygon class="st8" points="660.2,368.8 669.5,381.9 662.6,381.4 653.3,368.4 				"/>
        <polygon class="st8" points="669.5,381.9 679.8,389 673,388.5 662.6,381.4 				"/>
        <polygon class="st8" points="679.8,389 690.3,389.9 683.6,389.5 673,388.5 				"/>
	</g>
        <g>
		<polygon class="st9" points="685.4,225.7 719,229.3 720.5,300 720.5,301.6 687.7,302 				"/>
            <polygon class="st9" points="667.8,235.1 676.3,227.8 680.9,226.7 682.5,310.5 720.3,309.5 720.1,318.9 717.5,336.9
				712.9,352.8 706.5,365.7 698.8,374.7 690,378.9 680.8,377.9 671.8,371.5 663.8,360.1 657.3,344.2 652.9,325.2 651,304.3
				651.7,283.3 655,263.8 660.5,247.4 				"/>
	</g>
</g>


    <g>
	<g>
		<g>
			<polygon class="st8" points="243.7,324 247.5,324.1 247.5,314.7 278.4,315.4 278.2,369.6 243.5,366.8 			"/>
            <polygon class="st8" points="242.1,311.2 236.5,311.1 238.4,311.1 240.6,311.1 246.2,311.2 			"/>
            <g>
				<path class="st7" d="M238.4,311.1l0.3-52.6l45.5-1.8l-0.5,124.2l-45.8-4.2l0.4-56.4l3.7,0.1l4.1-0.1l0.1-9.2l-5.6-0.1
					L238.4,311.1z M247.5,324.1l-3.7-0.1l-0.3,42.9l34.7,2.8l0.2-54.2l-30.9-0.7L247.5,324.1z M259.7,305.8l0.2-35.2l-2.2,1.8
					l-2,2.1l-1.9,2.3l-1.8,2.6l-1.6,2.8l-1.5,3l-1.3,3.1l-1.1,3.3l-0.9,3.4l-0.8,3.5l-0.6,3.6l-0.4,3.7L259.7,305.8z M264,305.8
					l14.5,0.2l0-3.7l-0.3-3.7l-0.5-3.6l-0.7-3.5l-1-3.4l-1.2-3.2l-1.4-3l-1.6-2.8l-1.7-2.5l-1.9-2.3l-2-2l-2.1-1.6L264,305.8z"/>
                <polygon class="st8" points="236.5,320.3 236.5,311.1 242.1,311.2 242.1,320.4 238.3,320.3 				"/>
                <polygon class="st8" points="242.1,320.4 242.1,311.2 246.2,311.2 246.1,320.4 				"/>
                <path class="st8" d="M232.5,384.8l0.9-137.5l56.9-3l-0.5,146.2L232.5,384.8z M238.7,258.5l-0.3,52.6l-1.9,0l-0.1,9.2l1.9,0.1
					l-0.4,56.4l45.8,4.2l0.5-124.2L238.7,258.5z"/>
                <polygon class="st7" points="295.3,244.7 294.9,390.1 289.8,390.6 290.3,244.4 				"/>
			</g>
            <polygon class="st8" points="259.9,270.6 259.7,305.8 243.7,305.6 244.1,301.9 244.7,298.4 245.4,294.8 246.4,291.5 247.5,288.2
				248.8,285.1 250.3,282.1 252,279.4 253.7,276.8 255.7,274.5 257.7,272.4 			"/>
            <polygon class="st8" points="278.4,306 264,305.8 264.1,270.5 266.3,272.2 268.3,274.1 270.1,276.4 271.9,279 273.4,281.8
				274.8,284.8 276,288 276.9,291.4 277.6,295 278.2,298.6 278.4,302.3 			"/>
		</g>
        <g>
			<polygon class="st9" points="76.9,357 77.5,318.2 117.3,319.5 116.8,360.3 			"/>
            <g>
				<polygon class="st8" points="175.3,373.5 176.5,255.5 183.8,255.7 182.7,373 				"/>
                <path class="st7" d="M176.5,255.5l-1.2,118L73,363.8l1.7-103.7l49.5-39.9L176.5,255.5z M77.5,318.2L76.9,357l39.9,3.4l0.5-40.9
					L77.5,318.2z M170.6,364.9l0.4-43.7l-47.4-1.5l-0.5,41.2L170.6,364.9z M78.2,273.3l-0.5,35l39.8,0.7l0.5-36.9L78.2,273.3z
					 M171.6,270.7l-47.3,1.3l-0.5,37.2l47.3,0.9L171.6,270.7z M171.7,261L124,228.4l-45.6,36.4L171.7,261z"/>
                <polygon class="st8" points="176.5,255.5 124.1,220.3 131.2,220.7 183.8,255.7 				"/>
			</g>
            <polygon class="st9" points="171,321.2 170.6,364.9 123.2,360.9 123.7,319.7 			"/>
            <polygon class="st9" points="77.6,308.3 78.2,273.3 118,272.2 117.5,309.1 			"/>
            <polygon class="st9" points="124.3,272 171.6,270.7 171.2,310.1 123.8,309.2 			"/>
            <polygon class="st9" points="124,228.4 171.7,261 78.3,264.8 			"/>
		</g>
        <g>
			<polygon class="st9" points="358.7,376.2 358.6,322.7 435.8,324.9 436.1,382.4 			"/>
            <g>
				<polygon class="st8" points="556.1,403.9 554,232.9 561,233.4 563.1,402.9 				"/>
                <path class="st7" d="M554,232.9l2.1,171l-204.5-18.3l0-142.5l94.3-57.7L554,232.9z M358.6,322.7l0,53.5l77.4,6.2l-0.3-57.5
					L358.6,322.7z M545.8,391.2l-0.7-63.3l-96.6-2.7l0.3,58.2L545.8,391.2z M358.6,261l0,48.2l77.1,1.1l-0.3-51.8L358.6,261z
					 M544.2,255l-96.2,3.1l0.3,52.4l96.5,1.4L544.2,255z M544,241.1l-98.2-44.2l-87.3,52.5L544,241.1z"/>
                <polygon class="st8" points="554,232.9 445.9,185.4 453.2,186.3 561,233.4 				"/>
			</g>
            <polygon class="st9" points="545.1,327.9 545.8,391.2 448.8,383.4 448.5,325.2 			"/>
            <polygon class="st9" points="358.6,309.2 358.6,261 435.5,258.5 435.8,310.3 			"/>
            <polygon class="st9" points="448.1,258.1 544.2,255 544.9,311.9 448.4,310.5 			"/>
            <polygon class="st9" points="445.9,196.9 544,241.1 358.6,249.3 			"/>
		</g>
	</g>
</g>
</svg>
