<?xml version="1.0" encoding="utf-8"?>
<!-- Generator: Adobe Illustrator 25.0.1, SVG Export Plug-In . SVG Version: 6.00 Build 0)  -->
<svg version="1.1" id="katman_1" xmlns="http://www.w3.org/2000/svg" x="0px" y="0px"
     viewBox="0 0 841.9 595.3" style="enable-background:new 0 0 841.9 595.3;" xml:space="preserve">
<style type="text/css">
	.st0{fill:#8F6645;}
	.st1{fill:#EEEEEE;}
	.st2{fill:#DDDDDD;}
	.st3{fill:#3D3A37;}
	.st4{fill:#C4C4C4;}
	.st5{fill:#3D3A37;}
	.st6{fill:#000000;}
	.st7{fill:#FFFFFF;}
	.st8{fill:#888888;}
	.st9{fill:#7884AF;}
</style>

    <g id="body">
	<g>
		<polygon class="st0" points="780.7,406.8 664,425.4 661.1,230.5 674.2,229.4 727.2,204.6 776.7,247.4 776.8,249.4 			"/>
        <polygon class="st0" points="661.1,230.5 664,425.4 633.1,422.6 630.7,233.1 647.3,231.6 			"/>
	</g>
        <polygon class="st0" points="630.7,233.1 633.1,422.6 533.9,437.3 532.9,211.7 546.8,210.1 546.8,209.5 572,206 		"/>

        <g>
		<polygon class="st4" points="78.5,210.1 255.4,171.1 249.4,491.7 70.5,448 		"/>
            <polygon class="st0" points="415.7,136.3 532.9,211.7 533.9,437.3 533.9,446.2 249.4,491.7 255.4,171.1 		"/>
	</g>
</g>


    <g id="roof">
	<polygon class="st1" points="788.1,231.4 799.2,233.1 799.7,248 788.6,246.7 736.3,200.4 727.2,204.6 674.2,229.4 673.9,210.8
		735.9,181.1 		"/>
        <polygon class="st1" points="43.1,184.1 227.4,130.5 226.7,161.7 42.2,206.7 		"/>
        <polygon class="st2" points="42.2,206.7 226.7,161.7 269.1,168.1 255.4,171.1 78.5,210.1 		"/>
        <polygon class="st1" points="226.7,161.7 227.4,130.5 269.6,138.1 429.9,103.5 464.3,128.4 481.8,141.1 512.1,163.1 543.5,185.8
		545.4,187.2 546.7,188.1 546.8,209.5 546.8,210.1 429.8,133.2 269.1,168.1 		"/>
        <polygon class="st2" points="647.3,231.6 630.7,233.1 572,206 588.4,203.7 		"/>
        <polygon class="st1" points="661.1,230.5 647.3,231.6 647,213.5 673.9,210.8 674.2,229.4 		"/>
        <polygon class="st2" points="776.7,247.4 727.2,204.6 736.3,200.4 788.6,246.7 		"/>
        <polygon class="st2" points="546.8,210.1 532.9,211.7 415.7,136.3 429.8,133.2 		"/>
        <polygon class="st3" points="616.1,195.6 735.9,181.1 673.9,210.8 647,213.5 		"/>
        <polygon class="st3" points="543.5,185.8 588.2,179.5 545.4,187.2 		"/>
        <polygon class="st1" points="545.4,187.2 588.2,179.5 616.1,195.6 647,213.5 647.3,231.6 588.4,203.7 572,206 546.8,209.5
		546.7,188.1 		"/>
        <polygon class="st2" points="799.7,248 776.8,249.4 776.7,247.4 788.6,246.7 		"/>
</g>

    <g id="chimney">
	<polygon class="st5" points="464.3,121.9 481.8,118 481.8,141.1 464.3,128.4 		"/>
        <polygon class="st5" points="481.8,118 464.3,121.9 460.5,122.7 455.4,121.5 490.6,113.5 495.6,114.9 		"/>
        <path class="st6" d="M481.8,141.1l0-23.1l13.9-3.1l0-12.9l5.2-3.6l11.2,15l0,2l0.1,47.8L481.8,141.1z M497.1,125.9l-11.1-2.8v5.1
		l0,8.9l11.2,9L497.1,125.9z M497.8,125l11.1,2.7l0-12.5l-11.1-14.7l0,17.1L497.8,125z"/>
        <polygon class="st5" points="512,113.4 500.8,98.4 511.5,90.9 525.8,110.3 		"/>
        <polygon class="st6" points="511.5,85.2 529.8,111.4 525.8,110.3 511.5,90.9 500.8,98.4 495.6,102 495.6,114.9 490.6,113.5
		490.5,100.6 		"/>
        <polygon class="st5" points="511.5,85.2 490.5,100.6 455.4,109 476.5,94 		"/>
        <polygon class="st6" points="525.8,110.3 529.8,111.4 512,115.3 512,113.4 		"/>
        <polygon class="st5" points="455.4,109 490.5,100.6 490.6,113.5 455.4,121.5 		"/>
        <polygon class="st5" points="497.1,125.9 486,128.3 486,123.2 		"/>
        <polygon class="st5" points="486,128.3 497.1,125.9 497.1,146.1 486,137.2 		"/>
        <polygon class="st6" points="508.9,115.3 497.8,117.7 497.8,100.6 		"/>
        <polygon class="st6" points="497.8,117.7 508.9,115.3 508.9,127.8 497.8,125 		"/>
</g>


    <g id="left-window">
	<path class="st7" d="M147.5,224.7l49.2-9.7l-2.5,102.7l-2.2,27.5l-5.5,25.6l-8.4,21.6l-10.5,15.9l-11.7,9.3l-12,2.3l-11.3-4.4
		l-10-10.5l-8.2-15.6l-5.9-19.5L105,348l-0.8-23.5l1.8-23.6l4.4-22.4l6.7-20l8.7-16.4l10.3-11.6L147.5,224.7z M189.8,229.2
		l-42.6,7.5l-1.5,84.7l41.8-1.1l0.2-2L189.8,229.2z M137.3,241.7l-9.1,10.1l-7.7,14.3l-5.9,17.5l-3.9,19.7l-1.6,20.8l0.7,20.7
		l3,19.4l5.2,17l7.2,13.5l8.8,9l9.9,3.7l10.4-2.2l10.1-8.3l9.1-14l7.2-18.8l4.8-22.2l0.9-11.9l-47.1,0.5l2.6-91.5L137.3,241.7z"/>
        <polygon class="st8" points="192,345.2 194.2,317.7 202.1,317.8 199.9,345.2 		"/>
        <polygon class="st8" points="155.9,417.7 167.5,408.4 175.4,407.9 163.6,417.2 		"/>
        <polygon class="st8" points="167.5,408.4 178.1,392.5 185.9,392.1 175.4,407.9 		"/>
        <polygon class="st8" points="178.1,392.5 186.5,370.9 194.4,370.6 185.9,392.1 		"/>
        <polygon class="st8" points="186.5,370.9 192,345.2 199.9,345.2 194.4,370.6 		"/>
        <polygon class="st8" points="194.2,317.7 196.7,215 204.5,215.9 202.1,317.8 		"/>
        <g>
		<polygon class="st9" points="147.2,236.7 189.8,229.2 187.6,318.2 187.5,320.2 145.7,321.4 			"/>
            <polygon class="st9" points="128.2,251.8 137.3,241.7 142.2,239.2 139.6,330.7 186.7,330.2 185.8,342 181,364.2 173.8,383
			164.7,397 154.5,405.3 144.1,407.5 134.2,403.9 125.3,394.9 118.1,381.3 112.9,364.3 109.8,344.8 109.1,324.1 110.7,303.3
			114.6,283.6 120.5,266.1 			"/>
	</g>
</g>

    <g>
	<g>
		<polygon class="st9" points="576.5,267.1 580.1,267.7 587.1,270.3 593.9,274.1 600.3,279.1 606.2,285.2 609.5,289.5 610.9,416
			577.7,420.4 577.2,358.3 582.3,358.1 582.3,355.9 583.4,355.8 583.3,347.1 582.2,347.1 582.2,343.6 577.1,343.7 		"/>
        <polygon class="st9" points="566.6,421.9 533,426.4 532.4,285.4 536.3,281.1 543.3,275.3 550.5,271 557.9,268 565.4,266.5
			566,344 561.2,344.1 561.3,359.1 566.1,358.8 		"/>
        <g>
			<polygon class="st8" points="525.6,439.3 521.4,438.8 521.4,423.6 524.4,423.2 523.9,279.2 524.9,279.2 			"/>
            <path class="st8" d="M616.9,425.6l-91.3,13.7l-0.6-160.1l7.4-7.9l7.8-6.3l8-4.7l8.2-3.1l8.2-1.5l8.2,0l8,1.5l7.7,3l7.4,4.3l7,5.6
				l6.5,6.7l5.9,7.8L616.9,425.6z M580.1,267.7l-3.6-0.6l0.6,76.7l5-0.1l0,3.5l-2.5-0.1l-5.2,0.2l0.1,8.7l3.6,0.1l4.1-0.2l0,2.2
				l-5.1,0.2l0.5,62.1l33.1-4.4l-1.4-126.5l-3.3-4.2l-5.9-6.1l-6.4-5l-6.7-3.8L580.1,267.7z M533,426.4l33.5-4.5l-0.5-63.1l-4.8,0.2
				l-0.1-14.9l4.8-0.1l-0.6-77.5l-7.5,1.5l-7.4,2.9l-7.2,4.4l-7,5.8l-3.9,4.3L533,426.4z M564,347.9l0.1,8.2l3.6,0.1l5-0.2l-0.1-8.2
				l-3.6-0.1L564,347.9z"/>
            <polygon class="st7" points="540.1,265 532.3,271.3 528.2,271.5 536,265.3 			"/>
            <polygon class="st7" points="532.3,271.3 524.9,279.2 523.9,279.2 523.9,276.2 528.2,271.5 			"/>
            <polygon class="st7" points="548.1,260.3 540.1,265 536,265.3 544.1,260.5 			"/>
            <polygon class="st7" points="556.3,257.2 548.1,260.3 544.1,260.5 552.3,257.4 			"/>
            <polygon class="st7" points="564.6,255.6 556.3,257.2 552.3,257.4 560.5,255.9 			"/>
            <polygon class="st7" points="574.5,347.2 579.7,347.1 582.2,347.1 583.3,347.1 578.1,347.3 			"/>
            <polygon class="st7" points="574.6,356 574.5,347.2 578.1,347.3 578.1,356.1 			"/>
            <polygon class="st7" points="583.3,347.1 583.4,355.8 582.3,355.9 578.1,356.1 578.1,347.3 			"/>
            <polygon class="st7" points="564.1,356.1 564,347.9 567.6,348 567.7,356.2 			"/>
            <polygon class="st7" points="564,347.9 569,347.8 572.6,347.8 567.6,348 			"/>
            <polygon class="st7" points="567.7,356.2 567.6,348 572.6,347.8 572.7,356 			"/>
		</g>
	</g>
        <g>
		<path class="st7" d="M680.1,403.2l-2.5-148.3l94.5,10.8l3.1,125.2L680.1,403.2z M682.6,321.5l44.5,0.3l-1.1-54.4l-44.4-4.6
			L682.6,321.5z M771,334.5l-38,0.7l1.2,54.1l38.1-4.4L771,334.5z M770.7,322l-1.2-50.2l-37.9-3.9l1.2,53.9L770.7,322z M682.9,336.1
			l1,59l44.7-5.2l-1.2-54.6L682.9,336.1z"/>
            <polygon class="st8" points="677.6,254.9 680.1,403.2 671.5,402.6 669.1,255.5 		"/>
	</g>
        <g>
		<polygon class="st9" points="727.1,321.7 682.6,321.5 681.6,262.8 726,267.3 		"/>
            <polygon class="st9" points="733,335.2 771,334.5 772.2,384.9 734.2,389.3 		"/>
            <polygon class="st9" points="769.4,271.8 770.7,322 732.7,321.8 731.5,267.9 		"/>
            <polygon class="st9" points="683.9,395.1 682.9,336.1 727.4,335.3 728.5,389.9 		"/>
	</g>
        <polygon class="st7" points="140.8,408.1 152.8,405.7 160.6,405.2 148.5,407.5 	"/>
        <g>
		<g>
			<path class="st7" d="M284.2,208.2l227,26l0.1,38.9l0,3l0.6,144l-3.1,0.4l-228.4,29.3L284.2,208.2z M292.8,316.3l112,0.7l0.4-84.2
				l-111.1-11.4L292.8,316.3z M505.4,336.1l-87.3,1.6l-0.3,83.7l87.9-10.2L505.4,336.1z M505.4,317.5l-0.3-74.5l-86.6-8.9l-0.3,82.9
				L505.4,317.5z M292.4,340l-1.4,96.1L404.3,423l0.4-85.1L292.4,340z"/>
            <polygon class="st8" points="284.2,208.2 280.5,449.9 271.4,448.3 275.2,209.6 			"/>
		</g>
            <polygon class="st9" points="404.8,316.9 292.8,316.3 294.2,221.4 405.2,232.7 		"/>
            <polygon class="st9" points="418.1,337.7 505.4,336.1 505.7,411.3 417.8,421.4 		"/>
            <polygon class="st9" points="505.1,243 505.4,317.5 418.2,317 418.5,234.1 		"/>
            <polygon class="st9" points="291,436.1 292.4,340 404.7,337.9 404.3,423 		"/>
	</g>
</g>
</svg>
