<?xml version="1.0" encoding="utf-8"?>
<!-- Generator: Adobe Illustrator 25.0.1, SVG Export Plug-In . SVG Version: 6.00 Build 0)  -->
<svg version="1.1" id="katman_1" xmlns="http://www.w3.org/2000/svg" x="0px" y="0px"
     viewBox="0 0 841.9 595.3" style="enable-background:new 0 0 841.9 595.3;" xml:space="preserve">
<style type="text/css">
	.st0{fill:#8F6645;}
	.st1{fill:#EEEEEE;}
	.st2{fill:#DDDDDD;}
	.st3{fill:#3D3A37;}
	.st4{fill:#C4C4C4;}
	.st5{fill:#3D3A37;}
	.st6{fill:#000000;}
	.st7{fill:#FFFFFF;}
	.st8{fill:#888888;}
	.st9{fill:#7884AF;}
</style>


    <g id="body">
	<polygon class="st4" points="765.2,213.8 768.2,431 634.5,476 632,188.4 			"/>
        <polygon class="st0" points="621.8,186.4 632,188.4 634.5,476 346.1,435.7 346.1,427.3 346.4,211.1 470.8,146.4 			"/>
        <polygon class="st0" points="228.3,411.9 200.2,415.4 201.5,222.6 214.2,223.5 229.4,224.6 			"/>
        <polygon class="st0" points="201.5,222.6 200.2,415.4 60.9,395.9 62.8,235.2 62.8,233.6 123,192.4 189.4,221.7 			"/>
        <polygon class="st0" points="346.1,427.3 228.3,411.9 229.4,224.6 294.5,201.2 334.5,208.1 334.4,209.9 346.4,211.1 			"/>
</g>


    <g id="roof">
	<polygon class="st2" points="765.2,213.8 632,188.4 621.8,186.4 668.2,182.1 803.1,211.3 			"/>
        <polygon class="st1" points="51.4,217.6 114.9,169.1 189.6,203.5 189.4,221.7 123,192.4 114.7,188.8 51.2,233 39,234 39.1,218.9
						"/>
        <polygon class="st2" points="294.5,201.2 229.4,224.6 214.2,223.5 281.2,199 			"/>
        <polygon class="st2" points="346.4,211.1 334.4,209.9 460.2,143.6 470.8,146.4 			"/>
        <polygon class="st1" points="460.2,143.6 334.4,209.9 334.5,208.1 334.5,188.2 337.1,186.7 343.1,183.2 349,179.8 364.6,170.8
			460.1,115.4 621.3,158.7 630.8,157.6 667.6,153.4 668.2,182.1 621.8,186.4 470.8,146.4 			"/>
        <polygon class="st1" points="281.2,199 214.2,223.5 214.3,205.7 258,185.7 281.3,175.1 337.1,186.7 334.5,188.2 334.5,208.1
			294.5,201.2 			"/>
        <polygon class="st3" points="337.1,186.7 281.3,175.1 318.1,179.9 343.1,183.2 			"/>
        <polygon class="st3" points="621.3,158.7 460.1,115.4 627.1,156.6 630.8,157.6 			"/>
        <polygon class="st3" points="189.6,203.5 114.9,169.1 258,185.7 214.3,205.7 			"/>
        <polygon class="st1" points="668.2,182.1 667.6,153.4 802.5,190.1 803.1,211.3 			"/>
        <polygon class="st3" points="39,234 51.2,233 62.8,233.6 62.8,235.2 			"/>
        <polygon class="st2" points="62.8,233.6 51.2,233 114.7,188.8 123,192.4 			"/>
        <polygon class="st1" points="214.3,205.7 214.2,223.5 201.5,222.6 189.4,221.7 189.6,203.5 			"/>
</g>


    <g id="chimney">
	<polygon class="st5" points="364.7,111.4 349.1,107.9 338.6,105.6 336.8,105.2 341.3,104.3 372.5,111.3 368,112.1 		"/>
        <g>
		<polygon class="st5" points="349.1,107.9 364.7,111.4 364.6,170.8 349,179.8 			"/>
            <path class="st5" d="M349.1,107.9l-0.1,71.9l-5.9,3.4l-25-3.3l0.1-53v-1.7l0-11.8l12.1-13.4l3.7,3l0,22.5l11.6-1.9l0-12.3
			l-7.1-5.7L349.1,107.9z M333.3,126.6l-11.1,1.8l0,13.1l11.1,4.5v-2.5l0-12.9L333.3,126.6z"/>
            <polygon class="st6" points="318.3,113.4 318.2,125.2 305.9,122.8 305.9,110.9 			"/>
            <polygon class="st6" points="330.4,100 318.3,113.4 305.9,110.9 321.7,93 			"/>
            <polygon class="st5" points="345.7,123.5 334.1,125.4 334.1,103 336.8,105.2 338.6,105.6 345.7,111.2 			"/>
            <polygon class="st5" points="301.1,111.7 321.7,87.5 341.3,104.3 336.8,105.2 334.1,103 330.4,100 321.7,93 305.9,110.9
			305.9,122.8 301,123.6 			"/>
            <polygon class="st6" points="341.3,104.3 321.7,87.5 353,95 372.5,111.3 			"/>
            <polygon class="st5" points="301,123.6 305.9,122.8 318.2,125.2 318.2,127 			"/>
            <polygon class="st5" points="322.2,141.5 333.3,143.5 333.3,146 			"/>
            <polygon class="st6" points="333.3,143.5 322.2,141.5 322.2,128.4 333.3,130.6 			"/>
            <polygon class="st6" points="333.3,130.6 322.2,128.4 333.3,126.6 			"/>
	</g>
</g>


    <g id="right-window">
	<g>
		<polygon class="st8" points="678.7,280.7 682.3,257.4 689.9,257.2 686.3,280.7 				"/>
        <polygon class="st8" points="678.7,280.7 686.3,280.7 685.5,306.1 677.9,306 				"/>
        <path class="st7" d="M686.3,280.7l3.5-23.5l5.8-19.7l7.6-14.5l8.7-8.5l9.1-2.1l8.9,4l8.1,9.5l6.9,14.2l5.3,17.9l3.5,20.5
			l1.5,21.8l-0.6,22l-2.6,21l-4.5,18.8l-6.3,15.4l-7.7,10.9l-8.7,5.5l-9.2-0.6l-9-7l-8.1-13.3l-6.6-18.8l-4.4-22.9l-1.9-25.2
			L686.3,280.7z M749.8,281.4l-3.1-17.9l-4.7-15.6l-6-12.3l-7.1-8.2l-7.7-3.3L738.8,368l5.5-13.4l4-16.4l2.3-18.4l0.5-19.3
			L749.8,281.4z M692.3,327.4l3.8,19.8l5.6,16.3l7,11.6l7.8,6.3l8,0.7l7.6-4.6l-9.2-74.5L692.3,327.4z M699.4,246.4l-5,17.1
			l-3,20.3l-0.7,21.9l0.4,5.2L721,288l-7.6-61.9l-7.5,7.5L699.4,246.4z"/>
        <polygon class="st8" points="689.9,257.2 682.3,257.4 688.2,237.7 695.7,237.4 				"/>
        <polygon class="st8" points="684.2,353.9 679.7,331.1 687.3,331.4 691.8,354.3 				"/>
        <polygon class="st8" points="684.2,353.9 691.8,354.3 698.4,373 690.9,372.6 				"/>
        <polygon class="st8" points="687.3,331.4 679.7,331.1 677.9,306 685.5,306.1 				"/>
        <polygon class="st8" points="690.9,372.6 698.4,373 706.5,386.3 699.1,385.8 				"/>
        <polygon class="st8" points="713.8,212.7 721,212.3 711.9,214.4 704.6,214.8 				"/>
        <polygon class="st8" points="688.2,237.7 695.8,223.2 703.2,222.9 695.7,237.4 				"/>
        <polygon class="st8" points="695.8,223.2 704.6,214.8 711.9,214.4 703.2,222.9 				"/>
        <polygon class="st8" points="699.1,385.8 706.5,386.3 715.5,393.3 708.2,392.8 				"/>
	</g>
        <g>
		<polygon class="st9" points="746.8,263.5 749.8,281.4 751.1,300.5 750.6,319.8 748.3,338.2 744.3,354.6 738.8,368 721.3,224.1 729,227.4 736.1,235.5 742.1,247.9 				"/>
            <polygon class="st9" points="696.1,347.1 692.3,327.4 722.9,302.9 732.1,377.4 724.5,382 716.5,381.3 708.7,375 701.7,363.4"/>
            <polygon class="st9" points="694.4,263.5 699.4,246.4 705.9,233.7 713.4,226.1 721,288 691.1,310.9 690.7,305.7 691.4,283.8"/>
	</g>
</g>


    <g>
	<g>
		<g>
			<g>
				<polygon class="st9" points="292,256.7 296.2,256.9 304.6,258.6 312.9,261.9 321,266.5 328.7,272.4 333.1,276.8 332.8,414.3
					291.5,409.2 291.7,347.7 297.6,348.1 297.6,333.5 291.8,333.2 				"/>
                <polygon class="st9" points="279.1,407.7 245.7,403.7 246.3,278 250.1,273.9 256.8,268 264,263.3 271.7,259.7 279.6,257.4
					279.4,332.7 274.2,332.4 274.2,336.4 274,344.4 274.2,346.7 279.3,347 				"/>
			</g>
            <g>
				<polygon class="st8" points="344.6,426.1 341,426.7 341.3,270.9 344.9,271 				"/>
                <path class="st8" d="M341,426.7l-102.1-13.5l0.7-140.3l6.8-7.6l7.4-6.5l7.9-5.3l8.4-4l8.8-2.6l9-1.2l9.2,0.3l9.3,1.9l9.2,3.4
					l9,5l8.6,6.5l8.1,8L341,426.7z M296.2,256.9l-4.2-0.2l-0.2,76.6l5.9,0.3l0,14.6l-5.9-0.3l-0.2,61.5l41.3,5l0.2-137.5l-4.4-4.3
					l-7.8-6l-8.1-4.6l-8.3-3.2L296.2,256.9z M245.7,403.7l33.4,4l0.2-60.8l-5.1-0.3l0-2.3l5.2,0.3l3.2-0.2l0-7.9l-5.4-0.3l-3,0.2
					l0-4l5.1,0.2l0.3-75.2l-8,2.3l-7.6,3.6l-7.2,4.7l-6.7,5.9l-3.7,4.1L245.7,403.7z M294.7,345.4l0-8.7l-6-0.3l-3.2,0.2l0,8.6
					l6,0.3L294.7,345.4z"/>
                <polygon class="st7" points="344.9,271 341.3,270.9 333.1,262.9 336.7,263 				"/>
                <polygon class="st7" points="306.3,248 297.1,246.1 300.7,246.3 310,248.1 				"/>
                <polygon class="st7" points="315.5,251.4 306.3,248 310,248.1 319.1,251.6 				"/>
                <polygon class="st7" points="324.5,256.4 315.5,251.4 319.1,251.6 328.1,256.5 				"/>
                <polygon class="st7" points="333.1,262.9 324.5,256.4 328.1,256.5 336.7,263 				"/>
                <polygon class="st7" points="277.2,336.3 282.6,336.5 279.4,336.7 274,336.4 				"/>
                <polygon class="st7" points="282.6,336.5 282.6,344.5 279.4,344.7 279.4,336.7 				"/>
                <polygon class="st7" points="274,344.4 274,336.4 279.4,336.7 279.4,344.7 274.2,344.4 				"/>
                <polygon class="st7" points="294.7,336.8 294.7,345.4 291.5,345.6 291.5,336.9 				"/>
                <polygon class="st7" points="288.8,336.5 294.7,336.8 291.5,336.9 285.5,336.6 				"/>
                <polygon class="st7" points="291.5,336.9 291.5,345.6 285.5,345.3 285.5,336.6 				"/>
			</g>
		</g>
        <g>
			<g>
				<path class="st7" d="M68.3,377.6l1.5-129.3l115.5-6.4l-1.1,149.3L68.3,377.6z M72.6,306.7l46.6,1l0.5-55.2l-46.5,2.2L72.6,306.7
					z M180,323.8l-54.2-2.1l-0.5,55.5l54.2,5.9L180,323.8z M180.1,309.1l0.4-59.4l-54.1,2.5l-0.5,55.6L180.1,309.1z M72.4,319.6
					l-0.6,51.8l46.6,5.1l0.5-55L72.4,319.6z"/>
                <polygon class="st8" points="184.2,391.2 185.3,241.9 193.2,242.3 192.2,390.4 				"/>
			</g>
            <g>
				<polygon class="st9" points="119.2,307.7 72.6,306.7 73.2,254.8 119.7,252.6 				"/>
                <polygon class="st9" points="125.9,321.7 180,323.8 179.6,383.1 125.3,377.2 				"/>
                <polygon class="st9" points="180.6,249.7 180.1,309.1 126,307.9 126.5,252.3 				"/>
                <polygon class="st9" points="71.9,371.4 72.4,319.6 119,321.4 118.5,376.4 				"/>
			</g>
		</g>
        <g>
			<g>
				<path class="st7" d="M361.9,412.1l0.2-180l237.8-13.3l1.7,221.4L361.9,412.1z M368.8,313.3l92.9,2.1l-0.2-78.8l-92.6,4.4
					L368.8,313.3z M590.7,339.9l-115-4.5l0.2,79.8l115.3,12.5L590.7,339.9z M590.5,318.2l-0.6-87.7l-114.5,5.4l0.2,79.8L590.5,318.2
					z M368.7,331.2l-0.1,72.3l93.2,10.1l-0.2-78.8L368.7,331.2z"/>
                <polygon class="st8" points="601.5,440.2 599.9,218.8 606.8,219.6 608.5,438.4 				"/>
			</g>
            <g>
				<polygon class="st9" points="461.6,315.3 368.8,313.3 368.8,240.9 461.4,236.5 				"/>
                <polygon class="st9" points="475.7,335.4 590.7,339.9 591.3,427.7 475.9,415.2 				"/>
                <polygon class="st9" points="589.9,230.5 590.5,318.2 475.6,315.6 475.4,235.8 				"/>
                <polygon class="st9" points="368.7,403.6 368.7,331.2 461.7,334.9 461.9,413.7 				"/>
			</g>
		</g>
	</g>
</g>
</svg>
