<?xml version="1.0" encoding="utf-8"?>
<!-- Generator: Adobe Illustrator 25.0.1, SVG Export Plug-In . SVG Version: 6.00 Build 0)  -->
<svg version="1.1" id="katman_1" xmlns="http://www.w3.org/2000/svg" x="0px" y="0px"
     viewBox="0 0 841.9 595.3" style="enable-background:new 0 0 841.9 595.3;" xml:space="preserve">
<style type="text/css">
	.st0{fill:#8F6645;}
	.st1{fill:#EEEEEE;}
	.st2{fill:#DDDDDD;}
	.st3{fill:#3D3A37;}
	.st4{fill:#C4C4C4;}
	.st5{fill:#3D3A37;}
	.st6{fill:#000000;}
	.st7{fill:#FFFFFF;}
	.st8{fill:#888888;}
	.st9{fill:#7884AF;}
</style>


    <g id="chimney">
	<polygon class="st6" points="320.4,45.8 318.7,45.1 316.4,44.7 313.7,44.4 310.7,44.4 307.7,44.7 304.9,45.1 302.5,45.8
		300.6,46.5 299.4,47.4 298.9,48.3 298.8,54 285.6,50.5 292.9,42.9 318.3,40 335.5,44.8 327.3,52.3 321.6,53 321.7,47.4
		321.4,46.5 		"/>
        <polygon class="st5" points="318.7,45.1 320.4,45.8 319.8,76 318.1,75.5 		"/>
        <polygon class="st5" points="316.4,44.7 318.7,45.1 318.1,75.5 315.8,75 		"/>
        <polygon class="st5" points="319.8,76 320.4,45.8 321.4,46.5 320.9,76.2 		"/>
        <polygon class="st6" points="292.9,42.9 285.6,50.5 286,35 293.2,27.1 		"/>
        <polygon class="st6" points="299.4,47.4 300.6,46.5 300,72.6 298.8,73 		"/>
        <polygon class="st6" points="302.5,45.8 304.9,45.1 304.3,72.1 302.9,71.8 301.9,72 		"/>
        <polygon class="st5" points="316.4,44.7 315.8,75 313.1,74.3 313.7,44.4 		"/>
        <polygon class="st5" points="313.7,44.4 313.1,74.3 310.1,73.5 310.7,44.4 		"/>
        <polygon class="st6" points="304.9,45.1 307.7,44.7 307.1,72.8 304.3,72.1 		"/>
        <polygon class="st5" points="298.9,48.3 299.4,47.4 298.8,73 298.8,54 		"/>
        <polygon class="st5" points="321.4,46.5 321.7,47.4 321.6,53 321.1,76.3 		"/>
        <polygon class="st6" points="307.7,44.7 310.7,44.4 310.1,73.5 307.1,72.8 		"/>
        <polygon class="st6" points="300.6,46.5 302.5,45.8 301.9,72 300,72.6 		"/>
        <polygon class="st5" points="335.5,44.8 318.3,40 318.6,24 335.8,29 		"/>
        <polygon class="st5" points="337.1,189 315.6,193 279.2,187.3 300.5,183 		"/>
        <polygon class="st5" points="338.9,80.7 337.1,189 300.5,183 302.9,71.8 304.3,72.1 307.1,72.8 310.1,73.5 313.1,74.3 315.8,75
		318.1,75.5 319.8,76 320.9,76.2 		"/>
        <polygon class="st6" points="302.9,71.8 300.5,183 279.2,187.3 281.7,78.1 298.4,73.1 300,72.6 301.9,72 		"/>
        <polygon class="st6" points="318.6,24 318.3,40 292.9,42.9 293.2,27.1 		"/>
</g>


    <g id="body">
	<polygon class="st0" points="663.3,250.1 663.4,257.1 669.9,259.9 674.8,464.7 390.7,493 393.3,206.4 755.6,258.1 756,269
		733.7,259.7 		"/>
        <path class="st4" d="M390.7,493l-159-16.4l1.6-58.3l-70.4-3.1l-31,0.9l-1.1,27.6l-28.8,1.4l-0.8,18.1l-44.9-4.6L66,257.7l0.3-5.8
		l138-139.5l187.5,93.9l1.6,0.2L390.7,493z M266.5,235.6l0.2-8.9l-62.8-48l-43.3-6.2l-58.1,67.9l-0.4,8.1l42.7,3.7l43.6-48.4
		l33.5,27.1L266.5,235.6z"/>
        <polygon class="st0" points="780.9,461.4 723,467.7 717.5,280.6 720.7,282 774.7,287.9 		"/>
        <polygon class="st4" points="717.5,280.6 723,467.7 674.8,464.7 669.9,259.9 		"/>
</g>


    <g id="roof">
	<polygon class="st1" points="267.8,227.4 267.6,236.2 223,231.5 223.3,222.3 		"/>
        <polygon class="st3" points="205,179.4 267.8,227.4 223.3,222.3 161.7,173.2 		"/>
        <polygon class="st2" points="189.5,204.4 145.9,252.8 103.2,249.2 161.4,181.6 		"/>
        <polygon class="st1" points="223.3,222.3 223,231.5 189.5,204.4 161.4,181.6 103.2,249.2 103.5,241.1 161.7,173.2 		"/>
        <polygon class="st1" points="664.5,257.7 664.4,250.7 721.6,275.4 721.8,282.6 718.6,281.2 671.1,260.5 		"/>
        <polygon class="st3" points="664.4,250.7 734.8,260.3 757.1,269.6 790.2,283.4 721.6,275.4 		"/>
        <polygon class="st3" points="577.7,176.9 773.2,255.3 395.3,198.8 196.7,101.2 		"/>
        <polygon class="st1" points="773.2,255.3 771.3,260.7 756.7,258.7 394.4,207 392.9,206.8 395.3,198.8 		"/>
        <polygon class="st1" points="395.3,198.8 392.9,206.8 205.4,112.9 196.5,108.5 51.4,257.1 51.7,250.6 196.7,101.2 		"/>
        <polygon class="st2" points="67.1,258.3 51.4,257.1 196.5,108.5 205.4,112.9 67.4,252.5 		"/>
        <polygon class="st1" points="721.6,275.4 790.2,283.4 790.5,290.1 775.8,288.5 721.8,282.6 		"/>
</g>


    <g id="right-window">
	<g>
		<path class="st7" d="M622.4,296.8l1.7,94.4l-50.9,0.5l-1.3-99.2L622.4,296.8z M614.8,338.5l-0.5-31.3l-14.7-1.1l0.5,31.7
			L614.8,338.5z M581,380.6l14.2,0l-0.6-37.7l-14.1-0.5L581,380.6z M594,305.7l-14.1-1.1l0.4,32.3l14.1,0.6L594,305.7z
			 M615.5,380.7l-0.7-36.9l-14.7-0.6l0.6,37.4L615.5,380.7z"/>
        <polygon class="st8" points="572,292.4 573.3,391.7 566.8,391.6 565.6,292.8 			"/>
	</g>
        <g>
		<polygon class="st9" points="614.2,307.2 614.8,338.5 600.1,337.8 599.6,306.1 			"/>
            <polygon class="st9" points="595.1,380.6 581,380.6 580.5,342.4 594.6,343 			"/>
            <polygon class="st9" points="579.9,304.6 594,305.7 594.5,337.5 580.4,336.9 			"/>
            <polygon class="st9" points="614.9,343.8 615.5,380.7 600.7,380.6 600.2,343.2 			"/>
	</g>
</g>


    <g>
	<g>
		<polygon class="st4" points="132.5,415.6 162.9,414.8 233.3,417.9 202.2,418.9 		"/>
        <polygon class="st0" points="131.5,443.2 132.5,415.6 202.2,418.9 201.3,448.6 		"/>
        <polygon class="st0" points="201.3,448.6 202.2,418.9 233.3,417.9 231.7,476.2 170.7,480.8 171.7,450.2 		"/>
        <polygon class="st4" points="201.3,448.6 171.7,450.2 102.7,444.6 131.5,443.2 		"/>
        <polygon class="st0" points="171.7,450.2 170.7,480.8 101.5,472.8 101.9,462.8 102.7,444.6 		"/>
	</g>

        <g>
		<g>
			<g class="st7">
				<polygon class="st7" points="156.3,347.6 156.6,337.5 161.1,337.3 160.7,347.5 				"/>
                <polygon class="st7" points="165.6,347.6 160.7,347.5 161.1,337.3 165.9,337.5 				"/>
			</g>
            <polygon class="st7" points="223.6,417.5 228.5,240.9 233.5,241.4 228.7,417.4 			"/>
            <path class="st8" d="M223.6,417.5l-71.9-3.2l5.9-164.2l70.9-9.3L223.6,417.5z M156.6,337.5l-0.4,10.1l4.9,0.1l4.4-0.1l0.4-10.1
				l-4.9-0.1L156.6,337.5z"/>
            <path class="st7" d="M184.7,302l26.2-40.3 M210.9,261.7l5.2,8 M216.1,269.7l-20.8,50.6 M180.6,398.8l2.6-77.9 M167.1,274.8
				l3.4-8.5"/>
            <line class="st7" x1="167.1" y1="274.8" x2="183.1" y2="323.1"/>
            <line class="st7" x1="195.3" y1="320.3" x2="193.5" y2="398.8"/>
            <line class="st7" x1="180.6" y1="398.8" x2="192.5" y2="398.8"/>
            <line class="st7" x1="170.6" y1="266.2" x2="184.7" y2="302"/>
		</g>
	</g>

        <g>
		<g>
			<path class="st7" d="M771.9,303.2l3.1,87l-39.4,0.4l-2.8-91.2L771.9,303.2z M766.7,341.6l-1-28.8l-11.4-1l1,29.2L766.7,341.6z
				 M741.3,380.5l11,0l-1.1-34.6l-10.9-0.5L741.3,380.5z M750,311.5l-10.9-0.9l0.9,29.8l10.9,0.5L750,311.5z M768.1,380.5l-1.2-34
				l-11.4-0.5l1.2,34.5L768.1,380.5z"/>
            <polygon class="st8" points="732.7,299.4 735.6,390.6 728.9,390.6 726.1,299.8 			"/>
		</g>
            <g>
			<polygon class="st9" points="765.7,312.8 766.7,341.6 755.3,341.1 754.3,311.8 			"/>
                <polygon class="st9" points="752.3,380.5 741.3,380.5 740.2,345.4 751.1,345.9 			"/>
                <polygon class="st9" points="739.1,310.6 750,311.5 751,340.9 740,340.3 			"/>
                <polygon class="st9" points="766.9,346.5 768.1,380.5 756.6,380.5 755.5,346.1 			"/>
		</g>
	</g>

        <g>
		<g>
			<path class="st7" d="M514.9,287.4l0.7,104.8l-63.3,0.6l0.1-110.9L514.9,287.4z M486.6,338.7l0.1,41.7l18.3,0l-0.2-41
				L486.6,338.7z M504.8,333.5l-0.2-34.7l-18.1-1.4l0.1,35.3L504.8,333.5z M462.1,380.4l17.7,0l-0.1-42l-17.6-0.7V380.4z
				 M479.5,296.9l-17.5-1.3v36.1l17.5,0.8L479.5,296.9z"/>
            <polygon class="st8" points="452.4,281.9 452.2,392.8 445.6,392.7 445.8,282.4 			"/>
		</g>
            <g>
			<polygon class="st9" points="486.6,338.9 504.8,339.5 505,380.5 486.7,380.5 			"/>
                <polygon class="st9" points="504.6,298.8 504.8,333.5 486.6,332.7 486.4,297.4 			"/>
                <polygon class="st9" points="479.7,380.5 462.1,380.4 462.1,337.8 479.6,338.5 			"/>
                <polygon class="st9" points="462.1,295.5 479.5,296.9 479.6,332.4 462.1,331.6 			"/>
		</g>
	</g>
        <g>
		<path class="st7" d="M102.7,383.5l-6.8-1.9l-6.1-5.5l-5-8.6l-3.6-11l-1.9-12.7l-0.2-13.6l1.5-13.7l3.1-12.9l4.5-11.3l5.7-8.9
			l6.5-6l6.9-2.6l6.9,1.1l6.3,4.7l5.3,8.1l4,11.1l2.3,13.2l0.4,14.4L131,342l-3.4,13.6l-4.9,11.7l-6.1,8.9l-6.8,5.5L102.7,383.5z
			 M127.6,340.3l1.3-12.7l-0.3-12.6l-2-11.5l-3.4-9.7l-4.7-7.1l-5.5-4.2l-6-1l-6,2.2l-5.7,5.2l-5,7.8l-4,9.9L83.7,318l-1.3,12
			l0.2,12l1.7,11.2l3.1,9.6l4.3,7.5l5.3,4.7l5.9,1.7l6.2-1.6l5.9-4.8l5.3-7.8l4.3-10.2L127.6,340.3z"/>
            <polygon class="st9" points="129,327.7 127.6,340.3 124.7,352.2 120.4,362.4 115.1,370.1 109.2,375 103,376.6 97.1,374.9
			91.8,370.2 87.4,362.7 84.3,353.1 82.6,341.9 82.4,330 83.7,318 86.4,306.7 90.4,296.8 95.4,289 101.1,283.8 107.1,281.6
			113.1,282.6 118.6,286.8 123.2,294 126.7,303.6 128.7,315.1 		"/>
	</g>
</g>
</svg>
