<?xml version="1.0" encoding="utf-8"?>
<!-- Generator: Adobe Illustrator 25.0.1, SVG Export Plug-In . SVG Version: 6.00 Build 0)  -->
<svg version="1.1" id="katman_1" xmlns="http://www.w3.org/2000/svg" x="0px" y="0px"
     viewBox="0 0 841.9 595.3" style="enable-background:new 0 0 841.9 595.3;" xml:space="preserve">
<style type="text/css">
	.st0{fill:#8F6645;}
	.st1{fill:#EEEEEE;}
	.st2{fill:#DDDDDD;}
	.st3{fill:#3D3A37;}
	.st4{fill:#C4C4C4;}
	.st5{fill:#3D3A37;}
	.st6{fill:#000000;}
	.st7{fill:#FFFFFF;}
	.st8{fill:#888888;}
	.st9{fill:#7884AF;}
</style>


    <g id="roof">
	<polygon class="st1" points="589,243.2 588.8,234.8 631.9,230.4 632.1,239.2 			"/>
        <polygon class="st2" points="697.4,258 660.8,214.7 687.5,191.9 737.9,255 			"/>
        <polygon class="st3" points="588.8,234.8 645.8,189.5 687.3,184 631.9,230.4 			"/>
        <polygon class="st1" points="737.7,247.5 737.9,255 687.5,191.9 660.8,214.7 632.1,239.2 631.9,230.4 687.3,184 			"/>
        <polygon class="st1" points="474.1,215.6 474.1,206.8 655.2,116.2 781,256.7 780.2,261.5 655.3,123.1 646.8,127.4 			"/>
        <polygon class="st1" points="474.1,206.8 474.1,215.6 472.3,215.9 73.6,267.7 60.9,269.3 61.1,264 			"/>
        <polygon class="st3" points="655.2,116.2 474.1,206.8 61.1,264 206.9,208.3 265.5,197.5 297.9,184.8 			"/>
        <polygon class="st2" points="780.2,261.5 766,262.4 765.8,257.2 646.8,127.4 655.3,123.1 			"/>
</g>


    <g id="body">
	<path class="st4" d="M710.8,410.7l-28.7-1.3l-63.1,5.2l1.1,54.5l-33.3,5.2l-113.1,17.6l-1.3-276.2l1.9-0.2L647,127.2L766,257
		l0.2,5.2l6.6,183.2l-33.6,5.2l-0.4-12.5l-27.3-1.8L710.8,410.7z M589,234.5l0.1,8.4l43.1-4l28.7-24.4l36.7,43.3l40.5-3l-0.2-7.5
		l-50.4-63.6l-41.5,5.5L589,234.5z"/>
        <polygon class="st4" points="88.4,298.7 88.3,302.9 84.5,406.8 79,407.4 82.8,302.2 84.8,293.1 87.6,284.7 91.1,277.6
		95.3,272.1 99.9,268.3 104.3,266.8 105,266.9 109.5,269.6 111.9,272.4 109.8,272.7 106.1,273.9 102.7,275.6 99.4,277.8
		96.5,280.4 94,283.5 91.8,286.9 90.2,290.7 89,294.6 				"/>
        <polygon class="st4" points="78.5,302.1 82.8,302.2 79,407.4 74.5,408.1 				"/>
        <polygon class="st4" points="80.4,292.9 78.5,302.1 74.5,408.1 68.4,407.5 73.7,267.5 472.4,215.6 473.7,491.8 116.1,443.5
		117.1,411.9 117.4,405.4 120.9,298.9 119.4,289.4 116.9,281.1 113.5,274.4 111.9,272.4 109.5,269.6 105,266.9 104.3,266.8
		100.2,266.4 95.4,268.1 90.9,271.8 86.8,277.4 83.2,284.5 				"/>
</g>


    <g id="left-window">
	<polygon class="st9" points="190.2,291.2 193.9,287.9 198,285.6 202.4,284.6 206.8,284.8 211,286.4 214.7,289.2 217.8,293.2
		220.1,298 221.3,303.1 218.8,410.8 180.7,407.9 183.5,305.5 184.8,300.5 187.1,295.5 			"/>
        <g>
		<polygon class="st8" points="225.9,280.3 230.5,286 225.5,285.7 220.9,280 				"/>
            <polygon class="st8" points="225.9,280.3 220.9,280 215.3,275.9 220.3,276.2 				"/>
            <path class="st7" d="M220.9,280l4.6,5.8l3.4,7.2l2,8.2l-2.7,123.4l-56.2-5.2l3.2-114.5l2.1-7.9l3.3-7.2l4.4-6.3l5.3-5l6-3.4
				l6.4-1.6l6.5,0.3l6.2,2.2L220.9,280z M193.9,288.4l-3.7,3.4l-3.1,4.3l-2.3,5l-1.3,5l-2.8,102.4l38.1,2.9l2.5-107.8l-1.2-5
				l-2.3-4.9l-3.1-3.9l-3.7-2.8l-4.2-1.6l-4.4-0.3l-4.4,1L193.9,288.4z"/>
            <polygon class="st8" points="225.5,285.7 230.5,286 234,293.2 228.9,292.9 				"/>
            <polygon class="st8" points="220.3,276.2 215.3,275.9 209.2,273.7 214.1,274 				"/>
            <polygon class="st8" points="234,293.2 235.9,301.3 230.9,301.1 228.9,292.9 				"/>
            <polygon class="st8" points="230.9,301.1 235.9,301.3 233.3,424.2 228.2,424.5 				"/>
            <path class="st12" d="M193.9,288.4l-3.7,3.4 M190.2,291.8l-3.1,4.3 M187.1,296l-2.3,5 M184.8,301l-1.3,5 M183.5,306l-2.8,102.4
				 M180.7,408.4l38.1,2.9 M218.8,411.3l2.5-107.8 M221.3,303.6l-1.2-5 M220.1,298.5l-2.3-4.9 M217.8,293.7l-3.1-3.9 M214.7,289.7
				l-3.7-2.8 M211,286.9l-4.2-1.6 M206.8,285.3l-4.4-0.3 M202.4,285.1l-4.4,1 M198,286.1l-4.1,2.3"/>
            <line class="st8" x1="230.5" y1="286" x2="225.9" y2="280.3"/>
            <line class="st8" x1="225.5" y1="285.7" x2="220.9" y2="280"/>
            <line class="st8" x1="234" y1="293.2" x2="230.5" y2="286"/>
            <line class="st8" x1="220.9" y1="280" x2="215.3" y2="275.9"/>
            <path class="st8" d="M225.9,280.3l-5.6-4.1 M214.1,274l-5-0.3 M209.2,273.7l-6.5-0.3"/>
            <line class="st8" x1="228.9" y1="292.9" x2="225.5" y2="285.7"/>
            <line class="st8" x1="235.9" y1="301.3" x2="234" y2="293.2"/>
            <path class="st8" d="M230.9,301.1l-2-8.2 M235.9,301.3l-5.1-0.2"/>
            <path class="st8" d="M180.5,289.6l-3.3,7.2 M171.9,419.3l3.2-114.5"/>
            <path class="st8" d="M230.9,301.1l-2.7,123.4 M215.3,275.9l-6.2-2.2"/>
            <path class="st8" d="M202.7,273.4l-6.4,1.6 M196.3,275l-6,3.4 M190.3,278.4l-5.3,5 M185,283.4l-4.4,6.3 M177.2,296.9l-2.1,7.9
				 M228.2,424.5l-56.2-5.2 M235.9,301.3l-2.6,122.9 M220.3,276.2l-6.2-2.2 M233.3,424.2l-5.1,0.3"/>
	</g>
</g>


    <g id="chimney">
	<polygon class="st5" points="483.8,45.8 459.4,42.3 459.3,26.9 483.7,30.7 		"/>
        <polygon class="st6" points="459.4,42.3 483.8,45.8 491.2,54 477.9,57.8 477.8,51.2 477.3,50.2 476,49.3 474.1,48.4 471.7,47.7
		469,47.2 466.1,46.9 463.3,46.9 460.7,47.1 458.6,47.6 457.1,48.2 456.2,49.1 456.1,50 456.1,55.9 451.6,55.2 443.2,47.2 		"/>
        <polygon class="st5" points="469,47.2 471.7,47.7 471.9,73.4 469.2,74.2 		"/>
        <polygon class="st5" points="474.1,48.4 476,49.3 476.2,73.9 474.3,73.2 		"/>
        <polygon class="st5" points="457.1,48.2 458.6,47.6 458.8,77 457.2,77.4 		"/>
        <polygon class="st5" points="458.8,77 458.6,47.6 460.7,47.1 460.9,76.4 		"/>
        <polygon class="st5" points="457.1,48.2 457.2,77.4 456.4,77.7 456.2,49.1 		"/>
        <polygon class="st5" points="460.9,76.4 460.7,47.1 463.3,46.9 463.5,75.7 		"/>
        <polygon class="st5" points="463.5,75.7 463.3,46.9 466.1,46.9 466.3,74.9 		"/>
        <polygon class="st5" points="466.3,74.9 466.1,46.9 469,47.2 469.2,74.2 		"/>
        <polygon class="st5" points="476,49.3 477.3,50.2 477.5,74.3 476.2,73.9 		"/>
        <polygon class="st5" points="456.1,50 456.2,49.1 456.4,77.7 456.1,55.9 		"/>
        <polygon class="st5" points="477.3,50.2 477.8,51.2 477.9,57.8 478,74.5 		"/>
        <polygon class="st5" points="471.7,47.7 474.1,48.4 474.3,73.2 473.5,73 471.9,73.4 		"/>
        <polygon class="st5" points="440.9,185.3 440.4,82.1 456.2,77.7 457.2,77.4 458.8,77 460.9,76.4 463.5,75.7 466.3,74.9
		469.2,74.2 471.9,73.4 473.5,73 474.3,179.5 		"/>
        <polygon class="st6" points="494.4,80 495.3,166.9 474.3,179.5 473.5,73 474.3,73.2 476.2,73.9 477.5,74.3 		"/>
        <polygon class="st6" points="491,39.2 491.2,54 483.8,45.8 483.7,30.7 		"/>
        <polygon class="st6" points="459.4,42.3 443.2,47.2 443.2,32 459.3,26.9 		"/>
        <path class="st5" d="M483.8,45.8l-24.4-3.6 M471.7,47.7l-2.7-0.5"/>
        <path class="st5" d="M476,49.3l-1.9-0.8 M458.6,47.6l-1.6,0.7 M460.7,47.1l-2.1,0.5 M463.3,46.9l-2.6,0.2 M477.3,50.2l-1.3-0.9
		 M456.2,49.1l-0.1,0.9 M469,47.2l-2.9-0.3 M466.1,46.9l-2.8,0 M457.1,48.2l-0.9,0.8 M477.8,51.2l-0.6-1 M474.1,48.4l-2.4-0.7"/>
        <line class="st5" x1="491.2" y1="54" x2="483.8" y2="45.8"/>
        <line class="st5" x1="491" y1="39.2" x2="483.7" y2="30.7"/>
        <path class="st5" d="M483.8,45.8l-0.1-15.2"/>
        <line class="st5" x1="451.6" y1="55.2" x2="456.1" y2="55.9"/>
        <line class="st5" x1="459.4" y1="42.3" x2="443.2" y2="47.2"/>
        <path class="st5" d="M443.2,47.2l8.4,8.1 M443.2,47.2L443.2,32"/>
        <line class="st5" x1="459.4" y1="42.3" x2="459.3" y2="26.9"/>
        <path class="st5" d="M459.3,26.9L443.2,32 M483.7,30.7l-24.4-3.7"/>
</g>

    <g>

	<g>
		<polygon class="st0" points="678.3,475 619.8,469.2 618.8,414.6 648.5,416.2 649.2,444.1 677.6,446.3 				"/>
        <polygon class="st0" points="678.3,475 677.6,446.3 737.9,438.1 738.3,450.6 738.8,464.3 				"/>
        <polygon class="st4" points="618.8,414.6 681.2,409.4 709.9,410.7 648.5,416.2 				"/>
        <polygon class="st0" points="709.9,410.7 710.6,436.3 649.2,444.1 648.5,416.2 				"/>
        <polygon class="st4" points="115.2,443.6 66.4,437 67.5,407.6 73.6,408.1 116.3,411.9 				"/>
        <polygon class="st0" points="116.3,411.9 73.6,408.1 78.1,407.9 83.6,407.1 116.5,405.4 				"/>
        <polygon class="st4" points="710.6,436.3 737.9,438.1 677.6,446.3 649.2,444.1 				"/>
	</g>


        <g>
		<g>
			<path class="st7" d="M539.4,388l-9.5-1.7l-9.1-6l-8-9.9l-6.3-13.2l-4.1-15.5l-1.5-16.7l1.2-16.5l3.8-15.1l6-12.6l7.8-9.2l8.9-5.3
				l9.4-1.1l9.2,3l8.5,6.8l7.2,10.1l5.5,12.6l3.6,14.4l1.4,15.3l-0.9,15.2l-3.1,14.3l-5.2,12.5l-7,9.8l-8.4,6.4L539.4,388z
				 M568.3,340.4L569,327l-1.2-13.4l-3.1-12.6l-4.9-11l-6.4-8.8l-7.4-5.9l-8.1-2.6l-8.2,1l-7.7,4.7l-6.7,8.1l-5.2,11l-3.3,13.2
				l-1,14.4l1.3,14.5l3.5,13.5l5.5,11.5l7,8.7l7.9,5.3l8.3,1.6l8.1-2.1l7.4-5.6l6.1-8.6l4.6-10.9L568.3,340.4z"/>
            <polygon class="st9" points="569,327 568.3,340.4 565.5,353 560.9,363.9 554.8,372.4 547.4,378 539.3,380.1 531,378.6
				523.1,373.3 516.1,364.6 510.6,353.1 507.1,339.6 505.8,325.1 506.8,310.7 510,297.6 515.3,286.5 522,278.5 529.7,273.8
				537.9,272.7 546,275.3 553.5,281.2 559.8,290 564.7,301 567.8,313.6 			"/>
		</g>

            <g>
			<polygon class="st9" points="328.6,280.4 333.8,276.3 339.6,273.6 345.7,272.2 352,272.5 358,274.3 363.4,277.5 368,282.2
				371.3,288 373.2,294 372.3,423.2 318,419 319.5,297.4 321.2,291.5 324.4,285.5 			"/>
                <g>
				<polygon class="st8" points="377.2,266.2 384,273 378.8,272.6 372,265.8 				"/>
                    <polygon class="st8" points="377.2,266.2 372,265.8 363.9,261 369.1,261.5 				"/>
                    <path class="st7" d="M372,265.8l6.8,6.8l5.1,8.5l3,9.7l-0.8,148.4l-80.3-7.5l1.9-135.7l2.7-9.3l4.5-8.6l6.1-7.5l7.4-6l8.4-4.2
					l9-2.1l9.2,0.2l8.9,2.5L372,265.8z M333.8,276.3l-5.1,4.1l-4.2,5.1l-3.1,5.9l-1.7,5.9L318,419l54.4,4.2l0.9-129.2l-1.8-6
					l-3.4-5.8l-4.5-4.7l-5.4-3.3l-6-1.8l-6.3-0.2l-6.2,1.3L333.8,276.3z"/>
                    <polygon class="st8" points="378.8,272.6 384,273 389.1,281.4 383.9,281.1 				"/>
                    <polygon class="st8" points="369.1,261.5 363.9,261 355.1,258.5 360.3,259 				"/>
                    <polygon class="st8" points="389.1,281.4 392.1,291.1 386.9,290.8 383.9,281.1 				"/>
                    <polygon class="st8" points="386.9,290.8 392.1,291.1 391.5,438.7 386.1,439.2 				"/>
                    <path class="st8" d="M333.8,276.3l-5.1,4.1 M328.6,280.4l-4.2,5.1 M324.4,285.5l-3.1,5.9 M321.2,291.5l-1.7,5.9 M319.5,297.4
					L318,419 M318,419l54.4,4.2 M372.3,423.2l0.9-129.2 M373.2,294l-1.8-6 M371.3,288l-3.4-5.8 M368,282.2l-4.5-4.7 M363.4,277.5
					l-5.4-3.3 M358,274.3l-6-1.8 M352,272.5l-6.3-0.2 M345.7,272.2l-6.2,1.3 M339.6,273.6l-5.8,2.8"/>
                    <line class="st8" x1="384" y1="273" x2="377.2" y2="266.2"/>
                    <line class="st8" x1="378.8" y1="272.6" x2="372" y2="265.8"/>
                    <line class="st8" x1="389.1" y1="281.4" x2="384" y2="273"/>
                    <line class="st8" x1="372" y1="265.8" x2="363.9" y2="261"/>
                    <path class="st8" d="M377.2,266.2l-8.1-4.7 M360.3,259l-5.2-0.5 M355.1,258.5l-9.2-0.2"/>
                    <line class="st8" x1="383.9" y1="281.1" x2="378.8" y2="272.6"/>
                    <line class="st8" x1="392.1" y1="291.1" x2="389.1" y2="281.4"/>
                    <path class="st8" d="M386.9,290.8l-3-9.7 M392.1,291.1l-5.2-0.3"/>
                    <path class="st8" d="M314.9,278.1l-4.5,8.6 M305.8,431.7l1.9-135.7"/>
                    <path class="st8" d="M386.9,290.8l-0.8,148.4 M363.9,261l-8.9-2.5"/>
                    <path class="st8" d="M345.9,258.4l-9,2.1 M336.9,260.4l-8.4,4.2 M328.4,264.6l-7.4,6 M321,270.6l-6.1,7.5 M310.4,286.7
					l-2.7,9.3 M386.1,439.2l-80.3-7.5 M392.1,291.1l-0.7,147.6 M369.1,261.5l-8.9-2.5 M391.5,438.7l-5.3,0.5"/>
			</g>
		</g>

            <g>
			<g>
				<g class="st7">
					<polygon class="st7" points="634.7,350.5 634.4,340.8 638.7,340.9 638.9,350.5 					"/>
                    <polygon class="st7" points="634.4,340.8 634.7,350.5 630.1,350.5 629.9,340.8 					"/>
				</g>
                <polygon class="st7" points="630.1,350.5 634.7,350.5 638.9,350.5 634.3,350.5 				"/>
                <path class="st8" d="M685.7,409.8l-61.2,5.2l-3.3-159.5l60.5,7.9L685.7,409.8z M629.9,340.8l0.2,9.6l4.2,0l4.6,0l-0.2-9.6
					l-4.2-0.1L629.9,340.8z"/>
                <polygon class="st7" points="621.2,255.4 624.5,414.9 619.8,414.7 616.6,255.8 				"/>
                <path class="st7" d="M634.7,350.5l-0.2-9.7 M630.1,350.5l-0.2-9.6 M630.1,350.5l4.6,0"/>
                <line class="st7" x1="629.9" y1="340.8" x2="634.4" y2="340.8"/>
                <line class="st7" x1="634.3" y1="350.5" x2="630.1" y2="350.5"/>
                <line class="st7" x1="634.3" y1="350.5" x2="638.9" y2="350.5"/>
                <line class="st7" x1="638.9" y1="350.5" x2="634.7" y2="350.5"/>
                <path class="st7" d="M634.4,340.8l4.2,0.1 M638.7,340.9l0.2,9.6 M624.5,414.9l61.2-5.2"/>
                <line class="st7" x1="624.5" y1="414.9" x2="621.2" y2="255.4"/>
                <path class="st7" d="M685.7,409.8l-4-146.5 M621.2,255.4l60.5,7.9 M619.8,414.7l-3.2-158.9 M624.5,414.9l-4.7-0.3 M621.2,255.4
					l-4.6,0.4"/>
			</g>
                <g>
				<path class="st7" d="M632.2,268l26.2,40.3 M627,276l5.2-8 M647.8,326.5L627,276 M659.9,327.2l2.6,77.9 M672.5,272.5l3.4,8.5"/>
                    <line class="st7" x1="676" y1="281" x2="660" y2="329.3"/>
                    <line class="st7" x1="647.8" y1="326.5" x2="649.6" y2="405.1"/>
                    <line class="st7" x1="662.5" y1="405.1" x2="650.5" y2="405.1"/>
                    <line class="st7" x1="672.5" y1="272.5" x2="658.4" y2="308.3"/>
			</g>
		</g>
	</g>
</g>
</svg>
