<?xml version="1.0" encoding="utf-8"?>
<!-- Generator: Adobe Illustrator 25.0.1, SVG Export Plug-In . SVG Version: 6.00 Build 0)  -->
<svg version="1.1" id="katman_1" xmlns="http://www.w3.org/2000/svg" x="0px" y="0px"
     viewBox="0 0 841.9 595.3" style="enable-background:new 0 0 841.9 595.3;" xml:space="preserve">
<style type="text/css">
	.st0{fill:#8F6645;}
	.st1{fill:#EEEEEE;}
	.st2{fill:#DDDDDD;}
	.st3{fill:#3D3A37;}
	.st4{fill:#C4C4C4;}
	.st5{fill:#3D3A37;}
	.st6{fill:#000000;}
	.st7{fill:#FFFFFF;}
	.st8{fill:#888888;}
	.st9{fill:#7884AF;}
</style>


    <g id="chimney">
	<polygon class="st6" points="319.6,64.8 318,65.1 316.9,65.5 316.5,69.7 313.9,69.4 304.5,64.8 316.1,62 336.9,64 345.7,68.7
		334.8,71.2 334.9,67.6 334,66.6 332.6,66.1 330.8,65.6 328.7,65.2 326.3,64.9 323.9,64.7 321.6,64.7 		"/>
        <polygon class="st6" points="318,65.1 319.6,64.8 319.4,88.7 317.9,89.1 		"/>
        <polygon class="st5" points="316.9,65.5 318,65.1 317.9,89.1 316.8,89.3 		"/>
        <polygon class="st5" points="319.4,88.7 319.6,64.8 321.6,64.7 321.5,88.3 		"/>
        <polygon class="st5" points="316.9,65.5 316.8,89.3 316.5,69.7 316.5,65.9 		"/>
        <polygon class="st5" points="323.9,64.7 326.3,64.9 326.2,87.2 323.8,87.8 		"/>
        <polygon class="st5" points="326.2,87.2 326.3,64.9 328.7,65.2 328.6,87.2 327.5,86.9 		"/>
        <polygon class="st5" points="323.9,64.7 323.8,87.8 321.5,88.3 321.6,64.7 		"/>
        <polygon class="st5" points="328.6,87.2 328.7,65.2 330.8,65.6 330.7,87.6 		"/>
        <polygon class="st5" points="334,66.6 334.7,67.1 334.6,88.4 333.9,88.2 		"/>
        <polygon class="st5" points="332.6,66.1 334,66.6 333.9,88.2 332.5,88 		"/>
        <polygon class="st5" points="334.7,67.1 334.8,71.2 334.8,88.4 		"/>
        <polygon class="st5" points="330.8,65.6 332.6,66.1 332.5,88 330.7,87.6 		"/>
        <polygon class="st6" points="347,90.9 346.7,175.8 327.1,173.4 327.5,86.9 328.6,87.2 330.7,87.6 332.5,88 333.9,88.2 334.6,88.4
				"/>
        <polygon class="st5" points="327.1,173.4 346.7,175.8 322.9,178.8 303.3,176.5 		"/>
        <polygon class="st5" points="327.5,86.9 327.1,173.4 303.3,176.5 303.9,92.1 316.4,89.4 317.9,89.1 319.4,88.7 321.5,88.3
		323.8,87.8 326.2,87.2 		"/>
        <polygon class="st5" points="316.1,62 304.5,64.8 304.6,52.4 316.1,49.5 		"/>
        <polygon class="st5" points="316.1,62 316.1,49.5 337,51.6 336.9,64 		"/>
        <polygon class="st6" points="336.9,64 337,51.6 345.7,56.5 345.7,68.7 		"/>
</g>


    <g id="body">
	<polygon class="st4" points="678.5,267.5 681.1,377 678.7,377.2 676.1,267.4 			"/>
        <polygon class="st4" points="766.4,264.3 771.3,264.1 775.1,383.1 770.1,382.9 770,382 			"/>
        <polygon class="st4" points="475.5,232.6 482.7,223.1 491.4,215.6 501.2,210.5 511.8,208.2 519.4,208.6 529.1,211.9 538.7,218.3
			547,227.4 553.5,238.7 557.8,251.7 559.7,386.6 467.5,395.4 466.6,256.2 470,243.8 			"/>
        <polygon class="st4" points="449,210.4 449.9,397.1 450.1,436.5 367,447.8 367.5,201.8 542.1,112.2 565.6,134.5 441.1,203.8
			441.1,211.1 			"/>
        <polygon class="st0" points="276.1,447.4 201.6,436.3 201.7,425.1 204.4,250.7 277.1,246.1 278,245.6 			"/>
        <polygon class="st4" points="276.1,447.4 278,245.6 323.5,222.3 322.3,441.7 			"/>
        <polygon class="st4" points="754.1,227.1 756.1,228.9 758.1,231.4 759.9,234.3 761.6,237.8 763,241.6 764.2,245.8 765.1,250.2
			765.8,254.8 766.2,259.5 766.4,264.3 770,382 765.6,381.8 762,264.9 758,255 752.1,246.3 744.6,239.3 735.9,234.2 726.9,231.4
			716.7,230.7 707.2,232.3 698.3,236.1 690.4,241.8 684,249.2 679.1,257.8 676.1,267.4 678.7,377.2 666.2,376.5 662.7,223.3
			710.2,220.3 749.7,225.2 751.9,225.8 			"/>
        <polygon class="st4" points="754.8,224.9 749.7,225.2 710.2,220.3 605.9,207.4 609.6,206.8 			"/>
        <polygon class="st4" points="589,229.1 590.7,224.2 592.7,219.8 595,216 662.7,223.3 666.2,376.5 588.2,383.9 586.1,251.8
			586.2,245.8 586.7,240 587.7,234.4 			"/>
        <polygon class="st0" points="367.5,201.8 367,447.8 322.3,441.7 323.5,222.3 331.9,218.1 331.9,210.5 242.5,219.1 188.6,244.5
			188.4,251.8 204.4,250.7 201.7,425.1 59.3,405.6 64,232.6 367.2,201.9 			"/>
        <polygon class="st2" points="600.4,210.2 603.4,208.4 605.9,207.4 710.2,220.3 662.7,223.3 595.2,215.8 597.6,212.8 			"/>
</g>


    <g id="roof">
	<polygon class="st1" points="441.1,211 441.1,203.8 576.6,191.2 576.7,199.4 573.1,199.7 449,210.4 			"/>
        <polygon class="st1" points="576.7,199.4 576.6,191.2 697.3,114.2 791,221 791.2,227.1 697.5,121 690.1,125.8 			"/>
        <polygon class="st3" points="576.6,191.2 441.1,203.8 565.5,134.4 574.2,133.2 578.2,131 697.3,114.2 			"/>
        <polygon class="st2" points="565.5,134.4 542,112.1 548.7,108.7 574.2,133.2 			"/>
        <polygon class="st1" points="574.2,133.2 548.7,108.7 542,112.1 367.5,201.8 365.1,195.1 548.6,102.3 578.2,131 			"/>
        <polygon class="st3" points="548.6,102.3 365.1,195.1 49,229.2 227,156.3 			"/>
        <polygon class="st1" points="49,229.2 365.1,195.1 367.2,201.9 64,232.6 50.8,233.9 			"/>
        <polygon class="st2" points="697.5,121 791.2,227.1 777.2,227.8 777.1,222.7 690.1,125.8 			"/>
        <polygon class="st2" points="188.4,251.7 188.5,244.5 277.1,238.1 277,246.1 204.4,250.7 			"/>
        <polygon class="st3" points="277.1,238.1 188.5,244.5 242.5,219.1 331.9,210.5 			"/>
        <polygon class="st2" points="277,246.1 277.1,238.1 331.9,210.5 331.9,218 323.5,222.3 278,245.6 			"/>
</g>


    <g id="right-window">
	<g>
		<path class="st7" d="M194.3,275.3l-1.4,84.1l-40.3-2l1.6-80.2L194.3,275.3z M186.5,312.8l0.5-27.4l-12.1,0.4l-0.5,27.1
			L186.5,312.8z M158.5,348.7l10.8,0.4l0.6-31.7l-10.7,0L158.5,348.7z M170.5,286l-10.7,0.4l-0.5,26.6l10.7,0L170.5,286z
			 M185.9,349.8l0.5-32.3l-12.1,0l-0.6,31.8L185.9,349.8z"/>
        <polygon class="st8" points="193,359.4 194.3,275.3 200.1,275.5 198.8,359.2 				"/>
	</g>
        <g>
		<polygon class="st9" points="187,285.4 186.5,312.8 174.4,312.9 174.9,285.8 				"/>
            <polygon class="st9" points="169.3,349.2 158.5,348.7 159.1,317.5 169.9,317.5 				"/>
            <polygon class="st9" points="159.7,286.4 170.5,286 170,312.9 159.2,313 				"/>
            <polygon class="st9" points="186.4,317.5 185.9,349.8 173.7,349.3 174.3,317.5 				"/>
	</g>
</g>


    <g>
	<g>
		<g>
			<polygon class="st0" points="708.4,434.2 653.4,444.2 652.9,423.3 707.8,414.8 708.2,428.3 			"/>
            <polygon class="st4" points="707.8,414.8 652.9,423.3 630.2,421.3 685.9,413 			"/>
            <polygon class="st4" points="652.9,423.3 653.4,444.2 630.6,441.9 630.2,421.3 			"/>
            <polygon class="st4" points="707.8,414.8 685.9,413 630.2,421.3 630.6,441.9 576.9,451.2 576.3,407.3 588.6,405.8 775.1,383.1
				782.2,382.2 783.3,415.1 708.2,428.3 			"/>
            <polygon class="st0" points="765.6,381.8 770,382 770,382.8 775.1,383.1 588.6,405.8 588.2,383.9 666.2,376.5 678.7,377.2
				681.1,376.9 765.6,381.4 			"/>
            <polygon class="st4" points="450.1,436.4 449.9,397.1 463.4,398.2 559.9,406 576.3,407.3 576.9,451.2 			"/>
            <polygon class="st0" points="467.5,395.4 559.6,386.6 559.9,406 463.4,398.2 467.5,397.8 			"/>
		</g>
	</g>
        <g>

		<g>
			<g>
				<path class="st7" d="M116.9,278.9l-1.7,76.6l-33.6-1.6l1.9-73.4L116.9,278.9z M110.1,313.2l0.6-25l-10.1,0.4l-0.6,24.7
					L110.1,313.2z M86.5,346l9,0.3l0.7-28.9l-9,0L86.5,346z M96.9,288.6l-9,0.3l-0.6,24.3l9,0L96.9,288.6z M109.3,346.9l0.7-29.4
					l-10.1,0l-0.7,29.1L109.3,346.9z"/>
                <polygon class="st8" points="115.1,355.6 116.9,278.9 122.5,279.1 120.8,355.4 				"/>
			</g>
            <g>
				<polygon class="st9" points="110.6,288.1 110.1,313.2 100,313.2 100.6,288.5 				"/>
                <polygon class="st9" points="95.5,346.3 86.5,346 87.2,317.4 96.2,317.4 				"/>
                <polygon class="st9" points="87.9,289 96.9,288.6 96.3,313.2 87.3,313.3 				"/>
                <polygon class="st9" points="110,317.4 109.3,346.9 99.2,346.5 99.9,317.4 				"/>
			</g>
		</g>


            <g>
			<path class="st7" d="M260.8,267.8l-1.1,99L209,364l1.4-93.7L260.8,267.8z M216.8,317.4l-0.5,36.6l13.5,0.6l0.5-37.1L216.8,317.4z
				 M251.2,311.9l0.4-32.2l-15.2,0.6l-0.4,31.7L251.2,311.9z M230.8,280.5l-13.4,0.5l-0.5,31.1l13.4-0.1L230.8,280.5z M250.6,355.4
				l0.4-38l-15.2,0l-0.5,37.3L250.6,355.4z"/>
                <polygon class="st8" points="259.7,366.7 260.8,267.8 267.2,268 266.2,366.5 			"/>
                <g>
				<polygon class="st9" points="216.8,317.5 230.3,317.4 229.8,354.5 216.3,353.9 				"/>
                    <polygon class="st9" points="251.5,279.7 251.2,311.9 235.9,312 236.3,280.3 				"/>
                    <polygon class="st9" points="217.4,281 230.8,280.5 230.4,312 216.9,312.1 				"/>
                    <polygon class="st9" points="251.1,317.4 250.6,355.4 235.4,354.7 235.8,317.4 				"/>
			</g>
		</g>
	</g>
        <g>
		<g>
			<g>
				<polygon class="st9" points="620.9,312.6 581.2,313 580.1,239 619.6,242 619.8,252.4 616.4,252.6 611.2,254.6 606.6,258.1
					602.8,263 600,268.8 598.5,275.4 620.2,276.2 				"/>
                <polygon class="st9" points="624.3,242.4 659.7,245.1 661.2,312.2 625.7,312.5 625,276.3 644.7,277 643.1,270.7 640.5,264.9
					636.8,259.8 632.3,255.9 627.2,253.3 624.5,252.8 				"/>
			</g>
            <g>
				<polygon class="st9" points="581.2,313 576.7,312.9 575.6,239.2 580.1,239 				"/>
                <polygon class="st9" points="620.2,276.2 598.5,275.4 600,268.8 602.8,263 606.6,258.1 611.2,254.6 616.4,252.6 619.8,252.4
									"/>
                <polygon class="st9" points="627.2,253.3 632.3,255.9 636.8,259.8 640.5,264.9 643.1,270.7 644.7,277 625,276.3 624.5,252.8
									"/>
                <polygon class="st9" points="624.3,242.4 624.5,252.8 625,276.3 625.7,312.5 620.9,312.6 620.2,276.2 619.8,252.4 619.6,242
									"/>
			</g>
		</g>

            <g>
			<polygon class="st9" points="532.3,272.4 534.9,277.4 537.3,283.2 539.2,289.4 540.6,296 541.5,302.8 541.8,309.7 541.7,316.6
				540.9,323.5 539.7,330.1 537.9,336.4 535.7,342.3 533.1,347.3 530.5,342.6 528.1,336.8 526.1,330.5 524.6,323.8 523.7,316.9
				523.4,309.8 523.6,302.8 524.3,295.8 525.6,289.2 527.5,282.9 529.7,277.2 			"/>
                <polygon class="st7" points="534.9,277.4 532.3,272.4 535.3,277.3 			"/>
                <polygon class="st7" points="533.1,347.3 535.7,342.3 533.3,347.7 			"/>
                <polygon class="st7" points="535.7,342.3 537.9,336.4 536.1,342.3 			"/>
                <polygon class="st7" points="537.3,283.2 534.9,277.4 537.7,283.2 			"/>
                <polygon class="st7" points="537.9,336.4 539.7,330.1 538.3,336.4 			"/>
                <polygon class="st7" points="539.7,330.1 540.9,323.5 540.1,330.1 			"/>
                <polygon class="st7" points="540.9,323.5 541.7,316.6 541.3,323.5 			"/>
                <polygon class="st7" points="541.7,316.6 541.8,309.7 542.1,316.6 			"/>
                <polygon class="st7" points="541.8,309.7 541.5,302.8 542.2,309.7 			"/>
                <polygon class="st7" points="541.5,302.8 540.6,296 541.9,302.8 			"/>
                <polygon class="st7" points="540.6,296 539.2,289.4 541,296 			"/>
                <polygon class="st7" points="539.2,289.4 537.3,283.2 539.6,289.4 			"/>
                <polygon class="st7" points="507,318.6 511,318.5 513.9,318.6 509.8,318.6 			"/>
                <g>
				<g>
					<polygon class="st8" points="496.7,392.7 495.3,227.9 501.4,227.5 502.9,393.2 					"/>
                    <path class="st8" d="M562.8,387.4l-59.9,5.8l-1.5-165.7l59.3,4.9L562.8,387.4z M533.3,347.7l2.7-5.4l2.3-5.9l1.8-6.3l1.3-6.6
						l0.7-6.8l0.2-6.9l-0.4-6.9L541,296l-1.4-6.6l-1.9-6.2l-2.4-5.8l-2.8-5.3l-2.7,5.1l-2.3,5.8l-1.8,6.3l-1.3,6.6l-0.8,6.9
						l-0.2,7.1l0.4,7.1l0.9,6.9l1.5,6.7l2,6.3l2.4,5.8l2.6,4.8L533.3,347.7z M505,324.3l2.1,5.7l2.8,0.1l4.1-0.1l2-5.7l-2.1-5.6
						l-2.8,0l-4.1,0.1L505,324.3z"/>
				</g>
                    <g>
					<polygon class="st7" points="507.1,330 505,324.3 507.8,324.4 509.9,330.1 					"/>
                        <polygon class="st7" points="505,324.3 507,318.6 509.8,318.6 507.8,324.4 					"/>
                        <polygon class="st7" points="515.9,324.2 514,329.9 509.9,330.1 507.8,324.4 509.8,318.6 513.9,318.6 					"/>
				</g>
			</g>
		</g>
	</g>
        <polygon class="st4" points="479,222.9 471.8,232.5 466.4,243.8 462.9,256.1 463.7,398.4 450.2,397.3 449.3,210.6 573.4,199.9
		576.6,407.5 560.2,406.2 560,386.8 558.1,251.9 553.8,238.9 547.3,227.6 539,218.5 529.3,212.1 519.6,208.8 518.9,208.5
		508.1,207.9 497.6,210.3 487.7,215.4 	"/>
        <polygon class="st0" points="782.5,382.4 775.4,383.3 771.6,264.3 771.5,259.6 771.1,254.8 770.4,250.2 769.5,245.8 768.3,241.6
		766.9,237.7 765.2,234.3 763.4,231.3 761.4,228.9 759.4,227 757.2,225.7 755.1,225.1 609.9,207 606.7,207.4 603.7,208.6
		600.7,210.4 597.9,213 595.5,216 593,220 591,224.4 589.3,229.3 588,234.6 587,240.2 586.5,246 586.4,252 588.5,384.1 588.9,406
		576.6,407.5 573.4,199.9 577,199.6 690.4,126 777.4,222.9 777.6,228 	"/>
</g>
</svg>
