<?xml version="1.0" encoding="utf-8"?>
<!-- Generator: Adobe Illustrator 25.0.1, SVG Export Plug-In . SVG Version: 6.00 Build 0)  -->
<svg version="1.1" id="katman_1" xmlns="http://www.w3.org/2000/svg" x="0px" y="0px"
     viewBox="0 0 841.9 595.3" style="enable-background:new 0 0 841.9 595.3;" xml:space="preserve">
<style type="text/css">
	.st0{fill:#8F6645;}
	.st1{fill:#EEEEEE;}
	.st2{fill:#DDDDDD;}
	.st3{fill:#3D3A37;}
	.st4{fill:#C4C4C4;}
	.st5{fill:#3D3A37;}
	.st6{fill:#000000;}
	.st7{fill:#FFFFFF;}
	.st8{fill:#888888;}
	.st9{fill:#7884AF;}
</style>

    <g id="roof">
	<polygon class="st1" points="265.9,90.5 271.4,85.4 278.2,89 275.1,91.9 		"/>
        <g>
		<polygon class="st2" points="74.3,207 58.2,206.3 176.4,85.6 184.6,90.4 74.4,201.2 			"/>
            <polygon class="st2" points="58.2,206.3 58.3,199.3 176.5,77.6 338.3,171.2 338.3,180.9 184.6,90.4 176.4,85.6 			"/>
            <polygon class="st3" points="271.5,78.5 607.3,130.7 797.6,210.2 338.3,171.2 176.5,77.6 259.5,89.6 265.9,90.5 275.1,91.9
				287,93.6 306,96.4 			"/>
            <polygon class="st1" points="259.5,89.6 271.5,78.5 306,96.4 287,93.6 278.2,89 271.4,85.4 265.9,90.5 			"/>
            <polygon class="st1" points="338.3,180.9 338.3,171.2 797.6,210.2 797.8,216.1 783.8,215 340,181 			"/>
            <polygon class="st1" points="130.2,215.4 129.2,210.9 130.3,210.5 136,210.1 			"/>
            <polygon class="st1" points="130.2,215.4 136,210.1 138.1,209.9 144.2,210.9 144,215.9 			"/>
	</g>
</g>


    <g id="chimney">
	<polygon class="st6" points="589.1,35.7 576.9,40.7 576.4,36.7 575,35.8 573.4,35.5 571.3,35.4 568.8,35.4 566.1,35.6
		563.4,35.9 560.9,36.3 558.8,36.8 557.1,37.4 556.1,38 555.8,42.5 554.2,42.6 542.9,39.7 554.5,34.7 577.9,32.7 		"/>
        <polygon class="st5" points="573.4,35.5 575,35.8 575.3,62.3 573.6,62 		"/>
        <polygon class="st5" points="575.3,62.3 575,35.8 576,36.2 576.3,62.6 		"/>
        <polygon class="st5" points="573.4,35.5 573.6,62 571.5,61.5 571.3,35.4 		"/>
        <polygon class="st5" points="576.3,62.6 576,36.2 576.4,40.7 576.6,62.6 		"/>
        <polygon class="st5" points="556.1,38 557.1,37.4 557.3,61.4 556.3,61.6 		"/>
        <polygon class="st5" points="557.3,61.4 557.1,37.4 558.8,36.8 558.9,61.1 		"/>
        <polygon class="st5" points="556.1,38 556.3,61.6 555.8,42.5 555.7,38.5 		"/>
        <polygon class="st5" points="558.9,61.1 558.8,36.8 560.9,36.3 561.1,60.7 		"/>
        <polygon class="st5" points="566.1,35.6 568.8,35.4 569,60.9 566.3,60.2 		"/>
        <polygon class="st5" points="563.4,35.9 566.1,35.6 566.3,60.2 565.1,60 563.6,60.2 		"/>
        <polygon class="st5" points="568.8,35.4 571.3,35.4 571.5,61.5 569,60.9 		"/>
        <polygon class="st5" points="560.9,36.3 563.4,35.9 563.6,60.2 561.1,60.7 		"/>
        <polygon class="st5" points="542.8,143.9 542.3,64.1 555.9,61.6 557.3,61.4 558.9,61.1 561.1,60.7 563.6,60.2 565.1,60
		565.8,151 		"/>
        <polygon class="st6" points="542.8,143.9 563.4,150.3 589.4,157.4 565.8,151 		"/>
        <polygon class="st6" points="565.8,151 565.1,60 566.3,60.2 569,60.9 571.5,61.5 573.6,62 575.3,62.3 576.3,62.6 588.6,65.5
		589.4,157.4 		"/>
        <polygon class="st5" points="542.9,39.7 542.9,26.4 554.4,21.1 554.5,34.7 		"/>
        <polygon class="st5" points="554.5,34.7 554.4,21.1 577.8,18.9 577.9,32.7 		"/>
        <polygon class="st5" points="589.1,35.7 577.9,32.7 577.8,18.9 589,22.1 		"/>
</g>


    <g>
	<g>
		<g>
			<polygon class="st4" points="458.3,410.2 458.4,456.5 338.8,477.7 339.1,426.1 356.5,423.8 			"/>
            <polygon class="st0" points="184,375.4 197.5,374.4 322.7,389.8 322.6,423.5 80.2,385.2 85.7,384.7 85.7,383.3 89.7,382.9
				141.7,378.2 181,375.1 			"/>
            <polygon class="st0" points="149.1,445.9 90.8,433 90.9,425.5 91.1,412.8 149.4,424 			"/>
            <polygon class="st4" points="149.1,445.9 149.4,424 173.1,421.3 172.8,442.8 			"/>
            <polygon class="st0" points="149.4,424 91.1,412.8 114,410.4 173.1,421.3 			"/>
            <polygon class="st4" points="322.6,423.5 339.1,426.1 338.8,477.7 172.8,442.8 173.1,421.3 114,410.4 91.1,412.8 90.9,425.5
				70.5,421.2 71.2,383.8 80.2,385.2 			"/>
            <polygon class="st0" points="356.6,394 453.1,405.9 453.1,409.5 458.3,410.2 356.5,423.8 			"/>
		</g>

        <g>
			<polygon class="st4" points="299.3,188.9 303.4,190.9 304.2,191.5 198.8,200.2 173.2,198.8 296.3,188.1 			"/>
            <polygon class="st4" points="166,221.8 173.2,230.1 178.5,239.8 181.9,250.6 180.4,374.7 141,377.8 143.3,215.6 143.4,210.7
				147.7,211.3 154.4,215.5 			"/>
            <polygon class="st4" points="176.1,229.9 169,221.7 160.4,215.3 150.7,211.1 140.3,209.3 137.4,209.5 135.3,209.7 129.7,210.2
				128.5,210.5 119.4,213.6 110,219.5 101.8,227.7 95.5,237.7 91.3,249.1 89,381.9 85,382.9 87.3,248.8 87.6,243.5 88.1,238.3
				89,233.2 90.2,228.3 91.6,223.7 93.4,219.4 95.3,215.6 97.5,212.2 99.8,209.4 102.3,207.2 104.9,205.5 107.6,204.5 173.2,198.8
				198.8,200.2 196.8,374 183.3,375.1 184.9,250.5 181.5,239.7 			"/>
            <polygon class="st4" points="322.9,234.5 322.8,241.7 322.1,389.5 196.8,374 198.8,200.2 304.2,191.5 307.4,193.9 311,197.7
				314.3,202.4 317.1,207.8 319.4,213.8 321.2,220.4 322.4,227.3 			"/>
            <polygon class="st4" points="356.4,241.7 360.9,226.2 367.7,212.7 376.5,201.8 386.7,194 397.8,189.5 404,189 415.2,191.6
				425.6,197.3 434.9,205.9 442.5,217 448.4,230 452.1,244.3 452.4,405.6 355.9,393.7 			"/>
            <polygon class="st4" points="457.3,244.1 457.7,409.8 452.4,409.2 452.4,405.6 452.1,244.3 			"/>
            <polygon class="st6" points="184.9,250.5 183.3,375.1 180.4,374.7 181.9,250.6 			"/>
            <polygon class="st4" points="274.4,91.5 277.5,88.7 286.3,93.3 			"/>
            <polygon class="st4" points="79.5,384.8 81.8,248.7 87.3,248.8 85,382.9 85,384.4 			"/>
		</g>
	</g>
        <g>
		<g>
			<polygon class="st9" points="355.8,309.9 301.7,307.7 302.1,225.4 356.1,222.8 356,235.6 350.9,236.4 343.3,239.5 336.5,244.2
				331.1,250.2 327.2,257.4 325,265.2 355.9,265 			"/>
            <polygon class="st9" points="363.4,222.5 424.3,219.6 424.4,312.6 363.2,310.2 363.3,265 395.7,264.8 393.2,256.5 388.8,249.1
				382.8,242.9 375.6,238.4 367.5,235.8 363.3,235.4 			"/>
            <g>
				<polygon class="st9" points="429,312.4 424.4,312.6 424.3,219.6 428.9,219.8 				"/>
                <polygon class="st9" points="355.9,265 325,265.2 327.2,257.4 331.1,250.2 336.5,244.2 343.3,239.5 350.9,236.4 356,235.6
					"/>
                <polygon class="st9" points="367.5,235.8 375.6,238.4 382.8,242.9 388.8,249.1 393.2,256.5 395.7,264.8 363.3,265 363.3,235.4
									"/>
                <polygon class="st9" points="363.4,222.5 363.3,235.4 363.3,265 363.2,310.2 355.8,309.9 355.9,265 356,235.6 356.1,222.8
					"/>
			</g>
		</g>


            <g>
			<polygon class="st8" points="243.6,269.8 241.3,275.5 243.2,269.8 			"/>
                <polygon class="st9" points="241.3,275.5 243.6,269.8 246.1,265 248.6,269.8 250.9,275.6 252.7,281.8 253.9,288.4 254.7,295.3
				254.9,302.3 254.6,309.2 253.7,316.1 252.3,322.6 250.4,328.8 248.1,334.4 245.5,339 243.1,334 240.8,328.1 239.1,321.8
				237.9,315.2 237.1,308.5 236.9,301.6 237.3,294.8 238.1,288.1 239.5,281.6 			"/>
                <polygon class="st7" points="241.3,275.5 239.5,281.6 240.9,275.5 			"/>
                <polygon class="st7" points="239.5,281.6 238.1,288.1 239.1,281.6 			"/>
                <polygon class="st7" points="238.1,288.1 237.3,294.8 237.7,288.1 			"/>
                <polygon class="st7" points="246.1,265 243.6,269.8 245.9,264.6 			"/>
                <polygon class="st7" points="237.3,294.8 236.9,301.6 236.9,294.8 			"/>
                <polygon class="st7" points="236.9,301.6 237.1,308.5 236.5,301.6 			"/>
                <polygon class="st7" points="237.1,308.5 237.9,315.2 236.7,308.5 			"/>
                <polygon class="st7" points="237.9,315.2 239.1,321.8 237.4,315.2 			"/>
                <polygon class="st7" points="239.1,321.8 240.8,328.1 238.7,321.8 			"/>
                <polygon class="st7" points="240.8,328.1 243.1,334 240.4,328.1 			"/>
                <polygon class="st7" points="243.1,334 245.5,339 242.6,334 			"/>
                <polygon class="st7" points="226.9,314.8 225,320.1 222.2,320.2 224.1,314.9 			"/>
                <polygon class="st7" points="221.6,309.2 225.1,309.4 222.3,309.4 218.8,309.3 			"/>
                <polygon class="st7" points="225.1,309.4 226.9,314.8 224.1,314.9 222.3,309.4 			"/>
                <g>
				<polygon class="st7" points="282.3,221.6 281.2,384.5 275,385 276.2,221.4 				"/>
                    <path class="st8" d="M275,385l-58.2-7.3l0.6-61.8l1.3,4l3.6,0.2l2.8-0.1l1.8-5.3l-1.7-5.4l-3.6-0.2l-2.8,0.1l-1.3,3.9l0.9-88.7
					l57.8-3.1L275,385z M242.6,334l2.7,5.4l2.8-5l2.4-5.6l1.9-6.2l1.4-6.5l0.9-6.8l0.3-7l-0.2-7l-0.8-6.9l-1.3-6.6l-1.8-6.2
					l-2.2-5.8l-2.5-4.8l-2.9,4.8l-2.3,5.7l-1.8,6.1l-1.4,6.5l-0.8,6.7l-0.3,6.8l0.2,6.9l0.7,6.8l1.2,6.6l1.7,6.3L242.6,334z"/>
                    <polygon class="st8" points="224.1,314.9 222.2,320.2 218.7,320 217.4,315.9 217,314.5 217.4,313.2 218.8,309.3 222.3,309.4
									"/>
			</g>
		</g>
	</g>


        <line class="st4" x1="355.9" y1="423.5" x2="338.4" y2="425.8"/>
        <g>
		<polygon class="st0" points="92.5,211.6 90.3,215 88.4,218.8 86.7,223.1 85.2,227.7 84,232.6 83.2,237.7 82.6,243 82.3,248.3
			80,384.4 71,383 74.1,206.2 74.2,200.5 184.4,89.6 338.1,180.1 339.9,180.2 338.9,425.4 322.4,422.8 322.6,389.1 323.3,241.3
			323.4,234 322.8,226.9 321.7,220 319.9,213.4 317.6,207.4 314.8,202 311.5,197.3 307.9,193.4 304.7,191.1 303.9,190.5
			299.8,188.5 296.8,187.7 295.5,187.4 291.1,187.3 102.6,203.8 99.9,204.8 97.3,206.5 94.8,208.8 		"/>
            <polygon class="st4" points="338.9,425.4 339.9,180.2 783.6,214.2 787.1,397.1 458.2,455.7 458.1,409.4 457.8,243.7 454.1,229.3
			448.3,216.3 440.6,205.2 431.3,196.5 420.9,190.7 409.7,188.2 404.5,188.6 398.3,189.1 387.2,193.5 377,201.4 368.2,212.3
			361.4,225.8 356.9,241.2 356.4,393.2 356.3,423 		"/>
	</g>
        <g>
		<g>
			<polygon class="st9" points="698.6,244.6 702.1,241.6 706,239.8 710.1,239.3 714.2,240.1 718,242.2 721.5,245.3 724.3,249.5
				726.4,254.3 727.6,259.2 729.3,361.1 694,365.4 692.4,258.8 693.5,253.7 695.7,248.7 			"/>
            <g>
				<polygon class="st8" points="678.3,256.8 680.2,248.6 685.4,248.6 683.5,256.8 				"/>
                <polygon class="st8" points="687.7,235.4 692.9,231 698.1,230.8 692.9,235.2 				"/>
                <path class="st7" d="M726.4,236.6l4.1,6l3.1,7.1l1.9,7.8l2,114l-52.1,7.2l-1.8-121.9l1.9-8.2l3.2-7.3l4.3-6l5.2-4.4l5.8-2.6
					l6-0.6l6,1.3l5.6,3.1L726.4,236.6z M702.1,241.6l-3.5,3l-2.9,4.1l-2.1,5l-1.1,5.1l1.6,106.6l35.3-4.4l-1.7-101.9l-1.2-4.9
					l-2.1-4.9l-2.8-4.1l-3.4-3.2l-3.9-2l-4.1-0.8l-4.1,0.5L702.1,241.6z"/>
                <polygon class="st8" points="704.8,227.8 709.9,227.6 703.9,228.3 698.7,228.4 				"/>
                <polygon class="st8" points="698.7,228.4 703.9,228.3 698.1,230.8 692.9,231 				"/>
                <polygon class="st8" points="683.4,241.3 687.7,235.4 692.9,235.2 688.6,241.2 				"/>
                <polygon class="st8" points="680.2,248.6 683.4,241.3 688.6,241.2 685.4,248.6 				"/>
                <polygon class="st8" points="680,378.3 678.3,256.8 683.5,256.8 685.3,378.7 				"/>
			</g>
		</g>
	</g>
</g>


    <g id="left-window">
	<polygon class="st9" points="562.9,240.1 567.8,236.6 573.2,234.5 578.8,234 584.4,234.9 589.6,237.4 594.3,241.1 598.1,245.9
		600.9,251.6 602.5,257.3 603.7,376.2 555.2,382.2 554.2,256.7 555.9,250.8 558.9,244.9 			"/>
        <g>
		<polygon class="st8" points="536.5,254.8 539.2,245.2 544.7,245.1 542,254.7 				"/>
            <polygon class="st8" points="549.8,229.6 557,224.6 562.4,224.3 555.2,229.5 				"/>
            <path class="st7" d="M601.1,231.4l5.5,7.1l4.1,8.3l2.5,9.1l1.4,132.7l-71.6,9.9l-1-143.7l2.7-9.7l4.5-8.6l6-7l7.2-5.1l8-2.9
			l8.3-0.7l8.1,1.5l7.6,3.6L601.1,231.4z M567.8,237l-4.9,3.5l-4,4.8l-3,5.8l-1.6,6l1,125.4l48.5-6l-1.2-118.9l-1.6-5.7l-2.8-5.7
			l-3.8-4.8l-4.7-3.7l-5.2-2.4l-5.6-1l-5.6,0.6L567.8,237z"/>
            <polygon class="st8" points="573.2,220.9 578.7,220.7 570.4,221.4 564.9,221.6 				"/>
            <polygon class="st8" points="564.9,221.6 570.4,221.4 562.4,224.3 557,224.6 				"/>
            <polygon class="st8" points="543.7,236.6 549.8,229.6 555.2,229.5 549.2,236.5 				"/>
            <polygon class="st8" points="539.2,245.2 543.7,236.6 549.2,236.5 544.7,245.1 				"/>
            <polygon class="st8" points="537.4,397.8 536.5,254.8 542,254.7 543,398.4 				"/>
	</g>
</g>


</svg>
