<?xml version="1.0" encoding="UTF-8"?>
<svg id="Layer_1" data-name="Layer 1" xmlns="http://www.w3.org/2000/svg" version="1.1" viewBox="0 0 841.89 595.28">
  <defs>
    <style>
      .st0{fill:#8F6645;}
      .st1{fill:#EEEEEE;}
      .st2{fill:#DDDDDD;}
      .st3{fill:#3D3A37;}
      .st4{fill:#C4C4C4;}
      .st5{fill:#3D3A37;}
      .st6{fill:#000000;}
      .st7{fill:#FFFFFF;}
      .st8{fill:#888888;}
      .st9{fill:#7884AF;}
    </style>
  </defs>
  <g id="chimney">
    <polygon class="st5" points="250.71 117.2 286.13 118.77 286.13 8.92 250.71 7.35 250.71 117.2"/>
    <polygon class="st6" points="286.13 118.77 329.59 117.2 329.59 7.35 286.13 8.92 286.13 118.77"/>
    <polygon class="st6" points="329.59 7.35 294.17 5.77 250.71 7.35 286.13 8.92 329.59 7.35"/>
  </g>
  <g>
    <polygon class="st4" points="537.88 578.89 674.73 573.92 674.73 386.14 537.88 391.1 537.88 578.89"/>
    <polygon class="st4" points="451.5 582.02 513.13 579.78 513.13 391.2 451.5 388.46 451.5 582.02"/>
    <polygon class="st0" points="425 365.92 425 319.2 425 172.73 162.24 161.04 162.24 571.29 425 582.98 425 365.92"/>
    <polygon class="st4" points="425 172.73 425 319.2 440.43 318.64 455.22 319.3 455.22 320.55 511.6 323.05 527.03 322.49 538.53 323.01 627.2 319.79 627.2 318.86 644.18 318.25 655.68 318.76 674.73 318.07 674.73 310.14 692.33 309.51 692.33 163.36 429.07 172.91 425 172.73"/>
  </g>
  <g>
    <g>
      <polygon class="st8" points="613.49 304.72 613.49 184.68 609.36 184.49 609.36 304.53 613.49 304.72"/>
      <path class="st7" d="M285.58,315.41l-33.54-1.66v-113.5l33.54,1.66v113.5ZM292.95,202.07l35.22,1.57v113.5l-35.22-1.57v-113.5ZM335.63,192.85l-91.05-4.05v135.74l91.05,4.05v-135.74Z"/>
    </g>
    <g>
      <polygon class="st7" points="678.8 182.31 674.67 182.12 609.36 184.49 613.49 184.68 678.8 182.31"/>
      <path class="st7" d="M676.18,290.27l-60.07,2.18v-95.69l60.07-2.18v95.69ZM678.8,182.31l-65.31,2.37v120.04l65.31-2.37v-120.04Z"/>
      <polygon class="st7" points="244.57 188.8 335.63 192.85 340.15 192.68 249.1 188.63 244.57 188.8"/>
      <polygon class="st7" points="335.63 192.85 335.63 328.59 340.15 328.42 340.15 192.68 335.63 192.85"/>
    </g>
    <g>
      <polygon class="st9" points="616.11 292.45 676.18 290.27 676.18 194.58 616.11 196.75 616.11 292.45"/>
      <polygon class="st9" points="328.17 203.63 292.95 202.07 292.95 315.57 328.17 317.14 328.17 203.63"/>
      <polygon class="st9" points="252.03 313.75 285.58 315.41 285.58 201.91 252.03 200.25 252.03 313.75"/>
    </g>
  </g>
  <g>
    <polygon class="st8" points="310.89 451.65 310.89 395.51 273.23 393.83 273.23 551.75 286.73 552.35 286.73 450.58 310.89 451.65"/>
    <g>
      <path class="st7" d="M534.11,216.49l58.47-2.12v137.06l-58.47,2.12v-137.06ZM527.61,362.54l71.47-2.59v-154.56l-71.47,2.59v154.56Z"/>
      <path class="st8" d="M578.8,272.43l7.19-.26,5.16.23v15.66l-7.19.26-5.16-.23v-15.66ZM592.58,214.37l-58.47,2.12v137.06l58.47-2.12v-137.06Z"/>
      <polygon class="st7" points="591.14 272.4 583.96 272.66 583.96 288.32 591.14 288.06 591.14 272.4"/>
      <polygon class="st8" points="311.54 478.83 311.42 471.38 308.23 471.5 308.35 478.94 311.54 478.83"/>
      <polygon class="st8" points="323.16 578.82 327.68 578.65 327.68 375.06 323.16 375.22 323.16 578.82"/>
    </g>
    <g>
      <polygon class="st7" points="527.61 362.54 527.61 207.98 523.48 207.79 523.48 362.35 527.61 362.54"/>
      <polygon class="st7" points="527.61 207.98 599.08 205.39 594.95 205.2 523.48 207.79 527.61 207.98"/>
      <polygon class="st7" points="585.99 272.17 578.8 272.43 583.96 272.66 591.14 272.4 585.99 272.17"/>
      <polygon class="st8" points="578.8 272.43 578.8 288.09 583.96 288.32 583.96 272.66 578.8 272.43"/>
      <path class="st8" d="M311.42,471.38l.12,7.44-3.19.12-7.27-.32-.12-7.44,3.19-.12,7.27.32ZM310.89,395.51v56.14l-24.16-1.07v101.77l-13.5-.6v-157.92l37.66,1.68ZM266.91,565.69l49.12,2.19v-182.35l-49.12-2.18v182.35Z"/>
      <polygon class="st8" points="311.42 471.38 304.16 471.06 300.97 471.17 308.23 471.5 311.42 471.38"/>
      <polygon class="st7" points="308.35 478.94 308.23 471.5 300.97 471.17 301.09 478.62 308.35 478.94"/>
      <path class="st7" d="M316.03,567.88l-49.12-2.19v-182.35l49.12,2.18v182.35ZM259.78,576l63.38,2.82v-203.59l-63.38-2.82v203.59Z"/>
      <polygon class="st8" points="264.3 372.24 259.78 372.4 323.16 375.22 327.68 375.06 264.3 372.24"/>
    </g>
  </g>
  <g id="right-window">
    <path class="st7" d="M511.19,295.74l-60.07,2.18v-95.7l60.07-2.18v95.7ZM513.81,187.78l-65.31,2.37v120.04l65.31-2.37v-120.04Z"/>
    <polygon class="st7" points="513.81 187.78 509.68 187.6 444.37 189.97 448.5 190.15 513.81 187.78"/>
    <polygon class="st8" points="448.5 310.19 448.5 190.15 444.37 189.97 444.37 310.01 448.5 310.19"/>
    <polygon class="st9" points="451.12 297.92 511.19 295.74 511.19 200.05 451.12 202.23 451.12 297.92"/>

    <path class="st7" d="M534.23,526.14l-60.07,2.18v-95.69l60.07-2.18v95.69ZM536.85,418.18l-65.31,2.37v120.04l65.31-2.37v-120.04Z"/>
    <polygon class="st8" points="471.54 540.59 471.54 420.55 467.41 420.37 467.41 540.4 471.54 540.59"/>
    <polygon class="st7" points="536.85 418.18 532.72 418 467.41 420.37 471.54 420.55 536.85 418.18"/>
    <polygon class="st9" points="474.16 528.32 534.23 526.14 534.23 430.45 474.16 432.63 474.16 528.32"/>
  </g>
  <g>
    <g>
      <polygon class="st0" points="772.83 578.29 790.43 577.65 790.43 360.59 772.83 361.23 655.68 365.48 638.7 366.09 538.53 369.73 523.1 370.29 523.1 587.34 537.88 586.81 537.88 578.89 537.88 391.1 674.73 386.14 686.44 385.71 704.05 385.08 762.86 382.94 772.83 382.58 772.83 578.29"/>
      <polygon class="st0" points="655.68 365.48 772.83 361.23 772.83 314.51 761.33 314.92 707.12 316.89 689.52 317.53 674.73 318.07 655.68 318.76 655.68 365.48"/>
      <polygon class="st0" points="638.7 366.09 655.68 365.48 655.68 318.76 638.7 319.37 638.7 366.09"/>
      <polygon class="st0" points="686.44 385.71 686.44 574.44 704.05 573.8 704.05 385.08 686.44 385.71"/>
      <polygon class="st0" points="455.22 320.55 455.22 319.3 439.79 319.86 455.22 320.55"/>
      <polygon class="st0" points="638.7 366.09 638.7 319.37 627.2 319.79 538.53 323.01 538.53 369.73 638.7 366.09"/>
      <polygon class="st0" points="538.53 369.73 538.53 323.01 523.1 323.57 523.1 370.29 538.53 369.73"/>
      <polygon class="st0" points="790.43 360.59 790.43 313.87 772.83 314.51 772.83 361.23 790.43 360.59"/>
      <polygon class="st0" points="436.71 387.8 436.71 583.5 451.5 582.97 451.5 582.02 451.5 388.46 436.71 387.8"/>
      <polygon class="st0" points="689.52 310.8 689.52 317.53 707.12 316.89 707.12 310.16 689.52 310.8"/>
    </g>
    <polygon class="st0" points="707.12 310.16 707.12 316.89 761.33 314.92 761.33 314 778.93 313.36 707.12 310.16"/>
    <g>
      <polygon class="st4" points="513.13 586.9 523.1 587.34 523.1 370.29 511.6 369.78 439.79 366.58 425 365.92 425 582.98 436.71 583.5 436.71 387.8 451.5 388.46 513.13 391.2 513.13 579.78 513.13 586.9"/>
      <polygon class="st4" points="439.79 366.58 511.6 369.78 511.6 323.05 455.22 320.55 439.79 319.86 439.79 366.58"/>
      <polygon class="st4" points="762.86 577.84 772.83 578.29 772.83 382.58 762.86 382.94 762.86 577.84"/>
      <polygon class="st4" points="674.73 386.14 674.73 573.92 686.44 574.44 686.44 385.71 674.73 386.14"/>
      <polygon class="st4" points="425 365.92 439.79 366.58 439.79 319.86 425 319.2 425 365.92"/>
      <polygon class="st4" points="523.1 323.57 511.6 323.05 511.6 369.78 523.1 370.29 523.1 323.57"/>
      <polygon class="st4" points="674.73 310.14 674.73 318.07 689.52 317.53 689.52 310.8 674.73 310.14"/>
      <polygon class="st4" points="638.7 319.37 627.2 318.86 627.2 319.79 638.7 319.37"/>
      <polygon class="st4" points="761.33 314 761.33 314.92 772.83 314.51 761.33 314"/>
    </g>
  </g>
  <g>
    <g>
      <polygon class="st1" points="126.29 145.09 126.29 159.44 162.24 161.04 425 172.73 429.07 172.91 429.07 158.55 126.29 145.09"/>
      <polygon class="st1" points="126.29 115.54 126.29 130.54 153.46 131.74 429.07 144 429.07 129.01 126.29 115.54"/>
      <polygon class="st3" points="153.46 145.14 430.45 157.46 430.45 143.95 429.07 144 153.46 131.74 153.46 144.1 153.46 145.14"/>
    </g>
    <g>
      <polygon class="st1" points="733.96 132.94 733.96 117.95 429.07 129.01 429.07 144 430.45 143.95 706.79 133.93 733.96 132.94"/>
      <polygon class="st1" points="429.07 158.55 429.07 172.91 692.33 163.36 733.96 161.85 733.96 147.49 429.07 158.55"/>
      <polygon class="st3" points="430.45 157.46 706.79 147.44 706.79 146.28 706.79 133.93 430.45 143.95 430.45 157.46"/>
    </g>
    <g>
      <polygon class="st3" points="733.96 117.95 431.18 104.48 126.29 115.54 429.07 129.01 733.96 117.95"/>
      <polygon class="st3" points="126.29 145.09 429.07 158.55 733.96 147.49 706.79 146.28 706.79 147.44 430.45 157.46 153.46 145.14 153.46 144.1 126.29 145.09"/>
      <polygon class="st3" points="707.12 310.16 692.33 309.51 674.73 310.14 689.52 310.8 707.12 310.16"/>
      <polygon class="st3" points="638.7 319.37 655.68 318.76 644.18 318.25 627.2 318.86 638.7 319.37"/>
      <polygon class="st3" points="455.22 319.3 440.43 318.64 425 319.2 439.79 319.86 455.22 319.3"/>
      <polygon class="st3" points="523.1 323.57 538.53 323.01 527.03 322.49 511.6 323.05 523.1 323.57"/>
      <polygon class="st3" points="772.83 314.51 790.43 313.87 778.93 313.36 761.33 314 772.83 314.51"/>
    </g>
  </g>
</svg>