<?xml version="1.0" encoding="UTF-8"?>
<svg id="Layer_1" data-name="Layer 1" xmlns="http://www.w3.org/2000/svg" version="1.1" viewBox="0 0 841.89 595.28">
  <defs>
    <style>
      .st0{fill:#8F6645;}
      .st1{fill:#EEEEEE;}
      .st2{fill:#DDDDDD;}
      .st3{fill:#3D3A37;}
      .st4{fill:#C4C4C4;}
      .st5{fill:#3D3A37;}
      .st6{fill:#000000;}
      .st7{fill:#FFFFFF;}
      .st8{fill:#888888;}
      .st9{fill:#7884AF;}
    </style>
  </defs>
  <g>
    <polygon class="st1" points="69.93 115 69.93 130.29 97.67 131.39 364.44 141.96 364.44 126.67 69.93 115"/>
    <polygon class="st1" points="692.06 158.75 692.06 144.11 364.44 156.8 364.44 171.44 648.36 160.45 692.06 158.75"/>
    <polygon class="st1" points="364.44 171.44 364.44 156.8 69.93 145.13 69.93 159.77 105.82 161.19 364.05 171.42 364.44 171.44"/>
    <polygon class="st1" points="364.44 126.67 364.44 141.96 364.6 141.96 664.31 130.35 692.06 129.28 692.06 113.98 364.44 126.67"/>
    <polygon class="st3" points="97.67 145.13 364.6 155.71 364.6 141.96 364.44 141.96 97.67 131.39 97.67 144.05 97.67 145.13"/>
    <polygon class="st3" points="364.6 155.71 664.31 144.11 664.31 143.01 664.31 130.35 364.6 141.96 364.6 155.71"/>
  </g>
  <polygon class="st0" points="648.36 308.78 649.46 308.74 664.37 309.33 727.17 306.89 727.17 305.73 739.61 305.25 648.36 301.63 648.36 308.78"/>
  <g>
    <polygon class="st3" points="397.55 102.31 69.93 115 364.44 126.67 692.06 113.98 397.55 102.31"/>
    <polygon class="st3" points="364.44 156.8 692.06 144.11 664.31 143.01 664.31 144.11 364.6 155.71 97.67 145.13 97.67 144.05 69.93 145.13 364.44 156.8"/>
    <polygon class="st3" points="648.36 309.95 664.37 309.33 649.46 308.74 648.36 308.78 648.36 309.95"/>
    <polygon class="st3" points="754.51 305.84 739.61 305.25 727.17 305.73 742.07 306.32 754.51 305.84"/>
  </g>
  <g>
    <polygon class="st0" points="648.36 357.59 648.36 309.95 648.36 308.78 648.36 301.63 648.36 160.45 364.44 171.44 364.05 171.42 364.05 589.95 648.36 578.94 648.36 357.59"/>
    <polygon class="st4" points="364.05 589.95 364.05 171.42 105.82 161.19 105.82 579.72 364.05 589.95"/>
  </g>
  <g>
    <polygon class="st4" points="729.45 574.68 743.73 575.25 743.73 375.67 729.45 376.23 729.45 574.68"/>
    <polygon class="st4" points="743.73 575.25 754.51 574.83 754.51 353.48 742.07 353.96 664.37 356.97 648.36 357.59 648.36 578.94 661.04 578.45 661.04 378.87 729.45 376.23 743.73 375.67 743.73 575.25"/>
    <polygon class="st4" points="664.37 356.97 742.07 353.96 742.07 306.32 727.17 306.89 664.37 309.33 664.37 356.97"/>
    <polygon class="st4" points="648.36 357.59 664.37 356.97 664.37 309.33 648.36 309.95 648.36 357.59"/>
    <polygon class="st4" points="754.51 305.84 742.07 306.32 742.07 353.96 754.51 353.48 754.51 305.84"/>
    <polygon class="st4" points="727.17 305.73 727.17 306.89 742.07 306.32 727.17 305.73"/>
  </g>
  <g id="chimney">
    <polygon class="st6" points="400.78 121.63 439.11 120.15 439.11 8.12 400.78 9.61 400.78 121.63"/>
    <polygon class="st5" points="358.8 119.97 400.78 121.63 400.78 9.61 358.8 7.94 358.8 119.97"/>
    <polygon class="st6" points="397.13 6.46 358.8 7.94 400.78 9.61 439.11 8.12 397.13 6.46"/>
  </g>
  <polygon class="st8" points="534.16 454.58 534.16 397.33 493.41 398.9 493.41 559.94 508.02 559.38 508.02 455.59 534.16 454.58"/>
  <g>
    <polygon class="st7" points="526.87 474.96 527 482.54 530.08 482.66 529.95 475.08 526.87 474.96"/>
    <polygon class="st7" points="537.94 482.36 537.81 474.78 529.95 475.08 530.08 482.66 537.94 482.36"/>
    <path class="st8" d="M534.16,397.33v57.25l-26.14,1.01v103.79l-14.61.57v-161.04l40.75-1.58ZM527,482.54l-.13-7.58,7.86-.3,3.08.12.13,7.58-7.86.3-3.08-.12ZM486.56,574.71l53.15-2.06v-185.96l-53.15,2.06v185.95Z"/>
    <path class="st7" d="M539.72,572.66l-53.15,2.06v-185.95l53.15-2.06v185.96ZM478.85,585.85l68.57-2.66v-207.62l-68.57,2.66v207.62Z"/>
    <polygon class="st7" points="474.48 585.67 478.85 585.85 478.85 378.23 474.48 378.05 474.48 585.67"/>
  </g>
  <g>
    <polygon class="st7" points="534.73 474.65 526.87 474.96 529.95 475.08 537.81 474.78 534.73 474.65"/>
    <polygon class="st7" points="474.48 378.05 478.85 378.23 547.43 375.57 543.06 375.4 474.48 378.05"/>
  </g>
  <g id="left-window">
    <polygon class="st8" points="462.4 192.32 560.92 188.5 556.55 188.33 458.03 192.14 462.4 192.32"/>
    <polygon class="st8" points="269.53 224.19 261.98 211.48 258.21 211.62 265.77 224.33 269.53 224.19"/>
    <polygon class="st8" points="261.98 211.48 252.42 201.89 248.65 202.04 258.21 211.62 261.98 211.48"/>
    <polygon class="st8" points="241.51 196.08 229.99 194.45 226.22 194.59 237.74 196.23 241.51 196.08"/>
    <polygon class="st8" points="252.42 201.89 241.51 196.08 237.74 196.23 248.65 202.04 252.42 201.89"/>
    <polygon class="st8" points="253.17 310.93 242.78 317.68 246.54 317.53 256.93 310.78 253.17 310.93"/>
    <polygon class="st8" points="242.78 317.68 231.44 320.33 235.2 320.18 246.54 317.53 242.78 317.68"/>
    <polygon class="st8" points="272.16 271.84 268.37 287.2 272.14 287.05 275.92 271.7 272.16 271.84"/>
    <polygon class="st8" points="268.37 287.2 261.9 300.53 265.66 300.39 272.14 287.05 268.37 287.2"/>
    <polygon class="st8" points="253.17 310.93 256.93 310.78 265.66 300.39 261.9 300.53 253.17 310.93"/>
    <polygon class="st8" points="270.81 239.3 274.57 239.15 269.53 224.19 265.77 224.33 270.81 239.3"/>
    <polygon class="st8" points="270.81 239.3 272.99 255.5 276.75 255.36 274.57 239.15 270.81 239.3"/>
    <polygon class="st8" points="272.16 271.84 275.92 271.7 276.75 255.36 272.99 255.5 272.16 271.84"/>
    <path class="st7" d="M199.21,284.03l-4.04-12-1.75-12.99,70.49,3.41-.33,6.55-3.03,12.32-5.19,10.69-7,8.34-8.33,5.41-9.09,2.12-9.24-1.31-8.75-4.66-7.67-7.69-6.06-10.19ZM262.49,242.9l.87,6.5-69.28-3.47,3.03-12.32,5.19-10.69,7-8.34,8.33-5.41,9.09-2.12,9.24,1.31,8.75,4.66,7.67,7.69,6.06,10.19,4.04,12ZM184.67,259.42l2.18,16.2,5.04,14.97,7.56,12.71,9.56,9.59,10.91,5.81,11.52,1.64,11.34-2.65,10.39-6.75,8.73-10.4,6.48-13.33,3.78-15.36.83-16.34-2.18-16.2-5.04-14.97-7.56-12.71-9.56-9.59-10.91-5.81-11.52-1.64-11.34,2.65-10.39,6.75-8.73,10.4-6.48,13.33-3.78,15.36-.83,16.34Z"/>
    <polygon class="st9" points="263.36 249.4 262.49 242.9 258.45 230.9 252.39 220.7 244.72 213.02 235.97 208.36 226.74 207.05 217.65 209.17 209.31 214.58 202.31 222.92 197.12 233.61 194.09 245.93 263.36 249.4"/>
    <polygon class="st9" points="195.17 272.02 199.21 284.03 205.27 294.22 212.94 301.9 221.68 306.56 230.92 307.87 240.01 305.75 248.34 300.34 255.35 292 260.54 281.31 263.57 268.99 263.91 262.44 193.42 259.03 195.17 272.02"/>
  </g>
  <g>
    <g>
      <polygon class="st8" points="269.89 436.27 262.33 423.56 258.56 423.7 266.12 436.41 269.89 436.27"/>
      <polygon class="st8" points="262.33 423.56 252.77 413.97 249 414.12 258.56 423.7 262.33 423.56"/>
      <polygon class="st8" points="241.86 408.16 230.34 406.53 226.57 406.67 238.09 408.31 241.86 408.16"/>
      <polygon class="st8" points="252.77 413.97 241.86 408.16 238.09 408.31 249 414.12 252.77 413.97"/>
      <polygon class="st8" points="253.52 523.01 243.13 529.76 246.9 529.62 257.29 522.86 253.52 523.01"/>
      <polygon class="st8" points="243.13 529.76 231.79 532.41 235.56 532.26 246.9 529.62 243.13 529.76"/>
      <polygon class="st8" points="272.51 483.92 268.73 499.28 272.49 499.14 276.28 483.78 272.51 483.92"/>
      <polygon class="st8" points="268.73 499.28 262.25 512.61 266.02 512.47 272.49 499.14 268.73 499.28"/>
      <polygon class="st8" points="253.52 523.01 257.29 522.86 266.02 512.47 262.25 512.61 253.52 523.01"/>
      <path class="st7" d="M506.77,317.86l-36.3,1.23v-115.75l36.3-1.23v115.75ZM514.74,201.63l38.11-1.48v115.75l-38.11,1.47v-115.75ZM560.92,188.5l-98.52,3.82v138.43l98.52-3.81v-138.43Z"/>
      <polygon class="st8" points="462.4 330.74 462.4 192.32 458.03 192.14 458.03 330.57 462.4 330.74"/>
      <path class="st7" d="M199.56,496.11l-4.04-12-1.75-12.99,70.49,3.41-.33,6.55-3.03,12.32-5.19,10.69-7,8.34-8.33,5.41-9.09,2.12-9.24-1.31-8.75-4.66-7.67-7.69-6.06-10.19ZM262.84,454.98l.87,6.5-69.28-3.47,3.03-12.32,5.19-10.69,7-8.34,8.33-5.41,9.09-2.12,9.24,1.31,8.75,4.66,7.67,7.69,6.06,10.19,4.04,12ZM185.02,471.5l2.18,16.2,5.04,14.97,7.56,12.71,9.56,9.59,10.91,5.81,11.52,1.64,11.34-2.65,10.39-6.75,8.73-10.4,6.48-13.33,3.78-15.36.83-16.34-2.18-16.2-5.04-14.97-7.56-12.71-9.56-9.59-10.91-5.81-11.52-1.64-11.34,2.65-10.39,6.75-8.73,10.4-6.48,13.33-3.78,15.36-.83,16.34Z"/>
      <polygon class="st8" points="271.16 451.38 273.34 467.59 277.11 467.44 274.93 451.24 271.16 451.38"/>
      <polygon class="st8" points="272.51 483.92 276.28 483.78 277.11 467.44 273.34 467.59 272.51 483.92"/>
      <polygon class="st8" points="271.16 451.38 274.93 451.24 269.89 436.27 266.12 436.41 271.16 451.38"/>
    </g>
    <g>
      <polygon class="st9" points="552.85 200.15 514.74 201.63 514.74 317.38 552.85 315.9 552.85 200.15"/>
      <polygon class="st9" points="470.47 319.09 506.77 317.86 506.77 202.11 470.47 203.34 470.47 319.09"/>
      <polygon class="st9" points="263.72 461.48 262.84 454.98 258.8 442.98 252.74 432.78 245.08 425.1 236.33 420.44 227.09 419.13 218 421.25 209.67 426.67 202.66 435 197.47 445.69 194.44 458.01 263.72 461.48"/>
      <polygon class="st9" points="195.52 484.1 199.56 496.11 205.62 506.3 213.29 513.99 222.04 518.64 231.27 519.96 240.36 517.83 248.7 512.42 255.7 504.08 260.89 493.39 263.92 481.07 264.26 474.52 193.77 471.11 195.52 484.1"/>
    </g>
  </g>
</svg>