<?xml version="1.0" encoding="UTF-8"?>
<svg id="Layer_1" data-name="Layer 1" xmlns="http://www.w3.org/2000/svg" version="1.1" viewBox="0 0 841.89 595.28">
  <defs>
    <style>
      .st0{fill:#8F6645;}
      .st1{fill:#EEEEEE;}
      .st2{fill:#DDDDDD;}
      .st3{fill:#3D3A37;}
      .st4{fill:#C4C4C4;}
      .st5{fill:#3D3A37;}
      .st6{fill:#000000;}
      .st7{fill:#FFFFFF;}
      .st8{fill:#888888;}
      .st9{fill:#7884AF;}
    </style>
  </defs>
  <g>
    <polygon class="st6" points="419.76 116.72 453.7 115.1 453.7 5.8 419.76 7.42 419.76 116.72"/>
    <polygon class="st5" points="375.25 115.21 419.76 116.72 419.76 7.42 375.25 5.91 375.25 115.21"/>
    <polygon class="st6" points="419.76 7.42 453.7 5.8 409.19 4.29 375.25 5.91 419.76 7.42"/>
  </g>
  <g>
    <polygon class="st0" points="710.55 572.6 710.55 164.39 458.81 176.38 458.81 322.13 458.81 368.62 458.81 584.59 710.55 572.6"/>
    <polygon class="st4" points="458.81 322.13 458.81 176.38 455.35 176.55 185.02 167.36 185.02 312.82 200.82 313.36 200.82 321.03 209.42 321.32 220.44 320.8 237.83 321.39 237.83 322.29 346.79 325.99 357.81 325.47 375.84 326.08 426.61 323.66 426.61 322.19 440.78 321.52 458.81 322.13"/>
    <polygon class="st4" points="200.16 388.74 200.16 575.8 346.79 580.78 346.79 393.73 200.16 388.74"/>
    <polygon class="st4" points="374.37 581.72 429.55 583.59 429.55 391.26 374.37 393.89 374.37 581.72"/>
  </g>
  <g>
    <g>
      <polygon class="st8" points="592.14 483.8 598.9 483.48 602.26 483.6 602.26 501.26 595.5 501.58 592.14 501.47 592.14 566.65 625.21 565.07 625.21 409.88 592.14 411.46 592.14 483.8"/>
      <polygon class="st8" points="574.93 484.62 582.17 484.28 582.17 411.93 549.15 413.51 549.15 568.7 582.17 567.12 582.17 502.22 578.29 502.4 574.93 502.29 574.93 484.62"/>
    </g>
    <g>
      <polygon class="st7" points="598.9 483.48 592.14 483.8 595.5 483.92 602.26 483.6 598.9 483.48"/>
      <polygon class="st7" points="582.17 484.28 574.93 484.62 578.29 484.74 585.53 484.39 582.17 484.28"/>
      <polygon class="st7" points="629.1 397.48 537.66 401.84 541.46 401.97 632.9 397.61 629.1 397.48"/>
      <polygon class="st7" points="282.02 209.14 355.22 211.63 359.17 211.44 285.97 208.95 282.02 209.14"/>
      <polygon class="st7" points="595.5 483.92 595.5 501.58 602.26 501.26 602.26 483.6 595.5 483.92"/>
      <polygon class="st7" points="585.53 484.39 578.29 484.74 578.29 502.4 582.17 502.22 585.53 502.06 585.53 484.39"/>
      <path class="st7" d="M582.17,502.22v64.91l-33.02,1.57v-155.19l33.02-1.57v72.34l3.36.11v17.66l-3.36.16ZM592.14,483.8v-72.34l33.07-1.58v155.19l-33.07,1.58v-82.84ZM541.46,580.97l91.44-4.36v-179l-91.44,4.36v179Z"/>
      <polygon class="st7" points="355.22 211.63 355.22 365.42 359.17 365.23 359.17 211.44 355.22 211.63"/>
      <polygon class="st7" points="341.81 292.73 341.81 277.15 336.87 277.39 336.87 292.97 341.81 292.73"/>
      <polygon class="st7" points="341.81 277.15 334.45 276.9 329.5 277.14 336.87 277.39 341.81 277.15"/>
    </g>
    <g>
      <polygon class="st7" points="592.14 483.8 592.14 501.47 595.5 501.58 595.5 483.92 592.14 483.8"/>
      <polygon class="st7" points="574.93 484.62 574.93 502.29 578.29 502.4 578.29 484.74 574.93 484.62"/>
      <polygon class="st7" points="537.66 401.84 537.66 580.84 541.46 580.97 541.46 401.97 537.66 401.84"/>
      <path class="st7" d="M288.68,218.08l59.88,2.04v136.37l-59.88-2.04v-136.37ZM282.02,362.93l73.2,2.49v-153.78l-73.2-2.49v153.79Z"/>
      <path class="st8" d="M341.81,277.15v15.58l-4.94.24-7.36-.25v-15.58l4.94-.24,7.36.25ZM348.56,220.11l-59.88-2.04v136.37l59.88,2.04v-136.37Z"/>
      <polygon class="st7" points="336.87 277.39 329.5 277.14 329.5 292.72 336.87 292.97 336.87 277.39"/>
    </g>
  </g>
  <g>
    <polygon class="st0" points="170.85 313.5 102.05 316.77 117.85 317.31 117.85 318.21 170.85 320.01 170.85 313.5"/>
    <g>
      <polygon class="st0" points="91.03 363.79 91.03 579.76 106.17 580.27 106.17 385.55 115.72 385.87 173.79 387.85 188.94 388.36 200.16 388.74 346.79 393.73 346.79 580.78 346.79 588.45 364.82 589.07 364.82 373.09 346.79 372.48 226.81 368.4 209.42 367.81 106.84 364.32 91.03 363.79"/>
      <polygon class="st0" points="91.03 317.3 91.03 363.79 106.84 364.32 106.84 317.84 91.03 317.3"/>
      <polygon class="st0" points="346.79 372.48 364.82 373.09 364.82 326.61 346.79 325.99 346.79 372.48"/>
      <polygon class="st0" points="346.79 372.48 346.79 325.99 237.83 322.29 226.81 321.92 226.81 368.4 346.79 372.48"/>
      <polygon class="st0" points="173.79 575.82 188.94 576.33 188.94 388.36 173.79 387.85 173.79 575.82"/>
      <polygon class="st0" points="170.85 313.5 170.85 320.01 186.65 320.55 186.65 314.03 170.85 313.5"/>
      <polygon class="st0" points="226.81 368.4 226.81 321.92 209.42 321.32 209.42 367.81 226.81 368.4"/>
      <polygon class="st0" points="209.42 367.81 209.42 321.32 200.82 321.03 186.65 320.55 170.85 320.01 117.85 318.21 106.84 317.84 106.84 364.32 209.42 367.81"/>
      <polygon class="st0" points="429.55 584.51 447.58 585.12 447.58 390.4 429.55 391.26 429.55 583.59 429.55 584.51"/>
      <polygon class="st0" points="444.64 322.81 426.61 322.19 426.61 323.66 444.64 322.81"/>
    </g>
    <g>
      <polygon class="st4" points="364.82 373.09 364.82 589.07 374.37 588.61 374.37 581.72 374.37 393.89 429.55 391.26 447.58 390.4 447.58 585.12 458.81 584.59 458.81 368.62 444.64 369.29 375.84 372.57 364.82 373.09"/>
      <polygon class="st4" points="458.81 368.62 458.81 322.13 444.64 322.81 444.64 369.29 458.81 368.62"/>
      <polygon class="st4" points="364.82 326.61 364.82 373.09 375.84 372.57 375.84 326.08 364.82 326.61"/>
      <polygon class="st4" points="188.94 388.36 188.94 576.33 200.16 575.8 200.16 388.74 188.94 388.36"/>
      <polygon class="st4" points="115.72 579.82 115.72 385.87 106.17 385.55 106.17 580.27 115.72 579.82"/>
      <polygon class="st4" points="200.82 313.36 186.65 314.03 186.65 320.55 200.82 321.03 200.82 313.36"/>
      <polygon class="st4" points="444.64 369.29 444.64 322.81 426.61 323.66 375.84 326.08 375.84 372.57 444.64 369.29"/>
      <polygon class="st4" points="117.85 317.31 106.84 317.84 117.85 318.21 117.85 317.31"/>
      <polygon class="st4" points="237.83 321.39 226.81 321.92 237.83 322.29 237.83 321.39"/>
    </g>
  </g>
  <g>
    <g>
      <polygon class="st3" points="102.05 316.77 91.03 317.3 106.84 317.84 117.85 317.31 102.05 316.77"/>
      <polygon class="st3" points="346.79 325.99 364.82 326.61 375.84 326.08 357.81 325.47 346.79 325.99"/>
      <polygon class="st3" points="185.02 312.82 170.85 313.5 186.65 314.03 200.82 313.36 185.02 312.82"/>
      <polygon class="st3" points="209.42 321.32 226.81 321.92 237.83 321.39 220.44 320.8 209.42 321.32"/>
      <polygon class="st3" points="444.64 322.81 458.81 322.13 440.78 321.52 426.61 322.19 444.64 322.81"/>
      <polygon class="st3" points="455.35 132.86 745.43 119.05 433.17 108.43 143.09 122.25 455.35 132.86"/>
      <polygon class="st3" points="170.07 150.36 143.09 151.64 455.35 162.26 745.43 148.44 718.45 147.53 718.45 148.54 453.08 161.18 170.07 151.55 170.07 150.36"/>
    </g>
    <g>
      <polygon class="st1" points="455.35 147.79 455.35 132.86 143.09 122.25 143.09 137.17 170.07 138.09 453.08 147.71 455.35 147.79"/>
      <polygon class="st1" points="143.09 151.64 143.09 165.93 185.02 167.36 455.35 176.55 455.35 162.26 143.09 151.64"/>
      <polygon class="st3" points="170.07 151.55 453.08 161.18 453.08 147.71 170.07 138.09 170.07 150.36 170.07 151.55"/>
    </g>
    <g>
      <polygon class="st1" points="745.43 133.97 745.43 119.05 455.35 132.86 455.35 147.79 718.45 135.25 745.43 133.97"/>
      <polygon class="st1" points="455.35 162.26 455.35 176.55 458.81 176.38 710.55 164.39 745.43 162.73 745.43 148.44 455.35 162.26"/>
      <polygon class="st3" points="453.08 161.18 718.45 148.54 718.45 147.53 718.45 135.25 455.35 147.79 453.08 147.71 453.08 161.18"/>
    </g>
  </g>
  <g>
    <g>
      <path class="st7" d="M434.18,301.56l-61.52-2.09v-95.22l61.52,2.09v95.22ZM436.86,194.32l-66.89-2.27v119.44l66.89,2.27v-119.44Z"/>
      <polygon class="st8" points="487.84 205.07 487.84 320.75 491.65 320.88 491.65 205.2 487.84 205.07"/>
      <polygon class="st8" points="605.52 199.66 605.52 315.34 609.32 315.47 609.32 199.79 605.52 199.66"/>
    </g>
    <g>
      <polygon class="st7" points="267.89 188.07 271.84 187.88 204.96 185.61 201 185.79 267.89 188.07"/>
      <polygon class="st7" points="440.82 194.13 436.86 194.32 436.86 313.76 440.82 313.57 440.82 194.13"/>
      <polygon class="st7" points="436.86 194.32 440.82 194.13 373.93 191.86 369.98 192.05 436.86 194.32"/>
      <polygon class="st7" points="562.56 201.51 487.84 205.07 491.65 205.2 566.36 201.64 562.56 201.51"/>
      <path class="st7" d="M560.24,254.34l-27.83,1.33v-42.94l27.83-1.33v42.94ZM526.72,309.74l-28.96,1.38v-47.24l28.96-1.38v47.24ZM526.72,255.94l-28.96,1.38v-42.94l28.96-1.38v42.94ZM532.41,309.47v-47.24l27.83-1.33v47.24l-27.83,1.33ZM566.36,317.32v-115.68l-74.71,3.56v115.68l74.71-3.56Z"/>
      <polygon class="st7" points="680.23 196.1 605.52 199.66 609.32 199.79 684.03 196.23 680.23 196.1"/>
      <path class="st7" d="M677.91,248.93l-27.83,1.33v-42.94l27.83-1.33v42.94ZM644.39,304.33l-28.96,1.38v-47.24l28.96-1.38v47.24ZM644.39,250.53l-28.96,1.38v-42.94l28.96-1.38v42.94ZM650.08,304.05v-47.24l27.83-1.33v47.24l-27.83,1.33ZM684.03,311.91v-115.68l-74.71,3.56v115.68l74.71-3.56Z"/>
    </g>
    <g>
      <polygon class="st9" points="372.66 299.47 434.18 301.56 434.18 206.34 372.66 204.25 372.66 299.47"/>
      <polygon class="st9" points="532.41 262.23 532.41 309.47 560.24 308.14 560.24 260.9 532.41 262.23"/>
      <polygon class="st9" points="497.76 257.32 526.72 255.94 526.72 213 497.76 214.38 497.76 257.32"/>
      <polygon class="st9" points="497.76 311.12 526.72 309.74 526.72 262.5 497.76 263.88 497.76 311.12"/>
      <polygon class="st9" points="532.41 255.67 560.24 254.34 560.24 211.4 532.41 212.73 532.41 255.67"/>
      <polygon class="st9" points="650.08 256.81 650.08 304.05 677.91 302.73 677.91 255.49 650.08 256.81"/>
      <polygon class="st9" points="615.43 251.91 644.39 250.53 644.39 207.59 615.43 208.97 615.43 251.91"/>
      <polygon class="st9" points="615.43 305.7 644.39 304.33 644.39 257.08 615.43 258.46 615.43 305.7"/>
      <polygon class="st9" points="650.08 250.26 677.91 248.93 677.91 205.99 650.08 207.32 650.08 250.26"/>
    </g>
  </g>
  <g id="right-window">
    <polygon class="st9" points="203.69 293.21 265.2 295.3 265.2 200.09 203.69 198 203.69 293.21"/>
    <path class="st7" d="M265.2,295.3l-61.52-2.09v-95.22l61.52,2.09v95.22ZM267.89,188.07l-66.89-2.27v119.44l66.89,2.27v-119.44Z"/>
    <polygon class="st7" points="271.84 187.88 267.89 188.07 267.89 307.51 271.84 307.32 271.84 187.88"/>

    <polygon class="st9" points="227.28 524.09 288.8 526.19 288.8 430.97 227.28 428.88 227.28 524.09"/>
    <path class="st7" d="M288.8,526.19l-61.52-2.09v-95.22l61.52,2.09v95.22ZM291.49,418.95l-66.89-2.27v119.44l66.89,2.27v-119.44Z"/>
    <polygon class="st7" points="295.44 418.76 291.49 418.95 291.49 538.39 295.44 538.2 295.44 418.76"/>
    <polygon class="st7" points="291.49 418.95 295.44 418.76 228.55 416.49 224.6 416.68 291.49 418.95"/>
  </g>
</svg>