<?xml version="1.0" encoding="UTF-8"?>
<svg id="Layer_1" data-name="Layer 1" xmlns="http://www.w3.org/2000/svg" version="1.1" viewBox="0 0 841.89 595.28">
  <defs>
    <style>
      .st0{fill:#8F6645;}
      .st1{fill:#EEEEEE;}
      .st2{fill:#DDDDDD;}
      .st3{fill:#3D3A37;}
      .st4{fill:#C4C4C4;}
      .st5{fill:#3D3A37;}
      .st6{fill:#000000;}
      .st7{fill:#FFFFFF;}
      .st8{fill:#888888;}
      .st9{fill:#7884AF;}
    </style>
  </defs>
  <g id="chimney">
    <polygon class="st5" points="556.74 117.51 593.63 119.09 593.63 7.57 556.74 5.99 556.74 117.51"/>
    <polygon class="st6" points="593.63 119.09 636.8 117.44 636.8 5.91 593.63 7.57 593.63 119.09"/>
    <polygon class="st6" points="556.74 5.99 593.63 7.57 636.8 5.91 599.91 4.33 556.74 5.99"/>
  </g>
  <g>
    <polygon class="st1" points="145.87 117.14 145.87 132.37 173.48 133.55 461.22 145.85 461.22 130.63 145.87 117.14"/>
    <polygon class="st1" points="461.22 130.63 461.22 145.85 461.97 145.82 736.46 135.3 764.07 134.24 764.07 119.01 461.22 130.63"/>
    <polygon class="st1" points="764.07 163.58 764.07 149.01 461.22 160.62 461.22 175.2 462.01 175.17 727.56 164.98 764.07 163.58"/>
    <polygon class="st1" points="145.87 147.13 145.87 161.71 188.35 163.53 461.22 175.2 461.22 160.62 145.87 147.13"/>
    <polygon class="st3" points="461.97 159.5 736.46 148.98 736.46 147.83 736.46 135.3 461.97 145.82 461.97 159.5"/>
    <polygon class="st3" points="173.48 147.17 461.97 159.5 461.97 145.82 461.22 145.85 173.48 133.55 173.48 146.08 173.48 147.17"/>
  </g>
  <polygon class="st0" points="188.35 304.04 103.66 307.29 115.63 307.8 115.63 309.22 172.94 311.67 188.35 311.08 188.35 304.04"/>
  <polygon class="st0" points="114.04 575.53 114.04 378.26 96.55 377.51 96.55 576.2 114.04 575.53"/>
  <g>
    <polygon class="st0" points="188.35 312.33 188.35 359.76 188.35 580.12 462.01 591.83 462.01 175.17 461.22 175.2 188.35 163.53 188.35 304.04 188.35 311.08 188.35 312.33"/>
    <polygon class="st4" points="727.56 581.64 727.56 164.98 462.01 175.17 462.01 591.83 727.56 581.64"/>
  </g>
  <g>
    <polygon class="st3" points="145.87 117.14 461.22 130.63 764.07 119.01 448.72 105.52 145.87 117.14"/>
    <polygon class="st3" points="764.07 149.01 736.46 147.83 736.46 148.98 461.97 159.5 173.48 147.17 173.48 146.08 145.87 147.13 461.22 160.62 764.07 149.01"/>
    <polygon class="st3" points="172.94 311.67 188.35 312.33 188.35 311.08 172.94 311.67"/>
    <polygon class="st3" points="103.66 307.29 86.17 307.96 98.15 308.47 115.63 307.8 103.66 307.29"/>
  </g>
  <g>
    <polygon class="st4" points="176.14 579.6 188.35 580.12 188.35 359.76 172.94 359.1 98.15 355.9 86.17 355.39 86.17 575.75 96.55 576.2 96.55 377.51 114.04 378.26 176.14 380.92 176.14 579.6"/>
    <polygon class="st4" points="172.94 359.1 188.35 359.76 188.35 312.33 172.94 311.67 172.94 359.1"/>
    <polygon class="st4" points="172.94 359.1 172.94 311.67 115.63 309.22 98.15 308.47 98.15 355.9 172.94 359.1"/>
    <polygon class="st4" points="86.17 307.96 86.17 355.39 98.15 355.9 98.15 308.47 86.17 307.96"/>
    <polygon class="st4" points="115.63 309.22 115.63 307.8 98.15 308.47 115.63 309.22"/>
  </g>
  <g>
    <g>
      <polygon class="st8" points="325.37 489.61 332.72 489.92 332.72 507.94 329.45 508.07 325.37 507.89 325.37 574.13 361.32 575.67 361.32 417.33 325.37 415.79 325.37 489.61"/>
      <polygon class="st8" points="306.66 488.81 314.53 489.14 314.53 415.33 278.64 413.79 278.64 572.14 314.53 573.67 314.53 507.17 311.27 507.29 303.4 506.95 303.4 488.93 306.66 488.81"/>
    </g>
    <g>
      <polygon class="st7" points="332.72 489.92 325.37 489.61 322.11 489.73 329.45 490.05 332.72 489.92"/>
      <polygon class="st7" points="332.72 507.94 332.72 489.92 329.45 490.05 329.45 508.07 332.72 507.94"/>
      <polygon class="st7" points="314.53 489.14 306.66 488.81 303.4 488.93 311.27 489.27 314.53 489.14"/>
      <polygon class="st7" points="314.53 507.17 314.53 489.14 311.27 489.27 311.27 507.29 314.53 507.17"/>
      <polygon class="st7" points="373.37 588.04 373.37 405.4 369.68 405.54 369.68 588.18 373.37 588.04"/>
      <polygon class="st7" points="373.37 405.4 273.97 401.14 270.28 401.29 369.68 405.54 373.37 405.4"/>
    </g>
    <g>
      <polygon class="st7" points="322.11 489.73 322.11 507.75 325.37 507.89 329.45 508.07 329.45 490.05 322.11 489.73"/>
      <polygon class="st7" points="311.27 489.27 303.4 488.93 303.4 506.95 311.27 507.29 311.27 489.27"/>
      <path class="st7" d="M314.53,507.17v66.51l-35.89-1.53v-158.34l35.89,1.53v91.84ZM325.37,489.61v-73.82l35.95,1.54v158.34l-35.95-1.54v-66.24l-3.26-.14v-18.02l3.26-.13ZM270.28,583.93l99.4,4.25v-182.64l-99.4-4.25v182.64Z"/>
    </g>
  </g>
  <g id="left-window">
    <polygon class="st8" points="567.35 209.55 558.38 220.59 562 220.74 570.98 209.71 567.35 209.55"/>
    <polygon class="st8" points="558.38 220.59 551.71 234.37 555.34 234.53 562 220.74 558.38 220.59"/>
    <polygon class="st8" points="551.71 234.37 547.82 249.96 551.45 250.11 555.34 234.53 551.71 234.37"/>
    <polygon class="st8" points="547.82 249.96 546.97 266.29 550.6 266.45 551.45 250.11 547.82 249.96"/>
    <polygon class="st8" points="546.97 266.29 549.21 282.25 552.84 282.41 550.6 266.45 546.97 266.29"/>
    <polygon class="st8" points="589.7 198.48 578.04 202.01 581.66 202.16 593.33 198.63 589.7 198.48"/>
    <polygon class="st8" points="578.04 202.01 567.35 209.55 570.98 209.71 581.66 202.16 578.04 202.01"/>
    <polygon class="st8" points="549.21 282.25 554.4 296.75 558.02 296.91 552.84 282.41 549.21 282.25"/>
    <polygon class="st8" points="554.4 296.75 562.17 308.81 565.79 308.97 558.02 296.91 554.4 296.75"/>
    <polygon class="st8" points="562.17 308.81 572 317.6 575.62 317.76 565.79 308.97 562.17 308.81"/>
    <polygon class="st8" points="586.84 322.68 575.62 317.76 572 317.6 583.22 322.52 586.84 322.68"/>
    <path class="st7" d="M565.55,289.8l-4.16-11.63-1.8-12.8,72.48-2.16-.34,6.55-3.12,12.5-5.34,11.05-7.2,8.85-8.57,6.05-9.35,2.83-9.5-.58-9-3.95-7.88-7.05-6.23-9.67ZM630.62,243.86l.9,6.4-71.24,2.01,3.12-12.5,5.34-11.05,7.2-8.85,8.57-6.05,9.35-2.83,9.5.58,9,3.95,7.88,7.05,6.23,9.67,4.16,11.63ZM550.6,266.45l2.24,15.96,5.18,14.5,7.77,12.06,9.83,8.79,11.22,4.92,11.84.72,11.66-3.53,10.68-7.54,8.98-11.04,6.66-13.78,3.89-15.59.85-16.33-2.24-15.96-5.18-14.5-7.77-12.06-9.83-8.79-11.22-4.92-11.84-.72-11.66,3.53-10.68,7.54-8.98,11.04-6.66,13.78-3.89,15.59-.85,16.33Z"/>
    <polygon class="st9" points="631.52 250.26 630.62 243.86 626.47 232.23 620.23 222.56 612.35 215.52 603.35 211.57 593.86 210.99 584.51 213.82 575.94 219.87 568.74 228.72 563.4 239.77 560.28 252.27 631.52 250.26"/>
    <polygon class="st9" points="561.39 278.17 565.55 289.8 571.78 299.47 579.66 306.51 588.66 310.46 598.16 311.04 607.51 308.21 616.07 302.16 623.27 293.31 628.62 282.26 631.74 269.76 632.08 263.21 559.59 265.37 561.39 278.17"/>
  </g>
  <g>
    <g>
      <polygon class="st8" points="598.69 323.4 586.84 322.68 583.22 322.52 595.06 323.24 598.69 323.4"/>
      <polygon class="st8" points="567.72 420.66 558.74 431.7 562.36 431.85 571.34 420.82 567.72 420.66"/>
      <polygon class="st8" points="558.74 431.7 552.08 445.48 555.7 445.64 562.36 431.85 558.74 431.7"/>
      <polygon class="st8" points="552.08 445.48 548.19 461.07 551.81 461.22 555.7 445.64 552.08 445.48"/>
      <polygon class="st8" points="548.19 461.07 547.33 477.4 550.96 477.56 551.81 461.22 548.19 461.07"/>
      <polygon class="st8" points="547.33 477.4 549.57 493.36 553.2 493.52 550.96 477.56 547.33 477.4"/>
      <polygon class="st8" points="590.06 409.59 578.4 413.12 582.03 413.27 593.69 409.74 590.06 409.59"/>
      <polygon class="st8" points="578.4 413.12 567.72 420.66 571.34 420.82 582.03 413.27 578.4 413.12"/>
      <polygon class="st8" points="549.57 493.36 554.76 507.86 558.38 508.02 553.2 493.52 549.57 493.36"/>
      <polygon class="st8" points="554.76 507.86 562.53 519.92 566.16 520.08 558.38 508.02 554.76 507.86"/>
      <polygon class="st8" points="562.53 519.92 572.36 528.71 575.99 528.86 566.16 520.08 562.53 519.92"/>
      <path class="st7" d="M565.91,500.91l-4.16-11.63-1.8-12.8,72.48-2.16-.34,6.55-3.12,12.5-5.34,11.05-7.2,8.85-8.57,6.05-9.35,2.83-9.5-.58-9-3.95-7.88-7.05-6.23-9.67ZM630.98,454.97l.9,6.4-71.24,2.01,3.12-12.5,5.34-11.05,7.2-8.85,8.57-6.05,9.35-2.83,9.5.58,9,3.95,7.88,7.05,6.23,9.67,4.16,11.63ZM550.96,477.56l2.24,15.96,5.18,14.5,7.77,12.06,9.83,8.79,11.22,4.92,11.84.72,11.66-3.53,10.68-7.54,8.98-11.04,6.66-13.78,3.89-15.59.85-16.33-2.24-15.96-5.18-14.5-7.77-12.06-9.83-8.79-11.22-4.92-11.84-.72-11.66,3.53-10.68,7.54-8.98,11.04-6.66,13.78-3.89,15.59-.85,16.33Z"/>
      <polygon class="st8" points="599.05 534.51 587.21 533.79 583.58 533.63 595.42 534.35 599.05 534.51"/>
      <polygon class="st8" points="587.21 533.79 575.99 528.86 572.36 528.71 583.58 533.63 587.21 533.79"/>
      <polygon class="st8" points="428.95 322.81 428.95 204.78 425.27 204.92 425.27 322.95 428.95 322.81"/>
      <polygon class="st8" points="428.95 204.78 347.73 201.31 344.04 201.45 425.27 204.92 428.95 204.78"/>
      <polygon class="st8" points="301.03 317.14 301.03 199.11 297.34 199.26 297.34 317.29 301.03 317.14"/>
      <polygon class="st8" points="301.03 199.11 219.81 195.64 216.12 195.78 297.34 199.26 301.03 199.11"/>
    </g>
    <g>
      <path class="st7" d="M418.62,258.11l-30.25-1.29v-43.81l30.25,1.29v43.81ZM382.17,311.45l-31.48-1.35v-48.2l31.48,1.35v48.2ZM382.17,256.55l-31.48-1.35v-43.81l31.48,1.35v43.81ZM388.36,311.71v-48.2l30.25,1.29v48.2l-30.25-1.29ZM425.27,322.95v-118.03l-81.22-3.47v118.03l81.22,3.47Z"/>
      <path class="st7" d="M290.7,252.45l-30.25-1.29v-43.81l30.25,1.29v43.81ZM254.25,305.78l-31.48-1.35v-48.2l31.48,1.35v48.2ZM254.25,250.89l-31.48-1.35v-43.81l31.48,1.35v43.81ZM260.44,306.05v-48.2l30.25,1.29v48.2l-30.25-1.29ZM297.34,317.29v-118.03l-81.22-3.47v118.03l81.22,3.47Z"/>
    </g>
    <g>
      <polygon class="st9" points="631.88 461.37 630.98 454.97 626.83 443.34 620.6 433.67 612.71 426.62 603.72 422.68 594.22 422.1 584.87 424.93 576.3 430.98 569.1 439.83 563.76 450.88 560.64 463.38 631.88 461.37"/>
      <polygon class="st9" points="561.75 489.28 565.91 500.91 572.14 510.58 580.02 517.62 589.02 521.57 598.52 522.15 607.87 519.32 616.44 513.27 623.64 504.42 628.98 493.37 632.1 480.87 632.44 474.32 559.96 476.48 561.75 489.28"/>
      <polygon class="st9" points="388.36 263.51 388.36 311.71 418.62 313.01 418.62 264.8 388.36 263.51"/>
      <polygon class="st9" points="350.69 255.21 382.17 256.55 382.17 212.74 350.69 211.4 350.69 255.21"/>
      <polygon class="st9" points="350.69 310.1 382.17 311.45 382.17 263.24 350.69 261.9 350.69 310.1"/>
      <polygon class="st9" points="388.36 256.82 418.62 258.11 418.62 214.3 388.36 213.01 388.36 256.82"/>
      <polygon class="st9" points="260.44 257.84 260.44 306.05 290.7 307.34 290.7 259.14 260.44 257.84"/>
      <polygon class="st9" points="222.77 249.54 254.25 250.89 254.25 207.08 222.77 205.73 222.77 249.54"/>
      <polygon class="st9" points="222.77 304.43 254.25 305.78 254.25 257.58 222.77 256.23 222.77 304.43"/>
      <polygon class="st9" points="260.44 251.15 290.7 252.45 290.7 208.63 260.44 207.34 260.44 251.15"/>
    </g>
  </g>
</svg>