<?xml version="1.0" encoding="UTF-8"?>
<svg id="Layer_1" data-name="Layer 1" xmlns="http://www.w3.org/2000/svg" version="1.1" viewBox="0 0 841.89 595.28">
  <defs>
    <style>
      .st0{fill:#8F6645;}
      .st1{fill:#EEEEEE;}
      .st2{fill:#DDDDDD;}
      .st3{fill:#3D3A37;}
      .st4{fill:#C4C4C4;}
      .st5{fill:#3D3A37;}
      .st6{fill:#000000;}
      .st7{fill:#FFFFFF;}
      .st8{fill:#888888;}
      .st9{fill:#7884AF;}
    </style>
  </defs>
  <g id="chimney">
    <polygon class="st6" points="619.93 94.19 591.19 96.96 591.19 10.04 619.93 7.27 619.93 94.19"/>
    <polygon class="st5" points="591.19 96.96 557.32 94.07 557.32 7.15 591.19 10.04 591.19 96.96"/>
    <polygon class="st6" points="557.32 7.15 586.07 4.38 619.93 7.27 591.19 10.04 557.32 7.15"/>
  </g>
  <g>
    <polygon class="st0" points="690.79 128.89 690.79 564.06 477.57 584.61 477.57 412.86 477.57 375.89 477.57 149.43 690.79 128.89"/>
    <polygon class="st4" points="269.26 358.14 269.26 132.39 473.64 149.81 477.57 149.43 477.57 375.89 465.54 374.87 453.54 376.03 453.54 378.21 407.29 382.67 395.26 381.64 385.93 382.54 317.21 376.68 317.21 374.99 303.98 373.86 294.65 374.76 282.97 373.76 282.97 359.3 269.26 358.14"/>
    <polygon class="st4" points="282.97 568.02 282.97 427.63 386.44 436.45 386.44 576.84 282.97 568.02"/>
    <polygon class="st4" points="456.54 582.82 406.05 578.51 406.05 436.65 456.54 431.78 456.54 582.82"/>
  </g>
  <g>
    <polygon class="st8" points="570.02 476.15 570.02 431.73 600.58 428.78 600.58 553.73 589.62 554.79 589.62 474.26 570.02 476.15"/>
    <g>
      <path class="st7" d="M392.41,290.84l-45.56-3.88v108.45l45.56,3.88v-108.45ZM397.48,406.64l-55.69-4.75v-122.29l55.69,4.75v122.29Z"/>
      <path class="st8" d="M357.59,333.42l-5.6-.48-4.19.4v12.39l5.6.48,4.19-.4v-12.39ZM346.85,286.96l45.56,3.88v108.45l-45.56-3.88v-108.45Z"/>
      <polygon class="st7" points="347.8 333.34 353.4 333.82 353.4 346.21 347.8 345.73 347.8 333.34"/>
      <polygon class="st7" points="569.49 497.68 569.59 491.78 572.07 492 571.98 497.89 569.49 497.68"/>
      <polygon class="st7" points="560.06 577.3 556.54 577 556.54 415.9 560.06 416.2 560.06 577.3"/>
    </g>
    <g>
      <polygon class="st7" points="397.48 284.35 341.79 279.6 345.13 279.28 400.83 284.03 397.48 284.35"/>
      <polygon class="st7" points="351.99 332.94 357.59 333.42 353.4 333.82 347.8 333.34 351.99 332.94"/>
      <polygon class="st7" points="569.59 491.78 575.48 491.22 577.97 491.43 572.07 492 569.59 491.78"/>
      <polygon class="st7" points="397.48 406.64 397.48 284.35 400.83 284.03 400.83 406.32 397.48 406.64"/>
      <polygon class="st7" points="357.59 333.42 357.59 345.81 353.4 346.21 353.4 333.82 357.59 333.42"/>
      <path class="st8" d="M569.59,491.78l-.1,5.9,2.49.21,5.9-.57.1-5.9-2.48-.21-5.9.57ZM570.02,431.73v44.42l19.61-1.89v80.53l10.95-1.06v-124.95l-30.56,2.94ZM605.71,564.49l-39.86,3.84v-144.28l39.86-3.84v144.28Z"/>
      <polygon class="st7" points="571.98 497.89 572.07 492 577.97 491.43 577.87 497.32 571.98 497.89"/>
      <path class="st7" d="M565.85,568.33l39.86-3.84v-144.28l-39.86,3.84v144.28ZM611.49,572.34l-51.43,4.96v-161.09l51.43-4.96v161.09Z"/>
      <polygon class="st7" points="607.97 410.95 611.49 411.25 560.06 416.2 556.54 415.9 607.97 410.95"/>
    </g>
  </g>
  <g id="right-window">
    <path class="st7" d="M410.27,382.4l46.8,3.99v-75.72l-46.8-3.99v75.72ZM408.23,296.88l50.89,4.34v94.98l-50.89-4.34v-94.98Z"/>
    <path class="st7" d="M392.32,535.85l46.8,3.99v-75.72l-46.8-3.99v75.72ZM390.27,450.32l50.89,4.34v94.98l-50.89-4.34v-94.98Z"/>
    <polygon class="st8" points="408.23 296.88 411.58 296.56 462.47 300.9 459.12 301.22 408.23 296.88"/>
    <polygon class="st9" points="457.08 386.4 410.27 382.4 410.27 306.69 457.08 310.68 457.08 386.4"/>
    <polygon class="st9" points="439.12 539.84 392.32 535.85 392.32 460.13 439.12 464.12 439.12 539.84"/>
    <polygon class="st8" points="459.12 396.2 459.12 301.22 462.47 300.9 462.47 395.88 459.12 396.2"/>
    <polygon class="st8" points="390.27 450.32 393.62 450 444.51 454.34 441.17 454.66 390.27 450.32"/>
    <polygon class="st8" points="441.17 549.64 441.17 454.66 444.51 454.34 444.51 549.32 441.17 549.64"/>
  </g>
  <g>
    <g>
      <polygon class="st8" points="283.63 158.52 286.98 158.2 462.47 173.16 459.12 173.48 283.63 158.52"/>
      <polygon class="st8" points="459.12 268.46 459.12 173.48 462.47 173.16 462.47 268.14 459.12 268.46"/>
      <polygon class="st8" points="300.99 442.71 304.34 442.39 355.23 446.73 351.88 447.05 300.99 442.71"/>
      <polygon class="st8" points="351.88 542.03 351.88 447.05 355.23 446.73 355.23 541.71 351.88 542.03"/>
      <polygon class="st8" points="279.67 285.92 283.01 285.6 333.91 289.94 330.56 290.26 279.67 285.92"/>
      <polygon class="st8" points="330.56 385.24 330.56 290.26 333.91 289.94 333.91 384.92 330.56 385.24"/>
      <path class="st7" d="M590.29,263.84l27.22-2.76v-89.81l-27.22,2.76v89.81ZM584.31,174.47l-28.58,2.75v89.81l28.58-2.75v-89.81ZM549.68,169.01l73.89-7.12v107.41l-73.89,7.12v-107.41Z"/>
      <polygon class="st7" points="623.57 161.89 549.68 169.01 546.16 168.71 620.04 161.59 623.57 161.89"/>
      <path class="st7" d="M590.56,393.28l27.22-2.76v-89.81l-27.22,2.76v89.81ZM584.58,303.91l-28.58,2.75v89.81l28.58-2.75v-89.81ZM549.94,298.45l73.89-7.12v107.41l-73.89,7.12v-107.41Z"/>
      <polygon class="st7" points="623.83 291.33 549.94 298.45 546.42 298.15 620.31 291.03 623.83 291.33"/>
    </g>
    <g>
      <path class="st7" d="M290.68,244.47l161.4,13.76v-75.72l-161.4-13.76v75.72ZM283.63,158.52l175.49,14.96v94.98l-175.49-14.96v-94.98Z"/>
      <path class="st7" d="M303.04,528.24l46.8,3.99v-75.72l-46.8-3.99v75.72ZM300.99,442.71l50.89,4.34v94.98l-50.89-4.34v-94.98Z"/>
      <path class="st7" d="M281.71,371.45l46.8,3.99v-75.72l-46.8-3.99v75.72ZM279.67,285.92l50.89,4.34v94.98l-50.89-4.34v-94.98Z"/>
      <polygon class="st7" points="549.68 169.01 549.68 276.42 546.16 276.12 546.16 168.71 549.68 169.01"/>
      <polygon class="st7" points="549.94 298.45 549.94 405.86 546.42 405.56 546.42 298.15 549.94 298.45"/>
    </g>
    <g>
      <polygon class="st9" points="452.07 258.23 290.68 244.47 290.68 168.75 452.07 182.51 452.07 258.23"/>
      <polygon class="st9" points="349.84 532.23 303.04 528.24 303.04 452.52 349.84 456.51 349.84 532.23"/>
      <polygon class="st9" points="328.51 375.44 281.71 371.45 281.71 295.73 328.51 299.72 328.51 375.44"/>
      <polygon class="st9" points="555.73 177.23 584.31 174.47 584.31 264.28 555.73 267.04 555.73 177.23"/>
      <polygon class="st9" points="617.51 261.08 590.29 263.84 590.29 174.03 617.51 171.27 617.51 261.08"/>
      <polygon class="st9" points="556 306.67 584.58 303.91 584.58 393.72 556 396.47 556 306.67"/>
      <polygon class="st9" points="617.78 390.52 590.56 393.28 590.56 303.47 617.78 300.71 617.78 390.52"/>
    </g>
  </g>
  <g>
    <polygon class="st0" points="397.96 420.53 397.96 592.28 386.44 591.3 386.44 576.84 386.44 436.45 282.97 427.63 273.46 426.82 259.75 425.65 211.45 421.53 203.36 420.84 203.36 575.69 189.65 574.52 189.65 402.78 203.36 403.95 294.65 411.73 307.88 412.86 385.93 419.51 397.96 420.53"/>
    <polygon class="st0" points="397.96 383.57 397.96 420.53 385.93 419.51 385.93 382.54 397.96 383.57"/>
    <polygon class="st0" points="468.06 585.52 456.54 584.54 456.54 582.82 456.54 431.78 468.06 430.67 468.06 585.52"/>
    <polygon class="st0" points="189.65 402.78 189.65 365.81 203.36 366.98 203.36 403.95 189.65 402.78"/>
    <polygon class="st0" points="203.36 403.95 203.36 366.98 212.69 367.77 257.25 371.57 270.97 372.74 282.97 373.76 294.65 374.76 294.65 411.73 203.36 403.95"/>
    <polygon class="st0" points="294.65 411.73 294.65 374.76 307.88 375.89 307.88 412.86 294.65 411.73"/>
    <polygon class="st0" points="307.88 412.86 307.88 375.89 317.21 376.68 385.93 382.54 385.93 419.51 307.88 412.86"/>
    <polygon class="st0" points="453.54 376.03 465.56 377.05 453.54 378.21 453.54 376.03"/>
    <polygon class="st0" points="273.46 568.94 259.75 567.77 259.75 425.65 273.46 426.82 273.46 568.94"/>
    <polygon class="st0" points="257.25 359.29 270.97 360.46 270.97 372.74 257.25 371.57 257.25 359.29"/>
  </g>
  <g>
    <polygon class="st4" points="257.25 359.29 257.25 371.57 212.69 367.77 212.69 366.08 198.98 364.91 257.25 359.29"/>
    <polygon class="st4" points="397.96 592.28 397.96 420.53 407.29 419.64 465.56 414.02 477.57 412.86 477.57 584.61 468.06 585.52 468.06 430.67 456.54 431.78 406.05 436.65 406.05 578.51 406.05 591.5 397.96 592.28"/>
    <polygon class="st4" points="407.29 419.64 397.96 420.53 397.96 383.57 407.29 382.67 407.29 419.64"/>
    <polygon class="st4" points="407.29 419.64 407.29 382.67 453.54 378.21 465.56 377.05 465.56 414.02 407.29 419.64"/>
    <polygon class="st4" points="465.56 414.02 465.56 377.05 477.57 375.89 477.57 412.86 465.56 414.02"/>
    <polygon class="st4" points="273.46 568.94 273.46 426.82 282.97 427.63 282.97 568.02 273.46 568.94"/>
    <polygon class="st4" points="270.97 360.46 282.97 359.3 282.97 373.76 270.97 372.74 270.97 360.46"/>
    <polygon class="st4" points="211.45 421.53 211.45 574.91 203.36 575.69 203.36 420.84 211.45 421.53"/>
    <polygon class="st4" points="307.88 375.89 317.21 374.99 317.21 376.68 307.88 375.89"/>
    <polygon class="st4" points="212.69 366.08 212.69 367.77 203.36 366.98 212.69 366.08"/>
  </g>
  <g>
    <polygon class="st1" points="236.06 129.56 236.06 118.2 473.64 138.45 473.64 149.81 269.26 132.39 236.06 129.56"/>
    <polygon class="st1" points="719.35 114.77 719.35 126.13 690.79 128.89 477.57 149.43 473.64 149.81 473.64 138.45 719.35 114.77"/>
    <polygon class="st3" points="697.76 114.83 472.98 136.5 472.98 126.89 473.64 126.94 697.76 105.34 697.76 112.93 697.76 114.83"/>
    <polygon class="st3" points="472.98 126.89 472.98 136.5 257.65 118.14 257.65 116.12 257.65 108.53 472.98 126.89"/>
    <polygon class="st1" points="473.64 115.08 719.35 91.4 719.35 103.26 697.76 105.34 473.64 126.94 473.64 115.08"/>
    <polygon class="st1" points="236.06 106.69 236.06 94.82 473.64 115.08 473.64 126.94 472.98 126.89 257.65 108.53 236.06 106.69"/>
  </g>
  <g>
    <g>
      <polygon class="st3" points="236.06 118.2 257.65 116.12 257.65 118.14 472.98 136.5 697.76 114.83 697.76 112.93 719.35 114.77 473.64 138.45 236.06 118.2"/>
      <polygon class="st3" points="236.06 94.82 481.77 71.14 719.35 91.4 473.64 115.08 236.06 94.82"/>
    </g>
    <g>
      <polygon class="st3" points="407.29 382.67 397.96 383.57 385.93 382.54 395.26 381.64 407.29 382.67"/>
      <polygon class="st3" points="307.88 375.89 294.65 374.76 303.98 373.86 317.21 374.99 307.88 375.89"/>
      <polygon class="st3" points="203.36 366.98 189.65 365.81 198.98 364.91 212.69 366.08 203.36 366.98"/>
      <polygon class="st3" points="477.57 375.89 465.56 377.05 453.54 376.03 465.54 374.87 477.57 375.89"/>
      <polygon class="st3" points="257.25 359.29 269.26 358.14 282.97 359.3 270.97 360.46 257.25 359.29"/>
    </g>
  </g>
</svg>