<?xml version="1.0" encoding="UTF-8"?>
<svg id="Layer_1" data-name="Layer 1" xmlns="http://www.w3.org/2000/svg" version="1.1" viewBox="0 0 841.89 595.28">
  <defs>
    <style>
      .st0{fill:#8F6645;}
      .st1{fill:#EEEEEE;}
      .st2{fill:#DDDDDD;}
      .st3{fill:#3D3A37;}
      .st4{fill:#C4C4C4;}
      .st5{fill:#3D3A37;}
      .st6{fill:#000000;}
      .st7{fill:#FFFFFF;}
      .st8{fill:#888888;}
      .st9{fill:#7884AF;}
    </style>
  </defs>
  <g id="chimney">
    <polygon class="st5" points="466.54 99.87 433.24 98.41 433.24 8.38 466.54 9.84 466.54 99.87"/>
    <polygon class="st6" points="497.28 97.93 466.54 99.87 466.54 9.84 497.28 7.9 497.28 97.93"/>
    <polygon class="st6" points="463.97 6.44 497.28 7.9 466.54 9.84 433.24 8.38 463.97 6.44"/>
  </g>
  <g>
    <polygon class="st4" points="691.31 581.25 502.27 593.17 502.27 141.04 504.47 141.13 691.31 129.35 691.31 581.25"/>
    <polygon class="st0" points="502.27 141.04 502.27 593.17 255.22 582.36 255.22 404.47 255.22 366.17 255.22 365.01 255.22 357.44 255.22 356.32 255.22 130.23 502.27 141.04"/>
  </g>
  <g>
    <polygon class="st3" points="502.44 128.2 242.01 116.81 242.01 115.52 242.01 105.97 502.44 117.35 502.44 128.2"/>
    <polygon class="st1" points="219.79 128.69 219.79 116.92 504.47 129.37 504.47 141.13 502.27 141.04 255.22 130.23 219.79 128.69"/>
    <polygon class="st1" points="219.79 92.7 504.47 105.15 504.47 117.44 502.44 117.35 242.01 105.97 219.79 105 219.79 92.7"/>
  </g>
  <g>
    <polygon class="st1" points="504.47 141.13 504.47 129.37 720.06 115.77 720.06 127.54 691.31 129.35 504.47 141.13"/>
    <polygon class="st3" points="502.44 128.2 502.44 117.35 504.47 117.44 697.84 105.25 697.84 114.8 697.84 115.88 502.44 128.2"/>
    <polygon class="st1" points="720.06 91.56 720.06 103.85 697.84 105.25 504.47 117.44 504.47 105.15 720.06 91.56"/>
  </g>
  <g>
    <g>
      <polygon class="st3" points="697.84 114.8 720.06 115.77 504.47 129.37 219.79 116.92 242.01 115.52 242.01 116.81 502.44 128.2 697.84 115.88 697.84 114.8"/>
      <polygon class="st3" points="435.39 79.11 720.06 91.56 504.47 105.15 219.79 92.7 435.39 79.11"/>
    </g>
    <g>
      <polygon class="st3" points="173.8 362.61 162.99 362.14 173.9 361.45 184.71 361.92 173.8 362.61"/>
      <polygon class="st3" points="244.73 356.99 255.22 356.32 255.22 357.44 244.73 356.99"/>
      <polygon class="st3" points="255.22 366.17 241.31 365.56 244.73 365.35 252.23 364.88 255.22 365.01 255.22 366.17"/>
    </g>
  </g>
  <g>
    <polygon class="st4" points="162.99 578.33 162.99 400.43 173.8 400.9 241.31 403.86 255.22 404.47 255.22 582.36 244.21 581.88 244.21 421.48 182.81 418.8 172.36 418.34 172.36 578.74 162.99 578.33"/>
    <polygon class="st4" points="162.99 400.43 162.99 362.14 173.8 362.61 173.8 400.9 162.99 400.43"/>
    <polygon class="st4" points="173.8 400.9 173.8 362.61 184.71 363.09 241.31 365.56 241.31 403.86 173.8 400.9"/>
    <polygon class="st4" points="241.31 403.86 241.31 365.56 255.22 366.17 255.22 404.47 241.31 403.86"/>
    <polygon class="st4" points="244.73 365.35 244.73 356.99 255.22 357.44 255.22 365.01 252.23 364.88 244.73 365.35"/>
  </g>
  <g>
    <polygon class="st0" points="172.36 578.74 172.36 418.34 182.81 418.8 182.81 578.08 172.36 578.74"/>
    <polygon class="st0" points="173.9 361.45 244.73 356.99 244.73 365.35 241.31 365.56 184.71 363.09 184.71 361.92 173.9 361.45"/>
    <polygon class="st0" points="184.71 361.92 184.71 363.09 173.8 362.61 184.71 361.92"/>
  </g>
  <g id="left-window">
    <path class="st7" d="M623.2,515.47l2.96-9.7,1.28-10.47-51.6,3.75.24,5.26,2.22,9.85,3.8,8.52,5.13,6.6,6.1,4.23,6.66,1.58,6.76-1.19,6.4-3.87,5.61-6.29,4.44-8.28ZM576.87,483.32l-.64,5.23,50.72-3.78-2.22-9.85-3.8-8.52-5.13-6.6-6.1-4.23-6.66-1.58-6.76,1.19-6.4,3.87-5.61,6.29-4.44,8.28-2.96,9.7ZM633.84,495.49l-1.59,13.05-3.69,12.1-5.53,10.32-7,7.84-7.99,4.82-8.43,1.48-8.3-1.97-7.61-5.28-6.39-8.23-4.74-10.62-2.77-12.29-.61-13.12,1.6-13.05,3.69-12.1,5.53-10.32,7-7.84,7.99-4.82,8.43-1.48,8.3,1.97,7.61,5.28,6.39,8.23,4.74,10.62,2.77,12.29.61,13.12Z"/>
    <polygon class="st7" points="571.2 468.31 576.73 457.98 580.01 458.13 574.47 468.45 571.2 468.31"/>
    <polygon class="st7" points="576.73 457.98 583.73 450.14 587.01 450.28 580.01 458.13 576.73 457.98"/>
    <polygon class="st7" points="591.72 445.32 600.15 443.84 603.42 443.98 594.99 445.46 591.72 445.32"/>
    <polygon class="st7" points="583.73 450.14 591.72 445.32 594.99 445.46 587.01 450.28 583.73 450.14"/>
    <polygon class="st7" points="583.7 537.86 591.3 543.14 588.03 543 580.43 537.72 583.7 537.86"/>
    <polygon class="st7" points="591.3 543.14 599.61 545.11 596.33 544.97 588.03 543 591.3 543.14"/>
    <polygon class="st7" points="569.8 506.72 572.57 519.01 569.29 518.87 566.52 506.58 569.8 506.72"/>
    <polygon class="st7" points="572.57 519.01 577.31 529.63 574.03 529.49 569.29 518.87 572.57 519.01"/>
    <polygon class="st7" points="583.7 537.86 580.43 537.72 574.03 529.49 577.31 529.63 583.7 537.86"/>
    <polygon class="st7" points="570.79 480.55 569.19 493.6 565.92 493.46 567.51 480.41 570.79 480.55"/>
    <polygon class="st7" points="569.8 506.72 566.52 506.58 565.92 493.46 569.19 493.6 569.8 506.72"/>
    <polygon class="st7" points="570.79 480.55 567.51 480.41 571.2 468.31 574.47 468.45 570.79 480.55"/>
    <polygon class="st9" points="576.23 488.56 576.87 483.32 579.83 473.62 584.27 465.34 589.88 459.05 596.28 455.18 603.05 454 609.7 455.57 615.8 459.81 620.93 466.41 624.73 474.92 626.95 484.78 576.23 488.56"/>
    <polygon class="st9" points="626.16 505.77 623.2 515.47 618.76 523.75 613.15 530.04 606.75 533.91 599.98 535.09 593.33 533.52 587.23 529.28 582.1 522.68 578.3 514.17 576.08 504.31 575.84 499.05 627.44 495.3 626.16 505.77"/>
  </g>
  <g>
    <g>
      <polygon class="st7" points="417.1 277.09 417.1 165.83 420.3 165.63 420.3 276.88 417.1 277.09"/>
      <polygon class="st7" points="417.41 411.2 417.41 299.95 420.61 299.75 420.61 411 417.41 411.2"/>
      <path class="st7" d="M623.46,376.74l2.96-9.7,1.28-10.47-51.6,3.75.24,5.26,2.22,9.85,3.8,8.52,5.13,6.6,6.1,4.23,6.66,1.58,6.76-1.19,6.4-3.87,5.61-6.29,4.44-8.28ZM577.13,344.59l-.64,5.23,50.72-3.78-2.22-9.85-3.8-8.52-5.13-6.6-6.1-4.23-6.66-1.58-6.76,1.19-6.4,3.87-5.61,6.29-4.44,8.28-2.96,9.7ZM634.1,356.76l-1.6,13.06-3.69,12.1-5.53,10.32-7,7.84-7.99,4.82-8.43,1.48-8.3-1.97-7.61-5.28-6.39-8.23-4.74-10.62-2.77-12.29-.61-13.12,1.6-13.06,3.69-12.1,5.53-10.32,7-7.84,7.99-4.82,8.43-1.48,8.3,1.97,7.61,5.28,6.39,8.23,4.74,10.62,2.77,12.29.61,13.12Z"/>
      <path class="st7" d="M623.34,242.22l2.96-9.7,1.28-10.47-51.6,3.75.24,5.26,2.22,9.85,3.8,8.52,5.13,6.6,6.1,4.23,6.66,1.58,6.76-1.19,6.4-3.87,5.61-6.29,4.44-8.28ZM577.01,210.07l-.64,5.23,50.72-3.78-2.22-9.86-3.8-8.52-5.13-6.6-6.1-4.23-6.66-1.58-6.76,1.19-6.4,3.87-5.61,6.29-4.44,8.28-2.96,9.7ZM633.98,222.24l-1.6,13.05-3.69,12.1-5.53,10.32-7,7.84-7.99,4.82-8.43,1.48-8.3-1.97-7.61-5.28-6.39-8.23-4.74-10.62-2.77-12.29-.61-13.12,1.59-13.05,3.69-12.1,5.53-10.32,7-7.84,7.99-4.82,8.43-1.48,8.3,1.97,7.61,5.28,6.39,8.23,4.74,10.62,2.77,12.29.61,13.12Z"/>
    </g>
    <g>
      <path class="st7" d="M378.55,266.42l31.54,1.24v-93.03l-31.54-1.24v93.03ZM371.62,172.96l-33.11-1.45v93.03l33.11,1.45v-93.03ZM331.49,162.09l85.61,3.74v111.25l-85.61-3.74v-111.25Z"/>
      <polygon class="st7" points="417.1 165.83 331.49 162.09 334.69 161.89 420.3 165.63 417.1 165.83"/>
      <path class="st7" d="M378.86,400.54l31.54,1.24v-93.03l-31.54-1.24v93.03ZM371.92,307.07l-33.11-1.45v93.03l33.11,1.45v-93.03ZM331.8,296.21l85.61,3.74v111.25l-85.61-3.74v-111.25Z"/>
      <polygon class="st7" points="417.41 299.95 331.8 296.21 335 296 420.61 299.75 417.41 299.95"/>
      <polygon class="st7" points="571.46 329.58 576.99 319.25 580.26 319.4 574.73 329.72 571.46 329.58"/>
      <polygon class="st7" points="576.99 319.25 583.99 311.41 587.26 311.56 580.26 319.4 576.99 319.25"/>
      <polygon class="st7" points="591.98 306.59 600.41 305.11 603.68 305.25 595.25 306.73 591.98 306.59"/>
      <polygon class="st7" points="583.99 311.41 591.98 306.59 595.25 306.73 587.26 311.56 583.99 311.41"/>
      <polygon class="st7" points="583.96 399.14 591.56 404.41 588.29 404.27 580.68 398.99 583.96 399.14"/>
      <polygon class="st7" points="591.56 404.41 599.86 406.38 596.59 406.24 588.29 404.27 591.56 404.41"/>
      <polygon class="st7" points="570.05 367.99 572.82 380.28 569.55 380.14 566.78 367.85 570.05 367.99"/>
      <polygon class="st7" points="572.82 380.28 577.57 390.9 574.29 390.76 569.55 380.14 572.82 380.28"/>
      <polygon class="st7" points="583.96 399.14 580.68 398.99 574.29 390.76 577.57 390.9 583.96 399.14"/>
      <polygon class="st7" points="571.04 341.82 569.45 354.88 566.17 354.73 567.77 341.68 571.04 341.82"/>
      <polygon class="st7" points="570.05 367.99 566.78 367.85 566.17 354.73 569.45 354.88 570.05 367.99"/>
      <polygon class="st7" points="571.04 341.82 567.77 341.68 571.46 329.58 574.73 329.72 571.04 341.82"/>
      <polygon class="st7" points="571.34 195.06 576.87 184.73 580.14 184.88 574.61 195.2 571.34 195.06"/>
      <polygon class="st7" points="576.87 184.73 583.87 176.89 587.14 177.04 580.14 184.88 576.87 184.73"/>
      <polygon class="st7" points="591.85 172.07 600.29 170.59 603.56 170.73 595.13 172.21 591.85 172.07"/>
      <polygon class="st7" points="583.87 176.89 591.85 172.07 595.13 172.21 587.14 177.04 583.87 176.89"/>
      <polygon class="st7" points="583.84 264.62 591.44 269.89 588.17 269.75 580.56 264.47 583.84 264.62"/>
      <polygon class="st7" points="591.44 269.89 599.74 271.86 596.47 271.72 588.17 269.75 591.44 269.89"/>
      <polygon class="st7" points="569.93 233.48 572.7 245.76 569.43 245.62 566.66 233.33 569.93 233.48"/>
      <polygon class="st7" points="572.7 245.76 577.44 256.39 574.17 256.24 569.43 245.62 572.7 245.76"/>
      <polygon class="st7" points="583.84 264.62 580.56 264.47 574.17 256.24 577.44 256.39 583.84 264.62"/>
      <polygon class="st7" points="570.92 207.3 569.33 220.36 566.05 220.21 567.65 207.16 570.92 207.3"/>
      <polygon class="st7" points="569.93 233.48 566.66 233.33 566.05 220.21 569.33 220.36 569.93 233.48"/>
      <polygon class="st7" points="570.92 207.3 567.65 207.16 571.34 195.06 574.61 195.2 570.92 207.3"/>
    </g>
    <g>
      <polygon class="st9" points="338.5 171.51 371.62 172.96 371.62 265.98 338.5 264.54 338.5 171.51"/>
      <polygon class="st9" points="410.09 267.67 378.55 266.42 378.55 173.4 410.09 174.64 410.09 267.67"/>
      <polygon class="st9" points="338.81 305.63 371.92 307.07 371.92 400.1 338.81 398.65 338.81 305.63"/>
      <polygon class="st9" points="410.4 401.78 378.86 400.54 378.86 307.51 410.4 308.76 410.4 401.78"/>
      <polygon class="st9" points="576.49 349.83 577.13 344.59 580.09 334.89 584.53 326.61 590.14 320.32 596.54 316.45 603.3 315.27 609.96 316.84 616.06 321.08 621.18 327.68 624.99 336.19 627.21 346.05 576.49 349.83"/>
      <polygon class="st9" points="626.41 367.04 623.46 376.74 619.02 385.02 613.41 391.31 607 395.18 600.24 396.36 593.59 394.79 587.49 390.55 582.36 383.95 578.56 375.44 576.34 365.58 576.09 360.32 627.69 356.57 626.41 367.04"/>
      <polygon class="st9" points="576.37 215.31 577.01 210.07 579.97 200.37 584.4 192.09 590.02 185.8 596.42 181.94 603.18 180.75 609.84 182.33 615.94 186.56 621.06 193.16 624.87 201.68 627.09 211.53 576.37 215.31"/>
      <polygon class="st9" points="626.29 232.52 623.34 242.22 618.9 250.5 613.29 256.79 606.88 260.66 600.12 261.84 593.46 260.27 587.36 256.03 582.24 249.44 578.44 240.92 576.22 231.06 575.97 225.8 627.57 222.05 626.29 232.52"/>
    </g>
  </g>
  <g>
    <polygon class="st8" points="355.05 483.29 355.05 437.28 390.46 438.83 390.46 568.25 377.77 567.7 377.77 484.29 355.05 483.29"/>
    <g>
      <polygon class="st7" points="352.19 505.66 352.3 499.57 359.13 499.86 359.02 505.96 352.19 505.66"/>
      <path class="st8" d="M355.05,437.28v46.01l22.72.99v83.41l12.69.56v-129.43l-35.41-1.55ZM361.28,505.81l.11-6.09-6.83-.3-2.26.14-.11,6.09,6.83.3,2.26-.14ZM396.41,580.17l-46.19-2.02v-149.45l46.19,2.02v149.45Z"/>
      <path class="st7" d="M350.22,578.15l46.19,2.02v-149.45l-46.19-2.02v149.45ZM403.11,589.17l-59.59-2.61v-166.87l59.59,2.61v166.87Z"/>
    </g>
    <g>
      <polygon class="st8" points="361.39 499.72 361.28 505.81 359.02 505.96 359.13 499.86 361.39 499.72"/>
      <polygon class="st8" points="354.56 499.42 361.39 499.72 359.13 499.86 352.3 499.57 354.56 499.42"/>
      <polygon class="st8" points="406.31 588.97 403.11 589.17 403.11 422.31 406.31 422.1 406.31 588.97"/>
      <polygon class="st8" points="406.31 422.1 403.11 422.31 343.52 419.7 346.72 419.5 406.31 422.1"/>
    </g>
  </g>
</svg>