<?xml version="1.0" encoding="UTF-8"?>
<svg id="Layer_1" data-name="Layer 1" xmlns="http://www.w3.org/2000/svg" version="1.1" viewBox="0 0 841.89 595.28">
  <defs>
    <style>
      .st0{fill:#8F6645;}
      .st1{fill:#EEEEEE;}
      .st2{fill:#DDDDDD;}
      .st3{fill:#3D3A37;}
      .st4{fill:#C4C4C4;}
      .st5{fill:#3D3A37;}
      .st6{fill:#000000;}
      .st7{fill:#FFFFFF;}
      .st8{fill:#888888;}
      .st9{fill:#7884AF;}
    </style>
  </defs>
  <g id="chimney">
    <polygon class="st5" points="432.08 99.43 407 97.09 407 11.57 432.08 13.91 432.08 99.43"/>
    <polygon class="st6" points="468.33 97.45 432.08 99.43 432.08 13.91 468.33 11.92 468.33 97.45"/>
    <polygon class="st6" points="432.08 13.91 407 11.57 443.26 9.58 468.33 11.92 432.08 13.91"/>
  </g>
  <g>
    <polygon class="st0" points="202.05 567.13 202.05 138.52 388.04 155.87 388.04 379.11 388.04 415.49 388.04 584.49 202.05 567.13"/>
    <polygon class="st4" points="388.04 379.11 388.04 155.87 389.18 155.98 611.05 143.82 611.05 366.89 598.17 367.6 598.17 377.88 584.06 378.66 575.92 377.9 561.75 378.67 561.75 379.88 472.17 384.79 464.03 384.03 449.35 384.83 413.2 381.46 413.2 379.28 402.73 378.31 388.04 379.11"/>
    <polygon class="st4" points="598.71 430.85 598.71 572.94 472.17 579.88 472.17 437.79 598.71 430.85"/>
    <polygon class="st4" points="450.43 581.07 411.02 583.23 411.02 434.26 450.43 437.93 450.43 581.07"/>
  </g>
  <g>
    <g>
      <polygon class="st1" points="389.18 144.8 389.18 155.98 388.04 155.87 202.05 138.52 174.86 135.98 174.86 124.81 389.18 144.8"/>
      <polygon class="st3" points="391.96 143.3 195.89 125.01 195.89 123.65 195.89 115.44 389.18 133.48 391.96 133.32 391.96 143.3"/>
      <polygon class="st1" points="174.86 101.8 389.18 121.8 389.18 133.48 195.89 115.44 174.86 113.48 174.86 101.8"/>
    </g>
    <g>
      <polygon class="st1" points="643.51 130.87 643.51 142.04 611.05 143.82 389.18 155.98 389.18 144.8 643.51 130.87"/>
      <polygon class="st3" points="391.96 143.3 391.96 133.32 622.47 120.69 622.47 128.9 622.47 130.67 391.96 143.3"/>
      <polygon class="st1" points="389.18 133.48 389.18 121.8 643.51 107.86 643.51 119.54 622.47 120.69 391.96 133.32 389.18 133.48"/>
    </g>
    <g>
      <polygon class="st3" points="429.19 87.87 643.51 107.86 389.18 121.8 174.86 101.8 429.19 87.87"/>
      <polygon class="st3" points="389.18 144.8 174.86 124.81 195.89 123.65 195.89 125.01 391.96 143.3 622.47 130.67 622.47 128.9 643.51 130.87 389.18 144.8"/>
      <g>
        <polygon class="st7" points="672.35 372.61 680.49 373.37 667.62 374.08 659.48 373.32 672.35 372.61"/>
        <polygon class="st7" points="584.06 378.66 569.89 379.43 561.75 378.67 575.92 377.9 584.06 378.66"/>
        <polygon class="st7" points="472.17 384.79 457.49 385.59 449.35 384.83 464.03 384.03 472.17 384.79"/>
        <polygon class="st7" points="611.05 366.89 621.52 367.87 608.64 368.58 598.17 367.6 611.05 366.89"/>
        <polygon class="st7" points="398.51 380.09 388.04 379.11 402.73 378.31 413.2 379.28 398.51 380.09"/>
      </g>
    </g>
  </g>
  <g>
    <g>
      <polygon class="st8" points="289.31 501.59 284.32 501.13 281.58 501.28 281.58 515.1 286.57 515.56 289.31 515.41 289.31 566.42 264.88 564.14 264.88 442.7 289.31 444.98 289.31 501.59"/>
      <polygon class="st8" points="286.57 501.74 286.57 515.56 281.58 515.1 281.58 501.28 286.57 501.74"/>
      <polygon class="st8" points="302.03 502.78 296.68 502.28 296.68 445.67 321.07 447.95 321.07 569.38 296.68 567.11 296.68 516.51 299.29 516.75 302.03 516.6 302.03 502.78"/>
      <polygon class="st8" points="293.94 502.43 299.29 502.93 299.29 516.75 296.68 516.51 293.94 516.25 293.94 502.43"/>
      <path class="st7" d="M296.68,516.51v50.6l24.39,2.28v-121.43l-24.39-2.28v56.61l-2.74.15v13.82l2.74.26ZM289.31,501.59v-56.61l-24.43-2.28v121.43l24.43,2.28v-64.83ZM326.76,579.23l-67.56-6.3v-140.07l67.56,6.3v140.07Z"/>
      <polygon class="st7" points="472.19 290.97 472.19 411.31 469.27 411.04 469.27 290.7 472.19 290.97"/>
      <polygon class="st7" points="483.12 354.19 483.12 342 486.77 342.34 486.77 354.54 483.12 354.19"/>
    </g>
    <g>

    </g>
    <g>
      <polygon class="st7" points="284.32 501.13 289.31 501.59 286.57 501.74 281.58 501.28 284.32 501.13"/>
      <polygon class="st7" points="289.31 501.59 289.31 515.41 286.57 515.56 286.57 501.74 289.31 501.59"/>
      <polygon class="st7" points="296.68 502.28 302.03 502.78 299.29 502.93 293.94 502.43 296.68 502.28"/>
      <polygon class="st7" points="302.03 502.78 302.03 516.6 299.29 516.75 299.29 502.93 302.03 502.78"/>
      <polygon class="st7" points="262.3 432.69 329.85 438.99 326.76 439.16 259.2 432.86 262.3 432.69"/>
      <polygon class="st7" points="329.85 438.99 329.85 579.06 326.76 579.23 326.76 439.16 329.85 438.99"/>
      <path class="st7" d="M526.39,294.82l-48.78,2.67v106.71l48.78-2.67v-106.71ZM531.81,408.04l-59.62,3.27v-120.34l59.62-3.27v120.34Z"/>
      <polygon class="st7" points="531.81 287.71 472.19 290.97 469.27 290.7 528.89 287.43 531.81 287.71"/>
      <path class="st8" d="M483.12,342v12.19l3.65.34,6-.33v-12.19l-3.65-.34-6,.33ZM477.62,297.49l48.78-2.67v106.71l-48.78,2.67v-106.71Z"/>
      <polygon class="st7" points="483.12 342 489.11 341.67 492.76 342.02 486.77 342.34 483.12 342"/>
      <polygon class="st7" points="486.77 342.34 492.76 342.02 492.76 354.21 486.77 354.54 486.77 342.34"/>
    </g>
  </g>
  <g id="right-window">
    <path class="st7" d="M545.51,382.37l50.11-2.75v-74.51l-50.11,2.75v74.51ZM543.32,298.51l54.48-2.99v93.46l-54.48,2.98v-93.46Z"/>
    <polygon class="st7" points="540.4 298.23 543.32 298.51 543.32 391.97 540.4 391.69 540.4 298.23"/>
    <polygon class="st7" points="543.32 298.51 540.4 298.23 594.88 295.25 597.8 295.52 543.32 298.51"/>
    <polygon class="st9" points="595.61 379.62 545.51 382.37 545.51 307.86 595.61 305.12 595.61 379.62"/>


    <path class="st7" d="M526.29,535.92l50.1-2.75v-74.51l-50.1,2.75v74.51ZM524.1,452.05l54.48-2.99v93.46l-54.48,2.99v-93.46Z"/>
    <polygon class="st7" points="521.18 451.78 524.1 452.05 524.1 545.51 521.18 545.24 521.18 451.78"/>
    <polygon class="st7" points="524.1 452.05 521.18 451.78 575.66 448.79 578.58 449.07 524.1 452.05"/>
    <polygon class="st9" points="576.4 533.17 526.29 535.92 526.29 461.41 576.4 458.66 576.4 533.17"/>
  </g>
  <g>
    <g>
      <g>
        <path class="st7" d="M417.48,263.69l172.78-9.47v-74.51l-172.78,9.47v74.51ZM409.94,180.12l187.86-10.29v93.46l-187.86,10.29v-93.46Z"/>
        <polygon class="st7" points="366.66 308.1 366.66 398.62 363.56 398.79 363.56 308.27 366.66 308.1"/>
        <polygon class="st7" points="279.72 299.99 279.72 390.51 276.62 390.68 276.62 300.16 279.72 299.99"/>
        <path class="st7" d="M430.71,541.15l50.11-2.75v-74.51l-50.11,2.75v74.51ZM428.53,457.29l54.48-2.99v93.46l-54.48,2.99v-93.46Z"/>
        <polygon class="st7" points="367.03 182.44 367.03 272.96 363.93 273.13 363.93 182.61 367.03 182.44"/>
        <path class="st7" d="M407.88,389.91l50.11-2.75v-74.51l-50.11,2.75v74.51ZM405.69,306.05l54.48-2.98v93.46l-54.48,2.99v-93.46Z"/>
        <polygon class="st8" points="280.09 174.33 280.09 264.85 276.99 265.02 276.99 174.5 280.09 174.33"/>
      </g>
      <g>
        <polygon class="st7" points="407.02 179.84 409.94 180.12 409.94 273.58 407.02 273.31 407.02 179.84"/>
        <polygon class="st7" points="409.94 180.12 407.02 179.84 594.88 169.55 597.8 169.82 409.94 180.12"/>
        <polygon class="st7" points="311.46 302.95 366.66 308.1 363.56 308.27 308.36 303.12 311.46 302.95"/>
        <path class="st7" d="M312.88,344.56l20.56,1.92v-33.6l-20.56-1.92v33.6ZM337.65,388.96l21.4,2v-36.97l-21.4-2v36.97ZM337.65,346.87l21.4,2v-33.6l-21.4-2v33.6ZM333.44,388.57v-36.97l-20.56-1.92v36.97l20.56,1.92ZM308.36,393.64v-90.52l55.2,5.15v90.52l-55.2-5.15Z"/>
        <polygon class="st7" points="224.52 294.84 279.72 299.99 276.62 300.16 221.42 295.01 224.52 294.84"/>
        <path class="st7" d="M225.94,336.44l20.56,1.92v-33.6l-20.56-1.92v33.6ZM250.71,380.85l21.4,2v-36.97l-21.4-2v36.97ZM250.71,338.76l21.4,2v-33.6l-21.4-2v33.6ZM246.5,380.46v-36.97l-20.56-1.92v36.97l20.56,1.92ZM221.42,385.53v-90.52l55.2,5.15v90.52l-55.2-5.15Z"/>
        <polygon class="st7" points="425.6 457.02 428.53 457.29 428.53 550.75 425.6 550.48 425.6 457.02"/>
        <polygon class="st7" points="428.53 457.29 425.6 457.02 480.08 454.03 483.01 454.3 428.53 457.29"/>
        <polygon class="st7" points="311.83 177.29 367.03 182.44 363.93 182.61 308.73 177.46 311.83 177.29"/>
        <path class="st7" d="M313.25,218.89l20.56,1.92v-33.6l-20.56-1.92v33.6ZM338.02,263.3l21.39,2v-36.97l-21.39-2v36.97ZM338.02,221.2l21.39,2v-33.6l-21.39-2v33.6ZM333.81,262.91v-36.97l-20.56-1.92v36.97l20.56,1.92ZM308.73,267.98v-90.52l55.2,5.15v90.52l-55.2-5.15Z"/>
        <polygon class="st7" points="402.77 305.77 405.69 306.05 405.69 399.51 402.77 399.24 402.77 305.77"/>
        <polygon class="st7" points="405.69 306.05 402.77 305.77 457.25 302.79 460.17 303.06 405.69 306.05"/>
        <polygon class="st7" points="224.89 169.18 280.09 174.33 276.99 174.5 221.79 169.35 224.89 169.18"/>
        <path class="st7" d="M226.31,210.78l20.56,1.92v-33.6l-20.56-1.92v33.6ZM251.08,255.19l21.4,2v-36.97l-21.4-2v36.97ZM251.08,213.09l21.4,2v-33.6l-21.4-2v33.6ZM246.87,254.8v-36.97l-20.56-1.92v36.97l20.56,1.92ZM221.79,259.87v-90.52l55.2,5.15v90.52l-55.2-5.15Z"/>
      </g>
    </g>
    <g>
      <polygon class="st9" points="590.26 254.22 417.48 263.69 417.48 189.18 590.26 179.71 590.26 254.22"/>
      <polygon class="st9" points="333.44 351.6 333.44 388.57 312.88 386.65 312.88 349.69 333.44 351.6"/>
      <polygon class="st9" points="359.04 348.86 337.65 346.87 337.65 313.27 359.04 315.26 359.04 348.86"/>
      <polygon class="st9" points="359.04 390.96 337.65 388.96 337.65 352 359.04 353.99 359.04 390.96"/>
      <polygon class="st9" points="333.44 346.47 312.88 344.56 312.88 310.96 333.44 312.87 333.44 346.47"/>
      <polygon class="st9" points="246.5 343.49 246.5 380.46 225.94 378.54 225.94 341.57 246.5 343.49"/>
      <polygon class="st9" points="272.1 340.75 250.71 338.76 250.71 305.16 272.1 307.15 272.1 340.75"/>
      <polygon class="st9" points="272.1 382.85 250.71 380.85 250.71 343.89 272.1 345.88 272.1 382.85"/>
      <polygon class="st9" points="246.5 338.36 225.94 336.44 225.94 302.84 246.5 304.76 246.5 338.36"/>
      <polygon class="st9" points="480.82 538.41 430.71 541.15 430.71 466.65 480.82 463.9 480.82 538.41"/>
      <polygon class="st9" points="333.81 225.94 333.81 262.91 313.25 260.99 313.25 224.02 333.81 225.94"/>
      <polygon class="st9" points="359.41 223.2 338.02 221.2 338.02 187.6 359.41 189.6 359.41 223.2"/>
      <polygon class="st9" points="359.41 265.3 338.02 263.3 338.02 226.34 359.41 228.33 359.41 265.3"/>
      <polygon class="st9" points="333.81 220.81 313.25 218.89 313.25 185.29 333.81 187.21 333.81 220.81"/>
      <polygon class="st9" points="457.99 387.17 407.88 389.91 407.88 315.4 457.99 312.66 457.99 387.17"/>
      <polygon class="st9" points="246.87 217.83 246.87 254.8 226.31 252.88 226.31 215.91 246.87 217.83"/>
      <polygon class="st9" points="272.47 215.09 251.08 213.09 251.08 179.49 272.47 181.49 272.47 215.09"/>
      <polygon class="st9" points="272.47 257.19 251.08 255.19 251.08 218.22 272.47 220.22 272.47 257.19"/>
      <polygon class="st9" points="246.87 212.7 226.31 210.78 226.31 177.18 246.87 179.1 246.87 212.7"/>
    </g>
  </g>
  <g>
    <g>
      <polygon class="st0" points="680.49 409.75 680.49 578.75 668.15 579.42 668.15 427.05 661.1 427.44 619.34 429.72 607.01 430.4 598.71 430.85 472.17 437.79 472.17 579.88 472.17 590.16 457.49 590.97 457.49 421.97 472.17 421.16 569.89 415.81 584.06 415.03 667.62 410.45 680.49 409.75"/>
      <polygon class="st0" points="680.49 373.37 680.49 409.75 667.62 410.45 667.62 374.08 680.49 373.37"/>
      <polygon class="st0" points="619.34 573.04 607.01 573.72 607.01 430.4 619.34 429.72 619.34 573.04"/>
      <polygon class="st0" points="584.06 415.03 569.89 415.81 569.89 379.43 584.06 378.66 584.06 415.03"/>
      <polygon class="st0" points="569.89 379.43 569.89 415.81 472.17 421.16 472.17 384.79 561.75 379.88 569.89 379.43"/>
      <polygon class="st0" points="472.17 384.79 472.17 421.16 457.49 421.97 457.49 385.59 472.17 384.79"/>
      <polygon class="st0" points="584.06 415.03 584.06 378.66 598.17 377.88 608.64 377.31 621.52 376.6 659.48 374.52 667.62 374.08 667.62 410.45 584.06 415.03"/>
      <polygon class="st0" points="621.52 367.87 621.52 376.6 608.64 377.31 608.64 368.58 621.52 367.87"/>
      <polygon class="st0" points="411.02 584.46 396.34 585.26 396.34 432.89 411.02 434.26 411.02 583.23 411.02 584.46"/>
      <polygon class="st0" points="398.51 380.09 413.2 379.28 413.2 381.46 398.51 380.09"/>
    </g>
    <g>
      <polygon class="st4" points="621.52 367.87 672.35 372.61 659.48 373.32 659.48 374.52 621.52 376.6 621.52 367.87"/>
      <polygon class="st4" points="457.49 421.97 457.49 590.97 450.43 590.31 450.43 581.07 450.43 437.93 411.02 434.26 396.34 432.89 396.34 585.26 388.04 584.49 388.04 415.49 398.51 416.47 449.35 421.21 457.49 421.97"/>
      <polygon class="st4" points="388.04 415.49 388.04 379.11 398.51 380.09 398.51 416.47 388.04 415.49"/>
      <polygon class="st4" points="607.01 430.4 607.01 573.72 598.71 572.94 598.71 430.85 607.01 430.4"/>
      <polygon class="st4" points="457.49 385.59 457.49 421.97 449.35 421.21 449.35 384.83 457.49 385.59"/>
      <polygon class="st4" points="661.1 578.76 661.1 427.44 668.15 427.05 668.15 579.42 661.1 578.76"/>
      <polygon class="st4" points="659.48 373.32 667.62 374.08 659.48 374.52 659.48 373.32"/>
      <polygon class="st4" points="398.51 416.47 398.51 380.09 413.2 381.46 449.35 384.83 449.35 421.21 398.51 416.47"/>
      <polygon class="st4" points="598.17 377.88 598.17 367.6 608.64 368.58 608.64 377.31 598.17 377.88"/>
      <polygon class="st4" points="561.75 378.67 569.89 379.43 561.75 379.88 561.75 378.67"/>
    </g>
  </g>
</svg>