<?xml version="1.0" encoding="UTF-8"?>
<svg id="Layer_1" data-name="Layer 1" xmlns="http://www.w3.org/2000/svg" version="1.1" viewBox="0 0 841.89 595.28">
  <defs>
    <style>
      .st0{fill:#8F6645;}
      .st1{fill:#EEEEEE;}
      .st2{fill:#DDDDDD;}
      .st3{fill:#3D3A37;}
      .st4{fill:#C4C4C4;}
      .st5{fill:#3D3A37;}
      .st6{fill:#000000;}
      .st7{fill:#FFFFFF;}
      .st8{fill:#888888;}
      .st9{fill:#7884AF;}
    </style>
  </defs>
  <g>
    <polygon class="st5" points="273.34 96.91 240.07 95.05 240.07 6.95 273.34 8.81 273.34 96.91"/>
    <polygon class="st6" points="303.31 95.23 273.34 96.91 273.34 8.81 303.31 7.13 303.31 95.23"/>
    <polygon class="st6" points="303.31 7.13 273.34 8.81 240.07 6.95 270.04 5.27 303.31 7.13"/>
  </g>
  <g>
    <polygon class="st4" points="372.21 587.14 167.56 575.7 167.56 133.45 372.09 144.89 372.21 144.88 372.21 587.14"/>
    <polygon class="st0" points="372.21 587.14 372.21 144.88 594.46 132.4 594.46 353.81 594.46 361.71 594.46 363.11 594.46 400.58 594.46 574.66 372.21 587.14"/>
  </g>
  <g>
    <polygon class="st1" points="628.2 118.99 628.2 130.51 594.46 132.4 372.21 144.88 372.09 144.89 372.09 133.37 628.2 118.99"/>
    <polygon class="st1" points="138.69 131.84 138.69 120.32 372.09 133.37 372.09 144.89 167.56 133.45 138.69 131.84"/>
    <polygon class="st3" points="606.37 118.99 372.07 132.15 372.07 121.71 372.09 121.71 606.37 108.55 606.37 117.77 606.37 118.99"/>
    <polygon class="st3" points="372.07 121.71 372.07 132.15 160.52 120.32 160.52 119.1 160.52 109.88 372.07 121.71"/>
    <polygon class="st1" points="372.09 109.68 628.2 95.3 628.2 107.32 606.37 108.55 372.09 121.71 372.09 109.68"/>
    <polygon class="st1" points="372.09 109.68 372.09 121.71 372.07 121.71 160.52 109.88 138.69 108.65 138.69 96.63 372.09 109.68"/>
  </g>
  <g>
    <polygon class="st3" points="628.2 118.99 372.09 133.37 138.69 120.32 160.52 119.1 160.52 120.32 372.07 132.15 606.37 118.99 606.37 117.77 628.2 118.99"/>
    <polygon class="st3" points="138.69 96.63 394.8 82.24 628.2 95.3 372.09 109.68 138.69 96.63"/>
    <polygon class="st3" points="663.97 357.7 677.45 358.45 667.72 359 654.24 358.24 663.97 357.7"/>
    <polygon class="st3" points="606.98 362.41 594.46 363.11 594.46 361.71 606.98 362.41"/>
  </g>
  <polygon class="st0" points="594.46 353.81 663.97 357.7 654.24 358.24 654.24 359.75 606.98 362.41 594.46 361.71 594.46 353.81"/>
  <g>
    <polygon class="st4" points="677.45 395.92 677.45 570 669.01 570.47 669.01 413.52 655.54 414.28 604.38 417.15 604.38 574.1 594.46 574.66 594.46 400.58 606.98 399.88 667.72 396.47 677.45 395.92"/>
    <polygon class="st4" points="594.46 400.58 594.46 363.11 606.98 362.41 606.98 399.88 594.46 400.58"/>
    <polygon class="st4" points="677.45 358.45 677.45 395.92 667.72 396.47 667.72 359 677.45 358.45"/>
    <polygon class="st4" points="606.98 399.88 606.98 362.41 654.24 359.75 667.72 359 667.72 396.47 606.98 399.88"/>
    <g>
      <polygon class="st0" points="669.01 413.52 669.01 570.47 655.54 569.72 655.54 414.28 669.01 413.52"/>
      <polygon class="st0" points="654.24 359.75 654.24 358.24 667.72 359 654.24 359.75"/>
    </g>
  </g>
  <g>
    <g>
      <polygon class="st7" points="477.06 505.2 483.03 504.87 485.54 505.01 479.57 505.34 477.06 505.2"/>
      <polygon class="st7" points="491.83 504.37 498.22 504.01 500.74 504.15 494.34 504.51 491.83 504.37"/>
      <polygon class="st7" points="444.2 438.82 524.93 434.29 527.77 434.45 447.04 438.98 444.2 438.82"/>
    </g>
    <g>
      <polygon class="st8" points="483.03 504.87 477.06 505.2 477.06 519.44 479.57 519.58 483.03 519.39 483.03 571.64 453.83 573.28 453.83 448.19 483.03 446.56 483.03 504.87"/>
      <polygon class="st8" points="477.06 519.44 477.06 505.2 479.57 505.34 479.57 519.58 477.06 519.44"/>
      <polygon class="st7" points="485.54 505.01 485.54 519.25 483.03 519.39 479.57 519.58 479.57 505.34 485.54 505.01"/>
      <polygon class="st8" points="498.22 504.01 491.83 504.37 491.83 446.06 520.98 444.42 520.98 569.51 491.83 571.15 491.83 518.61 494.34 518.75 500.74 518.39 500.74 504.15 498.22 504.01"/>
      <polygon class="st8" points="491.83 518.61 491.83 504.37 494.34 504.51 494.34 518.75 491.83 518.61"/>
      <polygon class="st7" points="494.34 504.51 500.74 504.15 500.74 518.39 494.34 518.75 494.34 504.51"/>
      <polygon class="st8" points="444.2 583.1 444.2 438.82 447.04 438.98 447.04 583.26 444.2 583.1"/>
      <path class="st7" d="M491.83,518.61v52.54l29.15-1.64v-125.09l-29.15,1.64v72.55ZM483.03,504.87v-58.31l-29.2,1.64v125.09l29.2-1.64v-52.26l2.51-.14v-14.24l-2.51-.14ZM527.77,578.72l-80.73,4.53v-144.28l80.73-4.53v144.28Z"/>
    </g>
  </g>
  <g id="left-window">
    <path class="st7" d="M291.98,514.08l3.2-9.13,1.38-10.09-55.86-2.64.26,5.18,2.4,9.91,4.12,8.8,5.55,7.08,6.6,4.89,7.21,2.36,7.32-.33,6.93-3,6.08-5.47,4.8-7.56ZM241.83,476.96l-.69,5.04,54.91,2.5-2.4-9.91-4.12-8.8-5.55-7.08-6.6-4.89-7.21-2.36-7.32.33-6.93,3-6.08,5.47-4.8,7.56-3.2,9.13ZM303.5,495.82l-1.73,12.58-3.99,11.39-5.99,9.42-7.58,6.82-8.65,3.74-9.13.42-8.99-2.94-8.23-6.09-6.92-8.84-5.13-10.97-3-12.36-.66-12.91,1.73-12.58,3.99-11.39,5.99-9.42,7.58-6.82,8.65-3.74,9.13-.42,8.99,2.94,8.23,6.09,6.92,8.83,5.13,10.97,3,12.36.66,12.91Z"/>
    <polygon class="st8" points="290.74 450.57 297.66 459.41 294.71 459.57 287.8 450.74 290.74 450.57"/>
    <polygon class="st8" points="297.66 459.41 302.79 470.38 299.85 470.55 294.71 459.57 297.66 459.41"/>
    <polygon class="st8" points="302.79 470.38 305.79 482.75 302.85 482.91 299.85 470.55 302.79 470.38"/>
    <polygon class="st8" points="306.45 495.66 304.72 508.24 301.78 508.4 303.5 495.82 306.45 495.66"/>
    <polygon class="st8" points="264.39 441.96 273.52 441.54 270.57 441.71 261.45 442.12 264.39 441.96"/>
    <polygon class="st8" points="273.52 441.54 282.51 444.48 279.56 444.64 270.57 441.71 273.52 441.54"/>
    <polygon class="st8" points="282.51 444.48 290.74 450.57 287.8 450.74 279.56 444.64 282.51 444.48"/>
    <polygon class="st8" points="304.72 508.24 300.73 519.63 297.78 519.79 301.78 508.4 304.72 508.24"/>
    <polygon class="st8" points="300.73 519.63 294.74 529.05 291.79 529.22 297.78 519.79 300.73 519.63"/>
    <polygon class="st8" points="294.74 529.05 287.16 535.87 284.22 536.03 291.79 529.22 294.74 529.05"/>
    <polygon class="st8" points="275.57 539.78 284.22 536.03 287.16 535.87 278.52 539.61 275.57 539.78"/>
    <polygon class="st8" points="305.79 482.75 306.45 495.66 303.5 495.82 302.85 482.91 305.79 482.75"/>
    <polygon class="st9" points="241.14 482 241.83 476.96 245.03 467.82 249.84 460.27 255.91 454.8 262.85 451.8 270.16 451.46 277.37 453.82 283.97 458.7 289.52 465.79 293.64 474.59 296.04 484.5 241.14 482"/>
    <polygon class="st9" points="295.19 504.94 291.98 514.08 287.18 521.64 281.11 527.1 274.17 530.11 266.85 530.44 259.64 528.08 253.04 523.2 247.49 516.11 243.38 507.31 240.97 497.4 240.71 492.22 296.57 494.86 295.19 504.94"/>
  </g>
  <g>
    <g>
      <polygon class="st8" points="291.02 314.85 297.94 323.69 294.99 323.86 288.07 315.02 291.02 314.85"/>
      <polygon class="st8" points="297.94 323.69 303.07 334.66 300.13 334.83 294.99 323.86 297.94 323.69"/>
      <polygon class="st8" points="303.07 334.66 306.07 347.03 303.12 347.19 300.13 334.83 303.07 334.66"/>
      <polygon class="st8" points="306.73 359.94 305 372.52 302.05 372.68 303.78 360.1 306.73 359.94"/>
      <polygon class="st8" points="264.67 306.24 273.8 305.82 270.85 305.99 261.73 306.4 264.67 306.24"/>
      <polygon class="st8" points="273.8 305.82 282.79 308.76 279.84 308.93 270.85 305.99 273.8 305.82"/>
      <polygon class="st8" points="282.79 308.76 291.02 314.85 288.07 315.02 279.84 308.93 282.79 308.76"/>
      <polygon class="st8" points="305 372.52 301.01 383.91 298.06 384.07 302.05 372.68 305 372.52"/>
      <polygon class="st8" points="301.01 383.91 295.02 393.33 292.07 393.5 298.06 384.07 301.01 383.91"/>
      <polygon class="st8" points="295.02 393.33 287.44 400.15 284.5 400.32 292.07 393.5 295.02 393.33"/>
      <polygon class="st8" points="275.85 404.06 284.5 400.32 287.44 400.15 278.79 403.89 275.85 404.06"/>
      <polygon class="st8" points="290.89 183.21 297.81 192.04 294.86 192.21 287.94 183.38 290.89 183.21"/>
      <polygon class="st8" points="297.81 192.04 302.94 203.02 300 203.18 294.86 192.21 297.81 192.04"/>
      <polygon class="st8" points="302.94 203.02 305.94 215.38 302.99 215.55 300 203.18 302.94 203.02"/>
      <polygon class="st8" points="306.6 228.29 304.87 240.87 301.92 241.04 303.65 228.46 306.6 228.29"/>
      <polygon class="st8" points="264.54 174.59 273.67 174.18 270.72 174.34 261.59 174.76 264.54 174.59"/>
      <polygon class="st8" points="273.67 174.18 282.65 177.12 279.71 177.28 270.72 174.34 273.67 174.18"/>
      <polygon class="st8" points="282.65 177.12 290.89 183.21 287.94 183.38 279.71 177.28 282.65 177.12"/>
      <polygon class="st8" points="304.87 240.87 300.88 252.26 297.93 252.43 301.92 241.04 304.87 240.87"/>
      <polygon class="st8" points="300.88 252.26 294.89 261.69 291.94 261.85 297.93 252.43 300.88 252.26"/>
      <polygon class="st8" points="294.89 261.69 287.31 268.5 284.36 268.67 291.94 261.85 294.89 261.69"/>
      <polygon class="st8" points="275.72 272.42 284.36 268.67 287.31 268.5 278.66 272.25 275.72 272.42"/>
      <polygon class="st8" points="399.5 173.5 465.46 169.79 468.3 169.95 402.34 173.66 399.5 173.5"/>
      <polygon class="st8" points="399.05 303 465.02 299.29 467.86 299.45 401.9 303.16 399.05 303"/>
      <polygon class="st8" points="502.94 297.16 568.91 293.46 571.75 293.62 505.79 297.32 502.94 297.16"/>
      <polygon class="st8" points="503.39 167.66 569.35 163.96 572.2 164.12 506.23 167.82 503.39 167.66"/>
      <polygon class="st8" points="306.07 347.03 306.73 359.94 303.78 360.1 303.12 347.19 306.07 347.03"/>
      <polygon class="st8" points="305.94 215.38 306.6 228.29 303.65 228.46 302.99 215.55 305.94 215.38"/>
    </g>
    <g>
      <path class="st7" d="M292.26,378.36l3.2-9.13,1.38-10.09-55.86-2.64.26,5.18,2.4,9.91,4.12,8.8,5.55,7.08,6.6,4.89,7.21,2.36,7.32-.33,6.93-3,6.08-5.47,4.8-7.56ZM242.11,341.24l-.69,5.04,54.91,2.5-2.4-9.91-4.12-8.8-5.55-7.08-6.6-4.89-7.21-2.36-7.32.33-6.93,3-6.08,5.47-4.8,7.56-3.2,9.13ZM303.78,360.1l-1.73,12.58-3.99,11.39-5.99,9.42-7.58,6.82-8.65,3.74-9.13.42-8.99-2.94-8.23-6.09-6.92-8.83-5.13-10.97-3-12.36-.66-12.91,1.73-12.58,3.99-11.39,5.99-9.43,7.58-6.82,8.65-3.74,9.13-.42,8.99,2.94,8.23,6.09,6.92,8.84,5.13,10.97,3,12.36.66,12.91Z"/>
      <path class="st7" d="M292.13,246.72l3.2-9.13,1.38-10.09-55.86-2.64.26,5.18,2.4,9.91,4.12,8.8,5.55,7.08,6.6,4.89,7.21,2.36,7.32-.33,6.93-3,6.08-5.47,4.8-7.56ZM241.98,209.59l-.69,5.04,54.91,2.5-2.4-9.91-4.12-8.8-5.55-7.08-6.6-4.89-7.21-2.36-7.32.33-6.93,3-6.08,5.47-4.8,7.56-3.2,9.13ZM303.65,228.46l-1.73,12.58-3.99,11.39-5.99,9.42-7.58,6.82-8.65,3.74-9.13.42-8.99-2.94-8.23-6.09-6.92-8.83-5.13-10.97-3-12.36-.66-12.91,1.73-12.58,3.99-11.39,5.99-9.42,7.58-6.82,8.65-3.74,9.13-.42,8.99,2.94,8.23,6.09,6.92,8.84,5.13,10.97,3,12.36.66,12.91Z"/>
      <polygon class="st8" points="399.5 266.74 399.5 173.5 402.34 173.66 402.34 266.9 399.5 266.74"/>
      <path class="st7" d="M407.74,215.6l24.57-1.38v-34.61l-24.57,1.38v34.61ZM437.34,257.3l25.57-1.44v-38.08l-25.57,1.44v38.08ZM437.34,213.93l25.57-1.44v-34.61l-25.57,1.44v34.61ZM432.31,257.58v-38.08l-24.57,1.38v38.08l24.57-1.38ZM402.34,266.9v-93.24l65.96-3.7v93.24l-65.96,3.7Z"/>
      <polygon class="st8" points="399.05 396.24 399.05 303 401.9 303.16 401.9 396.4 399.05 396.24"/>
      <path class="st7" d="M407.3,345.1l24.57-1.38v-34.61l-24.57,1.38v34.61ZM436.89,386.8l25.57-1.44v-38.08l-25.57,1.44v38.08ZM436.89,343.44l25.57-1.44v-34.61l-25.57,1.44v34.61ZM431.87,387.08v-38.08l-24.57,1.38v38.08l24.57-1.38ZM401.9,396.4v-93.24l65.96-3.7v93.24l-65.96,3.7Z"/>
      <polygon class="st8" points="502.94 390.4 502.94 297.16 505.79 297.32 505.79 390.56 502.94 390.4"/>
      <path class="st7" d="M511.19,339.26l24.57-1.38v-34.61l-24.57,1.38v34.61ZM540.78,380.96l25.57-1.44v-38.08l-25.57,1.44v38.08ZM540.78,337.6l25.57-1.44v-34.61l-25.57,1.44v34.61ZM535.76,381.25v-38.08l-24.57,1.38v38.08l24.57-1.38ZM505.79,390.56v-93.24l65.96-3.7v93.24l-65.96,3.7Z"/>
      <polygon class="st8" points="503.39 260.9 503.39 167.66 506.23 167.82 506.23 261.06 503.39 260.9"/>
      <path class="st7" d="M511.63,209.76l24.57-1.38v-34.61l-24.57,1.38v34.61ZM541.23,251.46l25.57-1.44v-38.08l-25.57,1.44v38.08ZM541.23,208.1l25.57-1.44v-34.61l-25.57,1.44v34.61ZM536.2,251.75v-38.08l-24.57,1.38v38.08l24.57-1.38ZM506.23,261.06v-93.24l65.96-3.7v93.24l-65.96,3.7Z"/>
    </g>
    <g>
      <polygon class="st9" points="241.42 346.28 242.11 341.24 245.31 332.1 250.12 324.55 256.19 319.08 263.12 316.08 270.44 315.74 277.65 318.1 284.25 322.99 289.8 330.07 293.92 338.87 296.32 348.78 241.42 346.28"/>
      <polygon class="st9" points="295.46 369.23 292.26 378.36 287.46 385.92 281.38 391.38 274.45 394.39 267.13 394.72 259.92 392.37 253.32 387.48 247.77 380.39 243.66 371.59 241.25 361.68 240.99 356.5 296.85 359.14 295.46 369.23"/>
      <polygon class="st9" points="241.29 214.64 241.98 209.59 245.18 200.46 249.98 192.9 256.06 187.43 262.99 184.43 270.31 184.1 277.52 186.45 284.12 191.34 289.67 198.43 293.79 207.22 296.19 217.14 241.29 214.64"/>
      <polygon class="st9" points="295.33 237.58 292.13 246.72 287.33 254.27 281.25 259.74 274.32 262.74 267 263.08 259.79 260.72 253.19 255.83 247.64 248.75 243.52 239.95 241.12 230.03 240.86 224.86 296.72 227.49 295.33 237.58"/>
      <polygon class="st9" points="432.31 219.5 432.31 257.58 407.74 258.96 407.74 220.88 432.31 219.5"/>
      <polygon class="st9" points="462.9 212.5 437.34 213.93 437.34 179.32 462.9 177.89 462.9 212.5"/>
      <polygon class="st9" points="462.9 255.86 437.34 257.3 437.34 219.22 462.9 217.78 462.9 255.86"/>
      <polygon class="st9" points="432.31 214.22 407.74 215.6 407.74 180.99 432.31 179.61 432.31 214.22"/>
      <polygon class="st9" points="431.87 349 431.87 387.08 407.3 388.46 407.3 350.38 431.87 349"/>
      <polygon class="st9" points="462.46 342 436.89 343.44 436.89 308.83 462.46 307.39 462.46 342"/>
      <polygon class="st9" points="462.46 385.36 436.89 386.8 436.89 348.72 462.46 347.28 462.46 385.36"/>
      <polygon class="st9" points="431.87 343.72 407.3 345.1 407.3 310.49 431.87 309.11 431.87 343.72"/>
      <polygon class="st9" points="535.76 343.17 535.76 381.25 511.19 382.63 511.19 344.55 535.76 343.17"/>
      <polygon class="st9" points="566.35 336.16 540.78 337.6 540.78 302.99 566.35 301.55 566.35 336.16"/>
      <polygon class="st9" points="566.35 379.53 540.78 380.96 540.78 342.88 566.35 341.45 566.35 379.53"/>
      <polygon class="st9" points="535.76 337.88 511.19 339.26 511.19 304.65 535.76 303.27 535.76 337.88"/>
      <polygon class="st9" points="536.2 213.67 536.2 251.75 511.63 253.12 511.63 215.05 536.2 213.67"/>
      <polygon class="st9" points="566.79 206.66 541.23 208.1 541.23 173.49 566.79 172.05 566.79 206.66"/>
      <polygon class="st9" points="566.79 250.03 541.23 251.46 541.23 213.38 566.79 211.95 566.79 250.03"/>
      <polygon class="st9" points="536.2 208.38 511.63 209.76 511.63 175.15 536.2 173.77 536.2 208.38"/>
    </g>
  </g>
</svg>