<?xml version="1.0" encoding="utf-8"?>
<!-- Generator: Adobe Illustrator 25.0.1, SVG Export Plug-In . SVG Version: 6.00 Build 0)  -->
<svg version="1.1" id="katman_1" xmlns="http://www.w3.org/2000/svg" x="0px" y="0px"
     viewBox="0 0 841.9 595.3" style="enable-background:new 0 0 841.9 595.3;" xml:space="preserve">
<style type="text/css">
	.st0{fill:#8F6645;}
	.st1{fill:#EEEEEE;}
	.st2{fill:#DDDDDD;}
	.st3{fill:#3D3A37;}
	.st4{fill:#C4C4C4;}
	.st5{fill:#3D3A37;}
	.st6{fill:#000000;}
	.st7{fill:#FFFFFF;}
	.st8{fill:#888888;}
	.st9{fill:#7884AF;}
</style>

    <g id="body">
	<polygon class="st4" points="450.7,540.8 450.7,556.2 328.8,587.3 327.9,91 345.7,87.4 401.7,73.5 465.3,113.2 509.4,108.7
		549.9,126.9 567.7,124.5 602.2,112.6 643,141.9 643,144.3 642.1,507.7 588.1,521.4 572.7,518.4 572.7,511 546.1,506 464.1,524.6
		464.1,537.6 			"/>
        <polygon class="st0" points="221.1,553.1 219.5,112.9 327.9,91 328.8,587.3 			"/>
</g>


    <g id="roof">
	<polygon class="st3" points="509.4,108.7 465.3,113.2 483.4,110.4 527.3,105.9 			"/>
        <polygon class="st2" points="643,141.9 602.2,112.6 616.5,107.7 660.4,140 			"/>
        <polygon class="st2" points="549.9,126.9 509.4,108.7 527.3,105.9 567.7,124.5 			"/>
        <polygon class="st2" points="465.3,113.2 401.7,73.5 418.8,69.3 483.4,110.4 			"/>
        <polygon class="st2" points="669.3,141.4 643,144.3 643,141.9 660.4,140 			"/>
        <polygon class="st2" points="327.9,91 219.5,112.9 214.2,114 195.7,111.3 326.5,83.9 345.7,87.4 			"/>
        <polygon class="st1" points="195.8,99 326.6,69.7 326.5,83.9 195.7,111.3 			"/>
        <polygon class="st1" points="326.5,83.9 326.6,69.7 337.5,71.8 345.8,73.4 418.8,53.9 483.4,98 483.4,110.4 418.8,69.3
			401.7,73.5 345.7,87.4 			"/>
        <polygon class="st3" points="418.8,53.9 345.8,73.4 337.5,71.8 342.7,70.6 352.5,68.5 374.5,63.6 			"/>
        <polygon class="st1" points="483.4,110.4 483.4,98 527.4,91.3 546.3,101.6 552.3,104.9 567.8,113.3 567.7,124.5 527.3,105.9
			"/>
        <polygon class="st1" points="567.7,124.5 567.8,113.3 616.5,95.1 660.4,129.8 669.3,131.4 669.3,141.4 660.4,140 616.5,107.7
			602.2,112.6 			"/>
        <polygon class="st3" points="616.5,95.1 567.8,113.3 552.3,104.9 556.2,104.3 571.4,102 			"/>
</g>


    <g id="chimney">
	<g>
		<polygon class="st6" points="342.7,70.6 342.6,34 352.4,31.5 352.5,68.5 			"/>
        <polygon class="st6" points="352.4,31.5 342.6,34 335.3,35.9 332.1,35.3 351.5,30.3 354.6,30.9 			"/>
        <path class="st5" d="M352.5,68.5l-0.1-37l2.2-0.6l9.1-6.5l10.8,11.8l0,8v1.6l0,17.8L352.5,68.5z M363.1,43.9l0-15.9l-8.2,5.9
		l0,8.3L363.1,43.9z M371.6,46.3l-7.9-1.6l0,3.5l0,8.8v0.8l7.9-2.6L371.6,46.3z"/>
        <polygon class="st5" points="374.5,44.3 374.5,36.3 376.7,35.7 376.7,43.8 			"/>
        <polygon class="st5" points="374.5,36.3 363.7,24.4 365.3,23.3 376.7,35.7 			"/>
        <polygon class="st6" points="332.1,35.3 346,24.7 365.3,19.6 351.5,30.3 			"/>
        <polygon class="st3" points="376.7,35.7 365.3,23.3 363.7,24.4 354.6,30.9 351.5,30.3 365.3,19.6 380.2,36.5 380.2,44.5
		376.7,43.8 			"/>
        <polygon class="st5" points="380.2,44.5 374.5,45.9 374.5,44.3 376.7,43.8 			"/>
        <polygon class="st6" points="363.1,27.9 363.1,43.9 354.9,42.2 354.8,33.9 			"/>
        <polygon class="st6" points="363.6,44.7 371.6,46.3 363.7,48.2 			"/>
        <polygon class="st6" points="371.6,46.3 371.6,55.2 363.7,57.1 363.7,48.2 			"/>
        <polygon class="st6" points="371.6,55.2 363.7,57.8 363.7,57.1 			"/>
	</g>
        <g>
		<polygon class="st6" points="546.3,101.6 546.3,80.6 556.2,78.9 556.2,104.3 552.3,104.9 			"/>
            <polygon class="st5" points="556.2,78.9 546.3,80.6 538.9,81.9 536.7,81.4 556.2,78.1 558.4,78.5 			"/>
            <path class="st5" d="M556.2,104.3l0-25.4l2.2-0.4l5.9-5.4l7.1,9l0,6.7v0.9l0,12.2L556.2,104.3z M563.5,88.9l0-13.3l-5.7,5.2
				l0,6.9L563.5,88.9z M569.4,90.6l-5.5-1.1v2l0,7.4v1.5l5.5-2.4L569.4,90.6z"/>
            <polygon class="st5" points="571.4,88.8 571.4,82.1 573.6,81.8 573.6,88.5 			"/>
            <polygon class="st5" points="571.4,82.1 564.4,73.1 565.8,71.8 573.6,81.8 			"/>
            <polygon class="st6" points="536.7,81.4 546.3,72.2 565.8,68.7 556.2,78.1 			"/>
            <polygon class="st5" points="573.6,81.8 565.8,71.8 564.4,73.1 558.4,78.5 556.2,78.1 565.8,68.7 576,82.3 576,89 573.6,88.5
				"/>
            <polygon class="st6" points="576,89 571.4,89.7 571.4,88.8 573.6,88.5 			"/>
            <polygon class="st6" points="563.6,75.6 563.5,88.9 557.9,87.7 557.9,80.8 			"/>
            <polygon class="st6" points="563.9,89.5 569.4,90.6 563.9,91.5 			"/>
            <polygon class="st6" points="569.4,90.6 569.4,98.1 563.9,98.9 563.9,91.5 			"/>
            <polygon class="st6" points="569.4,98.1 563.9,100.5 563.9,98.9 			"/>
	</g>
</g>


    <g id="right-window">
			<path class="st7" d="M246.5,155.9l2.5-11.8l4.1-10.6l5.5-8.8l6.5-6.3l7.2-3.3l7.3,0l7,3.3l6.2,6.5l4.8,9.3l3.2,11.4l1.2,12.7
				l-0.8,13.1l-2.8,12.4l-4.5,10.9l-5.9,8.6L281,209l-7.3,2.6l-7.2-0.7l-6.7-3.9l-5.7-6.8l-4.4-9.1l-2.8-10.9l-1.1-11.9L246.5,155.9
				z M297,147.9l-2.7-9.9l-4.2-8l-5.3-5.7l-6.1-2.9l-6.4,0l13.6,76.6l5.1-7.5l3.9-9.5l2.4-10.8l0.7-11.3L297,147.9z M250.2,178
				l2.5,9.5l3.8,7.9l5,5.9l5.8,3.4l6.3,0.6l6.3-2.3l-7-39.7L250.2,178z M255.6,137.3l-3.6,9.3l-2.2,10.3l-0.6,10.7l0.2,2.5
				l22.1-14.5l-5.5-31.3l-5.7,5.4L255.6,137.3z"/>
        <polygon class="st8" points="291.1,203.5 284.3,209.2 281,209 287.9,203.3 			"/>
        <polygon class="st8" points="291.1,203.5 287.9,203.3 293.8,194.6 297.1,194.9 			"/>
        <polygon class="st8" points="281,209 284.3,209.2 277,211.8 273.7,211.6 			"/>
        <polygon class="st8" points="297.1,194.9 293.8,194.6 298.4,183.7 301.6,184 			"/>
        <polygon class="st8" points="279.6,115.1 282.8,115.5 289.8,118.8 286.6,118.4 			"/>
        <polygon class="st8" points="304.4,171.6 301.6,184 298.4,183.7 301.1,171.3 			"/>
        <polygon class="st8" points="304.4,171.6 301.1,171.3 301.9,158.2 305.2,158.6 			"/>
        <polygon class="st8" points="305.2,158.6 301.9,158.2 300.7,145.5 304,145.9 			"/>
        <polygon class="st8" points="300.8,134.5 304,145.9 300.7,145.5 297.6,134.1 			"/>
        <polygon class="st8" points="300.8,134.5 297.6,134.1 292.7,124.9 296,125.3 			"/>
        <polygon class="st8" points="296,125.3 292.7,124.9 286.6,118.4 289.8,118.8 			"/>
        <polygon class="st9" points="294.3,138 297,147.9 298.1,158.9 297.4,170.2 295,181 291,190.5 285.9,198 272.3,121.4 278.7,121.4
			284.8,124.3 290.1,130 		"/>
        <polygon class="st9" points="252.7,187.5 250.2,178 273,163.4 280,203 273.6,205.3 267.3,204.7 261.5,201.3 256.5,195.5 		"/>
        <polygon class="st9" points="252,146.6 255.6,137.3 260.4,129.7 266.1,124.3 271.6,155.6 249.5,170.1 249.3,167.6 249.9,156.9
			"/>

    </g>


    <g>
	<g>
		<g>
			<polygon class="st4" points="450.7,556.2 450.7,540.8 488.3,549.8 488.3,565.7 450.8,556.3 			"/>
            <polygon class="st0" points="450.7,540.8 464.1,537.6 490.9,543.8 572.7,523.2 572.7,518.4 588.1,521.4 594.1,522.5 488.3,549.8
							"/>
            <polygon class="st0" points="464.1,524.6 546.1,506 572.7,511 490.9,530.5 			"/>
            <polygon class="st4" points="464.1,537.6 464.1,524.6 490.9,530.5 490.9,543.8 			"/>
            <polygon class="st4" points="594.1,536.9 488.3,565.7 488.3,549.8 594.1,522.5 			"/>
            <polygon class="st4" points="572.7,523.2 490.9,543.8 490.9,530.5 572.7,511 572.7,518.4 			"/>
		</g>
	</g>
        <g>
		<g>
			<polygon class="st9" points="368.4,474.3 368.4,433.6 404.9,428.9 404.9,468.3 			"/>
            <g>
				<path class="st7" d="M448.9,371.3l0,96.8l-84.2,14.4L364.5,378L448.9,371.3z M368.4,433.6l0.1,40.7l36.5-6l0-39.4L368.4,433.6z
					 M410.2,467.5l35.4-5.8l0-82.1l-35.5,3.1L410.2,467.5z M368.3,386.3l0.1,37l36.5-4.4l0-35.8L368.3,386.3z"/>
                <polygon class="st8" points="364.7,482.5 360.4,481.7 360.2,377.6 364.5,378 				"/>
                <polygon class="st8" points="364.5,378 360.2,377.6 444.5,370.9 448.9,371.3 				"/>
			</g>
            <polygon class="st9" points="445.6,461.6 410.2,467.5 410.1,382.6 445.6,379.5 			"/>
            <polygon class="st9" points="368.4,423.3 368.3,386.3 404.8,383.1 404.9,418.9 			"/>
		</g>
            <g>
			<polygon class="st9" points="574.8,440.4 574.9,407 599.5,403.9 599.4,436.3 			"/>
                <g>
				<path class="st7" d="M629.7,356.9l-0.2,80.4l-57.2,9.8l0.1-85.6L629.7,356.9z M574.9,407l-0.1,33.3l24.6-4l0.1-32.5L574.9,407z
					 M603,435.7l24.2-4l0.2-68.1l-24.3,2.1L603,435.7z M574.9,368.3l0,30.3l24.6-2.9l0.1-29.5L574.9,368.3z"/>
                    <polygon class="st8" points="572.3,447 568,446.4 568.1,361.2 572.4,361.4 				"/>
                    <polygon class="st8" points="572.4,361.4 568.1,361.2 625.4,356.6 629.7,356.9 				"/>
			</g>
                <polygon class="st9" points="627.2,431.8 603,435.7 603.2,365.8 627.4,363.7 			"/>
                <polygon class="st9" points="574.9,398.6 574.9,368.3 599.6,366.1 599.5,395.6 			"/>
		</g>
            <g>
			<polygon class="st9" points="489.9,213.1 490,176.4 535.9,181.4 535.9,216.4 			"/>
                <g>
				<path class="st7" d="M538,133.7l-0.1,89.3l-50.1-3.3l0-94L538,133.7z M490,176.4l0,36.6l45.9,3.3l0-35L490,176.4z M490,133.8
					l0,33.3l46,5.4l0-31.8L490,133.8z"/>
                    <polygon class="st8" points="533.5,223.2 483.4,220 487.8,219.7 537.9,223 				"/>
                    <polygon class="st8" points="487.8,219.7 483.4,220 483.4,126.4 487.8,125.8 				"/>
			</g>
                <polygon class="st9" points="490,167.1 490,133.8 536,140.7 535.9,172.5 			"/>
		</g>
            <g>
			<polygon class="st9" points="374.1,209.2 374,176.3 408.5,179.7 408.5,211.6 			"/>
                <g>
				<path class="st7" d="M450.3,137.4l0,82.7l-79.8-5l-0.1-89l42.4-23.5L450.3,137.4z M374,176.3l0,32.9l34.5,2.3l0-31.9L374,176.3z
					 M447.2,214.2l0-30.8l-33.7-3.3l0,31.7L447.2,214.2z M374,138l0,29.9l34.5,3.6l0-29L374,138z M447.2,147.6l-33.7-4.4l0,28.9
					l33.7,3.5L447.2,147.6z M447.2,140.8L412.8,109l-38.8,21.7L447.2,140.8z"/>
                    <polygon class="st8" points="445.9,220.4 366.2,215.4 370.5,215.1 450.3,220.1 				"/>
                    <polygon class="st8" points="370.5,215.1 366.2,215.4 366,126.8 370.4,126.1 				"/>
                    <polygon class="st8" points="412.8,102.6 370.4,126.1 366,126.8 408.4,103.4 				"/>
			</g>
                <polygon class="st9" points="447.2,183.4 447.2,214.2 413.6,211.9 413.5,180.1 			"/>
                <polygon class="st9" points="374,167.9 374,138 408.5,142.6 408.5,171.5 			"/>
                <polygon class="st9" points="413.5,143.2 447.2,147.6 447.2,175.6 413.5,172.1 			"/>
                <polygon class="st9" points="412.8,109 447.2,140.8 373.9,130.8 			"/>
		</g>
            <g>
			<polygon class="st7" points="490.9,443.7 495.9,443 495.9,439.1 496.4,431.4 534.2,426 534.2,487.3 490.9,496.3 			"/>
                <g>
				<polygon class="st8" points="488.8,440.2 486.5,439.9 486.5,428.6 488.8,428.9 				"/>
                    <polygon class="st7" points="488.8,440.2 488.8,428.9 496.4,427.8 496.4,431.4 496.4,439.1 				"/>
                    <polygon class="st8" points="496.4,427.8 488.8,428.9 486.5,428.6 494.1,427.5 				"/>
                    <path class="st8" d="M483.4,510.6l0-147.3l57.2-4.3l-0.1,139.1L483.4,510.6z M495.9,443l-5,0.8l0,52.5l43.3-8.9l0.1-61.3
					l-37.8,5.4v-3.6l-2.4-0.3l-7.6,1.1l0,11.3l2.4,0.3l7.1-1.1L495.9,443z M511.6,418.4l0-41.8l-2.7,2.4l-2.6,2.7l-2.5,3l-2.3,3.3
					l-2.1,3.5l-1.9,3.8l-1.7,4l-1.5,4.2l-1.3,4.3l-1,4.4l-0.7,4.5l-0.5,4.6L511.6,418.4z M517,417.7l17.3-2.3l0-4.2l-0.3-4.2
					l-0.6-4.1l-0.9-3.9l-1.1-3.8l-1.4-3.6l-1.6-3.3l-1.9-3.1l-2.1-2.8l-2.3-2.5l-2.5-2.1l-2.6-1.8L517,417.7z"/>
                    <polygon class="st8" points="472.8,522.4 472.8,349.1 475.8,349.3 475.7,523 				"/>
                    <path class="st7" d="M475.7,523l0-173.7l71.7-4.3l-0.2,161.7L475.7,523z M483.5,363.2l0,147.3l57.1-12.5l0.1-139.1L483.5,363.2z
					"/>
                    <polygon class="st8" points="475.8,349.3 472.8,349.1 544.5,344.8 547.5,344.9 				"/>
			</g>
                <polygon class="st9" points="511.7,376.5 511.6,418.4 490.7,421.2 491.2,416.6 492,412.1 493,407.6 494.2,403.3 495.7,399.1
				497.5,395.1 499.4,391.4 501.5,387.8 503.8,384.5 506.3,381.6 508.9,378.9 			"/>
                <polygon class="st9" points="534.2,415.4 517,417.7 517,376.1 519.6,377.8 522.1,380 524.3,382.4 526.4,385.2 528.3,388.3
				529.9,391.7 531.3,395.2 532.4,399 533.3,402.9 533.9,407 534.2,411.2 			"/>
		</g>
            <g>
			<polygon class="st9" points="579.2,223.2 579.2,196.3 602.5,198.5 602.5,224.8 			"/>
                <g>
				<path class="st7" d="M631.1,162.9l-0.2,68.6l-54.2-3.4l0.1-72.8l28.7-20.3L631.1,162.9z M579.2,196.3l0,26.9l23.3,1.6l0-26.3
					L579.2,196.3z M628.9,226.6l0.1-25.5l-23-2.2l0,26.2L628.9,226.6z M579.3,164.9l0,24.5l23.3,2.4l0-23.9L579.3,164.9z M629,171.4
					l-23-3l0,23.8l23,2.4L629,171.4z M629,165.7l-23.5-25.5L579.3,159L629,165.7z"/>
                    <polygon class="st8" points="626.7,231.7 572.5,228.3 576.8,228.1 631,231.5 				"/>
                    <polygon class="st8" points="576.8,228.1 572.5,228.3 572.6,155.7 576.9,155.2 				"/>
                    <polygon class="st8" points="605.6,135 576.9,155.2 572.6,155.7 601.3,135.5 				"/>
			</g>
                <polygon class="st9" points="628.9,201.1 628.9,226.6 605.9,225 605.9,198.9 			"/>
                <polygon class="st9" points="579.2,189.4 579.3,164.9 602.6,168 602.5,191.8 			"/>
                <polygon class="st9" points="606,168.4 629,171.4 628.9,194.6 605.9,192.2 			"/>
                <polygon class="st9" points="605.5,140.3 629,165.7 579.3,159 			"/>
		</g>

            <g>
			<path class="st7" d="M247.3,416.1l2.5-11l4.1-9.3l5.5-7l6.5-4.2l7.1-1.1l7.3,2.2l7,5.4l6.1,8.3l4.8,10.6l3.2,12.3l1.2,12.9
				l-0.8,12.7l-2.8,11.5l-4.5,9.5l-5.9,6.8l-6.8,3.6l-7.3,0.3l-7.2-2.9l-6.7-5.9l-5.7-8.4l-4.4-10.4l-2.8-11.7l-1.1-12.2
				L247.3,416.1z M297.7,423.5l-2.7-10.6l-4.2-9.2l-5.3-7.2l-6.1-4.7l-6.4-1.9l13.6,80l5.1-5.9l3.9-8.2l2.4-10l0.7-11L297.7,423.5z
				 M251,439.1l2.5,10.2l3.8,9l5,7.3l5.8,5.1l6.3,2.5l6.3-0.3l-7-41.4L251,439.1z M256.4,400.4l-3.6,8.1l-2.2,9.6l-0.6,10.4l0.2,2.5
				l22.1-7.6l-5.5-32.7l-5.7,3.7L256.4,400.4z"/>
                <polygon class="st8" points="291.8,475.1 285,478.7 281.8,479.2 288.6,475.6 			"/>
                <polygon class="st8" points="291.8,475.1 288.6,475.6 294.5,468.8 297.7,468.3 			"/>
                <polygon class="st8" points="297.7,468.3 294.5,468.8 299,459.4 302.3,458.9 			"/>
                <polygon class="st8" points="305.1,447.4 302.3,458.9 299,459.4 301.8,447.9 			"/>
                <polygon class="st8" points="305.1,447.4 301.8,447.9 302.6,435.2 305.9,434.8 			"/>
                <polygon class="st8" points="305.9,434.8 302.6,435.2 301.4,422.2 304.6,421.8 			"/>
                <polygon class="st8" points="301.5,409.6 304.6,421.8 301.4,422.2 298.3,410 			"/>
                <polygon class="st8" points="301.5,409.6 298.3,410 293.4,399.3 296.7,399 			"/>
                <polygon class="st8" points="296.7,399 293.4,399.3 287.3,391 290.5,390.7 			"/>
                <polygon class="st8" points="283.5,385.4 290.5,390.7 287.3,391 280.3,385.6 			"/>
                <polygon class="st8" points="283.5,385.4 280.3,385.6 273,383.5 276.2,383.2 			"/>
		</g>
            <polygon class="st9" points="295,412.8 297.7,423.5 298.7,434.7 298,445.7 295.6,455.6 291.7,463.8 286.6,469.7 273.1,389.7
			279.4,391.7 285.5,396.4 290.8,403.6 		"/>
            <polygon class="st9" points="253.5,449.3 251,439.1 273.7,431.5 280.7,472.9 274.4,473.3 268.1,470.8 262.3,465.7 257.3,458.3
			"/>
            <polygon class="st9" points="252.9,408.5 256.4,400.4 261.2,394.3 266.9,390.7 272.4,423.4 250.3,431.1 250.1,428.5 250.7,418.1
					"/>
	</g>
</g>
</svg>
