<?xml version="1.0" encoding="utf-8"?>
<!-- Generator: Adobe Illustrator 25.0.1, SVG Export Plug-In . SVG Version: 6.00 Build 0)  -->
<svg version="1.1" id="katman_1" xmlns="http://www.w3.org/2000/svg" x="0px" y="0px"
     viewBox="0 0 841.9 595.3" style="enable-background:new 0 0 841.9 595.3;" xml:space="preserve">
<style type="text/css">
	.st0{fill:#8F6645;}
	.st1{fill:#EEEEEE;}
	.st2{fill:#DDDDDD;}
	.st3{fill:#3D3A37;}
	.st4{fill:#C4C4C4;}
	.st5{fill:#3D3A37;}
	.st6{fill:#000000;}
	.st7{fill:#FFFFFF;}
	.st8{fill:#888888;}
	.st9{fill:#7884AF;}
</style>

    <g id="body">
	<polygon class="st4" points="394.3,533.4 381.5,529.8 381.5,517.1 302.8,496.2 276.2,501.7 276.2,508.3 265.3,510.6 215.4,495.9
		214.4,141.9 214.4,139.5 252.9,110.8 285.4,122.2 303.2,124.5 342.4,106.5 385.3,110.7 448.2,70.7 503.5,84.1 521.5,87.8
		520.5,585.9 394.2,548.7 			"/>
        <polygon class="st0" points="520.5,585.9 521.5,87.8 629.4,110.1 627.7,547.2 			"/>
</g>


    <g id="roof">
	<polygon class="st2" points="303.2,124.5 285.4,122.2 324.4,103.7 342.4,106.5 			"/>
        <polygon class="st2" points="629.4,110.1 521.5,87.8 503.5,84.1 520.5,81.2 651,109 634.7,111.2 			"/>
        <polygon class="st1" points="651,97 651,109 520.5,81.2 520.6,67 527.7,68.7 551.9,74.2 561.6,76.4 			"/>
        <polygon class="st2" points="238.7,93.5 300,102.8 285.3,111 			"/>
        <polygon class="st1" points="197.1,127.5 238.7,93.5 285.3,111 285.4,122.2 252.9,110.8 238.7,105.9 197.1,137.6 187.6,139
			187.7,129.1 			"/>
        <polygon class="st1" points="285.4,122.2 285.3,111 300,102.8 324.3,89.3 327.2,89.7 343.1,92.1 352.9,93.6 367.2,95.8
			367.2,107.9 324.4,103.7 			"/>
        <polygon class="st1" points="187.6,139 197.1,137.6 214.4,139.5 214.4,141.9 			"/>
        <polygon class="st2" points="214.4,139.5 197.1,137.6 238.7,105.9 252.9,110.8 			"/>
        <polygon class="st3" points="430.7,51.2 510,69 503.6,70.2 			"/>
        <polygon class="st1" points="367.2,95.8 430.7,51.2 503.6,70.2 510,69 520.6,67 520.5,81.2 503.5,84.1 448.2,70.7 430.7,66.5
			367.2,107.9 			"/>
        <polygon class="st2" points="448.2,70.7 385.3,110.7 367.2,107.9 430.7,66.5 			"/>
        <polygon class="st2" points="385.3,110.7 342.4,106.5 324.4,103.7 367.2,107.9 			"/>
</g>


    <g id="chimney">
	<g>
		<polygon class="st5" points="352.9,73.5 352.9,93.6 343.1,92.1 343.1,71.6 			"/>
        <polygon class="st5" points="352.9,73.5 343.1,71.6 340.9,71.2 343.6,70.7 362.8,74.3 360.2,74.8 			"/>
        <path class="st5" d="M343.1,71.6l0,20.5l-15.9-2.4l0-20.5v-0.9l7-9.4l6.7,5.3v6.9L343.1,71.6z M328.9,76.4l5.9-1.3l0-4.6l0-8.9
		l-5.9,7.8L328.9,76.4z M341,74.4l-5.8,1.3l0,11.1L341,82v-5.3L341,74.4z"/>
        <polygon class="st6" points="334.2,59 327.2,68.3 325,67.9 332.6,57.7 			"/>
        <polygon class="st6" points="351.8,58.5 362.8,67.4 343.6,63.7 332.6,54.6 			"/>
        <polygon class="st6" points="332.6,57.7 325,67.9 322.9,68.4 332.6,54.6 343.6,63.7 343.6,70.7 340.9,71.2 340.9,64.3 334.2,59
					"/>
        <polygon class="st6" points="322.9,68.4 325,67.9 327.2,68.3 327.2,69.2 			"/>
        <polygon class="st6" points="343.6,63.7 362.8,67.4 362.8,74.3 343.6,70.7 			"/>
        <polygon class="st6" points="334.8,75.1 328.9,76.4 328.9,69.5 334.8,70.6 			"/>
        <polygon class="st6" points="334.8,70.6 328.9,69.5 334.8,61.7 			"/>
        <polygon class="st6" points="335.2,75.6 341,74.4 341,76.7 			"/>
        <polygon class="st6" points="335.2,75.6 341,76.7 341,82 335.2,86.7 			"/>
	</g>
        <g>
		<polygon class="st5" points="561.8,32.9 561.6,76.4 551.9,74.2 552.1,30.1 			"/>
            <polygon class="st6" points="561.8,32.9 552.1,30.1 549.9,29.5 553.9,28.6 573,34.1 569,34.9 			"/>
            <path class="st5" d="M552.1,30.1l-0.1,44.1l-24.3-5.6l0.1-40.1l0-1.7L539,14.3l10.9,6.6l0,8.7L552.1,30.1z M530.3,36.8l8.9-1.9
				l0-4.2l0-12.5l-9,10.1L530.3,36.8z M548.7,33.7l-8.9,1.9l0,13.8l8.9-6.2l0-5.2L548.7,33.7z"/>
            <polygon class="st6" points="539,14.3 527.8,26.9 525.6,26.3 537.2,13.2 			"/>
            <polygon class="st6" points="556.4,15.1 573,25.6 553.9,20 537.2,9.3 			"/>
            <polygon class="st6" points="537.2,13.2 525.6,26.3 522.3,27.1 537.2,9.3 553.9,20 553.9,28.6 549.9,29.5 549.9,20.9 539,14.3
							"/>
            <polygon class="st6" points="522.3,27.1 525.6,26.3 527.8,26.9 527.8,28.6 			"/>
            <polygon class="st6" points="553.9,20 573,25.6 573,34.1 553.9,28.6 			"/>
            <polygon class="st6" points="539.3,34.9 530.3,36.8 530.3,28.2 539.3,30.7 			"/>
            <polygon class="st6" points="539.3,30.7 530.3,28.2 539.3,18.2 			"/>
            <polygon class="st6" points="539.9,35.5 548.7,33.7 548.7,38 			"/>
            <polygon class="st6" points="539.9,35.5 548.7,38 548.7,43.2 539.8,49.3 			"/>
	</g>
</g>


    <g id="left-window">
			<g>
				<path class="st7" d="M577.1,111.5L605,117l-0.2,46l-0.8,12.1l-2.5,11.2l-4.2,9.5l-5.5,7.3l-6.6,4.5l-7.2,1.4l-7.4-2l-7-5.2
					l-6.2-8.2l-4.8-10.6l-3.1-12.3l-1.2-13.1l0.9-12.9l2.9-11.8l4.6-9.7l6-7l7-3.9L577.1,111.5z M601.6,122.3l-24.5-4.7l0.4,42.6
					l23.9,3.3l0.1-0.9L601.6,122.3z M570.7,118.1l-6.1,3.4l-5.2,6.2l-4,8.5l-2.5,10.3l-0.8,11.3l1,11.4l2.7,10.8l4.2,9.3l5.4,7.2
					l6.1,4.6l6.4,1.8l6.3-1.1l5.8-3.9l4.9-6.3l3.7-8.3l2.2-9.8l0.3-5.3l-27.4-3.6l0.1-46.5L570.7,118.1z"/>
                <polygon class="st8" points="569.7,112 562.8,115.9 559.5,116.3 566.4,112.5 				"/>
                <polygon class="st8" points="562.8,115.9 556.7,122.9 553.5,123.3 559.5,116.3 				"/>
                <polygon class="st8" points="556.7,122.9 552.1,132.6 548.8,133.1 553.5,123.3 				"/>
                <polygon class="st8" points="552.1,132.6 549.2,144.4 545.9,144.8 548.8,133.1 				"/>
                <polygon class="st8" points="549.2,144.4 548.3,157.4 545,157.7 545.9,144.8 				"/>
                <polygon class="st8" points="548.3,157.4 549.5,170.5 546.2,170.8 545,157.7 				"/>
                <polygon class="st8" points="549.5,170.5 552.6,182.8 549.3,183.1 546.2,170.8 				"/>
                <polygon class="st8" points="552.6,182.8 557.5,193.5 554.2,193.7 549.3,183.1 				"/>
                <polygon class="st8" points="557.5,193.5 563.6,201.7 560.4,201.9 554.2,193.7 				"/>
                <polygon class="st8" points="563.6,201.7 570.7,206.9 567.4,207.1 560.4,201.9 				"/>
                <polygon class="st8" points="570.7,206.9 578,208.9 574.8,209 567.4,207.1 				"/>
			</g>
        <polygon class="st9" points="577.1,117.6 601.6,122.3 601.5,162.6 601.5,163.5 577.6,160.3 			"/>
        <polygon class="st9" points="564.7,121.5 570.7,118.1 573.9,117.9 573.8,164.4 601.2,168 600.8,173.3 598.6,183 594.9,191.4
				590.1,197.7 584.3,201.6 578,202.8 571.5,201 565.4,196.4 560,189.2 555.8,179.9 553.1,169.2 552.1,157.7 552.9,146.5
				555.4,136.2 559.4,127.7 			"/>

    </g>


    <g>
	<g>
		<g>
			<polygon class="st0" points="381.5,529.8 394.3,533.4 356.4,543.4 255.1,512.8 265.3,510.6 276.2,508.3 276.2,513.7 354.6,536.8
							"/>
            <polygon class="st4" points="394.3,533.4 394.3,548.6 356.5,559.2 356.4,543.4 			"/>
            <polygon class="st0" points="302.8,496.2 381.5,517.1 354.5,523.7 276.2,501.7 			"/>
            <polygon class="st4" points="381.5,517.1 381.5,529.8 354.6,536.8 354.5,523.7 			"/>
            <polygon class="st4" points="356.5,559.2 255.1,526.9 255.1,512.8 356.4,543.4 			"/>
            <polygon class="st4" points="354.6,536.8 276.2,513.7 276.2,508.3 276.2,501.7 354.5,523.7 			"/>
		</g>
	</g>
        <g>
		<g>
			<polygon class="st9" points="232.6,221.5 232.6,196.5 253.6,194.4 253.6,220.1 			"/>
            <g>
				<polygon class="st8" points="282.7,223.2 282.5,151.4 286.9,151.8 287,223.4 				"/>
                <path class="st7" d="M282.5,151.4l0.1,71.9l-52.1,3l-0.2-67.3l25.8-27.7L282.5,151.4z M232.6,196.5l0.1,25l21-1.3l-0.1-25.7
					L232.6,196.5z M280.4,218.4l0-26.6l-23.5,2.3l0.1,25.8L280.4,218.4z M232.5,167.3l0.1,22.8l21-2.2l-0.1-23.4L232.5,167.3z
					 M280.3,160.9l-23.5,3.1l0.1,23.5l23.5-2.5L280.3,160.9z M280.3,155l-24-18.6l-23.8,25.4L280.3,155z"/>
                <polygon class="st8" points="282.7,223.2 287,223.4 234.8,226.4 230.6,226.3 				"/>
                <polygon class="st8" points="282.5,151.4 256.3,131.2 260.5,131.8 286.9,151.8 				"/>
			</g>
            <polygon class="st9" points="280.3,191.9 280.4,218.4 256.9,219.9 256.8,194.1 			"/>
            <polygon class="st9" points="232.5,190.1 232.5,167.3 253.5,164.5 253.6,187.9 			"/>
            <polygon class="st9" points="256.8,164.1 280.3,160.9 280.3,185.1 256.8,187.5 			"/>
            <polygon class="st9" points="256.2,136.4 280.3,155 232.5,161.8 			"/>
		</g>
            <g>
			<polygon class="st7" points="318.5,429.5 323,430.3 323,419.4 360.4,425.9 360.4,489.1 318.6,479 			"/>
                <g>
				<path class="st8" d="M312.1,489.3L312,352.5l55.2,5.3l0.1,145.6L312.1,489.3z M323,430.3l-4.4-0.8l0.1,49.5l41.8,10.1l0-63.2
					l-37.4-6.4L323,430.3z M312.3,414.3l0,10.6l6.7,1.2l2.4-0.3l0-10.6l-6.7-1.1L312.3,414.3z M337.6,411.2l0-41.1l-2.6,1.8
					l-2.5,2.1l-2.3,2.4L328,379l-2,2.9l-1.8,3.2l-1.6,3.4l-1.3,3.6l-1.1,3.8l-0.9,3.9l-0.6,4.1l-0.4,4.2L337.6,411.2z M342.8,412.1
					l17.6,2.8l-0.1-4.4l-0.3-4.4l-0.6-4.4l-0.9-4.3l-1.2-4.2l-1.4-4l-1.7-3.8l-1.9-3.6l-2.1-3.3l-2.3-3l-2.5-2.7l-2.6-2.3
					L342.8,412.1z"/>
                    <polygon class="st7" points="312.3,414.3 319,415.4 319,426.1 312.3,424.9 				"/>
                    <polygon class="st8" points="319,415.4 312.3,414.3 314.7,414 321.3,415.1 				"/>
                    <polygon class="st8" points="319,426.1 319,415.4 321.3,415.1 321.4,425.8 				"/>
                    <path class="st7" d="M305.7,497.5l-0.2-158.9l69.2,5.5l0.1,171.8L305.7,497.5z M312,352.5l0.2,136.8l55.1,14.1l-0.1-145.6
					L312,352.5z"/>
                    <polygon class="st8" points="305.5,338.6 308.4,338.4 377.6,343.9 374.6,344.1 				"/>
                    <polygon class="st8" points="377.6,343.9 377.7,515.2 374.7,515.9 374.6,344.1 				"/>
			</g>
                <polygon class="st9" points="337.6,370.1 337.6,411.2 318.4,408.2 318.8,404 319.4,399.9 320.3,396 321.4,392.2 322.8,388.6
				324.3,385.1 326.1,382 328,379 330.2,376.3 332.5,373.9 335,371.9 			"/>
                <polygon class="st9" points="360.4,414.9 342.8,412.1 342.7,370.7 345.3,373 347.8,375.6 350.1,378.6 352.2,381.9 354.1,385.5
				355.8,389.3 357.2,393.3 358.4,397.5 359.3,401.7 360,406.1 360.3,410.5 			"/>
		</g>
            <g>
			<polygon class="st9" points="404.3,456.2 404.3,418.6 437.5,423.7 437.5,462.7 			"/>
                <g>
				<polygon class="st8" points="484.1,479.4 484.2,374.9 488.6,374.4 488.4,478.4 				"/>
                    <path class="st7" d="M484.2,374.9l-0.2,104.5l-82.9-16.8l0-96.1L484.2,374.9z M404.3,418.6l0,37.6l33.1,6.5l0-39L404.3,418.6z
					 M442.7,463.7l37.7,7.4l0.1-88l-37.7-4.1L442.7,463.7z M404.3,374.8l0,34.2l33.2,4.8l0-35.4L404.3,374.8z"/>
                    <polygon class="st8" points="401.2,366.5 405.5,366.1 488.6,374.4 484.2,374.9 				"/>
			</g>
                <polygon class="st9" points="480.4,471.1 442.7,463.7 442.7,379 480.5,383.1 			"/>
                <polygon class="st9" points="404.3,409 404.3,374.8 437.5,378.4 437.5,413.8 			"/>
		</g>
            <g>
			<polygon class="st9" points="229.7,422.1 229.6,391.3 251.6,394.8 251.6,426.3 			"/>
                <g>
				<polygon class="st8" points="282,438.4 281.8,354.4 286.1,354.1 286.3,437.7 				"/>
                    <path class="st7" d="M281.8,354.4l0.2,83.9l-54.3-11l-0.2-78.4L281.8,354.4z M229.6,391.3l0.1,30.7l21.9,4.3l-0.1-31.6
					L229.6,391.3z M255,427l24.5,4.8l-0.1-70.7l-24.5-2.7L255,427z M229.6,355.6l0.1,27.9l21.9,3.2l-0.1-28.7L229.6,355.6z"/>
                    <polygon class="st7" points="227.4,348.9 231.6,348.6 286.1,354.1 281.8,354.4 				"/>
			</g>
                <polygon class="st9" points="279.6,431.8 255,427 254.9,358.4 279.4,361.1 			"/>
                <polygon class="st9" points="229.6,383.5 229.6,355.6 251.5,358 251.5,386.7 			"/>
		</g>
            <g>
			<polygon class="st9" points="314.7,212.4 314.7,178.1 358.9,173.3 358.9,209.4 			"/>
                <g>
				<polygon class="st5" points="361,216 360.9,123.3 365.3,123.9 365.4,216.2 				"/>
                    <path class="st7" d="M360.9,123.3L361,216l-48.2,2.9l-0.1-87.8L360.9,123.3z M314.7,178.1l0,34.4l44.1-3l0-36.1L314.7,178.1z
					 M314.6,138.1l0,31.2l44.2-5.2l0-32.8L314.6,138.1z"/>
                    <polygon class="st5" points="361,216 365.4,216.2 317.2,219.1 312.8,218.9 				"/>
			</g>
                <polygon class="st9" points="314.7,169.3 314.6,138.1 358.8,131.2 358.9,164.1 			"/>
		</g>
            <g>
			<polygon class="st9" points="409.5,210.2 409.6,179.4 441.5,176.3 441.5,208.1 			"/>
                <g>
				<polygon class="st8" points="486.2,211.4 486.3,121.8 490.7,122.5 490.5,211.7 				"/>
                    <path class="st7" d="M486.3,121.8l-0.1,89.7l-79.7,4.6l0-82.7L445.8,98L486.3,121.8z M409.6,179.4l0,30.8l31.9-2l0-31.8
					L409.6,179.4z M482.6,205.5l0.1-33.1l-36.2,3.5l0,32L482.6,205.5z M409.6,143.6l0,28l31.9-3.3l0-28.9L409.6,143.6z M482.7,133.8
					l-36.2,4.9l0,29l36.2-3.8L482.7,133.8z M482.7,126.4l-36.9-21.9l-36.2,32.3L482.7,126.4z"/>
                    <polygon class="st5" points="486.2,211.4 490.5,211.7 410.9,216.3 406.5,216.1 				"/>
                    <polygon class="st5" points="486.3,121.8 445.8,98 450.2,98.8 490.7,122.5 				"/>
			</g>
                <polygon class="st9" points="482.7,172.3 482.6,205.5 446.4,207.8 446.5,175.8 			"/>
                <polygon class="st9" points="409.6,171.6 409.6,143.6 441.5,139.3 441.5,168.2 			"/>
                <polygon class="st9" points="446.5,138.6 482.7,133.8 482.7,163.9 446.5,167.7 			"/>
                <polygon class="st9" points="445.8,104.5 482.7,126.4 409.6,136.8 			"/>
		</g>
            <g>
			<g>
				<path class="st7" d="M577.2,472.9l-29.7,7.4l0.1-48.8l0.9-13.1l2.9-12.6l4.6-11.2l6-8.9l6.9-6.1l7.3-2.9l7.2,0.4l6.7,3.6
					l5.7,6.5l4.3,8.9l2.7,10.7l1,11.8l-0.8,12.2l-2.5,11.9l-4.1,10.8l-5.5,9l-6.6,6.6L577.2,472.9z M551.3,473.2l25.9-6.3l-0.4-42
					l-25.3,4.8l-0.1,1L551.3,473.2z M583.5,463.7l5.7-5.7l4.8-7.9l3.6-9.4l2.2-10.4l0.7-10.7l-0.9-10.4l-2.4-9.4l-3.8-7.8l-5-5.7
					l-5.8-3.1l-6.3-0.3l-6.4,2.6l-6,5.4l-5.2,7.8l-4,9.7l-2.5,11l-0.4,5.7l28.7-5.3l-0.1,45.6L583.5,463.7z"/>
                <polygon class="st8" points="547.6,431.6 547.5,480.4 544.2,479.7 544.4,431.1 				"/>
                <polygon class="st8" points="548.5,418.5 547.6,431.6 544.4,431.1 545.3,418 				"/>
                <polygon class="st8" points="583.5,377.2 576.3,376.8 573.1,376.5 580.3,376.9 				"/>
                <polygon class="st8" points="576.3,376.8 568.9,379.7 565.7,379.4 573.1,376.5 				"/>
                <polygon class="st8" points="568.9,379.7 562,385.8 558.8,385.5 565.7,379.4 				"/>
                <polygon class="st8" points="562,385.8 556,394.7 552.8,394.4 558.8,385.5 				"/>
                <polygon class="st8" points="556,394.7 551.4,405.9 548.1,405.5 552.8,394.4 				"/>
                <polygon class="st8" points="551.4,405.9 548.5,418.5 545.3,418 548.1,405.5 				"/>
			</g>
                <polygon class="st9" points="577.2,466.9 551.3,473.2 551.4,430.7 551.5,429.8 576.8,424.9 			"/>
                <polygon class="st9" points="589.2,458 583.5,463.7 580.3,465.3 580.5,419.7 551.8,425 552.2,419.3 554.7,408.3 558.7,398.6
				563.9,390.8 569.9,385.4 576.4,382.9 582.7,383.2 588.5,386.3 593.5,391.9 597.3,399.7 599.8,409.1 600.6,419.5 600,430.3
				597.7,440.7 594.1,450.1 			"/>
		</g>
	</g>
</g>
</svg>
