<?xml version="1.0" encoding="utf-8"?>
<!-- Generator: Adobe Illustrator 25.0.1, SVG Export Plug-In . SVG Version: 6.00 Build 0)  -->
<svg version="1.1" id="katman_1" xmlns="http://www.w3.org/2000/svg" x="0px" y="0px"
     viewBox="0 0 841.9 595.3" style="enable-background:new 0 0 841.9 595.3;" xml:space="preserve">
<style type="text/css">
	.st0{fill:#8F6645;}
	.st1{fill:#EEEEEE;}
	.st2{fill:#DDDDDD;}
	.st3{fill:#3D3A37;}
	.st4{fill:#C4C4C4;}
	.st5{fill:#3D3A37;}
	.st6{fill:#000000;}
	.st7{fill:#FFFFFF;}
	.st8{fill:#888888;}
	.st9{fill:#7884AF;}
</style>

    <g id="body">
	<polygon class="st0" points="245.2,547.1 240.7,127.7 343.2,106.9 345.9,587.3 			"/>
        <polygon class="st0" points="503.1,125.1 541.6,141.9 540,519.5 476.6,538.2 477,128.1 			"/>
        <polygon class="st0" points="541.6,141.9 550.3,140.8 557.5,139.9 555.6,523.4 540,519.5 			"/>
        <polygon class="st4" points="641.3,497.3 555.6,523.4 557.5,139.9 564.2,139 604.9,124.4 644.5,153.3 644.5,155.5 			"/>
        <polygon class="st4" points="346.2,587.5 343.5,107.1 350.2,105.8 415.3,89.2 477.3,127.8 477.3,128.4 476.9,538.4 476.9,547.8"/>
</g>


    <g id="roof">
	<polygon class="st2" points="343.2,106.9 240.7,127.7 228.1,130.3 212.4,128.4 333.2,102.9 349.9,105.5 			"/>
        <polygon class="st1" points="349.9,105.5 333.2,102.9 333.1,89.2 343.7,91 349.8,92 421.4,72.4 483.8,114.7 483.8,126.5
			421.4,87.3 415,88.9 			"/>
        <polygon class="st1" points="483.8,126.5 483.8,114.7 512,110.1 527,117.9 536.7,123 541.2,125.3 550.4,130.1 550.3,140.8
			511.9,123.8 477,127.8 			"/>
        <polygon class="st3" points="421.4,72.4 349.8,92 343.7,91 346.6,90.2 346.6,89.2 			"/>
        <polygon class="st1" points="333.1,89.2 333.2,102.9 212.4,128.4 212.2,116.8 313.4,93.7 322.8,91.6 			"/>
        <polygon class="st2" points="421.4,87.3 483.8,126.5 477,127.5 415,88.9 			"/>
        <polygon class="st2" points="511.9,123.8 550.3,140.8 541.6,141.9 503.1,125.1 			"/>
        <polygon class="st2" points="550.3,140.8 550.4,130.1 564.3,128.2 564.2,139 557.5,139.9 			"/>
        <polygon class="st2" points="644.5,153.3 604.9,124.4 610.2,122.5 651,152.6 			"/>
        <polygon class="st3" points="552.2,119.2 610.3,110.6 564.3,128.2 550.4,130.1 541.2,125.3 552.2,121.3 			"/>
        <polygon class="st1" points="610.3,110.6 651.1,142.9 660.4,144.3 660.4,153.9 651,152.6 610.2,122.5 604.9,124.4 564.2,139
			564.3,128.2 			"/>
        <polygon class="st3" points="660.4,153.9 644.5,155.5 644.5,153.3 651,152.6 			"/>
</g>


    <g id="chimney">
	<polygon class="st0" points="511.9,123.8 503.1,125.1 477,128.1 		"/>
        <polygon class="st3" points="483.8,114.7 512,110.1 483.8,114.7 		"/>
        <g>
		<polygon class="st5" points="527.1,86.2 536.8,84.4 536.7,123 527,117.9 			"/>
            <polygon class="st5" points="536.8,84.4 527.1,86.2 524.9,86.6 522.4,86.1 541.9,82.4 544.5,83 			"/>
            <path class="st5" d="M536.7,123l0.2-38.6l7.6-1.4l0-7l0.5,7.2l0,4.6l5.7,1.2l0-6.9l-5.1-7l1.6-1.3l5.2,7.1l0,0.9l-0.2,37.4l0,2
			l-11,4.1L536.7,123z M544.6,88.3l-5.7-1.2l0,2.2l0,5.4l5.6,4.6L544.6,88.3z"/>
            <polygon class="st6" points="552.4,81 547.2,73.8 552.6,69.4 560,79.6 			"/>
            <polygon class="st5" points="550.7,89 545,87.8 545,83.2 550.7,82.1 			"/>
            <polygon class="st5" points="550.7,82.1 545,83.2 545,75.6 			"/>
            <polygon class="st5" points="552.6,66.3 562.1,80 560,79.6 552.6,69.4 547.2,73.8 545.6,75.1 544.5,76 544.5,83 541.9,82.4
			541.9,75.5 			"/>
            <polygon class="st6" points="552.6,66.3 541.9,75.5 522.4,79.2 533.1,70.2 			"/>
            <polygon class="st5" points="560,79.6 562.1,80 552.4,81.8 552.4,81 			"/>
            <polygon class="st6" points="522.4,79.2 541.9,75.5 541.9,82.4 522.4,86.1 			"/>
            <polygon class="st66" points="544.6,88.3 538.9,89.3 538.9,87.1 			"/>
            <polygon class="st6" points="538.9,89.3 544.6,88.3 544.6,99.4 538.9,94.7 			"/>
	</g>
        <g>
		<polygon class="st6" points="313.4,93.7 313,50 322.5,47.3 322.8,91.6 			"/>
            <polygon class="st6" points="322.5,47.3 313,50 311,50.6 307,49.8 325.9,44.4 329.9,45.2 			"/>
            <path class="st5" d="M322.8,91.6l-0.3-44.2l7.4-2.1l0-8.6l6.4-4l10.1,11.3l0,1.6l0.2,43.7l0,1l-2.9,0.8l-10.6-1.8L322.8,91.6z
			 M334.5,52.6l-8.7-1.8l0,4.2l0,5.2l8.8,6L334.5,52.6z M335.1,52l8.8,1.8l0-8.5l-8.8-9.9l0.1,12.3L335.1,52z"/>
            <polygon class="st5" points="346.3,43.9 336.2,32.6 342.3,28.8 353.8,41.8 			"/>
            <polygon class="st6" points="342.3,25 357,42.5 353.8,41.8 342.3,28.8 336.2,32.6 329.8,36.6 329.9,45.2 325.9,44.4 325.8,35.7
						"/>
            <polygon class="st6" points="342.3,25 325.8,35.7 307,41.4 323.3,30.8 			"/>
            <polygon class="st6" points="353.8,41.8 357,42.5 346.3,45.5 346.3,43.9 			"/>
            <polygon class="st6" points="307,41.4 325.8,35.7 325.9,44.4 307,49.8 			"/>
            <polygon class="st6" points="334.5,52.6 325.8,55 325.7,50.8 			"/>
            <polygon class="st6" points="325.8,55 334.5,52.6 334.6,66.3 325.8,60.2 			"/>
            <polygon class="st6" points="343.8,45.3 335,47.7 335,35.4 			"/>
            <polygon class="st6" points="335,47.7 343.8,45.3 343.9,53.8 335.1,52 			"/>
	</g>
</g>


    <g id="left-window">
		<g>
			<path class="st7" d="M290.8,137.2l27.7-5.4l0.3,47.2l-0.7,12.6l-2.6,11.9l-4.2,10.4l-5.5,8.2l-6.4,5.4l-6.8,2.3l-6.7-0.9
				l-6.2-3.9l-5.3-6.6l-4.1-8.8l-2.7-10.4l-1.1-11.4l0.6-11.7l2.2-11.3l3.7-10.1l5-8.3l6-6L290.8,137.2z M315,138.6l-24.1,4.5
				l0.8,40.5l23.5-3l0.1-0.9L315,138.6z M285.1,145.7l-5.3,5.2l-4.4,7.3l-3.3,8.9l-1.9,9.9l-0.5,10.3l1,10l2.3,9.2l3.6,7.7l4.7,5.7
				l5.4,3.4l5.9,0.7l5.9-2l5.5-4.7l4.8-7.1l3.6-9.1l2.2-10.4l0.3-5.4l-26.6,3.3l-0.4-44L285.1,145.7z"/>
            <polygon class="st8" points="318.8,179 318.5,131.8 321.7,132.3 322,179.3 			"/>
            <polygon class="st8" points="318.1,191.6 318.8,179 322,179.3 321.3,191.8 			"/>
            <polygon class="st8" points="292.8,229.7 299.5,227.4 302.7,227.6 295.9,229.9 			"/>
            <polygon class="st8" points="299.5,227.4 305.9,222.1 309,222.2 302.7,227.6 			"/>
            <polygon class="st8" points="305.9,222.1 311.4,213.9 314.5,214.1 309,222.2 			"/>
            <polygon class="st8" points="311.4,213.9 315.6,203.5 318.7,203.7 314.5,214.1 			"/>
            <polygon class="st8" points="315.6,203.5 318.1,191.6 321.3,191.8 318.7,203.7 			"/>
		</g>
        <polygon class="st9" points="290.9,143 315,138.6 315.3,179.6 315.3,180.5 291.8,183.5 		"/>
        <polygon class="st9" points="279.8,150.9 285.1,145.7 288,144.4 288.4,188.3 315,185.1 314.7,190.5 312.5,200.9 308.9,210
			304.1,217.2 298.6,221.9 292.6,223.9 286.8,223.2 281.3,219.9 276.6,214.1 273,206.4 270.7,197.3 269.7,187.3 270.2,177
			272.2,167.1 275.4,158.2 		"/>

    </g>


    <g>
        <g>
		<g>
			<path class="st7" d="M581.1,248l0.5-83l50.5,7.1l-0.7,77.7L581.1,248z M583.2,202.7l22.6,2.1l0.2-32.3l-22.6-3L583.2,202.7z
				 M630.1,214.8l-21.3-1.8l-0.2,31.8l21.3,0.9L630.1,214.8z M630.2,207.1l0.3-31.3l-21.4-2.9l-0.2,32.2L630.2,207.1z M583.1,210.9
				l-0.2,32.9l22.6,0.9l0.2-32L583.1,210.9z"/>
            <polygon class="st8" points="581.6,164.9 581.1,248 576.8,248.1 577.3,165.4 			"/>
            <polygon class="st8" points="581.1,248 631.4,249.8 627.2,249.9 576.8,248.1 			"/>
		</g>
            <polygon class="st9" points="605.8,204.8 583.2,202.7 583.4,169.5 606,172.5 		"/>
            <polygon class="st9" points="608.7,213 630.1,214.8 629.8,245.7 608.5,244.9 		"/>
            <polygon class="st9" points="630.4,175.8 630.2,207.1 608.8,205.1 609,172.9 		"/>
            <polygon class="st9" points="582.9,243.8 583.1,210.9 605.7,212.8 605.5,244.8 		"/>
	</g>
        <g>
		<polygon class="st8" points="511.4,394.9 514.1,394.8 519.4,395.8 524.5,397.9 529.3,401 533.9,405.2 536.3,408.3 535.9,514.3
			511,521.4 511.2,470.8 514.9,469.9 515,457.9 511.2,458.7 		"/>
            <polygon class="st8" points="502.8,523.7 478.8,530.6 478.9,417.4 481.7,413.3 486.8,407.4 492.1,402.5 497.6,398.9 503.1,396.3
			502.9,460.5 499.4,461.2 499.4,473.4 502.9,472.6 		"/>
            <g>
			<polygon class="st8" points="473.5,541.4 471.5,540.8 471.6,413.1 473.6,413.4 			"/>
                <path class="st7" d="M540.4,521.6l-66.9,19.8l0.1-127.9l5.3-7.6l5.6-6.5l5.9-5.3l6-4l6.1-2.7l6.1-1.4l6-0.1l5.8,1.1l5.6,2.4
				l5.3,3.5l5,4.6l4.5,5.7L540.4,521.6z M514.1,394.8l-2.7,0.1l-0.2,63.8l3.8-0.8l0,12l-3.8,0.9l-0.1,50.6l24.9-7.1l0.4-106
				l-2.5-3.1l-4.5-4.2l-4.8-3.2l-5.1-2.1L514.1,394.8z M478.8,530.6l24-6.9l0.1-51.1l-3.5,0.8l0-12.2l3.5-0.7l0.1-64.2l-5.5,2.5
				l-5.5,3.7l-5.3,4.8l-5.1,5.9l-2.8,4.1L478.8,530.6z M501.5,464l0,6.7l1.8,0.4l3.7-0.8l0-6.7l-1.8-0.4L501.5,464z M513.1,461.1
				l-3.9,0.8l0,7.2l1.8,0.4l3.9-0.9l0-7.1L513.1,461.1z"/>
                <polygon class="st7" points="484.5,399.3 478.9,405.8 476.9,405.5 482.5,399.1 			"/>
                <polygon class="st7" points="514.7,385.8 508.6,385.9 506.6,385.7 512.6,385.6 			"/>
                <polygon class="st7" points="478.9,405.8 473.6,413.4 471.6,413.1 476.9,405.5 			"/>
                <polygon class="st7" points="508.6,385.9 502.5,387.3 500.5,387.1 506.6,385.7 			"/>
                <polygon class="st7" points="490.4,394.1 484.5,399.3 482.5,399.1 488.4,393.8 			"/>
                <polygon class="st7" points="496.4,390.1 490.4,394.1 488.4,393.8 494.4,389.8 			"/>
                <polygon class="st7" points="502.5,387.3 496.4,390.1 494.4,389.8 500.5,387.1 			"/>
                <polygon class="st7" points="501.5,470.7 501.5,464 503.2,464.3 503.2,471 			"/>
                <polygon class="st7" points="501.5,464 505.1,463.2 506.9,463.5 503.2,464.3 			"/>
                <polygon class="st7" points="503.2,471 503.2,464.3 506.9,463.5 506.9,470.2 			"/>
                <polygon class="st7" points="509.2,462 513.1,461.1 514.9,461.5 511,462.3 			"/>
                <polygon class="st7" points="509.2,469.2 509.2,462 511,462.3 511,469.5 			"/>
                <polygon class="st7" points="514.9,461.5 514.8,468.7 511,469.5 511,462.3 			"/>
		</g>
	</g>
        <g>
		<g>
			<path class="st7" d="M579.7,472.7l0.5-81.1l50.1-7.3l-0.7,76.1L579.7,472.7z M581.8,427.9l22.4-4.3l0.2-31.6l-22.4,3.4
				L581.8,427.9z M628.3,426.5l-21.2,4.3l-0.2,31.1l21.1-5.1L628.3,426.5z M628.3,419l0.3-30.6l-21.2,3.2l-0.2,31.5L628.3,419z
				 M581.7,436l-0.2,32.2l22.4-5.4l0.2-31.2L581.7,436z"/>
            <polygon class="st8" points="580.2,391.6 579.7,472.7 575.4,471.9 575.9,391.1 			"/>
            <polygon class="st8" points="630.3,384.2 580.2,391.6 575.9,391.1 626.1,383.8 			"/>
		</g>
            <polygon class="st9" points="604.2,423.6 581.8,427.9 582,395.4 604.4,392 		"/>
            <polygon class="st9" points="607.1,430.8 628.3,426.5 628,456.8 606.9,462 		"/>
            <polygon class="st9" points="628.6,388.4 628.3,419 607.2,423.1 607.4,391.6 		"/>
            <polygon class="st9" points="581.5,468.1 581.7,436 604.1,431.4 603.9,462.7 		"/>
	</g>

        <g>
		<polygon class="st9" points="484.3,168 507.5,170.9 507.3,235.1 484.3,234 		"/>
            <g>
			<polygon class="st8" points="479.8,236.8 537.1,239.3 533.1,239.5 475.8,237 			"/>
                <path class="st7" d="M537.1,239.3l-57.3-2.5l0.1-72.3l57.5,7.2L537.1,239.3z M507.5,170.9l-23.2-2.8l-0.1,66l23.1,1.1
				L507.5,170.9z M532.9,173.9l-19.7-2.4l-0.2,63.8l19.7,0.9L532.9,173.9z"/>
                <polygon class="st8" points="479.8,236.8 475.8,237 475.8,165 479.9,164.5 			"/>
		</g>
            <polygon class="st9" points="513.2,171.6 532.9,173.9 532.7,236.3 513,235.4 		"/>
	</g>
        <g>
		<g>
			<path class="st7" d="M294.9,479l-25.4-7.2l-0.4-42.6l0.6-11.2l2.2-10.2l3.7-8.6l5-6.4l6-3.7l6.6-0.8l6.8,2.4l6.5,5.4l5.7,8.1
				l4.5,10.3l3,11.7l1.2,12.3l-0.7,12l-2.5,10.7l-4.1,8.7l-5.4,6l-6.3,3L294.9,479z M272.4,467.2l22.4,6.1l-0.8-39.6l-21.8-4.8
				l0,0.8L272.4,467.2z M300.6,473.4l5.5-2.7l4.7-5.3l3.6-7.6l2.2-9.3l0.6-10.4l-1-10.7l-2.6-10.2l-3.9-9l-5-7.1l-5.7-4.7l-5.9-2.1
				l-5.8,0.6l-5.2,3.2l-4.4,5.6l-3.2,7.5l-1.9,9l-0.3,4.9l25,5.4l0.4,43.1L300.6,473.4z"/>
            <polygon class="st8" points="301.6,479.1 307.9,476.1 311,475.5 304.7,478.5 			"/>
            <polygon class="st8" points="307.9,476.1 313.3,470 316.4,469.4 311,475.5 			"/>
            <polygon class="st8" points="313.3,470 317.5,461.3 320.6,460.8 316.4,469.4 			"/>
            <polygon class="st8" points="317.5,461.3 320,450.6 323.1,450.1 320.6,460.8 			"/>
            <polygon class="st8" points="320,450.6 320.7,438.6 323.8,438.2 323.1,450.1 			"/>
            <polygon class="st8" points="320.7,438.6 319.5,426.3 322.6,425.9 323.8,438.2 			"/>
            <polygon class="st8" points="319.5,426.3 316.5,414.6 319.6,414.2 322.6,425.9 			"/>
            <polygon class="st8" points="316.5,414.6 312,404.3 315.1,403.9 319.6,414.2 			"/>
            <polygon class="st8" points="312,404.3 306.2,396.2 309.4,395.8 315.1,403.9 			"/>
            <polygon class="st8" points="306.2,396.2 299.8,390.8 302.9,390.5 309.4,395.8 			"/>
            <polygon class="st8" points="299.8,390.8 293,388.4 296.1,388.1 302.9,390.5 			"/>
		</g>
            <polygon class="st9" points="294.8,473.4 272.4,467.2 272.1,429.8 272.1,429 293.9,433.8 		"/>
            <polygon class="st9" points="306.1,470.7 300.6,473.4 297.7,473.4 297.3,430.2 272.3,424.9 272.6,420 274.5,411 277.7,403.5
			282.1,398 287.3,394.7 293.1,394.1 299,396.2 304.7,401 309.7,408.1 313.6,417.1 316.2,427.3 317.2,438 316.6,448.4 314.4,457.8
			310.8,465.4 		"/>
	</g>
        <g>
		<g>
			<path class="st7" d="M376.4,243.5l-0.4-104l77.9,10.9v95.8L376.4,243.5z M379.1,187l35.1,3.2l-0.1-40.2l-35.2-4.7L379.1,187z
				 M451.5,203.2l-32.6-2.7l0.1,39.5l32.5,1.3V203.2z M451.5,193.6l0-38.6l-32.7-4.4l0.1,40L451.5,193.6z M379.2,197.2l0.2,41.1
				l35,1.4l-0.1-39.7L379.2,197.2z"/>
            <polygon class="st8" points="376,139.6 376.4,243.5 372.1,243.7 371.7,140.3 			"/>
            <polygon class="st8" points="376.4,243.5 453.9,246.3 449.6,246.4 372.1,243.7 			"/>
		</g>
            <polygon class="st9" points="414.2,190.2 379.1,187 379,145.3 414.1,150 		"/>
            <polygon class="st9" points="418.9,200.5 451.5,203.2 451.5,241.3 418.9,240 		"/>
            <polygon class="st9" points="451.4,155.1 451.5,193.6 418.8,190.6 418.8,150.7 		"/>
            <polygon class="st9" points="379.3,238.4 379.2,197.2 414.2,200.1 414.3,239.8 		"/>
	</g>
        <g>
		<g>
			<path class="st7" d="M377.5,523.8l-0.4-101l76.8-11.2v93.3L377.5,523.8z M380.2,468l34.6-6.7l-0.1-39.1l-34.6,5.2L380.2,468z
				 M451.5,463.5l-32.2,6.5l0.1,38.4l32.1-7.8L451.5,463.5z M451.5,454.3v-37.6l-32.2,4.9l0.1,38.9L451.5,454.3z M380.2,478l0.1,40
				l34.5-8.4l-0.1-38.6L380.2,478z"/>
            <polygon class="st8" points="377.2,422.8 377.5,523.8 373.3,522.5 372.9,422 			"/>
            <polygon class="st8" points="453.9,411.5 377.2,422.8 372.9,422 449.6,410.9 			"/>
		</g>
            <polygon class="st9" points="414.8,461.3 380.2,468 380.1,427.5 414.7,422.2 		"/>
            <polygon class="st9" points="419.3,470 451.5,463.5 451.5,500.6 419.4,508.4 		"/>
            <polygon class="st9" points="451.5,416.7 451.5,454.3 419.3,460.4 419.2,421.6 		"/>
            <polygon class="st9" points="380.4,517.9 380.2,478 414.8,471 414.9,509.5 		"/>
	</g>
</g>
</svg>
