<?xml version="1.0" encoding="utf-8"?>
<!-- Generator: Adobe Illustrator 25.0.1, SVG Export Plug-In . SVG Version: 6.00 Build 0)  -->
<svg version="1.1" id="katman_1" xmlns="http://www.w3.org/2000/svg" x="0px" y="0px"
     viewBox="0 0 841.9 595.3" style="enable-background:new 0 0 841.9 595.3;" xml:space="preserve">
<style type="text/css">
	.st0{fill:#8F6645;}
	.st1{fill:#EEEEEE;}
	.st2{fill:#DDDDDD;}
	.st3{fill:#3D3A37;}
	.st4{fill:#C4C4C4;}
	.st5{fill:#3D3A37;}
	.st6{fill:#000000;}
	.st7{fill:#FFFFFF;}
	.st8{fill:#888888;}
	.st9{fill:#7884AF;}
</style>

    <g id="body">
	<polygon class="st4" points="318.4,516.6 236.7,494.1 234.5,153.3 234.5,150.9 272.2,121.3 310,134.4 316.9,135.4 		"/>
        <polygon class="st0" points="625.2,121.2 623.2,537 515.7,570.7 516.5,97.8 		"/>
        <polygon class="st0" points="334.5,513.2 318.4,516.6 316.9,135.4 324.2,136.4 333.1,137.7 		"/>
        <polygon class="st0" points="334.5,513.2 333.1,137.7 369.4,120.2 392.4,122.4 393.1,528.8 		"/>
        <polygon class="st4" points="515,570.3 392.4,536.6 392.4,528.3 391.6,121.9 391.6,121.3 449.5,81.4 508.7,95.8 515.8,97.3 	"/>
</g>

    <g id="roof">
	<polygon class="st2" points="332.4,137 323.5,135.7 359.6,118 368.6,119.5 		"/>
        <polygon class="st1" points="316.1,134.7 309.2,133.7 309.2,123.2 323.4,125.3 323.5,135.7 		"/>
        <polygon class="st2" points="359.6,118 323.5,135.7 323.4,125.3 336,118 359.6,104.5 384.6,108.1 384.6,119.3 391.6,120.4 		"/>
        <polygon class="st2" points="359.6,118 391.6,121 391.6,121.7 368.6,119.5 		"/>
        <polygon class="st1" points="309.2,123.2 309.2,133.7 271.5,120.6 265.9,118.6 227.1,149.4 219.3,150.9 219.2,141.5 227,139.9
		265.8,106.8 		"/>
        <polygon class="st1" points="233.8,152.6 219.3,150.9 227.1,149.4 233.8,150.2 		"/>
        <polygon class="st1" points="271.5,120.6 233.8,150.2 227.1,149.4 265.9,118.6 		"/>
        <polygon class="st1" points="384.6,107.6 442.6,64.9 508.6,82.2 512.9,81.3 526.1,78.4 526.2,91.9 508.7,95.6 449.5,81.1
		442.6,79.5 384.6,119.3 384.6,108.1 		"/>
        <polygon class="st1" points="526.2,91.9 526.1,78.4 641.3,106 641.4,117.7 		"/>
        <polygon class="st3" points="508.6,82.2 442.6,64.9 461.1,69.2 481.1,73.9 491.2,76.3 512.9,81.3 		"/>
        <polygon class="st1" points="624.4,120.5 515.8,97.1 508.7,95.6 526.2,91.9 641.4,117.7 		"/>
        <polygon class="st1" points="449.5,81.1 391.6,120.4 384.6,119.3 442.6,79.5 		"/>
        <polygon class="st3" points="323.4,125.3 309.2,123.2 265.8,106.8 294.3,111.4 307.8,113.5 317.6,115.1 336,118 		"/>
</g>

    <g id="chimney">
	<g>
		<polygon class="st5" points="481.1,38.3 491.3,41 491.2,76.3 481.1,73.9 		"/>
        <polygon class="st5" points="491.3,41 481.1,38.3 473.2,36.1 476.1,35.4 496.4,40.9 493.5,41.6 		"/>
        <path class="st5" d="M481.1,38.3l0,35.6l-20-4.6l0-16.5v-1.6v-7.8l8.4-10l3.7,2.8L481.1,38.3z M471,51.3l-7.2,1.8v8.6l7.2,2.3
		l0-9.2V51.3z M471.5,50.5l7.5-1.8l0-8.1l-7.5-5.6V50.5z"/>
        <polygon class="st6" points="461.1,43.3 461.1,51.1 453.2,49.2 453.2,41.3 		"/>
        <polygon class="st5" points="469.5,33.3 461.1,43.3 453.2,41.3 463.5,28.9 		"/>
        <polygon class="st6" points="450.1,42.1 463.5,25.3 476.1,35.4 473.2,36.1 469.5,33.3 463.5,28.9 453.2,41.3 453.2,49.2
		450.1,49.9 		"/>
        <polygon class="st6" points="476.1,35.4 463.5,25.3 483.8,30.9 496.4,40.9 		"/>
        <polygon class="st6" points="450.1,49.9 453.2,49.2 461.1,51.1 461.1,52.7 		"/>
        <path class="st6" d="M463.8,61.7l7.2,1.7L463.8,61.7z"/>
        <polygon class="st6" points="470.9,63.4 463.8,61.7 463.8,53.1 471,54.9 		"/>
        <polygon class="st6" points="471,54.9 463.8,53.1 471,51.3 		"/>
        <polygon class="st6" points="478.9,48.7 471.5,50.5 471.5,35 478.9,40.6 		"/>
	</g>
        <polygon class="st5" points="296,108 300.9,108.8 300.9,110.2 	"/>
        <g>
		<polygon class="st5" points="317.5,91.4 317.6,115.1 307.8,113.5 307.7,89.6 		"/>
            <polygon class="st5" points="317.5,91.4 307.7,89.6 303.5,88.9 301.1,88.4 300,88.2 302,87.8 321.6,91.3 319.7,91.8 		"/>
            <path class="st5" d="M307.7,89.6l0.1,23.9l-13.5-2.2l-0.1-11.2l0-0.9l0-6.4l4.4-6.1l1.5,1.4l1.1,0.2l0.1,10.8l5-1.2l0-6.6
			l-2.7-2.6L307.7,89.6z M300.9,99.8L296,101l0,7.1l4.9,2.2l0-1.4l0-7L300.9,99.8z"/>
            <polygon class="st6" points="294.2,92.9 294.2,99.3 286.6,98 286.6,91.6 		"/>
            <polygon class="st6" points="298.6,86.8 294.2,92.9 286.6,91.6 293.5,81.9 		"/>
            <polygon class="st6" points="306.2,98 301.2,99.2 301.1,88.4 303.5,88.9 306.2,91.4 		"/>
            <polygon class="st6" points="284.4,92.1 293.4,79 302,87.8 300,88.2 298.6,86.8 293.5,81.9 286.6,91.6 286.6,98 284.5,98.5 		"/>
            <polygon class="st6" points="302,87.8 293.4,79 313,82.7 321.6,91.3 		"/>
            <polygon class="st6" points="284.5,98.5 286.6,98 294.2,99.3 294.2,100.2 		"/>
            <polygon class="st6" points="300.9,108.8 296,108 296,101 300.9,101.8 		"/>
            <polygon class="st6" points="300.9,101.8 296,101 300.9,99.8 		"/>
	</g>
</g>


    <g id="right-window">
		<g>
			<polygon class="st8" points="539,149.6 541.9,138.4 544.9,138 542,149.2 			"/>
            <polygon class="st8" points="539,149.6 542,149.2 541.1,161.5 538.1,161.9 			"/>
            <path class="st7" d="M542,149.2l2.9-11.2l4.7-9.2l6.1-6.6l7-3.5l7.4-0.3l7.3,2.8l6.7,5.7l5.7,8.2l4.4,10l2.8,11.3l1,11.8
				l-0.8,11.5l-2.6,10.6l-4.2,9l-5.6,6.8l-6.6,4.1l-7.3,1.1l-7.4-2l-7.1-5.1l-6.2-8l-4.9-10.3l-3.1-11.8l-1.2-12.6L542,149.2z
				 M593.6,157.5l-2.4-9.8l-3.8-8.7l-5-7.1l-5.9-4.9l-6.4-2.4l12.9,76.3l4.9-5.9l3.7-7.8l2.2-9.2l0.7-10.1L593.6,157.5z M546,172.9
				l2.7,10.3l4.2,8.9l5.4,6.9l6.1,4.5l6.4,1.8l6.3-0.9l-6.7-39.4L546,172.9z M552.3,133.6l-4,8l-2.5,9.7L545,162l0.2,2.6l23.9-7.5
				l-5.5-32.3l-6.1,3.1L552.3,133.6z"/>
            <polygon class="st8" points="544.9,138 541.9,138.4 546.5,129.3 549.5,128.8 			"/>
            <polygon class="st8" points="542.4,186.2 539.3,174.4 542.2,174.1 545.4,185.9 			"/>
            <polygon class="st8" points="542.4,186.2 545.4,185.9 550.3,196.2 547.3,196.5 			"/>
            <polygon class="st8" points="542.2,174.1 539.3,174.4 538.1,161.9 541.1,161.5 			"/>
            <polygon class="st8" points="547.3,196.5 550.3,196.2 556.5,204.2 553.5,204.4 			"/>
            <polygon class="st8" points="570.9,211.4 568,211.6 560.6,209.5 563.5,209.3 			"/>
            <polygon class="st8" points="546.5,129.3 552.6,122.7 555.6,122.2 549.5,128.8 			"/>
            <polygon class="st8" points="552.6,122.7 559.6,119.2 562.6,118.7 555.6,122.2 			"/>
            <polygon class="st8" points="553.5,204.4 556.5,204.2 563.5,209.3 560.6,209.5 			"/>
		</g>
        <polygon class="st9" points="591.1,147.7 593.6,157.5 594.4,167.7 593.7,177.8 591.5,187.1 587.8,194.9 583,200.8 570.1,124.5
			576.4,126.9 582.3,131.8 587.3,138.9 		"/>
        <polygon class="st9" points="548.8,183.1 546,172.9 570.5,164.9 577.2,204.4 570.9,205.3 564.4,203.5 558.3,199 553,192 		"/>
        <polygon class="st9" points="548.3,141.6 552.3,133.6 557.6,127.9 563.6,124.8 569.1,157.1 545.3,164.6 545,162 545.8,151.3 		"/>
    </g>


    <g>
        <g>
		<g>
			<polygon class="st8" points="538.3,414.5 541.2,402.6 544.2,402.9 541.3,414.8 			"/>
            <polygon class="st8" points="538.3,414.5 541.3,414.8 540.4,427.3 537.4,426.9 			"/>
            <path class="st7" d="M541.3,414.8l2.9-11.9l4.6-10.5l6-8.3l7-5.6l7.4-2.6l7.3,0.5l6.7,3.6l5.7,6.3l4.3,8.5l2.7,10.2l1,11.3
				l-0.8,11.6l-2.5,11.2l-4.2,10.1l-5.5,8.4l-6.6,6.1l-7.2,3.3l-7.4,0.3l-7-2.9l-6.2-5.9l-4.8-8.6l-3.1-10.7l-1.2-12L541.3,414.8z
				 M592.6,407.1l-2.4-8.9l-3.8-7.4l-5-5.4l-5.8-3.1l-6.3-0.4L582,453l4.8-7.3l3.6-8.8l2.2-9.8l0.7-10.1L592.6,407.1z M545.3,436.9
				l2.7,9.3l4.2,7.5l5.3,5.2l6.1,2.6l6.4-0.2l6.3-2.9l-6.7-36.7L545.3,436.9z M551.6,396.3l-4,9.1l-2.5,10.3l-0.8,10.7l0.2,2.5
				l23.7-14.7l-5.5-30.1l-6,4.9L551.6,396.3z"/>
            <polygon class="st8" points="544.2,402.9 541.2,402.6 545.8,392.2 548.8,392.4 			"/>
            <polygon class="st8" points="573.5,376.2 576.4,376.4 569.1,375.9 566.2,375.6 			"/>
            <polygon class="st8" points="541.7,449.5 538.6,438.8 541.6,439.3 544.7,450 			"/>
            <polygon class="st8" points="541.7,449.5 544.7,450 549.5,458.6 546.6,458.1 			"/>
            <polygon class="st8" points="541.6,439.3 538.6,438.8 537.4,426.9 540.4,427.3 			"/>
            <polygon class="st8" points="546.6,458.1 549.5,458.6 555.7,464.5 552.7,464 			"/>
            <polygon class="st8" points="566.2,375.6 569.1,375.9 561.8,378.5 558.8,378.2 			"/>
            <polygon class="st8" points="545.8,392.2 551.9,383.8 554.8,384.1 548.8,392.4 			"/>
            <polygon class="st8" points="551.9,383.8 558.8,378.2 561.8,378.5 554.8,384.1 			"/>
            <polygon class="st8" points="552.7,464 555.7,464.5 562.7,467.4 559.8,466.9 			"/>
		</g>
            <polygon class="st9" points="590.1,398.2 592.6,407.1 593.4,417 592.7,427.1 590.5,436.9 586.9,445.7 582,453 569.2,381.8
			575.5,382.3 581.4,385.3 586.3,390.8 		"/>
            <polygon class="st9" points="548,446.2 545.3,436.9 569.6,421.6 576.3,458.3 570,461.2 563.6,461.4 557.5,458.8 552.2,453.6 		"/>
            <polygon class="st9" points="547.6,405.4 551.6,396.3 556.8,389.1 562.8,384.1 568.3,414.3 544.6,429 544.3,426.5 545.1,415.7
			"/>
	</g>
        <g>
		<polygon class="st9" points="338.5,160.8 359.3,157.6 359.5,221.7 338.7,223.4 		"/>
            <g>
			<polygon class="st8" points="334.9,226.5 389.7,222.3 394,222.6 339.1,226.7 			"/>
                <path class="st7" d="M389.7,222.3l-54.8,4.2l-0.2-67.9l54.9-8.7L389.7,222.3z M359.3,157.6l-20.8,3.2l0.2,62.5l20.8-1.7
				L359.3,157.6z M384.8,153.7l-20.1,3.1l0.2,64.5l20-1.6L384.8,153.7z"/>
                <polygon class="st8" points="389.6,149.9 393.9,150.5 394,222.6 389.7,222.3 			"/>
		</g>
            <polygon class="st9" points="364.8,156.8 384.8,153.7 385,219.7 364.9,221.3 		"/>
	</g>
        <polygon class="st9" points="401.5,530 399.4,530.5 399.2,400.4 401.4,400.1 	"/>
        <polygon class="st9" points="401.4,400.1 399.2,400.4 394.1,392.9 396.3,392.6 	"/>
        <g>
		<polygon class="st8" points="368.1,383.6 370.8,384.1 376.1,386.5 381.4,390 386.5,394.7 391.4,400.5 394.2,404.6 394.3,519.7
			368.4,513.1 368.3,461.1 372,461.9 372,449.5 368.3,448.8 		"/>
            <polygon class="st8" points="360.5,511.1 339,505.6 338.6,397.5 341,394.3 345.4,389.9 350.1,386.5 355,384.2 360.2,383
			360.3,447.4 357.1,446.8 357.1,458.9 360.4,459.6 		"/>
            <g>
			<path class="st7" d="M399.4,530.5l-64.8-17.3l-0.4-120.8l4.4-5.9l4.8-4.9l5.1-3.8l5.4-2.6l5.7-1.4l5.8-0.1l5.9,1.2l5.9,2.5
				l5.8,3.8l5.7,5.1l5.4,6.3l5.1,7.5L399.4,530.5z M370.8,384.1l-2.7-0.6l0.1,65.3l3.7,0.7l0,12.4l-3.7-0.7l0.1,52l25.9,6.6
				l-0.2-115.2l-2.7-4.1l-4.9-5.8l-5.1-4.7l-5.3-3.5L370.8,384.1z M339,505.6l21.5,5.5l-0.1-51.5l-3.3-0.6l0-12.2l3.3,0.6l-0.2-64.4
				l-5.1,1.2l-4.9,2.3l-4.7,3.4l-4.4,4.4l-2.4,3.2L339,505.6z M362.5,450.9l-3.5-0.6l-1.9,0.3l0,6.7l3.5,0.7l1.9-0.3L362.5,450.9z
				 M370.2,459.4l0-7.3l-3.8-0.7l-1.9,0.3l0,7.3l3.8,0.7L370.2,459.4z"/>
                <polygon class="st8" points="371.3,375 365.4,373.8 367.6,373.6 373.4,374.8 			"/>
                <polygon class="st8" points="365.4,373.8 359.6,373.9 361.7,373.7 367.6,373.6 			"/>
                <polygon class="st8" points="377.2,377.5 371.3,375 373.4,374.8 379.3,377.4 			"/>
                <polygon class="st8" points="383,381.4 377.2,377.5 379.3,377.4 385.2,381.2 			"/>
                <polygon class="st8" points="388.7,386.5 383,381.4 385.2,381.2 390.8,386.3 			"/>
                <polygon class="st8" points="394.1,392.9 388.7,386.5 390.8,386.3 396.3,392.6 			"/>
                <polygon class="st8" points="359,450.3 362.5,450.9 360.6,451.2 357.1,450.6 			"/>
                <polygon class="st8" points="362.5,450.9 362.5,457.7 360.6,458 360.6,451.2 			"/>
                <polygon class="st8" points="357.2,457.3 357.1,450.6 360.6,451.2 360.6,458 			"/>
                <polygon class="st8" points="370.2,452.1 370.2,459.4 368.3,459.7 368.3,452.4 			"/>
                <polygon class="st8" points="366.4,451.4 370.2,452.1 368.3,452.4 364.5,451.7 			"/>
                <polygon class="st8" points="368.3,452.4 368.3,459.7 364.5,459 364.5,451.7 			"/>
		</g>
	</g>
        <g>
		<g>
			<path class="st7" d="M242.9,239.1l-0.5-78.3l48.6-8.5l0.4,83.4L242.9,239.1z M244.2,196l20.4-2.6l-0.2-32.3l-20.4,3.5L244.2,196z
				 M289.4,198.5l-21.9,2.6l0.2,32.2l21.9-1.6L289.4,198.5z M289.4,190.3l-0.2-33.4l-21.9,3.7l0.2,32.5L289.4,190.3z M244.3,203.8
				l0.2,31.2l20.4-1.5l-0.2-32L244.3,203.8z"/>
            <polygon class="st8" points="242.9,239.1 291.4,235.7 295.8,235.9 247.2,239.3 			"/>
            <polygon class="st8" points="291.4,235.7 291,152.3 295.4,152.9 295.8,235.9 			"/>
		</g>
            <polygon class="st9" points="264.6,193.4 244.2,196 244,164.5 264.4,161.1 		"/>
            <polygon class="st9" points="267.5,201.1 289.4,198.5 289.5,231.6 267.7,233.2 		"/>
            <polygon class="st9" points="289.2,156.9 289.4,190.3 267.5,193 267.3,160.6 		"/>
            <polygon class="st9" points="244.4,235 244.3,203.8 264.6,201.4 264.8,233.4 		"/>
	</g>
        <g>
		<g>
			<path class="st7" d="M244.2,452.5l-0.5-77.3l48.3,5.5l0.4,82.3L244.2,452.5z M245.5,410.4l20.3,3.3l-0.2-31.9l-20.3-2.4
				L245.5,410.4z M290.5,425.7l-21.8-3.7l0.2,31.8l21.8,4.6L290.5,425.7z M290.4,417.6l-0.1-33l-21.8-2.6l0.2,32.1L290.4,417.6z
				 M245.5,418.1l0.2,30.8l20.3,4.3l-0.2-31.6L245.5,418.1z"/>
            <polygon class="st8" points="292.4,463 292,380.6 296.5,380.3 296.8,462.3 			"/>
            <polygon class="st8" points="292,380.6 243.7,375.2 248,374.8 296.5,380.3 			"/>
		</g>
            <polygon class="st9" points="265.8,413.6 245.5,410.4 245.3,379.3 265.6,381.7 		"/>
            <polygon class="st9" points="268.7,422 290.5,425.7 290.6,458.4 268.8,453.8 		"/>
            <polygon class="st9" points="290.3,384.6 290.4,417.6 268.6,414.1 268.5,382 		"/>
            <polygon class="st9" points="245.7,448.9 245.5,418.1 265.8,421.5 266,453.2 		"/>
	</g>
        <g>
		<g>
			<path class="st7" d="M411.6,492.3l-0.1-94.1l72.8,8.3l-0.1,101.7L411.6,492.3z M413.8,441.2l30.3,4.9l0-39.1l-30.4-3.6
				L413.8,441.2z M481.5,462.1l-33-5.6l0,38.9l33,7L481.5,462.1z M481.5,452l0-40.7l-33-3.9l0,39.3L481.5,452z M413.8,450.5l0,37.5
				l30.3,6.4l0-38.8L413.8,450.5z"/>
            <polygon class="st8" points="484.2,508.1 484.2,406.4 488.8,405.9 488.7,507 			"/>
            <polygon class="st8" points="484.2,406.4 411.4,398.2 416,397.7 488.8,405.9 			"/>
		</g>
            <polygon class="st9" points="444.2,446 413.8,441.2 413.8,403.3 444.1,406.9 		"/>
            <polygon class="st9" points="448.5,456.4 481.5,462.1 481.4,502.4 448.5,495.4 		"/>
            <polygon class="st9" points="481.5,411.3 481.5,452 448.5,446.7 448.5,407.4 		"/>
            <polygon class="st9" points="413.9,488 413.8,450.5 444.2,455.7 444.2,494.5 		"/>
	</g>
        <g>
		<g>
			<path class="st7" d="M411.2,232.3l-0.1-95.6l73.4-12.8l-0.1,103.3L411.2,232.3z M413.5,179.7l30.6-3.9l0-39.8l-30.6,5.2
				L413.5,179.7z M481.7,181.2l-33.3,3.9l0,39.5l33.2-2.5L481.7,181.2z M481.7,171l0-41.4l-33.3,5.6l0,39.9L481.7,171z M413.5,189.2
				l0,38.1l30.5-2.3l0-39.4L413.5,189.2z"/>
            <polygon class="st8" points="411.2,232.3 484.4,227.2 489,227.6 415.8,232.6 			"/>
            <polygon class="st8" points="484.4,227.2 484.5,123.9 489.1,124.8 489,227.6 			"/>
		</g>
            <polygon class="st9" points="444.1,175.8 413.5,179.7 413.5,141.2 444,136 		"/>
            <polygon class="st9" points="448.4,185.1 481.7,181.2 481.6,222.2 448.4,224.7 		"/>
            <polygon class="st9" points="481.7,129.7 481.7,171 448.4,175.2 448.4,135.3 		"/>
            <polygon class="st9" points="413.6,227.3 413.5,189.2 444.1,185.6 444.1,225 		"/>
	</g>
</g>
</svg>
