<?xml version="1.0" encoding="utf-8"?>
<!-- Generator: Adobe Illustrator 25.0.1, SVG Export Plug-In . SVG Version: 6.00 Build 0)  -->
<svg version="1.1" id="katman_1" xmlns="http://www.w3.org/2000/svg" x="0px" y="0px"
     viewBox="0 0 841.9 595.3" style="enable-background:new 0 0 841.9 595.3;" xml:space="preserve">
<style type="text/css">
	.st0{fill:#8F6645;}
	.st1{fill:#EEEEEE;}
	.st2{fill:#DDDDDD;}
	.st3{fill:#3D3A37;}
	.st4{fill:#C4C4C4;}
	.st5{fill:#3D3A37;}
	.st6{fill:#000000;}
	.st7{fill:#FFFFFF;}
	.st8{fill:#888888;}
	.st9{fill:#7884AF;}
</style>


    <g id="body">
	<polygon class="st4" points="601.1,283.9 669.7,280.2 674,477.1 604.1,469.5 			"/>
        <polygon class="st0" points="584,282.4 601.1,283.9 604.1,469.5 517.9,484.3 516,276.6 			"/>
        <polygon class="st0" points="669.7,280.2 747.2,287.9 747.2,289.3 747.3,293.9 747.4,296.3 752,461.4 674,477.1 			"/>
        <polygon class="st4" points="348,486.7 71,442.6 74.9,298.5 74.9,297.1 348.9,275.5 			"/>
        <polygon class="st0" points="348,486.7 348.9,275.5 436.9,281.8 437.4,473.8 			"/>
        <polygon class="st4" points="436.9,281.8 440.5,281.6 516,276.6 517.9,484.3 437.4,473.8 			"/>
</g>


    <g id="roof">
	<g>
		<polygon class="st2" points="669.8,279.9 601.2,283.7 584.1,282.2 706.4,275.3 805.7,286.5 749.4,289 747.3,289.1 747.2,287.7
						"/>
        <polygon class="st2" points="437,281.6 349,275.3 75,296.9 75,298.3 39.7,296.9 325.2,273 440.6,281.3 			"/>
        <polygon class="st2" points="766.4,295.4 747.4,296.1 747.4,293.7 			"/>
        <polygon class="st3" points="766.4,295.4 747.4,293.7 747.3,289.1 749.4,289 			"/>
        <polygon class="st3" points="656,226.2 805.7,286.5 706.4,275.3 			"/>
        <polygon class="st3" points="656,226.2 706.4,275.3 584.1,282.2 556.2,236.2 582.3,233.5 597.1,232.1 			"/>
        <polygon class="st3" points="584.1,282.2 516,276.4 472.1,185.4 556.2,236.2 			"/>
        <polygon class="st3" points="516,276.4 440.6,281.3 419.6,193.7 445.4,189.6 472.1,185.4 			"/>
        <polygon class="st3" points="440.6,281.3 325.2,273 350.1,172.2 443.4,188.8 419.6,193.7 			"/>
        <polygon class="st3" points="350.1,172.2 325.2,273 39.7,296.9 			"/>
        <polygon class="st3" points="472.1,185.4 597.1,232.1 582.3,233.5 			"/>
        <polygon class="st3" points="556.2,236.2 472.1,185.4 582.3,233.5 			"/>
	</g>
</g>


    <g id="chimney">
	<polygon class="st6" points="418.2,108.8 421.4,108.2 419.6,109.8 416.3,110.4 			"/>
        <polygon class="st8" points="421.4,119.7 418.2,120.2 416.3,118 419.6,117.5 			"/>
        <polygon class="st8" points="451.7,119 445.2,121.4 446.2,120.1 438.8,118.7 438.8,119.9 439,191.3 434.1,190.7 433.9,117.8
			425.1,116.2 424,117.2 421.4,119.7 419.6,117.5 423.2,114.1 419.6,109.8 421.4,108.2 425.1,112.7 441.9,115.9 446.2,116.7
			444.8,114.8 			"/>
        <polygon class="st5" points="438.8,118.7 446.2,120.1 443,120.7 438.8,119.9 			"/>
        <polygon class="st5" points="446.2,120.1 445.2,121.4 442,121.9 443,120.7 			"/>
        <polygon class="st5" points="444.8,114.8 446.2,116.7 441.9,115.9 441.5,115.4 			"/>
        <polygon class="st5" points="419.6,109.8 423.2,114.1 419.9,114.7 416.3,110.4 			"/>
        <polygon class="st5" points="423.2,114.1 419.6,117.5 416.3,118 419.9,114.7 			"/>
        <polygon class="st5" points="425.1,116.2 433.9,117.8 430.6,118.4 424,117.2 			"/>
        <polygon class="st5" points="433.9,117.8 434.1,190.7 430.8,191.1 430.6,118.4 			"/>
</g>


    <g id="left-window">
	<polygon class="st9" points="119.5,332.8 140.1,332.4 139.3,370.3 118.7,369.5 			"/>
        <polygon class="st9" points="114.3,381 113.5,415.7 95.3,413.7 96.1,380 			"/>
        <polygon class="st9" points="138.3,418.3 117.6,416.1 118.4,381.2 139.1,382.3 			"/>
        <path class="st7" d="M93.7,325.3l51-1.7l-2.2,104l-51.2-6.2L93.7,325.3z M140.1,332.4l-20.6,0.4l-0.8,36.7l20.6,0.7L140.1,332.4z
			 M113.5,415.7l0.8-34.7l-18.2-1l-0.8,33.8L113.5,415.7z M117.6,416.1l20.7,2.2l0.8-36l-20.7-1.1L117.6,416.1z M115.4,332.9
			l-18.1,0.4l-0.9,35.5l18.2,0.7L115.4,332.9z"/>
        <polygon class="st8" points="153.8,323.8 151.7,427 142.5,427.6 144.7,323.6 			"/>
        <polygon class="st9" points="97.3,333.2 115.4,332.9 114.6,369.4 96.4,368.7 			"/>
</g>


    <g>
	<g>
		<g>
			<path class="st7" d="M205.5,321.6l71.7-2.3l-1.3,124.4l-72.2-8.7L205.5,321.6z M270.8,329.8l-29.2,0.6l-0.6,43.6l29.2,1.1
				L270.8,329.8z M234.6,428.7l0.6-41.2l-25.4-1.4l-0.6,39.8L234.6,428.7z M240.4,429.3l29.4,3.1l0.5-43.1l-29.3-1.6L240.4,429.3z
				 M235.9,330.5l-25.3,0.5l-0.7,41.8l25.4,0.9L235.9,330.5z"/>
            <polygon class="st9" points="241.7,330.4 270.8,329.8 270.3,375 241.1,374 			"/>
            <polygon class="st9" points="235.2,387.5 234.6,428.7 209.1,425.9 209.8,386.1 			"/>
            <polygon class="st9" points="269.7,432.4 240.4,429.3 240.9,387.8 270.2,389.4 			"/>
            <polygon class="st8" points="286.8,319.5 285.6,442.8 275.9,443.7 277.2,319.3 			"/>
            <polygon class="st9" points="210.6,331 235.9,330.5 235.3,373.7 210,372.8 			"/>
		</g>

        <g>
			<polygon class="st9" points="733,359.7 713.9,360.2 713.6,350 714.2,344 715.6,338.8 717.6,334.8 720.1,332.2 722.9,331.4
				725.7,332.3 728.3,334.9 730.5,338.9 732,344.1 732.9,349.8 			"/>
            <polygon class="st9" points="727.5,458 725.3,372 735.9,371.5 738.1,456 			"/>
            <polygon class="st9" points="713.1,461.1 710.9,372.1 721.6,371.6 723.8,459 			"/>
            <g>
				<path class="st8" d="M740.2,465.3l-29,5.9L707.3,311l28.8,1.5L740.2,465.3z M713.9,360.2l19.1-0.5l-0.1-9.9l-0.9-5.8l-1.6-5.1
					l-2.2-4l-2.6-2.6l-2.8-0.9l-2.8,0.8l-2.5,2.5l-2,4.1l-1.4,5.2l-0.6,6L713.9,360.2z M725.3,372l2.2,86l10.7-2l-2.2-84.4
					L725.3,372z M710.9,372.1l2.2,89l10.8-2l-2.2-87.4L710.9,372.1z M710.6,360.9l0.2,8.4l2.5,0l2.4-0.1l-0.2-8.3l-2.4,0
					L710.6,360.9z"/>
                <polygon class="st7" points="707.3,311 711.2,471.2 705.5,470.6 701.7,311.1 				"/>
                <polygon class="st7" points="710.8,369.3 710.6,360.9 713.1,361 713.3,369.4 				"/>
                <polygon class="st7" points="713.3,369.4 713.1,361 715.5,360.9 715.7,369.3 				"/>
			</g>
		</g>
        <g>
			<g>
				<polygon class="st8" points="367.2,298 371.9,297.7 371.6,443.1 366.8,442.6 				"/>
                <path class="st7" d="M371.9,297.7l52.6,2.7l0.2,137.3l-53.3,5.4L371.9,297.7z M377,434.2l43-4l-0.2-122.4l-42.5-1.8L377,434.2z
					"/>
			</g>
            <polygon class="st9" points="419.9,430.2 377,434.2 377.2,306.1 419.8,307.9 			"/>
		</g>
	</g>
</g>
</svg>
