<?xml version="1.0" encoding="utf-8"?>
<!-- Generator: Adobe Illustrator 25.0.1, SVG Export Plug-In . SVG Version: 6.00 Build 0)  -->
<svg version="1.1" id="katman_1" xmlns="http://www.w3.org/2000/svg" x="0px" y="0px"
     viewBox="0 0 841.9 595.3" style="enable-background:new 0 0 841.9 595.3;" xml:space="preserve">
<style type="text/css">
	.st0{fill:#8F6645;}
	.st1{fill:#EEEEEE;}
	.st2{fill:#DDDDDD;}
	.st3{fill:#3D3A37;}
	.st4{fill:#C4C4C4;}
	.st5{fill:#3D3A37;}
	.st6{fill:#000000;}
	.st7{fill:#FFFFFF;}
	.st8{fill:#888888;}
	.st9{fill:#7884AF;}
</style>

    <g id="body">
	<polygon class="st0" points="406.6,253.2 503.2,247 503.9,460.9 406.3,448.3 			"/>
        <polygon class="st4" points="503.2,247 789.4,267.3 789.4,268.7 792.1,419.4 503.9,460.9 			"/>
        <polygon class="st4" points="326.8,248.5 406.6,253.2 406.3,448.3 325.7,457.9 			"/>
        <polygon class="st0" points="237.9,255.1 326.8,248.5 325.7,457.9 236,444.4 			"/>
        <polygon class="st0" points="85.9,258.8 169.3,251.7 166.6,451.4 82.8,436.8 85.9,260.5 			"/>
        <polygon class="st4" points="169.3,251.7 237.9,255.1 236,444.4 166.6,451.4 			"/>
</g>


    <g id="right-window">
	<polygon class="st9" points="705,352.7 738,351.4 738.7,394.9 705.7,398.3 			"/>
        <polygon class="st9" points="737.8,338.3 704.8,339.1 704.2,294 737.1,295.2 			"/>
        <polygon class="st9" points="614.7,356.4 615.2,407.5 572.9,411.7 572.5,358.2 			"/>
        <g>
		<path class="st7" d="M561.4,271.7l182.3,10.1l2,126.2l-183.3,22.1L561.4,271.7z M738,351.4l-33,1.4l0.6,45.6l33-3.4L738,351.4z
			 M704.8,339.1l33-0.8l-0.7-43.2l-32.9-1.2L704.8,339.1z M615.2,407.5l-0.5-51l-42.2,1.7l0.4,53.6L615.2,407.5z M699.8,352.9
			l-78.6,3.2l0.5,50.6l78.8-8L699.8,352.9z M614.6,341.2l-0.5-50.5l-42.1-1.5l0.4,53L614.6,341.2z M699,293.8l-78.5-2.9L621,341
			l78.6-1.8L699,293.8z"/>
            <polygon class="st8" points="561.4,271.7 562.5,430.1 558.6,429.8 557.6,271.9 				"/>
	</g>
        <polygon class="st9" points="621.2,356.2 699.8,352.9 700.5,398.8 621.7,406.8 			"/>
        <polygon class="st9" points="614.1,290.7 614.6,341.2 572.4,342.2 572,289.1 			"/>
        <polygon class="st9" points="620.6,290.9 699,293.8 699.6,339.2 621,341 			"/>
</g>


    <g id="roof">
	<polygon class="st2" points="503.4,246.9 406.8,253.1 327.1,248.4 238.2,255 169.6,251.6 86.2,258.7 86.2,260.4 24.3,257.9
		131.3,247.7 231.5,252.8 325.7,245.5 399.2,250 499.7,243.2 823.8,267.3 789.7,268.5 789.7,267.2 			"/>
        <polygon class="st3" points="498.7,136.1 823.8,267.3 499.7,243.2 			"/>
        <polygon class="st3" points="498.7,136.1 499.7,243.2 399.2,250 			"/>
        <polygon class="st3" points="399.2,250 325.7,245.5 371.3,150.2 396.1,153.9 426.1,158.3 			"/>
        <polygon class="st3" points="325.7,245.5 231.5,252.8 371.3,150.2 			"/>
        <polygon class="st3" points="231.5,252.8 131.3,247.7 177.3,195.8 245.8,202.1 278.7,205.2 			"/>
        <polygon class="st3" points="177.3,195.8 131.3,247.7 24.3,257.9 			"/>
        <polygon class="st3" points="396.1,153.9 399.8,152.4 498.7,136.1 426.1,158.3 			"/>
        <polygon class="st3" points="399.2,250 426.1,158.3 498.7,136.1 			"/>
        <polygon class="st3" points="231.5,252.8 278.7,205.2 371.3,150.2 			"/>
        <polygon class="st3" points="245.8,202.1 371.3,150.2 278.7,205.2 			"/>
</g>

    <g id="chimney">
	<polygon class="st6" points="445.9,157.6 445.9,52.2 449.2,52.9 449.3,154.7 		"/>
        <polygon class="st8" points="445.9,52.2 445.9,157.6 440.5,158.3 440.4,55 440.4,53.4 431,55.6 427.1,62.3 425.2,60.2 429,53.6
		425.2,49.4 427.1,46.2 431,50.7 433.2,50.1 454.4,45.1 452.8,43.1 460.9,45.4 453.2,52.6 453.6,51.9 454.4,50.2 		"/>
        <polygon class="st5" points="449.2,52.9 445.9,52.2 454.4,50.2 453.6,51.9 		"/>
        <polygon class="st5" points="427.1,46.2 430.5,47 433.2,50.1 431,50.7 		"/>
        <polygon class="st5" points="427.1,62.3 431,55.6 434.3,56.4 430.5,63.1 		"/>
        <polygon class="st5" points="434.3,56.4 431,55.6 440.4,53.4 440.4,55 		"/>
        <polygon class="st5" points="453.2,52.6 460.9,45.4 464.2,46.2 456.6,53.4 		"/>
        <polygon class="st5" points="460.9,45.4 452.8,43.1 456.1,43.9 464.2,46.2 		"/>
</g>

    <g>
	<g>
		<g>
			<polygon class="st8" points="110.2,338 112.5,338 110.2,338.1 107.9,338 			"/>
            <g>
				<path class="st8" d="M136.5,446.8l-30.1-5.3L108,346l2,0.1l2.3,0l0.1-8l-2.4-0.1l-2,0l0.8-47.3l29.9-1.4L136.5,446.8z
					 M113.4,337.4l19.9,0.5l0.3-10l-0.7-5.9l-1.5-5.2l-2.2-4l-2.6-2.5l-2.9-0.8l-2.9,0.9l-2.7,2.6l-2.2,4l-1.6,5.1l-0.8,5.7
					L113.4,337.4z M124.4,349.7l-1.3,85l11.6,1.9l1.3-86.4L124.4,349.7z M110,348.6l-1.4,84.1l10.7,1.7l1.4-85.5L110,348.6z"/>
                <polygon class="st7" points="136.5,446.8 138.9,289.3 144.3,289.5 142,446.3 				"/>
                <polygon class="st7" points="112.5,338 112.4,346 110.1,346 110.2,338.1 				"/>
                <polygon class="st7" points="107.7,346 107.9,338 110.2,338.1 110.1,346 108,346 				"/>
			</g>
            <g>
				<polygon class="st9" points="133.3,337.9 113.4,337.4 113.5,327.7 114.3,321.9 115.9,316.9 118.1,312.9 120.8,310.3
					123.7,309.4 126.6,310.2 129.2,312.8 131.4,316.8 132.9,321.9 133.6,327.8 				"/>
                <polygon class="st9" points="123,434.7 124.4,349.7 135.9,350.1 134.6,436.6 				"/>
                <polygon class="st9" points="108.6,432.7 110,348.6 120.7,349 119.3,434.5 				"/>
			</g>
		</g>
	</g>
</g>
</svg>
