<?xml version="1.0" encoding="utf-8"?>
<!-- Generator: Adobe Illustrator 25.0.1, SVG Export Plug-In . SVG Version: 6.00 Build 0)  -->
<svg version="1.1" id="katman_1" xmlns="http://www.w3.org/2000/svg" x="0px" y="0px"
     viewBox="0 0 841.9 595.3" style="enable-background:new 0 0 841.9 595.3;" xml:space="preserve">
<style type="text/css">
	.st0{fill:#8F6645;}
	.st1{fill:#EEEEEE;}
	.st2{fill:#DDDDDD;}
	.st3{fill:#3D3A37;}
	.st4{fill:#C4C4C4;}
	.st5{fill:#3D3A37;}
	.st6{fill:#000000;}
	.st7{fill:#FFFFFF;}
	.st8{fill:#888888;}
	.st9{fill:#7884AF;}
</style>

    <g id="chimney">
	<polygon class="st6" points="475.1,74.4 478.2,75.1 480.1,77.4 477,76.7 			"/>
        <polygon class="st6" points="478.2,90.8 475.1,90.2 477,87.3 480.1,87.9 			"/>
        <polygon class="st8" points="471.3,80.4 475.1,74.4 477,76.7 473.2,82.5 477,87.3 475.1,90.2 472.1,86.3 471.3,85.2 462.1,86.9
			462.1,142.3 457,143 457,89.1 457,87.9 449.1,89.3 450.2,91.1 443.4,87.4 450.7,82.1 449.1,84.6 453,83.9 			"/>
        <polygon class="st5" points="457,89.1 452.2,89.9 449.1,89.3 457,87.9 			"/>
        <polygon class="st5" points="452.2,89.9 453.3,91.7 450.2,91.1 449.1,89.3 			"/>
        <polygon class="st5" points="453.7,82.7 453,83.9 449.1,84.6 450.7,82.1 			"/>
        <polygon class="st5" points="480.1,77.4 476.3,83.1 473.2,82.5 477,76.7 			"/>
        <polygon class="st5" points="476.3,83.1 480.1,87.9 477,87.3 473.2,82.5 			"/>
        <polygon class="st5" points="472.1,86.3 465.2,87.5 462.1,86.9 471.3,85.2 			"/>
        <polygon class="st5" points="465.2,87.5 465.2,141.9 462.1,142.3 462.1,86.9 			"/>
</g>

    <g id="roof">
	<polygon class="st3" points="122.6,264 400.5,151.2 379.9,261.6 			"/>
        <polygon class="st3" points="406.3,151.9 414.8,148.4 457,143 462.1,142.3 465.2,141.9 511.6,135.9 540.6,261.2 439.6,262.1
		443,156.3 			"/>
        <polygon class="st3" points="511.6,135.9 824.1,264.2 540.6,261.2 			"/>
        <polygon class="st3" points="439.6,262.1 379.9,261.6 400.5,151.2 406.3,151.9 443,156.3 			"/>
</g>


    <g id="body">
	<polygon class="st4" points="536.7,261.7 446.7,262.4 386.8,261.9 151.3,264.1 129.9,264.1 122.6,264 379.9,261.6 439.6,262.1
		540.6,261.2 824.1,264.2 798.6,264.3 		"/>
        <g>
		<polygon class="st4" points="19.9,411.9 23.4,412.7 29.9,412 29.9,410.9 67.4,407 67.4,416.1 64.8,416.4 64.8,423.4 69,424.5
			75.8,423.7 75.8,416.6 73.2,416 73.2,406.4 146.4,398.9 149.8,399.6 154.7,399.1 174.8,402.9 174.8,409.6 177.9,410.2
			177.9,443.1 174.8,443.6 174.8,451.9 180.6,453.4 188,452.3 188,443.9 184.9,443.2 184.9,410.3 188,409.9 188,405.4 230.8,413.5
			230.8,421 234.2,421.7 234.2,457.1 230.8,457.6 230.8,466.6 			"/>
            <polygon class="st0" points="446.6,262.4 536.7,261.6 536.7,466.9 446.6,450.3 			"/>
            <polygon class="st4" points="386.8,261.9 446.6,262.4 446.6,450.3 386.8,461.6 386.8,443 386.8,434.9 386.8,402.7 386.8,395.3
			386.8,392.1 			"/>
            <polygon class="st0" points="151.3,264.1 386.8,261.9 386.8,392.1 377,390.8 237.6,407.2 183.8,397.6 174.8,398.5 174.8,401.7
			174.8,402.9 154.7,399.1 155.2,393.1 153,392.7 153,369.3 155.2,369.1 155.2,363.9 156.7,363.8 156.7,361.4 151.3,360.7
			151.3,264.8 151.3,264.2 			"/>
            <polygon class="st0" points="386.8,443 386.8,461.6 237.6,489.7 237.6,468.4 245.3,467.1 			"/>
            <polygon class="st0" points="237.6,468.4 237.6,489.7 19.9,427.1 19.9,411.9 230.8,466.6 			"/>
            <polygon class="st4" points="536.7,466.9 536.7,261.6 798.6,264.3 798.6,407.3 			"/>
            <polygon class="st4" points="245.3,458.1 241.8,457.2 241.8,421.8 245.3,421.3 245.3,416.2 373.8,440.5 373.8,442.4 380.9,443.8
			386.3,442.9 245.3,467.1 			"/>
            <polygon class="st0" points="373.8,440.5 245.3,416.2 245.3,412.7 373.8,396.9 373.8,402.4 376.9,402.8 376.9,434 373.8,434.5
						"/>
            <polygon class="st0" points="386.8,434.9 383.7,434.3 383.7,403.1 386.8,402.7 			"/>
	</g>
</g>


    <g id="left-window">
	<polygon class="st9" points="641.9,303.9 668.9,302.5 668.9,345.4 641.9,348.3 			"/>
        <polygon class="st9" points="636.2,363 636.2,405.2 608.5,410.1 608.5,366.5 			"/>
        <polygon class="st9" points="668.9,399.4 641.9,404.2 641.9,362.3 668.9,358.9 			"/>
        <g>
		<polygon class="st7" points="674.2,292.5 602.2,295.2 592.2,295 664.4,292.2 				"/>
            <path class="st7" d="M602.2,295.2l72-2.8l0,115.7l-72,13.7L602.2,295.2z M668.9,302.5l-27,1.4l0,44.4l27-2.9V302.5z
				 M636.2,405.2V363l-27.7,3.5l0,43.7L636.2,405.2z M641.9,404.2l27-4.8l0-40.5l-27,3.4V404.2z M636.1,304.2l-27.7,1.4v46.3
				l27.7-3V304.2z"/>
            <polygon class="st8" points="602.2,295.2 602.2,421.9 592.2,420.5 592.2,295 				"/>
	</g>
        <polygon class="st9" points="608.5,305.6 636.1,304.2 636.1,348.9 608.5,351.8 			"/>
</g>


    <g>
	<g>
		<g>
			<g>
				<polygon class="st8" points="352.4,384.3 352.4,287.7 355.5,287.6 355.5,383.9 				"/>
                <path class="st7" d="M352.4,287.7l0,96.6l-43.4-5.8l0-91.9L352.4,287.7z M328.3,292l-16.3-0.5v82.5l16.3,2.1L328.3,292z
					 M349.2,345.2l-17.7-1.6l0,32.8l17.7,2.3V345.2z M331.6,292.1v44.8l17.7,1.5v-45.7L331.6,292.1z"/>
			</g>
            <polygon class="st9" points="312,291.5 328.3,292 328.3,376 312,373.9 			"/>
            <polygon class="st9" points="331.6,343.6 349.2,345.2 349.2,378.7 331.5,376.5 			"/>
            <polygon class="st9" points="331.6,336.9 331.6,292.1 349.2,292.7 349.2,338.4 			"/>
		</g>
        <g>
			<polygon class="st8" points="235.6,368.3 232.7,368.6 232.7,359.8 235.6,359.5 			"/>
            <polygon class="st7" points="232.7,368.6 229.8,368.2 229.8,359.4 232.7,359.8 			"/>
            <polygon class="st8" points="229.8,359.4 232.8,359.2 235.6,359.5 232.7,359.8 			"/>
            <polygon class="st7" points="246.2,308.2 282.3,310.2 278.2,310.4 242.1,308.4 			"/>
            <polygon class="st7" points="282.3,310.2 282.3,422.2 278.2,422.8 278.2,310.4 			"/>
            <path class="st8" d="M242.1,415.9l-33.1-6.3l0-103.1l33.1,1.9L242.1,415.9z M238.8,312.8l-11.8-0.7v24.1l11.8,1.1V312.8z
				 M238.8,410.6v-24.5l-11.8-1.8v24.1L238.8,410.6z M221.4,359.6v-23.9l3.7,0.3l0-24l-13.2-0.8l0,47.3L221.4,359.6z M222.8,381
				l16,2.4l0-42.3l-16-1.6V381z M212,363.2l0,42.5l13.2,2.4l0-24l-3.7-0.6v-19.1L212,363.2z"/>
            <path class="st8" d="M278.2,310.4l0,112.4l-36.1-6.9l0-107.6L278.2,310.4z M259.8,414.5l14.9,2.7v-51.1l-10.8-1.3l0,25.2
				l-4.1-0.6V414.5z M274.7,315.1l-14.9-0.9v25.1l4.1,0.4v20.2l10.8,1.3L274.7,315.1z M245.4,411.8l12.3,2.3v-25l-12.3-1.9V411.8z
				 M257.7,339v-25l-12.3-0.8v24.7L257.7,339z M245,361.3v8.9l0.4,13.2l16.9,2.5v-43.6l-16.9-1.6l0,20.5L245,361.3z"/>
            <polygon class="st7" points="246.2,308.2 242.1,308.4 209,306.5 213,306.4 			"/>
            <polygon class="st7" points="266.4,280.6 272.4,288 268.4,288.1 262.3,280.7 			"/>
            <polygon class="st7" points="259.9,275.2 266.4,280.6 262.3,280.7 255.8,275.3 			"/>
            <path class="st8" d="M262.3,280.7l6,7.4l5.3,9.2l4.3,10.7l-68.9-3.7l3.7-9.5l4.6-8.2l5.4-6.7l6-5l6.5-3.1l6.8-1l6.9,1.1l6.9,3.3
				L262.3,280.7z M267.2,290.5l-5.7-7.1l-0.6-0.5l-17.3,20.2l30.8,1.5l-2.1-5.3L267.2,290.5z M241.2,274l-5.7,0.8l-6.2,2.9l-3.5,2.9
				l15.4,19.5V274z M218.3,288.9l-4.4,7.9l-1.8,4.8l28.4,1.4L224,282L218.3,288.9z M255.2,278.2l-6.5-3.2l-5.8-1l0,26.1l16-18.8
				L255.2,278.2z"/>
            <polygon class="st7" points="249,272 242,270.8 246.1,270.8 253,271.9 			"/>
            <polygon class="st7" points="277.9,308 273.6,297.3 277.7,297.2 282.1,307.9 			"/>
            <polygon class="st7" points="277.7,297.2 273.6,297.3 268.4,288.1 272.4,288 			"/>
            <polygon class="st7" points="253,271.9 259.9,275.2 255.8,275.3 249,272 			"/>
            <path class="st7" d="M238.8,383.4l-16-2.4v-41.5l16,1.6L238.8,383.4z M232.7,368.6l3-0.3v-8.8l-2.9-0.3l-3,0.2v8.8L232.7,368.6z"
            />
            <polygon class="st7" points="245,370.2 245,361.3 248.1,361.7 248.1,370.6 245.4,370.3 			"/>
            <polygon class="st7" points="245.4,340.7 262.3,342.3 262.3,385.9 245.4,383.4 245.4,370.3 248.1,370.6 251.1,370.4 251.1,361.4
				248,361 245.4,361.2 			"/>
            <polygon class="st8" points="251.1,370.4 248.1,370.6 248.1,361.7 251.1,361.4 			"/>
            <polygon class="st8" points="248,361 251.1,361.4 248.1,361.7 245,361.3 			"/>
            <g>
				<polygon class="st9" points="274.6,417.3 259.8,414.5 259.8,389.4 263.9,390.1 263.9,364.8 274.6,366.2 				"/>
                <polygon class="st9" points="259.8,314.1 274.7,315.1 274.6,361 263.9,359.8 263.9,339.6 259.8,339.2 				"/>
                <polygon class="st9" points="227.1,312.1 238.8,312.8 238.8,337.3 227.1,336.2 				"/>
                <polygon class="st9" points="238.8,386.2 238.8,410.6 227,408.5 227,384.4 				"/>
                <polygon class="st9" points="221.4,335.7 221.4,359.6 212,358.4 212,311.2 225.2,312 225.2,336 				"/>
                <polygon class="st9" points="257.7,414.1 245.4,411.8 245.4,387.2 257.7,389.1 				"/>
                <polygon class="st9" points="257.7,314 257.7,339 245.4,337.9 245.4,313.2 				"/>
                <polygon class="st9" points="261.4,283.4 267.2,290.5 272.2,299.3 274.3,304.6 243.5,303.1 260.8,282.9 				"/>
                <polygon class="st9" points="235.5,274.8 241.2,274 241.2,300.1 225.8,280.6 229.3,277.7 				"/>
                <polygon class="st9" points="213.9,296.8 218.3,288.9 223.5,282.5 240.5,302.9 212.1,301.5 				"/>
                <polygon class="st9" points="212,405.7 212,363.2 221.4,364.4 221.4,383.5 225.2,384.1 225.2,408.1 				"/>
                <polygon class="st9" points="248.7,275 255.2,278.2 258.9,281.3 242.9,300.1 242.9,274 				"/>
			</g>
		</g>
        <g>
			<g>
				<polygon class="st8" points="189.6,365.3 189.6,285 192.6,284.9 192.6,365 				"/>
                <path class="st7" d="M189.6,285l0,80.3l-30.1-4.1l0-77.1L189.6,285z M172.9,288.7l-11.3-0.4l0,69.1l11.3,1.5L172.9,288.7z
					 M187.4,332.9l-12.2-1.1v27.4l12.2,1.6V332.9z M175.2,288.7l0,37.4l12.2,1l0-38L175.2,288.7z"/>
			</g>
            <polygon class="st9" points="161.6,288.3 172.9,288.7 172.9,358.8 161.6,357.4 			"/>
            <polygon class="st9" points="175.2,331.7 187.4,332.9 187.4,360.7 175.2,359.1 			"/>
            <polygon class="st9" points="175.2,326.1 175.2,288.7 187.4,289.1 187.4,327.1 			"/>
		</g>
        <g>
			<polygon class="st9" points="760.6,298.1 780.1,297.1 780.1,333.6 760.6,335.7 			"/>
            <polygon class="st9" points="756.5,348 756.5,383.7 736.8,387.2 736.8,350.5 			"/>
            <polygon class="st9" points="780.1,379.5 760.7,383 760.6,347.5 780.1,345.1 			"/>
            <g>
				<polygon class="st9" points="783.9,288.6 732.4,290.6 723,290.4 774.8,288.4 				"/>
                <path class="st7" d="M732.4,290.6l51.5-2l0,98.5l-51.5,9.8L732.4,290.6z M780.1,297.1l-19.4,1l0,37.6l19.4-2.1L780.1,297.1z
					 M756.5,383.7V348l-19.7,2.5v36.7L756.5,383.7z M760.7,383l19.4-3.5v-34.4l-19.4,2.4L760.7,383z M756.5,298.3l-19.7,1l0,38.9
					l19.7-2.1V298.3z"/>
                <polygon class="st8" points="732.4,290.6 732.4,397 723,396 723,290.4 				"/>
			</g>
            <polygon class="st9" points="736.8,299.3 756.5,298.3 756.5,336.1 736.8,338.2 			"/>
		</g>
	</g>


        <g>
		<polygon class="st8" points="377.1,390.9 386.9,392.1 237.7,410.1 174.9,398.6 184,397.6 237.7,407.3 		"/>
            <polygon class="st8" points="386.9,434.9 386.9,442.8 381,443.8 381,435.9 		"/>
            <polygon class="st8" points="151.4,360.7 156.8,361.5 32.8,370.5 43.2,372.4 77.4,378.5 69.1,379.2 20,370.2 		"/>
            <polygon class="st8" points="156.8,361.5 156.8,363.8 155.3,364 149.9,364.4 146,364.7 43.2,372.4 32.8,370.5 		"/>
            <polygon class="st8" points="155.3,393.2 155.3,399.1 149.9,399.7 149.9,393.7 		"/>
            <polygon class="st8" points="153.1,392.8 155.3,393.2 149.9,393.7 146,393 148.2,392.8 150.1,393.4 153.1,393.1 		"/>
            <polygon class="st8" points="155.3,364 155.3,369.2 153.1,369.3 150.1,369.6 149.9,364.4 		"/>
            <polygon class="st8" points="230.9,413.5 188.1,405.4 188.1,404.4 230.9,412.4 		"/>
            <polygon class="st8" points="20,411.8 20,405.3 23.5,406.2 23.5,412.7 20.4,411.9 		"/>
            <polygon class="st8" points="27.7,405 30,405.6 23.5,406.2 20,405.3 22.3,405.1 24,405.8 27.7,405.5 		"/>
            <polygon class="st8" points="24,405.8 22.3,405.4 22.3,379.4 23.5,379.6 		"/>
            <polygon class="st8" points="27.7,405.5 24,405.8 24,379.6 27.7,379.3 27.7,405 		"/>
            <polygon class="st8" points="23.5,406.2 30,405.6 30,410.9 30,412.1 23.5,412.7 		"/>
            <polygon class="st8" points="30,374.7 30,379.1 27.7,379.3 24,379.6 23.5,373.5 		"/>
            <polygon class="st8" points="146,398.9 146,393 149.9,393.7 149.9,399.7 146.5,399 		"/>
            <polygon class="st8" points="150.1,393.4 148.2,393.1 148.2,369.3 149.9,369.6 		"/>
            <polygon class="st8" points="153.1,393.1 150.1,393.4 150.1,369.6 153.1,369.3 153.1,392.8 		"/>
            <polygon class="st8" points="149.9,364.4 149.9,369.6 148.2,369.3 146,369 146,364.7 		"/>
            <polygon class="st8" points="64.9,423.5 64.9,416.4 69.1,417.5 69.1,424.5 		"/>
            <polygon class="st8" points="73.3,416.1 75.9,416.7 69.1,417.5 64.9,416.4 67.5,416.2 69.5,417 73.3,416.6 		"/>
            <polygon class="st8" points="69.5,417 67.5,416.5 67.5,407.1 67.5,388.4 69.1,388.7 		"/>
            <polygon class="st8" points="73.3,416.6 69.5,417 69.5,388.6 73.3,388.3 73.3,406.5 73.3,416.1 		"/>
            <polygon class="st8" points="69.1,417.5 75.9,416.7 75.9,423.7 69.1,424.5 		"/>
            <polygon class="st8" points="237.7,410.1 386.9,392.1 386.9,395.2 381,395.9 373.9,396.9 245.4,412.8 237.7,413.7 		"/>
            <path class="st8" d="M381,396.1l5.9-0.9L381,396.1z"/>
            <polygon class="st8" points="174.9,398.6 237.7,410.1 237.7,413.7 230.9,412.4 188.1,404.4 180.7,403 174.9,401.7 		"/>
            <polygon class="st8" points="174.9,401.7 180.7,402.8 174.9,401.9 		"/>
            <polygon class="st8" points="20,370.2 69.1,379.2 69.1,381.9 64.9,381.1 30,374.7 23.5,373.5 20,372.7 		"/>
            <polygon class="st8" points="20,372.7 23.5,373.4 20,372.9 		"/>
            <polygon class="st8" points="64.9,381.1 69.1,381.9 64.9,381.3 		"/>
            <polygon class="st8" points="69.1,379.2 77.4,378.5 77.4,381.4 75.9,381.5 69.1,381.9 		"/>
            <path class="st8" d="M75.9,381.3l-6.8,0.7L75.9,381.3z"/>
            <polygon class="st8" points="174.9,451.9 174.9,443.6 180.7,445.1 180.7,453.5 		"/>
            <polygon class="st8" points="185,443.2 188.1,444 180.7,445.1 174.9,443.6 178,443.2 180.8,444.4 185,443.8 		"/>
            <polygon class="st8" points="180.8,444.4 178,443.7 178,410.3 180.7,410.9 		"/>
            <polygon class="st8" points="185,443.8 180.8,444.4 180.8,410.9 185,410.4 185,443.2 		"/>
            <polygon class="st8" points="180.7,445.1 188.1,444 188.1,452.3 180.7,453.5 		"/>
            <polygon class="st8" points="230.9,466.7 230.9,457.7 237.7,459.4 237.7,468.4 		"/>
            <polygon class="st8" points="230.9,457.7 234.3,457.1 234.3,457.8 237.6,458.6 241.9,457.9 241.9,457.3 245.4,458.1 237.7,459.4"/>
            <polygon class="st8" points="237.6,458.6 234.3,457.8 234.3,457.1 234.3,421.7 237.6,422.4 		"/>
            <polygon class="st8" points="241.9,457.9 237.6,458.6 237.6,422.4 241.9,421.9 241.9,457.3 		"/>
            <polygon class="st8" points="237.7,459.4 245.4,458.1 245.4,467.1 237.7,468.4 		"/>
            <polygon class="st8" points="230.9,412.4 237.7,413.7 237.7,422.4 234.3,421.7 230.9,421.1 230.9,413.5 		"/>
            <polygon class="st8" points="237.7,422.4 237.7,413.7 245.4,412.8 245.4,416.3 245.4,421.4 241.9,421.9 		"/>
            <polygon class="st8" points="386.9,434.9 381,435.9 373.9,434.6 377,434.1 380.4,435.3 383.7,434.8 		"/>
            <polygon class="st8" points="380.4,435.3 377,434.7 377,402.9 380.4,403.4 		"/>
            <polygon class="st8" points="383.7,434.8 380.4,435.3 380.4,403.4 381,403.5 383.7,403.1 383.7,434.4 		"/>
            <polygon class="st8" points="373.9,434.6 381,435.9 381,443.8 373.9,442.5 373.9,440.6 		"/>
            <polygon class="st8" points="373.9,402.5 373.9,396.9 381,396.1 381,403.5 380.4,403.4 377,402.9 		"/>
            <polygon class="st8" points="386.9,395.3 386.9,402.7 383.7,403.1 381,403.5 381,396.1 		"/>
            <polygon class="st8" points="23.5,379.6 22.3,379.4 20,378.9 20,372.9 23.5,373.5 		"/>
            <polygon class="st8" points="69.5,388.6 69.1,382.1 75.9,381.5 75.9,388.1 73.3,388.3 		"/>
            <polygon class="st8" points="69.1,388.7 67.5,388.4 64.9,387.8 64.9,381.3 69.1,382.1 		"/>
            <polygon class="st8" points="174.9,401.9 180.7,403 180.7,410.9 178,410.3 174.9,409.7 174.9,402.9 		"/>
            <polygon class="st8" points="188.1,410 185,410.4 180.8,410.9 180.7,403 188.1,404.4 188.1,405.4 		"/>
	</g>
</g>
</svg>
