<?xml version="1.0" encoding="utf-8"?>
<!-- Generator: Adobe Illustrator 25.0.1, SVG Export Plug-In . SVG Version: 6.00 Build 0)  -->
<svg version="1.1" id="katman_1" xmlns="http://www.w3.org/2000/svg" x="0px" y="0px"
     viewBox="0 0 841.9 595.3" style="enable-background:new 0 0 841.9 595.3;" xml:space="preserve">
<style type="text/css">
	.st0{fill:#8F6645;}
	.st1{fill:#EEEEEE;}
	.st2{fill:#DDDDDD;}
	.st3{fill:#3D3A37;}
	.st4{fill:#C4C4C4;}
	.st5{fill:#3D3A37;}
	.st6{fill:#000000;}
	.st7{fill:#FFFFFF;}
	.st8{fill:#888888;}
	.st9{fill:#7884AF;}
</style>

    <g id="chimney">
	<polygon class="st6" points="355.4,141.5 355.5,90.6 358.5,89.9 358.4,142 			"/>
        <polygon class="st8" points="358.4,142 358.5,89.9 350.6,88.2 351.3,89.7 351.7,90.4 344.6,83.9 352.1,81.8 350.6,83.6 370.3,88
			372.3,88.5 375.8,84.4 377.6,87.3 374.1,91.1 377.6,97 375.8,99 372.3,93 363.5,91 363.5,92.4 363.4,142.8 			"/>
        <polygon class="st5" points="358.5,89.9 355.5,90.6 351.3,89.7 350.6,88.2 			"/>
        <polygon class="st5" points="372.9,85.1 375.8,84.4 372.3,88.5 370.3,88 			"/>
        <polygon class="st5" points="372.9,99.6 369.3,93.6 372.3,93 375.8,99 			"/>
        <polygon class="st5" points="372.3,93 369.3,93.6 363.5,92.4 363.5,91 			"/>
        <polygon class="st5" points="348.7,91 341.7,84.6 344.6,83.9 351.7,90.4 			"/>
        <polygon class="st5" points="341.7,84.6 349.2,82.5 352.1,81.8 344.6,83.9 			"/>
</g>


    <g id="roof">
	<polygon class="st2" points="474.1,247 416.7,249.8 329.1,245.1 70.7,260.5 70.7,261.6 38.8,260.7 330,242.4 428.2,248
		485.5,245.1 715,259.8 696.6,260.4 686.4,260.7 686.4,260 			"/>
        <polygon class="st3" points="485.5,245.1 428.2,248 415.9,160.7 441.8,157 456.3,154.9 			"/>
        <polygon class="st3" points="485.5,245.1 456.3,154.9 715,259.8 			"/>
        <polygon class="st3" points="428.2,248 330,242.4 347.2,140 355.5,141.4 358.4,141.9 363.5,142.7 436,154.7 441.8,157
			415.9,160.7 			"/>
        <polygon class="st3" points="347.2,140 330,242.4 38.8,260.7 			"/>
        <polygon class="st3" points="704.8,263.7 686.5,264.2 686.4,262.7 			"/>
        <polygon class="st3" points="696.6,260.4 704.8,263.7 686.4,262.7 686.4,260.7 			"/>
</g>


    <g id="body">
	<polygon class="st4" points="804.2,395.8 810.4,396.3 619,434.4 475.3,417.7 475.9,417.6 481,418.1 487.4,417.2 487.4,415.9
		614.2,397.6 614.6,424.2 611.5,424.8 611.7,433.3 619,434.2 625.1,433 624.9,424.5 621.7,424.1 621.2,396.6 679.6,388.1
		680.2,412.2 677.4,412.7 677.6,420.5 684.6,421.2 689.5,420.2 689.4,412.5 686.5,412.2 686,387.2 690.7,387.5 693.7,387.1
		775.7,392.9 775.8,394.7 773.5,395.1 773.7,401.6 780.1,402.1 783.7,401.4 783.5,394.9 781.1,394.7 781.1,393.3 804.2,395 			"/>
        <polygon class="st0" points="475.3,417.7 619,434.4 619.3,454.7 475.4,435.4 			"/>
        <polygon class="st0" points="813.5,395.6 814,410.1 619.3,454.7 619,434.4 810.4,396.3 			"/>
        <polygon class="st4" points="475.3,417.7 475.4,435.4 417.1,427.6 416.7,250 474.2,247.1 475,369.3 475,372.2 475,379.3
			475.2,409.9 475.3,417.5 			"/>
        <polygon class="st0" points="329.1,245.2 416.7,250 417.1,427.6 328.2,440.6 			"/>
        <polygon class="st0" points="474.2,247.1 686.4,260.1 686.5,260.9 686.5,262.8 686.5,264.4 688.4,350.9 683.5,351.3 683.5,353.6
			684.9,353.7 685,358.7 687,358.8 687.3,370.8 680,370.4 617.5,377.7 483.8,368.5 475,369.3 			"/>
        <polygon class="st4" points="70.8,260.7 329.1,245.2 328.2,440.6 67.5,398.4 70.8,261.8 			"/>
        <polygon class="st0" points="679.6,388.1 621.2,396.6 621.1,390.3 624.3,389.9 624.2,381.9 676.6,375.5 676.8,381.3 679.5,381.5
						"/>
        <polygon class="st0" points="614.2,397.6 487.4,415.9 487.3,409.7 484.4,409.4 484.2,379.4 487.1,379.1 487.1,373.2 610.8,382.2
			611,390.1 614.1,390.3 			"/>
        <polygon class="st0" points="478.1,409.6 475.2,409.9 475,379.3 477.9,379.5 			"/>
</g>


    <g id="right-window">
	<polygon class="st9" points="215.7,340.9 258.2,343.2 257.7,394 215.1,389 			"/>
        <polygon class="st9" points="258.4,328 215.9,326.5 216.5,278.9 258.8,277.9 			"/>
        <polygon class="st9" points="131.6,336.2 130.8,379 102.2,375.6 103.1,334.6 			"/>

        <g>
		<path class="st7" d="M98.1,269l170.8-7.5l-1.3,150l-172-23.7L98.1,269z M258.2,343.2l-42.5-2.4l-0.6,48.1l42.6,5L258.2,343.2z
			 M215.9,326.5l42.5,1.6l0.5-50.1l-42.3,1L215.9,326.5z M130.8,379l0.8-42.9l-28.6-1.6l-0.9,41.1L130.8,379z M209.7,340.5
			l-73.2-4.1l-0.8,43.2l73.4,8.7L209.7,340.5z M131.9,323.4l0.8-42.4l-28.5,0.7l-0.8,40.6L131.9,323.4z M210.5,279.1l-73,1.8
			l-0.8,42.7l73.2,2.7L210.5,279.1z"/>
            <polygon class="st8" points="267.5,411.6 268.9,261.6 272.5,261.7 271.2,411.2 				"/>
	</g>

        <polygon class="st9" points="136.5,336.4 209.7,340.5 209.1,388.2 135.7,379.6 			"/>
        <polygon class="st9" points="132.7,281 131.9,323.4 103.3,322.3 104.2,281.7 			"/>
        <polygon class="st9" points="137.5,280.9 210.5,279.1 209.9,326.2 136.7,323.5 			"/>
</g>


    <g>
	<g>
		<g>
			<path class="st7" d="M673.6,281.5l1.5,70.6l-26.6,2.3l-1.4-73.5L673.6,281.5z M659.5,285l-10.4-0.2l1.2,65.5l10.4-0.8L659.5,285z
				 M672.7,323.8l-10.4,0.4l0.5,25.1l10.4-0.8L672.7,323.8z M661.5,285l0.7,34.1l10.4-0.4l-0.7-33.5L661.5,285z"/>
            <polygon class="st9" points="644.3,280.9 647,280.9 648.4,354.4 645.7,354.3 			"/>
            <polygon class="st9" points="649.1,284.8 659.5,285 660.7,349.5 650.3,350.4 			"/>
            <polygon class="st9" points="662.3,324.3 672.7,323.8 673.2,348.5 662.8,349.3 			"/>
            <polygon class="st9" points="662.2,319.1 661.5,285 671.9,285.2 672.5,318.7 			"/>
		</g>
        <g>
			<polygon class="st8" points="599.5,300.8 628.7,300.6 632.4,300.6 603.2,300.8 			"/>
            <path class="st8" d="M604.8,399.8l-31.9,4.7L571.5,301l31.8-0.2L604.8,399.8z M600.4,305.1l-10.8,0.1l0.3,22.9l10.9-0.5
				L600.4,305.1z M601.8,395.9l-0.4-22.8l-10.9,1.2l0.3,23.2L601.8,395.9z M584.8,351.6l-0.3-23.2l3.6-0.2l-0.3-23l-13.1,0.2
				l0.6,46.9L584.8,351.6z M586.5,372l14.9-1.6l-0.6-39.3l-14.9,0.7L586.5,372z M575.4,357l0.6,42.5l13.2-1.8l-0.3-23.2l-3.6,0.4
				l-0.3-18.6L575.4,357z"/>
            <polygon class="st7" points="572.8,404.5 569,404.1 567.7,301 571.5,301 			"/>
            <path class="st8" d="M632.4,300.6l1.7,94.9l-29.3,4.3l-1.5-99L632.4,300.6z M619.7,393.4l11.6-1.6l-0.8-43.6l-8.3,0.6l0.4,22.1
				l-3.3,0.4L619.7,393.4z M629.8,304.8l-11.6,0.1l0.4,22l3.3-0.1l0.3,17.6l8.3-0.6L629.8,304.8z M607.6,395.1l10.4-1.5l-0.4-22.3
				l-10.4,1.1L607.6,395.1z M616.9,327l-0.4-22.1l-10.4,0.1l0.4,22.4L616.9,327z M620.7,329.3l-14.1,0.7l0.6,39l14.1-1.4
				L620.7,329.3z"/>
            <polygon class="st7" points="599.5,300.8 603.2,300.8 571.5,301 567.7,301 			"/>
            <polygon class="st7" points="571.4,289.3 575.9,281.1 579.7,281.1 575.2,289.2 			"/>
            <polygon class="st7" points="567.7,298.8 571.4,289.3 575.2,289.2 571.5,298.8 			"/>
            <path class="st8" d="M619.8,275.7l4.8,6.4l4.2,7.7l3.4,8.9l-60.6,0.2l3.7-9.6l4.5-8.2l5.2-6.5l5.7-4.6l6-2.7l6.1-0.7l6,1.2
				l5.8,3.1L619.8,275.7z M623.7,284.1l-4.6-6.1l-14.7,17.9h25l-1.7-4.4L623.7,284.1z M601.9,269.5l-5.1,0.6l-5.7,2.6l-3.2,2.7
				l14.4,17.9L601.9,269.5z M580.8,283.3l-4.3,7.8l-1.8,4.8h27.1l-15.5-19.2L580.8,283.3z M614,273.4l-5.5-2.9l-5-1l0.4,23.7
				l13.2-17.1L614,273.4z"/>
            <polygon class="st7" points="602.6,266.6 596.6,267.3 592.8,267.4 598.9,266.7 			"/>
            <polygon class="st7" points="596.6,267.3 590.6,270 586.8,270.1 592.8,267.4 			"/>
            <polygon class="st7" points="584.9,274.6 579.7,281.1 575.9,281.1 581.1,274.7 			"/>
            <polygon class="st7" points="590.6,270 584.9,274.6 581.1,274.7 586.8,270.1 			"/>
            <path class="st7" d="M601.4,370.5l-14.9,1.6l-0.6-40.1l14.9-0.7L601.4,370.5z M598.5,357.5l2.6-0.2L601,349l-2.8-0.1l-2.6,0.2
				l0.1,8.3L598.5,357.5z"/>
            <polygon class="st8" points="609.2,356.2 609.1,348.1 611.9,348.2 612,356.3 			"/>
            <polygon class="st7" points="612,356.3 611.9,348.2 614.5,348 614.7,356.1 			"/>
            <polygon class="st7" points="611.9,348.2 609.1,348.1 611.8,347.9 614.5,348 			"/>
            <polygon class="st7" points="601.1,357.3 598.5,357.5 598.3,349.2 601,349 			"/>
            <polygon class="st8" points="598.5,357.5 595.7,357.3 595.6,349.1 598.3,349.2 			"/>
            <polygon class="st8" points="598.3,349.2 595.6,349.1 598.2,348.9 601,349 			"/>
            <path class="st7" d="M606.6,330l14.1-0.7l0.6,38.2l-14.1,1.4L606.6,330z M609.1,348.1l0.1,8.1l2.8,0.1l2.6-0.2l-0.1-8.1
				l-2.8-0.1L609.1,348.1z"/>
            <g>
				<polygon class="st9" points="631.3,391.8 619.7,393.4 619.3,371.2 622.6,370.8 622.2,348.8 630.6,348.1 				"/>
                <polygon class="st9" points="618.2,304.9 629.8,304.8 630.5,343.8 622.2,344.3 621.9,326.8 618.6,326.9 				"/>
                <polygon class="st9" points="589.6,305.2 600.4,305.1 600.8,327.7 589.9,328.2 				"/>
                <polygon class="st9" points="601.5,373.1 601.8,395.9 590.9,397.4 590.6,374.3 				"/>
                <polygon class="st9" points="584.5,328.4 584.8,351.6 575.3,352.3 574.7,305.4 587.8,305.2 588.1,328.2 				"/>
                <polygon class="st9" points="618,393.6 607.6,395.1 607.3,372.5 617.6,371.4 				"/>
                <polygon class="st9" points="616.6,304.9 616.9,327 606.6,327.4 606.2,305 				"/>
                <polygon class="st9" points="619.1,278 623.7,284.1 627.7,291.5 629.4,296 604.4,295.9 618.6,277.6 				"/>
                <polygon class="st9" points="596.9,270.1 601.9,269.5 602.3,293.3 587.9,275.3 591.2,272.7 				"/>
                <polygon class="st9" points="576.5,291.1 580.8,283.3 585.7,277.1 601.8,295.9 574.7,295.9 				"/>
                <polygon class="st9" points="576,399.5 575.4,357 584.9,356.3 585.1,374.8 588.8,374.5 589.1,397.7 				"/>
                <polygon class="st9" points="608.4,270.5 614,273.4 617,276.2 603.8,293.3 603.4,269.5 				"/>
			</g>
		</g>
        <g>
			<path class="st7" d="M541.9,274.2l1,84.6l-38.3,3.4l-0.8-88.8L541.9,274.2z M521.7,278.3l-15-0.3l0.7,79.1l15.1-1.2L521.7,278.3z
				 M539.9,324.8l-14.9,0.6l0.3,30.2l14.9-1.2L539.9,324.8z M524.5,278.3l0.4,40.9l14.9-0.5l-0.5-40.2L524.5,278.3z"/>
            <polygon class="st8" points="500.9,273.3 503.8,273.3 504.6,362.1 501.7,361.9 			"/>
            <polygon class="st9" points="506.7,278 521.7,278.3 522.5,355.9 507.4,357.1 			"/>
            <polygon class="st9" points="525,325.4 539.9,324.8 540.3,354.4 525.4,355.6 			"/>
            <polygon class="st9" points="525,319.2 524.5,278.3 539.4,278.6 539.8,318.7 			"/>
		</g>
	</g>
        <g>
		<polygon class="st8" points="810.4,396.3 804.2,395.8 804.2,395 804,389.7 810.2,390.1 		"/>
            <polygon class="st8" points="475,369.3 483.8,368.6 617.5,377.7 680,370.4 687.3,370.8 688.4,370.9 618.1,379.3 		"/>
            <polygon class="st8" points="475.3,417.5 475.2,410 480.9,410.6 481,418.2 475.9,417.6 		"/>
            <polygon class="st8" points="683.5,351.4 688.4,350.9 812.3,356.2 778.9,360.2 771.1,359.8 785.1,358.2 800.4,356.4 		"/>
            <polygon class="st8" points="683.5,353.6 683.5,351.4 800.4,356.4 785.1,358.2 693.6,354.1 690,353.9 684.9,353.7 		"/>
            <polygon class="st8" points="685,358.7 684.9,353.7 690,353.9 690.1,359 687,358.8 		"/>
            <path class="st8" d="M475.9,417.6l-0.7,0.1L475.9,417.6z"/>
            <polygon class="st8" points="621.7,424.1 624.9,424.5 618.8,425.6 611.5,424.8 614.6,424.3 618.7,425.2 621.7,424.6 		"/>
            <polygon class="st8" points="621.7,424.6 618.7,425.2 618.2,390.7 621.1,390.3 621.2,396.6 621.7,424.1 		"/>
            <polygon class="st8" points="618.2,390.7 618.7,425.2 614.6,424.7 614.2,397.6 614.1,390.4 		"/>
            <polygon class="st8" points="619,434.2 611.7,433.4 611.5,424.8 618.8,425.6 		"/>
            <polygon class="st8" points="619,434.2 618.8,425.6 624.9,424.5 625,433 		"/>
            <polygon class="st8" points="481,418.2 480.9,410.6 487.3,409.7 487.4,415.9 487.4,417.2 		"/>
            <polygon class="st8" points="484.4,409.4 487.3,409.7 480.9,410.6 475.2,410 478,409.6 481.3,410.2 484.4,409.8 		"/>
            <polygon class="st8" points="484.4,409.8 481.3,410.2 481,379.7 484.1,379.4 484.4,409.4 		"/>
            <polygon class="st8" points="481,379.7 481.3,410.2 478,409.9 477.8,379.6 480.7,379.8 		"/>
            <polygon class="st8" points="487.1,373.2 487.1,379.1 484.1,379.4 481,379.7 480.6,372.8 		"/>
            <polygon class="st8" points="686.5,412.2 689.4,412.5 684.4,413.4 677.4,412.7 680.1,412.2 684.1,413 686.5,412.6 		"/>
            <polygon class="st8" points="686.5,412.6 684.1,413 683.4,381.8 685.8,381.5 685.9,387.2 686.5,412.2 		"/>
            <polygon class="st8" points="683.4,381.8 684.1,413 680.2,412.7 679.6,388.1 679.5,381.5 		"/>
            <polygon class="st8" points="684.6,421.2 677.6,420.5 677.4,412.7 684.4,413.4 		"/>
            <polygon class="st8" points="684.6,421.2 684.4,413.4 689.4,412.5 689.5,420.2 		"/>
            <polygon class="st8" points="676.7,381.4 676.6,375.5 683.6,374.6 683.7,381.8 679.5,381.5 		"/>
            <polygon class="st8" points="771.1,359.8 778.9,360.2 779,362.7 772.6,362.4 771.2,362.4 		"/>
            <path class="st8" d="M772.6,362.5l6.3,0.2L772.6,362.5z"/>
            <polygon class="st8" points="778.9,360.2 812.3,356.2 812.4,358.7 809.2,359.1 803.1,359.8 782.5,362.4 779,362.7 		"/>
            <polygon class="st8" points="779,362.7 782.5,362.2 779,362.8 		"/>
            <polygon class="st8" points="475,369.3 618.1,379.3 618.1,382.5 610.8,382 487.1,373.2 480.6,372.8 475,372.2 		"/>
            <path class="st8" d="M610.8,382.2l7.3,0.3L610.8,382.2z"/>
            <path class="st8" d="M480.6,372.6l-5.7-0.2L480.6,372.6z"/>
            <polygon class="st8" points="618.1,379.3 688.4,370.9 688.5,373.8 683.5,374.4 676.6,375.5 624.2,382 618.1,382.5 		"/>
            <polygon class="st8" points="618.1,382.5 624.2,381.8 618.1,382.7 		"/>
            <polygon class="st8" points="683.5,374.4 688.5,373.8 683.6,374.6 		"/>
            <polygon class="st8" points="781.1,394.8 783.5,394.9 779.9,395.6 773.5,395.1 775.8,394.7 779.4,395.3 781.1,395 		"/>
            <polygon class="st8" points="781.1,395 779.4,395.3 778.6,368.9 780.3,368.8 781.1,393.3 781.1,394.8 		"/>
            <polygon class="st8" points="778.6,368.9 779.4,395.3 775.8,395.1 775.7,392.9 775,368.7 		"/>
            <polygon class="st8" points="780.1,402.2 773.7,401.7 773.5,395.1 779.9,395.6 		"/>
            <polygon class="st8" points="780.1,402.2 779.9,395.6 783.5,394.9 783.6,401.4 		"/>
            <polygon class="st8" points="810.4,396.3 810.2,390.1 813.3,389.5 813.5,395.6 		"/>
            <polygon class="st8" points="811.1,389.4 813.3,389.5 810.2,390.1 804,389.7 806.1,389.3 809.6,389.9 811.1,389.6 		"/>
            <polygon class="st8" points="811.1,389.6 809.6,389.9 808.9,364.9 810.4,364.8 811.1,389.4 		"/>
            <polygon class="st8" points="808.9,364.9 809.6,389.9 806.2,389.6 805.4,364.8 		"/>
            <polygon class="st8" points="803.3,364.7 803.1,359.8 809.2,359.1 809.4,365 805.4,364.8 		"/>
            <polygon class="st8" points="809.2,359.1 812.4,358.7 812.6,364.5 810.4,364.8 809.4,365 		"/>
            <polygon class="st8" points="687.3,370.8 687,358.8 689.9,359 690.4,381.7 687.5,381.5 688.7,381.2 688.5,374 688.4,370.9 		"/>
            <polygon class="st8" points="687.5,381.3 690.4,381.7 692.1,381.4 694.2,381.4 690.6,381.9 685.8,381.5 		"/>
            <polygon class="st8" points="692.1,381.4 690.4,381.7 689.9,359 691.6,358.8 692.1,381.2 		"/>
            <polygon class="st8" points="685.8,381.5 690.6,381.9 690.7,387.5 686.2,387.2 		"/>
            <polygon class="st8" points="690.7,387.5 690.6,381.9 694.2,381.4 694.3,387 693.7,387.1 		"/>
            <polygon class="st8" points="693.6,354.1 693.7,358.6 691.6,358.8 690.1,359 690,353.9 		"/>
            <polygon class="st8" points="475,379.3 475,372.3 480.6,372.8 480.7,379.8 477.8,379.6 		"/>
            <polygon class="st8" points="624.3,389.9 621.1,390.3 618.3,390.7 618.1,382.7 624.2,382 		"/>
            <polygon class="st8" points="614.1,390.4 611,390.1 610.8,382.2 618.1,382.7 618.3,390.7 		"/>
            <polygon class="st8" points="685.8,381.5 683.7,381.8 683.6,374.6 688.5,374 688.7,381.2 687.5,381.3 		"/>
            <polygon class="st8" points="772.6,362.5 779,362.8 779.1,368.9 775,368.7 772.8,368.6 		"/>
            <polygon class="st8" points="779,362.8 782.5,362.4 782.7,368.4 780.3,368.8 779.1,368.9 		"/>
	</g>
</g>
</svg>
