<?xml version="1.0" encoding="utf-8"?>
<!-- Generator: Adobe Illustrator 25.0.1, SVG Export Plug-In . SVG Version: 6.00 Build 0)  -->
<svg version="1.1" id="katman_1" xmlns="http://www.w3.org/2000/svg" x="0px" y="0px"
     viewBox="0 0 841.9 595.3" style="enable-background:new 0 0 841.9 595.3;" xml:space="preserve">
<style type="text/css">
	.st0{fill:#8F6645;}
	.st1{fill:#EEEEEE;}
	.st2{fill:#DDDDDD;}
	.st3{fill:#3D3A37;}
	.st4{fill:#C4C4C4;}
	.st5{fill:#3D3A37;}
	.st6{fill:#000000;}
	.st7{fill:#FFFFFF;}
	.st8{fill:#888888;}
	.st9{fill:#7884AF;}
</style>

    <g id="roof">
	<polygon class="st3" points="547.7,112 665.6,192.8 358.9,123 375.9,62.5 				"/>
        <polygon class="st3" points="375.9,62.5 358.9,123 209.8,155.3 				"/>
</g>


    <g id="body">
	<g>
		<polygon class="st0" points="358.9,123 665.6,192.8 671.3,484.1 357.4,532.5 				"/>
        <polygon class="st4" points="209.8,155.3 358.9,123 357.4,532.5 204.4,510 207.2,329.5 207.2,323.8 207.9,283.7 				"/>
        <polygon class="st4" points="207.9,283.7 207.2,323.8 131.8,327.2 132.6,290.1 				"/>
        <polygon class="st4" points="207.2,329.5 131.8,327.2 207.2,323.8 				"/>
	</g>
</g>


    <g id="chimney">
	<polygon class="st5" points="545.5,63.1 541.1,64.1 541,61.5 			"/>
        <polygon class="st5" points="551.3,49.4 545.5,63.1 541,61.5 541.1,64.1 541.7,127.4 538,126.3 537.3,60.2 533.3,58.8
			526.9,40.4 532.9,26.6 545.1,31.3 			"/>
        <polygon class="st6" points="538,126.3 531.1,123 530.5,61.9 537.3,60.2 			"/>
        <polygon class="st6" points="537.3,60.2 530.5,61.9 526.4,60.4 533.3,58.8 			"/>
        <polygon class="st6" points="533.3,58.8 526.4,60.4 520,42.1 526.9,40.4 			"/>
        <polygon class="st6" points="526.9,40.4 520,42.1 526.1,28.4 532.9,26.6 			"/>
</g>


    <g id="right-window">
	<g>
		<g>
			<polygon class="st8" points="296.2,163.3 286.5,160.9 291.1,161.6 300.7,164.1 				"/>
            <path class="st7" d="M286.5,160.9l9.6,2.5l8.7,6.5l7.1,10.1l5,13l2.4,15l-0.4,15.9l-3.1,15.6l-5.6,14.1l-7.6,11.6l-9.1,8.3
				l-9.9,4.4l-9.9,0.4l-9.3-3.6l-8.1-7.2l-6.4-10.3l-4.3-12.6l-2-14.1l0.4-14.8l2.8-14.6l5-13.4l6.9-11.4l8.4-8.7l9.4-5.3
				L286.5,160.9z M269.4,176.4l-7,7.2l17.5,26.3l20.7-31.5l-7.2-5.4l-8-2.1l-8.2,1.2L269.4,176.4z M283.1,268l8.2-3.8l7.5-6.9
				l-42.2-64.2l-4.2,11.2l-2.3,12.2l-0.3,12.4l1.7,11.8l3.6,10.5l5.3,8.5l6.7,5.9l7.7,2.9L283.1,268z M312.5,210l-2-12.4l-3.3-8.7
				l-20.3,31.7l18.2,27.3l4.6-11.7l2.5-12.9L312.5,210z"/>
            <polygon class="st8" points="296.2,163.3 300.7,164.1 309.4,170.5 304.9,169.8 				"/>
            <polygon class="st8" points="309.4,170.5 316.5,180.6 312,179.9 304.9,169.8 				"/>
            <polygon class="st8" points="316.5,180.6 321.5,193.5 316.9,192.9 312,179.9 				"/>
            <polygon class="st8" points="316.9,192.9 321.5,193.5 323.9,208.5 319.4,207.9 				"/>
            <polygon class="st8" points="323.9,208.5 323.6,224.4 319,223.8 319.4,207.9 				"/>
            <polygon class="st8" points="323.6,224.4 320.5,240 315.9,239.5 319,223.8 				"/>
            <polygon class="st8" points="320.5,240 314.9,254.1 310.3,253.6 315.9,239.5 				"/>
            <polygon class="st8" points="314.9,254.1 307.2,265.6 302.6,265.3 310.3,253.6 				"/>
            <polygon class="st8" points="307.2,265.6 298.1,273.9 293.6,273.6 302.6,265.3 				"/>
            <polygon class="st8" points="298.1,273.9 288.3,278.3 283.7,278 293.6,273.6 				"/>
            <polygon class="st8" points="288.3,278.3 278.3,278.7 273.8,278.4 283.7,278 				"/>
		</g>
        <polygon class="st9" points="262.4,183.6 269.4,176.4 277.3,172 285.5,170.8 293.4,173 300.6,178.4 279.9,209.9 			"/>
        <polygon class="st9" points="291.2,264.3 283.1,268 274.9,268.4 267.1,265.5 260.4,259.6 255.1,251.1 251.4,240.6 249.8,228.8
			250.1,216.5 252.4,204.3 256.6,193.1 298.8,257.4 			"/>
        <polygon class="st9" points="310.5,197.5 312.5,210 312.2,223.1 309.7,236 305.1,247.7 286.9,220.5 307.2,188.8 			"/>
	</g>
        <g>
		<g>
			<polygon class="st7" points="292.4,332 282.7,327.8 287.3,327.9 297,332.1 				"/>
            <path class="st7" d="M282.7,327.8l9.7,4.2l8.8,8.1l7.2,11.5l5,14.2l2.4,15.8l-0.4,16.3l-3.1,15.5l-5.6,13.6l-7.7,10.6l-9.2,6.9
				l-9.9,2.9l-10-1.3l-9.4-5.3l-8.1-8.8l-6.4-11.6l-4.3-13.7l-2-14.8L240,377l2.8-14.5l5-12.9l6.9-10.6l8.5-7.5l9.5-3.9
				L282.7,327.8z M265.4,340.9l-7.1,6.2l17.6,30l20.9-28.8l-7.2-6.8l-8-3.6l-8.3-0.2L265.4,340.9z M279.2,437.2l8.2-2.4l7.6-5.8
				l-42.5-73.1l-4.2,10.8l-2.3,12.1l-0.3,12.6l1.7,12.4l3.6,11.4l5.4,9.6l6.8,7.2l7.8,4.3L279.2,437.2z M308.8,382.7l-2-13.1
				l-3.3-9.5l-20.5,29l18.3,31.1l4.6-11.2l2.6-12.8L308.8,382.7z"/>
            <polygon class="st8" points="292.4,332 297,332.1 305.7,340.2 301.1,340.1 				"/>
            <polygon class="st8" points="305.7,340.2 312.9,351.7 308.3,351.7 301.1,340.1 				"/>
            <polygon class="st8" points="312.9,351.7 317.9,365.8 313.3,365.9 308.3,351.7 				"/>
            <polygon class="st8" points="313.3,365.9 317.9,365.8 320.3,381.6 315.7,381.7 				"/>
            <polygon class="st8" points="320.3,381.6 320,397.8 315.4,398 315.7,381.7 				"/>
            <polygon class="st8" points="320,397.8 316.9,413.3 312.2,413.6 315.4,398 				"/>
            <polygon class="st8" points="316.9,413.3 311.2,426.8 306.6,427.1 312.2,413.6 				"/>
            <polygon class="st8" points="311.2,426.8 303.5,437.4 298.9,437.7 306.6,427.1 				"/>
            <polygon class="st8" points="303.5,437.4 294.3,444.3 289.7,444.7 298.9,437.7 				"/>
            <polygon class="st8" points="294.3,444.3 284.4,447.1 279.8,447.6 289.7,444.7 				"/>
		</g>
            <polygon class="st9" points="258.3,347 265.4,340.9 273.3,337.7 281.6,337.9 289.6,341.4 296.8,348.2 275.9,377 			"/>
            <polygon class="st9" points="287.4,434.8 279.2,437.2 270.9,436.2 263.1,431.9 256.3,424.7 251,415.1 247.3,403.7 245.6,391.3
				246,378.7 248.3,366.6 252.5,355.8 295,429 			"/>
            <polygon class="st9" points="306.8,369.6 308.8,382.7 308.5,396.1 305.9,408.9 301.3,420.2 283,389.1 303.5,360 			"/>
	</g>
</g>


    <g>
	<g>
		<polygon class="st7" points="437.4,328.3 440.4,327.7 437.8,328.3 		"/>
        <polygon class="st7" points="446.6,327 449.7,326.8 447,326.9 		"/>
        <polygon class="st7" points="440.4,327.7 443.5,327.2 440.9,327.7 		"/>
        <polygon class="st7" points="443.5,327.2 446.6,327 444,327.2 		"/>
        <g>
			<polygon class="st9" points="452.4,374.8 452.7,491.8 418.8,497.2 418.3,375.5 451.9,374.4 			"/>
            <path class="st7" d="M457.8,369.4l0.4,127l-46.9,7.1l0.1-133.3L457.8,369.4z M453.4,492.6l-0.3-118.7l-35.3,0.8v123.1
				L453.4,492.6z"/>
            <polygon class="st8" points="461.1,496.4 458.2,496.8 457.9,369.4 460.7,369.3 461.1,496 			"/>
            <path class="st7" d="M503.7,489.5l-42.5,6.4l-0.4-126.6l42.2-0.7L503.7,489.5z M498.3,486l-0.7-113l-32,0.7l0.4,117.1L498.3,486
				z"/>
            <polygon class="st9" points="503.2,366 411,367.3 411.1,365 411.4,362.6 411.9,360.3 412.6,358 413.5,355.8 414.6,353.6
				415.9,351.4 417.3,349.4 418.9,347.4 420.7,345.5 422.6,343.7 424.6,341.9 426.8,340.3 429.2,338.9 431.6,337.5 434.1,336.3
				436.7,335.1 439.4,334.2 442.2,333.3 445,332.6 447.8,332.1 450.7,331.6 453.6,331.4 456.4,331.2 459.1,331.2 462,331.4
				464.9,331.6 467.7,332 470.4,332.6 473.1,333.3 475.8,334.1 478.3,335 480.8,336 483.2,337.2 485.5,338.4 487.6,339.8
				489.7,341.2 491.6,342.8 493.4,344.4 495,346.1 496.5,347.9 497.9,349.7 499.1,351.6 500.2,353.6 501.1,355.6 501.9,357.6
				502.4,359.7 502.9,361.8 503.1,363.9 			"/>
            <polygon class="st9" points="497,373.8 497.7,485.3 467,490.2 466.1,374.5 496.6,373.4 			"/>
            <path class="st7" d="M427.1,337l2.6-1.4l2.7-1.3l2.8-1.2l2.9-1l2.9-0.9l3-0.7l3-0.6l3.1-0.4l3.1-0.3l3.1-0.1l3.1,0l3.1,0.2
				l3,0.3l3,0.5l2.9,0.6l2.9,0.7l2.8,0.9l2.7,1l2.6,1.1l2.5,1.2l2.4,1.3l2.3,1.4l2.2,1.5l2,1.6l1.9,1.7l1.7,1.8l1.6,1.9l1.4,2l1.3,2
				l1.1,2.1l1,2.1l0.8,2.2l0.6,2.2l0.5,2.2l0.3,2.2l0.1,2.3l0.9,125.7l-99.6,15.4l0.1-139.7l0.1-2.5l0.3-2.5l0.5-2.5l0.7-2.4l1-2.4
				l1.2-2.4l1.4-2.3l1.5-2.2l1.7-2.1l1.9-2l2.1-1.9l2.2-1.8l2.3-1.7L427.1,337z M410.9,504.1l93.4-14.2l-0.8-121.6l-0.7,0l-43,0.7
				l-1,0l-47.4,0.8l-0.4-2.4l92.5-1.3l-0.1-2.1l-0.3-2.1l-0.4-2.1l-0.6-2.1l-0.8-2l-0.9-2l-1.1-2l-1.2-1.9l-1.4-1.8l-1.5-1.8
				l-1.7-1.7l-1.8-1.6l-1.9-1.5l-2-1.5l-2.2-1.4l-2.3-1.3l-2.4-1.1l-2.5-1l-2.6-0.9l-2.6-0.8l-2.7-0.7L468,332l-2.8-0.4l-2.9-0.3
				l-2.9-0.1h-2.9l-2.9,0.1l-2.9,0.3l-2.9,0.4l-2.9,0.6l-2.8,0.7l-2.8,0.8l-2.7,1l-2.6,1.1l-2.5,1.2l-2.4,1.4l-2.3,1.5l-2.2,1.6
				l-2.1,1.7l-1.9,1.8l-1.8,1.9l-1.6,2l-1.4,2.1l-1.3,2.1l-1.1,2.2l-0.9,2.2l-0.7,2.3l-0.5,2.3l-0.3,2.3l-0.1,2.3l0,2.5l-0.1,133.8
				V504.1z"/>
		</g>
        <g>
			<polygon class="st9" points="602,370.1 603.4,468.1 579.8,471.9 578.2,370.6 601.6,369.7 			"/>
            <path class="st7" d="M605.8,365.6l1.6,106.4l-32.7,5l-1.4-110.9L605.8,365.6z M603.9,468.7l-1.4-99.4l-24.7,0.5l1.3,102.5
				L603.9,468.7z"/>
            <polygon class="st8" points="609.5,472.1 607.4,472.4 605.8,365.6 607.9,365.5 609.4,471.7 			"/>
            <path class="st7" d="M639.6,467.1l-30.1,4.6l-1.6-106.2l29.9-0.5L639.6,467.1z M635.7,464.1l-1.6-95.4l-22.8,0.5l1.5,98.3
				L635.7,464.1z"/>
            <polygon class="st9" points="638,362.8 573.1,363.7 573.1,361.8 573.3,359.8 573.6,357.9 574.1,356 574.7,354.1 575.4,352.3
				576.3,350.5 577.2,348.8 578.3,347.1 579.6,345.5 580.9,344 582.3,342.6 583.8,341.2 585.4,340 587.1,338.8 588.8,337.8
				590.7,336.9 592.5,336 594.5,335.3 596.4,334.7 598.4,334.2 600.4,333.9 602.5,333.6 604.5,333.5 606.3,333.5 608.3,333.6
				610.3,333.8 612.3,334.2 614.3,334.6 616.2,335.2 618.1,335.8 619.9,336.6 621.7,337.5 623.4,338.4 625,339.5 626.6,340.6
				628,341.9 629.4,343.1 630.7,344.5 631.9,346 633,347.5 634,349 634.9,350.6 635.7,352.3 636.4,354 636.9,355.7 637.4,357.5
				637.7,359.2 637.9,361 			"/>
            <polygon class="st9" points="633.6,369.4 635.3,463.4 613.5,466.9 611.7,369.8 633.3,369 			"/>
            <path class="st7" d="M583.9,338.4l1.8-1.2l1.9-1.1l1.9-1l2-0.9l2.1-0.8l2.1-0.6l2.1-0.5l2.2-0.4l2.2-0.3l2.2-0.1l2.2,0l2.2,0.1
				l2.1,0.2l2.1,0.4l2.1,0.5l2,0.6l2,0.7l1.9,0.8l1.9,0.9l1.8,1l1.7,1.1l1.7,1.2l1.6,1.3l1.5,1.4l1.4,1.5l1.3,1.5l1.2,1.6l1.1,1.7
				l0.9,1.7l0.8,1.8l0.7,1.8l0.6,1.8l0.5,1.9l0.3,1.9l0.2,1.9l0.1,1.9l1.9,106.2l-69.9,10.8l-1.4-116.1l0.1-2.1l0.2-2.1l0.3-2.1
				l0.5-2l0.6-2l0.8-2l0.9-1.9l1-1.8l1.2-1.8l1.3-1.7l1.4-1.6l1.5-1.5l1.6-1.4L583.9,338.4z M574.5,477.4l65.6-10l-1.8-102.7
				l-31.1,0.5l-0.7,0l-33.2,0.5l-0.2-2l65.2-0.9l-0.1-1.8l-0.2-1.8l-0.3-1.8l-0.4-1.8l-0.6-1.7l-0.7-1.7l-0.8-1.7l-0.9-1.6l-1-1.6
				l-1.1-1.5l-1.2-1.4l-1.3-1.4l-1.4-1.3l-1.5-1.2l-1.5-1.1l-1.6-1.1l-1.7-1l-1.8-0.9l-1.8-0.8l-1.9-0.7l-1.9-0.6l-2-0.5l-2-0.3
				l-2-0.2l-2-0.1l-2,0l-2,0.1l-2,0.2l-2,0.4l-2,0.5l-2,0.6l-1.9,0.7l-1.9,0.8l-1.8,0.9l-1.8,1l-1.7,1.2l-1.6,1.2l-1.5,1.3l-1.4,1.4
				l-1.3,1.5l-1.2,1.6l-1.1,1.7l-1,1.7l-0.9,1.8l-0.7,1.8l-0.6,1.9l-0.5,1.9l-0.3,1.9l-0.2,2l0,1.9l0,2l1.4,111.2V477.4z"/>
		</g>
        <polygon class="st7" points="631,302.2 629.5,302.1 631.1,302 632.6,302.1 		"/>
        <polygon class="st7" points="577.4,298.7 575.5,298.6 577.1,298.5 579,298.6 		"/>
        <polygon class="st7" points="606.4,300.6 600.3,300.2 601.9,300.1 608,300.5 		"/>
        <g>
			<polygon class="st9" points="628.1,217.2 629.5,302.1 606.4,300.6 608,300.5 606.7,213.4 			"/>
            <polygon class="st9" points="600.3,300.2 577.4,298.7 579,298.6 577.8,208.3 599,212.1 			"/>
            <g>
				<polygon class="st8" points="629.5,302.1 628.1,217.2 629.6,217 631.1,302 				"/>
                <polygon class="st7" points="628.1,217.2 606.7,213.4 629.6,217 				"/>
                <polygon class="st7" points="575.5,298.6 574.3,203.5 575.8,203.3 577.1,298.5 				"/>
                <polygon class="st7" points="600.3,300.2 599,212.1 600.6,211.9 601.9,300.1 				"/>
                <polygon class="st7" points="599,212.1 577.8,208.3 600.6,211.9 				"/>
                <polygon class="st7" points="629.6,217 606.7,213 608,300.5 601.9,300.1 600.6,211.9 577.8,207.9 579,298.6 577.1,298.5
					575.8,203.3 631,213.3 632.6,302.1 631.1,302 				"/>
			</g>
		</g>
        <g>
			<polygon class="st8" points="488,295.7 487.4,195.7 489.1,195.5 489.7,295.7 			"/>
            <polygon class="st9" points="487.4,195.7 488,295.7 455.7,293.6 457.3,293.6 456.9,190.3 			"/>
            <polygon class="st8" points="411.7,290.8 411.7,177.3 413.4,177.1 413.4,290.7 			"/>
            <polygon class="st8" points="490.1,295.9 488,295.7 489.7,295.7 491.8,295.8 			"/>
            <polygon class="st8" points="414.5,291 411.7,290.8 413.4,290.7 416.2,290.9 			"/>
            <polygon class="st9" points="447.1,293.1 414.5,291 416.2,290.9 416.1,183.2 446.8,188.5 			"/>
            <polygon class="st8" points="447.1,293.1 446.8,188.5 448.4,188.3 448.8,293 			"/>
            <polygon class="st7" points="455.7,293.6 447.1,293.1 448.8,293 457.3,293.6 			"/>
            <polygon class="st7" points="489.1,195.5 456.9,189.8 457.3,293.6 448.8,293 448.4,188.3 416.1,182.6 416.2,290.9 413.4,290.7
				413.4,177.1 491.1,191.1 491.8,295.8 489.7,295.7 			"/>
		</g>
	</g>
</g>
</svg>
