<?xml version="1.0" encoding="utf-8"?>
<!-- Generator: Adobe Illustrator 25.0.1, SVG Export Plug-In . SVG Version: 6.00 Build 0)  -->
<svg version="1.1" id="katman_1" xmlns="http://www.w3.org/2000/svg" x="0px" y="0px"
     viewBox="0 0 841.9 595.3" style="enable-background:new 0 0 841.9 595.3;" xml:space="preserve">
<style type="text/css">
	.st0{fill:#8F6645;}
	.st1{fill:#EEEEEE;}
	.st2{fill:#DDDDDD;}
	.st3{fill:#3D3A37;}
	.st4{fill:#C4C4C4;}
	.st5{fill:#3D3A37;}
	.st6{fill:#000000;}
	.st7{fill:#FFFFFF;}
	.st8{fill:#888888;}
	.st9{fill:#7884AF;}
</style>


    <g id="body">
	<polygon class="st4" points="717.6,333.9 717.9,369.5 645.1,372.7 644.9,334.3 		"/>
        <polygon class="st4" points="646.1,548.7 501.2,581.3 500.6,193.3 644.2,210.6 644.9,333.6 644.9,334.3 645.1,372.7 		"/>
        <polygon class="st0" points="500.6,193.3 501.2,581.3 203.9,510.1 205.8,231.2 		"/>
</g>


    <g id="roof">
	<polygon class="st3" points="508,114.3 644.1,211.1 500.5,193.7 		"/>
        <polygon class="st3" points="335.1,149.3 508,114.3 500.5,193.7 205.7,231.7 		"/>
</g>

    <g id="chimney">
	<polygon class="st6" points="470.5,13.1 477.6,15 486.4,31.9 479.2,30 		"/>
        <polygon class="st6" points="486.4,31.9 477.7,53.6 470.5,51.9 479.2,30 		"/>
        <polygon class="st6" points="470.5,51.9 477.7,53.6 471.4,55.2 464.3,53.6 		"/>
        <polygon class="st5" points="479.2,30 470.5,51.9 464.3,53.6 464.3,132.9 459.2,133.8 459.1,57.6 459.1,54.9 453.6,56.4
		445.3,39.6 453.6,18.1 470.5,13.1 		"/>
        <polygon class="st6" points="471.5,129.5 464.3,132.9 464.3,53.6 471.4,55.2 		"/>
        <polygon class="st6" points="459.1,57.6 453.6,56.4 459.1,54.9 		"/>
</g>


    <g id="left-window">
	<polygon class="st9" points="540.6,454.9 610.1,446.5 610.4,496.6 540.8,508.4 		"/>
        <polygon class="st9" points="610.1,440 540.6,447.9 540.6,436.6 610.1,429.3 		"/>
        <g>
		<polygon class="st8" points="530.8,433.3 613.4,425.1 616.1,425.3 533.5,433.6 			"/>
            <polygon class="st8" points="531,512.9 530.8,433.3 533.5,433.6 533.7,513.3 			"/>
            <path class="st7" d="M533.5,433.6l82.6-8.3l0.4,73.7l-82.8,14.4L533.5,433.6z M610.1,446.5l-69.5,8.4l0.2,53.5l69.6-11.8
			L610.1,446.5z M540.6,447.9l69.5-8l0-10.6l-69.5,7.2L540.6,447.9z"/>
	</g>
</g>


    <g>
	<g>
		<polygon class="st8" points="365.1,251.5 364.9,351.9 363.3,352 363.5,251.4 		"/>
        <polygon class="st9" points="364.9,351.9 365.1,251.5 393,249.4 392.8,352.8 		"/>
        <polygon class="st8" points="440.3,240.6 440.3,354.2 438.6,354.2 438.6,240.5 		"/>
        <polygon class="st9" points="436.2,354.1 403,353.1 403.1,248.6 436.2,246 		"/>
        <polygon class="st7" points="403.1,248.6 403,353.1 401.3,353.1 401.4,248.5 		"/>
        <polygon class="st7" points="401.4,248.5 401.3,353.1 392.8,352.8 393,249.4 363.5,251.4 363.3,352 360.9,351.9 361.1,246.9
			438.6,240.5 438.6,354.2 436.2,354.2 436.2,246 		"/>
	</g>


        <g>
		<polygon class="st8" points="227,262.2 226.5,347.7 224.9,347.8 225.5,262.1 		"/>
            <polygon class="st9" points="226.5,347.7 227,262.2 246.8,260.7 246.3,348.3 		"/>
            <polygon class="st8" points="246.8,260.7 227,262.2 225.5,262.1 246.8,260.5 		"/>
            <polygon class="st7" points="281,253.7 280.5,349.4 278.9,349.4 279.4,253.7 		"/>
            <polygon class="st9" points="277.2,349.3 253.9,348.6 254.4,260.1 277.7,258.3 		"/>
            <polygon class="st7" points="277.7,258.3 254.4,260.1 252.8,260 277.7,258.1 		"/>
            <polygon class="st7" points="254.4,260.1 253.9,348.6 252.4,348.6 252.8,260 		"/>
            <polygon class="st7" points="252.8,260 252.4,348.6 246.3,348.4 246.8,260.7 225.5,262.1 224.9,347.8 223.2,347.7 223.8,258.3
			279.4,253.7 278.9,349.4 277.2,349.4 277.7,258.3 		"/>
	</g>


        <g>
		<polygon class="st9" points="540.1,265.7 609.3,269.4 609.5,318.9 540.2,318.6 		"/>
            <polygon class="st9" points="609.3,262.9 540.1,258.8 540,247.5 609.2,252.4 		"/>
            <polygon class="st9" points="613,322.4 530.5,322.3 533.2,322.3 615.6,322.4 		"/>
            <g>
			<polygon class="st8" points="530.5,322.3 530.3,243.6 533,243.4 533.2,322.3 			"/>
                <path class="st7" d="M533,243.4l82.3,6.1l0.4,73l-82.4-0.1L533,243.4z M609.3,269.4l-69.2-3.7l0.1,52.9l69.3,0.3L609.3,269.4z
				 M540.1,258.8l69.2,4.1l-0.1-10.5l-69.2-4.9L540.1,258.8z"/>
		</g>
	</g>

        <g>
		<g>
			<polygon class="st9" points="444.8,430.9 354.6,421.4 354.7,419.3 355,417.2 355.4,415.2 355.9,413.2 356.7,411.2 357.6,409.3
				358.6,407.5 359.8,405.7 361.1,404 362.6,402.4 364.2,400.9 366,399.4 367.9,398.1 369.9,396.8 372,395.7 374.2,394.7
				376.6,393.8 379,392.9 381.5,392.3 384.1,391.7 386.7,391.3 389.4,391 391.9,390.9 394.7,390.9 397.5,391 400.4,391.3
				403.2,391.7 406,392.2 408.9,392.9 411.7,393.7 414.4,394.7 417.1,395.8 419.7,397 422.3,398.3 424.8,399.8 427.2,401.3
				429.4,403 431.6,404.8 433.6,406.7 435.4,408.6 437.2,410.7 438.7,412.8 440.1,414.9 441.4,417.1 442.4,419.4 443.3,421.7
				444,424 444.5,426.3 444.8,428.6 			"/>
            <path class="st7" d="M351.3,544.3l0.3-123.2l0.1-2.2l0.3-2.2l0.4-2.2l0.6-2.1l0.8-2.1l0.9-2l1.1-2l1.3-1.9l1.4-1.8l1.6-1.7
				l1.7-1.6l1.9-1.5l2-1.4l2.1-1.3l2.2-1.2l2.4-1.1l2.5-1l2.6-0.9l2.7-0.7l2.8-0.6l2.8-0.4l2.9-0.3l2.9-0.2l3,0l3,0.1l3,0.3l3,0.4
				l3,0.6l3,0.7l3,0.9l2.9,1l2.9,1.1l2.8,1.3l2.7,1.4l2.6,1.5l2.5,1.7l2.4,1.8l2.3,1.9l2.2,2l2,2.1l1.8,2.2l1.7,2.2l1.5,2.3l1.3,2.4
				l1.1,2.4l0.9,2.5l0.7,2.5l0.5,2.5l0.3,2.5l0.1,2.5l0,136.2L351.3,544.3z M354.3,423.6l-0.3,119.2l90.8,21.6l0-130.6l-46.6-5.4
				l-0.8-0.1l-42.4-4.6L354.3,423.6z M354.4,419.3l-0.1,2.1v2.2l-0.3,119.2l90.8,21.6l0-130.6l-46.6-5.4l-0.8-0.1l-42.4-4.6
				l-0.7-2.3l90.5,9.6l-0.1-2.3l-0.3-2.3L444,424l-0.7-2.3l-0.9-2.3l-1-2.2l-1.2-2.2l-1.4-2.2l-1.6-2.1l-1.7-2l-1.9-2l-2-1.9
				l-2.1-1.8l-2.3-1.7l-2.4-1.6l-2.5-1.5l-2.6-1.3l-2.6-1.2l-2.7-1.1l-2.7-0.9l-2.8-0.8l-2.8-0.7l-2.8-0.5l-2.9-0.4l-2.8-0.3
				l-2.8-0.1l-2.8,0l-2.5,0.1l-3,0.3l-2.7,0.4l-2.6,0.5l-2.5,0.7l-2.4,0.8l-2.3,0.9l-2.2,1l-2.1,1.1l-2,1.2l-1.9,1.4l-1.8,1.4
				l-1.6,1.5l-1.5,1.6l-1.3,1.7l-1.2,1.8l-1,1.8l-0.9,1.9l-0.7,2l-0.6,2l-0.4,2L354.4,419.3z"/>
		</g>
            <polygon class="st9" points="438.3,557.7 403.7,549.6 403.8,433.7 438.3,437.6 		"/>
            <polygon class="st9" points="391.4,546.8 359.9,539.5 360.1,428.7 391.7,432.4 		"/>
	</g>
        <g>
		<g>
			<polygon class="st9" points="282.3,413.7 217.9,406.9 218,405.1 218.1,403.4 218.5,401.6 218.9,399.9 219.4,398.3 220.1,396.6
				220.8,395.1 221.7,393.5 222.7,392.1 223.7,390.7 224.9,389.4 226.2,388.1 227.6,386.9 229,385.9 230.5,384.9 232.2,384 
				233.8,383.2 235.6,382.5 237.4,381.9 239.3,381.4 241.2,381 243.1,380.8 245,380.6 246.8,380.6 248.9,380.7 250.9,380.9 
				252.9,381.2 254.9,381.6 257,382.2 259,382.8 260.9,383.6 262.8,384.5 264.7,385.5 266.5,386.6 268.3,387.8 269.9,389.1 
				271.5,390.5 273.1,391.9 274.5,393.5 275.8,395.1 277,396.8 278.1,398.6 279.1,400.4 279.9,402.2 280.7,404.1 281.3,406 
				281.7,407.9 282.1,409.9 282.3,411.8 			"/>
            <path class="st7" d="M215,511.6l0.7-104.9l0.1-1.9l0.2-1.9l0.3-1.8l0.4-1.8l0.6-1.8l0.7-1.7l0.8-1.7l0.9-1.6l1-1.6l1.1-1.5
				l1.3-1.4l1.3-1.3l1.4-1.2l1.6-1.1l1.6-1.1l1.7-1l1.8-0.9l1.9-0.7l1.9-0.6l2-0.5l2-0.4l2.1-0.3l2.1-0.2l2.1,0l2.2,0.1l2.2,0.2
				l2.2,0.3l2.2,0.5l2.2,0.6l2.1,0.7l2.1,0.8l2,0.9l2,1.1l1.9,1.2l1.9,1.3l1.8,1.4l1.7,1.5l1.6,1.6l1.5,1.7l1.4,1.7l1.3,1.8l1.2,1.9
				l1.1,1.9l0.9,2l0.8,2l0.7,2l0.5,2.1l0.4,2.1l0.2,2.1l0.1,2.1l-0.5,114.2L215,511.6z M217.6,408.8L217,510.2l64.9,15.4l0.5-109.5
				l-33.1-3.9l-0.7-0.1l-30.4-3.3L217.6,408.8z M217.7,405.1l-0.1,1.8l0,1.9L217,510.2l64.9,15.4l0.5-109.5l-33.1-3.9l-0.7-0.1
				l-30.4-3.3l-0.5-1.9l64.7,6.8l-0.1-1.9l-0.2-1.9l-0.3-1.9l-0.5-1.9l-0.6-1.9l-0.7-1.9l-0.9-1.8l-1-1.8l-1.1-1.8l-1.2-1.7
				l-1.3-1.6l-1.4-1.6l-1.5-1.5l-1.6-1.4l-1.7-1.3l-1.8-1.2l-1.8-1.1l-1.9-1l-1.9-0.9l-2-0.8l-2-0.7l-2-0.6l-2-0.4l-2-0.3l-2-0.2
				l-2-0.1l-1.8,0l-2.1,0.2l-1.9,0.3l-1.9,0.4l-1.9,0.5l-1.8,0.6l-1.8,0.7l-1.7,0.8l-1.6,0.9l-1.5,1l-1.5,1.1l-1.4,1.2l-1.3,1.2
				l-1.2,1.3l-1.1,1.4l-1,1.5l-0.9,1.5l-0.8,1.6l-0.6,1.6l-0.5,1.7l-0.4,1.7l-0.3,1.7L217.7,405.1z"/>
		</g>
            <polygon class="st9" points="280.4,517.7 253.3,511.4 253.4,420.5 280.4,423.6 		"/>
            <polygon class="st9" points="243.6,509.2 218.9,503.4 219.1,416.7 243.9,419.5 		"/>
	</g>
</g>
</svg>
