<?xml version="1.0" encoding="utf-8"?>
<!-- Generator: Adobe Illustrator 25.0.1, SVG Export Plug-In . SVG Version: 6.00 Build 0)  -->
<svg version="1.1" id="katman_1" xmlns="http://www.w3.org/2000/svg" x="0px" y="0px"
     viewBox="0 0 841.9 595.3" style="enable-background:new 0 0 841.9 595.3;" xml:space="preserve">
<style type="text/css">
	.st0{fill:#8F6645;}
	.st1{fill:#EEEEEE;}
	.st2{fill:#DDDDDD;}
	.st3{fill:#3D3A37;}
	.st4{fill:#C4C4C4;}
	.st5{fill:#3D3A37;}
	.st6{fill:#000000;}
	.st7{fill:#FFFFFF;}
	.st8{fill:#888888;}
	.st9{fill:#7884AF;}
</style>


    <g id="roof">
	<polygon class="st3" points="324.3,123.7 331.1,118.9 355.5,114.5 359.8,113.7 365.8,112.6 521.2,84 563,159.1 424.6,174.8
		406.7,136.4 			"/>
        <polygon class="st3" points="217.3,198.3 244.5,179.4 246.9,179.6 246.8,195 			"/>
        <polygon class="st3" points="521.2,84 685,178.2 563,159.1 			"/>
        <polygon class="st3" points="406.7,136.4 424.6,174.8 350.3,166 340.3,164.9 285.9,117.8 324.3,123.7 			"/>
        <polygon class="st3" points="285.9,117.8 340.3,164.9 237.1,178.7 			"/>
        <polygon class="st3" points="237.1,178.7 340.3,164.9 350.3,166 246.9,179.6 244.5,179.4 			"/>
</g>


    <g id="body">
	<polygon class="st0" points="216.4,479.8 216.9,342.7 220.6,342.9 246.5,341.8 246.1,486.5 			"/>
        <polygon class="st4" points="424.9,527.1 350.1,544.8 350.2,350.9 424.8,355.4 			"/>
        <polygon class="st0" points="424.9,527.1 424.8,355.4 463.9,357.8 563.8,350.9 564.6,558.8 			"/>
        <polygon class="st0" points="246.9,179.7 350.4,166.1 350.3,304.9 323.8,305.2 323.7,349.3 350.2,350.9 350.1,544.8 246,517.5
			246.1,486.5 246.5,341.8 246.6,303.4 246.9,195 			"/>
        <polygon class="st4" points="350.4,166.1 424.6,174.9 424.7,306.6 350.3,305.6 350.3,304.9 			"/>
        <polygon class="st0" points="424.6,174.9 563.1,159.2 563.6,305.6 463.8,307.1 424.7,306.6 			"/>
        <polygon class="st4" points="563.1,159.2 685.1,178.3 687.2,520.3 564.6,558.8 563.8,350.9 563.6,305.6 			"/>
        <polygon class="st0" points="217.4,198.4 246.9,195 246.6,303.4 220.7,303.7 217,303.6 217,301.5 			"/>
        <polygon class="st0" points="121.2,336.9 121.3,302.3 217,303.6 220.7,303.7 220.6,342.9 216.9,342.7 			"/>
        <polygon class="st4" points="220.6,342.9 220.7,303.7 246.6,303.4 246.5,341.8 			"/>
        <polygon class="st0" points="323.7,349.3 323.8,305.2 350.3,305.6 424.7,306.6 463.8,307.1 463.9,357.8 424.8,355.4 350.2,350.9
						"/>
        <polygon class="st4" points="463.9,357.8 463.8,307.1 563.6,305.6 563.8,350.9 			"/>
        <polygon class="st4" points="121.3,302.3 217,301.5 217,303.6 			"/>
</g>


    <g id="chimney">
	<g>
		<polygon class="st5" points="373.9,35.1 387.9,31.4 395.1,46 387.9,64.2 383.2,65.3 383.2,109.4 378.9,110.2 378.9,68.5
			378.9,66.2 373.8,67.4 367,52.9 			"/>
        <polygon class="st6" points="378.9,68.5 373.8,67.4 378.9,66.2 			"/>
        <polygon class="st6" points="394,32.9 401.2,47.4 395.1,46 387.9,31.4 			"/>
        <polygon class="st6" points="395.1,46 401.2,47.4 394,65.5 387.9,64.2 			"/>
        <polygon class="st6" points="387.9,64.2 394,65.5 389.3,66.5 383.2,65.3 			"/>
        <polygon class="st6" points="383.2,65.3 389.3,66.5 389.3,108.3 383.2,109.4 			"/>
	</g>
</g>


    <g id="right-window">
	<g>
		<g>
			<path class="st7" d="M639.3,191.3l8.1,5.4l7.1,8.9l5.6,11.7l3.9,13.8l2,15l-0.1,15.3l-2.1,14.7l-4.1,13.2l-5.8,10.8l-7.2,7.7
				l-8.2,4l-8.6-0.1l-8.4-4.3l-7.7-8.3l-6.4-11.9l-4.5-14.6l-2.3-16.2l0.1-16.6l2.5-15.8l4.7-13.7l6.5-10.7l7.8-7l8.5-2.8
				L639.3,191.3z M624.4,202.7l-6.4,5.8l16.2,32.2l16.9-27.7l-5.9-7.3l-6.7-4.4l-7.1-1.1L624.4,202.7z M637.8,301.6l6.8-3.3l6-6.4
				l-38-74.6l-3.9,11.4l-2.1,13l-0.1,13.7l1.9,13.4l3.7,12.1l5.2,9.8l6.3,7l7,3.6L637.8,301.6z M660.8,246.9l-1.6-12.6l-2.7-9.3
				l-16.1,28.1l15.1,30l3.4-11l1.8-12.3L660.8,246.9z"/>
            <polygon class="st8" points="625.4,190.3 630.7,189.9 622.2,192.7 616.9,193.1 				"/>
            <polygon class="st8" points="609.1,200 616.9,193.1 622.2,192.7 614.5,199.7 				"/>
            <polygon class="st8" points="607.4,287.4 613.7,299.2 608.3,299.2 602,287.4 				"/>
            <polygon class="st8" points="602,287.4 597.5,272.8 602.9,272.8 607.4,287.4 				"/>
            <polygon class="st8" points="597.5,272.8 595.2,256.7 600.6,256.5 602.9,272.8 				"/>
            <polygon class="st8" points="595.2,256.7 595.3,240.1 600.7,239.9 600.6,256.5 				"/>
            <polygon class="st8" points="595.3,240.1 597.9,224.4 603.3,224.1 600.7,239.9 				"/>
            <polygon class="st8" points="597.9,224.4 602.6,210.7 608,210.4 603.3,224.1 				"/>
            <polygon class="st8" points="602.6,210.7 609.1,200 614.5,199.7 608,210.4 				"/>
            <polygon class="st8" points="624.5,311.7 616,307.5 621.4,307.6 629.9,311.9 				"/>
            <polygon class="st8" points="621.4,307.6 616,307.5 608.3,299.2 613.7,299.2 				"/>
		</g>
        <polygon class="st9" points="617.9,208.6 624.4,202.7 631.4,200.3 638.5,201.3 645.2,205.7 651.1,213 634.2,240.8 			"/>
        <polygon class="st9" points="644.6,298.4 637.8,301.6 630.7,301.5 623.7,297.8 617.3,290.9 612.1,281 608.4,269 606.6,255.6
					606.7,241.9 608.7,228.8 612.6,217.5 650.6,292 			"/>
        <polygon class="st9" points="659,230.6 660.8,244.1 660.7,258 658.8,271.2 655.1,283 638.8,250.8 656.1,220.5 			"/>
	</g>
        <g>
		<g>
			<path class="st7" d="M638.3,363l8.1,3.6l7.1,7.4l5.7,10.6l3.9,13.1l2,14.8l-0.1,15.5l-2.2,15.3l-4.1,14.2l-5.8,12.2l-7.2,9.4
				l-8.2,5.8l-8.7,1.8l-8.5-2.5l-7.7-6.7l-6.4-10.6l-4.5-13.8l-2.3-15.9l0.1-16.9l2.5-16.5l4.7-14.9l6.5-12.2l7.8-8.7l8.5-4.7
				L638.3,363z M623.3,377.8l-6.5,7.3l16.4,29l17-31.7l-5.9-6.1l-6.8-3l-7.2,0.5L623.3,377.8z M636.8,474.8l6.8-4.8l6-7.7l-38.3-67
				l-3.9,12.3l-2.1,13.6l-0.1,13.9l1.9,13.1l3.7,11.4l5.3,8.8l6.4,5.6l7,2.1L636.8,474.8z M660,414.5l-1.7-12.3l-2.7-8.8
				l-16.2,31.9l15.2,27l3.4-11.9l1.8-12.8L660,414.5z"/>
            <polygon class="st8" points="633,362.7 638.3,363 629.7,363.5 624.3,363.1 				"/>
            <polygon class="st8" points="624.3,363.1 629.7,363.5 621.2,368.2 615.8,367.8 				"/>
            <polygon class="st8" points="607.9,376.5 615.8,367.8 621.2,368.2 613.3,376.9 				"/>
            <polygon class="st8" points="606.2,467.1 612.6,477.7 607.2,476.9 600.8,466.3 				"/>
            <polygon class="st8" points="600.8,466.3 596.2,452.6 601.7,453.3 606.2,467.1 				"/>
            <polygon class="st8" points="596.2,452.6 593.9,436.8 599.4,437.4 601.7,453.3 				"/>
            <polygon class="st8" points="593.9,436.8 594.1,420 599.5,420.6 599.4,437.4 				"/>
            <polygon class="st8" points="594.1,420 596.6,403.5 602,404.1 599.5,420.6 				"/>
            <polygon class="st8" points="596.6,403.5 601.4,388.7 606.8,389.1 602,404.1 				"/>
            <polygon class="st8" points="601.4,388.7 607.9,376.5 613.3,376.9 606.8,389.1 				"/>
            <polygon class="st8" points="623.5,486 614.9,483.6 620.3,484.4 628.8,486.9 				"/>
            <polygon class="st8" points="620.3,484.4 614.9,483.6 607.2,476.9 612.6,477.7 				"/>
		</g>
            <polygon class="st9" points="616.4,385.3 622.9,378 629.9,374 637.1,373.5 643.9,376.5 649.8,382.6 632.8,414.3 			"/>
            <polygon class="st9" points="643.3,470.2 636.4,475 629.2,476.4 622.2,474.3 615.8,468.6 610.6,459.8 606.8,448.4 604.9,435.3
				605.1,421.4 607.1,407.8 611,395.4 649.3,462.5 			"/>
            <polygon class="st9" points="657.9,402.3 659.6,414.7 659.5,427.6 657.7,440.5 654.2,452.3 639,425.4 655.2,393.5 			"/>
	</g>
</g>


    <g>
	<g>
		<g>
			<polygon class="st9" points="444.6,377.7 484.3,381.1 484.4,439.2 535.7,446.2 535.8,488.7 444.7,472.9 			"/>
            <polygon class="st9" points="490.8,381.7 535.5,385.5 535.6,439.8 490.9,433.9 			"/>
            <g>
				<path class="st7" d="M438.7,477.8l-0.1-106.4l104,8.3l0.4,116.8L438.7,477.8z M484.3,381.1l-39.7-3.4l0.1,95.2l91.1,15.8
					l-0.1-42.4l-51.2-7L484.3,381.1z M535.5,385.5l-44.6-3.8l0.1,52.2l44.7,5.9L535.5,385.5z"/>
                <polygon class="st8" points="438.6,371.3 443.4,370.9 547.4,379.1 542.6,379.6 				"/>
                <polygon class="st8" points="543,496.4 542.6,379.6 547.4,379.1 547.8,495.3 				"/>
			</g>
		</g>
        <polygon class="st9" points="267.2,451.3 284.2,454.5 284.1,520.6 265.2,515.8 265.4,451.8 267.2,451.6 		"/>
        <polygon class="st9" points="273,383.7 276.7,384.1 276.6,436.8 272.9,436.2 		"/>
        <polygon class="st9" points="307.7,458.8 307.6,526.6 290.5,522.3 290.6,455.6 		"/>
        <polygon class="st9" points="296.9,385.2 301.5,385.7 301.4,443.7 296.8,443 		"/>
        <g>
			<path class="st8" d="M314.4,363.2l-0.2,175.1l-54.6-14.5l0.2-73l5.5,1l-0.1,64l18.8,4.8l0.1-66.2l-17-3.1l0-3.8l-1.8-0.3v-1.5
				l-3.1-0.5l-2.4,0.3l0.2-86.8L314.4,363.2z M307.4,526.6l0.1-67.9l-17-3.1l-0.1,66.6L307.4,526.6z M290.6,377l-0.1,72.6l17,3
				l0.1-73.9L290.6,377z M265.2,444.5l18.8,3.3l0.1-72.6l-18.8-1.8L265.2,444.5z"/>
            <polygon class="st7" points="314.1,538.3 314.4,363.2 319.8,362.8 319.6,537.1 			"/>
            <polygon class="st7" points="319.8,362.8 314.4,363.2 260,358.8 265.3,358.4 			"/>
            <polygon class="st7" points="262.2,445.2 265.2,445.8 260.5,446.4 265.2,447.3 267.1,447.6 265.2,447.8 255.6,446.1 259.8,445.5
							"/>
            <polygon class="st7" points="255.6,446.1 265.2,447.8 265.2,451.8 259.8,450.8 255.6,450.1 			"/>
            <polygon class="st7" points="267.1,451.6 265.2,451.8 265.2,447.8 267.1,447.6 267.1,451.3 			"/>
            <polygon class="st7" points="260.5,446.4 265.2,445.8 265.2,447.3 			"/>
            <path class="st7" d="M290.5,449.5l0.1-72.6l17,1.7l-0.1,73.9L290.5,449.5z M301.4,385.7l-4.7-0.5l-0.1,57.8l4.7,0.8L301.4,385.7z
				"/>
            <path class="st7" d="M284.1,447.8l-18.8-3.3l0.2-71.1l18.8,1.8L284.1,447.8z M276.5,384.1l-3.7-0.4l-0.1,52.5l3.7,0.6
				L276.5,384.1z"/>
		</g>
        <polygon class="st9" points="298.1,207.3 302.6,214.2 305.7,222.8 307.3,232.6 307.1,242.7 305.3,252.4 301.9,261.2 297.2,268.2
			291.5,273.1 285.4,275.5 279.1,275.4 273.2,272.7 268,267.8 263.8,260.9 261,252.5 259.6,243.2 259.8,233.6 261.4,224.3
			264.6,215.8 268.9,208.8 274.3,203.7 280.3,200.8 286.6,200.4 292.6,202.6 		"/>
        <g>
			<polygon class="st7" points="294.7,195.7 287.3,193.1 291.9,193.5 299.3,196.1 			"/>
            <path class="st7" d="M287.3,193.1l7.4,2.6l6.6,5.6l5.4,8.3l3.8,10.4l1.9,11.8l-0.2,12.3l-2.3,11.8l-4.1,10.5l-5.7,8.5l-6.8,5.9
				l-7.4,2.9l-7.5-0.2l-7.1-3.3l-6.2-6l-5-8.3l-3.4-10l-1.7-11.1l0.2-11.5l2-11.2l3.7-10.2l5.2-8.5l6.4-6.2l7.2-3.5L287.3,193.1z
				 M302.6,214.6l-4.5-6.9l-5.5-4.7l-6.1-2.2l-6.3,0.4l-6,2.9l-5.4,5.1l-4.4,7l-3.1,8.5l-1.7,9.3l-0.2,9.6l1.4,9.3l2.9,8.4l4.2,6.9
				l5.2,5l5.9,2.7l6.2,0.1l6.2-2.4l5.6-4.9l4.7-7.1l3.4-8.7l1.9-9.8l0.2-10.1l-1.6-9.7L302.6,214.6z"/>
            <polygon class="st8" points="294.7,195.7 299.3,196.1 305.9,201.7 301.3,201.3 			"/>
            <polygon class="st8" points="305.9,201.7 311.4,209.9 306.7,209.6 301.3,201.3 			"/>
            <polygon class="st8" points="311.4,209.9 315.2,220.3 310.5,220 306.7,209.6 			"/>
            <polygon class="st8" points="310.5,220 315.2,220.3 317.1,232 312.4,231.8 			"/>
            <polygon class="st8" points="317.1,232 316.9,244.2 312.2,244 312.4,231.8 			"/>
            <polygon class="st8" points="316.9,244.2 314.6,256 310,255.9 312.2,244 			"/>
            <polygon class="st8" points="314.6,256 310.5,266.5 305.8,266.4 310,255.9 			"/>
            <polygon class="st8" points="310.5,266.5 304.8,274.9 300.1,274.9 305.8,266.4 			"/>
            <polygon class="st8" points="304.8,274.9 297.9,280.8 293.3,280.7 300.1,274.9 			"/>
            <polygon class="st8" points="297.9,280.8 290.5,283.6 285.9,283.6 293.3,280.7 			"/>
		</g>
        <g>
			<g>
				<polygon class="st7" points="499.5,306.5 495,306.5 494.4,213 451.2,215.1 451.4,307 447,306.8 446.8,209.4 499.2,206.7 				"/>
                <polygon class="st8" points="499.9,306.5 499.5,206.7 508.3,207.2 508.6,306.1 				"/>
                <polygon class="st8" points="451.3,215.1 494.7,213.1 495,306.5 451.5,306.5 				"/>
			</g>
            <rect x="476.7" y="273.2" class="st7" width="12.2" height="12.2"/>
		</g>
	</g>
        <g>
		<polygon class="st7" points="231.5,444.8 246,449.7 246,377 231.5,374.3 		"/>
            <polygon class="st9" points="234.7,441.4 246,445 246,381.4 234.7,380.6 		"/>
	</g>
</g>
</svg>
