<?xml version="1.0" encoding="utf-8"?>
<!-- Generator: Adobe Illustrator 25.0.1, SVG Export Plug-In . SVG Version: 6.00 Build 0)  -->
<svg version="1.1" id="katman_1" xmlns="http://www.w3.org/2000/svg" x="0px" y="0px"
     viewBox="0 0 841.9 595.3" style="enable-background:new 0 0 841.9 595.3;" xml:space="preserve">
<style type="text/css">
	.st0{fill:#8F6645;}
	.st1{fill:#EEEEEE;}
	.st2{fill:#DDDDDD;}
	.st3{fill:#3D3A37;}
	.st4{fill:#C4C4C4;}
	.st5{fill:#3D3A37;}
	.st6{fill:#000000;}
	.st7{fill:#FFFFFF;}
	.st8{fill:#888888;}
	.st9{fill:#7884AF;}
</style>


    <g id="chimney">
	<polygon class="st5" points="404.3,19.1 423.5,23.5 432.8,44.5 423.4,61.6 417.2,60.4 417.2,63.1 417.1,112.7 411.3,111.7
		411.3,59.2 404.3,57.8 394.5,36.3 			"/>
        <polygon class="st6" points="398.2,20.8 404.3,19.1 394.5,36.3 388.4,38 			"/>
        <polygon class="st6" points="394.5,36.3 404.3,57.8 398.1,59.3 388.4,38 			"/>
        <polygon class="st6" points="398.1,59.3 404.3,57.8 411.3,59.2 405.2,60.7 			"/>
        <polygon class="st6" points="423.4,61.6 417.3,63.1 417.2,60.4 			"/>
        <polygon class="st6" points="405.1,110.8 405.2,60.7 411.3,59.2 411.3,111.7 			"/>
</g>


    <g id="roof">
	<polygon class="st3" points="519.6,124.4 550.1,143.4 481.3,151.5 466.3,192.3 311.1,179.3 322.4,94 334.3,95.9 340.5,96.8
		346.3,97.7 			"/>
        <polygon class="st2" points="639.5,199.3 653.4,207.9 639.6,206.8 			"/>
        <polygon class="st2" points="649.2,195 639.5,195.7 540.7,186.2 550.6,185.4 			"/>
        <polygon class="st3" points="550.6,185.4 540.7,186.2 466.3,192.3 481.3,151.5 550.1,143.4 602.4,137.3 			"/>
        <polygon class="st3" points="649.2,195 550.6,185.4 602.4,137.3 			"/>
        <polygon class="st3" points="322.4,94 311.1,179.3 185.6,193 			"/>
</g>


    <g id="body">
	<g>
		<polygon class="st4" points="540.9,553.1 466.3,536 466.3,372.9 540.8,366.7 			"/>
        <polygon class="st0" points="653.7,355.6 653.9,491.9 640,495.2 639.8,354.8 			"/>
        <polygon class="st4" points="466.3,325.8 466.3,192.3 540.7,186.2 540.8,320.9 540.8,322.8 			"/>
        <polygon class="st4" points="184.6,533.9 185.6,193 311.1,179.3 310.8,323.7 310.7,368.4 310.4,572.6 			"/>
        <polygon class="st0" points="653.4,207.9 653.6,312.3 653.6,317.6 639.7,317.2 639.6,206.8 			"/>
        <polygon class="st0" points="749.5,349.2 665.4,356.2 665.3,317.9 749.4,314.5 			"/>
        <polygon class="st0" points="540.7,186.2 639.5,195.7 639.5,199.3 639.6,206.8 639.7,317.2 639.8,354.8 640,495.2 640,526.4
			540.9,553.1 540.8,366.7 567,364.5 567,321.8 540.8,320.9 			"/>
        <polygon class="st0" points="567,321.8 567,364.5 540.8,366.7 466.3,372.9 411,377.6 411.1,328.1 466.3,325.8 540.8,322.8 			"/>
        <polygon class="st4" points="411.1,328.1 411,377.6 310.7,368.4 310.8,323.7 			"/>
        <polygon class="st0" points="310.7,368.4 411,377.6 466.3,372.9 466.3,536 310.4,572.6 			"/>
        <polygon class="st0" points="311.1,179.3 466.3,192.3 466.3,325.8 411.1,328.1 310.8,323.7 			"/>
        <polygon class="st4" points="749.4,314.5 665.3,317.9 653.6,317.6 653.6,312.3 			"/>
        <polygon class="st4" points="665.3,317.9 665.4,356.2 653.7,355.6 639.8,354.8 639.7,317.2 653.6,317.6 			"/>
        <polygon class="st4" points="540.8,322.8 540.8,320.9 567,321.8 			"/>
	</g>
</g>


    <g id="left-window">
	<polygon class="st9" points="208,436.1 269.5,447.3 269.4,502.1 207.9,487.2 			"/>
        <polygon class="st9" points="269.5,440.2 208,429.4 208,418.6 269.6,428.5 			"/>
        <g>
		<polygon class="st8" points="205.7,413.9 278.9,425.4 275.8,425.7 202.7,414.2 				"/>
            <polygon class="st8" points="278.9,425.4 278.8,506.8 275.6,507.4 275.8,425.7 				"/>
            <path class="st7" d="M202.7,414.2l73.1,11.6l-0.2,81.6l-73.2-18L202.7,414.2z M269.5,447.3L208,436.1l-0.1,51.1l61.5,14.9
				L269.5,447.3z M208,429.4l61.5,10.8l0-11.6l-61.5-10L208,429.4z"/>
	</g>
</g>


    <g>
	<g>
		<g>
			<polygon class="st9" points="582.2,471.4 585.6,471.7 595.4,469.7 595.4,468.8 600.9,467.7 601,532 582.3,536.9 			"/>
            <polygon class="st9" points="589.8,401.5 593.4,401 593.5,453.1 589.8,453.7 			"/>
            <polygon class="st9" points="622.3,463.5 622.4,526.4 607.1,530.4 607,466.5 			"/>
            <polygon class="st9" points="612.5,397.6 616.7,397 616.8,451.6 612.6,452.3 			"/>
            <g>
				<polygon class="st7" points="579.1,470.7 579.1,466.7 585.6,467.6 585.6,471.7 582.9,471.2 				"/>
                <polygon class="st7" points="579.1,466.7 582.2,466.1 586.9,466.8 593.6,465.5 595.4,465.8 585.6,467.6 				"/>
                <polygon class="st7" points="585.6,467.6 595.4,465.8 595.4,468.8 595.4,469.7 585.6,471.7 				"/>
                <polygon class="st7" points="576.6,548 571.2,546.8 571.1,378.6 576.4,379 				"/>
                <polygon class="st7" points="576.4,379 571.1,378.6 585.2,377.2 590,376.7 622.7,373.4 627.9,373.8 				"/>
                <path class="st8" d="M628.1,533.9l-51.6,14l-0.1-169l51.5-5.2v0.8l0.1,40.7v4.8l0,31.8l0,4.8L628.1,533.9z M579.1,466.7l0,4
					l3.8,0.6l-0.6,65.6L601,532l-0.1-64.3l-5.5,1.1v-3l-1.8-0.3l-6.7,1.3l-4.7-0.7L579.1,466.7z M622.4,526.4l-0.1-62.8l-15.3,3
					l0.1,63.9L622.4,526.4z M606.9,391l0.1,69.6l15.3-2.9l-0.1-68.5L606.9,391z M582.2,464.8l18.7-3.5l-0.1-70.6l-18.7,2.2
					L582.2,464.8z"/>
                <path class="st7" d="M607,460.6l-0.1-69.6l15.3-1.8l0.1,68.5L607,460.6z M616.7,397l-4.2,0.5l0.1,54.8l4.2-0.8L616.7,397z"/>
                <path class="st7" d="M600.9,461.2l-18.7,3.5l-0.1-72l18.7-2.2L600.9,461.2z M593.4,401l-3.6,0.5l0,52.3l3.7-0.7L593.4,401z"/>
			</g>
		</g>

        <g>
			<polygon class="st9" points="359,402.1 399.5,398 399.4,454.7 444.2,447.9 444.1,485.9 358.9,501.7 			"/>
            <polygon class="st9" points="405.6,397.4 444.2,393.4 444.2,442.1 405.6,447.8 			"/>
            <g>
				<polygon class="st8" points="352.3,396.6 352.2,509.2 347.3,508 347.5,396 				"/>
                <path class="st7" d="M352.2,509.2l0.1-112.6l97.5-9.5l0,103.5L352.2,509.2z M399.5,398l-40.5,4.1l-0.1,99.6l85.3-15.8l0-38
					l-44.7,6.7L399.5,398z M444.2,393.4l-38.6,4l0,50.4l38.6-5.6L444.2,393.4z"/>
                <polygon class="st8" points="352.3,396.6 347.5,396 444.9,386.6 449.8,387.1 				"/>
			</g>
		</g>

        <g>
			<polygon class="st8" points="375.1,228.3 383.9,228 383.8,327.7 375,327.1 			"/>
            <polygon class="st7" points="434.2,325 429.9,325.2 430,235.2 388.5,234.1 388.4,327.4 383.8,327.7 383.9,228 434.3,229.6 			"/>
            <polygon class="st8" points="388.5,234.1 430,235.2 429.9,325.2 388.4,327.4 			"/>
            <rect x="392.6" y="286.1" class="st7" width="12.2" height="12.2"/>
		</g>
        <polygon class="st9" points="619.9,229.6 623.9,236.6 626.6,244.9 628,254 627.9,263.4 626.3,272.4 623.3,280.4 619.2,286.9
			614.1,291.5 608.4,293.9 602.5,293.8 596.7,291.2 591.5,286.2 587.2,279.2 584.3,270.6 582.8,261 582.9,251.2 584.6,241.9
			587.8,233.7 592.2,227.2 597.6,222.8 603.4,220.8 609.3,221.4 614.9,224.4 		"/>
        <g>
			<path class="st7" d="M610.2,214.1l6.7,3.6l5.9,6.3l4.8,8.4l3.3,10l1.6,11l-0.1,11.2l-1.9,10.8L627,285l-5,7.9l-6.1,5.6l-6.9,2.9
				l-7.1-0.1l-7-3.1l-6.3-6l-5.2-8.5l-3.6-10.4l-1.8-11.5l0.2-11.9l2.1-11.3l3.9-9.9l5.4-7.8l6.4-5.2l7-2.3L610.2,214.1z
				 M624.1,236.6l-4-7l-5-5.2l-5.6-3l-5.9-0.6l-5.8,1.9l-5.3,4.4l-4.4,6.5l-3.2,8.2l-1.7,9.3l-0.1,9.8l1.5,9.5l3,8.6l4.3,7l5.2,5
				l5.8,2.6l5.9,0.1l5.7-2.4l5.1-4.6l4.1-6.5l2.9-8l1.6-9l0.1-9.4l-1.4-9.1L624.1,236.6z"/>
            <polygon class="st8" points="598.6,213.6 603.1,213.4 596.1,215.7 591.5,215.9 			"/>
            <polygon class="st8" points="585.1,221.1 591.5,215.9 596.1,215.7 589.7,220.9 			"/>
            <polygon class="st8" points="583.6,283.7 588.7,292.2 584.2,292.1 579,283.7 			"/>
            <polygon class="st8" points="579,283.7 575.4,273.4 580,273.4 583.6,283.7 			"/>
            <polygon class="st8" points="575.4,273.4 573.6,261.9 578.2,261.8 580,273.4 			"/>
            <polygon class="st8" points="573.6,261.9 573.7,250.1 578.3,250 578.2,261.8 			"/>
            <polygon class="st8" points="573.7,250.1 575.8,238.8 580.4,238.7 578.3,250 			"/>
            <polygon class="st8" points="575.8,238.8 579.7,228.9 584.3,228.7 580.4,238.7 			"/>
            <polygon class="st8" points="579.7,228.9 585.1,221.1 589.7,220.9 584.3,228.7 			"/>
            <polygon class="st8" points="597.4,301.2 590.5,298.1 595,298.2 602,301.3 			"/>
            <polygon class="st8" points="595,298.2 590.5,298.1 584.2,292.1 588.7,292.2 			"/>
		</g>
        <g>
			<polygon class="st9" points="208.3,305.5 208.5,254.5 269.9,252.9 269.8,307.4 			"/>
            <g>
				<path class="st7" d="M203,308.8l0.2-75l73-3.8l-0.2,81.3L203,308.8z M208.5,254.5l-0.1,50.9l61.5,1.9l0.1-54.5L208.5,254.5z
					 M208.5,247.9l61.4-2.2l0-11.6l-61.4,2.9L208.5,247.9z"/>
                <polygon class="st8" points="279.2,311.3 276,311.4 276.2,230 279.3,230.2 				"/>
			</g>
            <polygon class="st9" points="269.9,245.7 208.5,247.9 208.5,237 270,234.1 			"/>
		</g>
	</g>
</g>
</svg>
