<?xml version="1.0" encoding="utf-8"?>
<!-- Generator: Adobe Illustrator 25.0.1, SVG Export Plug-In . SVG Version: 6.00 Build 0)  -->
<svg version="1.1" id="katman_1" xmlns="http://www.w3.org/2000/svg" x="0px" y="0px"
     viewBox="0 0 841.9 595.3" style="enable-background:new 0 0 841.9 595.3;" xml:space="preserve">
<style type="text/css">
	.st0{fill:#8F6645;}
	.st1{fill:#EEEEEE;}
	.st2{fill:#DDDDDD;}
	.st3{fill:#3D3A37;}
	.st4{fill:#C4C4C4;}
	.st5{fill:#3D3A37;}
	.st6{fill:#000000;}
	.st7{fill:#FFFFFF;}
	.st8{fill:#888888;}
	.st9{fill:#7884AF;}
</style>

    <g id="body">
	<polygon class="st4" points="444.4,533.4 457.1,529.8 457.1,517.1 535.9,496.2 562.5,501.7 562.4,508.3 573.3,510.6 623.3,495.9
		624.3,141.9 624.3,139.5 585.7,110.8 553.3,122.2 535.4,124.5 496.3,106.5 453.4,110.7 390.5,70.7 335.1,84.1 317.1,87.8
		318.1,585.9 444.5,548.7 			"/>
        <polygon class="st0" points="318.1,585.9 317.1,87.8 209.3,110.1 210.9,547.2 			"/>
</g>


    <g id="roof">
	<polygon class="st2" points="535.4,124.5 553.3,122.2 514.3,103.7 496.3,106.5 			"/>
        <polygon class="st2" points="209.3,110.1 317.1,87.8 335.1,84.1 318.1,81.2 187.7,109 204,111.2 			"/>
        <polygon class="st1" points="187.6,97 187.7,109 318.1,81.2 318.1,67 311,68.7 286.7,74.2 277,76.4 			"/>
        <polygon class="st3" points="600,93.5 538.7,102.8 553.3,111 			"/>
        <polygon class="st1" points="641.5,127.5 600,93.5 553.3,111 553.3,122.2 585.7,110.8 599.9,105.9 641.6,137.6 651,139
			651,129.1 			"/>
        <polygon class="st1" points="553.3,122.2 553.3,111 538.7,102.8 514.3,89.3 511.4,89.7 495.5,92.1 485.8,93.6 471.5,95.8
			471.5,107.9 514.3,103.7 			"/>
        <polygon class="st3" points="651,139 641.6,137.6 624.3,139.5 624.3,141.9 			"/>
        <polygon class="st2" points="624.3,139.5 641.6,137.6 599.9,105.9 585.7,110.8 			"/>
        <polygon class="st3" points="408,51.2 328.7,69 335.1,70.2 			"/>
        <polygon class="st1" points="471.5,95.8 408,51.2 335.1,70.2 328.7,69 318.1,67 318.1,81.2 335.1,84.1 390.5,70.7 408,66.5
			471.5,107.9 			"/>
        <polygon class="st2" points="390.5,70.7 453.4,110.7 471.5,107.9 408,66.5 			"/>
        <polygon class="st2" points="453.4,110.7 496.3,106.5 514.3,103.7 471.5,107.9 			"/>
</g>


    <g id="chimney">
	<g>
		<polygon class="st5" points="485.8,73.5 485.8,93.6 495.5,92.1 495.5,71.6 			"/>
        <polygon class="st5" points="485.8,73.5 495.5,71.6 497.7,71.2 495.1,70.7 475.8,74.3 478.5,74.8 			"/>
        <path class="st5" d="M497.7,71.2v-6.9l6.7-5.3l7,9.4v0.9l0,20.5l-15.9,2.4l0-20.5L497.7,71.2z M509.7,69.5l-5.9-7.8l0,8.9l0,4.6
		l5.9,1.3L509.7,69.5z M497.7,76.7V82l5.8,4.7l0-11.1l-5.8-1.3L497.7,76.7z"/>
        <polygon class="st6" points="504.5,59 511.4,68.3 513.6,67.9 506,57.7 			"/>
        <polygon class="st6" points="486.8,58.5 475.8,67.4 495.1,63.7 506,54.6 			"/>
        <polygon class="st6" points="506,57.7 513.6,67.9 515.8,68.4 506,54.6 495.1,63.7 495.1,70.7 497.7,71.2 497.7,64.3 504.5,59
		"/>
        <polygon class="st6" points="515.8,68.4 513.6,67.9 511.4,68.3 511.4,69.2 			"/>
        <polygon class="st6" points="495.1,63.7 475.8,67.4 475.8,74.3 495.1,70.7 			"/>
        <polygon class="st6" points="503.9,75.1 509.7,76.4 509.7,69.5 503.9,70.6 			"/>
        <polygon class="st6" points="503.9,70.6 509.7,69.5 503.9,61.7 			"/>
        <polygon class="st6" points="503.5,75.6 497.7,74.4 497.7,76.7 			"/>
        <polygon class="st6" points="503.5,75.6 497.7,76.7 497.7,82 503.5,86.7 			"/>
	</g>
        <g>
		<polygon class="st5" points="276.9,32.9 277,76.4 286.7,74.2 286.6,30.1 			"/>
            <polygon class="st5" points="276.9,32.9 286.6,30.1 288.8,29.5 284.8,28.6 265.6,34.1 269.6,34.9 			"/>
            <path class="st5" d="M288.8,29.5l0-8.7l10.9-6.6l11.2,12.6l0,1.7l0.1,40.1l-24.3,5.6l-0.1-44.1L288.8,29.5z M308.3,28.2l-9-10.1
				l0,12.5l0,4.2l8.9,1.9L308.3,28.2z M289.9,38l0,5.2l8.9,6.2l0-13.8l-8.9-1.9L289.9,38z"/>
            <polygon class="st6" points="299.7,14.3 310.9,26.9 313.1,26.3 301.5,13.2 			"/>
            <polygon class="st6" points="282.2,15.1 265.6,25.6 284.7,20 301.5,9.3 			"/>
            <polygon class="st6" points="301.5,13.2 313.1,26.3 316.4,27.1 301.5,9.3 284.7,20 284.8,28.6 288.8,29.5 288.8,20.9 299.7,14.3
							"/>
            <polygon class="st6" points="316.4,27.1 313.1,26.3 310.9,26.9 310.9,28.6 			"/>
            <polygon class="st6" points="284.7,20 265.6,25.6 265.6,34.1 284.8,28.6 			"/>
            <polygon class="st6" points="299.4,34.9 308.3,36.8 308.3,28.2 299.4,30.7 			"/>
            <polygon class="st6" points="299.4,30.7 308.3,28.2 299.3,18.2 			"/>
            <polygon class="st6" points="298.8,35.5 289.9,33.7 289.9,38 			"/>
            <polygon class="st6" points="298.8,35.5 289.9,38 289.9,43.2 298.8,49.3 			"/>
	</g>
</g>


    <g id="left-window">
			<g>
				<path class="st7" d="M268.9,112l7,3.9l6,7l4.6,9.7l2.9,11.8l0.9,12.9l-1.2,13.1l-3.1,12.3l-4.8,10.6l-6.2,8.2l-7,5.2l-7.4,2
					l-7.2-1.4l-6.6-4.5l-5.5-7.3l-4.2-9.5l-2.5-11.2l-0.8-12.1l-0.2-46l27.9-5.5L268.9,112z M237.1,162.6l0.1,0.9l23.9-3.3l0.4-42.6
					l-24.5,4.7L237.1,162.6z M264.7,117.9l0.1,46.5l-27.4,3.6l0.3,5.3l2.2,9.8l3.7,8.3l4.9,6.3l5.8,3.9l6.3,1.1l6.4-1.8l6.1-4.6
					l5.4-7.2l4.2-9.3l2.7-10.8l1-11.4l-0.8-11.3l-2.5-10.3l-4-8.5l-5.2-6.2l-6.1-3.4L264.7,117.9z"/>
                <polygon class="st8" points="268.9,112 275.9,115.9 279.2,116.3 272.2,112.5 				"/>
                <polygon class="st8" points="275.9,115.9 281.9,122.9 285.2,123.3 279.2,116.3 				"/>
                <polygon class="st8" points="281.9,122.9 286.6,132.6 289.8,133.1 285.2,123.3 				"/>
                <polygon class="st8" points="286.6,132.6 289.4,144.4 292.7,144.8 289.8,133.1 				"/>
                <polygon class="st8" points="289.4,144.4 290.3,157.4 293.6,157.7 292.7,144.8 				"/>
                <polygon class="st8" points="290.3,157.4 289.2,170.5 292.4,170.8 293.6,157.7 				"/>
                <polygon class="st8" points="289.2,170.5 286,182.8 289.3,183.1 292.4,170.8 				"/>
                <polygon class="st8" points="286,182.8 281.2,193.5 284.5,193.7 289.3,183.1 				"/>
                <polygon class="st8" points="281.2,193.5 275,201.7 278.3,201.9 284.5,193.7 				"/>
                <polygon class="st8" points="275,201.7 268,206.9 271.2,207.1 278.3,201.9 				"/>
                <polygon class="st8" points="268,206.9 260.6,208.9 263.9,209 271.2,207.1 				"/>
			</g>
        <polygon class="st9" points="261.5,117.6 237,122.3 237.1,162.6 237.2,163.5 261.1,160.3 			"/>
        <polygon class="st9" points="274,121.5 267.9,118.1 264.7,117.9 264.8,164.4 237.5,168 237.8,173.3 240.1,183 243.7,191.4
				248.6,197.7 254.4,201.6 260.7,202.8 267.1,201 273.2,196.4 278.6,189.2 282.8,179.9 285.5,169.2 286.5,157.7 285.8,146.5
				283.3,136.2 279.2,127.7 			"/>

    </g>


    <g>
	<g>
		<g>
			<polygon class="st0" points="457.1,529.8 444.4,533.4 482.2,543.4 583.6,512.8 573.3,510.6 562.4,508.3 562.4,513.7 484.1,536.8
							"/>
            <polygon class="st4" points="444.4,533.4 444.4,548.6 482.2,559.2 482.2,543.4 			"/>
            <polygon class="st0" points="535.9,496.2 457.1,517.1 484.1,523.7 562.5,501.7 			"/>
            <polygon class="st4" points="457.1,517.1 457.1,529.8 484.1,536.8 484.1,523.7 			"/>
            <polygon class="st4" points="482.2,559.2 583.5,526.9 583.6,512.8 482.2,543.4 			"/>
            <polygon class="st4" points="484.1,536.8 562.4,513.7 562.4,508.3 562.5,501.7 484.1,523.7 			"/>
		</g>
	</g>

        <g>
		<g>
			<polygon class="st9" points="606,221.5 606.1,196.5 585.1,194.4 585,220.1 			"/>
            <g>
				<polygon class="st8" points="556,223.2 556.1,151.4 551.8,151.8 551.7,223.4 				"/>
                <path class="st7" d="M582.4,131.2l25.8,27.7l-0.2,67.3l-52.1-3l0.1-71.9L582.4,131.2z M585.1,194.4l-0.1,25.7l21,1.3l0.1-25
					L585.1,194.4z M581.7,219.9l0.1-25.8l-23.5-2.3l0,26.6L581.7,219.9z M585.1,164.5l-0.1,23.4l21,2.2l0.1-22.8L585.1,164.5z
					 M558.3,185.1l23.5,2.5l0.1-23.5l-23.5-3.1L558.3,185.1z M606.2,161.8l-23.8-25.4l-24,18.6L606.2,161.8z"/>
                <polygon class="st8" points="556,223.2 551.7,223.4 603.8,226.4 608.1,226.3 				"/>
                <polygon class="st8" points="556.1,151.4 582.4,131.2 578.1,131.8 551.8,151.8 				"/>
			</g>
            <polygon class="st9" points="558.3,191.9 558.3,218.4 581.7,219.9 581.8,194.1 			"/>
            <polygon class="st9" points="606.1,190.1 606.2,167.3 585.1,164.5 585.1,187.9 			"/>
            <polygon class="st9" points="581.9,164.1 558.4,160.9 558.3,185.1 581.8,187.5 			"/>
            <polygon class="st9" points="582.4,136.4 558.4,155 606.2,161.8 			"/>
		</g>
            <g>
			<polygon class="st7" points="520.1,429.5 515.7,430.3 515.7,419.4 478.3,425.9 478.2,489.1 520.1,479 			"/>
                <g>
				<path class="st8" d="M471.4,503.3l0.1-145.6l55.2-5.3l-0.2,136.8L471.4,503.3z M515.7,419.4l-37.4,6.4l0,63.2l41.8-10.1
					l0.1-49.5l-4.4,0.8L515.7,419.4z M524,414l-6.7,1.1l0,10.6l2.4,0.3l6.7-1.2l0-10.6L524,414z M520.3,408.2l-0.4-4.2l-0.6-4.1
					l-0.9-3.9l-1.1-3.8l-1.3-3.6l-1.6-3.4l-1.8-3.2l-2-2.9l-2.1-2.7l-2.3-2.4l-2.5-2.1l-2.6-1.8l0,41.1L520.3,408.2z M495.9,370.7
					l-2.6,2.3l-2.5,2.7l-2.3,3l-2.1,3.3l-1.9,3.6l-1.7,3.8l-1.4,4l-1.2,4.2l-0.9,4.3l-0.6,4.4l-0.3,4.4l-0.1,4.4l17.6-2.8
					L495.9,370.7z"/>
                    <polygon class="st7" points="526.4,414.3 519.7,415.4 519.7,426.1 526.3,424.9 				"/>
                    <polygon class="st8" points="519.7,415.4 526.4,414.3 524,414 517.3,415.1 				"/>
                    <polygon class="st8" points="519.7,426.1 519.7,415.4 517.3,415.1 517.3,425.8 				"/>
                    <path class="st7" d="M464,515.9l0.1-171.8l69.2-5.5L533,497.5L464,515.9z M471.5,357.7l-0.1,145.6l55.1-14.1l0.2-136.8
					L471.5,357.7z"/>
                    <polygon class="st8" points="533.2,338.6 530.3,338.4 461,343.9 464,344.1 				"/>
                    <polygon class="st8" points="461,343.9 461,515.2 464,515.9 464,344.1 				"/>
			</g>
                <polygon class="st9" points="501.1,370.1 501.1,411.2 520.3,408.2 519.9,404 519.2,399.9 518.3,396 517.2,392.2 515.9,388.6
				514.3,385.1 512.6,382 510.6,379 508.5,376.3 506.2,373.9 503.7,371.9 			"/>
                <polygon class="st9" points="478.3,414.9 495.9,412.1 495.9,370.7 493.3,373 490.9,375.6 488.6,378.6 486.5,381.9 484.6,385.5
				482.9,389.3 481.4,393.3 480.2,397.5 479.3,401.7 478.7,406.1 478.3,410.5 			"/>
		</g>
            <g>
			<polygon class="st9" points="434.3,456.2 434.3,418.6 401.1,423.7 401.2,462.7 			"/>
                <g>
				<polygon class="st8" points="354.6,479.4 354.4,374.9 350.1,374.4 350.2,478.4 				"/>
                    <path class="st7" d="M437.5,366.5l0,96.1l-82.9,16.8l-0.2-104.5L437.5,366.5z M401.1,423.7l0,39l33.1-6.5l0-37.6L401.1,423.7z
					 M395.9,379l-37.7,4.1l0.1,88l37.7-7.4L395.9,379z M401.1,378.4l0,35.4l33.2-4.8l0-34.2L401.1,378.4z"/>
                    <polygon class="st8" points="437.5,366.5 433.1,366.1 350.1,374.4 354.4,374.9 				"/>
			</g>
                <polygon class="st9" points="358.3,471.1 396,463.7 395.9,379 358.2,383.1 			"/>
                <polygon class="st9" points="434.3,409 434.3,374.8 401.1,378.4 401.1,413.8 			"/>
		</g>
            <g>
			<polygon class="st9" points="608.9,422.1 609,391.3 587.1,394.8 587,426.3 			"/>
                <g>
				<polygon class="st8" points="556.7,438.4 556.8,354.4 552.5,354.1 552.4,437.7 				"/>
                    <path class="st7" d="M611.2,348.9l-0.2,78.4l-54.3,11l0.2-83.9L611.2,348.9z M587.1,394.8l-0.1,31.6l21.9-4.3l0.1-30.7
					L587.1,394.8z M583.8,358.4l-24.5,2.7l-0.1,70.7l24.5-4.8L583.8,358.4z M587.2,358l-0.1,28.7l21.9-3.2l0.1-27.9L587.2,358z"/>
                    <polygon class="st8" points="611.2,348.9 607,348.6 552.5,354.1 556.8,354.4 				"/>
			</g>
                <polygon class="st9" points="559.1,431.8 583.6,427 583.8,358.4 559.2,361.1 			"/>
                <polygon class="st9" points="609,383.5 609.1,355.6 587.2,358 587.1,386.7 			"/>
		</g>
            <g>
			<polygon class="st9" points="523.9,212.4 524,178.1 479.8,173.3 479.8,209.4 			"/>
                <g>
				<polygon class="st8" points="477.7,216 477.7,123.3 473.3,123.9 473.3,216.2 				"/>
                    <path class="st7" d="M525.9,131.2l-0.1,87.8l-48.2-2.9l0.1-92.7L525.9,131.2z M479.8,173.3l0,36.1l44.1,3l0-34.4L479.8,173.3z
					 M479.8,131.2l0,32.8l44.2,5.2l0-31.2L479.8,131.2z"/>
                    <polygon class="st8" points="477.7,216 473.3,216.2 521.5,219.1 525.8,218.9 				"/>
			</g>
                <polygon class="st9" points="524,169.3 524,138.1 479.8,131.2 479.8,164.1 			"/>
		</g>
            <g>
			<polygon class="st9" points="429.1,210.2 429.1,179.4 397.2,176.3 397.2,208.1 			"/>
                <g>
				<polygon class="st8" points="352.5,211.4 352.3,121.8 348,122.5 348.1,211.7 				"/>
                    <path class="st7" d="M392.8,98l39.3,35.4l0,82.7l-79.7-4.6l-0.1-89.7L392.8,98z M397.2,176.3l0,31.8l31.9,2l0-30.8L397.2,176.3z
					 M392.2,207.8l0-32l-36.2-3.5l0.1,33.1L392.2,207.8z M397.1,139.3l0,28.9l31.9,3.3l0-28L397.1,139.3z M356,163.9l36.2,3.8l0-29
					l-36.2-4.9L356,163.9z M429.1,136.8l-36.2-32.3l-36.9,21.9L429.1,136.8z"/>
                    <polygon class="st8" points="352.5,211.4 348.1,211.7 427.8,216.3 432.2,216.1 				"/>
                    <polygon class="st8" points="352.3,121.8 392.8,98 388.4,98.8 348,122.5 				"/>
			</g>
                <polygon class="st9" points="356,172.3 356,205.5 392.2,207.8 392.2,175.8 			"/>
                <polygon class="st9" points="429.1,171.6 429.1,143.6 397.1,139.3 397.2,168.2 			"/>
                <polygon class="st9" points="392.2,138.6 355.9,133.8 356,163.9 392.2,167.7 			"/>
                <polygon class="st9" points="392.8,104.5 355.9,126.4 429.1,136.8 			"/>
		</g>
            <g>
			<g>
				<path class="st7" d="M254.2,469.2l-6.6-6.6l-5.5-9l-4.1-10.8l-2.5-11.9l-0.8-12.2l1-11.8l2.7-10.7l4.3-8.9l5.7-6.5l6.7-3.6
					l7.2-0.4l7.3,2.9l6.9,6.1l6,8.9l4.6,11.2l2.9,12.6l0.9,13.1l0.1,48.8l-29.7-7.4L254.2,469.2z M287.2,430.7l-0.1-1l-25.3-4.8
					l-0.4,42l25.9,6.3L287.2,430.7z M258.3,465.3l-0.1-45.6l28.7,5.3l-0.4-5.7l-2.5-11l-4-9.7l-5.2-7.8l-6-5.4l-6.4-2.6l-6.3,0.3
					l-5.8,3.1l-5,5.7l-3.8,7.8l-2.4,9.4l-0.9,10.4l0.7,10.7l2.2,10.4l3.6,9.4l4.8,7.9l5.7,5.7L258.3,465.3z"/>
                <polygon class="st8" points="291,431.6 291.1,480.4 294.4,479.7 294.3,431.1 				"/>
                <polygon class="st8" points="290.1,418.5 291,431.6 294.3,431.1 293.4,418 				"/>
                <polygon class="st8" points="255.1,377.2 262.4,376.8 265.6,376.5 258.3,376.9 				"/>
                <polygon class="st8" points="262.4,376.8 269.7,379.7 273,379.4 265.6,376.5 				"/>
                <polygon class="st8" points="269.7,379.7 276.6,385.8 279.9,385.5 273,379.4 				"/>
                <polygon class="st8" points="276.6,385.8 282.6,394.7 285.9,394.4 279.9,385.5 				"/>
                <polygon class="st8" points="282.6,394.7 287.3,405.9 290.5,405.5 285.9,394.4 				"/>
                <polygon class="st8" points="287.3,405.9 290.1,418.5 293.4,418 290.5,405.5 				"/>
			</g>
                <polygon class="st9" points="261.5,466.9 287.4,473.2 287.2,430.7 287.2,429.8 261.9,424.9 			"/>
                <polygon class="st9" points="249.4,458 255.2,463.7 258.3,465.3 258.2,419.7 286.9,425 286.5,419.3 284,408.3 280,398.6
				274.8,390.8 268.7,385.4 262.3,382.9 256,383.2 250.1,386.3 245.1,391.9 241.3,399.7 238.9,409.1 238,419.5 238.7,430.3
				240.9,440.7 244.6,450.1 			"/>
		</g>
	</g>
</g>
</svg>
