<?xml version="1.0" encoding="utf-8"?>
<!-- Generator: Adobe Illustrator 25.0.1, SVG Export Plug-In . SVG Version: 6.00 Build 0)  -->
<svg version="1.1" id="katman_1" xmlns="http://www.w3.org/2000/svg" x="0px" y="0px"
     viewBox="0 0 841.9 595.3" style="enable-background:new 0 0 841.9 595.3;" xml:space="preserve">
<style type="text/css">
	.st0{fill:#8F6645;}
	.st1{fill:#EEEEEE;}
	.st2{fill:#DDDDDD;}
	.st3{fill:#3D3A37;}
	.st4{fill:#C4C4C4;}
	.st5{fill:#3D3A37;}
	.st6{fill:#000000;}
	.st7{fill:#FFFFFF;}
	.st8{fill:#888888;}
	.st9{fill:#7884AF;}
</style>


    <g id="body">
	<polygon class="st4" points="414.3,540.8 414.3,556.2 536.1,587.3 537.1,91 519.3,87.4 463.3,73.5 399.7,113.2 355.6,108.7
		315.1,126.9 297.2,124.5 262.8,112.6 222,141.9 222,144.3 222.9,507.7 276.8,521.4 292.3,518.4 292.3,511 318.9,506 400.9,524.6
		400.9,537.6 			"/>
        <polygon class="st0" points="643.9,553.1 645.5,112.9 537.1,91 536.1,587.3 			"/>
</g>


    <g id="roof">
	<polygon class="st3" points="355.6,108.7 399.7,113.2 381.6,110.4 337.6,105.9 			"/>
        <polygon class="st2" points="222,141.9 262.8,112.6 248.5,107.7 204.6,140 			"/>
        <polygon class="st2" points="315.1,126.9 355.6,108.7 337.6,105.9 297.2,124.5 			"/>
        <polygon class="st2" points="399.7,113.2 463.3,73.5 446.2,69.3 381.6,110.4 			"/>
        <polygon class="st2" points="195.7,141.4 222,144.3 222,141.9 204.6,140 			"/>
        <polygon class="st2" points="537.1,91 645.5,112.9 650.8,114 669.3,111.3 538.5,83.9 519.3,87.4 			"/>
        <polygon class="st1" points="669.2,99 538.4,69.7 538.5,83.9 669.3,111.3 			"/>
        <polygon class="st1" points="538.5,83.9 538.4,69.7 527.5,71.8 519.2,73.4 446.2,53.9 381.6,98 381.6,110.4 446.2,69.3
			463.3,73.5 519.3,87.4 			"/>
        <polygon class="st3" points="446.2,53.9 519.2,73.4 527.5,71.8 522.3,70.6 512.5,68.5 490.5,63.6 			"/>
        <polygon class="st1" points="381.6,110.4 381.6,98 337.6,91.3 318.7,101.6 312.7,104.9 297.2,113.3 297.2,124.5 337.6,105.9
			"/>
        <polygon class="st1" points="297.2,124.5 297.2,113.3 248.5,95.1 204.6,129.8 195.7,131.4 195.7,141.4 204.6,140 248.5,107.7
			262.8,112.6 			"/>
        <polygon class="st3" points="248.5,95.1 297.2,113.3 312.7,104.9 308.8,104.3 293.6,102 			"/>
</g>


    <g id="chimney">
	<g>
		<polygon class="st5" points="522.3,70.6 522.3,34 512.6,31.5 512.5,68.5 			"/>
        <polygon class="st5" points="512.6,31.5 522.3,34 529.7,35.9 532.9,35.3 513.5,30.3 510.4,30.9 			"/>
        <path class="st5" d="M490.5,63.6l0-17.8v-1.6l0-8l10.8-11.8l9.1,6.5l2.2,0.6l-0.1,37L490.5,63.6z M510.1,42.2l0-8.3l-8.2-5.9
		l0,15.9L510.1,42.2z M493.4,55.2l7.9,2.6v-0.8l0-8.8l0-3.5l-7.9,1.6L493.4,55.2z"/>
        <polygon class="st6" points="490.5,44.3 490.5,36.3 488.3,35.7 488.3,43.8 			"/>
        <polygon class="st6" points="490.5,36.3 501.3,24.4 499.7,23.3 488.3,35.7 			"/>
        <polygon class="st6" points="532.9,35.3 519,24.7 499.7,19.6 513.5,30.3 			"/>
        <polygon class="st6" points="488.3,35.7 499.7,23.3 501.3,24.4 510.4,30.9 513.5,30.3 499.7,19.6 484.8,36.5 484.8,44.5
		488.3,43.8 			"/>
        <polygon class="st6" points="484.8,44.5 490.5,45.9 490.5,44.3 488.3,43.8 			"/>
        <polygon class="st6" points="501.9,27.9 501.9,43.9 510.1,42.2 510.2,33.9 			"/>
        <polygon class="st6" points="501.3,44.7 493.4,46.3 501.3,48.2 			"/>
        <polygon class="st6" points="493.4,46.3 493.4,55.2 501.3,57.1 501.3,48.2 			"/>
        <polygon class="st6" points="493.4,55.2 501.3,57.8 501.3,57.1 			"/>
	</g>
        <g>
		<polygon class="st5" points="318.7,101.6 318.6,80.6 308.8,78.9 308.8,104.3 312.7,104.9 			"/>
            <polygon class="st5" points="308.8,78.9 318.6,80.6 326.1,81.9 328.3,81.4 308.8,78.1 306.6,78.5 			"/>
            <path class="st5" d="M293.6,102l0-12.2v-0.9l0-6.7l7.1-9l5.9,5.4l2.2,0.4l0,25.4L293.6,102z M307.1,87.7l0-6.9l-5.7-5.2l0,13.3
				L307.1,87.7z M295.6,98.1l5.5,2.4v-1.5l0-7.4v-2l-5.5,1.1L295.6,98.1z"/>
            <polygon class="st6" points="293.6,88.8 293.6,82.1 291.4,81.8 291.4,88.5 			"/>
            <polygon class="st6" points="293.6,82.1 300.6,73.1 299.2,71.8 291.4,81.8 			"/>
            <polygon class="st6" points="328.3,81.4 318.6,72.2 299.2,68.7 308.8,78.1 			"/>
            <polygon class="st6" points="291.4,81.8 299.2,71.8 300.6,73.1 306.6,78.5 308.8,78.1 299.2,68.7 288.9,82.3 289,89 291.4,88.5
							"/>
            <polygon class="st6" points="289,89 293.6,89.7 293.6,88.8 291.4,88.5 			"/>
            <polygon class="st6" points="301.4,75.6 301.4,88.9 307.1,87.7 307.1,80.8 			"/>
            <polygon class="st6" points="301.1,89.5 295.6,90.6 301.1,91.5 			"/>
            <polygon class="st6" points="295.6,90.6 295.6,98.1 301.1,98.9 301.1,91.5 			"/>
            <polygon class="st6" points="295.6,98.1 301.1,100.5 301.1,98.9 			"/>
	</g>
</g>


    <g id="right-window">
        <g>
			<path class="st7" d="M619.2,168.2l-1.1,11.9l-2.8,10.9l-4.4,9.1l-5.7,6.8l-6.7,3.9l-7.2,0.7L584,209l-6.9-5.8l-5.9-8.6l-4.5-10.9
				l-2.8-12.4l-0.8-13.1l1.2-12.7l3.2-11.4l4.8-9.3l6.2-6.5l7-3.3l7.3,0l7.2,3.3l6.5,6.3l5.5,8.8l4.1,10.6l2.5,11.8L619.2,168.2z
				 M566.9,158.9l0.7,11.3L570,181l3.9,9.5l5.1,7.5l13.6-76.6l-6.4,0l-6.1,2.9l-5.3,5.7l-4.2,8l-2.7,9.9L566.9,158.9z M592,163.4
				l-7,39.7l6.3,2.3l6.3-0.6l5.8-3.4l5-5.9l3.8-7.9l2.5-9.5L592,163.4z M604.6,129.7l-5.7-5.4l-5.5,31.3l22.1,14.5l0.2-2.5
				l-0.6-10.7l-2.2-10.3l-3.6-9.3L604.6,129.7z"/>
            <polygon class="st8" points="573.9,203.5 580.7,209.2 584,209 577.1,203.3 			"/>
            <polygon class="st8" points="573.9,203.5 577.1,203.3 571.2,194.6 567.9,194.9 			"/>
            <polygon class="st8" points="584,209 580.7,209.2 588,211.8 591.3,211.6 			"/>
            <polygon class="st8" points="567.9,194.9 571.2,194.6 566.6,183.7 563.4,184 			"/>
            <polygon class="st8" points="585.4,115.1 582.2,115.5 575.2,118.8 578.4,118.4 			"/>
            <polygon class="st8" points="560.6,171.6 563.4,184 566.6,183.7 563.9,171.3 			"/>
            <polygon class="st8" points="560.6,171.6 563.9,171.3 563,158.2 559.8,158.6 			"/>
            <polygon class="st8" points="559.8,158.6 563,158.2 564.3,145.5 561,145.9 			"/>
            <polygon class="st8" points="564.2,134.5 561,145.9 564.3,145.5 567.4,134.1 			"/>
            <polygon class="st8" points="564.2,134.5 567.4,134.1 572.3,124.9 569,125.3 			"/>
            <polygon class="st8" points="569,125.3 572.3,124.9 578.4,118.4 575.2,118.8 			"/>
		</g>
        <polygon class="st9" points="570.7,138 568,147.9 566.9,158.9 567.6,170.2 570,181 574,190.5 579.1,198 592.7,121.4 586.3,121.4
			580.2,124.3 574.9,130 		"/>
        <polygon class="st9" points="612.3,187.5 614.8,178 592,163.4 585,203 591.4,205.3 597.6,204.7 603.5,201.3 608.5,195.5 		"/>
        <polygon class="st9" points="613,146.6 609.4,137.3 604.6,129.7 598.9,124.3 593.4,155.6 615.5,170.1 615.7,167.6 615.1,156.9
			"/>
    </g>


    <g>
	<g>
		<g>
			<polygon class="st4" points="414.3,556.2 414.3,540.8 376.7,549.8 376.7,565.7 414.2,556.3 			"/>
            <polygon class="st0" points="414.3,540.8 400.9,537.6 374.1,543.8 292.3,523.2 292.3,518.4 276.8,521.4 270.9,522.5 376.7,549.8
							"/>
            <polygon class="st0" points="400.9,524.6 318.9,506 292.3,511 374.1,530.5 			"/>
            <polygon class="st4" points="400.9,537.6 400.9,524.6 374.1,530.5 374.1,543.8 			"/>
            <polygon class="st4" points="270.9,536.9 376.7,565.7 376.7,549.8 270.9,522.5 			"/>
            <polygon class="st4" points="292.3,523.2 374.1,543.8 374.1,530.5 292.3,511 292.3,518.4 			"/>
		</g>
	</g>

        <g>
		<g>
			<polygon class="st9" points="496.6,474.3 496.6,433.6 460.1,428.9 460.1,468.3 			"/>
            <g>
				<path class="st7" d="M500.5,378l-0.2,104.5l-84.2-14.4l0-96.8L500.5,378z M460.1,428.9l0,39.4l36.5,6l0.1-40.7L460.1,428.9z
					 M454.9,382.6l-35.5-3.1l0,82.1l35.4,5.8L454.9,382.6z M460.2,383.1l0,35.8l36.5,4.4l0.1-37L460.2,383.1z"/>
                <polygon class="st8" points="500.3,482.5 504.6,481.7 504.8,377.6 500.5,378 				"/>
                <polygon class="st8" points="500.5,378 504.8,377.6 420.5,370.9 416.1,371.3 				"/>
			</g>
            <polygon class="st9" points="419.4,461.6 454.8,467.5 454.9,382.6 419.4,379.5 			"/>
            <polygon class="st9" points="496.6,423.3 496.7,386.3 460.2,383.1 460.1,418.9 			"/>
		</g>


            <g>
			<polygon class="st9" points="290.2,440.4 290.1,407 265.5,403.9 265.6,436.3 			"/>
                <g>
				<path class="st7" d="M292.6,361.4l0.1,85.6l-57.2-9.8l-0.2-80.4L292.6,361.4z M265.5,403.9l0.1,32.5l24.6,4l-0.1-33.3
					L265.5,403.9z M261.8,365.8l-24.3-2.1l0.2,68.1l24.2,4L261.8,365.8z M265.4,366.1l0.1,29.5l24.6,2.9l0-30.3L265.4,366.1z"/>
                    <polygon class="st8" points="292.7,447 297,446.4 296.9,361.2 292.6,361.4 				"/>
                    <polygon class="st8" points="292.6,361.4 296.9,361.2 239.6,356.6 235.3,356.9 				"/>
			</g>
                <polygon class="st9" points="237.7,431.8 262,435.7 261.8,365.8 237.6,363.7 			"/>
                <polygon class="st9" points="290.1,398.6 290.1,368.3 265.4,366.1 265.5,395.6 			"/>
		</g>

            <g>
			<polygon class="st9" points="375,213.1 375,176.4 329.1,181.4 329.1,216.4 			"/>
                <g>
				<path class="st7" d="M377.2,125.8l0,94l-50.1,3.3l-0.1-89.3L377.2,125.8z M329.1,181.4l0,35l45.9-3.3l0-36.6L329.1,181.4z
					 M329,140.7l0,31.8l46-5.4l0-33.3L329,140.7z"/>
                    <polygon class="st8" points="331.5,223.2 381.6,220 377.2,219.7 327.1,223 				"/>
                    <polygon class="st8" points="377.2,219.7 381.6,220 381.6,126.4 377.2,125.8 				"/>
			</g>
                <polygon class="st9" points="375,167.1 375,133.8 329,140.7 329.1,172.5 			"/>
		</g>
            <g>
			<polygon class="st9" points="490.9,209.2 491,176.3 456.5,179.7 456.4,211.6 			"/>
                <g>
				<path class="st7" d="M452.2,102.6l42.4,23.5l-0.1,89l-79.8,5l0-82.7L452.2,102.6z M456.5,179.7l0,31.9l34.5-2.3l0-32.9
					L456.5,179.7z M451.4,211.9l0-31.7l-33.7,3.3l0,30.8L451.4,211.9z M456.5,142.6l0,29l34.5-3.6l0-29.9L456.5,142.6z M417.8,175.6
					l33.7-3.5l0-28.9l-33.7,4.4L417.8,175.6z M491.1,130.8L452.2,109l-34.4,31.7L491.1,130.8z"/>
                    <polygon class="st8" points="419.1,220.4 498.8,215.4 494.5,215.1 414.7,220.1 				"/>
                    <polygon class="st8" points="494.5,215.1 498.8,215.4 498.9,126.8 494.6,126.1 				"/>
                    <polygon class="st8" points="452.2,102.6 494.6,126.1 498.9,126.8 456.6,103.4 				"/>
			</g>
                <polygon class="st9" points="417.8,183.4 417.8,214.2 451.4,211.9 451.5,180.1 			"/>
                <polygon class="st9" points="491,167.9 491,138 456.5,142.6 456.5,171.5 			"/>
                <polygon class="st9" points="451.5,143.2 417.8,147.6 417.8,175.6 451.5,172.1 			"/>
                <polygon class="st9" points="452.2,109 417.8,140.8 491.1,130.8 			"/>
		</g>
            <g>
			<polygon class="st7" points="374.1,443.7 369.1,443 369.1,439.1 368.6,431.4 330.8,426 330.8,487.3 374.1,496.3 			"/>
                <g>
				<polygon class="st7" points="376.2,440.2 378.5,439.9 378.5,428.6 376.2,428.9 				"/>
                    <polygon class="st8" points="376.2,440.2 376.2,428.9 368.6,427.8 368.6,431.4 368.6,439.1 				"/>
                    <polygon class="st7" points="368.6,427.8 376.2,428.9 378.5,428.6 370.9,427.5 				"/>
                    <path class="st8" d="M324.5,498.1l-0.1-139.1l57.2,4.3l0,147.3L324.5,498.1z M369.1,439.1l7.1,1.1l2.4-0.3l0-11.3l-7.6-1.1
					l-2.4,0.3v3.6l-37.8-5.4l0.1,61.3l43.3,8.9l0-52.5l-5-0.8L369.1,439.1z M374.3,421.2l-0.5-4.6l-0.7-4.5l-1-4.4l-1.3-4.3
					l-1.5-4.2l-1.7-4l-1.9-3.8l-2.1-3.5l-2.3-3.3l-2.5-3l-2.6-2.7l-2.7-2.4l0,41.8L374.3,421.2z M348,376.1l-2.6,1.8l-2.5,2.1
					l-2.3,2.5l-2.1,2.8l-1.9,3.1l-1.6,3.3l-1.4,3.6l-1.1,3.8l-0.9,3.9l-0.6,4.1l-0.3,4.2l0,4.2l17.3,2.3L348,376.1z"/>
                    <polygon class="st8" points="392.2,522.4 392.2,349.1 389.2,349.3 389.2,523 				"/>
                    <path class="st7" d="M317.7,506.6l-0.2-161.7l71.7,4.3l0,173.7L317.7,506.6z M324.3,358.9l0.1,139.1l57.1,12.5l0-147.3
					L324.3,358.9z"/>
                    <polygon class="st8" points="389.2,349.3 392.2,349.1 320.4,344.8 317.5,344.9 				"/>
			</g>
                <polygon class="st9" points="353.3,376.5 353.4,418.4 374.3,421.2 373.8,416.6 373,412.1 372,407.6 370.8,403.3 369.3,399.1
				367.5,395.1 365.6,391.4 363.5,387.8 361.1,384.5 358.7,381.6 356.1,378.9 			"/>
                <polygon class="st9" points="330.7,415.4 348,417.7 348,376.1 345.4,377.8 342.9,380 340.7,382.4 338.6,385.2 336.7,388.3
				335.1,391.7 333.7,395.2 332.6,399 331.7,402.9 331.1,407 330.8,411.2 			"/>
		</g>

            <g>
			<polygon class="st9" points="285.8,223.2 285.8,196.3 262.5,198.5 262.5,224.8 			"/>
                <g>
				<path class="st7" d="M259.4,135l28.7,20.3l0.1,72.8l-54.2,3.4l-0.2-68.6L259.4,135z M262.5,198.5l0,26.3l23.3-1.6l0-26.9
					L262.5,198.5z M259.1,225l0-26.2l-23,2.2l0.1,25.5L259.1,225z M262.4,168l0,23.9l23.3-2.4l0-24.5L262.4,168z M236.1,194.6
					l23-2.4l0-23.8l-23,3L236.1,194.6z M285.7,159l-26.3-18.7L236,165.7L285.7,159z"/>
                    <polygon class="st8" points="238.3,231.7 292.5,228.3 288.2,228.1 234,231.5 				"/>
                    <polygon class="st8" points="288.2,228.1 292.5,228.3 292.4,155.7 288.1,155.2 				"/>
                    <polygon class="st8" points="259.4,135 288.1,155.2 292.4,155.7 263.7,135.5 				"/>
			</g>
                <polygon class="st9" points="236.1,201.1 236.1,226.6 259.1,225 259.1,198.9 			"/>
                <polygon class="st9" points="285.8,189.4 285.7,164.9 262.4,168 262.5,191.8 			"/>
                <polygon class="st9" points="259,168.4 236,171.4 236.1,194.6 259.1,192.2 			"/>
                <polygon class="st9" points="259.4,140.3 236,165.7 285.7,159 			"/>
		</g>

            <g>
			<path class="st7" d="M618.4,428.1l-1.1,12.2l-2.8,11.7l-4.4,10.4l-5.7,8.4l-6.7,5.9l-7.2,2.9l-7.3-0.3l-6.8-3.6l-5.9-6.8
				l-4.5-9.5l-2.8-11.5l-0.8-12.7l1.2-12.9l3.2-12.3l4.8-10.6l6.1-8.3l7-5.4l7.3-2.2l7.1,1.1l6.5,4.2l5.5,7l4.1,9.3l2.5,11
				L618.4,428.1z M566.3,434.7l0.7,11l2.4,10l3.9,8.2l5.1,5.9l13.6-80l-6.4,1.9l-6.1,4.7l-5.3,7.2l-4.2,9.2l-2.7,10.6L566.3,434.7z
				 M591.2,431.5l-7,41.4l6.3,0.3l6.3-2.5l5.8-5.1l5-7.3l3.8-9l2.5-10.2L591.2,431.5z M603.8,394.3l-5.7-3.7l-5.5,32.7l22.1,7.6
				l0.2-2.5l-0.6-10.4l-2.2-9.6l-3.6-8.1L603.8,394.3z"/>
                <polygon class="st8" points="573.1,475.1 580,478.7 583.2,479.2 576.4,475.6 			"/>
                <polygon class="st8" points="573.1,475.1 576.4,475.6 570.5,468.8 567.2,468.3 			"/>
                <polygon class="st8" points="567.2,468.3 570.5,468.8 566,459.4 562.7,458.9 			"/>
                <polygon class="st8" points="559.9,447.4 562.7,458.9 566,459.4 563.2,447.9 			"/>
                <polygon class="st8" points="559.9,447.4 563.2,447.9 562.4,435.2 559.1,434.8 			"/>
                <polygon class="st8" points="559.1,434.8 562.4,435.2 563.6,422.2 560.3,421.8 			"/>
                <polygon class="st8" points="563.5,409.6 560.3,421.8 563.6,422.2 566.7,410 			"/>
                <polygon class="st8" points="563.5,409.6 566.7,410 571.6,399.3 568.3,399 			"/>
                <polygon class="st8" points="568.3,399 571.6,399.3 577.7,391 574.5,390.7 			"/>
                <polygon class="st8" points="581.5,385.4 574.5,390.7 577.7,391 584.7,385.6 			"/>
                <polygon class="st8" points="581.5,385.4 584.7,385.6 592,383.5 588.8,383.2 			"/>
		</g>
            <polygon class="st9" points="570,412.8 567.3,423.5 566.3,434.7 567,445.7 569.3,455.6 573.2,463.8 578.3,469.7 591.9,389.7
			585.5,391.7 579.5,396.4 574.2,403.6 		"/>
            <polygon class="st9" points="611.5,449.3 613.9,439.1 591.2,431.5 584.3,472.9 590.6,473.3 596.9,470.8 602.7,465.7 607.7,458.3
					"/>
            <polygon class="st9" points="612.1,408.5 608.6,400.4 603.8,394.3 598.1,390.7 592.6,423.4 614.7,431.1 614.9,428.5 614.3,418.1
					"/>
	</g>
</g>
</svg>
