<?xml version="1.0" encoding="utf-8"?>
<!-- Generator: Adobe Illustrator 25.0.1, SVG Export Plug-In . SVG Version: 6.00 Build 0)  -->
<svg version="1.1" id="katman_1" xmlns="http://www.w3.org/2000/svg" x="0px" y="0px"
     viewBox="0 0 841.9 595.3" style="enable-background:new 0 0 841.9 595.3;" xml:space="preserve">
<style type="text/css">
	.st0{fill:#8F6645;}
	.st1{fill:#EEEEEE;}
	.st2{fill:#DDDDDD;}
	.st3{fill:#3D3A37;}
	.st4{fill:#C4C4C4;}
	.st5{fill:#3D3A37;}
	.st6{fill:#000000;}
	.st7{fill:#FFFFFF;}
	.st8{fill:#888888;}
	.st9{fill:#7884AF;}
</style>

    <g id="body">
	<polygon class="st4" points="542.2,516.6 623.9,494.1 626,153.3 626,150.9 588.4,121.3 550.6,134.4 543.7,135.4 		"/>
        <polygon class="st0" points="235.4,121.2 237.4,537 344.9,570.7 344.1,97.8 		"/>
        <polygon class="st0" points="526.1,513.2 542.2,516.6 543.7,135.4 536.4,136.4 527.4,137.7 		"/>
        <polygon class="st0" points="526.1,513.2 527.4,137.7 491.2,120.2 468.2,122.4 467.5,528.8 		"/>
        <polygon class="st4" points="345.6,570.3 468.2,536.6 468.2,528.3 468.9,121.9 468.9,121.3 411.1,81.4 351.8,95.8 344.8,97.3 	"/>
</g>


    <g id="roof">
	<polygon class="st1" points="528.2,137 537.1,135.7 501,118 492,119.5 		"/>
        <polygon class="st1" points="544.4,134.7 551.4,133.7 551.4,123.2 537.1,125.3 537.1,135.7 		"/>
        <polygon class="st1" points="501,118 537.1,135.7 537.1,125.3 524.5,118 501,104.5 476,108.1 476,119.3 469,120.4 		"/>
        <polygon class="st1" points="501,118 468.9,121 468.9,121.7 492,119.5 		"/>
        <polygon class="st1" points="551.4,123.2 551.4,133.7 589.1,120.6 594.7,118.6 633.5,149.4 641.3,150.9 641.4,141.5 633.5,139.9
		594.8,106.8 		"/>
        <polygon class="st1" points="626.8,152.6 641.3,150.9 633.5,149.4 626.8,150.2 		"/>
        <polygon class="st1" points="589.1,120.6 626.8,150.2 633.5,149.4 594.7,118.6 		"/>
        <polygon class="st1" points="476,107.6 418,64.9 351.9,82.2 347.7,81.3 334.5,78.4 334.4,91.9 351.8,95.6 411.1,81.1 418,79.5
		476,119.3 476,108.1 		"/>
        <polygon class="st1" points="334.4,91.9 334.5,78.4 219.3,106 219.2,117.7 		"/>
        <polygon class="st1" points="351.9,82.2 418,64.9 399.4,69.2 379.5,73.9 369.3,76.3 347.7,81.3 		"/>
        <polygon class="st1" points="236.1,120.5 344.8,97.1 351.8,95.6 334.4,91.9 219.2,117.7 		"/>
        <polygon class="st1" points="411.1,81.1 469,120.4 476,119.3 418,79.5 		"/>
        <polygon class="st1" points="537.1,125.3 551.4,123.2 594.8,106.8 566.3,111.4 552.8,113.5 543,115.1 524.5,118 		"/>
</g>


    <g id="chimney">
	<g>
		<polygon class="st5" points="379.4,38.3 369.3,41 369.3,76.3 379.5,73.9 		"/>
        <polygon class="st5" points="369.3,41 379.4,38.3 387.4,36.1 384.5,35.4 364.2,40.9 367.1,41.6 		"/>
        <path class="st5" d="M387.4,36.1l3.7-2.8l8.4,10v7.8v1.6l0,16.5l-20,4.6l0-35.6L387.4,36.1z M389.6,54.9l0,9.2l7.2-2.3v-8.6
			l-7.2-1.8V54.9z M389.1,35l-7.5,5.6l0,8.1l7.5,1.8V35z"/>
        <polygon class="st6" points="399.4,43.3 399.4,51.1 407.3,49.2 407.3,41.3 		"/>
        <polygon class="st6" points="391.1,33.3 399.4,43.3 407.3,41.3 397.1,28.9 		"/>
        <polygon class="st6" points="410.5,42.1 397.1,25.3 384.5,35.4 387.4,36.1 391.1,33.3 397.1,28.9 407.3,41.3 407.3,49.2
			410.5,49.9 		"/>
        <polygon class="st6" points="384.5,35.4 397.1,25.3 376.8,30.9 364.2,40.9 		"/>
        <polygon class="st6" points="410.5,49.9 407.3,49.2 399.4,51.1 399.4,52.7 		"/>
        <path class="st6" d="M396.8,61.7l-7.2,1.7L396.8,61.7z"/>
        <polygon class="st6" points="389.6,63.4 396.8,61.7 396.8,53.1 389.6,54.9 		"/>
        <polygon class="st6" points="389.6,54.9 396.8,53.1 389.6,51.3 		"/>
        <polygon class="st6" points="381.6,48.7 389.1,50.5 389.1,35 381.6,40.6 		"/>
	</g>
        <polygon class="st6" points="564.5,108 559.7,108.8 559.7,110.2 	"/>
        <g>
		<polygon class="st5" points="543.1,91.4 543,115.1 552.8,113.5 552.9,89.6 		"/>
            <polygon class="st5" points="543.1,91.4 552.9,89.6 557,88.9 559.4,88.4 560.5,88.2 558.6,87.8 539,91.3 540.9,91.8 		"/>
            <path class="st5" d="M557,88.9l-2.7,2.6l0,6.6l5,1.2l0.1-10.8l1.1-0.2l1.5-1.4l4.4,6.1l0,6.4l0,0.9l-0.1,11.2l-13.5,2.2l0.1-23.9
			L557,88.9z M559.7,101.8l0,7l0,1.4l4.9-2.2l0-7.1l-4.9-1.1L559.7,101.8z"/>
            <polygon class="st6" points="566.4,92.9 566.4,99.3 574,98 574,91.6 		"/>
            <polygon class="st6" points="562,86.8 566.4,92.9 574,91.6 567.1,81.9 		"/>
            <polygon class="st6" points="554.3,98 559.4,99.2 559.4,88.4 557,88.9 554.4,91.4 		"/>
            <polygon class="st6" points="576.1,92.1 567.1,79 558.6,87.8 560.5,88.2 562,86.8 567.1,81.9 574,91.6 574,98 576.1,98.5 		"/>
            <polygon class="st6" points="558.6,87.8 567.1,79 547.5,82.7 539,91.3 		"/>
            <polygon class="st6" points="576.1,98.5 574,98 566.4,99.3 566.4,100.2 		"/>
            <polygon class="st6" points="559.7,108.8 564.5,108 564.6,101 559.7,101.8 		"/>
            <polygon class="st6" points="559.7,101.8 564.6,101 559.7,99.8 		"/>
	</g>
</g>


    <g id="right-window">
		<g>
			<polygon class="st8" points="321.6,149.6 318.7,138.4 315.7,138 318.6,149.2 			"/>
            <polygon class="st8" points="321.6,149.6 318.6,149.2 319.5,161.5 322.5,161.9 			"/>
            <path class="st7" d="M319.5,161.5l-1.2,12.6l-3.1,11.8l-4.9,10.3l-6.2,8l-7.1,5.1l-7.4,2l-7.3-1.1l-6.6-4.1l-5.6-6.8l-4.2-9
				l-2.6-10.6l-0.8-11.5l1-11.8l2.8-11.3l4.4-10l5.7-8.2l6.7-5.7l7.3-2.8l7.4,0.3l7,3.5l6.1,6.6l4.7,9.2l2.9,11.2L319.5,161.5z
				 M266.1,167.7l0.7,10.1l2.2,9.2l3.7,7.8l4.9,5.9l12.9-76.3l-6.4,2.4l-5.9,4.9l-5,7.1l-3.8,8.7l-2.4,9.8L266.1,167.7z
				 M290.1,164.9l-6.7,39.4l6.3,0.9l6.4-1.8l6.1-4.5l5.4-6.9l4.2-8.9l2.7-10.3L290.1,164.9z M303,127.9l-6.1-3.1l-5.5,32.3l23.9,7.5
				l0.2-2.6l-0.8-10.7l-2.5-9.7l-4-8L303,127.9z"/>
            <polygon class="st8" points="315.7,138 318.7,138.4 314,129.3 311.1,128.8 			"/>
            <polygon class="st8" points="318.2,186.2 321.3,174.4 318.3,174.1 315.2,185.9 			"/>
            <polygon class="st8" points="318.2,186.2 315.2,185.9 310.3,196.2 313.3,196.5 			"/>
            <polygon class="st8" points="318.3,174.1 321.3,174.4 322.5,161.9 319.5,161.5 			"/>
            <polygon class="st8" points="313.3,196.5 310.3,196.2 304.1,204.2 307.1,204.4 			"/>
            <polygon class="st8" points="289.6,211.4 292.6,211.6 300,209.5 297,209.3 			"/>
            <polygon class="st8" points="314,129.3 308,122.7 305,122.2 311.1,128.8 			"/>
            <polygon class="st8" points="308,122.7 301,119.2 298,118.7 305,122.2 			"/>
            <polygon class="st8" points="307.1,204.4 304.1,204.2 297,209.3 300,209.5 			"/>
		</g>
        <polygon class="st9" points="269.4,147.7 267,157.5 266.1,167.7 266.8,177.8 269.1,187.1 272.7,194.9 277.6,200.8 290.5,124.5
			284.1,126.9 278.3,131.8 273.3,138.9 		"/>
        <polygon class="st9" points="311.8,183.1 314.5,172.9 290.1,164.9 283.4,204.4 289.7,205.3 296.1,203.5 302.2,199 307.6,192 		"/>
        <polygon class="st9" points="312.3,141.6 308.2,133.6 303,127.9 296.9,124.8 291.4,157.1 315.3,164.6 315.5,162 314.8,151.3 		"/>
    </g>
    <g>
        <g>
		<g>
			<polygon class="st8" points="322.3,414.5 319.4,402.6 316.4,402.9 319.3,414.8 			"/>
            <polygon class="st8" points="322.3,414.5 319.3,414.8 320.2,427.3 323.1,426.9 			"/>
            <path class="st7" d="M320.2,427.3l-1.2,12l-3.1,10.7l-4.8,8.6l-6.2,5.9l-7,2.9l-7.4-0.3l-7.2-3.3l-6.6-6.1l-5.5-8.4l-4.2-10.1
				l-2.5-11.2l-0.8-11.6l1-11.3l2.7-10.2l4.3-8.5l5.7-6.3l6.7-3.6l7.3-0.5l7.4,2.6l7,5.6l6,8.3l4.6,10.5l2.9,11.9L320.2,427.3z
				 M267.1,417l0.7,10.1l2.2,9.8l3.6,8.8l4.8,7.3l12.8-71.2l-6.3,0.4l-5.8,3.1l-5,5.4l-3.8,7.4l-2.4,8.9L267.1,417z M291,421.6
				l-6.7,36.7l6.3,2.9l6.4,0.2l6.1-2.6l5.3-5.2l4.2-7.5l2.7-9.3L291,421.6z M303.8,389.1l-6-4.9l-5.5,30.1L316,429l0.2-2.5
				l-0.8-10.7l-2.5-10.3l-4-9.1L303.8,389.1z"/>
            <polygon class="st8" points="316.4,402.9 319.4,402.6 314.7,392.2 311.8,392.4 			"/>
            <polygon class="st8" points="287.1,376.2 284.2,376.4 291.4,375.9 294.4,375.6 			"/>
            <polygon class="st8" points="318.8,449.5 322,438.8 319,439.3 315.9,450 			"/>
            <polygon class="st8" points="318.8,449.5 315.9,450 311,458.6 314,458.1 			"/>
            <polygon class="st8" points="319,439.3 322,438.8 323.1,426.9 320.2,427.3 			"/>
            <polygon class="st8" points="314,458.1 311,458.6 304.9,464.5 307.8,464 			"/>
            <polygon class="st8" points="294.4,375.6 291.4,375.9 298.8,378.5 301.8,378.2 			"/>
            <polygon class="st8" points="314.7,392.2 308.7,383.8 305.8,384.1 311.8,392.4 			"/>
            <polygon class="st8" points="308.7,383.8 301.8,378.2 298.8,378.5 305.8,384.1 			"/>
            <polygon class="st8" points="307.8,464 304.9,464.5 297.9,467.4 300.8,466.9 			"/>
		</g>
            <polygon class="st9" points="270.4,398.2 268,407.1 267.1,417 267.8,427.1 270.1,436.9 273.7,445.7 278.6,453 291.4,381.8
			285,382.3 279.2,385.3 274.2,390.8 		"/>
            <polygon class="st9" points="312.5,446.2 315.2,436.9 291,421.6 284.3,458.3 290.6,461.2 297,461.4 303,458.8 308.4,453.6 		"/>
            <polygon class="st9" points="313,405.4 309,396.3 303.8,389.1 297.8,384.1 292.3,414.3 316,429 316.2,426.5 315.5,415.7 		"/>
	</g>

        <g>
		<polygon class="st9" points="522.1,160.8 501.3,157.6 501.1,221.7 521.9,223.4 		"/>
            <g>
			<polygon class="st8" points="525.6,226.5 470.8,222.3 466.6,222.6 521.4,226.7 			"/>
                <path class="st7" d="M471,149.9l54.9,8.7l-0.2,67.9l-54.8-4.2L471,149.9z M501.1,221.7l20.8,1.7l0.2-62.5l-20.8-3.2L501.1,221.7z
				 M475.6,219.7l20,1.6l0.2-64.5l-20.1-3.1L475.6,219.7z"/>
                <polygon class="st8" points="471,149.9 466.7,150.5 466.6,222.6 470.8,222.3 			"/>
		</g>
            <polygon class="st9" points="495.8,156.8 475.7,153.7 475.6,219.7 495.6,221.3 		"/>
	</g>
        <polygon class="st8" points="459,530 461.1,530.5 461.3,400.4 459.2,400.1 	"/>
        <polygon class="st8" points="459.2,400.1 461.3,400.4 466.4,392.9 464.3,392.6 	"/>
        <g>
		<polygon class="st8" points="492.4,383.6 489.8,384.1 484.4,386.5 479.2,390 474,394.7 469.2,400.5 466.4,404.6 466.2,519.7
			492.1,513.1 492.3,461.1 488.5,461.9 488.6,449.5 492.3,448.8 		"/>
            <polygon class="st8" points="500.1,511.1 521.6,505.6 521.9,397.5 519.5,394.3 515.2,389.9 510.5,386.5 505.5,384.2 500.4,383
			500.2,447.4 503.5,446.8 503.5,458.9 500.2,459.6 		"/>
            <g>
			<path class="st7" d="M461.3,400.4l5.1-7.5l5.4-6.3l5.7-5.1l5.8-3.8l5.9-2.5l5.9-1.2l5.8,0.1l5.7,1.4l5.4,2.6l5.1,3.8l4.8,4.9
				l4.4,5.9L526,513.2l-64.8,17.3L461.3,400.4z M484.4,386.5l-5.3,3.5l-5.1,4.7l-4.9,5.8l-2.7,4.1l-0.2,115.2l25.9-6.6l0.1-52
				l-3.7,0.7l0-12.4l3.7-0.7l0.1-65.3l-2.7,0.6L484.4,386.5z M521.9,397.5l-2.4-3.2l-4.4-4.4l-4.7-3.4l-4.9-2.3l-5.1-1.2l-0.2,64.4
				l3.3-0.6l0,12.2l-3.3,0.6l-0.1,51.5l21.5-5.5L521.9,397.5z M498.1,457.7l1.9,0.3l3.5-0.7l0-6.7l-1.9-0.3l-3.5,0.6L498.1,457.7z
				 M492.2,459.7l3.8-0.7l0-7.3l-1.9-0.3l-3.8,0.7l0,7.3L492.2,459.7z"/>
                <polygon class="st8" points="489.2,375 495.1,373.8 493,373.6 487.1,374.8 			"/>
                <polygon class="st8" points="495.1,373.8 500.9,373.9 498.8,373.7 493,373.6 			"/>
                <polygon class="st8" points="483.3,377.5 489.2,375 487.1,374.8 481.2,377.4 			"/>
                <polygon class="st8" points="477.5,381.4 483.3,377.5 481.2,377.4 475.4,381.2 			"/>
                <polygon class="st8" points="471.9,386.5 477.5,381.4 475.4,381.2 469.7,386.3 			"/>
                <polygon class="st8" points="466.4,392.9 471.9,386.5 469.7,386.3 464.3,392.6 			"/>
                <polygon class="st8" points="501.6,450.3 498.1,450.9 500,451.2 503.4,450.6 			"/>
                <polygon class="st8" points="498.1,450.9 498.1,457.7 500,458 500,451.2 			"/>
                <polygon class="st8" points="503.4,457.3 503.4,450.6 500,451.2 500,458 			"/>
                <polygon class="st8" points="490.4,452.1 490.4,459.4 492.2,459.7 492.2,452.4 			"/>
                <polygon class="st8" points="494.2,451.4 490.4,452.1 492.2,452.4 496,451.7 			"/>
                <polygon class="st8" points="492.2,452.4 492.2,459.7 496,459 496,451.7 			"/>
		</g>
	</g>
        <g>
		<g>
			<path class="st7" d="M569.2,235.7l0.4-83.4l48.6,8.5l-0.5,78.3L569.2,235.7z M616.6,164.5l-20.4-3.5l-0.2,32.3l20.4,2.6
				L616.6,164.5z M571,231.6l21.9,1.6l0.2-32.2l-21.9-2.6L571,231.6z M593.1,193l0.2-32.5l-21.9-3.7l-0.2,33.4L593.1,193z
				 M595.9,201.4l-0.2,32l20.4,1.5l0.2-31.2L595.9,201.4z"/>
            <polygon class="st8" points="617.7,239.1 569.2,235.7 564.8,235.9 613.3,239.3 			"/>
            <polygon class="st8" points="569.2,235.7 569.6,152.3 565.1,152.9 564.8,235.9 			"/>
		</g>
            <polygon class="st9" points="596,193.4 616.4,196 616.6,164.5 596.2,161.1 		"/>
            <polygon class="st9" points="593.1,201.1 571.2,198.5 571,231.6 592.9,233.2 		"/>
            <polygon class="st9" points="571.4,156.9 571.2,190.3 593.1,193 593.3,160.6 		"/>
            <polygon class="st9" points="616.1,235 616.3,203.8 595.9,201.4 595.8,233.4 		"/>
	</g>
        <g>
		<g>
			<path class="st7" d="M568.2,463l0.4-82.3l48.3-5.5l-0.5,77.3L568.2,463z M615.3,379.3l-20.3,2.4l-0.2,31.9l20.3-3.3L615.3,379.3z
				 M570,458.4l21.8-4.6l0.2-31.8l-21.8,3.7L570,458.4z M591.9,414.1l0.2-32.1l-21.8,2.6l-0.1,33L591.9,414.1z M594.8,421.5
				l-0.2,31.6l20.3-4.3l0.2-30.8L594.8,421.5z"/>
            <polygon class="st8" points="568.2,463 568.6,380.6 564.1,380.3 563.7,462.3 			"/>
            <polygon class="st8" points="568.6,380.6 616.9,375.2 612.5,374.8 564.1,380.3 			"/>
		</g>
            <polygon class="st9" points="594.8,413.6 615.1,410.4 615.3,379.3 595,381.7 		"/>
            <polygon class="st9" points="591.9,422 570.1,425.7 570,458.4 591.7,453.8 		"/>
            <polygon class="st9" points="570.3,384.6 570.2,417.6 591.9,414.1 592.1,382 		"/>
            <polygon class="st9" points="614.9,448.9 615,418.1 594.8,421.5 594.6,453.2 		"/>
	</g>
        <g>
		<g>
			<path class="st7" d="M376.4,508.1l-0.1-101.7l72.8-8.3l-0.1,94.1L376.4,508.1z M446.8,403.3l-30.4,3.6l0,39.1l30.3-4.9
				L446.8,403.3z M379.1,502.4l33-7l0-38.9l-33,5.6L379.1,502.4z M412.1,446.7l0-39.3l-33,3.9l0,40.7L412.1,446.7z M416.4,455.7
				l0,38.8l30.3-6.4l0-37.5L416.4,455.7z"/>
            <polygon class="st8" points="376.4,508.1 376.3,406.4 371.8,405.9 371.9,507 			"/>
            <polygon class="st8" points="376.3,406.4 449.1,398.2 444.6,397.7 371.8,405.9 			"/>
		</g>
            <polygon class="st9" points="416.4,446 446.7,441.2 446.8,403.3 416.4,406.9 		"/>
            <polygon class="st9" points="412.1,456.4 379.1,462.1 379.1,502.4 412.1,495.4 		"/>
            <polygon class="st9" points="379.1,411.3 379.1,452 412.1,446.7 412.1,407.4 		"/>
            <polygon class="st9" points="446.7,488 446.7,450.5 416.4,455.7 416.4,494.5 		"/>
	</g>
        <g>
		<g>
			<path class="st7" d="M376.2,227.2l-0.1-103.3l73.4,12.8l-0.1,95.6L376.2,227.2z M447.1,141.2l-30.6-5.2l0,39.8l30.6,3.9
				L447.1,141.2z M378.9,222.2l33.2,2.5l0-39.5l-33.3-3.9L378.9,222.2z M412.2,175.2l0-39.9l-33.3-5.6l0,41.4L412.2,175.2z
				 M416.5,185.6l0,39.4l30.5,2.3l0-38.1L416.5,185.6z"/>
            <polygon class="st8" points="449.4,232.3 376.2,227.2 371.6,227.6 444.8,232.6 			"/>
            <polygon class="st8" points="376.2,227.2 376.1,123.9 371.5,124.8 371.6,227.6 			"/>
		</g>
            <polygon class="st9" points="416.5,175.8 447.1,179.7 447.1,141.2 416.5,136 		"/>
            <polygon class="st9" points="412.2,185.1 378.9,181.2 378.9,222.2 412.1,224.7 		"/>
            <polygon class="st9" points="378.9,129.7 378.9,171 412.2,175.2 412.2,135.3 		"/>
            <polygon class="st9" points="447,227.3 447.1,189.2 416.5,185.6 416.5,225 		"/>
	</g>
</g>
</svg>
