<?xml version="1.0" encoding="utf-8"?>
<!-- Generator: Adobe Illustrator 25.0.1, SVG Export Plug-In . SVG Version: 6.00 Build 0)  -->
<svg version="1.1" id="katman_1" xmlns="http://www.w3.org/2000/svg" x="0px" y="0px"
     viewBox="0 0 841.9 595.3" style="enable-background:new 0 0 841.9 595.3;" xml:space="preserve">
<style type="text/css">
	.st0{fill:#8F6645;}
	.st1{fill:#EEEEEE;}
	.st2{fill:#DDDDDD;}
	.st3{fill:#3D3A37;}
	.st4{fill:#C4C4C4;}
	.st5{fill:#3D3A37;}
	.st6{fill:#000000;}
	.st7{fill:#FFFFFF;}
	.st8{fill:#888888;}
	.st9{fill:#7884AF;}
</style>

    <g id="body">
	<polygon class="st0" points="627.4,547.1 631.9,127.7 529.4,106.9 526.7,587.3 			"/>
        <polygon class="st0" points="369.5,125.1 331,141.9 332.6,519.5 396,538.2 395.6,128.1 			"/>
        <polygon class="st0" points="331,141.9 322.3,140.8 315.1,139.9 317,523.4 332.6,519.5 			"/>
        <polygon class="st4" points="231.3,497.3 317,523.4 315.1,139.9 308.4,139 267.7,124.4 228.1,153.3 228.1,155.5 			"/>
        <polygon class="st4" points="526.4,587.5 529.1,107.1 522.4,105.8 457.4,89.2 395.3,127.8 395.3,128.4 395.7,538.4 395.7,547.8
		"/>
</g>


    <g id="roof">
	<polygon class="st2" points="529.4,106.9 631.9,127.7 644.5,130.3 660.2,128.4 539.4,102.9 522.7,105.5 			"/>
        <polygon class="st1" points="522.7,105.5 539.4,102.9 539.5,89.2 528.9,91 522.8,92 451.2,72.4 388.8,114.7 388.8,126.5
			451.2,87.3 457.7,88.9 			"/>
        <polygon class="st1" points="388.8,126.5 388.8,114.7 360.7,110.1 345.6,117.9 335.9,123 331.4,125.3 322.2,130.1 322.3,140.8
			360.7,123.8 395.6,127.8 			"/>
        <polygon class="st3" points="451.2,72.4 522.8,92 528.9,91 526,90.2 526,89.2 			"/>
        <polygon class="st1" points="539.5,89.2 539.4,102.9 660.2,128.4 660.4,116.8 559.3,93.7 549.8,91.6 			"/>
        <polygon class="st2" points="451.2,87.3 388.8,126.5 395.6,127.5 457.7,88.9 			"/>
        <polygon class="st2" points="360.7,123.8 322.3,140.8 331,141.9 369.5,125.1 			"/>
        <polygon class="st1" points="322.3,140.8 322.2,130.1 308.3,128.2 308.4,139 315.1,139.9 			"/>
        <polygon class="st2" points="228.1,153.3 267.7,124.4 262.4,122.5 221.6,152.6 			"/>
        <polygon class="st3" points="320.4,119.2 262.3,110.6 308.3,128.2 322.2,130.1 331.4,125.3 320.4,121.3 			"/>
        <polygon class="st1" points="262.3,110.6 221.5,142.9 212.2,144.3 212.3,153.9 221.6,152.6 262.4,122.5 267.7,124.4 308.4,139
			308.3,128.2 			"/>
        <polygon class="st1" points="212.3,153.9 228.1,155.5 228.1,153.3 221.6,152.6 			"/>
</g>


    <g id="chimney">
	<g>
		<polygon class="st5" points="345.5,86.2 335.8,84.4 335.9,123 345.6,117.9 			"/>
        <polygon class="st5" points="335.8,84.4 345.5,86.2 347.7,86.6 350.2,86.1 330.7,82.4 328.2,83 			"/>
        <path class="st5" d="M331.4,125.3l-11-4.1l0-2l-0.2-37.4l0-0.9l5.2-7.1l1.6,1.3l-5.1,7l0,6.9l5.7-1.2l0-4.6l0.5-7.2l0,7l7.6,1.4
		l0.2,38.6L331.4,125.3z M328.1,99.4l5.6-4.6l0-5.4l0-2.2l-5.7,1.2L328.1,99.4z"/>
        <polygon class="st6" points="320.2,81 325.4,73.8 320,69.4 312.6,79.6 			"/>
        <polygon class="st6" points="321.9,89 327.6,87.8 327.6,83.2 321.9,82.1 			"/>
        <polygon class="st6" points="321.9,82.1 327.6,83.2 327.6,75.6 			"/>
        <polygon class="st6" points="320,66.3 310.5,80 312.6,79.6 320,69.4 325.4,73.8 327,75.1 328.1,76 328.2,83 330.7,82.4
		330.7,75.5 			"/>
        <polygon class="st6" points="320,66.3 330.7,75.5 350.2,79.2 339.5,70.2 			"/>
        <polygon class="st6" points="312.6,79.6 310.5,80 320.2,81.8 320.2,81 			"/>
        <polygon class="st6" points="350.2,79.2 330.7,75.5 330.7,82.4 350.2,86.1 			"/>
        <polygon class="st6" points="328,88.3 333.7,89.3 333.7,87.1 			"/>
        <polygon class="st6" points="333.7,89.3 328,88.3 328.1,99.4 333.7,94.7 			"/>
	</g>
        <g>
		<polygon class="st5" points="559.3,93.7 559.6,50 550.1,47.3 549.8,91.6 			"/>
            <polygon class="st5" points="550.1,47.3 559.6,50 561.6,50.6 565.6,49.8 546.7,44.4 542.8,45.2 			"/>
            <path class="st5" d="M539.5,89.2L528.9,91l-2.9-0.8l0-1l0.2-43.7l0-1.6l10.1-11.3l6.4,4l0,8.6l7.4,2.1l-0.3,44.2L539.5,89.2z
				 M538,66.3l8.8-6l0-5.2l0-4.2l-8.7,1.8L538,66.3z M537.6,47.7l0.1-12.3l-8.8,9.9l0,8.5l8.8-1.8L537.6,47.7z"/>
            <polygon class="st6" points="526.3,43.9 536.4,32.6 530.3,28.8 518.8,41.8 			"/>
            <polygon class="st6" points="530.3,25 515.6,42.5 518.8,41.8 530.3,28.8 536.4,32.6 542.8,36.6 542.8,45.2 546.7,44.4
				546.8,35.7 			"/>
            <polygon class="st6" points="530.3,25 546.8,35.7 565.6,41.4 549.3,30.8 			"/>
            <polygon class="st6" points="518.8,41.8 515.6,42.5 526.3,45.5 526.3,43.9 			"/>
            <polygon class="st6" points="565.6,41.4 546.8,35.7 546.7,44.4 565.6,49.8 			"/>
            <polygon class="st6" points="538.1,52.6 546.8,55 546.9,50.8 			"/>
            <polygon class="st6" points="546.8,55 538.1,52.6 538,66.3 546.8,60.2 			"/>
            <polygon class="st6" points="528.8,45.3 537.6,47.7 537.6,35.4 			"/>
            <polygon class="st6" points="537.6,47.7 528.8,45.3 528.7,53.8 537.5,52 			"/>
	</g>
</g>


    <g id="left-window">
		<g>
			<path class="st7" d="M588.4,140.3l6,6l5,8.3l3.7,10.1l2.2,11.3l0.6,11.7l-1.1,11.4l-2.7,10.4l-4.1,8.8l-5.3,6.6l-6.2,3.9
				l-6.7,0.9l-6.8-2.3l-6.4-5.4l-5.5-8.2l-4.2-10.4l-2.6-11.9l-0.7-12.6l0.3-47.2l27.7,5.4L588.4,140.3z M557.3,179.6l0.1,0.9
				l23.5,3l0.8-40.5l-24.1-4.5L557.3,179.6z M584.6,144.4l-0.4,44l-26.6-3.3l0.3,5.4l2.2,10.4l3.6,9.1l4.8,7.1l5.5,4.7l5.9,2
				l5.9-0.7l5.4-3.4l4.7-5.7l3.6-7.7l2.3-9.2l1-10l-0.5-10.3l-1.9-9.9l-3.3-8.9l-4.4-7.3l-5.3-5.2L584.6,144.4z"/>
            <polygon class="st8" points="553.8,179 554.1,131.8 550.9,132.3 550.6,179.3 			"/>
            <polygon class="st8" points="554.5,191.6 553.8,179 550.6,179.3 551.3,191.8 			"/>
            <polygon class="st8" points="579.8,229.7 573.1,227.4 569.9,227.6 576.7,229.9 			"/>
            <polygon class="st8" points="573.1,227.4 566.7,222.1 563.6,222.2 569.9,227.6 			"/>
            <polygon class="st8" points="566.7,222.1 561.2,213.9 558.1,214.1 563.6,222.2 			"/>
            <polygon class="st8" points="561.2,213.9 557,203.5 553.9,203.7 558.1,214.1 			"/>
            <polygon class="st8" points="557,203.5 554.5,191.6 551.3,191.8 553.9,203.7 			"/>
		</g>
        <polygon class="st9" points="581.7,143 557.6,138.6 557.3,179.6 557.3,180.5 580.8,183.5 		"/>
        <polygon class="st9" points="592.8,150.9 587.5,145.7 584.6,144.4 584.2,188.3 557.6,185.1 557.9,190.5 560.1,200.9 563.7,210
			568.5,217.2 574,221.9 580,223.9 585.8,223.2 591.3,219.9 596,214.1 599.6,206.4 601.9,197.3 602.9,187.3 602.4,177 600.4,167.1
			597.2,158.2 		"/>
    </g>


    <g>
	<g>
		<polygon class="st0" points="360.7,123.8 369.5,125.1 395.6,128.1 		"/>
        <polygon class="st4" points="388.8,114.7 360.7,110.1 388.8,114.7 		"/>
	</g>
        <g>
		<g>
			<path class="st7" d="M241.2,249.8l-0.7-77.7l50.5-7.1l0.5,83L241.2,249.8z M289.2,169.5l-22.6,3l0.2,32.3l22.6-2.1L289.2,169.5z
				 M242.8,245.7l21.3-0.9l-0.2-31.8l-21.3,1.8L242.8,245.7z M263.8,205.1l-0.2-32.2l-21.4,2.9l0.3,31.3L263.8,205.1z M266.9,212.8
				l0.2,32l22.6-0.9l-0.2-32.9L266.9,212.8z"/>
            <polygon class="st8" points="291.1,164.9 291.6,248 295.8,248.1 295.4,165.4 			"/>
            <polygon class="st8" points="291.6,248 241.2,249.8 245.4,249.9 295.8,248.1 			"/>
		</g>
            <polygon class="st9" points="266.8,204.8 289.4,202.7 289.2,169.5 266.6,172.5 		"/>
            <polygon class="st9" points="263.9,213 242.5,214.8 242.8,245.7 264.1,244.9 		"/>
            <polygon class="st9" points="242.2,175.8 242.5,207.1 263.8,205.1 263.6,172.9 		"/>
            <polygon class="st9" points="289.7,243.8 289.5,210.9 266.9,212.8 267.1,244.8 		"/>
	</g>
        <g>
		<polygon class="st8" points="361.3,394.9 358.5,394.8 353.2,395.8 348.1,397.9 343.3,401 338.8,405.2 336.3,408.3 336.7,514.3
			361.6,521.4 361.5,470.8 357.7,469.9 357.6,457.9 361.4,458.7 		"/>
            <polygon class="st8" points="369.8,523.7 393.8,530.6 393.7,417.4 390.9,413.3 385.8,407.4 380.5,402.5 375.1,398.9 369.5,396.3
			369.7,460.5 373.2,461.2 373.2,473.4 369.7,472.6 		"/>
            <g>
			<polygon class="st8" points="399.1,541.4 401.1,540.8 401,413.1 399,413.4 			"/>
                <path class="st7" d="M331.7,403.1l4.5-5.7l5-4.6l5.3-3.5l5.6-2.4l5.8-1.1l6,0.1l6.1,1.4l6.1,2.7l6,4l5.9,5.3l5.6,6.5l5.3,7.6
				l0.1,127.9l-66.9-19.8L331.7,403.1z M353.2,395.8l-5.1,2.1l-4.8,3.2l-4.5,4.2l-2.5,3.1l0.4,106l24.9,7.1l-0.1-50.6l-3.8-0.9l0-12
				l3.8,0.8l-0.2-63.8l-2.7-0.1L353.2,395.8z M393.7,417.4l-2.8-4.1l-5.1-5.9l-5.3-4.8l-5.5-3.7l-5.5-2.5l0.1,64.2l3.5,0.7l0,12.2
				l-3.5-0.8l0.1,51.1l24,6.9L393.7,417.4z M367.5,463.2l-1.8,0.4l0,6.7l3.7,0.8l1.8-0.4l0-6.7L367.5,463.2z M357.8,461.5l0,7.1
				l3.9,0.9l1.8-0.4l0-7.2l-3.9-0.8L357.8,461.5z"/>
                <polygon class="st8" points="388.1,399.3 393.7,405.8 395.7,405.5 390.1,399.1 			"/>
                <polygon class="st8" points="358,385.8 364,385.9 366,385.7 360,385.6 			"/>
                <polygon class="st8" points="393.7,405.8 399,413.4 401,413.1 395.7,405.5 			"/>
                <polygon class="st8" points="364,385.9 370.1,387.3 372.1,387.1 366,385.7 			"/>
                <polygon class="st8" points="382.2,394.1 388.1,399.3 390.1,399.1 384.2,393.8 			"/>
                <polygon class="st8" points="376.2,390.1 382.2,394.1 384.2,393.8 378.2,389.8 			"/>
                <polygon class="st8" points="370.1,387.3 376.2,390.1 378.2,389.8 372.1,387.1 			"/>
                <polygon class="st8" points="371.1,470.7 371.1,464 369.4,464.3 369.4,471 			"/>
                <polygon class="st8" points="371.1,464 367.5,463.2 365.7,463.5 369.4,464.3 			"/>
                <polygon class="st8" points="369.4,471 369.4,464.3 365.7,463.5 365.7,470.2 			"/>
                <polygon class="st8" points="363.4,462 359.5,461.1 357.8,461.5 361.6,462.3 			"/>
                <polygon class="st8" points="363.4,469.2 363.4,462 361.6,462.3 361.6,469.5 			"/>
                <polygon class="st8" points="357.8,461.5 357.8,468.7 361.6,469.5 361.6,462.3 			"/>
		</g>
	</g>
        <g>
		<g>
			<path class="st7" d="M243,460.3l-0.7-76.1l50.1,7.3l0.5,81.1L243,460.3z M290.6,395.4l-22.4-3.4l0.2,31.6l22.4,4.3L290.6,395.4z
				 M244.6,456.8l21.1,5.1l-0.2-31.1l-21.2-4.3L244.6,456.8z M265.5,423.1l-0.2-31.5l-21.2-3.2l0.3,30.6L265.5,423.1z M268.5,431.4
				l0.2,31.2l22.4,5.4l-0.2-32.2L268.5,431.4z"/>
            <polygon class="s85" points="292.4,391.6 292.9,472.7 297.2,471.9 296.7,391.1 			"/>
            <polygon class="st8" points="242.4,384.2 292.4,391.6 296.7,391.1 246.5,383.8 			"/>
		</g>
            <polygon class="st9" points="268.4,423.6 290.8,427.9 290.6,395.4 268.2,392 		"/>
            <polygon class="st9" points="265.5,430.8 244.4,426.5 244.6,456.8 265.7,462 		"/>
            <polygon class="st9" points="244,388.4 244.3,419 265.5,423.1 265.2,391.6 		"/>
            <polygon class="st9" points="291.1,468.1 290.9,436 268.5,431.4 268.7,462.7 		"/>
	</g>

        <g>
		<polygon class="st9" points="388.3,168 365.1,170.9 365.3,235.1 388.4,234 		"/>
            <g>
			<polygon class="st8" points="392.8,236.8 335.5,239.3 339.5,239.5 396.8,237 			"/>
                <path class="st7" d="M335.2,171.7l57.5-7.2l0.1,72.3l-57.3,2.5L335.2,171.7z M365.3,235.1l23.1-1.1l-0.1-66l-23.2,2.8
				L365.3,235.1z M339.9,236.3l19.7-0.9l-0.2-63.8l-19.7,2.4L339.9,236.3z"/>
                <polygon class="st8" points="392.8,236.8 396.8,237 396.8,165 392.7,164.5 			"/>
		</g>
            <polygon class="st9" points="359.4,171.6 339.7,173.9 339.9,236.3 359.6,235.4 		"/>
	</g>

        <g>
		<g>
			<path class="st7" d="M571,479.1l-6.3-3l-5.4-6l-4.1-8.7l-2.5-10.7l-0.7-12l1.2-12.3l3-11.7l4.5-10.3l5.7-8.1l6.5-5.4l6.8-2.4
				l6.6,0.8l6,3.7l5,6.4l3.7,8.6l2.2,10.2l0.6,11.2l-0.4,42.6l-25.4,7.2L571,479.1z M600.6,429.8l0-0.8l-21.8,4.8l-0.8,39.6
				l22.4-6.1L600.6,429.8z M574.9,473.4l0.4-43.1l25-5.4L600,420l-1.9-9l-3.2-7.5l-4.4-5.6l-5.2-3.2l-5.8-0.6l-5.9,2.1l-5.7,4.7
				l-5,7.1l-3.9,9l-2.6,10.2l-1,10.7l0.6,10.4l2.2,9.3l3.6,7.6l4.7,5.3l5.5,2.7L574.9,473.4z"/>
            <polygon class="st8" points="571,479.1 564.7,476.1 561.6,475.5 567.9,478.5 			"/>
            <polygon class="st8" points="564.7,476.1 559.3,470 556.2,469.4 561.6,475.5 			"/>
            <polygon class="st8" points="559.3,470 555.1,461.3 552,460.8 556.2,469.4 			"/>
            <polygon class="st8" points="555.1,461.3 552.6,450.6 549.5,450.1 552,460.8 			"/>
            <polygon class="st8" points="552.6,450.6 551.9,438.6 548.8,438.2 549.5,450.1 			"/>
            <polygon class="st8" points="551.9,438.6 553.1,426.3 550,425.9 548.8,438.2 			"/>
            <polygon class="st8" points="553.1,426.3 556.1,414.6 553,414.2 550,425.9 			"/>
            <polygon class="st8" points="556.1,414.6 560.6,404.3 557.5,403.9 553,414.2 			"/>
            <polygon class="st8" points="560.6,404.3 566.4,396.2 563.3,395.8 557.5,403.9 			"/>
            <polygon class="st8" points="566.4,396.2 572.9,390.8 569.8,390.5 563.3,395.8 			"/>
            <polygon class="st8" points="572.9,390.8 579.6,388.4 576.5,388.1 569.8,390.5 			"/>
		</g>
            <polygon class="st9" points="577.8,473.4 600.2,467.2 600.6,429.8 600.5,429 578.7,433.8 		"/>
            <polygon class="st9" points="566.5,470.7 572,473.4 574.9,473.4 575.3,430.2 600.3,424.9 600,420 598.1,411 594.9,403.5
			590.5,398 585.3,394.7 579.5,394.1 573.6,396.2 567.9,401 562.9,408.1 559,417.1 556.4,427.3 555.4,438 556,448.4 558.2,457.8
			561.8,465.4 		"/>
	</g>

        <g>
		<g>
			<path class="st7" d="M418.7,246.3v-95.8l77.9-10.9l-0.4,104L418.7,246.3z M493.6,145.3l-35.2,4.7l-0.1,40.2l35.1-3.2L493.6,145.3
				z M421.2,241.3l32.5-1.3l0.1-39.5l-32.6,2.7V241.3z M453.8,190.6l0.1-40l-32.7,4.4l0,38.6L453.8,190.6z M458.4,200.1l-0.1,39.7
				l35-1.4l0.2-41.1L458.4,200.1z"/>
            <polygon class="st8" points="496.6,139.6 496.2,243.5 500.5,243.7 500.9,140.3 			"/>
            <polygon class="st8" points="496.2,243.5 418.7,246.3 423,246.4 500.5,243.7 			"/>
		</g>
            <polygon class="st9" points="458.4,190.2 493.5,187 493.6,145.3 458.5,150 		"/>
            <polygon class="st9" points="453.7,200.5 421.2,203.2 421.2,241.3 453.7,240 		"/>
            <polygon class="st9" points="421.2,155.1 421.2,193.6 453.8,190.6 453.8,150.7 		"/>
            <polygon class="st9" points="493.3,238.4 493.4,197.2 458.4,200.1 458.3,239.8 		"/>
	</g>
        <g>
		<g>
			<path class="st7" d="M418.7,504.8v-93.3l76.8,11.2l-0.4,101L418.7,504.8z M492.5,427.5l-34.6-5.2l-0.1,39.1l34.6,6.7L492.5,427.5
				z M421.1,500.6l32.1,7.8l0.1-38.4l-32.2-6.5L421.1,500.6z M453.3,460.4l0.1-38.9l-32.2-4.9v37.6L453.3,460.4z M457.8,471
				l-0.1,38.6l34.5,8.4l0.1-40L457.8,471z"/>
            <polygon class="st8" points="495.5,422.8 495.1,523.8 499.3,522.5 499.7,422 			"/>
            <polygon class="st8" points="418.7,411.5 495.5,422.8 499.7,422 423,410.9 			"/>
		</g>
            <polygon class="st9" points="457.8,461.3 492.4,468 492.5,427.5 457.9,422.2 		"/>
            <polygon class="st9" points="453.3,470 421.1,463.5 421.1,500.6 453.2,508.4 		"/>
            <polygon class="st9" points="421.1,416.7 421.1,454.3 453.3,460.4 453.4,421.6 		"/>
            <polygon class="st9" points="492.2,517.9 492.4,478 457.8,471 457.7,509.5 		"/>
	</g>
</g>
</svg>
