<?xml version="1.0" encoding="utf-8"?>
<!-- Generator: Adobe Illustrator 25.0.1, SVG Export Plug-In . SVG Version: 6.00 Build 0)  -->
<svg version="1.1" id="katman_1" xmlns="http://www.w3.org/2000/svg" x="0px" y="0px"
     viewBox="0 0 841.9 595.3" style="enable-background:new 0 0 841.9 595.3;" xml:space="preserve">
<style type="text/css">
	.st0{fill:#8F6645;}
	.st1{fill:#EEEEEE;}
	.st2{fill:#DDDDDD;}
	.st3{fill:#3D3A37;}
	.st4{fill:#C4C4C4;}
	.st5{fill:#3D3A37;}
	.st6{fill:#000000;}
	.st7{fill:#FFFFFF;}
	.st8{fill:#888888;}
	.st9{fill:#7884AF;}
</style>

    <g id="body">
	<polygon class="st0" points="213.5,176.7 340.8,112.9 493.8,138.5 509,140.6 509.7,351.1 331.3,342.6 212.8,347.4 			"/>
        <polygon class="st4" points="725.4,484.6 510.3,533.3 510.2,519.7 509.7,362 509.7,351.1 509,140.6 722.7,171 			"/>
        <polygon class="st4" points="362.8,566.8 278.9,585.8 279.4,377.2 362.8,371.7 362.8,492.6 362.8,551.2 			"/>
        <polygon class="st0" points="278.9,585.8 106.8,535.7 108,365.5 257.9,378.6 279.4,377.2 			"/>
        <polygon class="st4" points="509.7,362 510.2,519.7 362.8,492.6 362.8,371.7 			"/>

        <g>
		<polygon class="st0" points="510.3,533.3 362.8,566.8 362.8,551.2 510.2,519.7 			"/>
            <polygon class="st4" points="510.2,519.7 362.8,551.2 362.8,492.6 			"/>
	</g>
</g>


    <g id="chiney">
	<polygon class="st6" points="304.5,103.8 304.6,37.7 340.8,28.8 340.7,94.3 326.2,92 			"/>
        <polygon class="st5" points="340.8,28.8 381,37.4 381,100.8 378.9,100.4 378.9,46 365.1,43.2 365.1,49.1 365.1,98.2 361.9,97.7
			361.9,54.8 344.6,51.4 344.6,58.5 344.6,94.9 340.7,94.3 			"/>
        <polygon class="st6" points="378.9,46 378.9,100.4 365.1,98.2 365.1,49.1 			"/>
        <polygon class="st5" points="365.1,43.2 378.9,46 365.1,49.1 			"/>
        <polygon class="st6" points="361.9,54.8 361.9,97.7 344.6,94.9 344.6,58.5 			"/>
        <polygon class="st6" points="344.6,51.4 361.9,54.8 344.6,58.5 			"/>
</g>


    <g id="roof">
	<g>
		<polygon class="st2" points="340.8,112.9 213.5,176.7 198.8,175.5 326.2,110.5 			"/>
        <g>
			<polygon class="st1" points="362.8,371.7 279.4,377.2 257.9,378.6 257.9,365.1 509.7,351.1 509.7,362 				"/>
            <polygon class="st3" points="509.7,351.1 257.9,365.1 87.9,352.5 212.8,347.4 331.3,342.6 				"/>
            <polygon class="st1" points="87.8,363.7 87.9,352.5 257.9,365.1 257.9,378.6 108,365.5 				"/>
		</g>
        <polygon class="st1" points="722.7,171 509,140.6 493.8,138.5 493.7,120 738.8,159 739,173.3 			"/>
        <polygon class="st2" points="738.8,159 493.7,120 326.2,92 340.7,94.3 344.6,94.9 361.9,97.7 365.1,98.2 378.9,100.4 381,100.8
			578.1,132.3 			"/>
        <polygon class="st1" points="326.2,110.5 198.8,175.5 198.9,161.4 304.5,103.8 326.2,92 493.7,120 493.8,138.5 340.8,112.9
			"/>
	</g>
</g>


    <g id="right-window">
	<g>
		<polygon class="st9" points="301.7,227.5 301.6,269.7 266.1,270.3 266.2,234 228.5,235.9 228.6,201 270,197.4 269.9,229.2 			"/>
        <g>
			<polygon class="st8" points="315.4,182.7 315.3,281.4 309.2,281.4 309.4,182.2 				"/>
            <path class="st7" d="M222.1,190.8l87.2-8.6l-0.2,99.1l-87.4,0.5L222.1,190.8z M301.6,269.7l0.1-42.2l-31.8,1.8l0.1-31.8
				l-41.4,3.6l-0.1,34.9l37.8-2l-0.1,36.3L301.6,269.7z"/>
		</g>
	</g>
        <polygon class="st5" points="467.5,280.6 354.5,281.2 348.4,281.1 461.3,280.6 		"/>
        <g>
		<polygon class="st9" points="451.3,219 451.3,267.2 405.3,268 405.3,226.7 356.8,229.3 356.8,189.8 410,185.2 410,221.4 			"/>
            <g>
			<polygon class="st8" points="467.2,167.9 467.5,280.6 461.3,280.6 461.1,167.3 				"/>
                <path class="st7" d="M348.5,178.4l112.6-11.1l0.2,113.3l-112.9,0.6L348.5,178.4z M451.3,267.2l-0.1-48.2l-41.2,2.3l0-36.2
				l-53.2,4.7l0,39.5l48.5-2.5l0,41.3L451.3,267.2z"/>
		</g>
	</g>
</g>


    <g>
	<g>
		<g>
			<polygon class="st9" points="408.4,392.3 426.4,393.9 426.4,414.7 408.4,412.8 			"/>
            <polygon class="st9" points="408.5,441.2 408.4,418.1 426.4,420.1 426.4,443.6 			"/>
            <g>
				<polygon class="st7" points="395,444.9 388.6,444 388.6,434.8 395,435.7 				"/>
                <polygon class="st8" points="398.5,444.4 395,444.9 395,435.7 398.5,435.2 				"/>
                <polygon class="st8" points="392.1,434.4 398.5,435.2 395,435.7 388.6,434.8 				"/>
                <polygon class="st8" points="437,380.8 437.2,505.3 434.6,505.7 434.4,381 				"/>
                <polygon class="st7" points="437,380.8 434.4,381 383.5,376.9 386.1,376.7 				"/>
                <path class="st7" d="M434.4,381l0.2,124.8l-51.1-9.4l0-119.4L434.4,381z M429.8,498.2l-0.1-111l-41.7-3.5l0,107L429.8,498.2z"/>
                <path class="st8" d="M429.6,387.2l0.1,111l-41.8-7.5l0-107L429.6,387.2z M426.4,393.9l-17.9-1.6l0,20.5l17.9,1.9L426.4,393.9z
					 M388.6,444l6.4,0.9l3.5-0.5v-9.2l-6.4-0.8l-3.5,0.4V444z M408.4,418.1l0,23.1l18,2.4l0-23.4L408.4,418.1z M426.5,495l-0.1-44.6
					l-18.2-2.5l0,43.9L426.5,495z"/>
			</g>
            <polygon class="st9" points="426.4,450.4 426.5,495 408.3,491.8 408.3,447.9 			"/>
		</g>
        <polygon class="st5" points="315.3,281.4 227.8,281.8 221.8,281.8 309.2,281.4 		"/>

        <g>
			<polygon class="st9" points="529.5,221.8 529.4,170.4 570.7,174.9 570.9,214.9 555.1,213.8 555.2,223.4 			"/>
            <polygon class="st9" points="617.3,235.9 617.6,282.6 581.7,282.5 581.5,242.8 594.7,243.4 594.7,234.7 			"/>
            <path class="st7" d="M526,289.2l-0.5-124.8l94.8,10.9L621,289L526,289.2z M529.4,170.4l0.2,51.4l25.6,1.6l0-9.6l15.7,1.1
				l-0.2-39.9L529.4,170.4z M617.6,282.6l-0.3-46.8l-22.6-1.2l0,8.7l-13.2-0.6l0.2,39.6L617.6,282.6z M594.6,216.5l0.1,9.3l22.6,1.4
				l-0.3-47.2l-35.8-3.9l0.2,39.5L594.6,216.5z M555.2,241.7l0-9.1l-25.6-1.3l0.2,51l41.4,0.2l-0.2-40L555.2,241.7z"/>
            <polygon class="st8" points="525.5,164.4 526,289.2 520.5,289.2 520.1,164.9 			"/>
            <polygon class="st9" points="594.6,225.8 594.6,216.5 581.4,215.6 581.2,176.1 616.9,180 617.2,227.2 			"/>
            <polygon class="st9" points="555.2,232.6 555.2,241.7 571,242.4 571.2,282.4 529.8,282.2 529.6,231.3 			"/>
		</g>
        <g>
			<polygon class="st9" points="646.5,229 646.2,183.2 679.1,186.8 679.3,222.5 666.8,221.6 666.9,230.2 			"/>
            <polygon class="st9" points="716.7,241 717,283 688.2,282.9 688,247.4 698.5,247.9 698.5,240.1 			"/>
            <path class="st7" d="M643.9,288.9l-0.7-111.1l75.8,8.7l0.9,102.2L643.9,288.9z M646.2,183.2l0.3,45.7l20.3,1.2l-0.1-8.6l12.5,0.9
				l-0.3-35.7L646.2,183.2z M717,283l-0.4-42l-18.2-0.9l0.1,7.8l-10.6-0.5l0.3,35.5L717,283z M698.4,223.8l0.1,8.3l18.2,1.1
				l-0.4-42.4l-28.8-3.2l0.3,35.4L698.4,223.8z M667,246.5l-0.1-8.1l-20.4-1.1l0.3,45.4l32.9,0.1l-0.3-35.8L667,246.5z"/>
            <polygon class="st8" points="643.1,177.8 643.9,288.9 638.6,288.9 637.9,178.3 			"/>
            <polygon class="st9" points="698.4,232.1 698.4,223.8 687.8,223.1 687.5,187.7 716.3,190.9 716.6,233.2 			"/>
            <polygon class="st9" points="666.9,238.4 667,246.5 679.5,247.1 679.8,282.9 646.9,282.7 646.6,237.4 			"/>
		</g>
        <g>
			<polygon class="st9" points="530.3,431 530.1,379.1 571.6,375.5 571.8,415.8 556,417.8 556.1,427.5 			"/>
            <polygon class="st9" points="618.4,427.8 618.7,475.1 582.7,482 582.5,442 595.8,439.9 595.7,431.1 			"/>
            <path class="st7" d="M526.8,499.8l-0.5-126.1l95.2-7.7l0.7,114.9L526.8,499.8z M530.1,379.1l0.2,51.9l25.7-3.5l0-9.7l15.8-2
				l-0.2-40.3L530.1,379.1z M618.7,475.1l-0.3-47.2l-22.7,3.3l0.1,8.8l-13.3,2l0.2,40L618.7,475.1z M595.6,412.8l0.1,9.4l22.7-3.1
				l-0.3-47.6l-35.9,3.1l0.2,39.9L595.6,412.8z M556.1,446l0-9.2l-25.7,3.7l0.2,51.5l41.6-8l-0.2-40.5L556.1,446z"/>
            <polygon class="st8" points="526.3,373.7 526.8,499.8 521.3,498.9 520.8,373.3 			"/>
            <polygon class="st8" points="621.4,366 526.3,373.7 520.8,373.3 616.1,365.6 			"/>
            <polygon class="st9" points="595.7,422.1 595.6,412.8 582.4,414.5 582.2,374.6 618.1,371.4 618.4,419.1 			"/>
            <polygon class="st9" points="556.1,436.8 556.1,446 572,443.6 572.2,484 530.6,492.1 530.4,440.5 			"/>
		</g>
        <g>
			<polygon class="st9" points="647.8,415.1 647.5,368.9 680.4,366 680.7,402.1 668.1,403.7 668.2,412.3 			"/>
            <polygon class="st9" points="718.2,413.4 718.5,455.8 689.6,461.4 689.3,425.6 700,424 699.9,416.1 			"/>
            <path class="st7" d="M645.1,476.2l-0.7-112.1l76-6.2l0.9,103.1L645.1,476.2z M647.5,368.9l0.3,46.2l20.4-2.8l-0.1-8.7l12.6-1.6
				l-0.3-36L647.5,368.9z M718.5,455.8l-0.4-42.4l-18.2,2.6l0.1,7.9l-10.6,1.6l0.3,35.8L718.5,455.8z M699.8,399.7l0.1,8.4l18.3-2.5
				l-0.4-42.7l-28.9,2.5l0.3,35.7L699.8,399.7z M668.3,428.8l-0.1-8.2l-20.4,2.9l0.3,45.8l33-6.4l-0.3-36.1L668.3,428.8z"/>
            <polygon class="st8" points="644.4,364.1 645.1,476.2 639.8,475.5 639.1,363.8 			"/>
            <polygon class="st8" points="720.4,357.9 644.4,364.1 639.1,363.8 715.3,357.7 			"/>
            <polygon class="st9" points="699.8,408 699.8,399.7 689.1,401 688.9,365.3 717.7,362.8 718.1,405.6 			"/>
            <polygon class="st9" points="668.2,420.6 668.3,428.8 680.9,426.9 681.2,463 648.1,469.4 647.8,423.6 			"/>
		</g>
	</g>
</g>
</svg>
