<?xml version="1.0" encoding="utf-8"?>
<!-- Generator: Adobe Illustrator 25.0.1, SVG Export Plug-In . SVG Version: 6.00 Build 0)  -->
<svg version="1.1" id="katman_1" xmlns="http://www.w3.org/2000/svg" x="0px" y="0px"
     viewBox="0 0 841.9 595.3" style="enable-background:new 0 0 841.9 595.3;" xml:space="preserve">
<style type="text/css">
	.st0{fill:#8F6645;}
	.st1{fill:#EEEEEE;}
	.st2{fill:#DDDDDD;}
	.st3{fill:#3D3A37;}
	.st4{fill:#C4C4C4;}
	.st5{fill:#3D3A37;}
	.st6{fill:#000000;}
	.st7{fill:#FFFFFF;}
	.st8{fill:#888888;}
	.st9{fill:#7884AF;}
</style>

    <g id="roof">
	<g>
		<polygon class="st1" points="761.8,172.4 656,103.4 626.1,109.9 505.1,136.5 505.2,115.3 656.1,82.9 762,157.4 			"/>
        <polygon class="st2" points="656,103.4 761.8,172.4 730.5,174.3 626.1,109.9 			"/>
        <polygon class="st3" points="656.1,82.9 505.2,115.3 191.9,155.8 346,126.2 546.7,98.2 551,97.6 570.8,94.8 574.7,94.3
		591.7,91.9 594.5,91.5 626.2,87.1 			"/>
        <polygon class="st1" points="505.2,115.3 505.1,136.5 469.4,140.5 203,169.8 192,171 191.9,155.8 			"/>
	</g>
        <g>
		<polygon class="st1" points="76.8,340 76.7,332.3 203.9,346.2 204,355.3 118.4,345 84.4,340.9 			"/>
            <polygon class="st3" points="76.7,332.3 203.8,325.1 203.9,346.2 			"/>
	</g>
</g>


    <g id="chiney">
	<polygon class="st6" points="546.9,26.7 594.9,17.1 594.5,91.5 591.7,91.9 592,35.7 592.1,27.6 575,30.9 574.7,94.3 570.8,94.8
		571,53.3 571.1,44.6 551.2,48.2 551,97.6 546.7,98.2 			"/>
        <polygon class="st6" points="551.2,48.2 571.1,44.6 571,53.3 			"/>
        <polygon class="st5" points="551.2,48.2 571,53.3 570.8,94.8 551,97.6 			"/>
        <polygon class="st5" points="575,30.9 592.1,27.6 592,35.7 			"/>
        <polygon class="st5" points="575,30.9 592,35.7 591.7,91.9 574.7,94.3 			"/>
        <polygon class="st5" points="594.9,17.1 626.5,26.8 626.2,87.1 594.5,91.5 			"/>
</g>

    <g id="body">
	<g>
		<polygon class="st0" points="204.7,485 204.7,496.1 119.4,470.9 119.3,460.9 			"/>
        <polygon class="st4" points="204.7,485 119.3,460.9 204.5,447.2 			"/>
	</g>
        <g>
		<polygon class="st0" points="626.1,109.9 730.5,174.3 727.7,484 468.5,574 469.4,140.5 505.1,136.5 			"/>
            <polygon class="st4" points="469.4,140.5 468.5,574 204.7,496.1 204.7,485 204.5,447.2 204,355.3 203.9,346.2 203.8,325.1
			203,169.8 			"/>
            <polygon class="st4" points="85.4,460.9 84.4,340.9 118.4,345 119.3,460.9 119.4,470.9 			"/>
            <polygon class="st4" points="204.5,447.2 119.3,460.9 118.4,345 204,355.3 			"/>
	</g>
</g>


    <g id="left-window">
	<polygon class="st9" points="731.9,304.5 686.3,307 687.3,179.3 732.8,206.6 			"/>
        <g>
		<path class="st7" d="M731.9,304.5l-1.7,179.9l-100.8,35l2.5-387l98.8,61.2l2.3,0.3l-0.1,12.7l-45.5-27.3l-1,127.7L731.9,304.5z
			 M724.2,321.1l-38.1,3.1l-1.3,164.1l38-12.5L724.2,321.1z M637.7,309.6l40.8-2.2l1-132.8l-40.8-24.5L637.7,309.6z M636.4,504.2
			l40.6-13.4l1.3-166l-40.8,3.3L636.4,504.2z"/>
            <polygon class="st8" points="631.8,132.4 629.4,519.4 622.5,518 622.8,467.6 622.9,466.8 624.5,200.3 624.9,133.2 				"/>
	</g>
        <polygon class="st9" points="686.1,324.2 724.2,321.1 722.8,475.7 684.8,488.2 			"/>
        <polygon class="st9" points="678.4,307.4 637.7,309.6 638.7,150.1 679.5,174.6 			"/>
        <polygon class="st9" points="677,490.8 636.4,504.2 637.5,328.1 678.3,324.8 			"/>
</g>


    <g>
	<g>
		<g>
			<polygon class="st9" points="225.7,256.7 225.5,214.8 258.8,212.4 258.9,247.7 245.6,248.1 245.7,256.3 			"/>
            <polygon class="st9" points="303.6,263.6 303.8,309 268.5,307.4 268.4,271.9 280.8,271.9 280.7,263.8 			"/>
            <g>
				<path class="st7" d="M223.2,311l-0.5-100.6l84.4-6.7l0.3,111.5L223.2,311z M225.5,214.8l0.2,41.8l19.9-0.4l0-8.2l13.3-0.4
					l-0.1-35.3L225.5,214.8z M303.8,309l-0.1-45.4l-22.9,0.2l0,8.1h-12.4l0.1,35.5L303.8,309z M280.7,247l0,8.6l22.9-0.4l-0.1-46
					l-35.3,2.6l0.1,35.7L280.7,247z M245.7,271.9l0-7.7l-19.9,0.2l0.2,41.2l33.2,1.5l-0.1-35.1L245.7,271.9z"/>
                <polygon class="st8" points="307.4,315.3 307.1,203.8 311.9,204.1 312.2,315.1 				"/>
			</g>
            <polygon class="st9" points="280.7,255.6 280.7,247 268.3,247.4 268.1,211.7 303.5,209.1 303.6,255.2 			"/>
            <polygon class="st9" points="245.7,264.1 245.7,271.9 259,271.9 259.2,307 226,305.6 225.8,264.3 			"/>
		</g>
        <g>
			<polygon class="st9" points="337,254.5 336.9,206.7 380.7,203.5 380.8,244.1 363.2,244.6 363.2,254 			"/>
            <polygon class="st9" points="440.4,262.3 440.3,315 393.2,312.9 393.2,271.9 409.7,271.9 409.7,262.6 			"/>
            <g>
				<path class="st7" d="M333.5,316.7l-0.2-114.9l112.1-8.9l-0.1,129.5L333.5,316.7z M336.9,206.7l0.1,47.8l26.2-0.5l0-9.4l17.6-0.5
					l0-40.6L336.9,206.7z M440.3,315l0-52.6l-30.7,0.3v9.3l-16.5,0l0,41L440.3,315z M409.7,243.2v9.9l30.7-0.6l0.1-53.4l-47.3,3.4
					l0,41.1L409.7,243.2z M363.2,271.9l0-8.9l-26.2,0.2l0.1,47.1l43.7,1.9l0-40.4L363.2,271.9z"/>
                <polygon class="st8" points="445.2,322.4 445.3,192.9 450.2,193.3 450,322.1 				"/>
			</g>
            <polygon class="st9" points="409.7,253.1 409.7,243.2 393.2,243.7 393.2,202.6 440.4,199.1 440.4,252.5 			"/>
            <polygon class="st9" points="363.2,263.1 363.2,271.9 380.8,271.9 380.8,312.4 337.1,310.4 337,263.3 			"/>
		</g>
        <g>
			<polygon class="st9" points="226.6,424.8 226.4,383.4 259.5,388.1 259.7,423 246.4,420.6 246.4,428.7 			"/>
            <polygon class="st9" points="304.2,448.4 304.3,493.3 269.2,484.2 269.1,449 281.4,451.7 281.4,443.7 			"/>
            <g>
				<path class="st7" d="M224.1,478l-0.5-99.6l84.1,11.6l0.3,110.4L224.1,478z M226.4,383.4l0.2,41.4l19.9,3.9l0-8.1l13.2,2.5
					l-0.1-34.9L226.4,383.4z M304.3,493.3l-0.1-44.9l-22.8-4.7l0,8l-12.3-2.7l0.1,35.2L304.3,493.3z M281.3,427.1l0,8.5l22.8,4.5
					l-0.1-45.5l-35.2-5.1l0.1,35.3L281.3,427.1z M246.5,444.2l0-7.7l-19.9-4.1l0.2,40.8l33.1,8.6l-0.1-34.8L246.5,444.2z"/>
                <polygon class="st8" points="307.6,390 223.5,378.4 228.2,378 312.4,389.5 				"/>
                <polygon class="st8" points="307.9,500.4 307.6,390 312.4,389.5 312.7,499.3 				"/>
			</g>
            <polygon class="st9" points="281.3,435.6 281.3,427.1 269,424.8 268.8,389.5 304,394.6 304.2,440.1 			"/>
            <polygon class="st9" points="246.5,436.5 246.5,444.2 259.8,447 259.9,481.8 226.8,473.2 226.6,432.4 			"/>
		</g>
        <g>
			<polygon class="st9" points="337.4,446.7 337.3,399.3 380.9,405.6 380.9,445.7 363.4,442.5 363.5,451.8 			"/>
            <polygon class="st9" points="440.2,476.6 440.1,528.6 393.3,516.4 393.3,476 409.6,479.5 409.6,470.3 			"/>
            <g>
				<path class="st7" d="M333.9,507.3l-0.2-113.7L445.1,409l-0.1,127.9L333.9,507.3z M337.3,399.3l0.1,47.3l26,5.1l0-9.3l17.5,3.3
					l0-40.1L337.3,399.3z M440.1,528.6l0-52l-30.5-6.3l0,9.2l-16.4-3.5l0,40.5L440.1,528.6z M409.6,451.1v9.8l30.5,6l0.1-52.8
					l-47-6.8l0,40.6L409.6,451.1z M363.5,469.5l0-8.8l-26-5.4l0.1,46.6l43.4,11.3l0-40L363.5,469.5z"/>
                <polygon class="st8" points="445.1,409 333.6,393.6 338.5,393.1 449.9,408.3 				"/>
                <polygon class="st8" points="444.9,536.9 445.1,409 449.9,408.3 449.7,535.5 				"/>
			</g>
            <polygon class="st9" points="409.6,460.9 409.6,451.1 393.3,448 393.2,407.4 440.2,414.2 440.2,466.9 			"/>
            <polygon class="st9" points="363.5,460.7 363.5,469.5 380.9,473.3 380.9,513.2 337.5,502 337.4,455.3 			"/>
		</g>
        <g>
			<path class="st8" d="M614.7,344.5l-1,172.3L565.5,533l0.8-183.7L614.7,344.5z M580.8,435.9l-10,2.2l0,10.8l8.6,1.4l2.6-0.6
				l-0.1,16l2.4,0.4l4.9-1.3l0.1-27.6L580.8,435.9z"/>
            <g>
				<polygon class="st8" points="560.3,339.6 553.2,339.1 614.2,312.5 621.1,312.7 				"/>
                <polygon class="st8" points="553.2,339.1 560.3,339.6 559.4,548.1 552.3,546.3 				"/>
                <path class="st7" d="M560.3,339.6l60.9-26.8l-1.3,214.1l-60.5,21.3L560.3,339.6z M613.7,516.8l1-172.3l-48.4,4.8L565.5,533
					L613.7,516.8z"/>
                <polygon class="st8" points="570.7,438.1 580.8,435.9 589.3,437.2 579.3,439.4 				"/>
                <polygon class="st7" points="570.7,448.8 570.7,438.1 579.3,439.4 579.2,450.2 				"/>
                <polygon class="st7" points="579.2,450.2 579.3,439.4 589.3,437.2 589.1,464.7 584.2,466 584.3,449 581.9,449.6 				"/>
                <polygon class="st7" points="584.3,449 584.2,466 581.8,465.6 581.9,449.6 				"/>
			</g>
		</g>

        <path class="st5" d="M622.7,200.2l1.8-0.1L622.7,200.2z"/>
        <path class="st7" d="M223.2,311l-0.5-100.6 M307.4,315.3l-84.2-4.3 M222.7,210.5l84.4-6.7"/>
        <path class="st7" d="M312.2,315.1l-4.8,0.2 M311.9,204.1l-4.8-0.3 M311.9,204.1l0.3,111"/>
        <path class="st7" d="M333.5,316.7l-0.2-114.9 M445.2,322.4l-111.7-5.7 M333.3,201.7l112.1-8.9"/>
        <path class="st7" d="M450,322.1l-4.8,0.3 M450.2,193.3l-4.8-0.4 M450.2,193.3L450,322.1"/>
        <path class="st7" d="M224.1,478l-0.5-99.6 M307.9,500.4L224.1,478"/>
        <path class="st7" d="M228.2,378l-4.7,0.4 M312.7,499.3l-4.8,1.1"/>
        <line class="st7" x1="312.4" y1="389.5" x2="307.6" y2="390"/>
        <path class="st7" d="M312.4,389.5l0.3,109.8 M228.2,378l84.2,11.5"/>
        <path class="st7" d="M333.9,507.3l-0.2-113.7 M444.9,536.9l-111.1-29.6"/>
        <path class="st7" d="M338.5,393.1l-4.8,0.6 M449.7,535.5l-4.8,1.4"/>
        <line class="st7" x1="449.9" y1="408.3" x2="445.1" y2="409"/>
        <path class="st7" d="M449.9,408.3l-0.2,127.2 M338.5,393.1l111.4,15.2"/>
        <line class="st7" x1="560.3" y1="339.6" x2="553.2" y2="339.1"/>
        <line class="st7" x1="619.8" y1="526.8" x2="621.1" y2="312.7"/>
        <line class="st7" x1="559.4" y1="548.1" x2="619.8" y2="526.8"/>
        <line class="st7" x1="559.4" y1="548.1" x2="552.3" y2="546.3"/>
        <path class="st7" d="M570.7,438.1l10-2.2 M570.7,448.8l0-10.8"/>
        <line class="st7" x1="570.7" y1="448.8" x2="579.2" y2="450.2"/>
        <path class="st7" d="M579.2,450.2l0-10.8 M570.7,438.1l8.6,1.3"/>
        <path class="st7" d="M621.1,312.7l-6.9-0.2 M614.2,312.5l-61,26.6 M553.2,339.1l-0.9,207.2"/>
        <line class="st7" x1="584.3" y1="449" x2="584.2" y2="466"/>
        <path class="st7" d="M584.2,466l4.9-1.3 M589.1,464.7l0.1-27.6"/>
        <line class="st7" x1="579.3" y1="439.4" x2="589.3" y2="437.2"/>
	</g>
</g>
</svg>
