<?xml version="1.0" encoding="utf-8"?>
<!-- Generator: Adobe Illustrator 25.0.1, SVG Export Plug-In . SVG Version: 6.00 Build 0)  -->
<svg version="1.1" id="katman_1" xmlns="http://www.w3.org/2000/svg" x="0px" y="0px"
     viewBox="0 0 841.9 595.3" style="enable-background:new 0 0 841.9 595.3;" xml:space="preserve">
<style type="text/css">
	.st0{fill:#8F6645;}
	.st1{fill:#EEEEEE;}
	.st2{fill:#DDDDDD;}
	.st3{fill:#3D3A37;}
	.st4{fill:#C4C4C4;}
	.st5{fill:#3D3A37;}
	.st6{fill:#000000;}
	.st7{fill:#FFFFFF;}
	.st8{fill:#888888;}
	.st9{fill:#7884AF;}
</style>

    <g id="roof">
	<g>
		<polygon class="st1" points="455.7,158 295.9,176.2 310.3,173.2 470.2,155.2 455.7,158 			"/>
        <polygon class="st1" points="84,207.1 149.7,192.2 149.4,206.7 98.4,217.3 83.6,220.4 			"/>
        <polygon class="st1" points="310.4,155.7 470.1,137.9 590,209 590.2,222.1 470.2,155.2 310.3,173.2 			"/>
        <polygon class="st1" points="310.4,155.7 310.3,173.2 295.9,176.2 201.4,195.8 201.7,180.4 241.1,171.4 			"/>
        <polygon class="st2" points="470.2,155.2 590.2,222.1 576.3,223.8 455.7,158 			"/>
        <polygon class="st2" points="83.6,220.4 98.4,217.3 98.4,218.5 			"/>
	</g>
        <g>
		<polygon class="st1" points="447.5,385.6 447.4,376.4 687.3,378.6 687.6,389.8 667.2,389.5 588,388.1 578.8,387.9 			"/>
            <polygon class="st3" points="687.3,378.6 447.4,376.4 578.6,375.1 804.6,376.7 			"/>
            <polygon class="st1" points="804.6,376.7 805,386.1 786.3,386.7 687.6,389.8 687.3,378.6 			"/>
	</g>
</g>


    <g id="body">
	<g>
		<polygon class="st4" points="448,518.9 580.5,498 589.8,499.1 590.5,539.2 			"/>
        <polygon class="st0" points="448,518.9 590.5,539.2 590.7,552.4 448,530.5 			"/>
	</g>
        <g>
		<polygon class="st4" points="195.1,536.6 201.4,195.8 295.9,176.2 292.2,556.9 			"/>
            <polygon class="st0" points="295.9,176.2 455.7,158 576.3,223.8 578.6,375.1 447.4,376.4 447.5,385.6 578.8,387.9 580.5,498
				448,518.9 448,530.5 292.2,556.9 			"/>
            <polygon class="st4" points="142,525.5 90.2,514.7 98.4,218.5 98.4,217.3 149.4,206.7 			"/>
            <polygon class="st0" points="667.2,389.5 687.6,389.8 786.3,386.7 791.3,532.9 671.3,564.8 			"/>
            <polygon class="st4" points="590.7,552.4 590.5,539.2 589.8,499.1 588,388.1 667.2,389.5 671.3,564.8 			"/>
	</g>
</g>


    <g id="chiney">
	<g>
		<polygon class="st6" points="201.7,180.4 201.4,195.8 195.1,536.6 178.5,538.9 189,12.9 243.2,28.5 241.1,171.4 			"/>
        <path class="st5" d="M178.5,538.9l-36.7-7.9l0.1-5.5l7.4-318.9l0.3-14.5l3.8-163.7L189,12.9L178.5,538.9z M167.2,161.1l15.4-4
			l2.2-107.2l0.2-10.1L169.7,46L167.2,161.1z M152,171l12.2-3.1L167,41.2l0.2-8.2l-12.1,5.1L152,171z"/>
        <polygon class="st6" points="182.6,157 167.2,161.1 169.7,46 184.8,49.8 			"/>
        <polygon class="st5" points="169.7,46 185,39.8 184.8,49.8 			"/>
        <polygon class="st6" points="164.2,168 152,171 155.1,38.1 167,41.2 			"/>
        <polygon class="st5" points="155.1,38.1 167.2,33 167,41.2 			"/>
	</g>
</g>


    <g id="right-window">
	<g>
			<polygon class="st9" points="542.8,286 543.3,322 513,320.3 512.7,287 475.4,283.5 475.2,249.1 515.6,254.5 515.9,283.3 			"/>
        <g>
			<polygon class="st8" points="463,328.8 462.5,238.1 468.1,237.4 468.7,328.5 				"/>
            <polygon class="st8" points="543.9,332.5 463,328.8 468.7,328.5 549.4,332.3 				"/>
            <path class="st7" d="M468.1,237.4l80.2,11.7l1.2,83.3l-80.7-3.8L468.1,237.4z M543.3,322l-0.5-36l-26.8-2.7l-0.3-28.8l-40.5-5.4
					l0.3,34.4l37.3,3.6l0.3,33.2L543.3,322z"/>
		</g>
	</g>
        <g>
		<polygon class="st9" points="424.2,274 424.3,315 384.8,312.7 384.9,274.7 335.6,270 335.9,230.4 389.2,237.6 389.2,270.5 			"/>
            <g>
			<polygon class="st8" points="320.3,322.2 321,217.7 326.6,216.8 325.9,321.9 				"/>
                <polygon class="st8" points="426.5,327.1 320.3,322.2 325.9,321.9 432.1,326.8 				"/>
                <path class="st7" d="M326.6,216.8l105.2,15.3l0.3,94.7l-106.2-5L326.6,216.8z M424.3,315l-0.1-41l-35-3.5l0-32.9l-53.4-7.2
				l-0.2,39.6l49.2,4.8l0,38L424.3,315z"/>
		</g>
	</g>

        <g>
		<polygon class="st9" points="614.9,447.4 633,448.5 633.4,470.1 615.3,468.6 			"/>
            <polygon class="st9" points="615.9,498.2 615.4,474.2 633.5,475.7 634.1,500 			"/>
            <g>
			<polygon class="st9" points="603.1,502.3 596.6,501.6 596.4,492.1 602.9,492.7 				"/>
                <polygon class="st9" points="605.9,501.9 603.1,502.3 602.9,492.7 605.8,492.3 				"/>
                <polygon class="st9" points="599.3,491.7 605.8,492.3 602.9,492.7 596.4,492.1 				"/>
                <polygon class="st9" points="642.8,434.7 645.7,564.2 643.6,564.7 640.8,434.9 				"/>
                <polygon class="st9" points="642.8,434.7 640.8,434.9 589.6,432.3 591.7,432.2 				"/>
                <path class="st7" d="M640.8,434.9l2.9,129.8l-51.9-8l-2.2-124.4L640.8,434.9z M638.6,557l-2.5-115.5l-41.9-2.4l2,111.5
				L638.6,557z"/>
                <path class="st8" d="M636.1,441.5l2.5,115.5l-42.4-6.3l-2-111.5L636.1,441.5z M633,448.5l-18-1.1l0.4,21.3l18.1,1.4L633,448.5z
				 M596.6,501.6l6.5,0.7l2.8-0.5l-0.2-9.6l-6.5-0.6l-2.9,0.4L596.6,501.6z M615.4,474.2l0.5,24l18.1,1.9l-0.5-24.4L615.4,474.2z
				 M635.2,553.7l-1-46.6l-18.4-2l0.9,45.9L635.2,553.7z"/>
		</g>
            <polygon class="st9" points="634.2,507.1 635.2,553.7 616.8,551 615.9,505.1 			"/>
	</g>
</g>


    <g>
	<g>
		<g>
			<polygon class="st9" points="138.3,331.2 85.6,334.4 87.9,240.1 140.4,229.1 			"/>
            <g>
				<path class="st7" d="M81,513.3l4.5-178.9l52.7-3.2l2.1-102.2l-52.4,11.1l0.3-12.1l56.9-13.1l-6.3,311.7L81,513.3z M85.1,505.1
					l49.3,10.6l3.4-165.5L89,351.7L85.1,505.1z"/>
                <polygon class="st7" points="138.9,526.6 145.1,214.9 149.2,215.5 149.1,220 148.9,230.7 146.8,336.4 146.5,351.1 143.6,495.1
					143.4,505.8 143.4,506.7 143,526 				"/>
			</g>
            <polygon class="st9" points="134.5,515.7 85.1,505.1 89,351.7 137.9,350.2 			"/>
		</g>

        <g>
			<polygon class="st9" points="510.5,421.3 522.9,420.5 523.1,437.1 510.7,438 			"/>
            <polygon class="st9" points="510.9,461.3 510.7,442.4 523.1,441.4 523.3,460.1 			"/>
            <g>
				<polygon class="st8" points="506.9,466.1 502.2,466.6 502.1,458.9 506.9,458.5 				"/>
                <polygon class="st8" points="502.2,466.6 498.9,466.4 498.9,458.7 502.1,458.9 				"/>
                <polygon class="st8" points="498.9,458.7 503.6,458.2 506.9,458.5 502.1,458.9 				"/>
                <polygon class="st8" points="525.8,409.5 528.1,409.6 491.9,411.2 489.5,411.1 				"/>
                <path class="st7" d="M528.1,409.6l1.2,98.1l-36.5,5.8l-0.9-102.3L528.1,409.6z M526,502.9l-1-88l-29.6,1.5l0.8,91L526,502.9z"/>
                <polygon class="st8" points="491.9,411.2 492.8,513.5 490.4,513.2 489.5,411.1 				"/>
                <path class="st8" d="M525,414.9l1,88l-29.9,4.5l-0.8-91L525,414.9z M522.9,420.5l-12.4,0.7l0.2,16.8l12.4-0.9L522.9,420.5z
					 M502.2,466.6l4.8-0.5l-0.1-7.7l-3.2-0.3l-4.8,0.5l0.1,7.7L502.2,466.6z M510.7,442.4l0.2,18.9l12.4-1.3l-0.2-18.7L510.7,442.4z
					 M523.8,501.1l-0.4-35.6l-12.6,1.4l0.4,36.2L523.8,501.1z"/>
			</g>
            <polygon class="st9" points="523.4,465.5 523.8,501.1 511.2,503 510.8,466.9 			"/>
		</g>
        <g>
			<g>
				<polygon class="st8" points="319.6,416.5 426.7,412 432.4,412.2 325.3,416.8 				"/>
                <polygon class="st8" points="318.9,524.8 319.6,416.5 325.3,416.8 324.6,525.8 				"/>
                <path class="st7" d="M325.3,416.8l107.1-4.5l0.3,97.9l-108.1,15.6L325.3,416.8z M424.8,499.5l-0.1-42.5l-35.6,3.2l0-34.1
					l-54.4,3l-0.2,41l50.1-4.7l0,39.4L424.8,499.5z"/>
			</g>
            <polygon class="st9" points="424.7,457 424.8,499.5 384.6,504.8 384.6,465.4 334.5,470.1 334.7,429.1 389.1,426.1 389.1,460.2"/>
		</g>
	</g>
</g>
</svg>
