<?xml version="1.0" encoding="utf-8"?>
<!-- Generator: Adobe Illustrator 25.0.1, SVG Export Plug-In . SVG Version: 6.00 Build 0)  -->
<svg version="1.1" id="katman_1" xmlns="http://www.w3.org/2000/svg" x="0px" y="0px"
     viewBox="0 0 841.9 595.3" style="enable-background:new 0 0 841.9 595.3;" xml:space="preserve">
<style type="text/css">
	.st0{fill:#8F6645;}
	.st1{fill:#EEEEEE;}
	.st2{fill:#DDDDDD;}
	.st3{fill:#3D3A37;}
	.st4{fill:#C4C4C4;}
	.st5{fill:#3D3A37;}
	.st6{fill:#000000;}
	.st7{fill:#FFFFFF;}
	.st8{fill:#888888;}
	.st9{fill:#7884AF;}
</style>

    <g id="body">
	<polygon class="st0" points="556,565.4 446.1,589 446.9,190.4 555.4,206.2 			"/>
        <polygon class="st0" points="416.4,186 446.9,190.4 446.1,589 175.6,532 179,228.6 294,163.8 			"/>
        <polygon class="st4" points="614.8,214.8 685.9,225.2 687.8,537.1 616,552.5 			"/>
</g>


    <g id="roof">
	<polygon class="st1" points="555.4,189.6 555.4,206.2 446.9,190.4 416.4,186 416.4,167 			"/>
        <polygon class="st3" points="517.9,182.8 555.4,189.6 416.4,167 265.6,139.7 517.9,181.2 			"/>
        <polygon class="st2" points="696.1,212.4 696.2,226.7 685.9,225.2 614.8,214.8 614.7,199.2 			"/>
        <polygon class="st3" points="696.1,212.4 614.7,199.2 614.7,197.9 			"/>
        <polygon class="st2" points="416.4,167 416.4,186 294,163.8 265.4,158.6 150.3,226 150.5,211.7 265.6,139.7 			"/>
        <polygon class="st2" points="179,228.6 150.3,226 265.4,158.6 294,163.8 			"/>
</g>


    <g id="chiney">
	<g>
		<polygon class="st6" points="555.4,206.2 555.4,189.6 517.9,182.8 517.9,181.2 517.8,23.1 570.3,8.7 571.5,568.1 556,565.4
			"/>
        <path class="st5" d="M570.3,8.7L614.1,24l0.6,174v1.2l0.1,15.6l1.2,337.6l0,5.7l-44.6,9.9L570.3,8.7z M592.4,168.3l18.3,3.5
			l-0.4-122.5l-18.2-5.8l0,10.1L592.4,168.3z M573.1,171.4l15.7,2.9l-0.4-147.5l-15.6-5.3l0,9.3L573.1,171.4z"/>
        <polygon class="st6" points="610.7,171.8 592.4,168.3 592.1,53.5 610.3,49.3 			"/>
        <polygon class="st5" points="592.1,43.4 610.3,49.3 592.1,53.5 			"/>
        <polygon class="st6" points="588.8,174.3 573.1,171.4 572.8,30.7 588.4,26.7 			"/>
        <polygon class="st5" points="572.8,21.5 588.4,26.7 572.8,30.7 			"/>
	</g>
</g>

    <g id="left-window">
	<polygon class="st9" points="446.2,348.7 368,349.4 368.7,205.1 446.4,220.4 		"/>
        <path class="st7" d="M446.2,348.7l-0.5,240.5l-149.8-31.3l2.8-379.6l143.4,26.4l0.8-0.1l3.6-0.5l0,16.5l-77.7-15.4L368,349.4
				L446.2,348.7z M431.6,369.6l-63.7-0.6L367,558.7l64.1,12.5L431.6,369.6z M305.1,350l51.6-0.5l0.8-146.7l-51.2-10.1L305.1,350z
				 M303.7,546.3l51.9,10.1l1-187.6l-51.6-0.5L303.7,546.3z"/>
        <polygon class="st9" points="367.9,369 431.6,369.6 431.1,571.2 367,558.7 		"/>
        <polygon class="st9" points="356.7,349.5 305.1,350 306.3,192.7 357.5,202.8 		"/>
        <polygon class="st9" points="355.6,556.5 303.7,546.3 305,368.4 356.6,368.9 		"/>
</g>

    <g>
	<g>
		<g>
			<polygon class="st8" points="285.6,559.7 287.2,352.3 293.5,352.4 292,558.7 			"/>
            <path class="st7" d="M287.2,352.3l-1.6,207.4l-55.2-11.8l1.7-175.8L287.2,352.3z M279.3,546.6l1.3-164.6l-43.7-1.1l-0.7,77
				l-3.6,0.3l-0.1,9.3l3.6,0.4l-0.7,69.8L279.3,546.6z"/>
		</g>

        <polygon class="st8" points="280.6,382 279.3,546.6 235.4,537.7 236.1,467.9 236.5,482.9 240.8,483.5 242.9,483.2 243.1,468.4
			248.5,467.9 248.6,458.5 240.1,457.6 236.2,457.9 236.9,380.9 		"/>
        <g>
			<polygon class="st8" points="240.1,457.6 248.6,458.5 241,459.1 232.6,458.2 236.2,457.9 			"/>
            <polygon class="st7" points="248.6,458.5 248.5,467.9 243.1,468.4 242.9,483.2 240.8,483.5 241,459.1 			"/>
            <polygon class="st8" points="232.5,467.5 232.6,458.2 241,459.1 240.8,483.5 236.5,482.9 236.7,468 			"/>
		</g>

        <polygon class="st9" points="545.2,349.6 446.2,348.7 446.4,220.4 545,233.1 		"/>
        <g>
			<path class="st7" d="M445.6,589.1l0.5-240.5l99,0.9L545,233.1l-98.6-12.6l0-16.5L552,219.1l0.5,347.4L445.6,589.1z M454.3,575.3
				l91.2-18.3l-0.2-185.9l-90.6,1.1L454.3,575.3z"/>
            <polygon class="st8" points="305,179.1 442.9,204.4 442.1,204.6 298.7,178.2 			"/>
		</g>
        <polygon class="st9" points="545.5,557 454.3,575.3 454.7,372.2 545.2,371.1 		"/>

        <line class="st7" x1="285.6" y1="559.7" x2="287.2" y2="352.3"/>
        <path class="st7" d="M232.1,372.1l55.1-19.8 M232.1,372.1l-1.7,175.8 M230.4,547.9l55.2,11.8"/>
        <path class="st7" d="M279.3,546.6l1.3-164.6 M235.4,537.7l43.9,8.8 M236.9,380.9l-0.7,77 M236.1,467.9l-0.7,69.8 M280.6,382
			l-43.7-1.1 M240.1,457.6l8.5,0.9 M248.6,458.5l-0.1,9.4"/>
        <path class="st8" d="M232.5,467.5l0.1-9.3 M287.2,352.3l6.3,0 M236.7,468l-0.1,14.9 M236.5,482.9l4.3,0.6"/>
        <path class="st8" d="M240.8,483.5l0.2-24.4 M232.6,458.2l8.4,0.9 M248.6,458.5l-7.6,0.6"/>
        <path class="st8" d="M285.6,559.7l6.4-1 M248.5,467.9l-5.5,0.5 M240.8,483.5l2.1-0.2 M242.9,483.2l0.1-14.9 M292,558.7l1.5-206.3"
        />
        <path class="st8" d="M446.2,348.7l-0.5,240.5 M446.2,348.7l99,0.9 M368,349.4l78.1-0.7"/>
        <path class="st8" d="M552,219.1l-105.6-15.1 M552.6,566.4L552,219.1 M445.6,589.1l106.9-22.7"/>
        <line class="st8" x1="442.9" y1="204.4" x2="305" y2="179.1"/>
        <path class="st8" d="M305.1,350l51.6-0.5 M357.5,202.8l-0.8,146.7 M357.5,202.8l-51.2-10.1 M306.3,192.7L305.1,350 M303.7,546.3
			l51.9,10.1 M356.6,368.9l-1,187.6 M305,368.4l51.6,0.5 M305,368.4l-1.3,177.9"/>
        <line class="st8" x1="298.7" y1="178.2" x2="295.9" y2="557.8"/>
        <line class="st8" x1="442.1" y1="204.6" x2="298.7" y2="178.2"/>
        <path class="st8" d="M305,179.1l-6.3-0.9 M240.1,457.6l-4,0.3 M236.2,457.9l-3.6,0.3 M236.1,467.9l-3.6-0.4 M442.1,204.6l0.8-0.1
			 M442.9,204.4l3.6-0.5 M445.6,589.1l-149.8-31.3"/>
	</g>
</g>
</svg>
