<?xml version="1.0" encoding="UTF-8"?>
<svg id="EV" xmlns="http://www.w3.org/2000/svg" version="1.1" viewBox="0 0 841.89 595.28">
  <defs>
    <style>
      .st0{fill:#8F6645;}
      .st1{fill:#EEEEEE;}
      .st2{fill:#DDDDDD;}
      .st3{fill:#3D3A37;}
      .st4{fill:#C4C4C4;}
      .st5{fill:#3D3A37;}
      .st6{fill:#000000;}
      .st7{fill:#FFFFFF;}
      .st8{fill:#888888;}
      .st9{fill:#7884AF;}
    </style>
  </defs>
  <g>
    <polygon class="st4" points="715.11 202.72 745.68 219.39 745.68 221.32 745.68 519.9 745.68 520.05 678.25 521.34 678.25 224.23 715.11 202.72"/>
    <polygon class="st4" points="607.09 276.54 607.09 265.76 674.58 226.37 674.58 521.26 552 523.61 552 277.22 561.55 277.41 607.09 276.54"/>
    <polygon class="st4" points="819.05 272.1 819.05 518.49 745.68 519.9 745.68 221.32 819.05 261.32 819.05 272.1"/>
  </g>
  <g>
    <polygon class="st4" points="678.25 224.23 678.25 521.34 674.58 521.26 674.58 226.37 678.25 224.23"/>
    <polygon class="st0" points="819.05 261.32 828.6 261.52 828.6 272.29 819.05 272.1 819.05 261.32"/>
    <polygon class="st0" points="430.03 278.2 517.73 276.52 552 277.22 552 523.61 430.03 521.13 430.03 278.2"/>
    <polygon class="st0" points="138.29 515.2 21.47 512.82 21.47 266.42 138.29 268.8 138.29 515.2"/>
    <polygon class="st0" points="396.5 520.45 175.9 515.96 175.9 291.46 396.5 295.95 396.5 520.45"/>
  </g>
  <g>
    <g>
      <polygon class="st8" points="32.11 330.04 34.51 329.99 196.04 333.28 193.65 333.33 32.11 330.04"/>
      <g>
        <path class="st7" d="M112.88,339.17v25.08l35.57.72v-25.08l-35.57-.72ZM74.67,338.4v25.08l33.86.69v-25.08l-33.86-.69ZM37.33,419.46l151.1,3.07v-48.02l-151.1-3.07v48.02ZM70.84,363.4v-25.08l-33.51-.68v25.08l33.51.68ZM152.96,365.07l35.46.72v-25.08l-35.46-.72v25.08ZM193.65,333.33v96.81l-161.53-3.29v-96.81l161.53,3.29Z"/>
        <path class="st7" d="M473.55,363.59l36.71.75v-29.65l-36.71-.75v29.65ZM510.26,372.74l-80.51-1.64v56.55l80.51,1.64v-56.55ZM466.2,333.79l-36.44-.74v29.65l36.44.74v-29.65ZM424.68,325.66l90.66,1.84v109.17l-90.66-1.84v-109.17Z"/>
      </g>
    </g>
    <g>
      <polygon class="st9" points="429.75 333.05 466.2 333.79 466.2 363.44 429.75 362.7 429.75 333.05"/>
      <polygon class="st9" points="429.75 371.11 510.26 372.74 510.26 429.29 429.75 427.66 429.75 371.11"/>
      <polygon class="st9" points="510.26 364.34 473.55 363.59 473.55 333.94 510.26 334.69 510.26 364.34"/>
      <polygon class="st9" points="188.43 365.79 152.96 365.07 152.96 339.99 188.43 340.71 188.43 365.79"/>
      <polygon class="st9" points="70.84 338.32 70.84 363.4 37.33 362.72 37.33 337.64 70.84 338.32"/>
      <polygon class="st9" points="188.43 422.54 37.33 419.46 37.33 371.44 188.43 374.52 188.43 422.54"/>
      <polygon class="st9" points="74.67 363.48 74.67 338.4 108.53 339.09 108.53 364.17 74.67 363.48"/>
      <polygon class="st9" points="112.88 364.26 112.88 339.17 148.45 339.9 148.45 364.98 112.88 364.26"/>
    </g>
  </g>
  <g>
    <g>
      <polygon class="st8" points="354.66 509.02 302.11 507.95 302.11 333.85 354.66 334.92 354.66 509.02"/>
      <polygon class="st8" points="417.24 336.19 417.24 510.29 365.76 509.24 365.76 335.14 417.24 336.19"/>
      <path class="st7" d="M417.24,510.29v-174.1l-51.48-1.05v174.1l51.48,1.05ZM302.11,507.95l52.55,1.07v-174.1l-52.55-1.07v174.1ZM294.67,323.02l130.01,2.64v195.46l-130.01-2.65v-195.45Z"/>
    </g>
  </g>
  <g>
    <polygon class="st4" points="175.9 519.43 158.5 519.76 158.5 291.11 175.9 291.46 175.9 515.96 175.9 519.43"/>
    <polygon class="st4" points="412.63 524.93 412.63 258.82 517.73 256.81 517.73 276.52 430.03 278.2 430.03 521.13 430.03 524.6 412.63 524.93"/>
  </g>
  <polygon class="st0" points="412.63 524.93 396.5 524.6 396.5 520.45 396.5 295.95 175.9 291.46 158.5 291.11 158.5 519.76 138.29 519.35 138.29 515.2 138.29 268.8 138.29 253.24 412.63 258.82 412.63 524.93"/>
  <g>
    <g>
      <polygon class="st3" points="51.74 245.75 168.22 177.77 717.85 188.95 601.36 256.94 51.74 245.75"/>
      <polygon class="st2" points="51.74 245.75 601.36 256.94 561.55 257.7 517.73 256.81 412.63 258.82 138.29 253.24 243.39 251.23 11.92 246.52 51.74 245.75"/>
      <polygon class="st2" points="717.85 201.13 828.6 261.52 819.05 261.32 745.68 221.32 745.68 219.39 715.11 202.72 717.85 201.13"/>
    </g>
    <polygon class="st1" points="834.33 272.18 828.6 272.29 828.6 261.52 717.85 201.13 715.11 202.72 678.25 224.23 674.58 226.37 607.09 265.76 607.09 276.54 561.55 277.41 561.55 257.7 601.36 256.94 717.85 188.95 834.33 252.47 834.33 272.18"/>
    <polygon class="st2" points="552 277.22 517.73 276.52 517.73 256.81 561.55 257.7 561.55 277.41 552 277.22"/>
    <polygon class="st2" points="11.92 246.52 243.39 251.23 138.29 253.24 138.29 268.8 21.47 266.42 11.92 266.23 11.92 246.52"/>
  </g>

<g id="chimney">
  <polygon class="st6" points="438.07 232.59 405.24 233.22 405.24 79.24 438.07 78.61 438.07 232.59"/>
  <polygon class="st5" points="405.24 233.22 365.96 232.42 365.96 78.46 404.86 79.25 405.24 79.24 405.24 233.22"/>
  <polygon class="st5" points="344.73 69.48 365.96 69.07 365.96 69.49 405.24 70.29 438.07 69.66 438.07 69.33 456.85 69.71 404.86 70.7 344.73 69.48"/>
  <polygon class="st6" points="404.86 70.7 456.85 69.71 456.85 78.25 438.07 78.61 405.24 79.24 404.86 79.25 404.86 70.7"/>
  <polygon class="st5" points="344.73 69.48 404.86 70.7 404.86 79.25 365.96 78.46 344.73 78.02 344.73 69.48"/>
  <polygon class="st5" points="405.24 70.29 365.96 69.49 365.96 69.07 365.96 50.86 405.24 51.66 405.24 70.29"/>
  <polygon class="st6" points="405.24 70.29 405.24 51.66 438.07 51.03 438.07 69.33 438.07 69.66 405.24 70.29"/>
  <polygon class="st5" points="405.24 51.66 365.96 50.86 398.8 50.23 438.07 51.03 405.24 51.66"/>
</g>

<g id="left-window">
  <polygon class="st9" points="715.1 396.57 715.1 345.66 741.1 345.16 741.1 396.07 715.1 396.57"/>
  <polygon class="st9" points="715.1 457.47 715.1 405.21 741.1 404.71 741.1 456.97 715.1 457.47"/>
  <polygon class="st9" points="709.5 396.67 682.84 397.18 682.84 346.28 709.5 345.77 709.5 396.67"/>
  <polygon class="st9" points="709.5 457.57 682.84 458.09 682.84 405.83 709.5 405.31 709.5 457.57"/>
  <g>
    <path class="st7" d="M682.84,458.09l26.67-.51v-52.26l-26.67.51v52.26ZM682.84,397.18l26.67-.51v-50.9l-26.67.51v50.9ZM715.1,405.21v52.26l26.01-.5v-52.26l-26.01.5ZM715.1,345.66v50.9l26.01-.5v-50.9l-26.01.5ZM678.25,339.98l67.43-1.29v124.58l-67.43,1.29v-124.58Z"/>
    <polygon class="st8" points="196.04 430.09 193.65 430.14 193.65 333.33 196.04 333.28 196.04 430.09"/>
  </g>
</g>
</svg>