<?xml version="1.0" encoding="UTF-8"?>
<svg id="EV" xmlns="http://www.w3.org/2000/svg" version="1.1" viewBox="0 0 841.89 595.28">
  <defs>
    <style>
      .st0{fill:#8F6645;}
      .st1{fill:#EEEEEE;}
      .st2{fill:#DDDDDD;}
      .st3{fill:#3D3A37;}
      .st4{fill:#C4C4C4;}
      .st5{fill:#3D3A37;}
      .st6{fill:#000000;}
      .st7{fill:#FFFFFF;}
      .st8{fill:#888888;}
      .st9{fill:#7884AF;}
    </style>
  </defs>

  <g id="chimney">
    <g>
      <polygon class="st6" points="374.3 217.79 340.67 220.69 340.67 76.06 342.47 76.16 374.3 73.42 374.3 217.79"/>
      <polygon class="st5" points="340.67 76.06 340.67 220.69 306.98 218.78 306.98 74.15 340.67 76.06"/>
      <polygon class="st5" points="374.3 62.53 393.95 63.65 342.47 68.08 289.13 65.07 306.98 63.53 306.98 64.78 340.67 66.68 374.3 63.79 374.3 62.53"/>
      <polygon class="st5" points="289.13 65.07 342.47 68.08 342.47 76.16 340.67 76.06 306.98 74.15 289.13 73.14 289.13 65.07"/>
      <polygon class="st6" points="342.47 68.08 393.95 63.65 393.95 71.72 374.3 73.42 342.47 76.16 342.47 68.08"/>
      <polygon class="st6" points="374.3 63.79 340.67 66.68 340.67 49.07 374.3 46.18 374.3 62.53 374.3 63.79"/>
      <polygon class="st5" points="374.3 46.18 340.67 49.07 306.98 47.17 340.61 44.27 374.3 46.18"/>
      <polygon class="st5" points="340.67 49.07 340.67 66.68 306.98 64.78 306.98 63.53 306.98 47.17 340.67 49.07"/>
    </g>
  </g>


  <g>
    <polygon class="st4" points="220.69 506.21 24.63 495.12 24.63 262.21 24.63 252.03 133.04 201.78 225.48 255.09 220.69 263.55 220.69 506.21"/>
    <polygon class="st4" points="243.7 265.59 243.7 275.77 248.9 276.07 248.9 508.23 220.69 506.64 220.69 506.21 220.69 263.55 225.48 255.09 243.7 265.59"/>
    <polygon class="st4" points="298.6 277.71 298.6 510.62 251.87 507.98 251.87 276.24 290.42 278.42 298.6 277.71"/>
  </g>
  <g>
    <polygon class="st0" points="16.45 262.92 16.45 252.73 24.63 252.03 24.63 262.21 16.45 262.92"/>
    <polygon class="st0" points="488.6 261.34 578.58 266.43 578.58 486.49 298.6 510.62 298.6 277.71 488.6 261.34"/>
    <polygon class="st0" points="752.83 471.47 613.73 483.46 613.73 282.72 752.83 270.73 752.83 471.47"/>
    <polygon class="st4" points="251.87 507.98 248.9 508.23 248.9 276.07 251.87 276.24 251.87 507.98"/>
  </g>
  <g id="door">
    <g>
      <polygon class="st8" points="588.38 475.9 543.38 479.78 543.38 315.21 588.38 311.33 588.38 475.9"/>
      <polygon class="st8" points="641.96 306.72 641.96 471.28 597.88 475.08 597.88 310.52 641.96 306.72"/>
      <path class="st7" d="M641.96,471.28v-164.56l-44.08,3.8v164.57l44.08-3.8ZM543.38,479.78l44.99-3.88v-164.57l-44.99,3.88v164.56ZM537.01,305.67l111.31-9.6v184.75l-111.31,9.59v-184.75Z"/>
    </g>
  </g>

  <polygon id="" class="st0" points="831.32 480.1 817.51 481.29 817.51 265.16 799.66 266.69 752.83 270.73 613.73 282.72 613.73 483.46 613.73 498.85 596.43 500.34 596.43 248.81 831.32 228.56 831.32 480.1"/>

  <g>
    <polygon class="st4" points="596.43 500.34 578.58 499.33 578.58 486.49 578.58 266.43 488.6 261.34 488.6 242.7 596.43 248.81 596.43 500.34"/>
    <polygon class="st0" points="799.66 480.28 799.66 266.69 817.51 265.16 817.51 481.29 799.66 480.28"/>
  </g>

  <g id="roof">
    <polygon class="st3" points="16.45 252.73 130.07 200.07 133.04 201.78 24.63 252.03 16.45 252.73"/>
    <polygon class="st3" points="249.58 257.48 130.07 188.56 600.66 148 720.16 216.91 249.58 257.48"/>
    <polygon class="st3" points="249.58 257.48 720.16 216.91 761.01 219.22 723.49 222.46 761.01 224.58 831.32 228.56 596.43 248.81 488.6 242.7 290.42 259.79 249.58 257.48"/>
  </g>
  <g>
    <polygon class="st2" points="723.49 222.46 761.01 219.22 761.01 224.58 723.49 222.46"/>
    <polygon class="st2" points="10.57 255.84 10.57 243.95 130.07 188.56 249.58 257.48 290.42 259.79 290.42 278.42 251.87 276.24 248.9 276.07 243.7 275.77 243.7 265.59 225.48 255.09 133.04 201.78 130.07 200.07 16.45 252.73 10.57 255.84"/>
    <polygon class="st2" points="16.45 262.92 10.57 262.58 10.57 255.84 16.45 252.73 16.45 262.92"/>
    <polygon class="st2" points="488.6 242.7 488.6 261.34 298.6 277.71 290.42 278.42 290.42 259.79 488.6 242.7"/>
  </g>

  <g id="windows">
    <g>
      <path class="st7" d="M381.37,337.85v23.71l30.45-2.62v-23.71l-30.45,2.63ZM348.65,340.67v23.71l28.99-2.5v-23.71l-28.99,2.5ZM316.68,420.77l129.37-11.15v-45.39l-129.37,11.15v45.39ZM345.37,364.66v-23.71l-28.69,2.47v23.71l28.69-2.47ZM415.69,358.6l30.36-2.62v-23.71l-30.36,2.62v23.71ZM450.52,324.81v91.51l-138.3,11.92v-91.51l138.3-11.92Z"/>
      <path class="st7" d="M690.17,327.38l31.43-2.71v-28.03l-31.43,2.71v28.03ZM721.6,332.61l-68.93,5.94v53.45l68.93-5.94v-53.45ZM683.88,299.89l-31.2,2.69v28.03l31.2-2.69v-28.03ZM648.33,296.07l77.62-6.69v103.19l-77.62,6.69v-103.19Z"/>
    </g>
    <g>
      <polygon class="st9" points="652.67 302.58 683.88 299.89 683.88 327.92 652.67 330.61 652.67 302.58"/>
      <polygon class="st9" points="652.67 338.56 721.6 332.61 721.6 386.07 652.67 392.01 652.67 338.56"/>
      <polygon class="st9" points="721.6 324.67 690.17 327.38 690.17 299.35 721.6 296.64 721.6 324.67"/>
      <polygon class="st9" points="446.05 355.98 415.69 358.6 415.69 334.89 446.05 332.28 446.05 355.98"/>
      <polygon class="st9" points="345.37 340.95 345.37 364.66 316.68 367.13 316.68 343.43 345.37 340.95"/>
      <polygon class="st9" points="446.05 409.62 316.68 420.77 316.68 375.38 446.05 364.23 446.05 409.62"/>
      <polygon class="st9" points="348.65 364.38 348.65 340.67 377.65 338.17 377.65 361.88 348.65 364.38"/>
      <polygon class="st9" points="381.37 361.56 381.37 337.85 411.82 335.23 411.82 358.93 381.37 361.56"/>
    </g>
    <g>
      <g>
        <polygon class="st8" points="41.51 309.02 44.49 308.76 215.08 318.41 212.1 318.67 41.51 309.02"/>
        <polygon class="st8" points="312.21 336.73 309.76 336.59 448.06 324.67 450.52 324.81 312.21 336.73"/>
      </g>
    </g>
  </g>


<g id="right-window">
  <polygon class="st9" points="80.8 402.34 48.17 400.5 48.17 364.04 80.8 365.89 80.8 402.34"/>
  <polygon class="st9" points="164.09 370.6 164.09 407.06 130.94 405.18 130.94 368.72 164.09 370.6"/>
  <polygon class="st9" points="89.94 356.77 89.94 320.3 122.91 322.17 122.91 358.64 89.94 356.77"/>
  <polygon class="st9" points="205.45 363.31 172.03 361.42 172.03 324.95 205.45 326.84 205.45 363.31"/>
  <polygon class="st9" points="172.03 407.51 172.03 371.05 205.45 372.94 205.45 409.4 172.03 407.51"/>
  <polygon class="st9" points="48.17 354.41 48.17 317.94 80.8 319.79 80.8 356.26 48.17 354.41"/>
  <polygon class="st9" points="164.09 360.97 130.94 359.1 130.94 322.62 164.09 324.5 164.09 360.97"/>
  <polygon class="st9" points="122.91 368.27 122.91 404.73 89.94 402.86 89.94 366.4 122.91 368.27"/>
  <g>
    <path class="st7" d="M122.91,404.73v-36.46l-32.97-1.87v36.46l32.97,1.87ZM130.94,359.1l33.15,1.88v-36.47l-33.15-1.88v36.47ZM48.17,317.94v36.47l32.63,1.85v-36.47l-32.63-1.85ZM172.03,371.05v36.46l33.42,1.89v-36.46l-33.42-1.89ZM172.03,361.42l33.42,1.89v-36.47l-33.42-1.89v36.47ZM89.94,320.3v36.47l32.97,1.87v-36.47l-32.97-1.87ZM164.09,407.06v-36.46l-33.15-1.88v36.46l33.15,1.88ZM48.17,400.5l32.63,1.85v-36.46l-32.63-1.85v36.46ZM41.51,408.66v-99.65l170.59,9.65v99.65l-170.59-9.65Z"/>
    <polygon class="st8" points="312.21 428.24 309.76 428.1 309.76 336.59 312.21 336.73 312.21 428.24"/>
  </g>
  <polygon class="st7" points="215.08 418.06 212.1 418.32 212.1 318.67 215.08 318.41 215.08 418.06"/>
</g>

</svg>