<?xml version="1.0" encoding="UTF-8"?>
<svg id="Layer_1" data-name="Layer 1" xmlns="http://www.w3.org/2000/svg" version="1.1" viewBox="0 0 841.89 595.28">
  <defs>
    <style>
      .st0{fill:#8F6645;}
      .st1{fill:#EEEEEE;}
      .st2{fill:#DDDDDD;}
      .st3{fill:#3D3A37;}
      .st4{fill:#C4C4C4;}
      .st5{fill:#3D3A37;}
      .st6{fill:#000000;}
      .st7{fill:#FFFFFF;}
      .st8{fill:#888888;}
      .st9{fill:#7884AF;}
    </style>
  </defs>

<g id="chimney">
  <polygon class="st5" points="501.12 275.34 467.71 273.83 467.71 128.32 500.87 129.82 501.12 129.81 501.12 275.34"/>
  <polygon class="st6" points="501.12 275.34 501.12 129.81 535.41 127.57 535.41 273.11 501.12 275.34"/>
  <polygon class="st5" points="535.41 117.49 553.36 118.3 500.87 121.72 447.97 119.33 467.71 118.04 467.71 119.23 501.12 120.74 535.41 118.51 535.41 117.49"/>
  <polygon class="st5" points="447.97 119.33 500.87 121.72 500.87 129.82 467.71 128.32 447.97 127.43 447.97 119.33"/>
  <polygon class="st5" points="500.87 129.82 500.87 121.72 553.36 118.3 553.36 126.4 535.41 127.57 501.12 129.81 500.87 129.82"/>
  <polygon class="st5" points="467.71 101.55 501.99 99.32 535.41 100.83 501.12 103.07 467.71 101.55"/>
  <polygon class="st5" points="501.12 120.74 467.71 119.23 467.71 118.04 467.71 101.55 501.12 103.07 501.12 120.74"/>
  <polygon class="st6" points="501.12 120.74 501.12 103.07 535.41 100.83 535.41 117.49 535.41 118.51 501.12 120.74"/>
</g>

<g id="body">
  <polygon class="st0"  points="820.43 300.29 820.43 533.46 762.38 537.24 762.38 339.06 741.36 338.11 690.07 308.79 820.43 300.29"/>
  <polygon class="st4" points="207.11 271.91 238.32 256.89 275.73 278.28 275.73 560.31 207.11 557.21 207.11 556.85 207.11 273.24 207.11 271.91"/>
  <polygon class="st4" points="275.73 560.31 275.73 278.28 278.93 280.11 278.93 560.1 275.73 560.31"/>
  <polygon class="st4"  points="348.99 330.37 354.82 330.64 357.32 330.48 357.32 563.64 278.93 560.1 278.93 280.11 348.99 320.15 348.99 330.37"/>
  <polygon class="st4"  points="123.6 320.19 131.93 319.64 131.93 309.42 207.11 273.24 207.11 556.85 85.59 551.36 85.59 324.54 85.59 318.47 123.6 320.19"/>
  <polygon class="st0"  points="357.32 563.64 357.32 330.48 499.47 321.21 530.7 341.13 566.59 361.64 579.06 362.21 579.06 549.19 357.32 563.64"/>
  <polygon class="st0"  points="738.38 538.81 606.33 547.41 606.33 361.81 738.38 353.2 738.38 538.81"/>
</g>

<g id="door">
  <polygon class="st7" points="500.51 367.9 505.23 368.12 505.23 554.52 500.51 554.31 500.51 367.9"/>
  <polygon class="st7" points="505.23 368.12 500.51 367.9 627.34 359.64 632.06 359.85 505.23 368.12"/>
  <polygon class="st8" points="562.87 550.77 510.94 554.15 510.94 376.65 562.87 373.27 562.87 461.25 557.58 461.01 551.41 461.41 551.41 477.01 557.13 477.26 562.87 476.89 562.87 550.77"/>
  <polygon class="st7" points="562.87 373.27 510.94 376.65 510.94 554.15 505.23 554.52 505.23 368.12 632.06 359.85 632.06 546.26 626.35 546.63 626.35 369.13 574.24 372.53 562.87 373.27"/>
  <polygon class="st7" points="562.87 550.77 562.87 476.89 563.3 476.86 563.3 461.27 562.87 461.25 562.87 373.27 574.24 372.53 574.24 550.03 562.87 550.77"/>
  <path class="st8" d="M606.73,476.74l11.52-.75v-81.89l-32.65,2.13v24.71l21.14-1.38v57.19ZM591.32,459.44l-5.72-.26-6.18.4v15.59l5.72.26,6.18-.4v-15.59ZM574.24,550.03v-177.5l52.11-3.4v177.5l-52.11,3.4Z"/>
  <polygon class="st7" points="563.3 461.27 563.3 476.86 562.87 476.89 557.13 477.26 557.13 461.67 563.3 461.27"/>
  <polygon class="st7" points="557.13 477.26 551.41 477.01 551.41 461.41 557.13 461.67 557.13 477.26"/>
  <polygon class="st9" points="557.13 461.67 551.41 461.41 557.58 461.01 562.87 461.25 563.3 461.27 557.13 461.67"/>
  <polygon class="st9" points="585.6 459.18 591.32 459.44 585.14 459.85 579.42 459.59 585.6 459.18"/>
  <polygon class="st9" points="579.42 459.59 585.14 459.85 585.14 475.44 579.42 475.18 579.42 459.59"/>
  <polygon class="st9" points="585.14 459.85 591.32 459.44 591.32 475.04 585.14 475.44 585.14 459.85"/>
  <polygon class="st9" points="618.25 475.99 606.73 476.74 606.73 419.56 585.6 420.94 585.6 396.23 618.25 394.1 618.25 475.99"/>
</g>

  <g>
    <g>
      <polygon class="st8" points="636.19 462.77 636.19 357.46 640.91 357.68 640.91 462.99 636.19 462.77"/>
      <polygon class="st8" points="401.19 351.83 401.19 457.14 396.47 456.92 396.47 351.61 401.19 351.83"/>
    </g>
    <g>
      <polygon class="st7" points="795.85 347.06 800.58 347.27 737.43 351.39 732.7 351.17 795.85 347.06"/>
      <polygon class="st7" points="636.19 357.46 699.34 353.35 704.06 353.56 640.91 357.68 636.19 357.46"/>
      <line class="st7" x1="704.06" y1="353.56" x2="699.34" y2="353.35"/>
      <polygon class="st7" points="464.35 347.71 401.19 351.83 396.47 351.61 459.62 347.5 464.35 347.71"/>
    </g>
    <g>
      <path class="st7" d="M740.91,447.64l56.19-3.66v-91.05l-56.19,3.66v91.05ZM737.43,351.39l63.15-4.12v105.31l-63.15,4.12v-105.31Z"/>
      <path class="st7" d="M644.39,362.88v91.05l56.19-3.66v-91.05l-56.19,3.66ZM640.91,357.68l63.15-4.12v105.31l-63.15,4.12v-105.31Z"/>
      <path class="st7" d="M404.67,448.08l56.19-3.66v-91.05l-56.19,3.66v91.05ZM464.35,347.71v105.31l-63.15,4.12v-105.31l63.15-4.12Z"/>
    </g>
    <g>
      <polygon class="st9" points="797.1 443.98 740.91 447.64 740.91 356.59 797.1 352.93 797.1 443.98"/>
      <polygon class="st9" points="644.39 453.93 644.39 362.88 700.58 359.22 700.58 450.27 644.39 453.93"/>
      <polygon class="st9" points="460.86 444.42 404.67 448.08 404.67 357.03 460.86 353.37 460.86 444.42"/>
    </g>
  </g>
  <g>
    <polygon class="st4" points="570.51 349.24 591.53 350.19 591.53 560.25 579.06 559.68 579.06 549.19 579.06 362.21 566.59 361.64 530.7 341.13 499.47 321.21 489.84 315.07 489.84 303.13 570.51 349.24"/>
    <polygon class="st4" points="8.55 544.57 8.55 292.06 115.51 296.89 77.25 299.39 77.25 313.87 26.26 311.56 26.26 545.37 8.55 544.57"/>
    <polygon class="st4" points="750.85 352.39 750.85 549.86 738.38 549.3 738.38 538.81 738.38 353.2 750.85 352.39"/>
  </g>
  <g>
    <polygon class="st0" points="85.59 324.54 40.34 327.48 40.34 544.46 26.26 545.37 26.26 311.56 77.25 313.87 77.25 318.09 85.59 318.47 85.59 324.54"/>
    <polygon class="st0" points="591.53 560.25 591.53 350.19 762.38 339.06 762.38 537.24 762.38 549.11 750.85 549.86 750.85 352.39 738.38 353.2 606.33 361.81 606.33 547.41 606.33 559.28 591.53 560.25"/>
  </g>

  <g>
    <g>
      <polygon class="st3" points="123.6 309.96 236.29 255.74 238.32 256.89 207.11 271.91 207.11 273.24 131.93 309.42 123.6 309.96"/>
      <polygon class="st3" points="123.6 309.96 131.93 309.42 131.93 319.64 123.6 320.19 123.6 309.96"/>
      <g>
        <polygon class="st2" points="834.59 280.67 834.59 292.6 679.44 302.71 660.69 292 834.59 280.67"/>
        <polygon class="st2" points="354.82 311.93 489.84 303.13 489.84 315.07 499.47 321.21 357.32 330.48 354.82 330.64 354.82 311.93"/>
        <polygon class="st2" points="354.82 311.93 354.82 330.64 348.99 330.37 348.99 320.15 278.93 280.11 275.73 278.28 238.32 256.89 236.29 255.74 123.6 309.96 123.6 320.19 85.59 318.47 77.25 318.09 77.25 313.87 77.25 299.39 117.76 301.22 156.89 282.39 236.29 244.19 354.82 311.93"/>
        <polygon class="st2" points="834.59 292.6 834.59 299.37 820.43 300.29 690.07 308.79 679.44 302.71 834.59 292.6"/>
      </g>
      <polygon class="st2" points="570.51 349.24 741.36 338.11 762.38 339.06 591.53 350.19 570.51 349.24"/>
    </g>
    <g>
      <polyline class="st3" points="535.41 224.69 716.07 212.92 834.59 280.67 660.69 292 679.44 302.71 690.07 308.79 741.36 338.11 570.51 349.24 489.84 303.13 354.82 311.93 236.29 244.19 467.71 229.1 490.23 227.64"/>
      <path class="st3" d="M535.41,224.69"/>
      <path class="st2" d="M490.23,227.64"/>
      <polygon class="st2" points="8.55 292.06 156.89 282.39 117.76 301.22 77.25 299.39 115.51 296.89 8.55 292.06"/>
    </g>
  </g>

<g id="left-window">
  <path class="st7" d="M211.78,497.48l27.14,1.23v-49.59l-27.14-1.23v49.59ZM211.78,439.69l27.14,1.23v-48.3l-27.14-1.23v48.3ZM244.6,449.37v49.59l26.46,1.2v-49.59l-26.46-1.2ZM244.6,392.87v48.3l26.46,1.2v-48.3l-26.46-1.2ZM207.11,385.12l68.61,3.1v118.21l-68.61-3.1v-118.21Z"/>
  <polygon class="st9" points="244.6 441.17 244.6 392.87 271.07 394.07 271.07 442.37 244.6 441.17"/>
  <polygon class="st9" points="244.6 498.96 244.6 449.37 271.07 450.57 271.07 500.16 244.6 498.96"/>
  <polygon class="st9" points="238.91 440.91 211.78 439.69 211.78 391.39 238.91 392.61 238.91 440.91"/>
  <polygon class="st9" points="238.91 498.7 211.78 497.48 211.78 447.89 238.91 449.11 238.91 498.7"/>
</g>
</svg>