<?xml version="1.0" encoding="UTF-8"?>
<svg id="Layer_1" data-name="Layer 1" xmlns="http://www.w3.org/2000/svg" version="1.1" viewBox="0 0 841.89 595.28">
  <defs>
    <style>
      .st0{fill:#8F6645;}
      .st1{fill:#EEEEEE;}
      .st2{fill:#DDDDDD;}
      .st3{fill:#3D3A37;}
      .st4{fill:#C4C4C4;}
      .st5{fill:#3D3A37;}
      .st6{fill:#000000;}
      .st7{fill:#FFFFFF;}
      .st8{fill:#888888;}
      .st9{fill:#7884AF;}
    </style>
  </defs>

  <g id="chimney">
    <polygon class="st5" points="400.32 220.37 400.32 60.9 427.4 62.18 430.01 62.14 430.01 221.77 400.32 220.37"/>
    <polygon class="st6" points="470.92 61.47 470.92 221.1 430.01 221.77 430.01 62.14 470.92 61.47"/>
    <polygon class="st6" points="381.94 51.18 400.32 50.88 400.32 51.37 430.01 52.77 470.92 52.1 470.92 51.26 492.18 52.26 427.4 53.32 381.94 51.18"/>
    <polygon class="st6" points="427.4 53.32 492.18 52.26 492.18 61.12 470.92 61.47 430.01 62.14 427.4 62.18 427.4 53.32"/>
    <polygon class="st6" points="381.94 60.04 381.94 51.18 427.4 53.32 427.4 62.18 400.32 60.9 381.94 60.04"/>
    <polygon class="st6" points="441.23 31.37 470.92 32.77 430.01 33.44 400.32 32.04 441.23 31.37"/>
    <polygon class="st5" points="430.01 52.77 400.32 51.37 400.32 50.88 400.32 32.04 430.01 33.44 430.01 52.77"/>
    <polygon class="st6" points="430.01 52.77 430.01 33.44 470.92 32.77 470.92 51.26 470.92 52.1 430.01 52.77"/>
  </g>


  <polygon class="st8" points="609.23 190.39 747.22 252.98 742.63 252.76 715.98 240.67 713.36 240.55 606.11 191.91 609.23 190.39"/>
  <g>
    <polygon class="st8" points="708.38 520.08 705.75 519.96 705.75 253.2 708.38 253.32 708.38 520.08"/>
    <polygon class="st8" points="705.75 253.2 713.36 240.55 715.98 240.67 708.38 253.32 705.75 253.2"/>
  </g>
  <g>
    <g>
      <g>
        <polygon class="st0" points="464.03 268.78 464.03 523.92 204.26 511.66 204.26 303.19 219.53 302.94 263.47 281.57 301.01 261.09 464.03 268.78"/>
        <polygon class="st0" points="62.95 282.35 62.95 249.86 127.2 252.89 66.76 282.29 62.95 282.35"/>
        <polygon class="st0" points="464.11 261.39 464.11 268.79 464.03 268.78 301.01 261.09 313.5 254.28 464.11 261.39"/>
      </g>
      <g>
        <polygon class="st4" points="705.75 519.96 464.03 523.92 464.03 268.78 464.11 268.79 471.25 268.67 471.25 257.49 606.11 191.91 713.36 240.55 705.75 253.2 705.75 519.96"/>
        <polygon class="st4" points="471.25 268.67 464.11 268.79 464.11 261.39 471.25 257.49 471.25 268.67"/>
        <polygon class="st4" points="796.74 263.34 796.74 518.47 742.63 519.35 742.63 263.93 747.22 264.15 796.74 263.34"/>
        <polygon class="st4" points="742.63 519.52 708.38 520.08 708.38 253.32 715.98 240.67 742.63 252.76 742.63 263.93 742.63 519.35 742.63 519.52"/>
      </g>
    </g>
    <polygon class="st0" points="179.01 510.47 69.11 505.29 69.11 297.78 179.01 302.97 179.01 510.47"/>
  </g>
  <g>
    <g>
      <path class="st7" d="M384.88,419.83l48.66,2.3v-99.53l-48.66-2.3v99.53ZM381.87,314.23l54.69,2.58v115.12l-54.69-2.58h0v-115.12Z"/>
      <polygon class="st8" points="436.56 316.81 381.87 314.23 387.65 314.13 442.34 316.71 436.56 316.81"/>
      <polygon class="st8" points="436.56 316.81 442.34 316.71 442.34 431.83 436.56 431.93 436.56 316.81"/>
      <polygon class="st8" points="304.06 310.19 358.75 312.77 352.97 312.86 298.28 310.28 304.06 310.19"/>
      <path class="st7" d="M301.29,316.36v99.53l48.66,2.3v-99.53l-48.66-2.3ZM298.28,310.28l54.69,2.58v115.12l-54.69-2.58v-115.12Z"/>
      <polygon class="st8" points="381.83 428.98 381.87 428.98 381.87 429.34 381.83 429.34 381.83 428.98"/>
      <polygon class="st8" points="490.37 317.22 487.74 317.1 694.91 313.71 697.54 313.83 490.37 317.22"/>
      <path class="st7" d="M93.69,382.62l48.66,2.3v-99.53l-48.66-2.3v99.53ZM145.36,279.6v115.12l-54.69-2.58v-115.12l54.69,2.58Z"/>
      <polygon class="st8" points="145.36 394.71 145.36 279.6 151.15 279.5 151.15 394.62 145.36 394.71"/>
      <polygon class="st7" points="145.36 279.6 90.67 277.02 96.45 276.92 151.15 279.5 145.36 279.6"/>
    </g>
    <g>
      <polygon class="st9" points="433.54 422.13 384.88 419.83 384.88 320.3 433.54 322.6 433.54 422.13"/>
      <polygon class="st9" points="301.29 415.89 301.29 316.36 349.96 318.66 349.96 418.19 301.29 415.89"/>
      <polygon class="st9" points="142.35 384.92 93.69 382.62 93.69 283.09 142.35 285.39 142.35 384.92"/>
    </g>
  </g>

  <g>
    <g>
      <polygon class="st8" points="181.18 307.17 186.96 307.08 296.8 312.26 291.02 312.35 181.18 307.17"/>
      <polygon class="st8" points="250.78 415.73 243.77 415.84 238.43 415.59 240.95 415.55 245.43 415.48 250.78 415.73"/>
      <polygon class="st8" points="214.16 414.45 221.17 414.33 226.52 414.59 219.51 414.7 214.16 414.45"/>
    </g>
    <polygon class="st7" points="291.02 312.35 296.8 312.26 296.8 516.03 291.02 516.12 291.02 312.35"/>
    <polygon class="st7" points="250.78 415.73 250.78 432.77 243.77 432.89 243.77 415.84 250.78 415.73"/>
    <polygon class="st7" points="219.51 431.74 219.51 414.7 226.52 414.59 226.52 431.63 219.51 431.74"/>
    <g>
      <path class="st8" d="M226.52,431.63v-17.04l-5.35-.25-7.01.11v17.04l5.35.25,7.01-.11ZM231.1,513.3l-44.97-2.12v-194.03l44.97,2.12v194.03Z"/>
      <polygon class="st8" points="231.1 319.26 186.12 317.14 186.12 511.17 181.18 510.94 181.18 307.17 291.02 312.35 291.02 516.12 286.07 515.89 286.07 321.86 240.95 319.73 231.1 319.26"/>
      <polygon class="st7" points="231.1 513.3 231.1 319.26 240.95 319.73 240.95 415.55 238.43 415.59 238.43 432.64 240.95 432.76 240.95 513.76 231.1 513.3"/>
      <path class="st8" d="M269.08,437.29l9.98.47v-89.52l-28.28-1.33v27.01l18.3.86v62.51ZM240.95,415.55v-95.82l45.13,2.13v194.03l-45.13-2.13v-81l2.83.13,7.01-.11v-17.04l-5.35-.25-4.49.07Z"/>
      <polygon class="st7" points="238.43 415.59 243.77 415.84 243.77 432.89 240.95 432.76 238.43 432.64 238.43 415.59"/>
      <polygon class="st9" points="279.06 437.76 269.08 437.29 269.08 374.78 250.78 373.92 250.78 346.91 279.06 348.24 279.06 437.76"/>
      <polygon class="st7" points="219.51 414.7 219.51 431.74 214.16 431.49 214.16 414.45 219.51 414.7"/>
    </g>
  </g>
  <g>
    <polygon class="st2" points="48.6 228.74 165.53 234.25 127.2 252.89 62.95 249.86 48.6 249.18 48.6 228.74"/>
    <polygon class="st2" points="747.22 252.98 747.22 264.15 742.63 263.93 742.63 252.76 747.22 252.98"/>
    <polygon class="st2" points="464.11 248.34 464.11 261.39 313.5 254.28 313.5 241.23 464.11 248.34"/>
    <polygon class="st0" points="41.03 512.33 41.03 282.71 188.99 289.69 188.99 519.31 179.01 518.84 179.01 510.47 179.01 302.97 69.11 297.78 53.85 297.06 53.85 512.93 41.03 512.33"/>
  </g>
  <g>
    <polygon class="st2" points="464.11 248.34 609.23 177.76 726.13 230.78 730.7 232.86 746.6 240.07 754.36 243.59 803.96 242.77 803.96 263.22 796.74 263.34 747.22 264.15 747.22 252.98 609.23 190.39 606.11 191.91 471.25 257.49 464.11 261.39 464.11 248.34"/>
    <polygon class="st4" points="188.99 519.31 188.99 289.69 214.73 289.27 313.5 241.23 313.5 254.28 301.01 261.09 263.47 281.57 219.53 302.94 204.26 303.19 204.26 511.66 204.26 519.06 188.99 519.31"/>
    <polygon class="st2" points="759.92 232.38 759.92 240.7 746.6 240.07 730.7 232.86 759.92 232.38"/>
    <polygon class="st4" points="53.85 512.93 53.85 297.06 69.11 297.78 69.11 505.29 69.11 512.68 53.85 512.93"/>
  </g>
  <g id="roof" >
    <polygon class="st3" points="193.72 158.16 609.23 177.76 464.11 248.34 313.5 241.23 214.73 289.27 66.76 282.29 127.2 252.89 165.53 234.25 48.6 228.74 193.72 158.16"/>
    <polygon class="st3" points="66.76 282.29 214.73 289.27 188.99 289.69 41.03 282.71 62.95 282.35 66.76 282.29"/>
    <polygon class="st3" points="726.13 230.78 759.92 232.38 730.7 232.86 726.13 230.78"/>
    <polygon class="st3" points="803.96 242.77 754.36 243.59 746.6 240.07 759.92 240.7 803.96 242.77"/>
  </g>

<g id="right-window">
  <path class="st7" d="M589.22,415.58v-40.01l-40.04.66v40.01l40.04-.66ZM598.98,364.84l40.26-.66v-40.02l-40.26.66v40.02ZM498.45,326.47v40.02l39.63-.65v-40.02l-39.63.65ZM648.87,374.59v40.01l40.58-.66v-40.01l-40.58.66ZM648.87,364.03l40.58-.66v-40.02l-40.58.66v40.02ZM549.18,325.64v40.02l40.04-.66v-40.02l-40.04.66ZM639.23,414.76v-40.01l-40.26.66v40.01l40.26-.66ZM498.45,417.06l39.63-.65v-40.01l-39.63.65v40.01ZM490.37,426.57v-109.35l207.17-3.39v109.35l-207.17,3.39Z"/>
  <polygon class="st7" points="490.37 317.22 490.37 426.57 487.74 426.45 487.74 317.1 490.37 317.22"/>
  <polygon class="st9" points="538.08 416.41 498.45 417.06 498.45 377.06 538.08 376.41 538.08 416.41"/>
  <polygon class="st9" points="639.23 374.75 639.23 414.76 598.98 415.42 598.98 375.41 639.23 374.75"/>
  <polygon class="st9" points="549.18 365.66 549.18 325.64 589.22 324.98 589.22 365 549.18 365.66"/>
  <polygon class="st9" points="689.46 363.36 648.87 364.03 648.87 324 689.46 323.34 689.46 363.36"/>
  <polygon class="st9" points="648.87 414.6 648.87 374.59 689.46 373.93 689.46 413.94 648.87 414.6"/>
  <polygon class="st9" points="498.45 366.49 498.45 326.47 538.08 325.82 538.08 365.84 498.45 366.49"/>
  <polygon class="st9" points="639.23 364.19 598.98 364.84 598.98 324.82 639.23 324.16 639.23 364.19"/>
  <polygon class="st9" points="589.22 375.57 589.22 415.58 549.18 416.23 549.18 376.23 589.22 375.57"/>
</g>
</svg>