<?xml version="1.0" encoding="utf-8"?>
<!-- Generator: Adobe Illustrator 25.0.1, SVG Export Plug-In . SVG Version: 6.00 Build 0)  -->
<svg version="1.1" id="katman_1" xmlns="http://www.w3.org/2000/svg" x="0px" y="0px"
     viewBox="0 0 841.9 595.3" style="enable-background:new 0 0 841.9 595.3;" xml:space="preserve">
<style type="text/css">
	.st0{fill:#8F6645;}
	.st1{fill:#EEEEEE;}
	.st2{fill:#DDDDDD;}
	.st3{fill:#3D3A37;}
	.st4{fill:#C4C4C4;}
	.st5{fill:#3D3A37;}
	.st6{fill:#000000;}
	.st7{fill:#FFFFFF;}
	.st8{fill:#888888;}
	.st9{fill:#7884AF;}
</style>

    <g id="body">
	<polygon class="st4" points="175.9,538.4 415.2,584.7 417.1,117 416.3,116.8 287.2,87.8 186.8,187.6 186.2,206.7 			"/>
        <polygon class="st0" points="415.2,584.7 627.4,547.6 626.8,517.7 625.9,473.7 625.8,472.1 625.7,467.2 625.7,463.2 625.6,462.5
			620.5,207.2 620.4,202.8 620.3,197.1 619.9,176 619.8,173.5 424.2,119 417.1,117 			"/>
</g>


    <g id="chimney">
	<polygon class="st5" points="451.2,10.6 434.8,17.3 434.8,36.1 450.4,30.1 451.2,30.4 			"/>
        <polygon class="st6" points="467.7,17.2 451.2,10.6 451.2,30.4 467.8,36.6 			"/>
        <polygon class="st6" points="474.4,105.7 474.2,39 467.8,36.6 451.2,30.4 450.4,30.1 450.4,98.4 			"/>
        <polygon class="st5" points="450.4,98.4 450.4,30.1 434.8,36.1 427.6,38.9 427.5,91.3 			"/>
</g>


    <g id="roof">
	<g>
		<polygon class="st2" points="620.5,207.2 694.9,194.4 684.4,191.5 620.4,202.8 			"/>
        <polygon class="st2" points="620.4,202.8 684.4,191.5 671.4,187.8 670.5,188 620.3,197.1 			"/>
	</g>
        <g>
		<polygon class="st2" points="186.8,187.6 168.5,184.5 152.1,201.3 186.2,206.7 			"/>
            <polygon class="st2" points="168.5,184.5 186.8,187.6 287.2,87.8 268,82.6 			"/>
            <polygon class="st3" points="168.5,184.5 268,82.6 397.1,111.4 416.3,116.8 417.1,117 424.2,119 424.3,90.4 268.6,58
				152.8,180.7 152.1,201.3 			"/>
            <polygon class="st3" points="708.2,198.1 707.5,177.1 474.4,105.7 450.4,98.4 427.5,91.3 424.3,90.4 424.2,119 619.8,173.5
				671.4,187.8 684.4,191.5 694.9,194.4 			"/>
            <polygon class="st2" points="619.9,176 670.5,188 671.4,187.8 619.8,173.5 			"/>
	</g>
</g>


    <g id="right-window">
	<g>
		<g>
			<polygon class="st8" points="457.5,291.5 523,298.7 525.8,298.4 460.3,291.1 				"/>
            <polygon class="st8" points="457.5,144.6 457.5,291.5 460.3,291.1 460.2,143.8 				"/>
            <path class="st7" d="M460.3,291.1l-0.1-147.3l64.5,16.6l1.1,138L460.3,291.1z M521.2,291l-1-125l-22-5.5l-5.3-1.3l-27.5-6.9
				l0.2,132.1l27.9,3.3l5.4,0.6L521.2,291z"/>
            <polygon class="st7" points="493.4,287.7 498.8,288.3 498.2,160.5 492.8,159.1 				"/>
		</g>
        <polygon class="st9" points="493.4,287.7 492.8,159.1 465.4,152.3 465.6,284.4 			"/>
        <polygon class="st9" points="498.2,160.5 498.8,288.3 521.2,291 520.2,166 			"/>
	</g>

        <g>
		<polygon class="st9" points="494.4,512.9 493.8,377.7 465.7,376.9 465.8,516.1 			"/>
            <polygon class="st9" points="499.3,377.8 499.9,512.3 522.8,509.7 521.8,378.4 			"/>
            <g>
			<polygon class="st7" points="494.4,512.9 499.9,512.3 499.3,377.8 493.8,377.7 				"/>
                <polygon class="st8" points="457.5,369.4 457.6,524.2 460.5,524.5 460.4,369.3 				"/>
                <path class="st7" d="M460.5,524.5l-0.1-155.2l66.1,2.2l1.2,144.9L460.5,524.5z M522.8,509.7l-1-131.3l-22.6-0.6l-5.5-0.1
					l-28.1-0.7l0.2,139.2l28.6-3.2l5.5-0.6L522.8,509.7z"/>
		</g>
	</g>
</g>

    <g>
	<g>
		<polygon class="st0" points="268,82.6 287.2,87.8 416.3,116.8 397.1,111.4 		"/>
        <g>
			<polygon class="st4" points="710.7,533.1 709.9,506.2 704,507 635.5,516.5 626.8,517.7 627.4,547.6 			"/>
            <polygon class="st0" points="635.5,516.5 704,507 693.4,506.2 693.4,504.9 635.1,500 			"/>
            <polygon class="st4" points="626.8,517.7 635.5,516.5 635.1,500 634.6,477.7 692.5,472.4 703,471.5 704,507 709.9,506.2
				708.7,466.7 625.9,473.7 			"/>
            <polygon class="st4" points="693.4,506.2 704,507 703,471.5 692.5,472.4 693.4,504.9 			"/>
            <polygon class="st4" points="708.7,466.7 625.6,462.5 625.7,463.2 692.3,466.6 661.3,469.2 625.8,472.1 625.9,473.7 			"/>
            <polygon class="st4" points="692.3,466.6 625.7,463.2 625.7,467.2 661.3,469.2 			"/>
		</g>
	</g>

        <g>
		<g>
			<polygon class="st8" points="220,330.4 224.1,180.1 219.3,179.2 215.1,330.1 			"/>
            <path class="st7" d="M192.2,332.4l4.4-146.4l22.7-6.8l-4.2,150.9L192.2,332.4z M200.6,192.8l-3.9,130.8l14.1-1.6l3.7-133.3
				L200.6,192.8z"/>
            <polygon class="st8" points="215.1,330.1 192.2,332.4 197,332.7 220,330.4 			"/>
		</g>
            <polygon class="st9" points="210.8,322.1 214.5,188.8 200.6,192.8 196.7,323.6 		"/>
            <g>
			<polygon class="st8" points="392.7,313.6 394.1,129.6 388.9,128.3 387.5,313.2 			"/>
                <path class="st7" d="M353,316.6l2.1-178.1l33.9-10.2l-1.4,184.8L353,316.6z M361.3,146.4l-1.8,159.3l21.2-2.3l1.4-163
				L361.3,146.4z"/>
                <polygon class="st8" points="387.5,313.2 353,316.6 358.1,317 392.7,313.6 			"/>
		</g>
            <polygon class="st9" points="380.7,303.4 382.1,140.4 361.3,146.4 359.5,305.7 		"/>


            <g>
			<polygon class="st8" points="391.1,541.7 392.5,348.1 387.2,347.8 385.7,542.4 			"/>
                <path class="st7" d="M350.4,537l2.2-187.1l34.7-2.1l-1.5,194.6L350.4,537z M358.9,359.8l-1.8,167.4l21.7,3l1.5-171.5L358.9,359.8
				z"/>
		</g>
            <polygon class="st9" points="378.8,530.3 380.3,358.8 358.9,359.8 357.1,527.3 		"/>

            <g>
			<polygon class="st9" points="587.9,502.4 586.1,380.1 563.1,379.5 564.6,505 			"/>
                <polygon class="st9" points="590.5,380.2 592.4,501.9 611.2,499.8 609.1,380.7 			"/>
                <g>
				<polygon class="st7" points="587.9,502.4 592.4,501.9 590.5,380.2 586.1,380.1 				"/>
                    <polygon class="st8" points="555.9,372.7 557.5,512.2 560.3,512.5 558.7,372.6 				"/>
                    <path class="st7" d="M560.3,512.5l-1.6-139.9l54.2,1.8l2.4,131.5L560.3,512.5z M611.2,499.8l-2.1-119.1l-18.6-0.5l-4.5-0.1
					l-23-0.6l1.5,125.5l23.3-2.6l4.5-0.5L611.2,499.8z"/>
			</g>
		</g>
            <g>
			<g>
				<polygon class="st8" points="555.1,302.2 608.9,308.2 611.6,308 557.8,302 				"/>
                <polygon class="st8" points="553.5,169.2 555.1,302.2 557.8,302 556.3,168.6 				"/>
                <path class="st7" d="M557.8,302l-1.6-133.4l53.1,13.7l2.3,125.7L557.8,302z M607.7,301.2l-2-113.8l-18.2-4.6l-4.4-1.1l-22.5-5.6
					l1.5,119.7l22.8,2.7l4.4,0.5L607.7,301.2z"/>
                <polygon class="st7" points="584.9,298.5 589.3,299.1 587.5,182.8 583.1,181.7 				"/>
			</g>
                <polygon class="st9" points="584.9,298.5 583.1,181.7 560.6,176.1 562,295.8 			"/>
                <polygon class="st9" points="587.5,182.8 589.3,299.1 607.7,301.2 605.7,187.4 			"/>
		</g>
            <g>
			<polygon class="st8" points="332.9,319.4 335.4,147 330.3,145.9 327.8,319 			"/>
                <path class="st7" d="M236.4,328l3.9-155.1l90-27L327.8,319L236.4,328z M256,176.8l-3.3,140.6l56-6.2l2.5-150.4L256,176.8z"/>
                <polygon class="st8" points="327.8,319 236.4,328 241.4,328.3 332.9,319.4 			"/>
		</g>
            <polygon class="st9" points="308.7,311.3 311.2,160.9 256,176.8 252.7,317.5 		"/>
            <path class="st8" d="M238.6,553.8l4-166.4l59.5-1.2L299,565.7L238.6,553.8z M280,458.2l-0.3,15.6l6.6,0.6l7.7-0.5l-6.3-16
			L280,458.2z M248.1,444.5l21.7,1.1l1-47.7l-21.6,0.1L248.1,444.5z"/>
            <g>
			<polygon class="st8" points="317,566.4 320.1,369.9 312,369.6 308.8,567.6 			"/>
                <polygon class="st8" points="280.2,334.7 272.3,334.3 312,369.6 320.1,369.9 			"/>
                <path class="st7" d="M302.1,386.2l-59.5,1.2l-4,166.4l-8.3-1.6l4.5-179.5l37.5-38.5l39.7,35.4l-3.2,198l-9.8-1.9L302.1,386.2z
				 M296.2,370.3L272,348.4l-24.3,23.8L296.2,370.3z"/>
                <polygon class="st7" points="294.1,473.9 287.7,457.9 280,458.2 286.3,474.4 			"/>
                <polygon class="st7" points="280,458.2 279.7,473.8 286.3,474.4 			"/>
		</g>
            <polygon class="st9" points="270.8,397.9 249.2,398.1 248.1,444.5 269.8,445.7 		"/>
            <polygon class="st9" points="272,348.4 247.7,372.2 296.2,370.3 		"/>
            <g>
			<polygon class="st8" points="215,515.2 219.3,358.5 214.3,358.3 210,515.6 			"/>
                <path class="st7" d="M186.8,512.1l4.6-152.4l23-1.4L210,515.6L186.8,512.1z M195.4,367.9l-4,136.2l14.3,2l3.9-138.9L195.4,367.9z
				"/>
		</g>
            <polygon class="st9" points="205.7,506.1 209.5,367.2 195.4,367.9 191.4,504.1 		"/>
	</g>
</g>
</svg>
