<?xml version="1.0" encoding="utf-8"?>
<!-- Generator: Adobe Illustrator 25.0.1, SVG Export Plug-In . SVG Version: 6.00 Build 0)  -->
<svg version="1.1" id="katman_1" xmlns="http://www.w3.org/2000/svg" x="0px" y="0px"
     viewBox="0 0 841.9 595.3" style="enable-background:new 0 0 841.9 595.3;" xml:space="preserve">
<style type="text/css">
	.st0{fill:#8F6645;}
	.st1{fill:#EEEEEE;}
	.st2{fill:#DDDDDD;}
	.st3{fill:#3D3A37;}
	.st4{fill:#C4C4C4;}
	.st5{fill:#3D3A37;}
	.st6{fill:#000000;}
	.st7{fill:#FFFFFF;}
	.st8{fill:#888888;}
	.st9{fill:#7884AF;}
</style>

    <g id="body">
	<polygon class="st4" points="661.7,175.8 566.5,79 440.7,110.3 442.2,572.7 669.9,517 662.1,193.1 			"/>
        <polygon class="st0" points="440.7,110.3 238,161.7 237.7,183.4 237.6,188.9 237.5,193 233.6,441.3 233.6,442.3 233.5,446.2
			233.4,454.6 233.3,456.8 232.7,499.7 232.2,528.8 442.2,572.7 			"/>
</g>


    <g id="roof">
	<g>
		<polygon class="st3" points="693.3,168.4 585.2,49.8 478.7,73.2 459.2,77.5 435.5,82.7 431.4,83.6 431.5,112.4 460.8,105.2
			585.6,74.2 679.8,173 693.8,188.7 			"/>
        <polygon class="st2" points="679.8,173 585.6,74.2 566.5,79 661.7,175.8 			"/>
        <polygon class="st2" points="679.8,173 661.7,175.8 662.1,193.1 693.8,188.7 			"/>
        <polygon class="st3" points="148.6,163.7 148.1,184.5 431.5,112.4 431.4,83.6 			"/>
	</g>
        <polygon class="st2" points="431.5,112.4 148.1,184.5 162.5,180.9 172.8,178.2 186.9,174.7 238,161.7 440.7,110.3 460.8,105.2
			"/>
        <g>
		<polygon class="st2" points="186.9,174.7 172.8,178.2 237.6,188.9 237.7,183.4 187,174.7 			"/>
            <polygon class="st2" points="237.6,188.9 172.8,178.2 162.5,180.9 237.5,193 			"/>
	</g>
</g>


    <g id="chimney">
	<polygon class="st5" points="441.8,28.1 441.9,46.3 458.3,41.1 458.2,22.6 			"/>
        <polygon class="st6" points="472.3,28.3 458.2,22.6 458.3,41.1 459,40.9 472.4,46.1 			"/>
        <polygon class="st5" points="435.4,48.4 435.5,82.7 459.2,77.5 459,40.9 458.3,41.1 441.9,46.3 			"/>
        <polygon class="st6" points="478.7,73.2 478.6,48.4 472.4,46.1 459,40.9 459.2,77.5 			"/>
</g>


    <g id="left-window">
	<g>
		<g>
			<path class="st7" d="M290.5,368l-0.4,38l-35.2-1.7l0.5-36.4L290.5,368z M256.5,401.9l32,1.4l0.4-32.6l-31.9-0.2L256.5,401.9z"/>
            <polygon class="st8" points="255.4,368 290.5,368 293.6,368 258.5,368 				"/>
            <polygon class="st8" points="290.1,406 293.2,405.9 293.6,368 290.5,368 				"/>
		</g>
        <polygon class="st9" points="288.8,370.7 256.9,370.5 256.5,401.9 288.5,403.3 			"/>
	</g>

        <g>
		<polygon class="st9" points="413.6,374.1 353.2,373.6 353,398.3 413.6,400.4 			"/>
            <polygon class="st9" points="352.7,466.3 413.6,473.1 413.6,411 353,408.2 			"/>
            <g>
			<polygon class="st8" points="424.8,482.2 424.6,365.3 420,365.3 420.1,482.8 				"/>
                <path class="st7" d="M420.1,482.8l-73-8.8l0.6-108.6l72.3-0.1L420.1,482.8z M353,398.3l0,9.9l-0.3,58.1l60.9,6.7l0-62.1l0-10.6
					l0-26.3l-60.4-0.5L353,398.3z"/>
                <polygon class="st7" points="413.6,411 413.6,400.4 353,398.3 353,408.2 				"/>
		</g>
	</g>

</g>


    <g>
	<g>
		<polygon class="st0" points="566.5,79 585.6,74.2 460.8,105.2 440.7,110.3 		"/>
        <polygon class="st0" points="238,161.7 186.9,174.7 238,162 		"/>
        <g>
			<polygon class="st7" points="151,485.7 150.4,511.8 232.2,528.8 232.7,499.7 224.1,498.3 156.7,486.7 			"/>
            <polygon class="st0" points="156.7,486.7 224.1,498.3 224.4,477.9 167.2,484 167.2,485.6 			"/>
            <polygon class="st4" points="156.7,486.7 167.2,485.6 167.2,484 167.9,453.4 157.5,452.1 			"/>
            <polygon class="st4" points="151,485.7 156.7,486.7 157.5,452.1 167.9,453.4 224.7,460.4 224.4,477.9 224.1,498.3 232.7,499.7
				233.3,456.8 151.9,447.3 			"/>
            <polygon class="st4" points="151.9,447.3 233.3,456.8 233.4,454.6 189.7,449.6 168.1,447.2 233.6,442.3 233.6,441.3 			"/>
            <polygon class="st4" points="233.6,442.3 168.1,447.2 189.7,449.6 233.5,446.2 			"/>
		</g>
	</g>

        <g>
		<g>
			<path class="st7" d="M629.9,321l-3.1-145.1l21.1,6.1l3.2,140.5L629.9,321z M631.2,185l2.7,128.1l13.1,1.1l-2.8-125.6L631.2,185z"
            />
            <polygon class="st8" points="651.2,322.4 629.9,321 625.2,321.1 646.6,322.6 			"/>
            <polygon class="st8" points="629.9,321 626.9,175.8 622.2,176.6 625.2,321.1 			"/>
		</g>
            <polygon class="st9" points="647.1,314.2 644.2,188.6 631.2,185 634,313.1 		"/>
            <g>
			<path class="st7" d="M467.3,309.7l-1-180.2l32.4,9.4l1.5,173.2L467.3,309.7z M472.7,141.2l1,158.8l20.2,1.6l-1.3-155L472.7,141.2
				z"/>
                <polygon class="st8" points="500.2,312 467.3,309.7 462.1,310 495.1,312.3 			"/>
                <polygon class="st8" points="467.3,309.7 466.2,129.5 461.2,130.7 462.1,310 			"/>
		</g>
            <polygon class="st9" points="494,301.7 492.7,146.7 472.7,141.2 473.7,300 		"/>
            <g>
			<path class="st8" d="M596.6,443.5l-7.3-0.5l0.2,14.2l7.3,0.6l3.7-0.5l1.4,79.5l-57.4,14.3l-2.2-173.3l56.7-0.9l1.4,75.5
				L596.6,443.5z M550.8,436.3l21.9-2.1l-0.7-46.1l-21.8,0.7L550.8,436.3z"/>
                <g>
				<polygon class="st8" points="571.1,326.5 563.4,326.8 525.1,362.1 533,362.1 				"/>
                    <path class="st7" d="M600.6,457.3l1.9-0.3l-2-4.6l-1.4-75.5l-56.7,0.9l2.2,173.3l-9.4,2.3L533,362.1l38.1-35.6l35.5,36
					l3.2,172.3l-7.8,1.9L600.6,457.3z M593.7,362.5l-22.4-22.2l-23.9,22L593.7,362.5z"/>
                    <polygon class="st8" points="525.1,362.1 527.3,552 535.3,553.4 533,362.1 				"/>
                    <polygon class="st7" points="589.5,457.2 596.9,457.8 596.6,443.5 589.3,443 				"/>
                    <polygon class="st7" points="596.6,443.5 596.9,457.8 600.6,457.3 602.5,457.1 600.5,452.5 				"/>
			</g>
                <polygon class="st9" points="571.9,388.1 550.1,388.8 550.8,436.3 572.6,434.2 			"/>
                <polygon class="st9" points="571.3,340.2 547.5,362.2 593.7,362.5 			"/>
		</g>
            <g>
			<path class="st7" d="M633.6,497.9l-3.2-149.9l21.4,0.6l3.4,145L633.6,497.9z M634.9,356.3l2.8,132.3l13.2-2.5L648,356.5
				L634.9,356.3z"/>
                <polygon class="st8" points="633.6,497.9 630.5,347.9 625.7,348 628.8,497.3 			"/>
		</g>
            <polygon class="st9" points="651,486.1 648,356.5 634.9,356.3 637.7,488.6 		"/>
            <g>
			<path class="st7" d="M468.5,531.1l-1.1-187.8l33,0.9l1.6,180.1L468.5,531.1z M474.1,353.8l1.1,165.4l20.6-3.9l-1.3-161.2
				L474.1,353.8z"/>
                <polygon class="st8" points="468.5,531.1 467.5,343.3 462.3,343.4 463.3,530.2 			"/>
		</g>
            <polygon class="st9" points="495.7,515.3 494.4,354.1 474.1,353.8 475.2,519.2 		"/>
            <g>
			<path class="st7" d="M526.9,313.8L525,146.5l84.4,24.4l2.9,148.9L526.9,313.8z M543,160.6l1.9,145.2l52.3,4.3l-2.4-135.2
				L543,160.6z"/>
                <polygon class="st8" points="612.3,319.7 526.9,313.8 521.9,314.1 607.5,319.9 			"/>
                <polygon class="st8" points="526.9,313.8 525,146.5 520.1,147.5 521.9,314.1 			"/>
		</g>
            <polygon class="st9" points="597.2,310.1 594.8,174.9 543,160.6 544.9,305.8 		"/>
            <g>
			<polygon class="st9" points="413.4,166.4 354.1,178.8 354,202.5 413.4,191.7 			"/>
                <polygon class="st9" points="353.7,268.1 413.5,261.6 413.4,201.9 354,212.1 			"/>
                <g>
				<polygon class="st8" points="424.4,270.1 424.2,157.7 419.7,156.6 419.8,269.6 				"/>
                    <path class="st7" d="M419.8,269.6l-71.7,7.2l0.6-104.7l71-15.4L419.8,269.6z M354,202.5l0,9.6l-0.3,56l59.8-6.5l0-59.7l0-10.2
					l0-25.3l-59.3,12.3L354,202.5z"/>
                    <polygon class="st8" points="424.4,270.1 419.8,269.6 348.1,276.7 352.8,277.2 				"/>
                    <polygon class="st7" points="413.4,201.9 413.4,191.7 354,202.5 354,212.1 				"/>
			</g>
		</g>
            <g>
			<g>
				<path class="st7" d="M292.5,187.2l-0.4,36.7l-34.7,5.9l0.5-35.2L292.5,187.2z M258.9,227.1l31.6-5.4l0.3-31.5l-31.5,6.6
					L258.9,227.1z"/>
                <polygon class="st8" points="257.3,229.9 260.4,230.3 295.1,224.4 292.1,224 				"/>
                <polygon class="st8" points="292.1,224 295.1,224.4 295.5,187.8 292.5,187.2 				"/>
			</g>
                <polygon class="st9" points="290.8,190.1 259.3,196.7 258.9,227.1 290.5,221.7 			"/>
		</g>
	</g>
</g>
</svg>
