<?xml version="1.0" encoding="utf-8"?>
<!-- Generator: Adobe Illustrator 25.0.1, SVG Export Plug-In . SVG Version: 6.00 Build 0)  -->
<svg version="1.1" id="katman_1" xmlns="http://www.w3.org/2000/svg" x="0px" y="0px"
     viewBox="0 0 841.9 595.3" style="enable-background:new 0 0 841.9 595.3;" xml:space="preserve">
<style type="text/css">
	.st0{fill:#8F6645;}
	.st1{fill:#EEEEEE;}
	.st2{fill:#DDDDDD;}
	.st3{fill:#3D3A37;}
	.st4{fill:#C4C4C4;}
	.st5{fill:#3D3A37;}
	.st6{fill:#000000;}
	.st7{fill:#FFFFFF;}
	.st8{fill:#888888;}
	.st9{fill:#7884AF;}
</style>

    <g id="chimney">
	<polygon class="st6" points="400.1,15.2 384.6,20.9 384.6,38.9 400.1,33.5 		"/>
        <polygon class="st5" points="400.1,15.2 400.1,33.5 415.2,38.9 415.2,20.9 		"/>
        <polygon class="st6" points="378.7,41 378.6,55.9 400.3,60 400.2,33.5 384.6,38.9 		"/>
        <polygon class="st5" points="400.2,33.5 400.3,60 421.9,64.1 421.8,41.3 415.2,38.9 		"/>
</g>

    <g id="body">
	<polygon class="st4" points="391.4,493.8 484.4,505.2 484.1,466.2 391.4,476.1 		"/>
        <polygon class="st4" points="296.3,482 368,490.9 368,475.9 296.4,468.2 		"/>
        <polygon class="st4" points="255.8,477 275.2,479.4 275.3,460.5 286.4,459.6 379.3,468.7 494.7,457.5 506.6,458.4 503.3,117.6
		435.5,102.7 297.1,139.8 252.1,177.2 251.9,194.6 249.2,438.4 256.2,439 		"/>
        <polygon class="st0" points="506.6,458.4 507.1,508 507.5,541.7 669.8,509.4 662,166.4 661.9,165.6 503.3,117.6 		"/>
        <polygon class="st4" points="399.6,94.8 361.3,86.4 325.8,115.9 		"/>
</g>


    <g id="roof">
	<polygon class="st3" points="671.8,168.6 661.9,165.6 662,166.4 		"/>
        <polygon class="st3" points="296.2,65.6 275.5,61.2 292.7,66.2 295.7,67.3 		"/>
        <g>
		<polygon class="st3" points="430.4,94 414.3,90.6 399.6,94.8 325.8,115.9 303.1,122.4 282.6,128.2 301.7,66.8 296.2,65.6
			295.7,67.3 292.6,76.5 274.9,130.5 275.5,61.2 272.7,60.6 270,63.2 269.7,92.3 269.3,132.1 250.2,81.8 245.3,86.5 262.2,134.1
			165.5,161.7 157.4,169.9 			"/>
            <polygon class="st3" points="301.7,66.8 282.6,128.2 303.1,122.4 318.4,73.9 319.1,71.8 			"/>
            <polygon class="st3" points="430.4,94 157.4,169.9 174,172.7 195.3,167 297.1,139.8 435.5,102.7 445.4,100.1 447.9,99.4 			"/>
            <polygon class="st3" points="250.2,81.8 269.3,132.1 269.7,92.3 267.4,86.4 			"/>
            <polygon class="st3" points="292.7,66.2 275.5,61.2 274.9,130.5 292.6,76.5 292.7,66.4 			"/>
	</g>
        <g>
		<polygon class="st3" points="149.9,157.3 149.5,177.9 157.4,169.9 165.5,161.7 245.3,86.5 250.2,81.8 270,63.2 272.7,60.6
			275.5,61.2 296.2,65.6 301.7,66.8 414.3,90.6 430.4,94 447.2,97.6 447,68.8 421.9,64.1 400.3,60 378.6,55.9 273,35.9 			"/>
            <polygon class="st3" points="447.2,97.6 701.8,175.6 701.3,154.7 447,68.8 			"/>
            <polygon class="st2" points="414.3,90.6 301.7,66.8 319.1,71.8 318.4,73.9 361.3,86.4 399.6,94.8 			"/>
            <polygon class="st2" points="270,63.2 250.2,81.8 267.4,86.4 269.7,92.3 			"/>
            <polygon class="st2" points="245.3,86.5 165.5,161.7 262.2,134.1 			"/>
            <polygon class="st2" points="671.8,168.6 701.8,175.6 447.2,97.6 430.4,94 447.9,99.4 445.4,100.1 503.3,117.6 661.9,165.6
			"/>
            <polygon class="st2" points="503.3,117.6 445.4,100.1 435.5,102.7 			"/>
            <polygon class="st2" points="174,172.7 157.4,169.9 149.5,177.9 251.9,194.6 252.1,177.2 195.3,167 			"/>
            <polygon class="st2" points="361.3,86.4 318.4,73.9 303.1,122.4 325.8,115.9 			"/>
            <polygon class="st2" points="295.7,67.3 292.7,66.4 292.6,76.5 			"/>
            <polygon class="st2" points="195.3,167 252.1,177.2 297.1,139.8 			"/>
	</g>
</g>


    <g id="left-window">
	<g>
		<g>
			<polygon class="st8" points="531.2,393.6 530.8,353.9 527.4,354 527.9,393.5 				"/>
            <path class="st7" d="M565.3,354.8l0.6,37.9l-34.7,0.8l-0.5-39.6L565.3,354.8z M532.9,390.8l31.5-0.6l-0.5-32.7l-31.4-0.7
				L532.9,390.8z"/>
		</g>
        <polygon class="st9" points="563.9,357.4 532.4,356.7 532.9,390.8 564.4,390.1 			"/>
	</g>
        <g>
		<polygon class="st9" points="653.9,361.5 617.4,360.8 617.8,382.2 654.4,381.8 			"/>
            <polygon class="st9" points="618.9,441 655.6,437.6 654.6,389.9 618,390.8 			"/>
            <g>
		<path class="st7" d="M659.2,444.1l-44,4.5l-1.8-95l43.8,1.3L659.2,444.1z M617.8,382.2l0.2,8.6l1,50.2l36.7-3.4l-1.1-47.6
			l-0.2-8.2l-0.4-20.3l-36.5-0.7L617.8,382.2z"/>
                <polygon class="st8" points="608.6,353.7 610.3,448.3 615.2,448.6 613.4,353.6 				"/>
                <polygon class="st7" points="654.6,389.9 654.4,381.8 617.8,382.2 618,390.8 				"/>
		</g>
	</g>

</g>


    <g>
	<g>
		<polygon class="st0" points="193.8,517 184.8,518.1 255.2,531.4 264.4,530.1 		"/>
        <polygon class="st4" points="264.4,530.1 255.2,531.4 255.1,539.9 245.4,541.4 245.2,550.4 274.6,545.7 274.8,520.2 264.5,521.6
					"/>
        <polygon class="st4" points="245.2,550.4 245.4,541.4 175.2,527.1 175.1,535.4 		"/>
        <polygon class="st4" points="184.8,518.1 184.7,525.9 255.1,539.9 255.2,531.4 		"/>
        <polygon class="st0" points="245.4,541.4 255.1,539.9 184.7,525.9 179.4,526.6 175.2,527.1 		"/>
        <polygon class="st0" points="274.8,520.2 204,508.1 194,509.3 264.5,521.6 		"/>
        <polygon class="st4" points="264.4,530.1 264.5,521.6 194,509.3 193.8,517 		"/>
	</g>

        <g>
		<g>
			<polygon class="st9" points="297,391.5 297.2,362.1 281.6,362.3 281.3,391.2 			"/>
            <g>
				<polygon class="st8" points="305,356.9 300.6,356.9 300.1,435 304.5,434.7 				"/>
                <path class="st7" d="M300.1,435l-37.4-2.6l0.7-74.8l37.2-0.8L300.1,435z M281.6,362.3l-0.2,28.9l15.7,0.3l0.2-29.4L281.6,362.3z
					 M296.7,429.5l0.2-33.8l-15.7-0.4l-0.3,33.2L296.7,429.5z M279.2,362.4l-12.7,0.2l-0.6,65l12.8,0.8L279.2,362.4z"/>
			</g>
            <polygon class="st9" points="281.3,395.3 281,428.5 296.7,429.5 297,395.7 			"/>
            <polygon class="st9" points="265.8,427.5 278.6,428.4 279.2,362.4 266.5,362.5 			"/>
		</g>
            <g>
			<polygon class="st9" points="650.4,200.4 614.1,191.2 614.5,212 650.8,220.1 			"/>
                <polygon class="st9" points="615.6,269.2 652,274.5 651,228.1 614.7,220.3 			"/>
                <g>
				<path class="st7" d="M655.6,281.6l-43.6-5.9l-1.8-92.4l43.4,11.4L655.6,281.6z M614.5,212l0.2,8.3l0.9,48.8l36.4,5.3l-1-46.4
					l-0.2-7.9l-0.4-19.7l-36.2-9.2L614.5,212z"/>
                    <polygon class="st8" points="650.9,282 655.6,281.6 612,275.7 607.1,276.1 				"/>
                    <polygon class="st8" points="605.4,184.1 607.1,276.1 612,275.7 610.2,183.3 				"/>
                    <polygon class="st7" points="651,228.1 650.8,220.1 614.5,212 614.7,220.3 				"/>
			</g>
		</g>
            <g>
			<polygon class="st9" points="461.6,207.8 461.3,173.8 439.6,178.1 439.7,211.4 			"/>
                <g>
				<polygon class="st8" points="470.3,168 465.9,167 466.6,257.2 470.9,257.8 				"/>
                    <path class="st7" d="M466.6,257.2l-51.9,5.9l-0.2-85.8l51.5-10.3L466.6,257.2z M439.6,178.1l0.2,33.3l21.8-3.5l-0.2-34
					L439.6,178.1z M461.8,251.7l-0.3-39.1l-21.8,3.4l0.2,38.2L461.8,251.7z M436.3,178.7l-17.6,3.4l0.2,74.7l17.7-2.1L436.3,178.7z"
                    />
                    <polygon class="st8" points="466.6,257.2 414.7,263.1 419.1,263.6 470.9,257.8 				"/>
			</g>
                <polygon class="st9" points="439.8,216.1 439.9,254.3 461.8,251.7 461.6,212.7 			"/>
                <polygon class="st9" points="418.9,256.8 436.6,254.7 436.3,178.7 418.7,182.1 			"/>
		</g>
            <g>
			<polygon class="st9" points="379.9,407.9 380,324.2 354.2,325.6 354,407 			"/>
                <path class="st8" d="M332.2,487.1l0.3-77.9l2,0.1l0,5.3l2.1,0.1l2.4-0.1l0-10.1l-2.1-0.1l-3.1,0.1l-1.3,0l0.4-87.6l51.3-3.3
				l0,180L332.2,487.1z M354.2,325.6L354,407l25.9,0.9l0-83.7L354.2,325.6z"/>
                <g>
				<polygon class="st7" points="328,404.3 328,409 332.5,409.1 334.4,409.2 334.6,404.5 				"/>
                    <polygon class="st7" points="328.1,486.6 332.2,487.1 332.5,409.1 328.4,409 				"/>
                    <polygon class="st7" points="328.9,308.8 328.4,404.3 329.3,404.3 332.5,404.4 332.9,316.8 384.2,313.5 384.2,493.6
					388.8,494.1 388.8,304.4 				"/>
                    <polygon class="st8" points="388.8,304.4 388.8,494.1 393.8,493.5 393.7,304.8 				"/>
                    <polygon class="st8" points="336.8,404.3 333.8,404.4 332.5,404.4 329.3,404.3 328.4,404.3 334.6,404.5 338.9,404.4 				"/>
                    <polygon class="st8" points="338.9,414.5 338.9,404.4 334.6,404.5 334.6,409.2 336.5,409.1 336.5,414.6 				"/>
                    <polygon class="st8" points="336.5,414.6 336.5,409.1 334.6,409.2 334.4,414.5 				"/>
			</g>
		</g>
            <g>
			<polygon class="st9" points="462.8,394.8 462.6,359.7 440.4,360.1 440.6,394.4 			"/>
                <g>
				<polygon class="st8" points="471.6,353.6 467.2,353.5 467.9,446.6 472.3,446.2 				"/>
                    <path class="st7" d="M467.9,446.6l-52.7-3.7l-0.2-88.4l52.3-1.1L467.9,446.6z M440.4,360.1l0.2,34.3l22.2,0.4l-0.2-35.1
					L440.4,360.1z M463.1,440l-0.3-40.3l-22.2-0.5l0.2,39.4L463.1,440z M437.1,360.1l-17.8,0.3l0.2,76.9l17.9,1.1L437.1,360.1z"/>
			</g>
                <polygon class="st9" points="440.6,399.2 440.8,438.6 463.1,440 462.8,399.8 			"/>
                <polygon class="st9" points="419.5,437.3 437.4,438.4 437.1,360.1 419.2,360.4 			"/>
		</g>
            <g>
			<g>
				<polygon class="st8" points="528.9,203.6 528.5,165.1 525.2,165.8 525.6,204.1 				"/>
                <path class="st7" d="M562.6,174l0.5,36.8l-34.2-7.2l-0.5-38.4L562.6,174z M530.5,201.2l31.1,6.7l-0.5-31.7l-31.1-7.9
					L530.5,201.2z"/>
                <polygon class="st8" points="528.9,203.6 525.6,204.1 559.9,211.3 563.2,210.8 				"/>
			</g>
                <polygon class="st9" points="561.2,176.2 530.1,168.2 530.5,201.2 561.7,207.9 			"/>
		</g>
            <g>
			<polygon class="st9" points="371.5,222.4 371.6,191.3 353.4,194.8 353.3,225.3 			"/>
                <g>
				<polygon class="st8" points="379.8,185.9 375.4,185.1 375.4,267.5 379.8,268 				"/>
                    <path class="st7" d="M375.4,267.5l-43.3,4.9l0.3-78.7l43.1-8.6L375.4,267.5z M353.4,194.8l-0.1,30.5l18.2-2.9l0-31.1
					L353.4,194.8z M371.5,262.5l0-35.7l-18.2,2.9l-0.1,35L371.5,262.5z M350.6,195.4l-14.7,2.9l-0.3,68.5l14.8-1.8L350.6,195.4z"/>
                    <polygon class="st8" points="375.4,267.5 332,272.4 336.4,272.9 379.8,268 				"/>
			</g>
                <polygon class="st9" points="353.3,229.6 353.2,264.6 371.5,262.5 371.5,226.8 			"/>
                <polygon class="st9" points="335.6,266.7 350.4,265 350.6,195.4 335.9,198.2 			"/>
		</g>
            <g>
			<polygon class="st9" points="298.1,234.2 298.3,205.5 282.9,208.5 282.6,236.7 			"/>
                <g>
				<polygon class="st8" points="306,200.6 301.7,199.8 301.1,275.9 305.5,276.3 				"/>
                    <path class="st7" d="M301.1,275.9l-36.9,4.2l0.7-72.9l36.7-7.4L301.1,275.9z M282.9,208.5l-0.2,28.2l15.5-2.5l0.2-28.7
					L282.9,208.5z M297.9,271.2l0.2-32.9l-15.5,2.4l-0.3,32.3L297.9,271.2z M280.5,209l-12.6,2.4l-0.6,63.4l12.6-1.5L280.5,209z"/>
                    <polygon class="st8" points="301.1,275.9 264.2,280.1 268.5,280.5 305.5,276.3 				"/>
			</g>
                <polygon class="st9" points="282.6,240.7 282.3,273 297.9,271.2 298.1,238.3 			"/>
                <polygon class="st9" points="267.3,274.8 279.9,273.3 280.5,209 267.9,211.4 			"/>
		</g>
	</g>
        <g>
		<polygon class="st4" points="484.4,508.2 496.5,509.7 496.1,464.9 484.1,466.2 484.4,505.2 		"/>
            <polygon class="st4" points="285,512.9 296.1,511.4 296.3,482 296.4,468.2 285.3,467 		"/>
            <polygon class="st0" points="484.4,505.2 391.4,493.8 391.4,526.4 496.5,509.7 484.4,508.2 		"/>
            <polygon class="st0" points="285,512.9 368,526.2 368,490.9 296.3,482 296.1,511.4 		"/>
            <polygon class="st0" points="204.1,499.9 274.9,511.3 275.2,479.4 255.8,477 245.2,478 238.2,477.1 215.3,479.3 215,498.7 		"/>
            <polygon class="st4" points="496.3,464.7 496.7,509.5 507.3,507.8 506.8,458.2 380.4,470.9 380.3,528 391.6,526.2 391.6,493.5
			391.6,475.9 484.3,466 		"/>
            <polygon class="st4" points="496.7,509.5 391.6,526.2 380.3,528 380.3,566.8 507.6,541.5 507.3,507.8 		"/>
            <polygon class="st4" points="380.3,566.8 380.3,528 368.1,526 285.1,512.7 285.5,466.8 296.6,468 368.2,475.7 368.2,490.7
			368.1,526 380.3,528 380.4,470.9 275.5,460.3 275.3,479.2 275.1,511.1 204.3,499.7 205,453.1 127.8,445.3 126.9,487.3
			133.6,488.3 134.3,450.6 144.8,451.7 195.2,457.1 194.8,481 194.5,498.1 133.6,488.3 126.9,487.3 126.3,515.7 179.6,526.4
			184.9,525.7 185,517.9 194,516.8 194.1,509.1 204.2,507.9 275,520 274.8,545.5 		"/>
            <polygon class="st4" points="256.3,438.8 249.3,438.2 127.8,445.3 205,453.1 215.8,452.4 173,448.1 144.9,445.4 		"/>
            <polygon class="st4" points="255.9,476.8 256.3,438.8 144.9,445.4 173,448.1 238.8,444 245.7,443.6 245.4,477.8 		"/>
            <polygon class="st4" points="506.8,458.2 494.9,457.3 379.4,468.5 286.6,459.4 275.5,460.3 380.4,470.9 		"/>
            <polygon class="st4" points="245.4,477.8 245.7,443.6 238.8,444 238.4,476.9 		"/>
            <polygon class="st4" points="204.3,499.7 215.2,498.5 215.5,479.1 215.8,452.4 205,453.1 		"/>
            <polygon class="st0" points="133.6,488.3 194.5,498.1 194.8,481 144.1,485.7 144.1,487.3 		"/>
            <polygon class="st4" points="133.6,488.3 144.1,487.3 144.1,485.7 144.8,451.7 134.3,450.6 		"/>
	</g>
</g>
</svg>
