<?xml version="1.0" encoding="utf-8"?>
<!-- Generator: Adobe Illustrator 25.0.1, SVG Export Plug-In . SVG Version: 6.00 Build 0)  -->
<svg version="1.1" id="katman_1" xmlns="http://www.w3.org/2000/svg" x="0px" y="0px"
     viewBox="0 0 841.9 595.3" style="enable-background:new 0 0 841.9 595.3;" xml:space="preserve">
<style type="text/css">
	.st0{fill:#8F6645;}
	.st1{fill:#EEEEEE;}
	.st2{fill:#DDDDDD;}
	.st3{fill:#3D3A37;}
	.st4{fill:#C4C4C4;}
	.st5{fill:#3D3A37;}
	.st6{fill:#000000;}
	.st7{fill:#FFFFFF;}
	.st8{fill:#888888;}
	.st9{fill:#7884AF;}
</style>


    <g id="roof">
	<g>
		<polygon class="st3" points="592.7,104.2 587.7,99.6 568.6,150.6 568.1,110.1 567.7,81.4 564.9,78.9 562.1,79.5 563,149.1
			544.9,95.2 541.6,85.4 541.3,84.4 535.8,85.7 555.7,147.2 535.2,141.8 516.3,136.8 431.5,114.4 423.3,112.2 408.8,116.4
			683,186.7 673.9,178.4 576.2,152.6 		"/>
        <polygon class="st3" points="555.7,147.2 535.8,85.7 518.3,90.6 518.7,91.8 535.2,141.8 		"/>
        <polygon class="st3" points="683,186.7 408.8,116.4 393.9,120.7 391.3,121.5 396.6,122.8 544,159.2 642.9,183.7 666.2,189.5 		"/>
        <polygon class="st3" points="562.1,79.5 544.8,84.4 544.9,95.2 563,149.1 		"/>
        <polygon class="st3" points="570.4,104 568.1,110.1 568.6,150.6 587.7,99.6 		"/>
	</g>
        <g>
		<polygon class="st3" points="136.9,173.4 136.3,194.3 164.6,186.2 173.3,183.7 333.7,137.9 335.2,137.5 391.3,121.5 393.9,120.7
			394,92.1 376.3,97.7 354.5,104.6 		"/>
            <polygon class="st3" points="692,194.9 691.5,174.1 564.6,54.1 400.8,90.6 394,92.1 393.9,120.7 408.8,116.4 423.3,112.2
			535.8,85.7 541.3,84.4 562.1,79.5 564.9,78.9 567.7,81.4 587.7,99.6 592.7,104.2 673.9,178.4 683,186.7 		"/>
            <polygon class="st2" points="586.4,211.3 692,194.9 683,186.7 666.2,189.5 642.9,183.7 586.2,193.5 		"/>
            <polygon class="st2" points="535.8,85.7 423.3,112.2 431.5,114.4 475.6,103.8 518.7,91.8 518.3,90.6 		"/>
            <polygon class="st2" points="587.7,99.6 567.7,81.4 568.1,110.1 570.4,104 		"/>
            <polygon class="st2" points="673.9,178.4 592.7,104.2 576.2,152.6 		"/>
            <polygon class="st2" points="586.2,193.5 642.9,183.7 544,159.2 		"/>
            <polygon class="st2" points="518.7,91.8 475.6,103.8 516.3,136.8 535.2,141.8 		"/>
            <polygon class="st2" points="544.8,84.5 541.6,85.4 544.9,95.2 		"/>
            <polygon class="st2" points="335.2,137.5 396.6,122.8 391.3,121.5 		"/>
	</g>
</g>


    <g id="chimney">
	<polygon class="st3" points="394,35.9 394.1,16.7 376.7,10.6 376.5,30.3 		"/>
        <polygon class="st3" points="376.7,10.6 361.6,16.9 361.4,36.2 376.5,30.3 		"/>
        <polygon class="st3" points="400.8,90.6 400.9,38.2 394,35.9 376.7,30.2 376.3,97.7 394,92.1 		"/>
        <polygon class="st3" points="355,38.7 354.5,104.6 376.3,97.7 376.7,30.2 361.4,36.2 		"/>
</g>


    <g id="body">
	<polygon class="st0" points="330,530.5 330.5,480.4 333.7,137.9 173.3,183.7 164.7,530.5 329.7,564.5 		"/>
        <polygon class="st4" points="475.6,103.8 431.5,114.4 516.3,136.8 		"/>
        <polygon class="st4" points="586.2,193.5 544,159.2 396.6,122.8 335.2,137.5 333.7,137.9 330.5,480.4 342.3,479.4 459,491.8
		560.9,481.1 572.1,482 572.3,499.5 583.4,498.1 582.8,459.3 590.1,458.7 586.4,211.3 		"/>
        <polygon class="st4" points="352.7,527.6 447,515.5 447,499.2 353,488.4 		"/>
        <polygon class="st4" points="470.3,512.6 549.3,502.5 549.2,490.2 470.3,499.2 		"/>
        <polygon class="st4" points="458.4,551.9 458.5,591.1 573.2,567.6 572.9,542 643.3,529.6 653.5,530.9 653.7,538.7 662.8,539.9
		662.9,547.7 667.7,548.3 715.7,538.5 715,509.5 708.1,510.6 651.4,520 651.1,503.2 650.6,478.6 696.5,473.4 707.1,472.1
		708.1,510.6 715,509.5 713.9,466.7 642.2,474.4 643.1,521.4 572.7,533 572.3,499.5 572.1,482 458.3,494.3 		"/>
</g>


    <g id="right-window">
	<g>
		<g>
			<polygon class="st8" points="233.1,306 235.4,182.8 232.6,182.4 230.2,305.8 				"/>
            <polygon class="st8" points="190.3,310.4 233.1,306 230.2,305.8 187.6,310.2 				"/>
            <path class="st7" d="M187.6,310.2l2.7-116.7l42.3-11.1l-2.4,123.5L187.6,310.2z M227,300l2.2-110.8l-15.4,3.9l-3.5,0.9
				l-17.1,4.4l-2.4,105.7l17.2-1.9l3.5-0.4L227,300z"/>
            <polygon class="st7" points="207.9,302.2 211.5,301.8 213.7,193.2 210.2,194 				"/>
		</g>
        <polygon class="st9" points="207.9,302.2 210.2,194 193.1,198.4 190.7,304.1 			"/>
        <polygon class="st9" points="213.7,193.2 211.5,301.8 227,300 229.1,189.2 			"/>
	</g>


        <g>
		<g>
			<polygon class="st8" points="229.5,498.4 231.9,370.8 229,370.8 226.5,498.7 				"/>
            <path class="st7" d="M183.3,492.3l2.8-120.7l42.9-0.8l-2.5,127.9L183.3,492.3z M223.2,491.8l2.2-114.8l-15.6,0.2l-3.6,0
				l-17.3,0.2l-2.5,109.3l17.4,2.4l3.6,0.5L223.2,491.8z"/>
            <polygon class="st7" points="203.9,489.2 207.5,489.7 209.9,377.2 206.3,377.2 				"/>
		</g>
            <polygon class="st9" points="203.9,489.2 206.3,377.2 189.1,377.4 186.6,486.7 			"/>
            <polygon class="st9" points="209.9,377.2 207.5,489.7 223.2,491.8 225.5,377 			"/>
	</g>
</g>


    <g>
	<polygon class="st8" points="562.1,79.5 541.3,84.4 541.6,85.4 544.8,84.5 	"/>
        <path class="st7" d="M164.6,186.2l8.7-2.1L164.6,186.2z"/>
        <g>
		<polygon class="st4" points="672.7,557.3 672.5,549 602.7,563.4 602.8,572.5 		"/>
            <polygon class="st0" points="662.8,539.9 653.7,538.7 583.4,552 592.7,553.3 		"/>
            <polygon class="st4" points="592.7,553.3 583.4,552 583.3,543.5 572.9,542 573.2,567.6 602.8,572.5 602.7,563.4 592.9,561.9 		"/>
            <polygon class="st4" points="592.7,553.3 592.9,561.9 662.9,547.7 662.8,539.9 		"/>
            <polygon class="st0" points="602.7,563.4 672.5,549 667.7,548.3 662.9,547.7 592.9,561.9 		"/>
            <polygon class="st0" points="643.3,529.6 572.9,542 583.3,543.5 653.5,530.9 		"/>
            <polygon class="st4" points="653.7,538.7 653.5,530.9 583.3,543.5 583.4,552 		"/>
	</g>

        <g>
		<g>
			<g>
				<polygon class="st8" points="307.2,509.9 308.9,369.4 305.9,369.3 304.2,510.2 				"/>
                <path class="st7" d="M252.1,502.5l2.2-132.2l51.6-1l-1.7,140.9L252.1,502.5z M300.1,502.6l1.6-126.4l-18.8,0.2l-4.3,0l-20.7,0.2
					l-2,119.7l20.9,2.9l4.3,0.6L300.1,502.6z"/>
                <polygon class="st7" points="276.8,499.3 281.2,499.9 282.9,376.4 278.6,376.5 				"/>
			</g>
            <polygon class="st9" points="276.8,499.3 278.6,376.5 257.9,376.7 255.9,496.4 			"/>
            <polygon class="st9" points="282.9,376.4 281.2,499.9 300.1,502.6 301.7,376.2 			"/>
		</g>

            <path class="st6" d="M470.6,425.7l-3.1-0.1L470.6,425.7z"/>
            <g>
			<polygon class="st9" points="510.9,425.9 510.3,344.4 485.4,343.3 485.8,427 			"/>
                <g>
				<polygon class="st7" points="465.7,425.9 465.7,430.9 467,431 467,426 				"/>
                    <polygon class="st7" points="467,426 467,431 469.9,430.9 472.2,430.8 474.2,430.7 474.2,425.7 				"/>
                    <polygon class="st7" points="465.7,425.9 467,426 474.2,425.7 469.7,425.5 467.5,425.6 470.6,425.7 467.5,425.8 				"/>
                    <polygon class="st7" points="467.5,431 467.5,436.3 469.9,436.5 469.9,430.9 				"/>
                    <polygon class="st7" points="472.2,436.4 472.2,430.8 469.9,430.9 469.9,436.5 				"/>
                    <polygon class="st7" points="453,515.3 458.2,516 457.8,322.4 452.7,322.7 				"/>
                    <polygon class="st7" points="458.2,516 462.9,515.4 462.4,331.7 514,334.4 515.3,508.6 519.5,508.1 518.1,326.2 457.8,322.4
									"/>
			</g>
                <path class="st8" d="M462.9,515.4l-0.5-183.7l51.6,2.8l1.3,174.2L462.9,515.4z M485.4,343.3l0.4,83.7l25.1-1.1l-0.6-81.6
				L485.4,343.3z M467.5,431l0,5.4l2.4,0.1l2.3-0.1l0-5.6l2-0.1l0-5l-4.5-0.2l-2.3,0.4l-1.8,0.1l0,5L467.5,431z"/>
		</g>
            <polygon class="st9" points="500.6,242.5 500.4,211.8 482.4,208.5 482.6,239.9 		"/>
            <g>
			<path class="st7" d="M504.6,288.1l-44.6-4.5l-0.2-84.7L504,207L504.6,288.1z M482.4,208.5l0.1,31.3l18,2.7l-0.2-30.8L482.4,208.5
				z M500.9,282.3l-0.2-35.4l-18-2.6l0.2,36L500.9,282.3z M479.6,208l-15.8-2.8l0.2,73.1l15.9,1.7L479.6,208z"/>
                <polygon class="st8" points="459.8,198.9 455.3,199.7 455.5,284.1 460,283.6 			"/>
                <polygon class="st8" points="504.6,288.1 460,283.6 455.5,284.1 500.1,288.5 			"/>
		</g>
            <polygon class="st9" points="482.6,244.3 482.8,280.3 500.9,282.3 500.6,246.9 		"/>
            <polygon class="st9" points="464,278.3 479.9,280 479.6,208 463.8,205.2 		"/>
            <g>
			<g>
				<polygon class="st8" points="309.7,298.1 311.3,163 308.4,162.4 306.8,297.9 				"/>
                <polygon class="st8" points="258.4,303.4 309.7,298.1 306.8,297.9 255.5,303.2 				"/>
                <path class="st7" d="M255.5,303.2l2.1-127.4l50.8-13.3l-1.6,135.5L255.5,303.2z M302.8,291.6l1.5-121.6l-18.5,4.7l-4.2,1.1
					l-20.4,5.2l-1.9,115.4l20.6-2.3l4.3-0.5L302.8,291.6z"/>
                <polygon class="st7" points="279.8,294.2 284.1,293.7 285.8,174.8 281.5,175.9 				"/>
			</g>
                <polygon class="st9" points="279.8,294.2 281.5,175.9 261.1,181.1 259.2,296.5 			"/>
                <polygon class="st9" points="285.8,174.8 284.1,293.7 302.8,291.6 304.3,170.1 			"/>
		</g>
            <polygon class="st9" points="573.1,253.2 572.7,224.7 557.3,221.9 557.7,250.9 		"/>
            <g>
			<path class="st7" d="M576.8,295.4l-38-3.8l-0.8-78.2l37.8,7L576.8,295.4z M557.3,221.9l0.3,29l15.4,2.3l-0.4-28.5L557.3,221.9z
				 M573.6,290l-0.4-32.7l-15.4-2.2l0.4,33.3L573.6,290z M554.9,221.5l-13.5-2.4l0.7,67.5l13.5,1.4L554.9,221.5z"/>
                <polygon class="st8" points="538,213.3 533.5,214 534.3,291.9 538.7,291.5 			"/>
                <polygon class="st8" points="576.8,295.4 538.7,291.5 534.3,291.9 572.3,295.7 			"/>
		</g>
            <polygon class="st9" points="557.7,255 558.1,288.3 573.6,290 573.1,257.2 		"/>
            <polygon class="st9" points="542.1,286.6 555.6,288.1 554.9,221.5 541.4,219.1 		"/>
            <polygon class="st9" points="575.1,409.8 574.7,380.5 559.2,380.4 559.5,410.2 		"/>
            <g>
			<path class="st7" d="M578.9,452.7l-38.5,2.9l-0.8-80.6l38.3,0.4L578.9,452.7z M559.2,380.4l0.3,29.9l15.6-0.4l-0.4-29.3
				L559.2,380.4z M575.6,447.7l-0.4-33.7l-15.6,0.5l0.4,34.3L575.6,447.7z M556.7,380.4l-13.6-0.1l0.7,69.6l13.7-1L556.7,380.4z"/>
                <polygon class="st8" points="539.5,374.9 535,375 535.8,455.3 540.3,455.6 			"/>
		</g>
            <polygon class="st9" points="559.5,414.5 559.9,448.8 575.6,447.7 575.2,414 		"/>
            <polygon class="st9" points="543.7,449.9 557.5,449 556.7,380.4 543,380.3 		"/>
            <polygon class="st9" points="418,414.1 418.1,379.6 396.5,379.5 396.4,414.7 		"/>
            <g>
			<path class="st7" d="M422.4,464.5l-53.7,4l0.6-95.5l53.2,0.6L422.4,464.5z M396.5,379.5l-0.1,35.2l21.6-0.6l0.1-34.5L396.5,379.5
				z M418,458.7L418,419l-21.7,0.7l-0.1,40.5L418,458.7z M393.1,379.5l-19-0.1l-0.5,82.4l19.2-1.3L393.1,379.5z"/>
                <polygon class="st8" points="369.3,373 364.8,373.1 364.2,468.1 368.7,468.5 			"/>
		</g>
            <polygon class="st9" points="396.4,419.7 396.2,460.2 418,458.7 418,419 		"/>
            <polygon class="st9" points="373.6,461.8 392.7,460.4 393.1,379.5 374,379.4 		"/>
            <polygon class="st9" points="418.3,230.4 418.4,197.1 397.2,193.3 397.1,227.3 		"/>
            <g>
			<path class="st7" d="M422.6,279.8l-52.7-5.3l0.6-92.1l52.2,9.6L422.6,279.8z M397.2,193.3l-0.1,34l21.3,3.1l0.1-33.3L397.2,193.3
				z M418.2,273.5l0.1-38.3l-21.3-3l-0.1,39.1L418.2,273.5z M393.8,192.7l-18.7-3.3l-0.5,79.5l18.8,2L393.8,192.7z"/>
                <polygon class="st8" points="370.4,182.4 366,183.4 365.4,275.1 369.9,274.5 			"/>
                <polygon class="st8" points="422.6,279.8 369.9,274.5 365.4,275.1 418.1,280.3 			"/>
		</g>
            <polygon class="st9" points="397,232.1 396.9,271.2 418.2,273.5 418.3,235.1 		"/>
            <polygon class="st9" points="374.7,268.8 393.5,270.8 393.8,192.7 375.1,189.4 		"/>
	</g>
        <g>
		<polygon class="st0" points="583.4,498.1 572.3,499.5 572.7,533 643.1,521.4 632.1,520.1 631.8,501.3 601.4,498.3 594.2,499.2
			"/>
            <polygon class="st0" points="651.4,520 708.1,510.6 697.4,509.5 697.3,507.7 651.1,503.2 		"/>
            <polygon class="st4" points="330.5,480.4 330,530.5 340.8,532.3 341.2,487 353,488.4 447,499.2 447,515.5 447.1,550 458.4,551.9
			458.3,494.3 		"/>
            <polygon class="st4" points="342.3,479.4 330.5,480.4 458.3,494.3 572.1,482 560.9,481.1 459,491.8 		"/>
            <polygon class="st4" points="590.1,458.7 582.8,459.3 696.3,466.8 669.8,469.6 631.3,473.6 642.2,474.4 713.9,466.7 		"/>
            <polygon class="st4" points="582.8,459.3 583.4,498.1 594.2,499.2 593.6,464.3 600.9,464.8 669.8,469.6 696.3,466.8 		"/>
            <polygon class="st4" points="341.2,487 340.8,532.3 352.7,530.7 352.7,527.6 353,488.4 		"/>
            <polygon class="st0" points="352.7,530.7 340.8,532.3 447.1,550 447,515.5 352.7,527.6 		"/>
            <polygon class="st4" points="594.2,499.2 601.4,498.3 600.9,464.8 593.6,464.3 		"/>
            <polygon class="st4" points="447.1,550 340.8,532.3 330,530.5 329.7,564.5 458.5,591.1 458.4,551.9 		"/>
            <polygon class="st4" points="697.4,509.5 708.1,510.6 707.1,472.1 696.5,473.4 697.3,507.7 		"/>
            <polygon class="st4" points="632.1,520.1 643.1,521.4 642.2,474.4 631.3,473.6 631.8,501.3 		"/>
            <polygon class="st0" points="549.3,502.5 470.3,512.6 470.5,549.9 560.9,535 549.6,533.4 		"/>
            <polygon class="st4" points="549.6,533.4 560.9,535 560.4,488.9 549.2,490.2 549.3,502.5 		"/>
            <polygon class="st4" points="560.4,488.9 560.9,535 470.5,549.9 458.4,551.9 458.5,591.1 573.2,567.6 572.9,542 643.3,529.6
			653.5,530.9 653.7,538.7 662.8,539.9 662.9,547.7 667.7,548.3 715.7,538.5 715,509.5 708.1,510.6 651.4,520 651.1,503.2 
			650.6,478.6 696.5,473.4 707.1,472.1 708.1,510.6 715,509.5 713.9,466.7 642.2,474.4 643.1,521.4 572.7,533 572.3,499.5 
			572.1,482 458.3,494.3 458.4,551.9 470.5,549.9 470.3,512.6 470.3,499.2 549.2,490.2 		"/>
	</g>
</g>
</svg>
