<?xml version="1.0" encoding="utf-8"?>
<!-- Generator: Adobe Illustrator 25.0.1, SVG Export Plug-In . SVG Version: 6.00 Build 0)  -->
<svg version="1.1" id="katman_1" xmlns="http://www.w3.org/2000/svg" x="0px" y="0px"
     viewBox="0 0 841.9 595.3" style="enable-background:new 0 0 841.9 595.3;" xml:space="preserve">
<style type="text/css">
	.st0{fill:#8F6645;}
	.st1{fill:#EEEEEE;}
	.st2{fill:#DDDDDD;}
	.st3{fill:#3D3A37;}
	.st4{fill:#C4C4C4;}
	.st5{fill:#3D3A37;}
	.st6{fill:#000000;}
	.st7{fill:#FFFFFF;}
	.st8{fill:#888888;}
	.st9{fill:#7884AF;}
</style>

    <g id="body">
	<polygon class="st4" points="686.8,538.4 447.5,584.7 445.7,117 446.5,116.8 575.6,87.8 675.9,187.6 676.5,206.7 			"/>
        <polygon class="st0" points="447.5,584.7 235.4,547.6 236,517.7 236.9,473.7 236.9,472.1 237,467.2 237.1,463.2 237.1,462.5
		242.2,207.2 242.3,202.8 242.4,197.1 242.9,176 242.9,173.5 438.6,119 445.7,117 			"/>
</g>


    <g id="chimney">
	<polygon class="st5" points="411.6,10.6 428,17.3 428,36.1 412.4,30.1 411.6,30.4 			"/>
        <polygon class="st6" points="395,17.2 411.6,10.6 411.6,30.4 395,36.6 			"/>
        <polygon class="st6" points="388.4,105.7 388.5,39 395,36.6 411.6,30.4 412.4,30.1 412.4,98.4 			"/>
        <polygon class="st5" points="412.4,98.4 412.4,30.1 428,36.1 435.1,38.9 435.3,91.3 			"/>
</g>

    <g id="roof">
	<g>
		<polygon class="st2" points="242.2,207.2 167.8,194.4 178.3,191.5 242.3,202.8 			"/>
        <polygon class="st2" points="242.3,202.8 178.3,191.5 191.4,187.8 192.3,188 242.4,197.1 			"/>
	</g>
        <g>
		<polygon class="st2" points="675.9,187.6 694.3,184.5 710.7,201.3 676.5,206.7 			"/>
            <polygon class="st2" points="694.3,184.5 675.9,187.6 575.6,87.8 594.7,82.6 			"/>
            <polygon class="st3" points="694.3,184.5 594.7,82.6 465.7,111.4 446.5,116.8 445.7,117 438.6,119 438.5,90.4 594.2,58
			710,180.7 710.7,201.3 			"/>
            <polygon class="st3" points="154.6,198.1 155.2,177.1 388.4,105.7 412.4,98.4 435.3,91.3 438.5,90.4 438.6,119 242.9,173.5
			191.4,187.8 178.3,191.5 167.8,194.4 			"/>
            <polygon class="st3" points="242.9,176 192.3,188 191.4,187.8 242.9,173.5 			"/>
	</g>
</g>


    <g id="right-window">
	<g>
		<g>
			<polygon class="st8" points="405.2,291.5 339.7,298.7 336.9,298.4 402.4,291.1 				"/>
            <polygon class="st8" points="405.3,144.6 405.2,291.5 402.4,291.1 402.5,143.8 				"/>
            <path class="st7" d="M336.9,298.4l1.1-138l64.5-16.6l-0.1,147.3L336.9,298.4z M363.9,288.3l5.4-0.6l27.9-3.3l0.2-132.1
				l-27.5,6.9l-5.3,1.3l-22,5.5l-1,125L363.9,288.3z"/>
            <polygon class="st7" points="369.3,287.7 363.9,288.3 364.6,160.5 369.9,159.1 				"/>
		</g>
        <polygon class="st9" points="369.3,287.7 369.9,159.1 397.4,152.3 397.2,284.4 			"/>
        <polygon class="st9" points="364.6,160.5 363.9,288.3 341.6,291 342.5,166 			"/>
	</g>

        <g>
		<polygon class="st9" points="368.4,512.9 369,377.7 397.1,376.9 396.9,516.1 			"/>
            <polygon class="st9" points="363.5,377.8 362.8,512.3 339.9,509.7 340.9,378.4 			"/>
            <g>
			<polygon class="st7" points="368.4,512.9 362.8,512.3 363.5,377.8 369,377.7 				"/>
                <polygon class="st8" points="405.2,369.4 405.2,524.2 402.3,524.5 402.4,369.3 				"/>
                <path class="st7" d="M335.1,516.4l1.2-144.9l66.1-2.2l-0.1,155.2L335.1,516.4z M362.8,512.3l5.5,0.6l28.6,3.2l0.2-139.2
				l-28.1,0.7l-5.5,0.1l-22.6,0.6l-1,131.3L362.8,512.3z"/>
		</g>
	</g>
</g>


    <g>
	<g>
		<polygon class="st7" points="594.7,82.6 575.6,87.8 446.5,116.8 465.7,111.4 		"/>

        <g>
			<polygon class="st4" points="152.1,533.1 152.8,506.2 158.7,507 227.3,516.5 236,517.7 235.4,547.6 			"/>
            <polygon class="st0" points="227.3,516.5 158.7,507 169.3,506.2 169.3,504.9 227.6,500 			"/>
            <polygon class="st4" points="236,517.7 227.3,516.5 227.6,500 228.1,477.7 170.2,472.4 159.7,471.5 158.7,507 152.8,506.2
				154,466.7 236.9,473.7 			"/>
            <polygon class="st4" points="169.3,506.2 158.7,507 159.7,471.5 170.2,472.4 169.3,504.9 			"/>
            <polygon class="st4" points="154,466.7 237.1,462.5 237.1,463.2 170.4,466.6 201.5,469.2 236.9,472.1 236.9,473.7 			"/>
            <polygon class="st4" points="170.4,466.6 237.1,463.2 237,467.2 201.5,469.2 			"/>
		</g>
	</g>

        <g>
		<g>
			<polygon class="st8" points="642.7,330.4 638.7,180.1 643.5,179.2 647.7,330.1 			"/>
            <path class="st7" d="M647.7,330.1l-4.2-150.9l22.7,6.8l4.4,146.4L647.7,330.1z M648.2,188.8l3.7,133.3l14.1,1.6l-3.9-130.8
				L648.2,188.8z"/>
            <polygon class="st8" points="647.7,330.1 670.6,332.4 665.7,332.7 642.7,330.4 			"/>
		</g>
            <polygon class="st9" points="651.9,322.1 648.2,188.8 662.1,192.8 666,323.6 		"/>

            <g>
			<polygon class="st8" points="470,313.6 468.7,129.6 473.8,128.3 475.2,313.2 			"/>
                <path class="st7" d="M475.2,313.2l-1.4-184.8l33.9,10.2l2.1,178.1L475.2,313.2z M480.6,140.4l1.4,163l21.2,2.3l-1.8-159.3
				L480.6,140.4z"/>
                <polygon class="st8" points="475.2,313.2 509.8,316.6 504.6,317 470,313.6 			"/>
		</g>
            <polygon class="st9" points="482,303.4 480.6,140.4 501.5,146.4 503.2,305.7 		"/>

            <g>
			<polygon class="st8" points="471.7,541.7 470.3,348.1 475.5,347.8 477,542.4 			"/>
                <path class="st7" d="M477,542.4l-1.5-194.6l34.7,2.1l2.2,187.1L477,542.4z M482.5,358.8l1.5,171.5l21.7-3l-1.8-167.4L482.5,358.8
				z"/>
		</g>
            <polygon class="st9" points="484,530.3 482.5,358.8 503.8,359.8 505.7,527.3 		"/>
            <g>
			<polygon class="st9" points="274.9,502.4 276.7,380.1 299.7,379.5 298.1,505 			"/>
                <polygon class="st9" points="272.2,380.2 270.3,501.9 251.6,499.8 253.6,380.7 			"/>
                <g>
				<polygon class="st7" points="274.9,502.4 270.3,501.9 272.2,380.2 276.7,380.1 				"/>
                    <polygon class="st8" points="306.9,372.7 305.3,512.2 302.4,512.5 304.1,372.6 				"/>
                    <path class="st7" d="M247.6,505.9l2.4-131.5l54.2-1.8l-1.6,139.9L247.6,505.9z M270.3,501.9l4.5,0.5l23.3,2.6l1.5-125.5l-23,0.6
					l-4.5,0.1l-18.6,0.5l-2.1,119.1L270.3,501.9z"/>
			</g>
		</g>
            <g>
			<g>
				<polygon class="st8" points="307.7,302.2 253.9,308.2 251.1,308 304.9,302 				"/>
                <polygon class="st8" points="309.2,169.2 307.7,302.2 304.9,302 306.5,168.6 				"/>
                <path class="st7" d="M251.1,308l2.3-125.7l53.1-13.7L304.9,302L251.1,308z M273.5,299.1l4.4-0.5l22.8-2.7l1.5-119.7l-22.5,5.6
					l-4.4,1.1l-18.2,4.6l-2,113.8L273.5,299.1z"/>
                <polygon class="st7" points="277.9,298.5 273.5,299.1 275.3,182.8 279.6,181.7 				"/>
			</g>
                <polygon class="st9" points="277.9,298.5 279.6,181.7 302.2,176.1 300.7,295.8 			"/>
                <polygon class="st9" points="275.3,182.8 273.5,299.1 255,301.2 257,187.4 			"/>
		</g>
            <g>
			<polygon class="st8" points="529.8,319.4 527.4,147 532.4,145.9 535,319 			"/>
                <path class="st7" d="M535,319l-2.5-173.1l90,27l3.9,155.1L535,319z M551.5,160.9l2.5,150.4l56,6.2l-3.3-140.6L551.5,160.9z"/>
                <polygon class="st8" points="535,319 626.3,328 621.4,328.3 529.8,319.4 			"/>
		</g>
            <polygon class="st9" points="554.1,311.3 551.5,160.9 606.8,176.8 610.1,317.5 		"/>
            <path class="st8" d="M563.8,565.7l-3.1-179.5l59.5,1.2l4,166.4L563.8,565.7z M575,457.9l-6.3,16l7.7,0.5l6.6-0.6l-0.3-15.6
			L575,457.9z M613.5,398.1l-21.6-0.1l1,47.7l21.7-1.1L613.5,398.1z"/>
            <g>
			<polygon class="st8" points="545.7,566.4 542.7,369.9 550.7,369.6 554,567.6 			"/>
                <polygon class="st8" points="582.5,334.7 590.4,334.3 550.7,369.6 542.7,369.9 			"/>
                <path class="st7" d="M563.8,565.7l-9.8,1.9l-3.2-198l39.7-35.4l37.5,38.5l4.5,179.5l-8.3,1.6l-4-166.4l-59.5-1.2L563.8,565.7z
				 M615,372.2l-24.3-23.8l-24.1,21.8L615,372.2z"/>
                <polygon class="st7" points="568.7,473.9 575,457.9 582.7,458.2 576.4,474.4 			"/>
                <polygon class="st7" points="582.7,458.2 583,473.8 576.4,474.4 			"/>
		</g>
            <polygon class="st9" points="591.9,397.9 613.5,398.1 614.6,444.5 592.9,445.7 		"/>
            <polygon class="st9" points="590.7,348.4 615,372.2 566.6,370.3 		"/>
            <g>
			<polygon class="st8" points="647.7,515.2 643.5,358.5 648.4,358.3 652.7,515.6 			"/>
                <path class="st7" d="M652.7,515.6l-4.3-157.3l23,1.4l4.6,152.4L652.7,515.6z M653.2,367.2l3.9,138.9l14.3-2l-4-136.2L653.2,367.2
				z"/>
		</g>
            <polygon class="st9" points="657.1,506.1 653.2,367.2 667.3,367.9 671.4,504.1 		"/>
	</g>
</g>
</svg>
