<?xml version="1.0" encoding="utf-8"?>
<!-- Generator: Adobe Illustrator 25.0.1, SVG Export Plug-In . SVG Version: 6.00 Build 0)  -->
<svg version="1.1" id="katman_1" xmlns="http://www.w3.org/2000/svg" x="0px" y="0px"
     viewBox="0 0 841.9 595.3" style="enable-background:new 0 0 841.9 595.3;" xml:space="preserve">
<style type="text/css">
	.st0{fill:#8F6645;}
	.st1{fill:#EEEEEE;}
	.st2{fill:#DDDDDD;}
	.st3{fill:#3D3A37;}
	.st4{fill:#C4C4C4;}
	.st5{fill:#3D3A37;}
	.st6{fill:#000000;}
	.st7{fill:#FFFFFF;}
	.st8{fill:#888888;}
	.st9{fill:#7884AF;}
</style>

    <g id="body">
	<polygon class="st4" points="180.2,175.8 275.4,79 401.2,110.3 399.7,572.7 172,517 179.8,193.1 			"/>
        <polygon class="st0" points="401.2,110.3 603.9,161.7 604.2,183.4 604.3,188.9 604.4,193 608.3,441.3 608.3,442.3 608.4,446.2
		608.5,454.6 608.6,456.8 609.2,499.7 609.7,528.8 399.7,572.7 			"/>
</g>

    <g id="roof">
	<g>
		<polygon class="st3" points="148.6,168.4 256.7,49.8 363.1,73.2 382.7,77.5 406.4,82.7 410.5,83.6 410.4,112.4 381.1,105.2
			256.2,74.2 162.1,173 148.1,188.7 			"/>
        <polygon class="st2" points="162.1,173 256.2,74.2 275.4,79 180.2,175.8 			"/>
        <polygon class="st2" points="162.1,173 180.2,175.8 179.8,193.1 148.1,188.7 			"/>
        <polygon class="st3" points="693.3,163.7 693.8,184.5 410.4,112.4 410.5,83.6 			"/>
	</g>
        <g>
		<polygon class="st2" points="655,174.7 669.1,178.2 604.3,188.9 604.2,183.4 654.9,174.7 			"/>
            <polygon class="st2" points="604.3,188.9 669.1,178.2 679.4,180.9 604.4,193 			"/>
	</g>
</g>


    <g id="chimney">
	<polygon class="st5" points="400.1,28.1 400,46.3 383.6,41.1 383.6,22.6 			"/>
        <polygon class="st6" points="369.6,28.3 383.6,22.6 383.6,41.1 382.9,40.9 369.5,46.1 			"/>
        <polygon class="st5" points="406.5,48.4 406.4,82.7 382.7,77.5 382.9,40.9 383.6,41.1 400,46.3 			"/>
        <polygon class="st6" points="363.1,73.2 363.3,48.4 369.5,46.1 382.9,40.9 382.7,77.5 			"/>
</g>


    <g id="left-window">
	<g>
		<g>
			<path class="st7" d="M586.5,368l0.5,36.4l-35.2,1.7l-0.4-38L586.5,368z M585,370.5l-31.9,0.2l0.4,32.6l32-1.4L585,370.5z"/>
            <polygon class="st8" points="586.5,368 551.4,368 548.3,368 583.4,368 				"/>
            <polygon class="st8" points="551.8,406 548.7,405.9 548.3,368 551.4,368 				"/>
		</g>
        <polygon class="st9" points="553.1,370.7 585,370.5 585.4,401.9 553.4,403.3 			"/>
	</g>

        <g>
		<polygon class="st9" points="428.3,374.1 488.7,373.6 488.8,398.3 428.3,400.4 			"/>
            <polygon class="st9" points="489.2,466.3 428.3,473.1 428.3,411 488.9,408.2 			"/>
            <g>
			<polygon class="st8" points="417.1,482.2 417.3,365.3 421.9,365.3 421.8,482.8 				"/>
                <path class="st7" d="M421.9,365.3l72.3,0.1l0.6,108.6l-73,8.8L421.9,365.3z M488.7,373.6l-60.4,0.5l0,26.3l0,10.6l0,62.1
					l60.9-6.7l-0.3-58.1l0-9.9L488.7,373.6z"/>
                <polygon class="st7" points="428.3,411 428.3,400.4 488.8,398.3 488.9,408.2 				"/>
		</g>
	</g>
</g>


    <g>
	<g>
		<polygon class="st0" points="275.4,79 256.2,74.2 381.1,105.2 401.2,110.3 		"/>
        <polygon class="st0" points="410.4,112.4 693.8,184.5 679.4,180.9 669.1,178.2 655,174.7 603.9,161.7 401.2,110.3 381.1,105.2
			"/>
        <polygon class="st0" points="603.9,161.7 655,174.7 603.9,162 		"/>

        <g>
			<polygon class="st4" points="690.9,485.7 691.5,511.8 609.7,528.8 609.2,499.7 617.8,498.3 685.2,486.7 			"/>
            <polygon class="st0" points="685.2,486.7 617.8,498.3 617.5,477.9 674.6,484 674.7,485.6 			"/>
            <polygon class="st4" points="685.2,486.7 674.7,485.6 674.6,484 674,453.4 684.4,452.1 			"/>
            <polygon class="st4" points="690.9,485.7 685.2,486.7 684.4,452.1 674,453.4 617.2,460.4 617.5,477.9 617.8,498.3 609.2,499.7
				608.6,456.8 690,447.3 			"/>
            <polygon class="st4" points="690,447.3 608.6,456.8 608.5,454.6 652.2,449.6 673.8,447.2 608.3,442.3 608.3,441.3 			"/>
            <polygon class="st4" points="608.3,442.3 673.8,447.2 652.2,449.6 608.4,446.2 			"/>
		</g>
	</g>
        <g>
		<g>
			<path class="st7" d="M190.7,322.4l3.2-140.5l21.1-6.1L212,321L190.7,322.4z M197.7,188.6l-2.8,125.6l13.1-1.1l2.7-128.1
				L197.7,188.6z"/>
            <polygon class="st8" points="190.7,322.4 212,321 216.7,321.1 195.3,322.6 			"/>
            <polygon class="st8" points="212,321 215,175.8 219.7,176.6 216.7,321.1 			"/>
		</g>
            <polygon class="st9" points="194.8,314.2 197.7,188.6 210.7,185 207.9,313.1 		"/>
            <g>
			<path class="st7" d="M341.7,312l1.5-173.2l32.4-9.4l-1,180.2L341.7,312z M349.2,146.7l-1.3,155l20.2-1.6l1-158.8L349.2,146.7z"/>
                <polygon class="st8" points="341.7,312 374.6,309.7 379.7,310 346.8,312.3 			"/>
                <polygon class="st8" points="374.6,309.7 375.7,129.5 380.7,130.7 379.7,310 			"/>
		</g>
            <polygon class="st9" points="347.9,301.7 349.2,146.7 369.2,141.2 368.1,300 		"/>
            <g>
			<path class="st8" d="M241.4,452.5l1.4-75.5l56.7,0.9l-2.2,173.3l-57.4-14.3l1.4-79.5l3.7,0.5l7.3-0.6l0.2-14.2l-7.3,0.5
				L241.4,452.5z M291.8,388.8l-21.8-0.7l-0.7,46.1l21.9,2.1L291.8,388.8z"/>
                <g>
				<polygon class="st8" points="270.8,326.5 278.5,326.8 316.7,362.1 308.9,362.1 				"/>
                    <path class="st7" d="M239.8,536.8l-7.8-1.9l3.2-172.3l35.5-36l38.1,35.6l-2.3,191.3l-9.4-2.3l2.2-173.3l-56.7-0.9l-1.4,75.5
					l-2,4.6l1.9,0.3L239.8,536.8z M294.4,362.2l-23.9-22l-22.4,22.2L294.4,362.2z"/>
                    <polygon class="st8" points="316.7,362.1 314.6,552 306.6,553.4 308.9,362.1 				"/>
                    <polygon class="st7" points="252.4,457.2 245,457.8 245.3,443.5 252.6,443 				"/>
                    <polygon class="st7" points="245.3,443.5 245,457.8 241.3,457.3 239.4,457.1 241.4,452.5 				"/>
			</g>
                <polygon class="st9" points="270,388.1 291.8,388.8 291.1,436.3 269.3,434.2 			"/>
                <polygon class="st9" points="270.5,340.2 294.4,362.2 248.1,362.5 			"/>
		</g>
            <g>
			<path class="st7" d="M186.7,493.5l3.4-145l21.4-0.6l-3.2,149.9L186.7,493.5z M193.9,356.5l-2.9,129.6l13.2,2.5l2.8-132.3
				L193.9,356.5z"/>
                <polygon class="st8" points="208.2,497.9 211.4,347.9 216.2,348 213.1,497.3 			"/>
		</g>
            <polygon class="st9" points="190.9,486.1 193.9,356.5 207,356.3 204.2,488.6 		"/>
            <g>
			<path class="st7" d="M339.8,524.3l1.6-180.1l33-0.9l-1.1,187.8L339.8,524.3z M347.5,354.1l-1.3,161.2l20.6,3.9l1.1-165.4
				L347.5,354.1z"/>
                <polygon class="st8" points="373.4,531.1 374.4,343.3 379.6,343.4 378.6,530.2 			"/>
		</g>
            <polygon class="st9" points="346.2,515.3 347.5,354.1 367.8,353.8 366.7,519.2 		"/>
            <g>
			<path class="st7" d="M229.6,319.7l2.9-148.9l84.4-24.4L315,313.8L229.6,319.7z M247.1,174.9l-2.4,135.2l52.3-4.3l1.9-145.2
				L247.1,174.9z"/>
                <polygon class="st8" points="229.6,319.7 315,313.8 320,314.1 234.4,319.9 			"/>
                <polygon class="st8" points="315,313.8 316.9,146.5 321.8,147.5 320,314.1 			"/>
		</g>
            <polygon class="st9" points="244.7,310.1 247.1,174.9 298.9,160.6 297,305.8 		"/>
            <g>
			<polygon class="st9" points="428.5,166.4 487.8,178.8 487.9,202.5 428.5,191.7 			"/>
                <polygon class="st9" points="488.2,268.1 428.4,261.6 428.5,201.9 487.9,212.1 			"/>
                <g>
				<polygon class="st8" points="417.5,270.1 417.7,157.7 422.2,156.6 422.1,269.6 				"/>
                    <path class="st7" d="M422.2,156.6l71,15.4l0.6,104.7l-71.7-7.2L422.2,156.6z M487.8,178.8l-59.3-12.3l0,25.3l0,10.2l0,59.7
					l59.8,6.5l-0.3-56l0-9.6L487.8,178.8z"/>
                    <polygon class="st8" points="417.5,270.1 422.1,269.6 493.8,276.7 489.1,277.2 				"/>
                    <polygon class="st7" points="428.5,201.9 428.5,191.7 487.9,202.5 487.9,212.1 				"/>
			</g>
		</g>

            <g>
			<g>
				<path class="st7" d="M584.1,194.6l0.5,35.2l-34.7-5.9l-0.4-36.7L584.1,194.6z M582.6,196.7l-31.5-6.6l0.3,31.5l31.6,5.4
					L582.6,196.7z"/>
                <polygon class="st7" points="584.5,229.9 581.5,230.3 546.8,224.4 549.8,224 				"/>
                <polygon class="st8" points="549.8,224 546.8,224.4 546.4,187.8 549.4,187.2 				"/>
			</g>
                <polygon class="st9" points="551.1,190.1 582.6,196.7 583,227.1 551.4,221.7 			"/>
		</g>
	</g>
</g>
</svg>
