<?xml version="1.0" encoding="utf-8"?>
<!-- Generator: Adobe Illustrator 25.0.1, SVG Export Plug-In . SVG Version: 6.00 Build 0)  -->
<svg version="1.1" id="katman_1" xmlns="http://www.w3.org/2000/svg" x="0px" y="0px"
     viewBox="0 0 841.9 595.3" style="enable-background:new 0 0 841.9 595.3;" xml:space="preserve">
<style type="text/css">
	.st0{fill:#8F6645;}
	.st1{fill:#EEEEEE;}
	.st2{fill:#DDDDDD;}
	.st3{fill:#3D3A37;}
	.st4{fill:#C4C4C4;}
	.st5{fill:#3D3A37;}
	.st6{fill:#000000;}
	.st7{fill:#FFFFFF;}
	.st8{fill:#888888;}
	.st9{fill:#7884AF;}
</style>

    <g id="roof">
	<polygon class="st3" points="290,79.5 310.8,84.4 310.5,85.4 307.3,84.5 	"/>
        <path class="st3" d="M687.5,186.2l-8.7-2.1L687.5,186.2z"/>
        <g>
		<polygon class="st3" points="259.4,104.2 264.4,99.6 283.4,150.6 284,110.1 284.4,81.4 287.2,78.9 290,79.5 289.1,149.1
			307.2,95.2 310.5,85.4 310.8,84.4 316.3,85.7 296.4,147.2 316.9,141.8 335.8,136.8 420.6,114.4 428.7,112.2 443.3,116.4
			169,186.7 178.2,178.4 275.9,152.6 		"/>
            <polygon class="st3" points="296.4,147.2 316.3,85.7 333.8,90.6 333.4,91.8 316.9,141.8 		"/>
            <polygon class="st3" points="169,186.7 443.3,116.4 458.2,120.7 460.8,121.5 455.5,122.8 308.1,159.2 209.2,183.7 185.9,189.5
			"/>
            <polygon class="st3" points="290,79.5 307.3,84.4 307.2,95.2 289.1,149.1 		"/>
            <polygon class="st3" points="281.7,104 284,110.1 283.4,150.6 264.4,99.6 		"/>
	</g>
        <g>
		<polygon class="st3" points="715.2,173.4 715.7,194.3 687.5,186.2 678.8,183.7 518.4,137.9 516.9,137.5 460.8,121.5 458.2,120.7
			458.1,92.1 475.8,97.7 497.6,104.6 		"/>
            <polygon class="st3" points="160.1,194.9 160.6,174.1 287.5,54.1 451.3,90.6 458.1,92.1 458.2,120.7 443.3,116.4 428.7,112.2
			316.3,85.7 310.8,84.4 290,79.5 287.2,78.9 284.4,81.4 264.4,99.6 259.4,104.2 178.2,178.4 169,186.7 		"/>
            <polygon class="st2" points="265.6,211.3 160.1,194.9 169,186.7 185.9,189.5 209.2,183.7 265.9,193.5 		"/>
            <polygon class="st2" points="316.3,85.7 428.7,112.2 420.6,114.4 376.5,103.8 333.4,91.8 333.8,90.6 		"/>
            <polygon class="st2" points="264.4,99.6 284.4,81.4 284,110.1 281.7,104 		"/>
            <polygon class="st2" points="178.2,178.4 259.4,104.2 275.9,152.6 		"/>
            <polygon class="st2" points="265.9,193.5 209.2,183.7 308.1,159.2 		"/>
            <polygon class="st2" points="333.4,91.8 376.5,103.8 335.8,136.8 316.9,141.8 		"/>
            <polygon class="st2" points="307.3,84.5 310.5,85.4 307.2,95.2 		"/>
            <polygon class="st2" points="516.9,137.5 455.5,122.8 460.8,121.5 		"/>
	</g>
</g>


    <g id="chimney">
	<polygon class="st3" points="458.1,35.9 458,16.7 475.4,10.6 475.5,30.3 		"/>
        <polygon class="st6" points="475.4,10.6 490.5,16.9 490.7,36.2 475.5,30.3 		"/>
        <polygon class="st3" points="451.3,90.6 451.2,38.2 458.1,35.9 475.4,30.2 475.8,97.7 458.1,92.1 		"/>
        <polygon class="st6" points="497.1,38.7 497.6,104.6 475.8,97.7 475.4,30.2 490.7,36.2 		"/>
</g>


    <g id="body">
	<polygon class="st0" points="522.1,530.5 521.6,480.4 518.4,137.9 678.8,183.7 687.4,530.5 522.4,564.5 		"/>
        <polygon class="st4" points="376.5,103.8 420.6,114.4 335.8,136.8 		"/>
        <polygon class="st4" points="265.9,193.5 308.1,159.2 455.5,122.8 516.9,137.5 518.4,137.9 521.6,480.4 509.8,479.4 393.1,491.8
		291.2,481.1 280,482 279.8,499.5 268.7,498.1 269.2,459.3 262,458.7 265.6,211.3 		"/>
        <polygon class="st4" points="499.4,527.6 405.1,515.5 405.1,499.2 499.1,488.4 		"/>
        <polygon class="st4" points="381.7,512.6 302.8,502.5 302.9,490.2 381.8,499.2 		"/>
        <polygon class="st4" points="393.7,551.9 393.6,591.1 278.9,567.6 279.2,542 208.8,529.6 198.6,530.9 198.4,538.7 189.3,539.9
		189.1,547.7 184.4,548.3 136.3,538.5 137.1,509.5 144,510.6 200.7,520 201,503.2 201.5,478.6 155.6,473.4 145,472.1 144,510.6
		137.1,509.5 138.2,466.7 209.9,474.4 208.9,521.4 279.3,533 279.8,499.5 280,482 393.8,494.3 		"/>
</g>


    <g id="right-window">
	<g>
		<g>
			<polygon class="st8" points="619,306 616.7,182.8 619.5,182.4 621.9,305.8 				"/>
            <polygon class="st8" points="661.7,310.4 619,306 621.9,305.8 664.5,310.2 				"/>
            <path class="st7" d="M621.9,305.8l-2.4-123.5l42.3,11.1l2.7,116.7L621.9,305.8z M640.6,301.8l3.5,0.4l17.2,1.9l-2.4-105.7
				l-17.1-4.4l-3.5-0.9l-15.4-3.9l2.2,110.8L640.6,301.8z"/>
            <polygon class="st7" points="644.2,302.2 640.6,301.8 638.3,193.2 641.9,194 				"/>
		</g>
        <polygon class="st9" points="644.2,302.2 641.9,194 658.9,198.4 661.4,304.1 			"/>
        <polygon class="st9" points="638.3,193.2 640.6,301.8 625.1,300 623,189.2 			"/>
	</g>

        <g>
		<g>
			<polygon class="st8" points="622.6,498.4 620.2,370.8 623.1,370.8 625.6,498.7 				"/>
            <path class="st7" d="M625.6,498.7l-2.5-127.9l42.9,0.8l2.8,120.7L625.6,498.7z M644.5,489.7l3.6-0.5l17.4-2.4L663,377.4
				l-17.3-0.2l-3.6,0l-15.6-0.2l2.2,114.8L644.5,489.7z"/>
            <polygon class="st7" points="648.1,489.2 644.5,489.7 642.2,377.2 645.8,377.2 				"/>
		</g>
            <polygon class="st9" points="648.1,489.2 645.8,377.2 663,377.4 665.5,486.7 			"/>
            <polygon class="st9" points="642.2,377.2 644.5,489.7 628.9,491.8 626.6,377 			"/>
	</g>
</g>


    <g>
	<g>
		<polygon class="st4" points="179.4,557.3 179.5,549 249.4,563.4 249.3,572.5 		"/>
        <polygon class="st0" points="189.3,539.9 198.4,538.7 268.7,552 259.4,553.3 		"/>
        <polygon class="st4" points="259.4,553.3 268.7,552 268.8,543.5 279.2,542 278.9,567.6 249.3,572.5 249.4,563.4 259.2,561.9 		"/>
        <polygon class="st4" points="259.4,553.3 259.2,561.9 189.1,547.7 189.3,539.9 		"/>
        <polygon class="st0" points="249.4,563.4 179.5,549 184.4,548.3 189.1,547.7 259.2,561.9 		"/>
        <polygon class="st0" points="208.8,529.6 279.2,542 268.8,543.5 198.6,530.9 		"/>
        <polygon class="st4" points="198.4,538.7 198.6,530.9 268.8,543.5 268.7,552 		"/>
	</g>

        <g>
		<g>
			<g>
				<polygon class="st8" points="544.9,509.9 543.2,369.4 546.2,369.3 547.9,510.2 				"/>
                <path class="st7" d="M547.9,510.2l-1.7-140.9l51.6,1l2.2,132.2L547.9,510.2z M570.9,499.9l4.3-0.6l20.9-2.9l-2-119.7l-20.7-0.2
					l-4.3,0l-18.8-0.2l1.6,126.4L570.9,499.9z"/>
                <polygon class="st7" points="575.3,499.3 570.9,499.9 569.2,376.4 573.5,376.5 				"/>
			</g>
            <polygon class="st9" points="575.3,499.3 573.5,376.5 594.2,376.7 596.2,496.4 			"/>
            <polygon class="st9" points="569.2,376.4 570.9,499.9 551.9,502.6 550.4,376.2 			"/>
		</g>
            <path class="st6" d="M381.5,425.7l3.1-0.1L381.5,425.7z"/>
            <g>
			<polygon class="st9" points="341.2,425.9 341.8,344.4 366.7,343.3 366.3,427 			"/>
                <g>
				<polygon class="st7" points="386.4,425.9 386.4,430.9 385.1,431 385.1,426 				"/>
                    <polygon class="st8" points="385.1,426 385.1,431 382.2,430.9 379.9,430.8 377.8,430.7 377.9,425.7 				"/>
                    <polygon class="st7" points="386.4,425.9 385.1,426 377.9,425.7 382.3,425.5 384.6,425.6 381.5,425.7 384.6,425.8 				"/>
                    <polygon class="st7" points="384.6,431 384.6,436.3 382.2,436.5 382.2,430.9 				"/>
                    <polygon class="st7" points="379.9,436.4 379.9,430.8 382.2,430.9 382.2,436.5 				"/>
                    <polygon class="st7" points="399.1,515.3 393.9,516 394.3,322.4 399.4,322.7 				"/>
                    <polygon class="st7" points="393.9,516 389.2,515.4 389.7,331.7 338,334.4 336.8,508.6 332.6,508.1 334,326.2 394.3,322.4
					"/>
			</g>
                <path class="st8" d="M336.8,508.6l1.3-174.2l51.6-2.8l-0.5,183.7L336.8,508.6z M341.8,344.4l-0.6,81.6l25.1,1.1l0.4-83.7
				L341.8,344.4z M386.4,430.9l0-5l-1.8-0.1l-2.3-0.4l-4.5,0.2l0,5l2,0.1l0,5.6l2.3,0.1l2.4-0.1l0-5.4L386.4,430.9z"/>
		</g>
            <polygon class="st9" points="351.5,242.5 351.7,211.8 369.7,208.5 369.5,239.9 		"/>
            <g>
			<path class="st7" d="M348,207l44.3-8.2l-0.2,84.7l-44.6,4.5L348,207z M351.7,211.8l-0.2,30.8l18-2.7l0.1-31.3L351.7,211.8z
				 M369.3,280.3l0.2-36l-18,2.6l-0.2,35.4L369.3,280.3z M372.2,280l15.9-1.7l0.2-73.1l-15.8,2.8L372.2,280z"/>
                <polygon class="st8" points="392.3,198.9 396.8,199.7 396.6,284.1 392.1,283.6 			"/>
                <polygon class="st7" points="347.5,288.1 392.1,283.6 396.6,284.1 352,288.5 			"/>
		</g>
            <polygon class="st9" points="369.5,244.3 369.3,280.3 351.2,282.3 351.5,246.9 		"/>
            <polygon class="st9" points="388.1,278.3 372.2,280 372.5,208 388.3,205.2 		"/>
            <g>
			<g>
				<polygon class="st8" points="542.4,298.1 540.8,163 543.7,162.4 545.3,297.9 				"/>
                <polygon class="st8" points="593.7,303.4 542.4,298.1 545.3,297.9 596.6,303.2 				"/>
                <path class="st7" d="M545.3,297.9l-1.6-135.5l50.8,13.3l2.1,127.4L545.3,297.9z M568,293.7l4.3,0.5l20.6,2.3L591,181.1
					l-20.4-5.2l-4.2-1.1l-18.5-4.7l1.5,121.6L568,293.7z"/>
                <polygon class="st7" points="572.3,294.2 568,293.7 566.3,174.8 570.5,175.9 				"/>
			</g>
                <polygon class="st9" points="572.3,294.2 570.5,175.9 591,181.1 592.9,296.5 			"/>
                <polygon class="st9" points="566.3,174.8 568,293.7 549.3,291.6 547.8,170.1 			"/>
		</g>
            <polygon class="st9" points="279,253.2 279.4,224.7 294.8,221.9 294.4,250.9 		"/>
            <g>
			<path class="st7" d="M276.3,220.3l37.8-7l-0.8,78.2l-38,3.8L276.3,220.3z M279.4,224.7l-0.4,28.5l15.4-2.3l0.3-29L279.4,224.7z
				 M294,288.3l0.4-33.3l-15.4,2.2l-0.4,32.7L294,288.3z M296.5,288.1l13.5-1.4l0.7-67.5l-13.5,2.4L296.5,288.1z"/>
                <polygon class="st8" points="314.1,213.3 318.6,214 317.8,291.9 313.4,291.5 			"/>
                <polygon class="st8" points="275.3,295.4 313.4,291.5 317.8,291.9 279.8,295.7 			"/>
		</g>
            <polygon class="st9" points="294.4,255 294,288.3 278.5,290 279,257.2 		"/>
            <polygon class="st9" points="310,286.6 296.5,288.1 297.2,221.5 310.7,219.1 		"/>
            <polygon class="st9" points="277,409.8 277.4,380.5 292.9,380.4 292.6,410.2 		"/>
            <g>
			<path class="st7" d="M274.2,375.4l38.3-0.4l-0.8,80.6l-38.5-2.9L274.2,375.4z M277.4,380.5l-0.4,29.3l15.6,0.4l0.3-29.9
				L277.4,380.5z M292.1,448.8l0.4-34.3l-15.6-0.5l-0.4,33.7L292.1,448.8z M294.6,449l13.7,1l0.7-69.6l-13.6,0.1L294.6,449z"/>
                <polygon class="st8" points="312.5,374.9 317.1,375 316.3,455.3 311.8,455.6 			"/>
		</g>
            <polygon class="st9" points="292.5,414.5 292.1,448.8 276.5,447.7 276.9,414 		"/>
            <polygon class="st9" points="308.4,449.9 294.6,449 295.4,380.4 309.1,380.3 		"/>
            <polygon class="st9" points="434.1,414.1 434,379.6 455.6,379.5 455.7,414.7 		"/>
            <g>
			<path class="st7" d="M429.6,373.6l53.2-0.6l0.6,95.5l-53.7-4L429.6,373.6z M434,379.6l0.1,34.5l21.6,0.6l-0.1-35.2L434,379.6z
				 M455.9,460.2l-0.1-40.5l-21.7-0.7l0.1,39.7L455.9,460.2z M459.4,460.4l19.2,1.3l-0.5-82.4l-19,0.1L459.4,460.4z"/>
                <polygon class="st8" points="482.8,373 487.3,373.1 487.9,468.1 483.4,468.5 			"/>
		</g>
            <polygon class="st9" points="455.7,419.7 455.9,460.2 434.1,458.7 434.1,419 		"/>
            <polygon class="st9" points="478.5,461.8 459.4,460.4 459,379.5 478.1,379.4 		"/>
            <polygon class="st9" points="433.8,230.4 433.7,197.1 454.9,193.3 455,227.3 		"/>
            <g>
			<path class="st7" d="M429.4,192l52.2-9.6l0.6,92.1l-52.7,5.3L429.4,192z M433.7,197.1l0.1,33.3l21.3-3.1l-0.1-34L433.7,197.1z
				 M455.2,271.2l-0.1-39.1l-21.3,3l0.1,38.3L455.2,271.2z M458.6,270.8l18.8-2l-0.5-79.5l-18.7,3.3L458.6,270.8z"/>
                <polygon class="st8" points="481.6,182.4 486.1,183.4 486.7,275.1 482.2,274.5 			"/>
                <polygon class="st8" points="429.5,279.8 482.2,274.5 486.7,275.1 434,280.3 			"/>
		</g>
            <polygon class="st9" points="455.1,232.1 455.2,271.2 433.8,273.5 433.8,235.1 		"/>
            <polygon class="st9" points="477.4,268.8 458.6,270.8 458.3,192.7 477,189.4 		"/>
	</g>
        <g>
		<polygon class="st0" points="268.7,498.1 279.8,499.5 279.3,533 208.9,521.4 220,520.1 220.3,501.3 250.7,498.3 257.9,499.2 		"/>
            <polygon class="st0" points="200.7,520 144,510.6 154.7,509.5 154.8,507.7 201,503.2 		"/>
            <polygon class="st4" points="521.6,480.4 522.1,530.5 511.3,532.3 510.9,487 499.1,488.4 405.1,499.2 405.1,515.5 405,550
			393.7,551.9 393.8,494.3 		"/>
            <polygon class="st4" points="509.8,479.4 521.6,480.4 393.8,494.3 280,482 291.2,481.1 393.1,491.8 		"/>
            <polygon class="st4" points="262,458.7 269.2,459.3 155.8,466.8 182.2,469.6 220.8,473.6 209.9,474.4 138.2,466.7 		"/>
            <polygon class="st4" points="269.2,459.3 268.7,498.1 257.9,499.2 258.4,464.3 251.2,464.8 182.2,469.6 155.8,466.8 		"/>
            <polygon class="st4" points="510.9,487 511.3,532.3 499.4,530.7 499.4,527.6 499.1,488.4 		"/>
            <polygon class="st0" points="499.4,530.7 511.3,532.3 405,550 405.1,515.5 499.4,527.6 		"/>
            <polygon class="st4" points="257.9,499.2 250.7,498.3 251.2,464.8 258.4,464.3 		"/>
            <polygon class="st4" points="405,550 511.3,532.3 522.1,530.5 522.4,564.5 393.6,591.1 393.7,551.9 		"/>
            <polygon class="st4" points="154.7,509.5 144,510.6 145,472.1 155.6,473.4 154.8,507.7 		"/>
            <polygon class="st4" points="220,520.1 208.9,521.4 209.9,474.4 220.8,473.6 220.3,501.3 		"/>
            <polygon class="st0" points="302.8,502.5 381.7,512.6 381.6,549.9 291.2,535 302.5,533.4 		"/>
            <polygon class="st4" points="302.5,533.4 291.2,535 291.7,488.9 302.9,490.2 302.8,502.5 		"/>
            <polygon class="st4" points="291.7,488.9 291.2,535 381.6,549.9 393.7,551.9 393.6,591.1 278.9,567.6 279.2,542 208.8,529.6
			198.6,530.9 198.4,538.7 189.3,539.9 189.1,547.7 184.4,548.3 136.3,538.5 137.1,509.5 144,510.6 200.7,520 201,503.2
			201.5,478.6 155.6,473.4 145,472.1 144,510.6 137.1,509.5 138.2,466.7 209.9,474.4 208.9,521.4 279.3,533 279.8,499.5 280,482
			393.8,494.3 393.7,551.9 381.6,549.9 381.7,512.6 381.8,499.2 302.9,490.2 		"/>
	</g>
</g>
</svg>
