<?xml version="1.0" encoding="utf-8"?>
<!-- Generator: Adobe Illustrator 25.0.1, SVG Export Plug-In . SVG Version: 6.00 Build 0)  -->
<svg version="1.1" id="katman_1" xmlns="http://www.w3.org/2000/svg" x="0px" y="0px"
     viewBox="0 0 841.9 595.3" style="enable-background:new 0 0 841.9 595.3;" xml:space="preserve">
<style type="text/css">
	.st0{fill:#8F6645;}
	.st1{fill:#EEEEEE;}
	.st2{fill:#DDDDDD;}
	.st3{fill:#3D3A37;}
	.st4{fill:#C4C4C4;}
	.st5{fill:#3D3A37;}
	.st6{fill:#000000;}
	.st7{fill:#FFFFFF;}
	.st8{fill:#888888;}
	.st9{fill:#7884AF;}
</style>

    <g id="chimney">
	<polygon class="st5" points="428,15.2 443.5,20.9 443.5,38.9 428,33.5 		"/>
        <polygon class="st6" points="428,15.2 428,33.5 412.9,38.9 413,20.9 		"/>
        <polygon class="st5" points="449.5,41 449.5,55.9 427.9,60 427.9,33.5 443.5,38.9 		"/>
        <polygon class="st6" points="427.9,33.5 427.9,60 406.2,64.1 406.3,41.3 412.9,38.9 		"/>
</g>


    <g id="roof">
	<polygon class="st3" points="156.3,168.6 166.2,165.6 166.2,166.4 		"/>
        <polygon class="st3" points="531.9,65.6 552.6,61.2 535.4,66.2 532.5,67.3 		"/>
        <g>
		<polygon class="st3" points="397.7,94 413.9,90.6 428.5,94.8 502.3,115.9 525.1,122.4 545.5,128.2 526.4,66.8 531.9,65.6
			532.5,67.3 535.5,76.5 553.3,130.5 552.6,61.2 555.4,60.6 558.2,63.2 558.5,92.3 558.8,132.1 577.9,81.8 582.8,86.5 565.9,134.1
			662.6,161.7 670.7,169.9 			"/>
            <polygon class="st3" points="526.4,66.8 545.5,128.2 525.1,122.4 509.7,73.9 509.1,71.8 			"/>
            <polygon class="st3" points="397.7,94 670.7,169.9 654.1,172.7 632.8,167 531,139.8 392.6,102.7 382.7,100.1 380.2,99.4 			"/>
            <polygon class="st3" points="577.9,81.8 558.8,132.1 558.5,92.3 560.8,86.4 			"/>
            <polygon class="st3" points="535.4,66.2 552.6,61.2 553.3,130.5 535.5,76.5 535.4,66.4 			"/>
	</g>
        <g>
		<polygon class="st3" points="678.2,157.3 678.6,177.9 670.7,169.9 662.6,161.7 582.8,86.5 577.9,81.8 558.2,63.2 555.4,60.6
			552.6,61.2 531.9,65.6 526.4,66.8 413.9,90.6 397.7,94 381,97.6 381.1,68.8 406.2,64.1 427.9,60 449.5,55.9 555.2,35.9 			"/>
            <polygon class="st3" points="381,97.6 126.3,175.6 126.9,154.7 381.1,68.8 			"/>
            <polygon class="st2" points="413.9,90.6 526.4,66.8 509.1,71.8 509.7,73.9 466.8,86.4 428.5,94.8 			"/>
            <polygon class="st2" points="558.2,63.2 577.9,81.8 560.8,86.4 558.5,92.3 			"/>
            <polygon class="st2" points="582.8,86.5 662.6,161.7 565.9,134.1 			"/>
            <polygon class="st2" points="156.3,168.6 126.3,175.6 381,97.6 397.7,94 380.2,99.4 382.7,100.1 324.8,117.6 166.2,165.6 			"/>
            <polygon class="st2" points="324.8,117.6 382.7,100.1 392.6,102.7 			"/>
            <polygon class="st2" points="654.1,172.7 670.7,169.9 678.6,177.9 576.3,194.6 576.1,177.2 632.8,167 			"/>
            <polygon class="st2" points="466.8,86.4 509.7,73.9 525.1,122.4 502.3,115.9 			"/>
            <polygon class="st2" points="532.5,67.3 535.4,66.4 535.5,76.5 			"/>
            <polygon class="st2" points="632.8,167 576.1,177.2 531,139.8 			"/>
	</g>
</g>


    <g id="body">
	<polygon class="st4" points="436.7,493.8 343.7,505.2 344,466.2 436.7,476.1 		"/>
        <polygon class="st4" points="531.8,482 460.1,490.9 460.1,475.9 531.7,468.2 		"/>
        <polygon class="st4" points="572.4,477 553,479.4 552.8,460.5 541.7,459.6 448.9,468.7 333.4,457.5 321.5,458.4 324.8,117.6
		392.6,102.7 531,139.8 576.1,177.2 576.3,194.6 579,438.4 572,439 		"/>
        <polygon class="st0" points="321.5,458.4 321,508 320.7,541.7 158.3,509.4 166.2,166.4 166.2,165.6 324.8,117.6 		"/>
        <polygon class="st4" points="428.5,94.8 466.8,86.4 502.3,115.9 		"/>
</g>


    <g id="left-window">
	<g>
		<g>
			<polygon class="st8" points="296.9,393.6 297.4,353.9 300.7,354 300.3,393.5 				"/>
            <path class="st7" d="M297.4,353.9l-0.5,39.6l-34.7-0.8l0.6-37.9L297.4,353.9z M295.7,356.7l-31.4,0.7l-0.5,32.7l31.5,0.6
				L295.7,356.7z"/>
		</g>
        <polygon class="st9" points="264.2,357.4 295.7,356.7 295.3,390.8 263.8,390.1 			"/>
	</g>
        <g>
		<polygon class="st9" points="174.2,361.5 210.7,360.8 210.3,382.2 173.7,381.8 			"/>
            <polygon class="st9" points="209.2,441 172.5,437.6 173.5,389.9 210.2,390.8 			"/>
            <g>
			<path class="st7" d="M170.9,354.8l43.8-1.3l-1.8,95l-44-4.5L170.9,354.8z M210.7,360.8l-36.5,0.7l-0.4,20.3l-0.2,8.2l-1.1,47.6
				l36.7,3.4l1-50.2l0.2-8.6L210.7,360.8z"/>
                <polygon class="st8" points="219.6,353.7 217.8,448.3 212.9,448.6 214.7,353.6 				"/>
                <polygon class="st7" points="173.5,389.9 173.7,381.8 210.3,382.2 210.2,390.8 				"/>
		</g>
	</g>
</g>


    <g>
	<g>
		<polygon class="st2" points="634.3,517 643.3,518.1 572.9,531.4 563.7,530.1 		"/>
        <polygon class="st4" points="563.7,530.1 572.9,531.4 573,539.9 582.8,541.4 582.9,550.4 553.6,545.7 553.3,520.2 563.6,521.6
			"/>
        <polygon class="st4" points="582.9,550.4 582.8,541.4 652.9,527.1 653,535.4 		"/>
        <polygon class="st4" points="643.3,518.1 643.4,525.9 573,539.9 572.9,531.4 		"/>
        <polygon class="st0" points="582.8,541.4 573,539.9 643.4,525.9 648.7,526.6 652.9,527.1 		"/>
        <polygon class="st0" points="553.3,520.2 624.1,508.1 634.2,509.3 563.6,521.6 		"/>
        <polygon class="st4" points="563.7,530.1 563.6,521.6 634.2,509.3 634.3,517 		"/>
	</g>

        <g>
		<g>
			<polygon class="st9" points="531.1,391.5 530.9,362.1 546.6,362.3 546.8,391.2 			"/>
            <g>
				<polygon class="st8" points="523.2,356.9 527.5,356.9 528.1,435 523.7,434.7 				"/>
                <path class="st7" d="M527.5,356.9l37.2,0.8l0.7,74.8l-37.4,2.6L527.5,356.9z M530.9,362.1l0.2,29.4l15.7-0.3l-0.2-28.9
					L530.9,362.1z M547.1,428.5l-0.3-33.2l-15.7,0.4l0.2,33.8L547.1,428.5z M549.5,428.4l12.8-0.8l-0.6-65l-12.7-0.2L549.5,428.4z"
                />
			</g>
            <polygon class="st9" points="546.8,395.3 547.1,428.5 531.4,429.5 531.1,395.7 			"/>
            <polygon class="st9" points="562.3,427.5 549.5,428.4 549,362.4 561.7,362.5 			"/>
		</g>
            <g>
			<polygon class="st9" points="177.8,200.4 214,191.2 213.6,212 177.3,220.1 			"/>
                <polygon class="st9" points="212.5,269.2 176.1,274.5 177.1,228.1 213.4,220.3 			"/>
                <g>"
				<path class="st7" d="M174.5,194.7l43.4-11.4l-1.8,92.4l-43.6,5.9L174.5,194.7z M214,191.2l-36.2,9.2l-0.4,19.7l-0.2,7.9l-1,46.4
					l36.4-5.3l0.9-48.8l0.2-8.3L214,191.2z"/>
                    <polygon class="st8" points="177.3,282 172.6,281.6 216.2,275.7 221,276.1 				"/>
                    <polygon class="st8" points="222.7,184.1 221,276.1 216.2,275.7 217.9,183.3 				"/>
                    <polygon class="st7" points="177.1,228.1 177.3,220.1 213.6,212 213.4,220.3 				"/>
			</g>
		</g>
            <g>
			<polygon class="st9" points="366.6,207.8 366.8,173.8 388.5,178.1 388.4,211.4 			"/>
                <g>
				<polygon class="st8" points="357.9,168 362.2,167 361.6,257.2 357.2,257.8 				"/>
                    <path class="st7" d="M362.2,167l51.5,10.3l-0.2,85.8l-51.9-5.9L362.2,167z M366.8,173.8l-0.2,34l21.8,3.5l0.2-33.3L366.8,173.8z
					 M388.2,254.3l0.2-38.2l-21.8-3.4l-0.3,39.1L388.2,254.3z M391.5,254.7l17.7,2.1l0.2-74.7l-17.6-3.4L391.5,254.7z"/>
                    <polygon class="st8" points="361.6,257.2 413.4,263.1 409.1,263.6 357.2,257.8 				"/>
			</g>
                <polygon class="st9" points="388.4,216.1 388.2,254.3 366.3,251.7 366.5,212.7 			"/>
                <polygon class="st9" points="409.2,256.8 391.5,254.7 391.9,178.7 409.4,182.1 			"/>
		</g>
            <g>
			<polygon class="st9" points="448.2,407.9 448.2,324.2 473.9,325.6 474.1,407 			"/>
                <path class="st8" d="M443.9,493.6l0-180l51.3,3.3l0.4,87.6l-1.3,0l-3.1-0.1l-2.1,0.1l0,10.1l2.4,0.1l2.1-0.1l0-5.3l2-0.1
				l0.3,77.9L443.9,493.6z M448.2,324.2l0,83.7l25.9-0.9l-0.2-81.4L448.2,324.2z"/>
                <g>
				<polygon class="st8" points="500.1,404.3 500.1,409 495.6,409.1 493.7,409.2 493.6,404.5 				"/>
                    <polygon class="st7" points="500.1,486.6 496,487.1 495.6,409.1 499.7,409 				"/>
                    <polygon class="st7" points="499.3,308.8 499.7,404.3 498.8,404.3 495.6,404.4 495.2,316.8 444,313.5 443.9,493.6 439.3,494.1
					439.4,304.4 				"/>
                    <polygon class="st8" points="439.4,304.4 439.3,494.1 434.3,493.5 434.4,304.8 				"/>
                    <polygon class="st8" points="491.3,404.3 494.3,404.4 495.6,404.4 498.8,404.3 499.7,404.3 493.6,404.5 489.2,404.4 				"/>
                    <polygon class="st8" points="489.3,414.5 489.2,404.4 493.6,404.5 493.6,409.2 491.6,409.1 491.6,414.6 				"/>
                    <polygon class="st8" points="491.6,414.6 491.6,409.1 493.6,409.2 493.7,414.5 				"/>
			</g>
		</g>
            <g>
			<polygon class="st9" points="365.3,394.8 365.6,359.7 387.7,360.1 387.5,394.4 			"/>
                <g>
				<polygon class="st8" points="356.5,353.6 360.9,353.5 360.3,446.6 355.9,446.2 				"/>
                    <path class="st7" d="M360.9,353.5l52.3,1.1l-0.2,88.4l-52.7,3.7L360.9,353.5z M365.6,359.7l-0.2,35.1l22.2-0.4l0.2-34.3
					L365.6,359.7z M387.3,438.6l0.2-39.4l-22.2,0.5l-0.3,40.3L387.3,438.6z M390.7,438.4l17.9-1.1l0.2-76.9l-17.8-0.3L390.7,438.4z"
                    />
			</g>
                <polygon class="st9" points="387.5,399.2 387.3,438.6 365.1,440 365.3,399.8 			"/>
                <polygon class="st9" points="408.7,437.3 390.7,438.4 391.1,360.1 408.9,360.4 			"/>
		</g>
            <g>
			<g>
				<polygon class="st8" points="299.2,203.6 299.6,165.1 303,165.8 302.5,204.1 				"/>
                <path class="st7" d="M299.6,165.1l-0.5,38.4l-34.2,7.2l0.5-36.8L299.6,165.1z M298,168.2l-31.1,7.9l-0.5,31.7l31.1-6.7
					L298,168.2z"/>
                <polygon class="st7" points="299.2,203.6 302.5,204.1 268.2,211.3 264.9,210.8 				"/>
			</g>
                <polygon class="st9" points="266.9,176.2 298,168.2 297.6,201.2 266.5,207.9 			"/>
		</g>
            <g>
			<polygon class="st9" points="456.6,222.4 456.6,191.3 474.7,194.8 474.8,225.3 			"/>
                <g>
				<polygon class="st8" points="448.3,185.9 452.7,185.1 452.7,267.5 448.4,268 				"/>
                    <path class="st7" d="M452.7,185.1l43.1,8.6l0.3,78.7l-43.3-4.9L452.7,185.1z M456.6,191.3l0,31.1l18.2,2.9l-0.1-30.5
					L456.6,191.3z M474.9,264.6l-0.1-35l-18.2-2.9l0,35.7L474.9,264.6z M477.7,265l14.8,1.8l-0.3-68.5l-14.7-2.9L477.7,265z"/>
                    <polygon class="st8" points="452.7,267.5 496.1,272.4 491.7,272.9 448.4,268 				"/>
			</g>
                <polygon class="st9" points="474.8,229.6 474.9,264.6 456.6,262.5 456.6,226.8 			"/>
                <polygon class="st9" points="492.5,266.7 477.7,265 477.5,195.4 492.2,198.2 			"/>
		</g>
            <g>
			<polygon class="st9" points="530,234.2 529.8,205.5 545.3,208.5 545.5,236.7 			"/>
                <g>
				<polygon class="st8" points="522.2,200.6 526.5,199.8 527,275.9 522.6,276.3 				"/>
                    <path class="st7" d="M526.5,199.8l36.7,7.4l0.7,72.9l-36.9-4.2L526.5,199.8z M529.8,205.5l0.2,28.7l15.5,2.5l-0.2-28.2
					L529.8,205.5z M545.8,273l-0.3-32.3l-15.5-2.4l0.2,32.9L545.8,273z M548.2,273.3l12.6,1.5l-0.6-63.4l-12.6-2.4L548.2,273.3z"/>
                    <polygon class="st8" points="527,275.9 563.9,280.1 559.6,280.5 522.6,276.3 				"/>
			</g>
                <polygon class="st9" points="545.5,240.7 545.8,273 530.3,271.2 530,238.3 			"/>
                <polygon class="st9" points="560.8,274.8 548.2,273.3 547.6,209 560.2,211.4 			"/>
		</g>
	</g>
        <g>
		<polygon class="st4" points="343.7,508.2 331.6,509.7 332,464.9 344,466.2 343.7,505.2 		"/>
            <polygon class="st4" points="543.2,512.9 532,511.4 531.8,482 531.7,468.2 542.8,467 		"/>
            <polygon class="st0" points="343.7,505.2 436.7,493.8 436.7,526.4 331.6,509.7 343.7,508.2 		"/>
            <polygon class="st0" points="543.2,512.9 460.2,526.2 460.1,490.9 531.8,482 532,511.4 		"/>
            <polygon class="st0" points="624,499.9 553.2,511.3 553,479.4 572.4,477 582.9,478 589.9,477.1 612.8,479.3 613.1,498.7 		"/>
            <polygon class="st4" points="331.9,464.7 331.5,509.5 320.8,507.8 321.3,458.2 447.8,470.9 447.8,528 436.5,526.2 436.5,493.5
			436.6,475.9 343.8,466 		"/>
            <polygon class="st0" points="331.5,509.5 436.5,526.2 447.8,528 447.8,566.8 320.5,541.5 320.8,507.8 		"/>
            <polygon class="st4" points="447.8,566.8 447.8,528 460,526 543,512.7 542.6,466.8 531.5,468 459.9,475.7 459.9,490.7 460,526
			447.8,528 447.8,470.9 552.6,460.3 552.8,479.2 553.1,511.1 623.8,499.7 623.1,453.1 700.3,445.3 701.2,487.3 694.6,488.3
			693.8,450.6 683.4,451.7 633,457.1 633.3,481 633.6,498.1 694.6,488.3 701.2,487.3 701.8,515.7 648.6,526.4 643.2,525.7
			643.1,517.9 634.1,516.8 634,509.1 623.9,507.9 553.1,520 553.4,545.5 		"/>
            <polygon class="st4" points="571.8,438.8 578.8,438.2 700.3,445.3 623.1,453.1 612.3,452.4 655.2,448.1 683.2,445.4 		"/>
            <polygon class="st4" points="572.2,476.8 571.8,438.8 683.2,445.4 655.2,448.1 589.4,444 582.4,443.6 582.8,477.8 		"/>
            <polygon class="st4" points="321.3,458.2 333.3,457.3 448.7,468.5 541.5,459.4 552.6,460.3 447.8,470.9 		"/>
            <polygon class="st4" points="582.8,477.8 582.4,443.6 589.4,444 589.8,476.9 		"/>
            <polygon class="st4" points="623.8,499.7 612.9,498.5 612.6,479.1 612.3,452.4 623.1,453.1 		"/>
            <polygon class="st0" points="694.6,488.3 633.6,498.1 633.3,481 684,485.7 684,487.3 		"/>
            <polygon class="st0" points="694.6,488.3 684,487.3 684,485.7 683.4,451.7 693.8,450.6 		"/>
	</g>
</g>
</svg>
