<?xml version="1.0" encoding="utf-8"?>
<!-- Generator: Adobe Illustrator 25.0.1, SVG Export Plug-In . SVG Version: 6.00 Build 0)  -->
<svg version="1.1" id="katman_1" xmlns="http://www.w3.org/2000/svg" x="0px" y="0px"
     viewBox="0 0 841.9 595.3" style="enable-background:new 0 0 841.9 595.3;" xml:space="preserve">
<style type="text/css">
	.st0{fill:#8F6645;}
	.st1{fill:#EEEEEE;}
	.st2{fill:#DDDDDD;}
	.st3{fill:#3D3A37;}
	.st4{fill:#C4C4C4;}
	.st5{fill:#3D3A37;}
	.st6{fill:#000000;}
	.st7{fill:#FFFFFF;}
	.st8{fill:#888888;}
	.st9{fill:#7884AF;}
</style>


    <g id="body">
	<g>
		<polygon class="st0" points="444.1,123 137.5,192.8 131.8,484.1 445.7,532.5 				"/>
        <polygon class="st4" points="593.3,155.3 444.1,123 445.7,532.5 598.7,510 595.9,329.5 595.8,323.8 595.2,283.7 				"/>
        <polygon class="st4" points="595.2,283.7 595.8,323.8 671.3,327.2 670.5,290.1 				"/>
        <polygon class="st4" points="595.9,329.5 671.3,327.2 595.8,323.8 				"/>
	</g>
</g>


    <g id="roof">
	<polygon class="st3" points="255.4,112 137.5,192.8 444.1,123 427.1,62.5 				"/>
        <polygon class="st3" points="427.1,62.5 444.1,123 593.3,155.3 				"/>
</g>


    <g id="right-window">
	<g>
		<g>
			<polygon class="st7" points="506.9,163.3 516.5,160.9 512,161.6 502.4,164.1 				"/>
            <path class="st7" d="M526.4,162.4l9.4,5.3l8.4,8.7l6.9,11.4l5,13.4l2.8,14.6l0.4,14.8l-2,14.1l-4.3,12.6l-6.4,10.3l-8.1,7.2
				l-9.3,3.6l-9.9-0.4l-9.9-4.4l-9.1-8.3l-7.6-11.6l-5.6-14.1l-3.1-15.6l-0.4-15.9l2.4-15l5-13l7.1-10.1l8.7-6.5l9.6-2.5
				L526.4,162.4z M525.8,172l-8.2-1.2l-8,2.1l-7.2,5.4l20.7,31.5l17.5-26.3l-7-7.2L525.8,172z M528.2,268.4l7.7-2.9l6.7-5.9
				l5.3-8.5l3.6-10.5l1.7-11.8l-0.3-12.4l-2.3-12.2l-4.2-11.2l-42.2,64.2l7.5,6.9l8.2,3.8L528.2,268.4z M490.9,223.1l2.5,12.9
				l4.6,11.7l18.2-27.3l-20.3-31.7l-3.3,8.7l-2,12.4L490.9,223.1z"/>
            <polygon class="st8" points="506.9,163.3 502.4,164.1 493.7,170.5 498.2,169.8 				"/>
            <polygon class="st8" points="493.7,170.5 486.6,180.6 491.1,179.9 498.2,169.8 				"/>
            <polygon class="st8" points="486.6,180.6 481.6,193.5 486.1,192.9 491.1,179.9 				"/>
            <polygon class="st8" points="486.1,192.9 481.6,193.5 479.2,208.5 483.7,207.9 				"/>
            <polygon class="st8" points="479.2,208.5 479.5,224.4 484.1,223.8 483.7,207.9 				"/>
            <polygon class="st8" points="479.5,224.4 482.6,240 487.2,239.5 484.1,223.8 				"/>
            <polygon class="st8" points="482.6,240 488.2,254.1 492.8,253.6 487.2,239.5 				"/>
            <polygon class="st8" points="488.2,254.1 495.9,265.6 500.4,265.3 492.8,253.6 				"/>
            <polygon class="st8" points="495.9,265.6 504.9,273.9 509.5,273.6 500.4,265.3 				"/>
            <polygon class="st8" points="504.9,273.9 514.8,278.3 519.4,278 509.5,273.6 				"/>
            <polygon class="st8" points="514.8,278.3 524.7,278.7 529.3,278.4 519.4,278 				"/>
		</g>
        <polygon class="st9" points="540.7,183.6 533.7,176.4 525.8,172 517.6,170.8 509.6,173 502.5,178.4 523.2,209.9 			"/>
        <polygon class="st9" points="511.8,264.3 520,268 528.2,268.4 535.9,265.5 542.7,259.6 548,251.1 551.6,240.6 553.3,228.8
			553,216.5 550.7,204.3 546.5,193.1 504.3,257.4 			"/>
        <polygon class="st9" points="492.5,197.5 490.6,210 490.9,223.1 493.4,236 498,247.7 516.2,220.5 495.8,188.8 			"/>
	</g>
        <g>
		<g>
			<polygon class="st8" points="510.7,332 520.4,327.8 515.8,327.9 506.1,332.1 				"/>
            <path class="st7" d="M530.3,327.7l9.5,3.9l8.5,7.5l6.9,10.6l5,12.9l2.8,14.5l0.4,15.1l-2,14.8l-4.3,13.7l-6.4,11.6l-8.1,8.8
				l-9.4,5.3l-10,1.3l-9.9-2.9l-9.2-6.9l-7.7-10.6l-5.6-13.6l-3.1-15.5l-0.4-16.3l2.4-15.8l5-14.2l7.2-11.5l8.8-8.1l9.7-4.2
				L530.3,327.7z M529.7,337.7l-8.3,0.2l-8,3.6l-7.2,6.8l20.9,28.8l17.6-30l-7.1-6.2L529.7,337.7z M532.2,436.2l7.8-4.3l6.8-7.2
				l5.4-9.6l3.6-11.4l1.7-12.4l-0.3-12.6l-2.3-12.1l-4.2-10.8L508.1,429l7.6,5.8l8.2,2.4L532.2,436.2z M494.6,396.1l2.6,12.8
				l4.6,11.2l18.3-31.1l-20.5-29l-3.3,9.5l-2,13.1L494.6,396.1z"/>
            <polygon class="st8" points="510.7,332 506.1,332.1 497.3,340.2 501.9,340.1 				"/>
            <polygon class="st8" points="497.3,340.2 490.2,351.7 494.8,351.7 501.9,340.1 				"/>
            <polygon class="st8" points="490.2,351.7 485.2,365.8 489.8,365.9 494.8,351.7 				"/>
            <polygon class="st8" points="489.8,365.9 485.2,365.8 482.7,381.6 487.3,381.7 				"/>
            <polygon class="st8" points="482.7,381.6 483.1,397.8 487.7,398 487.3,381.7 				"/>
            <polygon class="st8" points="483.1,397.8 486.2,413.3 490.8,413.6 487.7,398 				"/>
            <polygon class="st8" points="486.2,413.3 491.8,426.8 496.5,427.1 490.8,413.6 				"/>
            <polygon class="st8" points="491.8,426.8 499.6,437.4 504.2,437.7 496.5,427.1 				"/>
            <polygon class="st8" points="499.6,437.4 508.7,444.3 513.4,444.7 504.2,437.7 				"/>
            <polygon class="st8" points="508.7,444.3 518.7,447.1 523.3,447.6 513.4,444.7 				"/>
		</g>
            <polygon class="st9" points="544.7,347 537.7,340.9 529.7,337.7 521.5,337.9 513.4,341.4 506.2,348.2 527.1,377 			"/>
            <polygon class="st9" points="515.7,434.8 523.9,437.2 532.2,436.2 540,431.9 546.7,424.7 552.1,415.1 555.7,403.7 557.4,391.3
				557.1,378.7 554.8,366.6 550.6,355.8 508.1,429 			"/>
            <polygon class="st9" points="496.2,369.6 494.2,382.7 494.6,396.1 497.1,408.9 501.8,420.2 520,389.1 499.6,360 			"/>
	</g>
</g>


    <g id="chimney">
	<polygon class="st5" points="257.6,63.1 262,64.1 262,61.5 			"/>
        <polygon class="st5" points="251.8,49.4 257.6,63.1 262,61.5 262,64.1 261.3,127.4 265.1,126.3 265.7,60.2 269.8,58.8
			276.2,40.4 270.1,26.6 258,31.3 			"/>
        <polygon class="st6" points="265.1,126.3 272,123 272.5,61.9 265.7,60.2 			"/>
        <polygon class="st6" points="265.7,60.2 272.5,61.9 276.6,60.4 269.8,58.8 			"/>
        <polygon class="st6" points="269.8,58.8 276.6,60.4 283,42.1 276.2,40.4 			"/>
        <polygon class="st6" points="276.2,40.4 283,42.1 276.9,28.4 270.1,26.6 			"/>
</g>


    <g>
	<g>
		<polygon class="st7" points="365.7,328.3 362.7,327.7 365.2,328.3 		"/>
        <polygon class="st7" points="356.5,327 353.4,326.8 356,326.9 		"/>
        <polygon class="st7" points="362.7,327.7 359.6,327.2 362.2,327.7 		"/>
        <polygon class="st7" points="359.6,327.2 356.5,327 359.1,327.2 		"/>
        <g>
			<polygon class="st9" points="350.7,374.8 350.4,491.8 384.2,497.2 384.8,375.5 351.2,374.4 			"/>
            <path class="st7" d="M391.6,370.2l0.1,133.3l-46.9-7.1l0.4-127L391.6,370.2z M385.3,497.8V374.7l-35.3-0.8l-0.3,118.7
				L385.3,497.8z"/>
            <polygon class="st7" points="341.9,496.4 344.8,496.8 345.2,369.4 342.3,369.3 341.9,496 			"/>
            <path class="st7" d="M300.2,368.6l42.2,0.7L341.9,496l-42.5-6.4L300.2,368.6z M337,490.7l0.4-117.1l-32-0.7l-0.7,113L337,490.7z
				"/>
            <polygon class="st9" points="299.8,366 392,367.3 391.9,365 391.6,362.6 391.1,360.3 390.4,358 389.6,355.8 388.5,353.6
				387.2,351.4 385.8,349.4 384.2,347.4 382.4,345.5 380.5,343.7 378.4,341.9 376.2,340.3 373.9,338.9 371.5,337.5 369,336.3
				366.3,335.1 363.7,334.2 360.9,333.3 358.1,332.6 355.2,332.1 352.3,331.6 349.5,331.4 346.7,331.2 343.9,331.2 341.1,331.4
				338.2,331.6 335.4,332 332.6,332.6 329.9,333.3 327.3,334.1 324.7,335 322.3,336 319.9,337.2 317.6,338.4 315.4,339.8
				313.4,341.2 311.5,342.8 309.7,344.4 308,346.1 306.5,347.9 305.2,349.7 303.9,351.6 302.9,353.6 302,355.6 301.2,357.6
				300.6,359.7 300.2,361.8 299.9,363.9 			"/>
            <polygon class="st9" points="306,373.8 305.3,485.3 336,490.2 337,374.5 306.5,373.4 			"/>
            <path class="st7" d="M378.5,338.6l2.3,1.7l2.2,1.8l2.1,1.9l1.9,2l1.7,2.1l1.5,2.2l1.4,2.3l1.2,2.4l1,2.4l0.7,2.4l0.5,2.5
				l0.3,2.5l0.1,2.5l0.1,139.7l-99.6-15.4l0.9-125.7l0.1-2.3l0.3-2.2l0.5-2.2l0.6-2.2l0.8-2.2l1-2.1l1.1-2.1l1.3-2l1.4-2l1.6-1.9
				l1.7-1.8l1.9-1.7l2-1.6l2.2-1.5l2.3-1.4l2.4-1.3l2.5-1.2l2.6-1.1l2.7-1l2.8-0.9l2.9-0.7l2.9-0.6l3-0.5l3-0.3l3.1-0.2l3.1,0
				l3.1,0.1l3.1,0.3l3.1,0.4l3,0.6l3,0.7l2.9,0.9l2.9,1l2.8,1.2l2.7,1.3l2.6,1.4L378.5,338.6z M392.1,503.6l-0.1-133.8l0-2.5
				l-0.1-2.3l-0.3-2.3l-0.5-2.3l-0.7-2.3l-0.9-2.2l-1.1-2.2l-1.3-2.1l-1.4-2.1l-1.6-2l-1.8-1.9l-1.9-1.8l-2.1-1.7l-2.2-1.6l-2.3-1.5
				l-2.4-1.4l-2.5-1.2l-2.6-1.1l-2.7-1l-2.8-0.8l-2.8-0.7l-2.9-0.6l-2.9-0.4l-2.9-0.3l-2.9-0.1h-2.9l-2.9,0.1l-2.9,0.3l-2.8,0.4
				l-2.8,0.5l-2.7,0.7L327,334l-2.6,0.9l-2.5,1l-2.4,1.1l-2.3,1.3l-2.2,1.4l-2,1.5l-1.9,1.5l-1.8,1.6l-1.7,1.7l-1.5,1.8l-1.4,1.8
				l-1.2,1.9l-1.1,2l-0.9,2l-0.8,2l-0.6,2.1l-0.4,2.1l-0.3,2.1l-0.1,2.1l92.5,1.3l-0.4,2.4l-47.4-0.8l-1,0l-43-0.7l-0.7,0
				l-0.8,121.6l93.4,14.2V503.6z"/>
		</g>
        <g>
			<polygon class="st9" points="201.1,370.1 199.6,468.1 223.2,471.9 224.9,370.6 201.4,369.7 			"/>
            <path class="st7" d="M229.7,366.1L228.3,477l-32.7-5l1.6-106.4L229.7,366.1z M224,472.4l1.3-102.5l-24.7-0.5l-1.4,99.4
				L224,472.4z"/>
            <polygon class="st7" points="193.6,472.1 195.7,472.4 197.2,365.6 195.2,365.5 193.6,471.7 			"/>
            <path class="st7" d="M165.3,365l29.9,0.5l-1.6,106.2l-30.1-4.6L165.3,365z M190.2,467.4l1.5-98.3l-22.8-0.5l-1.6,95.4
				L190.2,467.4z"/>
            <polygon class="st9" points="165.1,362.8 230,363.7 229.9,361.8 229.8,359.8 229.4,357.9 229,356 228.4,354.1 227.6,352.3
				226.8,350.5 225.8,348.8 224.7,347.1 223.5,345.5 222.2,344 220.8,342.6 219.3,341.2 217.7,340 216,338.8 214.2,337.8
				212.4,336.9 210.5,336 208.6,335.3 206.6,334.7 204.6,334.2 202.6,333.9 200.6,333.6 198.6,333.5 196.8,333.5 194.7,333.6
				192.7,333.8 190.7,334.2 188.8,334.6 186.8,335.2 185,335.8 183.1,336.6 181.4,337.5 179.7,338.4 178,339.5 176.5,340.6
				175,341.9 173.6,343.1 172.3,344.5 171.1,346 170,347.5 169,349 168.2,350.6 167.4,352.3 166.7,354 166.1,355.7 165.7,357.5
				165.4,359.2 165.2,361 			"/>
            <polygon class="st9" points="169.4,369.4 167.8,463.4 189.5,466.9 191.4,369.8 169.8,369 			"/>
            <path class="st7" d="M220.8,339.8l1.6,1.4l1.5,1.5l1.4,1.6l1.3,1.7l1.2,1.8l1,1.8l0.9,1.9l0.8,2l0.6,2l0.5,2l0.3,2.1l0.2,2.1
				l0.1,2.1l-1.4,116.1L161,469l1.9-106.2l0.1-1.9l0.2-1.9l0.3-1.9l0.5-1.9l0.6-1.8l0.7-1.8l0.8-1.8l0.9-1.7l1.1-1.7l1.2-1.6
				l1.3-1.5l1.4-1.5l1.5-1.4l1.6-1.3l1.7-1.2l1.7-1.1l1.8-1l1.9-0.9l1.9-0.8l2-0.7l2-0.6l2.1-0.5l2.1-0.4l2.1-0.2l2.2-0.1l2.2,0
				l2.2,0.1l2.2,0.3l2.2,0.4l2.1,0.5l2.1,0.6l2.1,0.8l2,0.9l1.9,1l1.9,1.1l1.8,1.2L220.8,339.8z M228.6,477l1.4-111.2l0-2l0-1.9
				l-0.2-2l-0.3-1.9L229,356l-0.6-1.9l-0.7-1.8l-0.9-1.8l-1-1.7l-1.1-1.7l-1.2-1.6l-1.3-1.5l-1.4-1.4l-1.5-1.3l-1.6-1.2l-1.7-1.2
				l-1.8-1l-1.8-0.9l-1.9-0.8l-1.9-0.7l-2-0.6l-2-0.5l-2-0.4l-2-0.2l-2-0.1l-2,0l-2,0.1l-2,0.2l-2,0.3l-2,0.5l-1.9,0.6l-1.9,0.7
				l-1.8,0.8l-1.8,0.9l-1.7,1l-1.6,1.1l-1.5,1.1l-1.5,1.2l-1.4,1.3l-1.3,1.4l-1.2,1.4l-1.1,1.5l-1,1.6l-0.9,1.6l-0.8,1.7l-0.7,1.7
				l-0.6,1.7l-0.4,1.8l-0.3,1.8l-0.2,1.8l-0.1,1.8l65.2,0.9l-0.2,2l-33.2-0.5l-0.7,0l-31.1-0.5L163,467.4l65.6,10V477z"/>
		</g>
        <polygon class="st7" points="172.1,302.2 173.5,302.1 172,302 170.5,302.1 		"/>
        <polygon class="st7" points="225.6,298.7 227.6,298.6 226,298.5 224,298.6 		"/>
        <polygon class="st7" points="196.6,300.6 202.7,300.2 201.1,300.1 195.1,300.5 		"/>
        <g>
			<polygon class="st9" points="175,217.2 173.5,302.1 196.6,300.6 195.1,300.5 196.4,213.4 			"/>
            <polygon class="st9" points="202.7,300.2 225.6,298.7 224,298.6 225.2,208.3 204,212.1 			"/>
            <g>
				<polygon class="st8" points="173.5,302.1 175,217.2 173.4,217 172,302 				"/>
                <polygon class="st7" points="175,217.2 196.4,213.4 173.4,217 				"/>
                <polygon class="st8" points="227.6,298.6 228.8,203.5 227.2,203.3 226,298.5 				"/>
                <polygon class="st7" points="202.7,300.2 204,212.1 202.4,211.9 201.1,300.1 				"/>
                <polygon class="st8" points="204,212.1 225.2,208.3 202.4,211.9 				"/>
                <polygon class="st7" points="173.4,217 196.4,213 195.1,300.5 201.1,300.1 202.4,211.9 225.2,207.9 224,298.6 226,298.5
					227.2,203.3 172,213.3 170.5,302.1 172,302 				"/>
			</g>
		</g>
        <g>
			<polygon class="st8" points="315,295.7 315.6,195.7 314,195.5 313.4,295.7 			"/>
            <polygon class="st9" points="315.6,195.7 315,295.7 347.4,293.6 345.7,293.6 346.1,190.3 			"/>
            <polygon class="st8" points="391.3,290.8 391.4,177.3 389.7,177.1 389.7,290.7 			"/>
            <polygon class="st7" points="313,295.9 315,295.7 313.4,295.7 311.3,295.8 			"/>
            <polygon class="st7" points="388.5,291 391.3,290.8 389.7,290.7 386.9,290.9 			"/>
            <polygon class="st9" points="356,293.1 388.5,291 386.9,290.9 386.9,183.2 356.3,188.5 			"/>
            <polygon class="st7" points="356,293.1 356.3,188.5 354.6,188.3 354.3,293 			"/>
            <polygon class="st7" points="347.4,293.6 356,293.1 354.3,293 345.7,293.6 			"/>
            <polygon class="st7" points="314,195.5 346.1,189.8 345.7,293.6 354.3,293 354.6,188.3 386.9,182.6 386.9,290.9 389.7,290.7
				389.7,177.1 312,191.1 311.3,295.8 313.4,295.7 			"/>
		</g>
	</g>
</g>
</svg>
