<?xml version="1.0" encoding="utf-8"?>
<!-- Generator: Adobe Illustrator 25.0.1, SVG Export Plug-In . SVG Version: 6.00 Build 0)  -->
<svg version="1.1" id="katman_1" xmlns="http://www.w3.org/2000/svg" x="0px" y="0px"
     viewBox="0 0 841.9 595.3" style="enable-background:new 0 0 841.9 595.3;" xml:space="preserve">
<style type="text/css">
	.st0{fill:#8F6645;}
	.st1{fill:#EEEEEE;}
	.st2{fill:#DDDDDD;}
	.st3{fill:#3D3A37;}
	.st4{fill:#C4C4C4;}
	.st5{fill:#3D3A37;}
	.st6{fill:#000000;}
	.st7{fill:#FFFFFF;}
	.st8{fill:#888888;}
	.st9{fill:#7884AF;}
</style>

    <g id="body">
	<polygon class="st4" points="204.2,333.9 203.9,369.5 276.7,372.7 276.9,334.3 		"/>
        <polygon class="st4" points="275.8,548.7 420.6,581.3 421.2,193.3 277.6,210.6 276.9,333.6 276.9,334.3 276.7,372.7 		"/>
        <polygon class="st0" points="421.2,193.3 420.6,581.3 717.9,510.1 716,231.2 		"/>
</g>


    <g id="roof">
	<polygon class="st3" points="413.8,114.3 277.8,211.1 421.3,193.7 		"/>
        <polygon class="st3" points="586.7,149.3 413.8,114.3 421.3,193.7 716.1,231.7 		"/>
</g>


    <g id="chimney">
	<polygon class="st6" points="451.3,13.1 444.2,15 435.5,31.9 442.6,30 		"/>
        <polygon class="st6" points="435.5,31.9 444.2,53.6 451.3,51.9 442.6,30 		"/>
        <polygon class="st6" points="451.3,51.9 444.2,53.6 450.4,55.2 457.6,53.6 		"/>
        <polygon class="st5" points="442.6,30 451.3,51.9 457.6,53.6 457.5,132.9 462.7,133.8 462.7,57.6 462.7,54.9 468.3,56.4
		476.5,39.6 468.3,18.1 451.3,13.1 		"/>
        <polygon class="st6" points="450.4,129.5 457.5,132.9 457.6,53.6 450.4,55.2 		"/>
        <polygon class="st6" points="462.7,57.6 468.3,56.4 462.7,54.9 		"/>
</g>

    <g id="left-window">
	<polygon class="st9" points="381.2,454.9 311.7,446.5 311.5,496.6 381.1,508.4 		"/>
        <polygon class="st9" points="311.7,440 381.3,447.9 381.3,436.6 311.8,429.3 		"/>
        <g>
		<polygon class="st8" points="391.1,433.3 308.4,425.1 305.7,425.3 388.3,433.6 			"/>
            <polygon class="st8" points="390.9,512.9 391.1,433.3 388.3,433.6 388.1,513.3 			"/>
            <path class="st7" d="M388.1,513.3L305.3,499l0.4-73.7l82.6,8.3L388.1,513.3z M311.5,496.6l69.6,11.8l0.2-53.5l-69.5-8.4
			L311.5,496.6z M381.3,436.6l-69.5-7.2l0,10.6l69.5,8L381.3,436.6z"/>
	</g>
</g>


    <g>
	<g>
		<polygon class="st7" points="556.7,251.5 557,351.9 558.6,352 558.4,251.4 		"/>
        <polygon class="st9" points="557,351.9 556.7,251.5 528.9,249.4 529,352.8 		"/>
        <polygon class="st7" points="481.6,240.6 481.6,354.2 483.2,354.2 483.2,240.5 		"/>
        <polygon class="st9" points="485.6,354.1 518.9,353.1 518.8,248.6 485.6,246 		"/>
        <polygon class="st7" points="518.8,248.6 518.9,353.1 520.5,353.1 520.4,248.5 		"/>
        <polygon class="st7" points="520.4,248.5 520.5,353.1 529,352.8 528.9,249.4 558.4,251.4 558.6,352 561,351.9 560.7,246.9
			483.2,240.5 483.2,354.2 485.6,354.2 485.6,246 		"/>
	</g>
        <g>
		<polygon class="st7" points="694.8,262.2 695.4,347.7 696.9,347.8 696.4,262.1 		"/>
            <polygon class="st9" points="695.4,347.7 694.8,262.2 675.1,260.7 675.6,348.3 		"/>
            <polygon class="st7" points="675.1,260.7 694.8,262.2 696.4,262.1 675.1,260.5 		"/>
            <polygon class="st7" points="640.9,253.7 641.3,349.4 642.9,349.4 642.5,253.7 		"/>
            <polygon class="st9" points="644.6,349.3 667.9,348.6 667.5,260.1 644.2,258.3 		"/>
            <polygon class="st7" points="644.2,258.3 667.5,260.1 669,260 644.2,258.1 		"/>
            <polygon class="st7" points="667.5,260.1 667.9,348.6 669.5,348.6 669,260 		"/>
            <polygon class="st7" points="669,260 669.5,348.6 675.6,348.4 675.1,260.7 696.4,262.1 696.9,347.8 698.6,347.7 698.1,258.3
			642.5,253.7 642.9,349.4 644.6,349.4 644.2,258.3 		"/>
	</g>

        <g>
		<polygon class="st9" points="381.8,265.7 312.5,269.4 312.3,318.9 381.6,318.6 		"/>
            <polygon class="st9" points="312.6,262.9 381.8,258.8 381.8,247.5 312.6,252.4 		"/>
            <polygon class="st9" points="308.9,322.4 391.3,322.3 388.6,322.3 306.2,322.4 		"/>
            <g>
			<polygon class="st8" points="391.3,322.3 391.5,243.6 388.8,243.4 388.6,322.3 			"/>
                <path class="st7" d="M388.6,322.3l-82.4,0.1l0.4-73l82.3-6.1L388.6,322.3z M312.3,318.9l69.3-0.3l0.1-52.9l-69.2,3.7L312.3,318.9
				z M381.8,247.5l-69.2,4.9l-0.1,10.5l69.2-4.1L381.8,247.5z"/>
		</g>
	</g>

        <g>
		<g>
			<polygon class="st9" points="477,430.9 567.2,421.4 567.1,419.3 566.9,417.2 566.5,415.2 565.9,413.2 565.2,411.2 564.3,409.3
				563.2,407.5 562.1,405.7 560.7,404 559.2,402.4 557.6,400.9 555.9,399.4 554,398.1 552,396.8 549.9,395.7 547.6,394.7 
				545.3,393.8 542.9,392.9 540.4,392.3 537.8,391.7 535.1,391.3 532.4,391 530,390.9 527.2,390.9 524.3,391 521.5,391.3 
				518.6,391.7 515.8,392.2 513,392.9 510.2,393.7 507.4,394.7 504.7,395.8 502.1,397 499.5,398.3 497.1,399.8 494.7,401.3 
				492.4,403 490.3,404.8 488.3,406.7 486.4,408.6 484.7,410.7 483.1,412.8 481.7,414.9 480.5,417.1 479.4,419.4 478.6,421.7 
				477.9,424 477.4,426.3 477.1,428.6 			"/>
            <path class="st7" d="M473.7,567.5l0-136.2l0.1-2.5l0.3-2.5l0.5-2.5l0.7-2.5l0.9-2.5l1.1-2.4l1.3-2.4l1.5-2.3l1.7-2.2l1.8-2.2
				l2-2.1l2.2-2l2.3-1.9l2.4-1.8l2.5-1.7l2.6-1.5l2.7-1.4l2.8-1.3l2.9-1.1l2.9-1l3-0.9l3-0.7l3-0.6l3-0.4l3-0.3l3-0.1l3,0l2.9,0.2
				l2.9,0.3l2.8,0.4l2.8,0.6l2.7,0.7l2.6,0.9l2.5,1l2.4,1.1l2.2,1.2l2.1,1.3l2,1.4l1.9,1.5l1.7,1.6l1.6,1.7l1.4,1.8l1.3,1.9l1.1,2
				l0.9,2l0.8,2.1l0.6,2.1l0.4,2.2l0.3,2.2l0.1,2.2l0.3,123.2L473.7,567.5z M566.8,423.6l-42.4,4.6l-0.8,0.1l-46.6,5.4l0,130.6
				l90.8-21.6l-0.3-119.2L566.8,423.6z M567.2,417.2l-0.4-2l-0.6-2l-0.7-2l-0.9-1.9l-1-1.8l-1.2-1.8l-1.3-1.7l-1.5-1.6l-1.6-1.5
				l-1.8-1.4l-1.9-1.4l-2-1.2l-2.1-1.1l-2.2-1l-2.3-0.9l-2.4-0.8l-2.5-0.7l-2.6-0.5l-2.7-0.4l-3-0.3l-2.5-0.1l-2.8,0l-2.8,0.1
				l-2.8,0.3l-2.9,0.4l-2.8,0.5l-2.8,0.7l-2.8,0.8l-2.7,0.9l-2.7,1.1l-2.6,1.2l-2.6,1.3l-2.5,1.5l-2.4,1.6l-2.3,1.7l-2.1,1.8l-2,1.9
				l-1.9,2l-1.7,2l-1.6,2.1l-1.4,2.2l-1.2,2.2l-1,2.2l-0.9,2.3l-0.7,2.3l-0.5,2.3l-0.3,2.3L477,431l90.5-9.6l-0.7,2.3l-42.4,4.6
				l-0.8,0.1l-46.6,5.4l0,130.6l90.8-21.6l-0.3-119.2v-2.2l-0.1-2.1L567.2,417.2z"/>
		</g>
            <polygon class="st9" points="483.5,557.7 518.1,549.6 518,433.7 483.5,437.6 		"/>
            <polygon class="st9" points="530.5,546.8 562,539.5 561.7,428.7 530.1,432.4 		"/>
	</g>

        <g>
		<g>
			<polygon class="st9" points="639.5,413.7 704,406.9 703.9,405.1 703.7,403.4 703.4,401.6 703,399.9 702.4,398.3 701.8,396.6
				701,395.1 700.2,393.5 699.2,392.1 698.1,390.7 696.9,389.4 695.6,388.1 694.3,386.9 692.8,385.9 691.3,384.9 689.7,384 
				688,383.2 686.3,382.5 684.4,381.9 682.6,381.4 680.7,381 678.7,380.8 676.9,380.6 675,380.6 673,380.7 671,380.9 668.9,381.2 
				666.9,381.6 664.9,382.2 662.9,382.8 660.9,383.6 659,384.5 657.2,385.5 655.3,386.6 653.6,387.8 651.9,389.1 650.3,390.5 
				648.8,391.9 647.4,393.5 646.1,395.1 644.9,396.8 643.8,398.6 642.8,400.4 641.9,402.2 641.2,404.1 640.6,406 640.1,407.9 
				639.8,409.9 639.6,411.8 			"/>
            <path class="st7" d="M637.7,528.2L637.2,414l0.1-2.1l0.2-2.1l0.4-2.1l0.5-2.1l0.7-2l0.8-2l0.9-2l1.1-1.9l1.2-1.9l1.3-1.8
				l1.4-1.7l1.5-1.7l1.6-1.6l1.7-1.5l1.8-1.4l1.9-1.3l1.9-1.2l2-1.1l2-0.9l2.1-0.8l2.1-0.7l2.2-0.6l2.2-0.5l2.2-0.3l2.2-0.2l2.2-0.1
				l2.1,0l2.1,0.2l2.1,0.3l2,0.4l2,0.5l1.9,0.6l1.9,0.7l1.8,0.9l1.7,1l1.6,1.1l1.6,1.1l1.4,1.2l1.3,1.3l1.3,1.4l1.1,1.5l1,1.6
				l0.9,1.6l0.8,1.7l0.7,1.7l0.6,1.8l0.4,1.8l0.3,1.8l0.2,1.9l0.1,1.9l0.7,104.9L637.7,528.2z M703.7,408.8l-30.4,3.3l-0.7,0.1
				l-33.1,3.9l0.5,109.5l64.9-15.4l-0.6-101.4L703.7,408.8z M704,403.4l-0.3-1.7l-0.4-1.7l-0.5-1.7l-0.6-1.6l-0.8-1.6l-0.9-1.5
				l-1-1.5l-1.1-1.4l-1.2-1.3l-1.3-1.2l-1.4-1.2l-1.5-1.1l-1.5-1L690,384l-1.7-0.8l-1.8-0.7l-1.8-0.6l-1.9-0.5l-1.9-0.4l-1.9-0.3
				l-2.1-0.2l-1.8,0l-2,0.1l-2,0.2l-2,0.3l-2,0.4l-2,0.6l-2,0.7l-2,0.8l-1.9,0.9l-1.9,1l-1.8,1.1l-1.8,1.2l-1.7,1.3l-1.6,1.4
				l-1.5,1.5l-1.4,1.6l-1.3,1.6l-1.2,1.7l-1.1,1.8l-1,1.8l-0.9,1.8l-0.7,1.9l-0.6,1.9l-0.5,1.9l-0.3,1.9l-0.2,1.9l-0.1,1.9l64.7-6.8
				l-0.5,1.9l-30.4,3.3l-0.7,0.1l-33.1,3.9l0.5,109.5l64.9-15.4l-0.6-101.4l0-1.9l-0.1-1.8L704,403.4z"/>
		</g>
            <polygon class="st9" points="641.5,517.7 668.6,511.4 668.5,420.5 641.5,423.6 		"/>
            <polygon class="st9" points="678.2,509.2 702.9,503.4 702.7,416.7 678,419.5 		"/>
	</g>
</g>
</svg>
