<?xml version="1.0" encoding="utf-8"?>
<!-- Generator: Adobe Illustrator 25.0.1, SVG Export Plug-In . SVG Version: 6.00 Build 0)  -->
<svg version="1.1" id="katman_1" xmlns="http://www.w3.org/2000/svg" x="0px" y="0px"
     viewBox="0 0 841.9 595.3" style="enable-background:new 0 0 841.9 595.3;" xml:space="preserve">
<style type="text/css">
	.st0{fill:#8F6645;}
	.st1{fill:#EEEEEE;}
	.st2{fill:#DDDDDD;}
	.st3{fill:#3D3A37;}
	.st4{fill:#C4C4C4;}
	.st5{fill:#3D3A37;}
	.st6{fill:#000000;}
	.st7{fill:#FFFFFF;}
	.st8{fill:#888888;}
	.st9{fill:#7884AF;}
</style>


    <g id="roof">
	<polygon class="st3" points="484.1,123.7 477.2,118.9 452.9,114.5 448.6,113.7 442.5,112.6 287.2,84 245.3,159.1 383.8,174.8
		401.6,136.4 			"/>
        <polygon class="st3" points="591,198.3 563.9,179.4 561.5,179.6 561.6,195 			"/>
        <polygon class="st3" points="287.2,84 123.4,178.2 245.3,159.1 			"/>
        <polygon class="st3" points="401.6,136.4 383.8,174.8 458.1,166 468,164.9 522.5,117.8 484.1,123.7 			"/>
        <polygon class="st3" points="522.5,117.8 468,164.9 571.3,178.7 			"/>
        <polygon class="st3" points="571.3,178.7 468,164.9 458.1,166 561.5,179.6 563.9,179.4 			"/>
</g>


    <g id="body">
	<polygon class="st0" points="591.9,479.8 591.5,342.7 587.8,342.9 561.9,341.8 562.3,486.5 			"/>
        <polygon class="st4" points="383.4,527.1 458.2,544.8 458.1,350.9 383.6,355.4 			"/>
        <polygon class="st0" points="383.4,527.1 383.6,355.4 344.4,357.8 244.6,350.9 243.8,558.8 			"/>
        <polygon class="st0" points="561.4,179.7 458,166.1 458.1,304.9 484.6,305.2 484.6,349.3 458.1,350.9 458.2,544.8 562.4,517.5
			562.3,486.5 561.9,341.8 561.8,303.4 561.5,195 			"/>
        <polygon class="st4" points="458,166.1 383.7,174.9 383.6,306.6 458.1,305.6 458.1,304.9 			"/>
        <polygon class="st0" points="383.7,174.9 245.3,159.2 244.7,305.6 344.5,307.1 383.6,306.6 			"/>
        <polygon class="st4" points="245.3,159.2 123.3,178.3 121.2,520.3 243.8,558.8 244.6,350.9 244.7,305.6 			"/>
        <polygon class="st0" points="591,198.4 561.5,195 561.8,303.4 587.7,303.7 591.3,303.6 591.3,301.5 			"/>
        <polygon class="st0" points="687.2,336.9 687,302.3 591.3,303.6 587.7,303.7 587.8,342.9 591.5,342.7 			"/>
        <polygon class="st4" points="587.8,342.9 587.7,303.7 561.8,303.4 561.9,341.8 			"/>
        <polygon class="st0" points="484.6,349.3 484.6,305.2 458.1,305.6 383.6,306.6 344.5,307.1 344.4,357.8 383.6,355.4 458.1,350.9
						"/>
        <polygon class="st4" points="344.4,357.8 344.5,307.1 244.7,305.6 244.6,350.9 			"/>
        <polygon class="st4" points="687,302.3 591.3,301.5 591.3,303.6 			"/>
</g>


    <g id="chimney">
	<polygon class="st5" points="434.5,35.1 420.4,31.4 413.2,46 420.4,64.2 425.1,65.3 425.2,109.4 429.5,110.2 429.4,68.5
		429.4,66.2 434.5,67.4 441.4,52.9 			"/>
        <polygon class="st6" points="429.4,68.5 434.5,67.4 429.4,66.2 			"/>
        <polygon class="st6" points="414.3,32.9 407.1,47.4 413.2,46 420.4,31.4 			"/>
        <polygon class="st6" points="413.2,46 407.1,47.4 414.4,65.5 420.4,64.2 			"/>
        <polygon class="st6" points="420.4,64.2 414.4,65.5 419,66.5 425.1,65.3 			"/>
        <polygon class="st6" points="425.1,65.3 419,66.5 419.1,108.3 425.2,109.4 			"/>
</g>


    <g>
	<g>
		<g>
			<polygon class="st9" points="363.8,377.7 324.1,381.1 323.9,439.2 272.7,446.2 272.6,488.7 363.7,472.9 			"/>
            <polygon class="st9" points="317.5,381.7 272.9,385.5 272.7,439.8 317.4,433.9 			"/>
            <g>
				<path class="st7" d="M265.4,496.4l0.4-116.8l104-8.3l-0.1,106.4L265.4,496.4z M323.9,439.2l-51.2,7l-0.1,42.4l91.1-15.8
					l0.1-95.2l-39.7,3.4L323.9,439.2z M272.7,439.8l44.7-5.9l0.1-52.2l-44.6,3.8L272.7,439.8z"/>
                <polygon class="st8" points="369.8,371.3 364.9,370.9 261,379.1 265.8,379.6 				"/>
                <polygon class="st8" points="265.4,496.4 265.8,379.6 261,379.1 260.6,495.3 				"/>
			</g>
		</g>
        <polygon class="st9" points="541.2,451.3 524.2,454.5 524.3,520.6 543.1,515.8 543,451.8 541.2,451.6 		"/>
        <polygon class="st9" points="535.4,383.7 531.7,384.1 531.8,436.8 535.5,436.2 		"/>
        <polygon class="st9" points="500.7,458.8 500.8,526.6 517.8,522.3 517.7,455.6 		"/>
        <polygon class="st9" points="511.5,385.2 506.8,385.7 506.9,443.7 511.6,443 		"/>
        <g>
			<path class="st8" d="M548.4,358.8l0.2,86.8l-2.4-0.3l-3.1,0.5v1.5l-1.8,0.3l0,3.8l-17,3.1l0.1,66.2l18.8-4.8l-0.1-64l5.5-1
				l0.2,73l-54.6,14.5L494,363.2L548.4,358.8z M518,522.3l-0.1-66.6l-17,3.1l0.1,67.9L518,522.3z M500.7,378.6l0.1,73.9l17-3
				l-0.1-72.6L500.7,378.6z M543,373.4l-18.8,1.8l0.1,72.6l18.8-3.3L543,373.4z"/>
            <polygon class="st7" points="494.2,538.3 494,363.2 488.6,362.8 488.8,537.1 			"/>
            <polygon class="st7" points="488.6,362.8 494,363.2 548.4,358.8 543.1,358.4 			"/>
            <polygon class="st7" points="546.2,445.2 543.1,445.8 547.9,446.4 543.1,447.3 541.3,447.6 543.1,447.8 552.7,446.1 548.6,445.5
							"/>
            <polygon class="st7" points="552.7,446.1 543.1,447.8 543.1,451.8 548.6,450.8 552.7,450.1 			"/>
            <polygon class="st7" points="541.3,451.6 543.1,451.8 543.1,447.8 541.3,447.6 541.3,451.3 			"/>
            <polygon class="st7" points="547.9,446.4 543.1,445.8 543.1,447.3 			"/>
            <path class="st7" d="M500.8,452.5l-0.1-73.9l17-1.7l0.1,72.6L500.8,452.5z M507.1,443.7l4.7-0.8l-0.1-57.8l-4.7,0.5L507.1,443.7z
				"/>
            <path class="st7" d="M524.2,375.2l18.8-1.8l0.2,71.1l-18.8,3.3L524.2,375.2z M532,436.8l3.7-0.6l-0.1-52.5l-3.7,0.4L532,436.8z"
            />
		</g>
        <polygon class="st9" points="510.2,207.3 505.8,214.2 502.6,222.8 501.1,232.6 501.2,242.7 503.1,252.4 506.5,261.2 511.2,268.2
			516.8,273.1 523,275.5 529.2,275.4 535.2,272.7 540.4,267.8 544.5,260.9 547.4,252.5 548.8,243.2 548.6,233.6 546.9,224.3 
			543.8,215.8 539.4,208.8 534.1,203.7 528.1,200.8 521.8,200.4 515.7,202.6 		"/>
        <g>
			<polygon class="st8" points="513.7,195.7 521,193.1 516.4,193.5 509.1,196.1 			"/>
            <path class="st7" d="M528.6,193.6l7.2,3.5l6.4,6.2l5.2,8.5l3.7,10.2l2,11.2l0.2,11.5l-1.7,11.1l-3.4,10l-5,8.3l-6.2,6l-7.1,3.3
				l-7.5,0.2l-7.4-2.9l-6.8-5.9l-5.7-8.5l-4.1-10.5l-2.3-11.8l-0.2-12.3l1.9-11.8l3.8-10.4l5.4-8.3l6.6-5.6l7.4-2.6L528.6,193.6z
				 M502.6,223.2l-1.6,9.7l0.2,10.1l1.9,9.8l3.4,8.7l4.7,7.1l5.6,4.9l6.2,2.4l6.2-0.1l5.9-2.7l5.2-5l4.2-6.9l2.9-8.4l1.4-9.3
				l-0.2-9.6l-1.7-9.3l-3.1-8.5l-4.4-7l-5.4-5.1l-6-2.9l-6.3-0.4l-6.1,2.2l-5.5,4.7l-4.5,6.9L502.6,223.2z"/>
            <polygon class="st8" points="513.7,195.7 509.1,196.1 502.4,201.7 507.1,201.3 			"/>
            <polygon class="st8" points="502.4,201.7 497,209.9 501.6,209.6 507.1,201.3 			"/>
            <polygon class="st8" points="497,209.9 493.2,220.3 497.8,220 501.6,209.6 			"/>
            <polygon class="st8" points="497.8,220 493.2,220.3 491.3,232 495.9,231.8 			"/>
            <polygon class="st8" points="491.3,232 491.5,244.2 496.1,244 495.9,231.8 			"/>
            <polygon class="st8" points="491.5,244.2 493.8,256 498.4,255.9 496.1,244 			"/>
            <polygon class="st8" points="493.8,256 497.9,266.5 502.5,266.4 498.4,255.9 			"/>
            <polygon class="st8" points="497.9,266.5 503.6,274.9 508.2,274.9 502.5,266.4 			"/>
            <polygon class="st8" points="503.6,274.9 510.4,280.8 515,280.7 508.2,274.9 			"/>
            <polygon class="st8" points="510.4,280.8 517.9,283.6 522.5,283.6 515,280.7 			"/>
		</g>
        <g>
			<g>
				<path class="st7" d="M177.7,189.9l8.5,2.8l7.8,7l6.5,10.7l4.7,13.7l2.5,15.8l0.1,16.6l-2.3,16.2l-4.5,14.6l-6.4,11.9l-7.7,8.3
					l-8.4,4.3l-8.6,0.1l-8.2-4l-7.2-7.7l-5.8-10.8l-4.1-13.2l-2.1-14.7l-0.1-15.3l2-15l3.9-13.8l5.6-11.7l7.1-8.9l8.1-5.4
					L177.7,189.9z M177,200.3l-7.1,1.1l-6.7,4.4l-5.9,7.3l16.9,27.7l16.2-32.2l-6.4-5.8L177,200.3z M177.7,301.5l7-3.6l6.3-7
					l5.2-9.8l3.7-12.1l1.9-13.4l-0.1-13.7l-2.1-13l-3.9-11.4l-38,74.6l6,6.4l6.8,3.3L177.7,301.5z M147.7,259.7l1.8,12.3l3.4,11
					l15.1-30L151.9,225l-2.7,9.3l-1.6,12.6L147.7,259.7z"/>
                <polygon class="st8" points="183,190.3 177.7,189.9 186.1,192.7 191.5,193.1 				"/>
                <polygon class="st8" points="199.3,200 191.5,193.1 186.1,192.7 193.9,199.7 				"/>
                <polygon class="st8" points="201,287.4 194.6,299.2 200,299.2 206.4,287.4 				"/>
                <polygon class="st8" points="206.4,287.4 210.9,272.8 205.5,272.8 201,287.4 				"/>
                <polygon class="st8" points="210.9,272.8 213.2,256.7 207.8,256.5 205.5,272.8 				"/>
                <polygon class="st8" points="213.2,256.7 213,240.1 207.6,239.9 207.8,256.5 				"/>
                <polygon class="st8" points="213,240.1 210.5,224.4 205.1,224.1 207.6,239.9 				"/>
                <polygon class="st8" points="210.5,224.4 205.8,210.7 200.4,210.4 205.1,224.1 				"/>
                <polygon class="st8" points="205.8,210.7 199.3,200 193.9,199.7 200.4,210.4 				"/>
                <polygon class="st8" points="183.8,311.7 192.3,307.5 186.9,307.6 178.5,311.9 				"/>
                <polygon class="st8" points="186.9,307.6 192.3,307.5 200,299.2 194.6,299.2 				"/>
			</g>
            <polygon class="st9" points="190.4,208.6 184,202.7 177,200.3 169.9,201.3 163.2,205.7 157.3,213 174.2,240.8 			"/>
            <polygon class="st9" points="163.8,298.4 170.6,301.6 177.7,301.5 184.7,297.8 191,290.9 196.2,281 199.9,269 201.8,255.6
				201.7,241.9 199.6,228.8 195.8,217.5 157.8,292 			"/>
            <polygon class="st9" points="149.4,230.6 147.6,244.1 147.7,258 149.6,271.2 153.3,283 169.6,250.8 152.2,220.5 			"/>
		</g>
        <g>
			<g>
				<path class="st7" d="M178.7,363.5l8.5,4.7l7.8,8.7l6.5,12.2l4.7,14.9l2.5,16.5l0.1,16.9l-2.3,15.9l-4.5,13.8l-6.4,10.6l-7.7,6.7
					l-8.5,2.5l-8.7-1.8l-8.2-5.8l-7.2-9.4l-5.8-12.2l-4.1-14.2l-2.2-15.3l-0.1-15.5l2-14.8l3.9-13.1l5.7-10.6l7.1-7.4l8.1-3.6
					L178.7,363.5z M178,373.8l-7.2-0.5l-6.8,3l-5.9,6.1l17,31.7l16.4-29l-6.5-7.3L178,373.8z M178.7,476.2l7-2.1l6.4-5.6l5.3-8.8
					l3.7-11.4l1.9-13.1l-0.1-13.9l-2.1-13.6l-3.9-12.3l-38.3,67l6,7.7l6.8,4.8L178.7,476.2z M148.5,427.5l1.8,12.8l3.4,11.9l15.2-27
					l-16.2-31.9l-2.7,8.8l-1.7,12.3L148.5,427.5z"/>
                <polygon class="st8" points="175.4,362.7 170.1,363 178.7,363.5 184,363.1 				"/>
                <polygon class="st8" points="184,363.1 178.7,363.5 187.2,368.2 192.6,367.8 				"/>
                <polygon class="st8" points="200.4,376.5 192.6,367.8 187.2,368.2 195,376.9 				"/>
                <polygon class="st8" points="202.2,467.1 195.8,477.7 201.2,476.9 207.6,466.3 				"/>
                <polygon class="st8" points="207.6,466.3 212.2,452.6 206.7,453.3 202.2,467.1 				"/>
                <polygon class="st8" points="212.2,452.6 214.4,436.8 209,437.4 206.7,453.3 				"/>
                <polygon class="st8" points="214.4,436.8 214.3,420 208.9,420.6 209,437.4 				"/>
                <polygon class="st8" points="214.3,420 211.8,403.5 206.3,404.1 208.9,420.6 				"/>
                <polygon class="st8" points="211.8,403.5 207,388.7 201.6,389.1 206.3,404.1 				"/>
                <polygon class="st8" points="207,388.7 200.4,376.5 195,376.9 201.6,389.1 				"/>
                <polygon class="st8" points="184.9,486 193.4,483.6 188,484.4 179.5,486.9 				"/>
                <polygon class="st8" points="188,484.4 193.4,483.6 201.2,476.9 195.8,477.7 				"/>
			</g>
            <polygon class="st9" points="191.9,385.3 185.5,378 178.4,374 171.3,373.5 164.5,376.5 158.6,382.6 175.6,414.3 			"/>
            <polygon class="st9" points="165.1,470.2 171.9,475 179.1,476.4 186.2,474.3 192.5,468.6 197.8,459.8 201.5,448.4 203.4,435.3
				203.3,421.4 201.2,407.8 197.3,395.4 159,462.5 			"/>
            <polygon class="st9" points="150.5,402.3 148.8,414.7 148.9,427.6 150.7,440.5 154.1,452.3 169.4,425.4 153.2,393.5 			"/>
		</g>
        <g>
			<g>
				<polygon class="st7" points="308.9,306.5 313.3,306.5 314,213 357.2,215.1 357,307 361.4,306.8 361.6,209.4 309.2,206.7 				"/>
                <polygon class="st8" points="308.5,306.5 308.8,206.7 300.1,207.2 299.7,306.1 				"/>
                <polygon class="st8" points="357.1,215.1 313.7,213.1 313.3,306.5 356.9,306.5 				"/>
			</g>

            <rect x="319.5" y="273.2" transform="matrix(-1 -4.488067e-11 4.488067e-11 -1 651.1415 558.6166)" class="st7" width="12.2" height="12.2"/>
		</g>
	</g>
        <g>
		<polygon class="st7" points="576.9,444.8 562.4,449.7 562.4,377 576.9,374.3 		"/>
            <polygon class="st9" points="573.6,441.4 562.4,445 562.4,381.4 573.6,380.6 		"/>
	</g>
</g>
</svg>
