<?xml version="1.0" encoding="utf-8"?>
<!-- Generator: Adobe Illustrator 25.0.1, SVG Export Plug-In . SVG Version: 6.00 Build 0)  -->
<svg version="1.1" id="katman_1" xmlns="http://www.w3.org/2000/svg" x="0px" y="0px"
     viewBox="0 0 841.9 595.3" style="enable-background:new 0 0 841.9 595.3;" xml:space="preserve">
<style type="text/css">
	.st0{fill:#8F6645;}
	.st1{fill:#EEEEEE;}
	.st2{fill:#DDDDDD;}
	.st3{fill:#3D3A37;}
	.st4{fill:#C4C4C4;}
	.st5{fill:#3D3A37;}
	.st6{fill:#000000;}
	.st7{fill:#FFFFFF;}
	.st8{fill:#888888;}
	.st9{fill:#7884AF;}
</style>


    <g id="chimney">
	<polygon class="st5" points="529.8,19.1 510.6,23.5 501.3,44.5 510.7,61.6 517,60.4 517,63.1 517,112.7 522.9,111.7 522.8,59.2
		529.9,57.8 539.7,36.3 			"/>
        <polygon class="st6" points="536,20.8 529.8,19.1 539.7,36.3 545.8,38 			"/>
        <polygon class="st6" points="539.7,36.3 529.9,57.8 536,59.3 545.8,38 			"/>
        <polygon class="st6" points="536,59.3 529.9,57.8 522.8,59.2 528.9,60.7 			"/>
        <polygon class="st6" points="510.7,61.6 516.9,63.1 517,60.4 			"/>
        <polygon class="st6" points="529,110.8 528.9,60.7 522.8,59.2 522.9,111.7 			"/>
</g>


    <g id="roof">
	<polygon class="st3" points="414.5,124.4 384.1,143.4 452.9,151.5 467.8,192.3 623.1,179.3 611.8,94 599.8,95.9 593.7,96.8
		587.8,97.7 			"/>
        <polygon class="st2" points="294.6,199.3 280.7,207.9 294.6,206.8 			"/>
        <polygon class="st2" points="284.9,195 294.6,195.7 393.5,186.2 383.6,185.4 			"/>
        <polygon class="st3" points="383.6,185.4 393.5,186.2 467.8,192.3 452.9,151.5 384.1,143.4 331.7,137.3 			"/>
        <polygon class="st3" points="284.9,195 383.6,185.4 331.7,137.3 			"/>
        <polygon class="st3" points="611.8,94 623.1,179.3 748.5,193 			"/>
</g>


    <g id="body">
	<g>
		<polygon class="st4" points="393.3,553.1 467.9,536 467.8,372.9 393.4,366.7 			"/>
        <polygon class="st0" points="280.5,355.6 280.3,491.9 294.1,495.2 294.4,354.8 			"/>
        <polygon class="st4" points="467.8,325.8 467.8,192.3 393.5,186.2 393.4,320.9 393.4,322.8 			"/>
        <polygon class="st4" points="749.5,533.9 748.5,193 623.1,179.3 623.3,323.7 623.4,368.4 623.7,572.6 			"/>
        <polygon class="st0" points="280.7,207.9 280.6,312.3 280.5,317.6 294.4,317.2 294.6,206.8 			"/>
        <polygon class="st0" points="184.6,349.2 268.7,356.2 268.8,317.9 184.7,314.5 			"/>
        <polygon class="st0" points="393.5,186.2 294.6,195.7 294.6,199.3 294.6,206.8 294.4,317.2 294.4,354.8 294.1,495.2 294.1,526.4
			393.3,553.1 393.4,366.7 367.1,364.5 367.1,321.8 393.4,320.9 			"/>
        <polygon class="st0" points="367.1,321.8 367.1,364.5 393.4,366.7 467.8,372.9 523.1,377.6 523.1,328.1 467.8,325.8 393.4,322.8
						"/>
        <polygon class="st4" points="523.1,328.1 523.1,377.6 623.4,368.4 623.3,323.7 			"/>
        <polygon class="st0" points="623.4,368.4 523.1,377.6 467.8,372.9 467.9,536 623.7,572.6 			"/>
        <polygon class="st0" points="623.1,179.3 467.8,192.3 467.8,325.8 523.1,328.1 623.3,323.7 			"/>
        <polygon class="st4" points="184.7,314.5 268.8,317.9 280.5,317.6 280.6,312.3 			"/>
        <polygon class="st4" points="268.8,317.9 268.7,356.2 280.5,355.6 294.4,354.8 294.4,317.2 280.5,317.6 			"/>
        <polygon class="st4" points="393.4,322.8 393.4,320.9 367.1,321.8 			"/>
	</g>
</g>


    <g id="left-window">
	<polygon class="st9" points="726.1,436.1 664.6,447.3 664.7,502.1 726.3,487.2 			"/>
        <polygon class="st9" points="664.6,440.2 726.1,429.4 726.1,418.6 664.6,428.5 			"/>
        <g>
		<polygon class="st8" points="728.4,413.9 655.2,425.4 658.3,425.7 731.5,414.2 				"/>
            <polygon class="st8" points="655.2,425.4 655.4,506.8 658.5,507.4 658.3,425.7 				"/>
            <path class="st7" d="M731.7,489.4l-73.2,18l-0.2-81.6l73.1-11.6L731.7,489.4z M664.7,502.1l61.5-14.9l-0.1-51.1l-61.5,11.2
				L664.7,502.1z M726.1,418.6l-61.5,10l0,11.6l61.5-10.8L726.1,418.6z"/>
	</g>
</g>


    <g>
	<g>
		<g>
			<polygon class="st9" points="351.9,471.4 348.5,471.7 338.7,469.7 338.7,468.8 333.2,467.7 333.1,532 351.8,536.9 			"/>
            <polygon class="st9" points="344.4,401.5 340.7,401 340.7,453.1 344.3,453.7 			"/>
            <polygon class="st9" points="311.8,463.5 311.8,526.4 327.1,530.4 327.1,466.5 			"/>
            <polygon class="st9" points="321.6,397.6 317.4,397 317.4,451.6 321.5,452.3 			"/>
            <g>
				<polygon class="st7" points="355.1,470.7 355.1,466.7 348.5,467.6 348.5,471.7 351.3,471.2 				"/>
                <polygon class="st7" points="355.1,466.7 351.9,466.1 347.2,466.8 340.5,465.5 338.7,465.8 348.5,467.6 				"/>
                <polygon class="st7" points="348.5,467.6 338.7,465.8 338.7,468.8 338.7,469.7 348.5,471.7 				"/>
                <polygon class="st7" points="357.6,548 362.9,546.8 363.1,378.6 357.7,379 				"/>
                <polygon class="st7" points="357.7,379 363.1,378.6 349,377.2 344.1,376.7 311.5,373.4 306.2,373.8 				"/>
                <path class="st8" d="M306.1,456.8l0-4.8l0-31.8v-4.8l0.1-40.7v-0.8l51.5,5.2l-0.1,169l-51.6-14L306.1,456.8z M351.9,466.1
					l-4.7,0.7l-6.7-1.3l-1.8,0.3v3l-5.5-1.1l-0.1,64.3l18.7,4.9l-0.6-65.6l3.8-0.6l0-4L351.9,466.1z M327.1,530.4l0.1-63.9l-15.3-3
					l-0.1,62.8L327.1,530.4z M311.9,389.2l-0.1,68.5l15.3,2.9l0.1-69.6L311.9,389.2z M352,392.8l-18.7-2.2l-0.1,70.6l18.7,3.5
					L352,392.8z"/>
                <path class="st7" d="M311.9,457.7l0.1-68.5l15.3,1.8l-0.1,69.6L311.9,457.7z M317.4,451.6l4.2,0.8l0.1-54.8l-4.2-0.5
					L317.4,451.6z"/>
                <path class="st7" d="M333.3,390.6l18.7,2.2l-0.1,72l-18.7-3.5L333.3,390.6z M340.7,453.1l3.7,0.7l0-52.3l-3.6-0.5L340.7,453.1z"
                />
			</g>
		</g>
        <g>
			<polygon class="st9" points="575.2,402.1 534.7,398 534.7,454.7 490,447.9 490,485.9 575.3,501.7 			"/>
            <polygon class="st9" points="528.5,397.4 490,393.4 490,442.1 528.6,447.8 			"/>
            <g>
				<polygon class="st8" points="581.8,396.6 581.9,509.2 586.8,508 586.7,396 				"/>
                <path class="st7" d="M484.3,490.6l0-103.5l97.5,9.5l0.1,112.6L484.3,490.6z M534.7,454.7l-44.7-6.7l0,38l85.3,15.8l-0.1-99.6
					l-40.5-4.1L534.7,454.7z M490,442.1l38.6,5.6l0-50.4l-38.6-4L490,442.1z"/>
                <polygon class="st8" points="581.8,396.6 586.7,396 489.2,386.6 484.3,387.1 				"/>
			</g>
		</g>
        <g>
			<polygon class="st8" points="559,228.3 550.2,228 550.3,327.7 559.2,327.1 			"/>
            <polygon class="st7" points="499.9,325 504.2,325.2 504.1,235.2 545.6,234.1 545.7,327.4 550.3,327.7 550.2,228 499.9,229.6
				"/>
            <polygon class="st8" points="545.6,234.1 504.1,235.2 504.2,325.2 545.7,327.4 			"/>

            <rect x="529.4" y="286.1" transform="matrix(-1 -4.488067e-11 4.488067e-11 -1 1070.9626 584.3656)" class="st7" width="12.2" height="12.2"/>
		</g>
        <polygon class="st9" points="314.3,229.6 310.3,236.6 307.5,244.9 306.2,254 306.3,263.4 307.9,272.4 310.8,280.4 315,286.9
			320,291.5 325.7,293.9 331.7,293.8 337.4,291.2 342.6,286.2 346.9,279.2 349.9,270.6 351.4,261 351.2,251.2 349.5,241.9
			346.3,233.7 341.9,227.2 336.6,222.8 330.8,220.8 324.8,221.4 319.2,224.4 		"/>
        <g>
			<path class="st7" d="M331,213.4l7,2.3l6.4,5.2l5.4,7.8l3.9,9.9l2.1,11.3l0.2,11.9l-1.8,11.5l-3.6,10.4l-5.2,8.5l-6.3,6l-7,3.1
				l-7.1,0.1l-6.9-2.9l-6.1-5.6l-5-7.9l-3.5-9.6l-1.9-10.8l-0.1-11.2l1.6-11l3.3-10l4.8-8.4l5.9-6.3l6.7-3.6L331,213.4z
				 M307.3,244.9l-1.4,9.1l0.1,9.4l1.6,9l2.9,8l4.1,6.5l5.1,4.6l5.7,2.4l5.9-0.1l5.8-2.6l5.2-5l4.3-7l3-8.6l1.5-9.5l-0.1-9.8
				l-1.7-9.3l-3.2-8.2l-4.4-6.5l-5.3-4.4l-5.8-1.9l-5.9,0.6l-5.6,3l-5,5.2l-4,7L307.3,244.9z"/>
            <polygon class="st8" points="335.6,213.6 331,213.4 338.1,215.7 342.6,215.9 			"/>
            <polygon class="st8" points="349.1,221.1 342.6,215.9 338.1,215.7 344.5,220.9 			"/>
            <polygon class="st8" points="350.6,283.7 345.4,292.2 350,292.1 355.1,283.7 			"/>
            <polygon class="st8" points="355.1,283.7 358.8,273.4 354.2,273.4 350.6,283.7 			"/>
            <polygon class="st8" points="358.8,273.4 360.6,261.9 356,261.8 354.2,273.4 			"/>
            <polygon class="st8" points="360.6,261.9 360.4,250.1 355.8,250 356,261.8 			"/>
            <polygon class="st8" points="360.4,250.1 358.3,238.8 353.7,238.7 355.8,250 			"/>
            <polygon class="st8" points="358.3,238.8 354.4,228.9 349.8,228.7 353.7,238.7 			"/>
            <polygon class="st8" points="354.4,228.9 349.1,221.1 344.5,220.9 349.8,228.7 			"/>
            <polygon class="st8" points="336.7,301.2 343.7,298.1 339.1,298.2 332.1,301.3 			"/>
            <polygon class="st8" points="339.1,298.2 343.7,298.1 350,292.1 345.4,292.2 			"/>
		</g>
        <g>
			<polygon class="st9" points="725.8,305.5 725.7,254.5 664.2,252.9 664.3,307.4 			"/>
            <g>
				<path class="st7" d="M658.1,311.4l-0.2-81.3l73,3.8l0.2,75L658.1,311.4z M664.2,252.9l0.1,54.5l61.5-1.9l-0.1-50.9L664.2,252.9z
					 M725.6,237l-61.4-2.9l0,11.6l61.4,2.2L725.6,237z"/>
                <polygon class="st8" points="655,311.3 658.1,311.4 657.9,230 654.8,230.2 				"/>
			</g>
            <polygon class="st9" points="664.2,245.7 725.6,247.9 725.6,237 664.2,234.1 			"/>
		</g>
	</g>
</g>
</svg>
