<?xml version="1.0" encoding="utf-8"?>
<!-- Generator: Adobe Illustrator 25.0.1, SVG Export Plug-In . SVG Version: 6.00 Build 0)  -->
<svg version="1.1" id="katman_1" xmlns="http://www.w3.org/2000/svg" x="0px" y="0px"
     viewBox="0 0 841.9 595.3" style="enable-background:new 0 0 841.9 595.3;" xml:space="preserve">
<style type="text/css">
	.st0{fill:#8F6645;}
	.st1{fill:#EEEEEE;}
	.st2{fill:#DDDDDD;}
	.st3{fill:#3D3A37;}
	.st4{fill:#C4C4C4;}
	.st5{fill:#3D3A37;}
	.st6{fill:#000000;}
	.st7{fill:#FFFFFF;}
	.st8{fill:#888888;}
	.st9{fill:#7884AF;}
</style>

    <g id="body">
	<g>
		<polygon class="st0" points="129.6,534.6 425.6,590.7 425.6,501.9 130.6,469.1 130,509.9 129.9,519.6 			"/>
        <polygon class="st0" points="425.6,501.9 425.6,590.7 725,534.6 724.1,468.9 427.5,501.7 			"/>
	</g>
        <g>
		<polygon class="st4" points="132,380.6 130.6,468.8 425.7,501.6 425.8,198.1 134,243.6 134,244.9 132.4,351.5 132.3,361.2
			132.2,368.3 			"/>
            <polygon class="st4" points="425.8,198.1 425.7,501.3 724.1,468.6 720.8,244.9 720.8,243.6 			"/>
	</g>

</g>


    <g id="chimney">
	<polygon class="st5" points="332.8,40.2 332.8,29.7 328.1,28.4 302.7,21 302.6,31.7 		"/>
        <polygon class="st5" points="332.9,23.2 332.9,15 302.8,5.9 302.7,14.3 		"/>
        <polygon class="st5" points="325.4,127.3 325.8,42.6 295.7,34.2 294.8,169.4 		"/>
        <polygon class="st5" points="328.1,28.4 328.1,24.9 298,16 298,22.7 302.7,21 		"/>
        <polygon class="st6" points="325.8,42.6 332.8,40.2 302.6,31.7 295.7,34.2 		"/>
        <polygon class="st6" points="328.1,24.9 332.9,23.2 302.7,14.3 298,16 		"/>
        <polygon class="st6" points="268.2,33.5 268.1,43.9 274.1,41.7 274.1,45.5 273.1,174.1 294.8,169.4 295.7,34.2 302.6,31.7
		302.7,21 298,22.7 298,16 302.7,14.3 302.8,5.9 268.3,18.9 268.2,27 272,25.6 272,28.1 271.9,32.1 		"/>
        <polygon class="st5" points="274.1,41.7 268.1,43.9 274.1,45.5 		"/>
        <polygon class="st5" points="272,25.6 268.2,27 272,28.1 		"/>
</g>


    <g id="roof">
	<g>
		<polygon class="st3" points="727.5,227.9 505.5,106.7 336.1,64.1 422.9,175.7 425.1,175.3 			"/>
        <polygon class="st3" points="422.9,175.7 336.1,64.1 124,228.3 			"/>
	</g>
        <g>
		<polygon class="st3" points="133,303.5 133.1,296.4 124.2,303.4 			"/>
            <polygon class="st3" points="83,303.8 82.8,315.5 99.4,315.6 101.8,315.7 106.1,315.7 108.2,315.7 112.4,315.7 124,315.8
				124.2,303.4 			"/>
            <polygon class="st3" points="83,303.8 124.2,303.4 133.1,296.4 133.3,286.7 			"/>
            <polygon class="st3" points="132.8,315.8 133,303.5 124.2,303.4 124,315.8 			"/>
	</g>
        <g>
		<polygon class="st2" points="745.6,233.1 746.4,232.8 425.4,177.5 425.4,178.2 			"/>
            <polygon class="st2" points="737.5,237.6 738.3,236.9 425.5,185.2 425.5,186.3 			"/>
            <polygon class="st2" points="745.1,233.6 425.4,178.2 425.4,179.1 			"/>
            <polygon class="st2" points="744.8,234.2 425.4,179.1 425.4,179.9 			"/>
            <polygon class="st2" points="735.5,240 736,239.2 425.5,188.8 425.5,190 			"/>
            <polygon class="st2" points="744.7,234.9 425.4,179.9 425.4,180.8 			"/>
            <polygon class="st2" points="738.3,236.9 739.3,236.3 425.5,184.1 425.5,185.2 			"/>
            <polygon class="st2" points="747.2,232.5 748.1,232.4 425.4,176.7 			"/>
            <polygon class="st2" points="748.1,232.4 748.1,231.5 727.8,227.9 425.4,175.3 425.4,176.7 			"/>
            <polygon class="st2" points="740.3,235.8 741.4,235.3 425.5,182.2 425.5,183.1 			"/>
            <polygon class="st2" points="741.8,235.1 744.7,234.9 425.4,180.8 109.9,234.9 112.7,235.1 111.9,234.9 425.4,181.3
				742.6,234.9 			"/>
            <polygon class="st2" points="739.3,236.3 740.3,235.8 425.5,183.1 425.5,184.1 			"/>
            <polygon class="st2" points="425.6,198.1 720.6,243.6 720.7,244.9 734.5,243.6 425.5,195.2 120.1,243.6 133.9,244.8
				133.9,243.6 			"/>
            <polygon class="st2" points="425.4,179.9 425.4,179.1 109.4,233.6 			"/>
            <polygon class="st2" points="109.9,234.9 425.4,180.8 425.4,179.9 109.8,234.2 			"/>
            <polygon class="st2" points="119.5,240.9 119.8,241.8 425.5,192.6 425.5,191.3 			"/>
            <polygon class="st2" points="425.4,179.1 425.4,178.2 108.9,233.1 			"/>
            <polygon class="st2" points="425.5,185.2 425.5,184.1 115.3,236.3 116.2,236.9 			"/>
            <polygon class="st2" points="425.4,178.2 425.4,177.5 108.2,232.7 108.9,233.1 			"/>
            <polygon class="st2" points="108.2,232.7 425.4,177.5 107.3,232.5 			"/>
            <polygon class="st2" points="425.5,184.1 425.5,183.1 114.2,235.8 115.3,236.3 			"/>
            <polygon class="st2" points="425.5,183.1 425.5,182.2 113.1,235.3 114.2,235.8 			"/>
            <polygon class="st2" points="425.4,177 746.4,232.8 747.2,232.5 			"/>
            <polygon class="st2" points="113.1,235.3 425.5,182.2 425.4,181.3 111.9,234.9 112.7,235.1 			"/>
            <polygon class="st2" points="425.4,181.3 425.5,182.2 741.4,235.3 742.6,234.9 			"/>
            <polygon class="st2" points="425.5,192.6 119.8,241.8 120,242.7 425.5,193.9 			"/>
            <polygon class="st2" points="120,242.7 120.1,243.6 425.5,195.2 425.5,193.9 			"/>
            <polygon class="st2" points="116.2,236.9 117.1,237.6 425.5,186.3 425.5,185.2 			"/>
            <polygon class="st2" points="425.5,186.3 117.1,237.6 117.8,238.4 425.5,187.5 			"/>
            <polygon class="st2" points="425.5,192.6 425.5,193.9 734.5,242.7 734.7,241.8 			"/>
            <polygon class="st2" points="119.5,240.9 425.5,191.3 425.5,190 119.1,240 			"/>
            <polygon class="st2" points="118.5,239.2 119.1,240 425.5,190 425.5,188.8 			"/>
            <polygon class="st2" points="107.3,232.5 425.4,177 106.5,232.4 			"/>
            <polygon class="st2" points="106.5,232.4 425.4,176.7 425.4,175.3 423.2,175.7 124.3,228.3 106.5,231.5 			"/>
            <polygon class="st2" points="425.5,190 425.5,191.3 735,240.9 735.5,240 			"/>
            <polygon class="st2" points="425.5,187.5 117.8,238.4 118.5,239.2 425.5,188.8 			"/>
            <polygon class="st2" points="425.5,191.3 425.5,192.6 734.7,241.8 735,240.9 			"/>
            <polygon class="st2" points="425.5,193.9 425.5,195.2 734.5,243.6 734.5,242.7 			"/>
            <polygon class="st2" points="425.5,187.5 425.5,188.8 736,239.2 736.7,238.4 			"/>
            <polygon class="st2" points="425.5,186.3 425.5,187.5 736.7,238.4 737.5,237.6 			"/>
            <path class="st2" d="M746.4,232.8l-0.7,0.4 M738.3,236.9l-0.9,0.7"/>
            <path class="st2" d="M425.4,179.1v0.9 M109.9,234.9l315.6-54"/>
            <line class="st2" x1="119.8" y1="241.8" x2="119.5" y2="240.9"/>
            <line class="st2" x1="133.9" y1="244.8" x2="120.1" y2="243.6"/>
            <path class="st2" d="M425.5,183.1l0,1 M425.4,179.9v0.9 M425.5,182.2l0,0.9"/>
            <path class="st2" d="M120,242.7l0.1,0.9 M113.1,235.3l1.1,0.5 M116.2,236.9l0.9,0.7"/>
            <line class="st2" x1="425.5" y1="193.9" x2="425.5" y2="192.6"/>
            <path class="st2" d="M117.1,237.6l0.8,0.7 M118.5,239.2l0.6,0.8 M119.8,241.8l0.2,0.9"/>
            <path class="st2" d="M106.5,232.4l319-55.8 M106.5,232.4l0.9,0.1 M111.9,234.9l313.5-53.5 M425.5,188.8l0,1.3 M425.5,190v1.3"/>
            <line class="st2" x1="118.5" y1="239.2" x2="117.8" y2="238.4"/>
            <path class="st2" d="M425.5,191.3v1.3 M425.5,193.9v1.3"/>
            <line class="st2" x1="115.3" y1="236.3" x2="114.2" y2="235.8"/>
            <line class="st2" x1="425.5" y1="188.8" x2="425.5" y2="187.5"/>
            <path class="st2" d="M119.1,240l0.4,0.9 M106.5,231.5l0,1 M115.3,236.3l0.9,0.6"/>
            <line class="st2" x1="425.5" y1="186.3" x2="425.5" y2="185.2"/>
            <line class="st2" x1="108.9" y1="233.1" x2="108.2" y2="232.7"/>
            <path class="st2" d="M425.4,175.3v1.3 M425.5,186.3l0,1.2"/>
            <path class="st2" d="M107.4,232.5l-0.9-0.1 M112.7,235.1l-2.8-0.3"/>
            <line class="st2" x1="734.5" y1="243.6" x2="720.7" y2="244.9"/>
            <path class="st2" d="M425.4,176.7l322.7,55.8 M425.4,181.3l317.1,53.5 M425.5,195.2l308.9,48.4"/>
	</g>
</g>


    <g id="left-window">
	<g>
		<g>
			<polygon class="st7" points="244.1,459 245,369.4 243.9,369.4 243,459.1 				"/>
            <path class="st7" d="M203.3,369.7l40.7-0.3l-0.9,89.6l-40.8-3.6L203.3,369.7z M205.1,451.4l8.8,0.7l0.9-79.5l-8.8,0
				L205.1,451.4z M240.7,372.6l-23.5,0.1l-0.5,39.8l23.6,0.9L240.7,372.6z M216.7,415.3l-0.4,37.1l23.6,2l0.4-38.1L216.7,415.3z"/>
		</g>
        <g>
			<polygon class="st9" points="214.8,372.7 206,372.7 205.1,451.4 213.9,452.2 				"/>
            <polygon class="st9" points="216.8,412.5 240.3,413.4 240.7,372.6 217.2,372.7 				"/>
            <polygon class="st9" points="239.9,454.4 240.3,416.3 216.7,415.3 216.3,452.4 				"/>
		</g>
        <path class="st7" d="M243.9,369.4h1.1 M243.9,369.4l-40.7,0.3"/>
	</g>

        <g>
			<polygon class="st33" points="204.6,343.2 245.3,341.7 244.2,341.7 203.6,343.2 			"/>
            <g>
			<polygon class="st7" points="245.3,341.7 246.2,253.2 245.1,253.1 244.2,341.7 				"/>
                <path class="st7" d="M204.6,258.5l40.5-5.4l-0.9,88.6l-40.6,1.5L204.6,258.5z M206.4,338.9l8.8-0.4l0.9-78.6l-8.8,1.1
				L206.4,338.9z M241.9,256.6l-23.4,3l-0.5,39.3l23.5-2L241.9,256.6z M218,301.7l-0.4,36.7l23.5-1l0.4-37.6L218,301.7z"/>
		</g>
            <g>
			<polygon class="st9" points="216.2,260 207.4,261.1 206.4,338.9 215.3,338.5 				"/>
                <polygon class="st9" points="218.1,299 241.5,296.9 241.9,256.6 218.5,259.7 				"/>
                <polygon class="st9" points="241.1,337.4 241.5,299.8 218,301.7 217.6,338.4 				"/>
		</g>
            <line class="st32" x1="203.6" y1="343.2" x2="204.6" y2="258.5"/>
            <path class="st32" d="M245.1,253.1l1.1,0.1 M245.1,253.1l-40.5,5.4"/>
	</g>
</g>


    <g>
	<g>
		<g>
			<polygon class="st4" points="93.6,461.9 130.6,468.9 130.8,453.9 93.9,447.5 			"/>
            <polygon class="st4" points="93.9,447.5 130.8,453.9 130.9,444.1 110.4,446 110.3,446.9 106.1,447.3 103.9,447 99.6,447.9
				97.2,447.5 			"/>
		</g>
        <g>
			<polygon class="st4" points="103.7,446.8 105.9,447.2 108,314.8 105.9,314.8 			"/>
            <polygon class="st4" points="105.9,447.2 110.2,446.8 110.2,445.9 112.3,314.9 108,314.8 			"/>
            <polygon class="st4" points="97,447.4 99.4,447.8 101.6,314.8 99.3,314.8 97,447.1 			"/>
            <polygon class="st4" points="99.4,447.8 103.7,447.4 105.9,314.8 101.6,314.8 			"/>
		</g>
	</g>

        <g>
		<g>
			<g>
				<polygon class="st7" points="374.2,470.5 374.5,368.4 373.4,368.4 373.1,470.6 				"/>
                <path class="st7" d="M320.9,368.8l52.5-0.4l-0.4,102.2l-52.7-4.7L320.9,368.8z M324,461.4l11.4,1l0.5-90.2l-11.3,0.1L324,461.4
					z M369.3,372l-30.4,0.1l-0.2,45.2l30.5,1.2L369.3,372z M338.7,420.5l-0.2,42.2l30.5,2.6l0.2-43.4L338.7,420.5z"/>
			</g>
            <g>
				<polygon class="st9" points="335.9,372.1 324.5,372.2 324,461.4 335.4,462.4 				"/>
                <polygon class="st9" points="338.7,417.3 369.2,418.5 369.3,372 338.9,372.1 				"/>
                <polygon class="st9" points="369,465.2 369.2,421.8 338.7,420.5 338.4,462.6 				"/>
			</g>
            <path class="st7" d="M373.4,368.4l1.1,0 M373.4,368.4l-52.5,0.4"/>
		</g>


            <g>
			<g>
				<polygon class="st7" points="647.2,273.9 645.6,273.7 647.3,435.8 648.9,435.7 				"/>
                <polygon class="st7" points="630.5,445.3 635.3,445.5 633.5,266.1 628.9,266.5 				"/>
                <path class="st7" d="M633.5,266.1l69.5,8.2l2.2,166.1l-69.9,5.1L633.5,266.1z M645.6,273.7L639,273l1.6,163.3l6.7-0.4l1.6-0.1
					l8.1-0.5l-1.7-160.4l-8.1-0.9L645.6,273.7z M661.2,434.9l39-2.5l-2-152.9l-38.8-4.3L661.2,434.9z"/>
			</g>
                <g>
				<polygon class="st9" points="655.2,274.8 647.2,273.9 648.9,435.7 657,435.2 				"/>
                    <polygon class="st9" points="640.6,436.3 647.3,435.8 645.6,273.7 639,273 				"/>
                    <polygon class="st9" points="698.3,279.6 659.5,275.3 661.2,434.9 700.3,432.5 				"/>
			</g>
                <path class="st7" d="M647.2,273.9l8.1,0.9 M647.3,435.8l-6.7,0.4"/>
                <path class="st7" d="M635.3,445.5l-4.7-0.2 M635.3,445.5l69.9-5.1 M628.9,266.5l1.7,178.8 M633.5,266.1l-4.7,0.4"/>
                <line class="st7" x1="635.3" y1="445.5" x2="633.5" y2="266.1"/>
		</g>

            <g>
			<polygon class="st7" points="322.2,338.8 374.6,336.8 373.6,336.8 321.1,338.8 			"/>
                <g>
			<polygon class="st7" points="374.6,336.8 375,236 373.9,235.9 373.6,336.8 				"/>
                    <path class="st7" d="M321.7,242.9l52.2-7l-0.4,100.9l-52.4,2L321.7,242.9z M324.8,333.8l11.3-0.5l0.5-89.1l-11.3,1.5
				L324.8,333.8z M369.8,240l-30.2,3.9l-0.2,44.6l30.3-2.6L369.8,240z M339.4,291.6l-0.2,41.6l30.4-1.3l0.2-42.8L339.4,291.6z"/>
		</g>
                <g>
			<polygon class="st9" points="336.6,244.3 325.3,245.8 324.8,333.8 336.1,333.4 				"/>
                    <polygon class="st9" points="339.4,288.5 369.7,285.8 369.8,240 339.6,243.9 				"/>
                    <polygon class="st9" points="369.5,331.9 369.7,289.1 339.4,291.6 339.1,333.2 				"/>
		</g>
                <line class="st7" x1="321.1" y1="338.8" x2="321.7" y2="242.9"/>
                <path class="st7" d="M373.9,235.9l1.1,0.1 M373.9,235.9l-52.2,7"/>
		</g>

            <g>
			<g>
				<polygon class="st9" points="567.8,407.1 541.4,407.9 542.2,561.2 568.8,556.5 				"/>
                <path class="st9" d="M532.8,408.1l0.7,154.7l-29.7,5.3L503.3,409L532.8,408.1z M527.7,505.4l1.9,0.2l3.1-0.4l0-10l-1.9-0.2
					l-3.1,0.4L527.7,505.4z"/>
			</g>
                <polygon class="st7" points="530.8,495 527.7,495.4 529.5,495.6 532.7,495.2 			"/>
                <g>
				<g>
					<polygon class="st7" points="488.4,397.3 488.8,579.6 497.7,581.2 497.2,397.4 					"/>
                    <path class="st8" d="M574.2,566.7l-76.5,14.5l-0.5-183.8L573,396L574.2,566.7z M542.2,561.2l26.6-4.8l-0.9-149.4l-26.4,0.8
						L542.2,561.2z M533.5,562.8l-0.7-154.7l-29.5,0.9l0.5,159.1L533.5,562.8z"/>
				</g>
                    <polygon class="st7" points="527.7,495.4 527.7,505.4 529.6,505.6 529.5,495.6 				"/>
                    <polygon class="st7" points="532.7,495.2 529.5,495.6 529.6,505.6 532.7,505.2 				"/>
			</g>
                <line class="st8" x1="497.7" y1="581.2" x2="497.2" y2="397.4"/>
                <line class="st8" x1="573" y1="396" x2="574.2" y2="566.7"/>
                <path class="st8" d="M527.7,495.4l3.1-0.4 M527.7,505.4l0-10 M529.5,495.6l3.1-0.4"/>
                <path class="st8" d="M532.7,495.2l0,10 M532.7,505.2l-3.1,0.4"/>
                <line class="st8" x1="529.5" y1="495.6" x2="529.6" y2="505.6"/>
                <line class="st8" x1="530.8" y1="495" x2="532.7" y2="495.2"/>
                <line class="st8" x1="527.7" y1="495.4" x2="529.5" y2="495.6"/>
		</g>
	</g>
</g>
</svg>
