<?xml version="1.0" encoding="utf-8"?>
<!-- Generator: Adobe Illustrator 25.0.1, SVG Export Plug-In . SVG Version: 6.00 Build 0)  -->
<svg version="1.1" id="katman_1" xmlns="http://www.w3.org/2000/svg" x="0px" y="0px"
     viewBox="0 0 841.9 595.3" style="enable-background:new 0 0 841.9 595.3;" xml:space="preserve">
<style type="text/css">
	.st0{fill:#8F6645;}
	.st1{fill:#EEEEEE;}
	.st2{fill:#DDDDDD;}
	.st3{fill:#3D3A37;}
	.st4{fill:#C4C4C4;}
	.st5{fill:#3D3A37;}
	.st6{fill:#000000;}
	.st7{fill:#FFFFFF;}
	.st8{fill:#888888;}
	.st9{fill:#7884AF;}
</style>

    <g id="chimney">
	<polygon class="st5" points="291.1,56.8 291.1,50.2 271.3,56.6 271.2,63 		"/>
        <polygon class="st6" points="296.5,177.9 317.3,181.7 318.1,81.1 318.2,77.8 324,79.4 324,71.2 320.4,70.2 320.4,67.3 320.4,65.2
		324.1,66.2 324.1,59.8 291.1,50.2 291.1,56.8 295.5,58 295.5,63.2 291,61.9 290.9,70.3 297.5,72.2 		"/>
        <polygon class="st5" points="317.3,181.7 296.5,177.9 276.4,181.9 297.2,185.6 		"/>
        <polygon class="st5" points="296.5,177.9 297.5,72.2 277.6,78.1 276.4,181.9 		"/>
        <polygon class="st5" points="324,79.4 318.2,77.8 318.1,81.1 		"/>
        <polygon class="st5" points="290.9,70.3 291,61.9 275.7,66.7 271.2,68.1 271,76.3 		"/>
        <polygon class="st6" points="291,61.9 295.5,63.2 295.5,58 275.7,64.2 275.7,66.7 		"/>
        <polygon class="st6" points="297.5,72.2 290.9,70.3 271,76.3 277.6,78.1 		"/>
        <polygon class="st5" points="295.5,58 291.1,56.8 271.2,63 275.7,64.2 		"/>
        <polygon class="st5" points="320.4,67.3 324.1,66.2 320.4,65.2 		"/>
</g>


    <g id="body">
	<g>
		<polygon class="st0" points="744.1,502.2 742.4,441.1 432.7,457.3 432.8,544.4 			"/>
        <polygon class="st0" points="128.3,443.5 126.7,508.3 341.6,533.7 362.3,536.1 432.8,544.4 432.7,457.3 412.9,456.4 			"/>
	</g>
        <g>
		<polygon class="st4" points="432.1,457.5 741.9,441.3 736.1,234.8 736,233.3 431.7,164.9 			"/>
            <polygon class="st4" points="431.7,164.9 133.1,223.3 133.1,225 127.7,443.5 130.3,443.6 412.3,456.6 432.1,457.5 			"/>
	</g>
</g>

    <g id="roof">
	<g>
		<polygon class="st3" points="742.8,218.3 559.4,70.6 514.7,54.6 509.2,50.2 435.3,142.2 			"/>
        <polygon class="st3" points="341.4,96 129.4,206.8 433.2,141.6 435.3,142.2 509.2,50.2 			"/>
	</g>
        <g>
		<polygon class="st2" points="736.1,235.2 748.6,233.9 432.4,161.6 119.5,223.7 133.1,225.4 133.1,223.7 431.7,165.4 736,233.8 
						"/>
            <polygon class="st2" points="109.1,213.9 433,146.3 433,145.4 			"/>
            <polygon class="st2" points="433,145.4 433,146.3 757.9,225.3 			"/>
            <polygon class="st2" points="757.9,225.3 433,146.3 433,147.2 757.9,225.9 			"/>
            <polygon class="st2" points="433,145.4 758.2,224.8 433.1,144.6 			"/>
            <polygon class="st2" points="433.1,144.6 758.7,224.3 433.1,143.9 			"/>
            <polygon class="st2" points="433.1,144.6 433.1,143.9 107.9,213.1 108.6,213.4 			"/>
            <polygon class="st2" points="433,145.4 433.1,144.6 108.6,213.4 			"/>
            <polygon class="st2" points="433,147.2 433,146.3 109.5,214.5 			"/>
            <polygon class="st2" points="757.9,225.9 433,147.2 109.6,215.1 112.8,215.6 111.6,215.1 432.9,147.8 756,225.9 755,226.2 			"/>
            <polygon class="st2" points="756,225.9 432.9,147.8 432.8,148.7 754.9,226.2 			"/>
            <polygon class="st2" points="432.8,148.7 432.9,147.8 111.6,215.1 112.7,215.5 			"/>
            <polygon class="st2" points="754.9,226.2 432.8,148.7 432.8,149.6 753.9,226.7 			"/>
            <polygon class="st2" points="753.9,226.7 432.8,149.6 432.7,150.7 753,227.2 			"/>
            <polygon class="st2" points="753,227.2 432.7,150.7 432.7,151.8 752.1,227.8 			"/>
            <polygon class="st2" points="432.7,151.8 432.7,150.7 114.8,216.6 115.8,217.2 			"/>
            <polygon class="st2" points="432.8,149.6 432.8,148.7 112.7,215.5 113.8,216 			"/>
            <polygon class="st2" points="432.7,150.7 432.8,149.6 113.8,216 114.8,216.6 			"/>
            <polygon class="st2" points="752.1,227.8 432.7,151.8 432.6,152.9 751.3,228.4 			"/>
            <polygon class="st2" points="432.6,152.9 432.7,151.8 115.8,217.2 116.6,217.8 			"/>
            <polygon class="st2" points="751.3,228.4 432.6,152.9 432.6,154.1 750.6,229.1 			"/>
            <polygon class="st2" points="750.6,229.1 432.6,154.1 432.5,155.4 750,229.8 			"/>
            <polygon class="st2" points="750,229.8 432.5,155.4 432.5,156.6 749.5,230.6 			"/>
            <polygon class="st2" points="432.5,156.6 432.5,155.4 118,219.3 118.6,220.1 			"/>
            <polygon class="st2" points="749.5,230.6 432.5,156.6 432.5,157.9 749.1,231.3 			"/>
            <polygon class="st2" points="749.1,231.3 432.5,157.9 432.5,159.1 748.9,232.2 			"/>
            <polygon class="st2" points="748.9,232.2 432.5,159.1 432.4,160.4 748.7,233 			"/>
            <polygon class="st2" points="748.7,233 432.4,160.4 432.4,161.6 748.6,233.9 			"/>
            <polygon class="st2" points="119.3,221.9 119.5,222.8 432.4,160.4 432.5,159.1 			"/>
            <path class="st2" d="M106.2,212.7l1.1,0.1L106.2,212.7z"/>
            <polygon class="st2" points="118.6,220.1 119,221 432.5,157.9 432.5,156.6 			"/>
            <polygon class="st2" points="119,221 119.3,221.9 432.5,159.1 432.5,157.9 			"/>
            <polygon class="st2" points="119.5,222.8 119.5,223.7 432.4,161.6 432.4,160.4 			"/>
            <polygon class="st2" points="117.4,218.6 118,219.3 432.5,155.4 432.6,154.1 			"/>
            <polygon class="st2" points="106.2,212.7 107.1,212.8 433.2,143.3 			"/>
            <polygon class="st2" points="433.2,142.9 760.1,223.7 760.9,223.7 			"/>
            <polygon class="st2" points="433.2,142.9 760.9,223.7 760.9,222.8 742.8,218.3 435.3,142.2 433.2,141.6 			"/>
            <polygon class="st2" points="433.2,142.9 433.2,141.6 129.5,206.8 106.3,211.8 106.2,212.7 			"/>
            <polygon class="st2" points="760.1,223.7 433.2,143.3 759.4,224 			"/>
            <polygon class="st2" points="433.1,143.9 107.1,212.8 107.9,213.1 			"/>
            <polygon class="st2" points="116.6,217.8 117.4,218.6 432.6,154.1 432.6,152.9 			"/>
            <path class="st2" d="M433.1,143.9l0,0.7 M432.7,151.8l0,1.2 M431.7,165.4l-298.6,58.3"/>
            <path class="st2" d="M433.1,144.6l0,0.8 M433,145.4l0,0.9 M432.5,155.4l0,1.3 M433,146.3v0.9 M432.9,147.8L756,225.9
			 M432.7,150.7l0,1.1 M433.2,142.9l327.7,80.8 M433.2,141.6v1.3 M432.8,148.7l-0.1,1 M433,147.2l324.8,78.7 M432.9,147.8l-0.1,0.9
			 M432.8,149.6l-0.1,1"/>
            <path class="st2" d="M736.1,235.2l12.6-1.4 M112.8,215.6l-3.2-0.4 M114.8,216.6l0.9,0.6 M111.6,215.1l1.2,0.4 M107.9,213.1
			l0.7,0.4 M113.8,216l1,0.5 M119.3,221.9l0.2,0.9 M107.3,212.9l-1.1-0.1 M118,219.3l0.5,0.8 M118.6,220.1l0.4,0.8 M119,221
			l0.3,0.9 M119.5,222.8l0.1,0.9 M117.4,218.6l0.6,0.8 M115.8,217.2l0.8,0.7"/>
            <line class="st2" x1="107.1" y1="212.8" x2="106.2" y2="212.7"/>
            <line class="st2" x1="760.1" y1="223.7" x2="760.9" y2="223.7"/>
            <line class="st2" x1="432.4" y1="161.6" x2="432.4" y2="160.4"/>
            <line class="st2" x1="760.9" y1="223.7" x2="760.9" y2="222.8"/>
            <path class="st2" d="M753,227.2l-0.9,0.6 M748.9,232.2l-0.2,0.8 M750.6,229.1l-0.6,0.7"/>
            <path class="st2" d="M432.6,152.9l0,1.2 M432.6,154.1l0,1.2 M432.5,156.6l0,1.3"/>
            <line class="st2" x1="119.5" y1="223.7" x2="133.1" y2="225.4"/>
            <line class="st2" x1="432.4" y1="161.6" x2="748.6" y2="233.9"/>
            <line class="st2" x1="433" y1="147.2" x2="109.6" y2="215.1"/>
            <line class="st2" x1="433.2" y1="141.6" x2="129.5" y2="206.8"/>
            <path class="st2" d="M106.2,212.7l327-69.8 M111.6,215.1l321.3-67.4 M119.5,223.7l312.9-62.1 M431.7,165.4L736,233.8"/>
            <path class="st2" d="M606.3,204.6l3-0.4 M566.4,195.7l3.1-0.5"/>
	</g>
</g>


    <g id="right-window">
	<g>
		<polygon class="st7" points="655.1,350.9 656.8,435 658.5,435 656.9,350.8 				"/>
        <path class="st7" d="M727.3,355.4l2,77l-70.7,2.6l-1.7-84.2L727.3,355.4z M711.5,377.4l-0.4-17.5l-11.6-0.7l0.4,17.7
			L711.5,377.4z M712.8,360.1l0.4,17.4l12.4,0.4l-0.4-17.2L712.8,360.1z M670.1,357.6l-9.3-0.5l0.4,18.6l9.3,0.3L670.1,357.6z
			 M726.8,426.7l-1.1-44.2l-30.9-0.9l1.1,46L726.8,426.7z M698.3,377l-0.4-17.8l-12.6-0.7l0.4,18L698.3,377z M683.6,376.5
			l-0.4-18.1l-11.1-0.6l0.4,18.4L683.6,376.5z M692.5,381.5l-31.3-0.9l1,48l31.3-0.9L692.5,381.5z"/>
	</g>
        <g>
		<polygon class="st9" points="699.5,359.3 699.9,377 711.5,377.4 711.1,360 				"/>
            <polygon class="st9" points="725.6,377.9 725.1,360.8 712.8,360.1 713.2,377.5 				"/>
            <polygon class="st9" points="661.1,375.7 670.5,376 670.1,357.6 660.8,357.1 				"/>
            <polygon class="st9" points="694.8,381.6 695.8,427.6 726.8,426.7 725.7,382.5 				"/>
            <polygon class="st9" points="685.3,358.5 685.7,376.5 698.3,377 697.9,359.2 				"/>
            <polygon class="st9" points="672.1,357.7 672.5,376.1 683.6,376.5 683.2,358.4 				"/>
            <polygon class="st9" points="662.2,428.6 693.6,427.7 692.5,381.5 661.2,380.6 				"/>
	</g>
        <path class="st44" d="M655.1,350.9l1.6,84.1 M656.9,350.8l-1.8,0.1"/>
        <path class="st44" d="M658.5,435l-1.8,0 M727.3,355.4l-70.4-4.5 M658.5,435l70.7-2.6 M729.3,432.4l-2-77"/>
</g>


    <g>
	<g>
		<g>
			<g>
				<polygon class="st7" points="313.2,237 311.4,237.3 309.6,407.9 311.5,407.9 				"/>
                <polygon class="st7" points="393.1,418.1 393.7,218.9 389.2,218.2 388.5,418.2 				"/>
                <path class="st7" d="M297.6,233.1l91.6-14.9l-0.7,200l-93.1-1.1L297.6,233.1z M311.4,237.3l-7.7,1.2l-1.9,169.3l7.8,0l1.9,0
					l9.9,0l1.6-172.4l-9.8,1.5L311.4,237.3z M326.7,407.9l54.4,0.2l0.8-181.9l-53.6,8.4L326.7,407.9z"/>
			</g>
            <g>
				<polygon class="st9" points="323,235.5 313.2,237 311.5,407.9 321.4,407.9 				"/>
                <polygon class="st9" points="301.7,407.9 309.6,407.9 311.4,237.3 303.6,238.5 				"/>
                <polygon class="st9" points="381.8,226.3 328.3,234.7 326.7,407.9 381.1,408.1 				"/>
			</g>
		</g>
        <g>
			<g>
				<polygon class="st9" points="222.7,376.7 201.3,377.3 198.6,508.3 220.3,510.7 				"/>
                <path class="st9" d="M194.7,377.5L192,507.6l-21.2-2.3l2.8-127.2L194.7,377.5z M187.4,450.1l-0.2,8.4l2.3,0.1l1.7-0.1l0.2-8.4
					l-2.3-0.1L187.4,450.1z"/>
			</g>
            <polygon class="st2" points="191.4,450.2 189.1,450 187.4,450.1 189.7,450.2 			"/>
            <g>
				<polygon class="st2" points="233,520.5 235.6,366.9 227.4,366.7 224.7,521.3 				"/>
                <path class="st8" d="M224.7,521.3l-58.1-7l3.3-145.4l57.6-2.2L224.7,521.3z M198.6,508.3l21.6,2.4l2.4-134l-21.4,0.6
					L198.6,508.3z M192,507.6l2.7-130.1l-21,0.6l-2.8,127.2L192,507.6z"/>
                <polygon class="st7" points="191.3,458.6 191.4,450.2 189.7,450.2 189.5,458.6 				"/>
                <polygon class="st7" points="189.7,450.2 187.4,450.1 187.2,458.5 189.5,458.6 				"/>
			</g>
		</g>
        <g>
			<polygon class="st2" points="652.6,313.5 723,321.2 724.7,321.1 654.4,313.4 			"/>
            <g>
				<polygon class="st7" points="651,231.3 652.6,313.5 654.4,313.4 652.7,231.1 				"/>
                <path class="st7" d="M722.7,245.6l2,75.5l-70.3-7.7l-1.6-82.3L722.7,245.6z M707.1,264.9l-0.4-17.1l-11.5-2.3l0.4,17.4
					L707.1,264.9z M708.3,248.1l0.4,17.1l12.3,2.2l-0.4-16.8L708.3,248.1z M665.9,239.6l-9.2-1.9l0.4,18.2l9.3,1.7L665.9,239.6z
					 M722.3,315.2l-1.1-43.3l-30.8-5.3l1,45.1L722.3,315.2z M693.9,262.5l-0.4-17.4l-12.5-2.5l0.4,17.7L693.9,262.5z M679.3,259.9
					l-0.4-17.7l-11-2.2l0.4,17.9L679.3,259.9z M688.1,266.2l-31.1-5.4l0.9,46.9l31.2,3.6L688.1,266.2z"/>
			</g>
            <g>
				<polygon class="st9" points="695.1,245.5 695.5,262.8 707.1,264.9 706.6,247.8 				"/>
                <polygon class="st9" points="721,267.4 720.6,250.6 708.3,248.1 708.7,265.2 				"/>
                <polygon class="st9" points="657,255.9 666.2,257.6 665.9,239.6 656.6,237.7 				"/>
                <polygon class="st9" points="690.4,266.5 691.4,311.6 722.3,315.2 721.2,271.9 				"/>
                <polygon class="st9" points="681,242.6 681.4,260.3 693.9,262.5 693.5,245.1 				"/>
                <polygon class="st9" points="667.9,240 668.3,258 679.3,259.9 678.9,242.2 				"/>
                <polygon class="st9" points="658,307.7 689.2,311.3 688.1,266.2 657.1,260.8 				"/>
			</g>
            <line class="st44" x1="652.7" y1="231.1" x2="722.7" y2="245.6"/>
            <path class="st44" d="M724.7,321.1l-1.7,0.1 M724.7,321.1l-2-75.5"/>
		</g>


        <g>
			<g>
				<polygon class="st7" points="510,341.4 510.8,440.4 512.6,440.5 511.9,341.3 				"/>
                <path class="st7" d="M607.9,347.5l1.4,89.5l-96.6,3.6l-0.7-99.2L607.9,347.5z M586.3,373l-0.3-20.3l-15.7-0.9l0.3,20.7
					L586.3,373z M588.3,352.8l0.3,20.3l16.7,0.6l-0.3-19.9L588.3,352.8z M530,349.4l-12.8-0.7l0.2,21.9l12.9,0.4L530,349.4z
					 M606.1,430.3l-0.8-51.4l-41.9-1.2l0.6,53.8L606.1,430.3z M568.4,372.3l-0.3-20.7l-17.2-1l0.2,21.1L568.4,372.3z M548.3,371.6
					l-0.2-21.2l-15.2-0.9l0.2,21.5L548.3,371.6z M560.3,377.6l-42.9-1.2l0.4,56.5l43.1-1.3L560.3,377.6z"/>
			</g>
            <g>
				<polygon class="st9" points="570.3,351.7 570.5,372.4 586.3,373 586,352.6 				"/>
                <polygon class="st9" points="605.2,373.6 604.9,353.7 588.3,352.8 588.5,373 				"/>
                <polygon class="st9" points="517.4,370.6 530.2,371 530,349.4 517.2,348.7 				"/>
                <polygon class="st9" points="563.4,377.7 564.1,431.6 606.1,430.3 605.3,378.9 				"/>
                <polygon class="st9" points="550.9,350.6 551.2,371.7 568.4,372.3 568.1,351.6 				"/>
                <polygon class="st9" points="532.9,349.6 533.1,371.1 548.3,371.6 548.1,350.4 				"/>
                <polygon class="st9" points="517.8,432.9 561,431.7 560.3,377.6 517.4,376.4 				"/>
			</g>
            <path class="st44" d="M510,341.4l0.7,99.1 M511.9,341.3l-1.9,0.1"/>
            <path class="st44" d="M512.6,440.5l-1.9,0 M607.9,347.5l-96-6.2 M512.6,440.5l96.6-3.6 M609.3,436.9l-1.4-89.5"/>
		</g>


        <g>
			<polygon class="st2" points="507.9,297.4 603.7,307.9 605.5,307.8 509.7,297.3 			"/>
            <g>
				<polygon class="st7" points="507.2,200.9 507.9,297.4 509.7,297.3 509.1,200.6 				"/>
                <path class="st7" d="M604.1,220.4l1.3,87.3l-95.7-10.5l-0.7-96.6L604.1,220.4z M582.7,242.1l-0.3-19.9l-15.6-3.1l0.2,20.2
					L582.7,242.1z M584.6,222.7l0.3,19.8l16.5,3l-0.3-19.5L584.6,222.7z M527,211.1l-12.7-2.6l0.2,21.3l12.7,2.3L527,211.1z
					 M602.3,300.9l-0.8-50.2l-41.5-7.2l0.6,52.5L602.3,300.9z M564.9,239l-0.2-20.2l-17-3.4l0.2,20.6L564.9,239z M545.1,235.4
					l-0.2-20.7l-15-3l0.2,21L545.1,235.4z M557,243l-42.5-7.4l0.4,55.1l42.7,5L557,243z"/>
			</g>
            <g>
				<polygon class="st9" points="566.8,219.1 567.1,239.3 582.7,242.1 582.4,222.3 				"/>
                <polygon class="st9" points="601.5,245.5 601.2,226 584.6,222.7 584.9,242.5 				"/>
                <polygon class="st9" points="514.4,229.9 527.2,232.2 527,211.1 514.3,208.6 				"/>
                <polygon class="st9" points="560,243.5 560.6,296 602.3,300.9 601.5,250.7 				"/>
                <polygon class="st9" points="547.7,215.3 547.9,235.9 564.9,239 564.7,218.7 				"/>
                <polygon class="st9" points="529.8,211.7 530,232.7 545.1,235.4 544.9,214.7 				"/>
                <polygon class="st9" points="514.9,290.7 557.6,295.6 557,243 514.5,235.6 				"/>
			</g>
            <line class="st7" x1="509.1" y1="200.6" x2="604.1" y2="220.4"/>
            <path class="st7" d="M605.5,307.8l-1.8,0.1 M605.5,307.8l-1.3-87.3"/>
		</g>
	</g>
</g>
</svg>
