<?xml version="1.0" encoding="utf-8"?>
<!-- Generator: Adobe Illustrator 25.0.1, SVG Export Plug-In . SVG Version: 6.00 Build 0)  -->
<svg version="1.1" id="katman_1" xmlns="http://www.w3.org/2000/svg" x="0px" y="0px"
     viewBox="0 0 841.9 595.3" style="enable-background:new 0 0 841.9 595.3;" xml:space="preserve">
<style type="text/css">
	.st0{fill:#8F6645;}
	.st1{fill:#EEEEEE;}
	.st2{fill:#DDDDDD;}
	.st3{fill:#3D3A37;}
	.st4{fill:#C4C4C4;}
	.st5{fill:#3D3A37;}
	.st6{fill:#000000;}
	.st7{fill:#FFFFFF;}
	.st8{fill:#888888;}
	.st9{fill:#7884AF;}
</style>

    <g id="chimney">
	<polygon class="st6" points="480.6,72.6 480.6,69.6 475.2,71.8 475.2,62.6 478.7,61 478.7,57.4 478.7,55.3 475.1,56.8 475,49.6
		502.9,37.1 503,44.6 499.7,46 499.8,51.9 503,50.5 503.1,60.1 498,62.2 499.4,182.8 481.7,187.7 		"/>
        <polygon class="st5" points="528.4,185.8 510.4,190.6 481.7,187.7 499.4,182.8 		"/>
        <polygon class="st5" points="528.6,50.6 528.6,54.5 503,50.5 499.8,51.9 499.7,46 		"/>
        <polygon class="st6" points="532.1,64.5 526.8,66.6 498,62.2 503.1,60.1 		"/>
        <polygon class="st5" points="528.6,54.5 531.9,55.1 532.1,64.5 503.1,60.1 503,50.5 		"/>
        <polygon class="st5" points="526.8,66.6 528.4,185.8 499.4,182.8 498,62.2 		"/>
        <polygon class="st5" points="480.6,72.6 475.2,71.8 480.6,69.6 		"/>
        <polygon class="st5" points="478.7,57.4 475.1,56.8 478.7,55.3 		"/>
        <polygon class="st5" points="531.7,41.8 531.9,49.2 503,44.6 502.9,37.1 		"/>
        <polygon class="st6" points="499.7,46 503,44.6 531.9,49.2 528.6,50.6 		"/>
</g>


    <g>
	<g>
		<polygon class="st0" points="274.2,573.8 274.7,476.6 485.3,470.2 486.1,538.7 486.4,559 			"/>
        <polygon class="st0" points="68.9,516.3 70.4,451.6 274.7,476.6 274.2,573.8 			"/>
        <polygon class="st0" points="603.8,520.4 500.5,526.1 499.7,464 602.6,461.1 			"/>
        <polygon class="st0" points="670.2,516.7 620.2,519.5 618.8,460.7 668.7,459.3 			"/>
		</g>
        <g>
			<polygon class="st4" points="276.7,149.8 482,171 482,175.5 482,176.6 482.1,177.4 482.1,178.3 482.1,179.2 482.1,180.2 
				482.1,181.3 482.1,182.4 482.1,183.5 482.1,184.6 482.1,185.8 482.2,186.9 482.2,188.1 482.2,190.5 483.6,311.6 483.8,332
				484.1,352.5 485.4,470.7 274.8,477.1 			"/>
            <polygon class="st4" points="75.4,234.1 75.5,232.8 276.7,149.8 274.8,477.1 70.5,452.2 			"/>
            <polygon class="st4" points="618.9,461.2 616.6,359.3 666.1,360.4 668.8,459.9 			"/>
            <polygon class="st4" points="602.7,461.7 499.8,464.5 498.5,356.9 600.5,359 			"/>
            <polygon class="st4" points="662.1,209.9 665.2,323.4 643.8,318.2 483.6,311.6 482.2,190.5 662.1,207.5 			"/>
	</g>
</g>


    <g id="roof">
	<g>
		<polygon class="st3" points="501.5,164.9 502.3,163.7 503.1,162.6 504.2,161.6 505.3,160.6 506.6,159.7 507.4,159.2 
			513.7,157.4 513.9,156.6 514.3,155.8 515.6,154.7 518.3,154 513.8,157 489.8,154.3 325,56.4 451.7,74.6 672,190 493.6,171.5 
			500.2,169.7 500.3,168.5 500.5,167.3 501,166.1 			"/>
        <polygon class="st3" points="236.5,50.9 239.2,49.2 274.4,26.9 276,130.6 264.1,129.2 73.7,217.7 236.6,48.9 			"/>
        <polygon class="st3" points="331.1,60 499,158.2 276,131.7 274.4,26.9 			"/>
	</g>
        <path class="st3" d="M274.4,113.8l0.4,1.3 M273,110.3l0.5,1.1 M275.4,117.9l0.2,1.4"/>
        <g>
		<polygon class="st2" points="264.5,129.8 513.6,157.4 507.8,158.9 509.3,158.2 510.9,157.6 265.6,130.4 57.2,225.2 54.7,225 			
			"/>
            <polygon class="st2" points="267.8,134.8 268.3,136 60.2,226.8 			"/>
            <polygon class="st2" points="269,138.7 269.3,140.1 62.6,229.6 62.1,228.8 			"/>
            <polygon class="st2" points="266.2,131.4 57.5,225.3 56.5,224.9 265.6,130.4 			"/>
            <polygon class="st2" points="267.3,133.6 267.8,134.8 60.2,226.8 59.3,226.2 			"/>
            <polygon class="st2" points="58.5,225.7 266.8,132.4 267.3,133.6 59.3,226.2 			"/>
            <polygon class="st2" points="57.5,225.3 266.2,131.4 266.8,132.4 58.5,225.7 			"/>
            <polygon class="st2" points="61.6,228.1 268.6,137.3 269,138.7 62.1,228.8 			"/>
            <polygon class="st2" points="268.6,137.3 60.9,227.4 268.3,136 			"/>
            <polygon class="st2" points="269.5,141.5 63,230.4 62.6,229.6 269.3,140.1 			"/>
            <polygon class="st2" points="269.6,142.9 63.2,231.3 63,230.4 269.5,141.5 			"/>
            <polygon class="st2" points="269.7,144.2 63.4,232.1 63.2,231.3 269.6,142.9 			"/>
            <polygon class="st2" points="269.8,145.6 63.5,233 63.4,232.1 269.7,144.2 			"/>
            <polygon class="st2" points="75.4,232.5 75.4,233.8 63.5,233 269.8,145.6 500.1,169.7 493.5,171.5 489.6,172.6 488.4,172.9
				486.9,173.4 485,173.9 482.9,174.5 482,174.7 481.9,170.7 276.7,149.5 			"/>
            <polygon class="st2" points="269.7,144.2 500.2,168.5 500.1,169.7 269.8,145.6 			"/>
            <polygon class="st2" points="269.6,142.9 500.4,167.3 500.2,168.5 269.7,144.2 			"/>
            <polygon class="st2" points="269.5,141.5 500.9,166.1 500.4,167.3 269.6,142.9 			"/>
            <polygon class="st2" points="685.9,196.8 687.3,196.3 482,175.2 689.6,196.2 685.4,197.1 			"/>
            <polygon class="st2" points="482.1,185.5 482.1,184.3 678.6,203.4 678.2,204.4 			"/>
            <polygon class="st2" points="482.1,183.2 679.1,202.4 678.6,203.4 482.1,184.3 			"/>
            <polygon class="st2" points="482.1,182.1 679.7,201.5 679.1,202.4 482.1,183.2 			"/>
            <polygon class="st2" points="482,181 680.5,200.6 679.7,201.5 482.1,182.1 			"/>
            <polygon class="st2" points="482,179.9 681.3,199.7 680.5,200.6 482,181 			"/>
            <polygon class="st2" points="678,205.5 482.1,186.6 482.1,185.5 678.2,204.4 			"/>
            <polygon class="st2" points="482,174.7 482.9,174.5 689.6,196.2 			"/>
            <polygon class="st2" points="482,175.6 687.3,196.3 685.9,196.8 			"/>
            <polygon class="st2" points="685.4,197.1 684.6,197.5 482,177.1 482,176.3 685.9,196.8 			"/>
            <polygon class="st2" points="482.1,187.7 482.1,186.6 678,205.5 677.9,206.5 			"/>
            <polygon class="st2" points="662.1,209.6 662,207.2 482.2,190.1 482.1,187.7 677.9,206.5 			"/>
            <polygon class="st2" points="482,179.9 482,178.9 682.3,198.9 681.3,199.7 			"/>
            <polygon class="st2" points="482,178 683.4,198.1 682.3,198.9 482,178.9 			"/>
            <polygon class="st2" points="482,177.1 684.6,197.5 683.4,198.1 482,178 			"/>
            <polygon class="st2" points="485,173.9 486.9,173.4 690.1,194.8 			"/>
            <polygon class="st2" points="692.6,193.5 693.6,193.3 692,193.7 			"/>
            <polygon class="st2" points="490.4,172.4 693.6,193.3 692.6,193.5 			"/>
            <polygon class="st2" points="691.6,193.8 488.4,172.9 489.6,172.6 692.6,193.5 			"/>
            <polygon class="st2" points="690.8,194.3 486.9,173.4 488.4,172.9 691.6,193.8 			"/>
            <polygon class="st2" points="689.8,195.5 482.9,174.5 485,173.9 690.1,194.8 			"/>
            <polygon class="st2" points="490.4,172.4 493.5,171.5 671.9,190 693.5,192.2 693.6,193.3 			"/>
            <polygon class="st2" points="266.2,131.4 265.6,130.4 510.9,157.6 509.3,158.2 			"/>
            <polygon class="st2" points="269,138.7 268.6,137.3 503,162.6 502.2,163.7 			"/>
            <polygon class="st2" points="267.8,134.8 267.3,133.6 506.5,159.7 505.2,160.6 			"/>
            <polygon class="st2" points="515.9,154.5 517,154.1 518.2,153.9 515.5,154.7 			"/>
            <polygon class="st2" points="268.3,136 267.8,134.8 505.2,160.6 504.1,161.6 			"/>
            <polygon class="st2" points="268.6,137.3 268.3,136 504.1,161.6 503,162.6 			"/>
            <polygon class="st2" points="269.5,141.5 269.3,140.1 501.4,164.9 500.9,166.1 			"/>
            <polygon class="st2" points="269,138.7 502.2,163.7 501.4,164.9 269.3,140.1 			"/>
            <polygon class="st2" points="266.8,132.4 266.2,131.4 509.3,158.2 507.8,158.9 			"/>
            <polygon class="st2" points="507.3,159.2 506.5,159.7 267.3,133.6 266.8,132.4 507.8,158.9 			"/>
            <line class="st2" x1="57.2" y1="225.2" x2="54.7" y2="225"/>
            <line class="st2" x1="56.5" y1="224.9" x2="265.6" y2="130.4"/>
            <line class="st2" x1="59.3" y1="226.2" x2="60.2" y2="226.8"/>
            <path class="st2" d="M57.6,225.3l0.9,0.4"/>
            <path class="st2" d="M58.4,225.7l0.9,0.5"/>
            <line class="st2" x1="481.9" y1="170.7" x2="276.7" y2="149.5"/>
            <line class="st2" x1="500.1" y1="169.7" x2="269.8" y2="145.6"/>
            <path class="st2" d="M689.6,196.2l-4.2,0.9 M678.6,203.4l-0.4,1"/>
            <line class="st2" x1="75.4" y1="233.8" x2="63.5" y2="233"/>
            <line class="st2" x1="687.3" y1="196.3" x2="685.9" y2="196.8"/>
            <path class="st2" d="M678,205.5l-0.1,1 M682.3,198.9l-1,0.8 M681.4,199.7l-0.9,0.9 M679.7,201.4l-0.6,1 M678.2,204.5l-0.2,1
				 M693.6,193.4l-1.6,0.3"/>
            <line class="st2" x1="693.6" y1="193.3" x2="692.6" y2="193.5"/>
            <path class="st2" d="M680.5,200.6l-0.8,0.9 M684.6,197.4l-1.2,0.7 M679.1,202.4l-0.5,1 M693.6,192.2v1.1 M683.4,198.2l-1.1,0.7
				 M691.6,193.8l-0.8,0.5 M500.8,166.1l-0.4,1.2 M510.8,157.6l-1.5,0.6 M503.1,162.6l-0.9,1.1 M506.5,159.7l-1.3,0.9 M518.1,153.9
				l-2.6,0.8 M505.2,160.6l-1.1,1 M504,161.6l-1,1"/>
            <line class="st2" x1="482" y1="175.6" x2="687.3" y2="196.3"/>
            <path class="st2" d="M513.6,157.4l-6.3,1.8 M501.5,164.9l-0.6,1.2 M500.2,168.5l-0.1,1.2 M517,154.1l-1.1,0.4 M509.3,158.2
				l-1.5,0.7"/>
            <line class="st2" x1="518.2" y1="153.9" x2="517" y2="154.1"/>
            <path class="st2" d="M500.5,167.3l-0.3,1.2 M518.2,152.6v1.3"/>
            <line class="st2" x1="490.4" y1="172.4" x2="693.6" y2="193.3"/>
            <line class="st2" x1="513.8" y1="156.6" x2="513.6" y2="157.4"/>
            <line class="st2" x1="514.2" y1="155.8" x2="513.8" y2="156.6"/>
            <path class="st2" d="M63.4,232.1l0.1,0.9 M502.1,163.8l-0.7,1.1"/>
            <line class="st2" x1="62.6" y1="229.6" x2="63" y2="230.4"/>
            <line class="st2" x1="677.9" y1="206.5" x2="662.1" y2="209.6"/>
            <path class="st2" d="M154.2,200l-3.7-0.3"/>
	</g>
</g>


    <g id="right-window">
	<g>
		<path class="st7" d="M237,343.8l-1.1,116.5l-69.4-6.2l1.5-102.9L237,343.8z M217.9,378.9l0.3-25L206,355l-0.3,24.5L217.9,378.9
			z M220,353.7l-0.3,25.1l14.2-0.7l0.2-25.7L220,353.7z M178.6,357.5l-7.7,0.7l-0.3,23l7.7-0.4L178.6,357.5z M233.3,451.4
			l0.6-66.4l-33.5,1.3l-0.8,62.6L233.3,451.4z M204.1,379.6l0.3-24.4l-12.2,1.1l-0.3,23.9L204.1,379.6z M190,380.3l0.3-23.8
			l-9.9,0.9l-0.3,23.4L190,380.3z M198.1,386.3l-27.7,1l-0.8,59.3l27.8,2.1L198.1,386.3z"/>
        <polygon class="st7" points="238.5,460.3 235.9,460.3 236.9,343.8 239.5,343.9 				"/>
	</g>
        <g>
			<polygon class="st9" points="218.1,353.9 217.9,378.9 205.7,379.5 206,355 				"/>
            <polygon class="st9" points="219.7,378.8 220,353.7 234.1,352.4 233.9,378.1 				"/>
            <polygon class="st9" points="170.9,358.2 178.6,357.5 178.3,380.8 170.6,381.2 				"/>
            <polygon class="st9" points="233.8,385 233.2,451.4 199.6,448.9 200.4,386.2 				"/>
            <polygon class="st9" points="204.3,355.2 204.1,379.6 191.9,380.2 192.2,356.3 				"/>
            <polygon class="st9" points="190.3,356.5 190,380.3 180.1,380.8 180.4,357.4 				"/>
            <polygon class="st9" points="170.5,387.3 198.1,386.3 197.4,448.7 169.6,446.6 				"/>
	</g>
        <path class="st17" d="M168,351.2l-1.5,102.9 M236.9,343.8l2.6,0.1 M237,343.9l-69,7.3 M166.5,454.1l69.4,6.2 M235.9,460.4
			l2.6-0.1 M238.5,460.3l1-116.4"/>
</g>


    <g>
	<g>
		<g>
			<polygon class="st4" points="492.3,537.2 495.1,537.7 500.5,537.3 500.4,526.1 603.7,520.4 603.9,530.3 608,530.8 612.9,530.1 
				615.3,530.4 620.2,530.1 620,519.5 670.1,516.7 712.3,521.5 712.4,523.8 716.7,524.3 721.1,523.6 723.3,523.9 727.7,523.2 
				732.1,523.7 486,538 486.8,538.2 492.3,537.8 			"/>
            <polygon class="st0" points="621.1,549.6 620.9,542.7 608.4,540.8 504.6,547.6 504.7,557.7 486.2,559 486,538.7 732.1,523.7
				732.7,541.8 			"/>
            <polygon class="st4" points="516.3,549.6 516.5,559.9 504.7,557.7 504.6,547.6 			"/>
            <polygon class="st4" points="608.4,540.8 620.9,542.7 516.3,549.6 504.6,547.6 			"/>
            <polygon class="st0" points="620.9,542.7 621.1,549.6 621.1,552.4 516.5,559.9 516.3,549.6 			"/>
		</g>
        <g>
			<polygon class="st3" points="716.3,357.7 711.9,357.6 707.7,357.8 707.7,359.2 674.6,360.6 666.3,360.4 616.7,359.4 616.6,355.5 
				611.8,355.4 609.4,355.3 604.5,355.2 600.5,355.4 600.6,359.1 498.6,357 498.5,352.8 493.2,352.7 490.5,352.7 485,352.5 
				484.2,352.3 491.7,351.9 744.5,357.7 722.8,357.9 718.5,357.8 			"/>
            <polygon class="st3" points="491.5,335.3 491.7,351.9 484.2,352.3 483.9,332.1 			"/>
            <polygon class="st3" points="744,343 744.5,357.7 491.7,351.9 491.5,335.3 			"/>
            <polygon class="st3" points="483.9,332.1 483.7,311.7 644,318.3 665.3,323.5 744,343 491.5,335.3 			"/>
		</g>
	</g>


        <g>
		<g>
			<g>
				<path class="st7" d="M130.3,354.8l-1.7,96.1l-47.9-4.3l1.9-86.7L130.3,354.8z M117.1,383.7l0.4-20.8l-8.4,0.8l-0.4,20.4
					L117.1,383.7z M118.7,362.8l-0.4,20.8l9.7-0.5l0.4-21.2L118.7,362.8z M90,365.5l-5.4,0.5l-0.4,19.3l5.4-0.3L90,365.5z
					 M126.8,443.6l1-54.8l-22.9,0.9l-1,52.2L126.8,443.6z M107.5,384.2l0.4-20.4l-8.4,0.8l-0.4,20L107.5,384.2z M97.8,384.7
					l0.4-19.9l-6.9,0.6L90.9,385L97.8,384.7z M103.4,389.7l-19.3,0.7L83,440.3l19.4,1.5L103.4,389.7z"/>
                <polygon class="st7" points="130.9,450.9 128.6,450.9 130.3,354.9 132.6,354.9 				"/>
			</g>
            <g>
				<polygon class="st9" points="117.5,362.9 117.1,383.7 108.7,384.1 109.1,363.7 				"/>
                <polygon class="st9" points="118.3,383.6 118.7,362.8 128.4,361.9 128,383.2 				"/>
                <polygon class="st9" points="84.6,366 90.1,365.5 89.6,385 84.2,385.3 				"/>
                <polygon class="st9" points="127.9,388.8 126.9,443.6 103.9,441.9 105,389.7 				"/>
                <polygon class="st9" points="108,363.8 107.6,384.2 99.1,384.6 99.5,364.6 				"/>
                <polygon class="st9" points="98.2,364.7 97.8,384.6 90.9,385 91.3,365.3 				"/>
                <polygon class="st9" points="84.1,390.5 103.4,389.7 102.4,441.8 83,440.3 				"/>
			</g>
		</g>
            <g>
			<g>
				<polygon class="st9" points="435.9,372.3 436.2,420.4 416.4,420.5 416.2,372 				"/>
                <polygon class="st9" points="462,372.6 462.7,451.1 442.2,451.5 441.6,372.3 				"/>
                <polygon class="st9" points="436.5,451.6 416.6,452 416.5,428.2 436.3,428 				"/>
			</g>
                <g>
				<polygon class="st7" points="412.2,457.3 409.1,457.1 408.7,367 411.8,366.8 				"/>
                    <path class="st7" d="M467.1,456.1l-54.8,1.1l-0.5-90.4l54.4,0.9L467.1,456.1z M436.2,420.4l-0.3-48.1l-19.7-0.3l0.2,48.5
					L436.2,420.4z M462.7,451.1l-0.7-78.5l-20.4-0.3l0.6,79.2L462.7,451.1z M416.6,452l19.9-0.4l-0.2-23.6l-19.8,0.2L416.6,452z"/>
			</g>
		</g>
            <g>
			<g>
				<polygon class="st7" points="322.5,459.1 319.7,458.9 319.9,365.5 322.7,365.3 				"/>
                <path class="st7" d="M377.9,366.2h1.5l1.8,0.5l0.2,91.2l-58.9,1.2l0.2-93.8L377.9,366.2z M348.6,420.9V371l-21.2-0.3l-0.1,50.3
					L348.6,420.9z M376.9,452.7l-0.2-81.3l-21.9-0.3v82.1L376.9,452.7z M327.2,453.7l21.4-0.4v-24.5l-21.3,0.2L327.2,453.7z"/>
			</g>
                <g>
				<polygon class="st9" points="348.6,371 348.6,420.9 327.3,421 327.4,370.7 				"/>
                    <polygon class="st9" points="376.7,371.4 376.8,452.7 354.8,453.2 354.7,371.1 				"/>
                    <polygon class="st9" points="348.6,453.3 327.3,453.7 327.3,429.1 348.6,429 				"/>
			</g>
		</g>
            <g>
			<g>
				<polygon class="st9" points="434.7,194 435,240.8 415.5,239.4 415.2,192.3 				"/>
                <polygon class="st9" points="460.4,196.3 461.1,272.6 440.9,271.5 440.3,194.5 				"/>
                <polygon class="st9" points="435.2,271.1 415.6,270 415.5,246.9 435.1,248.2 				"/>
			</g>
                <polygon class="st1" points="465.3,277.8 462.1,278.2 408.3,275.3 411.3,274.8 			"/>
                <g>
				<polygon class="st7" points="411.3,274.8 408.3,275.3 407.9,187.8 410.9,186.9 				"/>
                    <path class="st7" d="M465.3,277.8l-54-3l-0.4-87.9l53.6,4.9L465.3,277.8z M435.1,240.7l-0.3-46.7l-19.5-1.7l0.2,47.1
					L435.1,240.7z M461.1,272.7l-0.7-76.3l-20.1-1.8l0.6,76.9L461.1,272.7z M415.7,270.1l19.6,1.1l-0.2-23l-19.6-1.3L415.7,270.1z"
                    />
			</g>
		</g>
            <g>
			<polygon class="st1" points="171,305.4 240,292.2 242.6,292.3 173.3,305.5 			"/>
                <g>
				<path class="st7" d="M240.9,178.9l-1,113.3l-69,13.2l1.5-100.4L240.9,178.9z M222.1,218.1l0.3-24.3l-12.1,4.4l-0.3,23.9
					L222.1,218.1z M224.1,193.2l-0.2,24.4L238,213l0.2-25L224.1,193.2z M183,208.3l-7.7,2.8l-0.3,22.4l7.7-2.5L183,208.3z
					 M237.3,284.3l0.6-64.6l-33.2,10.4l-0.7,61L237.3,284.3z M208.3,222.7l0.3-23.8l-12.1,4.4l-0.3,23.3L208.3,222.7z M194.3,227.2
					l0.3-23.2l-9.8,3.6l-0.3,22.8L194.3,227.2z M202.4,230.9l-27.5,8.6l-0.8,57.8l27.6-5.7L202.4,230.9z"/>
                    <polygon class="st7" points="242.6,292.3 240,292.2 241,178.9 243.5,179.1 				"/>
			</g>
                <g>
				<polygon class="st9" points="222.3,193.8 222.1,218.2 210,222.1 210.2,198.3 				"/>
                    <polygon class="st9" points="223.9,217.6 224.1,193.2 238.2,188 238,213 				"/>
                    <polygon class="st9" points="175.3,211.1 183,208.2 182.7,231 175,233.5 				"/>
                    <polygon class="st9" points="237.9,219.7 237.3,284.3 204,291.1 204.7,230.1 				"/>
                    <polygon class="st9" points="208.6,198.9 208.4,222.6 196.2,226.6 196.5,203.3 				"/>
                    <polygon class="st9" points="194.6,204 194.3,227.2 184.5,230.4 184.8,207.6 				"/>
                    <polygon class="st9" points="174.9,239.4 202.5,230.8 201.7,291.6 174.1,297.3 				"/>
			</g>
                <path class="st17" d="M173.4,305.5l69.2-13.2 M172.4,205L171,305.4 M170.9,305.4l2.4,0.1 M240.9,178.9l2.6,0.2 M241,178.9
				L172.4,205"/>
                <path class="st17" d="M171,305.4l69-13.2 M240,292.2l2.6,0.1"/>
                <line class="st17" x1="242.6" y1="292.3" x2="243.5" y2="179.1"/>
		</g>


            <g>
			<polygon class="st9" points="517.1,228.9 517.8,286 492.6,284.7 491.9,227 			"/>
                <polygon class="st7" points="484.5,291.9 488,291.4 522.4,293.1 518.8,293.6 			"/>
                <g>
				<path class="st7" d="M520.1,289.6l-29.8-1.5l-0.7-64.7l29.7,2.3L520.1,289.6z M517.8,286l-0.8-57.1l-25.1-1.9l0.7,57.7
					L517.8,286z"/>
                    <polygon class="st7" points="488,291.4 484.5,291.9 483.7,220.5 487.2,219.7 				"/>
                    <path class="st8" d="M488,291.5l-0.8-71.7l34.2,2.7l1,70.6L488,291.5z M490.4,288l29.8,1.5l-0.9-63.9l-29.7-2.3L490.4,288z"/>
			</g>
		</g>
            <g>
			<g>
				<polygon class="st9" points="348.7,186.3 348.7,234.7 327.7,233.3 327.8,184.5 				"/>
                <polygon class="st9" points="376.3,188.8 376.5,267.8 354.7,266.6 354.7,186.9 				"/>
                <polygon class="st9" points="348.6,266.2 327.6,265 327.7,241 348.7,242.4 				"/>
			</g>
                <polygon class="st1" points="380.9,273.1 378,273.7 366.5,273 362,272.8 361.2,272.8 320.1,270.5 322.9,270 			"/>
                <g>
				<polygon class="st7" points="322.9,270 320.1,270.5 320.4,179.9 323.1,178.9 				"/>
                    <path class="st7" d="M380.9,273.2l-58-3.2l0.2-91l57.6,5.2L380.9,273.2z M348.7,234.8v-48.4l-20.9-1.9l-0.1,48.8L348.7,234.8z
					 M376.5,267.8l-0.2-79l-21.6-1.9v79.7L376.5,267.8z M327.7,265l21,1.2v-23.8l-21-1.4V265z"/>
			</g>
                <line class="st17" x1="380.9" y1="273.1" x2="378" y2="273.7"/>
		</g>
            <g>
			<polygon class="st1" points="85.5,321.3 133.3,312.1 135.5,312.2 87.5,321.4 			"/>
                <g>
				<path class="st7" d="M134.9,218.2l-1.6,93.9l-47.8,9.2l1.8-84.9L134.9,218.2z M121.8,249.9l0.4-20.3l-8.4,3.1l-0.4,20
					L121.8,249.9z M123.4,229.2l-0.4,20.4l9.6-3.2l0.4-20.8L123.4,229.2z M94.7,239.7l-5.4,2l-0.4,19l5.4-1.8L94.7,239.7z
					 M131.7,305.5l0.9-53.6l-22.9,7.2l-1,51.1L131.7,305.5z M112.3,253l0.3-19.9l-8.4,3.1l-0.3,19.6L112.3,253z M102.5,256.3
					l0.4-19.5l-6.9,2.5l-0.4,19.2L102.5,256.3z M108.1,259.7l-19.3,6.1l-1,48.8l19.3-4L108.1,259.7z"/>
                    <polygon class="st7" points="135.5,312.2 133.3,312.1 134.9,218.2 137.2,218.4 				"/>
			</g>
                <g>
				<polygon class="st9" points="122.1,229.6 121.7,250 113.4,252.7 113.7,232.7 				"/>
                    <polygon class="st9" points="123,249.6 123.4,229.2 133,225.6 132.6,246.4 				"/>
                    <polygon class="st9" points="89.3,241.7 94.7,239.7 94.3,258.9 88.9,260.7 				"/>
                    <polygon class="st9" points="132.5,251.9 131.6,305.5 108.7,310.2 109.6,259.2 				"/>
                    <polygon class="st9" points="112.6,233.1 112.2,253.1 103.8,255.8 104.2,236.2 				"/>
                    <polygon class="st9" points="102.9,236.7 102.5,256.2 95.6,258.5 96,239.3 				"/>
                    <polygon class="st9" points="88.8,265.7 108.1,259.6 107.1,310.6 87.8,314.6 				"/>
			</g>
                <path class="st17" d="M85.5,321.3l47.8-9.2 M133.3,312.1l2.2,0.1"/>
                <line class="st17" x1="135.5" y1="312.2" x2="137.2" y2="218.4"/>
		</g>
            <g>
			<polygon class="st9" points="608.8,227.6 609.6,267.4 594.2,266.4 593.4,226.3 			"/>
                <polygon class="st9" points="629.1,229.2 630.5,294.3 614.6,293.4 613.2,227.9 			"/>
                <polygon class="st9" points="610.1,293.2 594.7,292.4 594.4,272.8 609.7,273.7 			"/>
                <polygon class="st1" points="633.9,298.6 630.6,299 588.2,296.9 591.4,296.5 			"/>
                <g>
				<polygon class="st7" points="591.4,296.5 588.2,296.9 586.8,222.5 590,221.8 				"/>
                    <path class="st7" d="M633.9,298.7l-42.5-2.1l-1.5-74.7l42.3,3.5L633.9,298.7z M609.5,267.3l-0.8-39.8l-15.3-1.2l0.8,40.1
					L609.5,267.3z M630.6,294.2l-1.5-65l-15.9-1.3l1.4,65.5L630.6,294.2z M594.8,292.4l15.4,0.8l-0.4-19.5l-15.4-0.9L594.8,292.4z"
                    />
			</g>
		</g>
	</g>
        <g>
		<g>
			<polygon class="st9" points="606.6,373.9 607.5,414.7 591.9,414.8 591.1,373.7 			"/>
            <polygon class="st9" points="627.1,374.2 628.6,440.8 612.5,441.1 611.1,374 			"/>
            <polygon class="st9" points="608,441.2 592.5,441.4 592.1,421.3 607.6,421.2 			"/>
		</g>
            <g>
			<polygon class="st7" points="589.1,445.8 585.9,445.7 584.4,369.5 587.6,369.4 			"/>
                <path class="st7" d="M632,445l-42.9,0.8l-1.5-76.5l42.7,0.7L632,445z M607.5,414.8l-0.9-40.8l-15.5-0.2l0.8,41H607.5z
				 M628.7,440.8l-1.5-66.6l-16.1-0.2l1.4,67.1L628.7,440.8z M592.5,441.5l15.5-0.3l-0.4-20l-15.5,0.1L592.5,441.5z"/>
		</g>
	</g>
        <g>
		<polygon class="st7" points="527.4,461.8 528.3,461.9 527.2,461.8 526.3,461.7 		"/>
            <polygon class="st7" points="526.6,461.4 527.4,461.8 526.3,461.7 525.4,461.3 		"/>
            <path class="st7" d="M526.6,461.4l-1.9-0.7L526.6,461.4z"/>
            <polygon class="st7" points="525.3,459.9 525.9,460.8 524.7,460.7 524.1,459.8 		"/>
            <polygon class="st7" points="525,458.9 525.3,459.9 524.1,459.8 523.8,458.8 		"/>
            <polygon class="st7" points="524.8,457.8 525,458.9 523.8,458.8 523.7,457.7 		"/>
            <polygon class="st7" points="524.9,456.7 524.8,457.8 523.7,457.7 523.8,456.6 		"/>
            <polygon class="st7" points="525.3,455.7 524.9,456.7 523.8,456.6 524.1,455.6 		"/>
            <polygon class="st7" points="525.8,454.8 525.3,455.7 524.1,455.6 524.6,454.7 		"/>
            <path class="st7" d="M526.5,454.1l-1.2-0.1L526.5,454.1z"/>
            <polygon class="st7" points="527.3,453.6 526.5,454.1 525.3,454 526.2,453.5 		"/>
            <polygon class="st7" points="528.2,453.5 527.3,453.6 526.2,453.5 527,453.4 		"/>
            <polygon class="st7" points="524.8,457.8 524.9,456.7 525.3,455.7 526.5,454.1 527.9,453.5 529.5,454.6 530,455.4 530.4,456.4
			530.5,457.5 530.4,458.6 530.1,459.6 528.9,461.2 527.4,461.8 525.9,460.8 525.3,459.9 525,458.9 		"/>
            <path class="st7" d="M529.2,461.8l-1.2-0.1L529.2,461.8z"/>
            <polygon class="st7" points="530,461.3 529.2,461.8 528,461.7 528.9,461.2 		"/>
            <path class="st7" d="M530.8,460.6l-1.2-0.1L530.8,460.6z"/>
            <polygon class="st7" points="531.3,459.7 530.7,460.6 529.6,460.5 530.1,459.6 		"/>
            <polygon class="st7" points="531.6,458.7 531.3,459.7 530.1,459.6 530.4,458.6 		"/>
            <polygon class="st7" points="531.7,457.6 531.6,458.7 530.4,458.6 530.5,457.5 		"/>
            <polygon class="st7" points="531.6,456.5 531.7,457.6 530.5,457.5 530.4,456.4 		"/>
            <polygon class="st7" points="531.2,455.5 531.6,456.5 530.4,456.4 530,455.4 		"/>
            <polygon class="st7" points="530.7,454.6 531.2,455.5 530,455.4 529.5,454.6 		"/>
            <path class="st7" d="M530.7,454.6l-1.9-0.7L530.7,454.6z"/>
            <polygon class="st7" points="528,453.5 529.1,453.6 529.9,454 528.8,453.9 527.9,453.5 		"/>
            <polygon class="st7" points="528.2,453.5 529.1,453.6 528,453.5 		"/>
            <g>
			<polygon class="st9" points="508.2,369.9 508.8,412.6 491.7,412.7 491.3,369.7 			"/>
                <polygon class="st9" points="530.8,370.1 531.8,439.9 514.1,440.2 513.1,369.9 			"/>
                <polygon class="st9" points="509.1,440.3 492.1,440.7 491.8,419.5 508.9,419.4 			"/>
		</g>
            <g>
			<polygon class="st7" points="489.2,526.6 486.2,526.1 484.5,365.2 487.5,365.1 			"/>
                <path class="st8" d="M536.6,523.9l-47.4,2.7l-1.7-161.5l46.8,0.6L536.6,523.9z M528.3,461.9l0.9-0.2l1.5-1.1l0.5-0.9l0.3-1
				l0.1-1.1l-0.1-1.1l-0.3-1l-1.3-1.5l-0.8-0.4l-0.9-0.1l-1.2-0.1l-0.9,0.2l-1.5,1.1l-0.5,0.9l-0.3,1l-0.1,1.1l0.1,1.1l0.4,1
				l1.3,1.5l0.8,0.4l0.9,0.1L528.3,461.9z M508.7,412.6l-0.5-42.7l-17-0.2l0.5,43L508.7,412.6z M531.8,439.9l-1-69.8l-17.6-0.2
				l0.9,70.3L531.8,439.9z M492,440.6l17.1-0.3l-0.3-21l-17,0.2L492,440.6z"/>
		</g>
            <path class="st7" d="M526.3,461.7l0.9,0.1 M525.5,461.3l0.8,0.4 M528.1,461.7l0.8-0.5 M524.1,459.8l0.6,0.9 M530.1,459.6
			l-0.5,0.9 M523.7,458.8l0.4,1 M530.4,458.6l-0.3,1 M523.7,457.7l0.1,1.1 M530.5,457.5l-0.1,1.1 M523.8,456.6l-0.1,1.1
			 M530.4,456.4l0.1,1.1 M524.1,455.6l-0.3,1 M530,455.4l0.4,1 M524.6,454.7l-0.5,0.9 M529.4,454.5l0.6,0.9 M525.4,453.9l0.8-0.4
			 M528,453.5l0.8,0.4 M526.1,453.6l0.9-0.2 M528.2,453.5l-1.2-0.1 M528.4,461.9l-1.2-0.1"/>
            <line class="st7" x1="487.5" y1="365.1" x2="484.5" y2="365.2"/>
            <path class="st7" d="M489.2,526.6l47.4-2.7 M525.4,459.9l-0.4-1 M526.5,454l0.8-0.4 M528.3,461.9l-0.9-0.1 M528.2,453.5l0.9,0.1
			 M530.6,454.6l0.6,0.9 M531.7,457.6l-0.1,1.1 M529.2,461.7l-0.9,0.2 M525.9,460.8l-0.6-0.9 M524.9,458.9l-0.1-1.1 M531.6,456.5
			l0.1,1.1 M529.1,453.6l0.8,0.4 M531.2,459.7l-0.5,0.9 M530,461.4l-0.8,0.4 M531.3,455.5l0.3,1 M525.3,455.7l0.5-0.9 M524.8,457.8
			l0.1-1.1 M531.6,458.7l-0.3,1 M525,456.7l0.3-1"/>
	</g>
        <g>
		<polygon class="st4" points="484.8,352.5 490.2,352.9 492.4,538.5 486.9,538.8 		"/>
            <polygon class="st4" points="490.2,352.9 492.9,352.7 495.2,538.3 492.4,537.8 		"/>
            <polygon class="st4" points="718.2,357.8 722.6,358.6 727.8,524.2 723.4,524.5 		"/>
            <polygon class="st4" points="492.9,352.7 498.3,352.8 498.3,357 499.7,464.6 500.5,526.7 500.6,538 495.2,538.3 		"/>
            <polygon class="st4" points="485.3,470.8 483.9,352.6 484.8,352.5 486.9,538.8 486.1,538.6 		"/>
            <polygon class="st4" points="723.4,524.5 721.2,524.2 716.1,357.9 718.2,357.8 		"/>
            <polygon class="st4" points="712.4,522.1 707.5,359.2 707.4,357.8 711.7,357.6 716.8,524.9 712.5,524.4 		"/>
            <polygon class="st4" points="611.5,355.4 616.4,355.5 616.5,359.4 618.8,461.3 620.1,520.1 620.3,530.7 615.4,531 		"/>
            <polygon class="st4" points="604.3,355.2 609.1,355.5 613,531.2 608.1,531.5 		"/>
            <polygon class="st4" points="609.1,355.5 611.5,355.4 615.4,531 613,530.7 		"/>
            <polygon class="st4" points="603.8,521 602.5,461.8 600.3,359.1 600.3,355.4 604.3,355.2 608.1,531.5 604,530.9 		"/>
            <polygon class="st4" points="711.7,357.6 716.1,357.9 721.2,524.6 716.8,524.9 		"/>
            <line class="st4" x1="608.1" y1="531.5" x2="613" y2="531.2"/>
            <path class="st4" d="M492.9,352.7l5.4,0.1 M483.9,352.4l7.5-0.5"/>
            <line class="st4" x1="492.9" y1="352.7" x2="495.2" y2="538.3"/>
            <line class="st4" x1="611.5" y1="355.4" x2="615.4" y2="531"/>
            <path class="st4" d="M707.5,357.8l4.2-0.2 M711.7,357.6l4.4,0.1 M711.7,357.7l5.1,167.2 M484.8,352.6l5.4,0.1 M718.2,357.8
			l5.2,166.7"/>
	</g>
</g>
</svg>
