<?xml version="1.0" encoding="utf-8"?>
<!-- Generator: Adobe Illustrator 25.0.1, SVG Export Plug-In . SVG Version: 6.00 Build 0)  -->
<svg version="1.1" id="katman_1" xmlns="http://www.w3.org/2000/svg" x="0px" y="0px"
     viewBox="0 0 841.9 595.3" style="enable-background:new 0 0 841.9 595.3;" xml:space="preserve">
<style type="text/css">
	.st0{fill:#8F6645;}
	.st1{fill:#EEEEEE;}
	.st2{fill:#DDDDDD;}
	.st3{fill:#3D3A37;}
	.st4{fill:#C4C4C4;}
	.st5{fill:#3D3A37;}
	.st6{fill:#000000;}
	.st7{fill:#FFFFFF;}
	.st8{fill:#888888;}
	.st9{fill:#7884AF;}
</style>

    <g id="roof">
	<polygon class="st3" points="468,164.1 538.8,84.1 731,236.3 				"/>
        <polygon class="st3" points="538.8,84.1 468,164.1 465.3,163.3 282.6,208.6 374.7,134.2 379.5,131.7 				"/>
        <polygon class="st3" points="274.1,210.7 213.8,199.2 326.4,120.7 374.7,134.2 282.6,208.6 				"/>
        <polygon class="st3" points="213.8,199.2 207.5,198 123,221.7 326.4,120.7 				"/>
</g>


    <g id="body">
	<g>
		<polygon class="st0" points="464.8,536.5 400.5,531.1 400.8,469.4 464.5,471 				"/>
        <polygon class="st0" points="108.6,463.7 205.5,466.5 203.8,523.7 203.5,534.1 199.8,534.4 199.6,540.3 105.8,529.5 				"/>
        <polygon class="st0" points="209.4,466.4 207.8,523.4 203.8,523.7 205.5,466.5 				"/>
        <polygon class="st0" points="464.8,536.5 464.5,471 732.7,463.5 735,525.8 464.8,556 				"/>
        <polygon class="st0" points="222,466.2 272.4,465.2 271.3,519.3 220.5,522.6 				"/>
        <polygon class="st0" points="287.9,521.7 271.3,520.3 272.4,466.1 289,466.6 				"/>
        <polygon class="st0" points="303.2,466.9 384.5,469 384.1,529.7 302.2,522.9 				"/>
	</g>

        <g>
		<polygon class="st4" points="473.8,341.5 464.6,333.5 464.1,187.6 725.4,253.2 725.4,254.9 733.2,462.8 465,470.4 464.7,357.8
			473.9,357.2 				"/>
            <polygon class="st4" points="442.2,314.1 275.7,333.5 277.8,229.8 464.1,187.6 464.6,333.5 				"/>
            <polygon class="st4" points="206,466.8 109.1,464 118.1,244.7 118.2,242.8 213.2,218.4 209.3,351.4 199.9,354 199.5,367.7
					208.8,368.2 				"/>
            <polygon class="st4" points="209.3,351.4 213.2,218.4 277.8,229.8 275.7,333.5 				"/>
            <polygon class="st4" points="401.3,468.7 401.8,362.6 464.7,357.8 465,470.4 				"/>
            <polygon class="st4" points="208.8,368.2 212.7,368.5 209.9,466.7 206,466.8 				"/>
            <polygon class="st4" points="225.1,368.2 274.9,371.1 272.9,464.5 222.5,465.5 				"/>
            <polygon class="st4" points="291.2,370.8 289.5,465.9 272.9,465.5 274.9,372.1 				"/>
            <polygon class="st4" points="305.3,369.8 385.7,363.8 385,468.3 303.7,466.3 				"/>
	</g>
</g>


    <g id="roof">
	<g>
		<polygon class="st2" points="213.1,218.2 118.1,242.6 118.1,244.5 104.6,242.5 210.1,214.9 275.8,226.7 464.7,183.2 738,252.9 
			725.4,254.6 725.3,252.9 464,187.3 277.8,229.6 				"/>
        <polygon class="st2" points="464.7,182 738.1,252.1 738,252.9 464.7,183.2 				"/>
        <polygon class="st2" points="744.3,245.3 745.4,244.9 465,169.6 274.7,215.8 208.5,203.3 96.8,234.1 98.2,234.6 94.8,234.1
					208.1,202.8 274.4,215.3 465.1,168.9 747.3,244.9 744.1,245.4 				"/>
        <polygon class="st2" points="465.1,168.9 465.1,168.1 747.3,244.9 				"/>
        <polygon class="st2" points="465,170.5 465,169.6 745.4,244.9 744.3,245.3 				"/>
        <polygon class="st2" points="210.1,213.9 275.8,225.7 275.8,226.7 210.1,214.9 				"/>
        <polygon class="st2" points="464.9,172.5 464.9,171.5 743.3,245.7 742.3,246.3 				"/>
        <polygon class="st2" points="464.8,173.6 464.9,172.5 742.3,246.3 741.5,246.8 				"/>
        <polygon class="st2" points="465.1,167.3 465.2,166.5 747.7,243.8 				"/>
        <polygon class="st2" points="465.1,168.1 465.1,167.3 747.4,244.4 				"/>
        <polygon class="st2" points="275.8,225.7 464.7,182 464.7,183.2 275.8,226.7 				"/>
        <polygon class="st2" points="465.2,166.5 465.2,165.7 748.1,243.4 				"/>
        <polygon class="st2" points="465.2,165.2 749.5,242.8 748.8,243 465.2,165.7 				"/>
        <polygon class="st2" points="274.4,215.3 274.4,214.6 465.1,168.1 465.1,168.9 				"/>
        <polygon class="st2" points="744.1,245.4 743.3,245.7 464.9,171.5 465,170.5 744.3,245.3 				"/>
        <polygon class="st2" points="274.9,216.4 274.7,215.8 465,169.6 465,170.5 				"/>
        <polygon class="st2" points="275.1,217.2 274.9,216.4 465,170.5 464.9,171.5 				"/>
        <polygon class="st2" points="740.7,247.5 464.8,174.8 464.8,173.6 741.5,246.8 				"/>
        <polygon class="st2" points="740,248.1 464.7,175.9 464.8,174.8 740.7,247.5 				"/>
        <polygon class="st2" points="275.4,219.8 275.3,218.9 464.8,173.6 464.8,174.8 				"/>
        <polygon class="st2" points="275.5,220.8 275.4,219.8 464.8,174.8 464.7,175.9 				"/>
        <polygon class="st2" points="464.7,182 464.7,180.8 738.3,251.2 738.1,252.1 				"/>
        <polygon class="st2" points="464.7,179.6 738.5,250.4 738.3,251.2 464.7,180.8 				"/>
        <polygon class="st2" points="275.8,224.7 275.7,223.7 464.7,179.6 464.7,180.8 				"/>
        <polygon class="st2" points="464.7,178.3 738.9,249.6 738.5,250.4 464.7,179.6 				"/>
        <polygon class="st2" points="274.4,213.9 274.3,213.3 465.2,166.5 465.1,167.3 				"/>
        <polygon class="st2" points="275.8,225.7 275.8,224.7 464.7,180.8 464.7,182 				"/>
        <polygon class="st2" points="464.7,178.3 464.7,177.1 739.4,248.9 738.9,249.6 				"/>
        <polygon class="st2" points="275.7,222.7 275.6,221.7 464.7,177.1 464.7,178.3 				"/>
        <path class="st2" d="M274.1,212.2l191.1-46.5L274.1,212.2z"/>
        <path class="st2" d="M207.5,199.6l66.7,13.1L207.5,199.6z"/>
        <polygon class="st2" points="274,212 465.2,165.2 274.1,212.2 				"/>
        <polygon class="st2" points="750.4,242.7 749.5,242.8 465.3,164.7 				"/>
        <polygon class="st2" points="465.3,163.5 468,164.3 730.9,236.5 750.3,241.8 750.4,242.7 465.3,164.7 				"/>
        <polygon class="st2" points="465.2,166.5 274.2,212.7 465.2,165.7 				"/>
        <polygon class="st2" points="739.4,248.9 464.7,177.1 464.7,175.9 740,248.1 				"/>
        <polygon class="st2" points="275.7,223.7 275.7,222.7 464.7,178.3 464.7,179.6 				"/>
        <polygon class="st2" points="465.1,168.1 274.4,214.6 274.4,213.9 465.1,167.3 				"/>
        <polygon class="st2" points="275.6,221.7 275.5,220.8 464.7,175.9 464.7,177.1 				"/>
        <polygon class="st2" points="275.2,218 275.1,217.2 464.9,171.5 464.9,172.5 				"/>
        <path class="st2" d="M207.7,200.1l66.6,13.2L207.7,200.1z"/>
        <polygon class="st2" points="274,212 274,210.9 282.5,208.8 465.3,163.5 465.3,164.7 				"/>
        <polygon class="st2" points="208,201.3 207.9,200.6 274.3,213.3 274.4,213.9 				"/>
        <polygon class="st2" points="275.3,218.9 275.2,218 464.9,172.5 464.8,173.6 				"/>
        <polygon class="st2" points="749.5,242.8 750.4,242.7 749.3,242.9 				"/>
        <polygon class="st2" points="209,204.9 208.8,204.1 274.9,216.4 275.1,217.2 				"/>
        <polygon class="st2" points="210.1,212.9 210.1,211.8 275.7,223.7 275.8,224.7 				"/>
        <polygon class="st2" points="210,210.7 275.7,222.7 275.7,223.7 210.1,211.8 				"/>
        <polygon class="st2" points="104.4,240.8 104.1,239.9 210.1,211.8 210.1,212.9 				"/>
        <polygon class="st2" points="208.1,202.1 274.4,214.6 274.4,215.3 208.1,202.8 				"/>
        <polygon class="st2" points="210,210.7 209.9,209.7 275.6,221.7 275.7,222.7 				"/>
        <polygon class="st2" points="209.8,208.7 275.5,220.8 275.6,221.7 209.9,209.7 				"/>
        <polygon class="st2" points="103.2,238.2 102.5,237.5 209.8,208.7 209.9,209.7 				"/>
        <polygon class="st2" points="275.8,225.7 210.1,213.9 210.1,212.9 275.8,224.7 				"/>
        <polygon class="st2" points="99.1,234.9 98,234.5 208.8,204.1 209,204.9 				"/>
        <polygon class="st2" points="104.6,241.6 104.4,240.8 210.1,212.9 210.1,213.9 				"/>
        <polygon class="st2" points="208,201.3 274.4,213.9 274.4,214.6 208.1,202.1 				"/>
        <polygon class="st2" points="93.9,232.4 207.9,200.6 208,201.3 				"/>
        <polygon class="st2" points="104.1,239.9 103.7,239 210,210.7 210.1,211.8 				"/>
        <polygon class="st2" points="208.8,204.1 208.5,203.3 274.7,215.8 274.9,216.4 				"/>
        <polygon class="st2" points="98,234.5 96.8,234.1 208.5,203.3 208.8,204.1 				"/>
        <polygon class="st2" points="93.2,232 92.4,231.8 207.7,200 				"/>
        <polygon class="st2" points="104.6,242.5 104.6,241.6 210.1,213.9 210.1,214.9 				"/>
        <polygon class="st2" points="207.4,199.2 207.4,198.2 213.8,199.4 274,210.9 274,212 				"/>
        <polygon class="st2" points="274.1,212.2 207.4,199.2 274,212 				"/>
        <polygon class="st2" points="91.5,231.7 91.6,230.8 123,221.9 207.4,198.2 207.4,199.2 				"/>
        <polygon class="st2" points="92.4,231.8 91.5,231.7 207.6,199.6 				"/>
        <polygon class="st2" points="209.8,208.7 209.6,207.7 275.4,219.8 275.5,220.8 				"/>
        <polygon class="st2" points="209.4,206.7 275.3,218.9 275.4,219.8 209.6,207.7 				"/>
        <polygon class="st2" points="101.8,236.8 101,236.1 209.4,206.7 209.6,207.7 				"/>
        <polygon class="st2" points="102.5,237.5 101.8,236.8 209.6,207.7 209.8,208.7 				"/>
        <polygon class="st2" points="209.2,205.8 275.2,218 275.3,218.9 209.4,206.7 				"/>
        <polygon class="st2" points="209,204.9 275.1,217.2 275.2,218 209.2,205.8 				"/>
        <polygon class="st2" points="101,236.1 100.1,235.5 209.2,205.8 209.4,206.7 				"/>
        <polygon class="st2" points="100.1,235.5 99.1,234.9 209,204.9 209.2,205.8 				"/>
        <polygon class="st2" points="103.7,239 103.2,238.2 209.9,209.7 210,210.7 				"/>
        <polygon class="st2" points="93.9,232.4 93.2,232 207.9,200.6 				"/>
        <polygon class="st2" points="94.7,233.5 208.1,202.1 208.1,202.8 				"/>
        <polygon class="st2" points="94.4,232.9 208,201.3 208.1,202.1 				"/>
        <polygon class="st2" points="92.8,231.9 91.5,231.7 92.4,231.8 				"/>
        <line class="st2" x1="747.3" y1="244.9" x2="744.1" y2="245.4"/>
        <line class="st2" x1="745.4" y1="244.9" x2="744.3" y2="245.3"/>
        <line class="st2" x1="275.8" y1="226.7" x2="210.1" y2="214.9"/>
        <path class="st2" d="M743.2,245.8l-0.9,0.5 M742.4,246.2l-0.9,0.6"/>
        <line class="st2" x1="464" y1="187.3" x2="277.8" y2="229.6"/>
        <line class="st2" x1="738" y1="252.9" x2="725.4" y2="254.6"/>
        <line class="st2" x1="738.3" y1="251.2" x2="738.1" y2="252.1"/>
        <path class="st2" d="M465.1,166.5v0.8 M464.7,177.1v1.2 M464.7,180.8v1.2 M465.3,164.7l285.1,78"/>
        <line class="st2" x1="739.4" y1="248.9" x2="738.9" y2="249.6"/>
        <line class="st2" x1="465" y1="169.6" x2="745.4" y2="244.9"/>
        <line class="st2" x1="738.9" y1="249.6" x2="738.5" y2="250.4"/>
        <path class="st2" d="M464.7,178.4v1.2 M464.7,175.9v1.2"/>
        <path class="st2" d="M740,248.2l-0.6,0.7 M738.6,250.4l-0.3,0.8 M738,252.1v0.8"/>
        <path class="st2" d="M464.9,171.5v1 M465.3,163.5v1.2 M274.3,213.2l0.1,0.7 M464.8,172.5v1.1 M465.2,165.8v0.7 M465.1,167.3
					v0.8"/>
        <path class="st2" d="M750.4,242.7l-1.1,0.2 M741.5,246.9l-0.8,0.6"/>
        <line class="st2" x1="750.4" y1="242.7" x2="749.5" y2="242.8"/>
        <path class="st2" d="M750.4,241.8v0.9 M740.7,247.4l-0.7,0.7"/>
        <path class="st2" d="M209.2,205.8l0.2,0.9 M209.8,208.7l0.1,1 M210.1,211.8v1.1 M207.4,199.3L274,212 M274.9,216.4l0.2,0.8
					 M208.6,203.3l0.2,0.8 M275.8,223.7v1 M275.8,225.7v1 M208,202.8l66.4,12.5 M274.7,215.7L465,169.6 M209.4,206.7l0.2,1
					 M209.6,207.7l0.2,1 M275.6,221.7l0.1,1 M208.8,204.1l0.2,0.8 M210.1,212.8v1.1 M207.9,200.6l0.1,0.7 M207.4,198.1v1.1
					 M209,204.9l0.2,0.9 M274,212l191.3-47.3 M210,210.7l0.1,1.1 M274.7,215.7l0.2,0.7 M210.1,213.9v1 M274,211v1 M275.4,219.9
					l0.1,0.9 M274.4,214.6v0.7 M209.9,209.7l0.1,1 M274.4,215.2l190.7-46.3 M275.6,222.7l0.1,1 M275.1,217.2l0.1,0.8 M275.8,224.7v1
					 M274.4,213.9v0.7 M275.2,218l0.1,0.9 M275.3,218.9l0.1,0.9 M208.1,202.1v0.7 M208,201.4l0.1,0.7 M275.5,220.7l0.1,1
					 M208.5,203.4l66.2,12.4 M91.5,231.7l0.9,0.1"/>
        <path class="st2" d="M99.1,235l1,0.5 M103.7,239.1l0.4,0.8"/>
        <path class="st2" d="M92.7,231.9l-1.2-0.2 M98.2,234.6l-3.4-0.5"/>
	</g>
</g>


    <g id="chimney">
	<polygon class="st6" points="571.8,28.6 571.9,34.4 568.5,32.9 543.8,41 543.7,37.9 			"/>
        <polygon class="st6" points="568.7,42.3 574.2,44.8 546.1,53.7 540.5,51.3 			"/>
        <polygon class="st5" points="543.8,41 568.5,32.9 568.7,42.3 540.5,51.3 540.4,42.1 			"/>
        <polygon class="st5" points="574.2,44.8 576.6,164.7 547.4,133.2 546.1,53.7 			"/>
        <polygon class="st5" points="568.2,19.7 568.4,27 540.3,36.4 540.2,29.2 			"/>
        <polygon class="st6" points="571.9,34.4 571.8,28.6 568.4,27 568.2,19.7 597.8,33.5 598,40.7 594.2,38.9 594.3,41.9 594.3,44.6
			598.2,46.3 598.4,55.5 592.7,53 592.8,57.2 595.4,170.5 576.6,164.7 574.2,44.8 568.7,42.3 568.5,32.9 			"/>
        <polygon class="st5" points="594.3,41.9 594.2,38.9 598,40.7 			"/>
        <polygon class="st5" points="543.7,37.9 540.3,36.4 568.4,27 571.8,28.6 			"/>
        <polygon class="st5" points="592.8,57.2 592.7,53 598.4,55.5 			"/>
</g>


    <g id="left-window">
	<g>
		<g>
			<g>
				<polygon class="st7" points="537.9,352.8 538.9,352.7 540.2,446 539.1,446 					"/>
			</g>
		</g>
        <g>
			<polygon class="st9" points="554,441.3 543.6,441.3 542.3,356.3 552.7,357.3 				"/>
            <polygon class="st9" points="555.4,357.6 580.8,360 581.6,400.5 556.1,399.2 				"/>
            <polygon class="st9" points="556.8,441.3 556.2,402.2 581.6,403.3 582.4,441.4 				"/>
		</g>
        <path class="st7" d="M540.2,446h-1.1 M540.2,446l45.5-0.2 M537.8,352.9l1.3,93.1 M538.9,352.7l-1,0.1"/>
        <path class="st7" d="M585.7,445.8l-1.8-88.6 M583.9,357.1l-45-4.4"/>
	</g>


        <g>
			<polygon class="st7" points="538.5,324.2 583.4,330 582.4,330.1 537.5,324.3 			"/>
            <g>
			<polygon class="st7" points="536.2,234 537.2,233.8 538.5,324.2 537.5,324.3 				"/>
                <path class="st7" d="M537.2,233.9l44.5,10.1l1.7,86l-44.9-5.8L537.2,233.9z M541.9,320.1l10.3,1.4l-1.3-81.5l-10.3-2.3
				L541.9,320.1z M578.6,246.3l-25-5.6l0.6,40.4l25.2,4.5L578.6,246.3z M554.2,283.9l0.6,38l25.3,3.4l-0.7-36.9L554.2,283.9z"/>
		</g>
            <g>
			<polygon class="st9" points="552.2,321.5 541.8,320.1 540.6,237.7 550.9,240 				"/>
                <polygon class="st9" points="553.6,240.7 578.6,246.3 579.4,285.6 554.2,281.1 				"/>
                <polygon class="st9" points="554.9,321.9 554.2,283.9 579.4,288.4 580.1,325.3 				"/>
		</g>
            <line class="st7" x1="537.5" y1="324.3" x2="582.4" y2="330.1"/>
            <path class="st7" d="M538.5,324.2l-1,0.1 M538.5,324.2l44.9,5.8"/>
            <path class="st7" d="M583.4,330l-1,0.1 M536.3,234l1.2,90.3 M537.2,233.8l-1,0.2"/>
            <path class="st7" d="M583.4,330l-1.7-86 M581.7,244l-44.5-10.2"/>
	</g>
	
</g>


    <g>
	<g>
		<g>
			<g>
				<polygon class="st4" points="401.7,362.1 401.7,352.5 396.9,352.1 392.4,352.9 390.1,352.7 385.7,353.1 385.6,363.3
					305.2,369.3 305.3,360.6 300.6,360.3 296.9,360.9 295,360.8 291.3,361.1 291.1,370.4 274.8,371.6 225,368.7 225,367.4
					220.4,367.1 217.3,367.6 215.7,367.5 212.6,368 208.7,367.8 199.4,367.2 396.3,350.1 473.8,356.7 464.5,357.4 				"/>
                <polygon class="st3" points="396.3,350.1 396.4,333.3 473.7,341 473.8,356.7 				"/>
                <g>
					<polygon class="st3" points="396.4,333.3 442.1,313.6 464.5,333 473.7,341 					"/>
                    <polygon class="st3" points="275.6,333 442.1,313.6 396.4,333.3 199.8,353.5 209.2,350.9 					"/>
				</g>
                <polygon class="st3" points="396.4,333.3 396.3,350.1 199.4,367.2 199.8,353.5 				"/>
			</g>

            <g>
				<polygon class="st0" points="395.7,541.7 395.6,562.6 283.8,549.8 283.9,540.4 214.5,533.1 203.7,533.9 204,523.5 				"/>
                <polygon class="st4" points="212.7,523.9 215.9,524.2 220.6,523.9 220.7,522.4 271.5,519.1 288.1,520.5 287.9,531.1
					291.7,531.4 293.6,531.6 297.4,532 302.3,531.6 302.4,521.7 384.3,528.6 384.3,540.2 388.8,540.6 391.1,540.8 395.8,541.3
					400.7,540.8 400.7,529.9 465,535.3 395.7,541.7 204,523.5 207.9,523.5 211.1,523.8 				"/>
                <polygon class="st4" points="395.7,541.7 465,535.3 465,554.9 395.6,562.6 				"/>
                <polygon class="st0" points="199.8,540.1 200,534.2 269.1,541.7 268.9,551.1 199.7,542.9 				"/>
                <polygon class="st4" points="203.7,533.9 214.5,533.1 283.9,540.4 269.1,541.7 200,534.2 				"/>
                <polygon class="st4" points="283.9,540.4 283.8,549.8 268.9,551.1 269.1,541.7 				"/>
			</g>


            <line class="st6" x1="733.1" y1="462.6" x2="735.4" y2="524.8"/>
		</g>

	</g>
        <g>
		<g>
			<g>
				<polygon class="st9" points="135.4,265.6 134.2,298.1 126.1,299.6 127.4,267.4 				"/>
                <polygon class="st9" points="146.6,263 144.6,317.4 135.8,318.8 137.8,265 				"/>
                <polygon class="st9" points="133.4,319.2 125.2,320.5 125.9,304.7 134,303.2 				"/>
			</g>
            <g>
				<polygon class="st7" points="146.3,320.6 150,321 127,324.5 123.3,324.2 				"/>
                <path class="st7" d="M146.3,320.6l-23,3.6l2.4-59.8l22.9-5.3L146.3,320.6z M134.2,298l1.3-32.5l-8.1,1.9l-1.3,32.2L134.2,298z
					 M144.6,317.4l2.1-54.4l-8.8,2l-2.1,53.8L144.6,317.4z M125.3,320.5l8.1-1.3l0.6-16l-8.1,1.5L125.3,320.5z"/>
                <polygon class="st7" points="152.3,259.6 150,321 146.3,320.6 148.6,259.1 				"/>
			</g>
		</g>
            <g>
			<g>
				<polygon class="st9" points="379.1,238.7 378.8,276.3 366.4,278.3 366.7,241.2 				"/>
                <polygon class="st9" points="396.1,235.3 395.8,298.4 382.3,300.3 382.7,238 				"/>
                <polygon class="st9" points="378.6,300.8 366.2,302.5 366.4,284.2 378.8,282.3 				"/>
			</g>
                <g>
				<polygon class="st7" points="398.7,302.1 402.2,302.5 367,307.3 363.5,306.8 				"/>
                    <path class="st7" d="M398.7,302l-35.2,4.8l0.6-69l34.9-7.1L398.7,302z M378.7,276.3l0.3-37.6l-12.3,2.5l-0.3,37.1L378.7,276.3z
					 M395.8,298.4l0.3-63.1l-13.4,2.7l-0.4,62.3L395.8,298.4z M366.3,302.5l12.4-1.7l0.1-18.5l-12.4,1.9L366.3,302.5z"/>
                    <polygon class="st7" points="402.5,231.4 402.2,302.5 398.7,302.1 399,230.7 				"/>
			</g>
		</g>
            <g>
			<g>
				<polygon class="st9" points="172.3,257.2 171.1,291.2 162.2,292.8 163.4,259.2 				"/>
                <polygon class="st9" points="184.6,254.4 182.7,311.3 173,312.9 174.9,256.6 				"/>
                <polygon class="st9" points="170.4,313.3 161.4,314.7 162,298.2 170.9,296.6 				"/>
			</g>
                <g>
				<polygon class="st7" points="184.6,314.7 188.4,315.1 163.2,319 159.4,318.6 				"/>
                    <path class="st7" d="M184.6,314.7l-25.2,3.9l2.2-62.5l25.1-5.8L184.6,314.7z M171.1,291.2l1.2-34l-8.9,2l-1.2,33.6L171.1,291.2
					z M182.7,311.4l1.9-57l-9.7,2.2l-1.9,56.3L182.7,311.4z M161.4,314.7l8.9-1.4l0.6-16.7l-8.9,1.6L161.4,314.7z"/>
                    <polygon class="st7" points="190.5,250.8 188.4,315.1 184.6,314.7 186.7,250.3 				"/>
			</g>
		</g>
            <g>
			<g>
				<polygon class="st7" points="649.1,363.7 650.1,363.7 652.4,445.5 651.4,445.5 				"/>
                <path class="st7" d="M650.1,363.7l34.9,3.4l2.6,78.3l-35.2,0.1L650.1,363.7z M654.9,441.5h8.1l-2.2-73.9l-8-0.8L654.9,441.5z
					 M682.6,369.6l-19.7-1.9l1.1,36.7l19.8,1L682.6,369.6z M664.2,407.1l1,34.4H685l-1.1-33.6L664.2,407.1z"/>
			</g>
                <g>
				<polygon class="st9" points="663,441.5 654.9,441.5 652.8,366.8 660.8,367.5 				"/>
                    <polygon class="st9" points="662.9,367.7 682.6,369.6 683.8,405.4 664,404.4 				"/>
                    <polygon class="st9" points="665.1,441.5 664.1,407 683.9,407.9 685,441.5 				"/>
			</g>
                <path class="st7" d="M652.4,445.5h-1 M652.4,445.5l35.2-0.1 M649.1,363.7l2.3,81.8 M650.1,363.6l-1,0.1"/>
                <path class="st7" d="M687.6,445.4l-2.6-78.3 M685,367.1l-34.9-3.4"/>
		</g>


            <g>
			<g>
				<polygon class="st9" points="167.8,387.1 166.6,422.3 157.6,422.5 158.9,387.7 				"/>
                <polygon class="st9" points="180.3,386.3 178.3,445.2 168.5,445.2 170.5,386.9 				"/>
                <polygon class="st9" points="165.8,445.2 156.8,445.2 157.4,428.1 166.4,427.9 				"/>
			</g>
                <g>
				<path class="st7" d="M180.2,449.1l-25.5-0.2l2.3-64.6l25.4-1.9L180.2,449.1z M166.6,422.3l1.2-35.2l-9,0.6l-1.2,34.8
					L166.6,422.3z M178.4,445.2l1.9-59l-9.8,0.7l-2,58.3H178.4z M156.8,445.2h9l0.6-17.3l-9,0.2L156.8,445.2z"/>
                    <polygon class="st7" points="186.3,382.5 184.2,449 180.3,449.1 182.4,382.4 				"/>
			</g>
                <line class="st7" x1="180.3" y1="449.1" x2="184.2" y2="449"/>
		</g>
            <g>
			<polygon class="st9" points="311.5,259.6 310.7,308.1 294.5,310.4 295.4,262.7 			"/>
                <g>
				<path class="st7" d="M312.2,310.9l-19.2,2.6l1-53.4l19-3.7L312.2,310.9z M310.7,308.1l0.8-48.5l-16.1,3.1l-0.9,47.7
					L310.7,308.1z"/>
                    <polygon class="st8" points="313.6,313.6 314.5,253.3 318.7,254 317.8,314 				"/>
                    <polygon class="st8" points="295.7,317 291.5,316.6 313.6,313.6 317.8,314 				"/>
                    <path class="st8" d="M291.5,316.5l1.1-58.9l21.9-4.3l-0.9,60.3L291.5,316.5z M292.9,313.5l19.2-2.6l0.9-54.4l-19,3.7
					L292.9,313.5z"/>
			</g>
                <line class="st7" x1="317.8" y1="314" x2="318.7" y2="254"/>
                <line class="st7" x1="314.5" y1="253.3" x2="318.7" y2="254"/>
                <path class="st7" d="M314.5,253.3l-21.9,4.3 M291.5,316.5l4.2,0.5 M292.6,257.7l-1.1,58.9"/>
                <line class="st7" x1="295.7" y1="317" x2="317.8" y2="314"/>
		</g>
            <g>
			<g>
				<polygon class="st9" points="130.6,389.7 129.3,423.2 121.1,423.4 122.4,390.2 				"/>
                <polygon class="st9" points="141.9,388.9 139.8,445.1 130.8,445.1 133,389.5 				"/>
                <polygon class="st9" points="128.4,445.1 120.2,445 120.9,428.7 129.1,428.6 				"/>
			</g>
                <g>
				<path class="st7" d="M141.5,448.8l-23.2-0.2l2.5-61.7l23.1-1.7L141.5,448.8z M129.3,423.2l1.3-33.6l-8.2,0.6l-1.3,33.2
					L129.3,423.2z M139.8,445.1l2.1-56.2l-8.9,0.6l-2.2,55.6H139.8z M120.3,445h8.2l0.6-16.5l-8.2,0.2L120.3,445z"/>
                    <polygon class="st7" points="147.7,385.3 145.3,448.7 141.5,448.7 143.9,385.2 				"/>
			</g>
                <line class="st7" x1="143.9" y1="385.2" x2="147.7" y2="385.3"/>
                <line class="st7" x1="141.5" y1="448.7" x2="145.3" y2="448.7"/>
		</g>
            <g>
			<polygon class="st47" points="649.4,338.5 684.2,343 683.2,343.1 648.4,338.6 			"/>
                <g>
				<polygon class="st7" points="646.1,259 647.1,258.9 649.4,338.5 648.4,338.6 				"/>
                    <path class="st7" d="M647.2,258.8l34.6,7.9l2.5,76.3l-34.9-4.5L647.2,258.8z M651.9,334.9l8,1.1l-2.2-71.9l-7.9-1.8
					L651.9,334.9z M679.3,269l-19.5-4.4l1.1,35.7l19.6,3.5L679.3,269z M661,302.8l1,33.5l19.7,2.6l-1.1-32.7L661,302.8z"/>
			</g>
                <g>
				<polygon class="st9" points="659.9,336 651.9,334.9 649.8,262.3 657.7,264.1 				"/>
                    <polygon class="st9" points="659.8,264.5 679.3,268.9 680.5,303.8 660.9,300.2 				"/>
                    <polygon class="st9" points="662,336.3 661,302.8 680.6,306.2 681.6,338.9 				"/>
			</g>
                <line class="st7" x1="648.4" y1="338.6" x2="683.2" y2="343.1"/>
                <path class="st7" d="M649.4,338.5l-1,0.1 M649.3,338.5l34.9,4.5"/>
                <path class="st7" d="M684.2,343l-1,0.1 M646.2,259l2.2,79.6 M647.1,258.9l-1,0.1"/>
                <path class="st7" d="M684.2,343.1l-2.5-76.3 M681.7,266.8l-34.6-7.9"/>
		</g>
            <g>
			<g>
				<polygon class="st9" points="378.1,380.1 377.8,419.1 365.2,419.4 365.5,380.8 				"/>
                <polygon class="st9" points="395.5,379 395.2,444.5 381.3,444.5 381.8,379.8 				"/>
                <polygon class="st9" points="377.6,444.5 365,444.4 365.1,425.5 377.8,425.3 				"/>
			</g>
                <g>
				<path class="st7" d="M398.1,448.8l-35.8-0.2l0.6-71.6l35.5-2.4L398.1,448.8z M377.7,419.1l0.3-39l-12.5,0.8l-0.3,38.5
					L377.7,419.1z M395.1,444.5l0.3-65.5l-13.7,0.8l-0.4,64.7H395.1z M365,444.5h12.6l0.1-19.2l-12.6,0.2L365,444.5z"/>
                    <polygon class="st7" points="401.9,374.9 401.6,448.7 398,448.8 398.4,374.6 				"/>
			</g>
                <line class="st7" x1="398" y1="448.8" x2="401.6" y2="448.7"/>
		</g>
	</g>


        <g>
		<g>
			<polygon class="st9" points="304,391.9 303.4,428.1 292.6,428.3 293.3,392.5 			"/>
            <polygon class="st9" points="318.9,391.1 318,451.7 306.2,451.6 307.2,391.8 			"/>
            <polygon class="st9" points="303,451.6 292.2,451.5 292.5,433.9 303.3,433.8 			"/>
		</g>
            <g>
			<path class="st7" d="M313.7,470.5l0.7,0.1L313.7,470.5z"/>
                <path class="st7" d="M314.2,470.2l0.8,0.3L314.2,470.2z"/>
                <path class="st7" d="M314.7,469.7l0.9,0.5L314.7,469.7z"/>
                <polygon class="st7" points="314.7,469.6 315.1,468.9 316.4,468.8 316,469.6 			"/>
                <polygon class="st7" points="315.1,468.9 315.3,468 316.7,468 316.4,468.8 			"/>
                <polygon class="st7" points="315.3,468 315.4,467 316.8,467 316.7,468 			"/>
                <polygon class="st7" points="315.4,467 315.3,466.1 316.7,466.1 316.8,467 			"/>
                <polygon class="st7" points="315.3,466.1 315.1,465.2 316.5,465.2 316.7,466.1 			"/>
                <polygon class="st7" points="315.1,465.2 314.8,464.4 316.1,464.4 316.5,465.2 			"/>
                <path class="st7" d="M314.3,463.8l1.8,0.6L314.3,463.8z"/>
                <path class="st7" d="M313.8,463.4l1.9,0.4L313.8,463.4z"/>
                <path class="st7" d="M313.2,463.3l1.9,0.1L313.2,463.3z"/>
                <polygon class="st7" points="312.2,467.9 312.4,468.7 311.1,468.8 310.9,467.9 			"/>
                <polygon class="st7" points="312.2,466.9 312.2,466 312.5,465.1 312.9,464.3 313.8,463.5 314.8,464.4 315.1,465.2 315.3,466.1
				315.4,467 315.3,468 315.1,468.9 314.7,469.6 313.8,470.5 312.8,469.5 312.4,468.7 312.2,467.9 			"/>
                <polygon class="st7" points="313.7,470.5 311.9,470.1 313.8,470.5 			"/>
                <path class="st7" d="M311.5,469.5l1.8,0.6L311.5,469.5z"/>
                <polygon class="st7" points="311.4,469.5 311.1,468.8 312.4,468.7 312.8,469.5 			"/>
                <polygon class="st7" points="310.9,467.9 310.8,466.9 312.2,466.9 312.2,467.9 			"/>
                <polygon class="st7" points="310.8,466.9 310.9,466 312.2,466 312.2,466.9 			"/>
                <polygon class="st7" points="310.9,466 311.1,465.1 312.5,465.1 312.2,466 			"/>
                <polygon class="st7" points="311.1,465.1 311.5,464.4 312.9,464.3 312.5,465.1 			"/>
                <path class="st7" d="M312,463.8l0.9,0.5L312,463.8z"/>
                <path class="st7" d="M312.5,463.5l0.8,0.3L312.5,463.5z"/>
                <polygon class="st7" points="313.6,470.6 312.5,470.5 313.7,470.5 			"/>
                <path class="st7" d="M313.6,463.4h-1H313.6z"/>
                <path class="st8" d="M319.4,525.4l-30.9-2.6l2.5-133.9l30.4-1.8L319.4,525.4z M316,469.7l0.4-0.8l0.2-0.9l0.1-0.9l-0.1-1
				l-0.2-0.9l-0.8-1.4l-1.2-0.5l-1.9,0.1l-1,0.9l-0.4,0.8l-0.2,0.9v0.8l0.1,1l0.2,0.9l0.8,1.4l1.1,0.5l1.9-0.1L316,469.7z
				 M303.4,428.2L304,392l-10.7,0.6l-0.7,35.7L303.4,428.2z M318,451.6l0.9-60.6l-11.7,0.7l-1,59.9H318z M292.2,451.5l10.8,0.1
				l0.3-17.8l-10.8,0.1L292.2,451.5z"/>
                <polygon class="st7" points="325,387.3 323,525.2 319.4,525.5 321.4,387.1 			"/>
		</g>
            <line class="st7" x1="321.4" y1="387.1" x2="291" y2="388.9"/>
            <line class="st7" x1="321.4" y1="387.1" x2="325" y2="387.3"/>
	</g>
        <g>
    		<polygon class="st4" points="391.4,540.4 389.1,540.6 390.2,352.7 392.5,352.8 		"/>
            <polygon class="st4" points="389.1,540.6 384.5,540.2 384.6,528.6 385,467.8 385.7,363.2 385.7,353 390.2,352.7 		"/>
            <polygon class="st4" points="305.3,369.3 303.6,465.7 302.7,521.7 302.5,531.6 297.7,532 300.7,360.3 305.4,360.6 		"/>
            <polygon class="st4" points="293.9,531.3 296.9,360.6 300.7,360.3 297.7,532 		"/>
            <polygon class="st4" points="211.4,523.8 208.2,523.2 209.8,466.2 212.6,367.7 215.8,367.4 		"/>
            <polygon class="st4" points="225.1,368.7 222.4,466 220.9,522.4 220.9,523.9 216.1,524.2 220.5,367.1 225.1,367.3 		"/>
            <polygon class="st4" points="212.9,523.7 217.3,367.3 220.5,367.1 216.1,524.2 		"/>
            <polygon class="st4" points="212.9,523.7 211.4,523.8 215.8,367.4 217.3,367.5 		"/>
            <polygon class="st4" points="292,531.4 288.2,531.1 288.4,520.5 289.4,465.4 291.2,370.3 291.4,361 295.1,360.7 		"/>
            <polygon class="st4" points="293.9,531.3 292,531.4 295.1,360.7 296.9,360.9 		"/>
            <polygon class="st4" points="391.4,540.4 392.5,352.5 397,352.1 396,541.3 391.4,540.8 		"/>
            <polygon class="st4" points="401.8,352.5 401.7,362 401.3,468.2 401,529.9 400.9,540.8 396,541.3 397,352.1 		"/>
            <path class="st4" d="M215.7,367.4l1.6,0.1 M291.4,361l3.7-0.3"/>
            <line class="st4" x1="217.3" y1="367.3" x2="220.5" y2="367.1"/>
	</g>
</g>
</svg>
